<?xml version="1.0" encoding="utf-8"?>
<!-- Generator: Adobe Illustrator 16.0.1, SVG Export Plug-In . SVG Version: 6.00 Build 0)  -->
<!DOCTYPE svg PUBLIC "-//W3C//DTD SVG 1.1//EN" "http://www.w3.org/Graphics/SVG/1.1/DTD/svg11.dtd">
<svg version="1.1" id="Layer_1" xmlns="http://www.w3.org/2000/svg" xmlns:xlink="http://www.w3.org/1999/xlink" x="0px" y="0px"
	 width="400px" height="400px" viewBox="0 0 400 400" enable-background="new 0 0 400 400" xml:space="preserve">
<path fill="#F8F8F8" d="M200.118,13.136c-103.217,0-186.873,83.681-186.873,186.872c0,103.185,83.656,186.856,186.873,186.856
	c103.191,0,186.864-83.672,186.864-186.856C386.982,96.816,303.31,13.136,200.118,13.136z"/>
<g>
	<path fill="#59595B" d="M342.892,93.93c5.328,7.145,10.226,14.597,14.442,22.495l7.761-4.104
		c-4.428-8.296-9.561-16.129-15.132-23.622L342.892,93.93z"/>
	<path fill="#59595B" d="M377.551,213.892c-0.689,9.001-2.067,17.784-4.046,26.38l8.506,1.971c2.076-9.01,3.512-18.23,4.241-27.694
		L377.551,213.892z"/>
	<path fill="#59595B" d="M351.244,293.866c-4.735,7.599-9.934,14.824-15.7,21.587l6.683,5.693
		c6.058-7.104,11.523-14.694,16.47-22.649L351.244,293.866z"/>
	<path fill="#59595B" d="M369.296,255.501c-2.798,8.515-6.293,16.713-10.291,24.62l7.817,3.965
		c4.201-8.296,7.85-16.908,10.794-25.86L369.296,255.501z"/>
	<path fill="#59595B" d="M375.767,171.512c1.396,8.701,2.295,17.557,2.393,26.615l8.726-0.146
		c-0.105-9.487-1.046-18.757-2.514-27.871L375.767,171.512z"/>
	<path fill="#59595B" d="M195.958,22.064c1.395-0.024,2.757-0.203,4.16-0.203c7.622,0,15.1,0.641,22.471,1.581l1.095-8.66
		c-7.736-0.974-15.562-1.646-23.565-1.646c-1.484,0-2.92,0.187-4.396,0.219L195.958,22.064z"/>
	<path fill="#59595B" d="M313.876,63.057c6.853,5.701,13.146,12.002,19.058,18.644l6.568-5.839
		c-6.22-6.981-12.812-13.599-20.006-19.575L313.876,63.057z"/>
	<path fill="#59595B" d="M238.167,26.054c8.799,1.922,17.306,4.574,25.561,7.753l3.114-8.175c-8.661-3.324-17.589-6.105-26.81-8.117
		L238.167,26.054z"/>
	<path fill="#59595B" d="M255.01,378.642l-2.57-8.369c-8.426,2.604-17.191,4.403-26.096,5.718l1.306,8.636
		C236.991,383.239,246.163,381.366,255.01,378.642z"/>
	<path fill="#59595B" d="M282.03,32.249l-3.835,7.883c8.028,3.933,15.765,8.345,23.07,13.404l4.996-7.233
		C298.598,41,290.456,36.377,282.03,32.249z"/>
	<path fill="#59595B" d="M324.808,327.033c-6.357,6.229-13.242,11.896-20.452,17.127l5.134,7.137
		c7.574-5.507,14.808-11.442,21.474-17.986L324.808,327.033z"/>
	<path fill="#59595B" d="M291.162,352.854c-7.623,4.55-15.546,8.637-23.858,12.043l3.301,8.101
		c8.71-3.552,17.029-7.833,25.025-12.602L291.162,352.854z"/>
	<path fill="#59595B" d="M372.288,127.267l-8.077,3.414c3.455,8.143,6.114,16.674,8.345,25.383l8.458-2.182
		C378.687,144.759,375.896,135.807,372.288,127.267z"/>
	<path fill="#59595B" d="M91.403,340.803c-7.047-5.449-13.688-11.36-19.835-17.808l-6.358,6.082
		c6.455,6.763,13.43,12.967,20.825,18.708L91.403,340.803z"/>
	<path fill="#59595B" d="M114.531,43.846c7.761-4.273,15.951-7.825,24.369-10.915l-3.009-8.223
		c-8.831,3.235-17.436,6.958-25.585,11.434L114.531,43.846z"/>
	<path fill="#59595B" d="M124.214,370.662l3.552-8.028c-8.174-3.649-15.999-7.907-23.468-12.708l-4.744,7.429
		C107.403,362.366,115.626,366.843,124.214,370.662z"/>
	<path fill="#59595B" d="M179.188,14.376c-9.415,1.047-18.57,2.937-27.531,5.328l2.287,8.434c8.53-2.286,17.265-4.087,26.241-5.084
		L179.188,14.376z"/>
	<path fill="#59595B" d="M96.131,44.746c-7.784,5.23-15.019,11.15-21.919,17.468l5.928,6.495
		c6.568-6.009,13.462-11.669,20.873-16.641L96.131,44.746z"/>
	<path fill="#59595B" d="M210.652,377.62c-3.504,0.194-6.982,0.535-10.534,0.535c-5.45,0-10.826-0.341-16.171-0.827l-0.794,8.685
		c5.604,0.511,11.231,0.852,16.965,0.852c3.729,0,7.371-0.341,11.045-0.56L210.652,377.62z"/>
	<path fill="#59595B" d="M168.305,375.139c-8.855-1.606-17.476-3.868-25.828-6.739l-2.839,8.271
		c8.774,3.017,17.816,5.377,27.118,7.056L168.305,375.139z"/>
	<path fill="#59595B" d="M38.798,275.085c-3.763-8.028-6.998-16.349-9.528-24.961l-8.394,2.457
		c2.652,9.051,6.033,17.76,9.967,26.201L38.798,275.085z"/>
	<path fill="#59595B" d="M22.353,192.45c0.389-9.018,1.297-17.897,2.976-26.525l-8.579-1.663
		c-1.752,9.051-2.709,18.368-3.099,27.848L22.353,192.45z"/>
	<path fill="#59595B" d="M29.091,150.59c2.506-8.629,5.669-16.965,9.375-24.993l-7.956-3.674
		c-3.892,8.434-7.201,17.176-9.812,26.242L29.091,150.59z"/>
	<path fill="#59595B" d="M52.3,100.709c4.987-7.412,10.656-14.297,16.665-20.857l-6.479-5.937
		c-6.317,6.901-12.262,14.127-17.508,21.912L52.3,100.709z"/>
	<path fill="#59595B" d="M61.131,311.147c-5.555-6.934-10.558-14.329-15.051-22.05l-7.599,4.379
		c4.704,8.134,9.942,15.895,15.765,23.169L61.131,311.147z"/>
	<path fill="#59595B" d="M25.426,234.765c-1.711-8.612-2.611-17.491-3.041-26.509l-8.701,0.396c0.438,9.473,1.387,18.79,3.179,27.84
		L25.426,234.765z"/>
</g>
<rect x="0.789" y="0.68" fill="none" width="398.649" height="398.641"/>
<path fill="#D2E9F9" d="M200.118,361.952c-89.301,0-161.953-72.66-161.953-161.944c0-89.3,72.652-161.952,161.953-161.952
	c89.292,0,161.952,72.652,161.952,161.952C362.07,289.292,289.41,361.952,200.118,361.952z"/>
<path fill="#9BC29D" d="M347.847,266.035c-2.984,0-5.952,0-8.929,0c-8.247,0-16.121-0.73-22.585-6.423
	c-6.568-5.766-6.422-17.298-15.383-17.298c-12.026,0-12.976,17.954-24.993,17.954c-5.45,0-8.013-3.868-13.454-3.868
	c-4.809,0-9.609,3.065-9.609,7.858c0,4.16,0,8.345,0,12.505c0,10.559-14.094,12.65-14.094,23.241c0,4.306,3.852,5.912,3.852,10.242
	c0,14.402-25.649,12.48-25.649,26.907c0,4.744,1.751,7.565,1.922,12.115c0.016,0.219,0.016,0.462,0.016,0.705
	c0,2.758-0.43,6.626-1.191,10.98C275.9,354.63,324.808,317.375,347.847,266.035z"/>
<path fill="#9BC29D" d="M200.118,38.056c-89.301,0-161.953,72.652-161.953,161.952c0,74.493,50.644,137.243,119.273,156.058
	c0.584-1.728,1.208-3.455,1.8-5.183c1.436-4.144,2.652-8.474,2.652-13.899c0-13.623-26.023-9.804-30.11-17.954
	c-10.137-20.241,17.297-25.455,17.297-41.634c0-4.014-2.067-12.188-8.328-12.82c-8.758-0.9-11.045,3.844-19.859,3.844
	c-5.45,0-10.883-3.527-10.883-8.953c0-9.634,7.671-14.11,7.671-23.728c0-6.253-2.555-9.78-2.555-16.008
	c0-8.482,6.244-16.024,14.735-16.024c8.02,0,11.531,6.568,15.375,13.445c3.212,5.79,8.782,7.688,15.384,7.688
	c12.172,0,19.859-15.196,19.859-24.344c0-6.236,4.655-12.173,10.907-12.173c8.637,0,11.848,8.978,20.492,8.978
	c14.249,0,13.729-18.854,26.267-25.642c15.384-8.32,10.907-26.25,8.969-35.868c-0.827-4.258,7.242-12.48,11.557-12.188
	c17.938,1.289,10.25-13.429,10.25-20.509c0-1.265,0.202-2.433,0.567-3.527c2.773-8.247,14.808-10.875,14.808-20.809
	c0-7.056-5.782-10.267-5.782-17.297c0-0.933,0.26-1.85,0.503-2.766C255.643,45.598,228.752,38.056,200.118,38.056z"/>
<path fill="#F8F8F8" d="M19.725,151.952l0.17,0.17c2.434,2.433,5.62,3.649,8.808,3.649c3.187,0,6.374-1.217,8.807-3.649L52.9,136.73
	c3.195,1.654,6.52,3.025,9.958,4.096v21.806c0,6.885,5.571,12.456,12.464,12.456h12.456c6.885,0,12.456-5.571,12.456-12.456v-21.806
	c3.446-1.07,6.764-2.441,9.967-4.096l15.384,15.392c2.433,2.433,5.628,3.649,8.814,3.649s6.374-1.217,8.807-3.649l8.807-8.807
	c4.866-4.874,4.866-12.756,0-17.621l-15.392-15.392c1.654-3.195,3.033-6.521,4.104-9.959h21.798c6.885,0,12.456-5.571,12.456-12.464
	V75.424c0-6.885-5.571-12.456-12.456-12.456h-21.798c-1.07-3.446-2.449-6.763-4.104-9.967l15.392-15.383
	c4.866-4.866,4.866-12.756,0-17.622l-0.308-0.3C87.365,36.937,36.836,87.556,19.725,151.952z"/>
<g>
	<path fill="#D9C44B" d="M131.383,81.651c0,27.523-22.317,49.833-49.832,49.833c-27.523,0-49.832-22.31-49.832-49.833
		c0-27.515,22.309-49.832,49.832-49.832C109.065,31.819,131.383,54.137,131.383,81.651z"/>
	<polygon fill="#D9C44B" points="162.522,75.424 96.585,75.424 143.206,28.803 134.399,19.996 87.778,66.617 87.778,0.68 
		75.322,0.68 75.322,66.617 28.702,19.996 19.895,28.803 66.508,75.424 0.57,75.424 0.57,87.88 66.508,87.88 19.895,134.501 
		28.702,143.315 75.322,96.694 75.322,162.632 87.778,162.632 87.778,96.694 134.399,143.315 143.206,134.501 96.585,87.88 
		162.522,87.88 	"/>
	<path fill="#F4EDC8" d="M118.919,81.651c0,20.639-16.738,37.377-37.368,37.377c-20.639,0-37.376-16.738-37.376-37.377
		c0-20.63,16.737-37.367,37.376-37.367C102.181,44.284,118.919,61.021,118.919,81.651z"/>
</g>
</svg>
