<?xml version="1.0" encoding="utf-8"?>
<!-- Generator: Adobe Illustrator 16.0.4, SVG Export Plug-In . SVG Version: 6.00 Build 0)  -->
<!DOCTYPE svg PUBLIC "-//W3C//DTD SVG 1.1//EN" "http://www.w3.org/Graphics/SVG/1.1/DTD/svg11.dtd">
<svg version="1.1" xmlns="http://www.w3.org/2000/svg" xmlns:xlink="http://www.w3.org/1999/xlink" x="0px" y="0px" width="16px"
	 height="16px" viewBox="0 0 16 16" enable-background="new 0 0 16 16" xml:space="preserve">
<g id="Dark_Theme_1_" display="none">
	<rect x="-360" y="-200" display="inline" fill="#333333" width="544" height="736"/>
	
		<rect x="-392" y="-232" display="inline" fill="none" stroke="#808080" stroke-width="0.25" stroke-miterlimit="10" width="612" height="792"/>
</g>
<g id="LightTheme" display="none">
	<rect x="-360" y="-200" display="inline" fill="#F8F8F8" width="544" height="736"/>
	
		<rect x="-392" y="-232" display="inline" fill="none" stroke="#808080" stroke-width="0.25" stroke-miterlimit="10" width="612" height="792"/>
</g>
<g id="Hover" display="none">
	<rect x="-360" y="-200" display="inline" fill="#C5E5F9" width="544" height="736"/>
</g>
<g id="Selected" display="none">
	<rect x="-360" y="-200" display="inline" fill="#AADBFA" width="544" height="736"/>
</g>
<g id="Icon_Name">
</g>
<g id="Icons">
	<path fill="#68AA67" d="M15,13.3c0,1-0.8,1.7-1.7,1.7H2.7c-1,0-1.7-0.8-1.7-1.7V2.7C1,1.8,1.8,1,2.7,1h10.5c1,0,1.7,0.8,1.7,1.7
		V13.3z"/>
	<rect fill="none" width="16" height="16"/>
	<polygon fill="#F8F8F8" points="11.7,4.1 6.6,9.3 4.5,7.2 3.3,8.3 6.6,11.6 12.9,5.3 	"/>
	<rect fill="none" width="16" height="16"/>
	<polygon fill="#F8F8F8" points="11.7,4.1 6.6,9.3 4.5,7.2 3.3,8.3 6.6,11.6 12.9,5.3 	"/>
</g>
</svg>
