<?xml version="1.0" encoding="utf-8"?>
<!-- Generator: Adobe Illustrator 16.0.4, SVG Export Plug-In . SVG Version: 6.00 Build 0)  -->
<!DOCTYPE svg PUBLIC "-//W3C//DTD SVG 1.1//EN" "http://www.w3.org/Graphics/SVG/1.1/DTD/svg11.dtd">
<svg version="1.1" xmlns="http://www.w3.org/2000/svg" xmlns:xlink="http://www.w3.org/1999/xlink" x="0px" y="0px" width="16px"
	 height="16px" viewBox="0 0 16 16" enable-background="new 0 0 16 16" xml:space="preserve">
<g id="Dark_Theme_1_" display="none">
	<rect x="-232" y="-296" display="inline" fill="#333333" width="544" height="736"/>
	
		<rect x="-264" y="-328" display="inline" fill="none" stroke="#808080" stroke-width="0.25" stroke-miterlimit="10" width="612" height="792"/>
</g>
<g id="LightTheme" display="none">
	<rect x="-232" y="-296" display="inline" fill="#F8F8F8" width="544" height="736"/>
	
		<rect x="-264" y="-328" display="inline" fill="none" stroke="#808080" stroke-width="0.25" stroke-miterlimit="10" width="612" height="792"/>
</g>
<g id="Hover" display="none">
	<rect x="-232" y="-296" display="inline" fill="#C5E5F9" width="544" height="736"/>
</g>
<g id="Selected" display="none">
	<rect x="-232" y="-296" display="inline" fill="#AADBFA" width="544" height="736"/>
</g>
<g id="Icon_Name">
</g>
<g id="Icons">
	<rect fill="none" width="16" height="16"/>
	<rect fill="#808284" width="7" height="7"/>
	<rect x="9" fill="#808284" width="7" height="7"/>
	<rect y="8" fill="#808284" width="7" height="7"/>
	<rect x="9" y="8" fill="#808284" width="7" height="7"/>
	<rect x="1" y="1" fill="#F0E498" width="5" height="5"/>
	<g>
		<path fill="#9BC29C" d="M4.2,5c0.2,0,0,0.3-0.2,0.3c-0.1,0-0.2-0.1-0.3-0.2c-0.1-0.1-0.2,0-0.3,0C3,5.1,3.3,4.9,3.4,4.7
			c0.1-0.1,0.2-0.2,0.3-0.1C3.8,4.7,4,4.8,4.2,5L4.2,5z"/>
		<path fill="#9BC29C" d="M5,2.3c-0.1,0-0.4,0.1-0.5,0.3C4.4,2.7,4.6,2.9,4.6,3c0.1,0.2,0.2,0.2,0.2,0.4c0,0.2,0.1,0.6,0.3,0.4
			c0.2-0.1,0.2-0.5,0.2-0.7c0-0.2,0.3-0.3,0.4-0.5c0-0.2-0.1-0.5-0.4-0.5c-0.1,0-0.2,0.1-0.3,0.1L5,2.3z"/>
		<path fill="#9BC29C" d="M2.9,4.2C3,4,2.2,3.8,2.1,3.9C1.8,3.9,1.7,4.5,1.9,4.7c0.2,0.2,0.4-0.1,0.5-0.2c0.1-0.1,0-0.1,0.2-0.1
			c0.1,0,0.1,0,0.2,0L2.9,4.2z"/>
	</g>
	<path fill="#D3B490" d="M6,4.1C5.8,4.3,5.5,4.4,5.3,4.6C4.6,4.2,3.9,3.9,3.5,3.2C3.4,2.9,3.2,2.8,3.1,2.6c0.2-0.1,0.3-0.3,0.4-0.5
		C3.6,1.7,3.8,1.4,3.9,1H3.6C3.4,1.3,3.3,1.6,3.2,1.9C3.1,2.1,3,2.3,2.9,2.4C2.3,1.9,1.7,1.6,1,1.6v0.3c0.6,0,1.1,0.2,1.6,0.6
		C2.4,2.6,2.2,2.7,2,2.8C1.6,3,1.3,3.2,1,3.3v0.4c0.4-0.2,0.7-0.4,1.1-0.6C2.4,3,2.6,2.9,2.8,2.8C3,2.9,3.1,3.1,3.2,3.3
		c0.4,0.8,1.1,1.2,1.9,1.6c0,0,0,0-0.1,0C4.8,5.2,4.6,5.6,4.4,6h0.4c0.2-0.4,0.3-0.7,0.5-0.9c0,0,0.1-0.1,0.1-0.1
		c0.1,0,0.1,0,0.2,0.1C5.7,5.1,5.8,5.2,6,5.3V4.9c-0.1,0-0.2-0.1-0.3-0.1c0,0,0,0,0,0C5.8,4.7,5.9,4.6,6,4.5V4.1z M1.6,5
		C1.4,4.9,1.2,4.7,1,4.6V5c0.1,0.1,0.3,0.2,0.4,0.3c0.2,0.2,0.2,0.1,0.2,0.2c0,0,0,0.1,0,0.2c0,0.1,0,0.3-0.1,0.4h0.3
		c0-0.1,0.1-0.2,0.1-0.4c0-0.1,0-0.2,0-0.3C1.8,5.1,1.6,5.1,1.6,5z"/>
	<rect x="10" y="1" fill="#D3EAF9" width="5" height="5"/>
	<path fill="#6DB5E3" d="M12.8,1.4c0.4,0,0.3-0.3,0.2-0.4h-3v2.5c0,0,0.1,0.1,0.1,0.1c0.1,0.1,0.2,0.2,0.4,0.2
		c0.3,0,0.5-0.4,0.5-0.6C10.9,3.1,11,3,11.2,3c0.2,0,0.3,0.2,0.5,0.2c0.3,0,0.3-0.4,0.6-0.6c0.4-0.2,0.3-0.6,0.2-0.9
		C12.5,1.6,12.7,1.4,12.8,1.4z M14.5,4.7c-0.2-0.1-0.2-0.4-0.4-0.4c-0.3,0-0.3,0.4-0.6,0.4c-0.1,0-0.2-0.1-0.3-0.1
		c-0.1,0-0.2,0.1-0.2,0.2v0.3c0,0.2-0.3,0.3-0.3,0.6c0,0.1,0.1,0.1,0.1,0.2c0,0,0,0.1,0,0.1H15V4.8C14.8,4.8,14.6,4.8,14.5,4.7z"/>
	<path fill="#9BC29C" d="M10,1v2c0.2,0.1,0.3,0.3,0.4,0.4c0,0,0-0.1,0-0.1c0-0.4,0.3-0.7,0.7-0.7c0.2,0,0.3,0.1,0.5,0.2c0,0,0,0,0,0
		c0.1-0.1,0.2-0.4,0.4-0.5c0,0,0-0.2,0-0.4c0-0.2,0-0.4,0.2-0.5c0.1-0.1,0.2-0.2,0.4-0.3c0,0,0,0,0,0H10z M14.2,5
		c0,0-0.1-0.1-0.1-0.1c-0.1,0.1-0.3,0.3-0.5,0.3c0,0-0.1,0-0.1,0c0,0.3-0.2,0.4-0.3,0.5c0,0.1,0,0.1,0,0.2c0,0,0,0.1,0,0.1H15V5.3
		C14.7,5.3,14.4,5.2,14.2,5z"/>
	<rect x="10" y="9" fill="#9BC29C" width="5" height="5"/>
	<path fill="#F4EEC8" d="M11.7,11.8c0.4-0.4-0.1-0.9,0.2-1.2c0.3-0.3,0.7-0.2,0.9-0.5c0.1-0.2,0-0.7,0-1H10v2.3
		C10.7,10.5,11.4,12.1,11.7,11.8z M14.7,10.8c-0.3-0.7-0.3-1.2-1-0.6c-0.3,0.2-0.5,0.3-0.3,0.7c0.1,0.4,0.4,0.5,0.3,0.9
		c-0.3,0-0.5-0.1-0.7,0.2c-0.2,0.2,0,0.5-0.3,0.7c-0.3,0.2-0.7,0.1-1,0.2c-0.2,0-0.3,0.1-0.4,0.2c0.2,0.2,0.4,0.3,0.7,0.4
		c0.4,0.1,0.9,0.2,1.3,0.4c-0.2,0.1-0.4,0.2-0.6,0.2H15v-2.6C14.9,11.3,14.8,11,14.7,10.8z"/>
	<path fill="#F0E498" d="M14.3,10.9l-0.1-0.2c0-0.1-0.1-0.3-0.1-0.4c0,0-0.1,0.1-0.2,0.2c-0.1,0.1-0.1,0.1-0.2,0.2c0,0-0.1,0-0.1,0
		c0,0,0,0,0,0c0,0,0,0,0,0.1c0,0.1,0.1,0.1,0.1,0.2c0.1,0.2,0.3,0.4,0.2,0.8c0,0.2-0.2,0.3-0.4,0.3c-0.1,0-0.2,0-0.3,0
		c-0.2,0-0.2,0-0.2,0c0,0,0,0.1,0,0.1c0,0.2,0,0.5-0.4,0.7c-0.1,0.1-0.2,0.1-0.4,0.2c0.3,0.1,0.6,0.1,0.9,0.3
		c0.1,0.1,0.2,0.2,0.2,0.3c0,0.1,0,0.2-0.1,0.3H15v-2C14.7,11.8,14.5,11.3,14.3,10.9z M12.5,9.2c0-0.1,0-0.2,0-0.2H10v1.8
		c0.1-0.1,0.2-0.1,0.4-0.1c0.4,0,0.7,0.2,1,0.5l0.1,0.1c0,0,0,0,0,0c0,0,0,0,0,0c0-0.2-0.1-0.6,0.2-0.9c0.2-0.2,0.4-0.3,0.6-0.3
		c0.2,0,0.2-0.1,0.3-0.1C12.6,9.7,12.6,9.4,12.5,9.2z"/>
	<path fill="#F7CB93" d="M12.1,9H10v1.3c0.1-0.1,0.3-0.1,0.4-0.1c0.3,0,0.5,0.1,0.7,0.2c0.1-0.1,0.1-0.3,0.3-0.4
		c0.3-0.3,0.6-0.4,0.8-0.4c0-0.1,0-0.2,0-0.3C12.1,9.2,12.1,9.1,12.1,9z M14.4,11.9L14.4,11.9c-0.1,0.3-0.4,0.6-0.7,0.6
		c0,0-0.1,0-0.1,0c0,0.1-0.1,0.3-0.2,0.4c0,0,0.1,0,0.1,0.1c0.3,0.1,0.4,0.4,0.5,0.7c0,0.1,0,0.2-0.1,0.3H15v-1.6
		C14.7,12.3,14.5,12.2,14.4,11.9z"/>
	<rect x="1" y="9" fill="#D3EAF9" width="5" height="5"/>
	<path fill-rule="evenodd" clip-rule="evenodd" fill="#E9DED4" d="M4.8,9.2C4.8,9.2,4.8,9.2,4.8,9.2C4.8,9.2,4.8,9.2,4.8,9.2
		L4.8,9.2C4.8,9.3,4.8,9.3,4.8,9.2C4.7,9.3,4.7,9.3,4.7,9.3c-0.1,0-0.2-0.1-0.3-0.1l-0.1,0c0,0-0.1,0-0.1,0l-0.1,0h0
		c-0.1,0-0.1,0-0.1,0l0,0l0,0l0,0l0,0l0,0c0,0-0.1,0-0.1,0.1c0,0,0,0,0,0c0,0-0.1,0.1-0.1,0.1l0,0c-0.1,0-0.1,0.1-0.2,0.1
		c0,0-0.1,0.1-0.1,0.1C3.1,9.9,3.1,10,3.2,10.2c0,0,0,0.1,0,0.1c0,0.1,0,0.2,0,0.3L3,10.8c0,0-0.1,0-0.1,0l-0.1,0
		c-0.3,0.2-0.6,0.3-0.6,0.5l0,0.1l0,0c0,0.1,0,0.3-0.1,0.4C2.1,12,2,12,2,12c0,0,0,0-0.1,0c0,0-0.1,0-0.1,0l-0.1,0
		c-0.1,0-0.2,0-0.3,0c-0.1,0-0.2,0-0.2,0l0,0l0,0c0,0-0.1,0-0.1,0.1l0,0.1V14h5V9v0H4.7l0,0C4.8,9.1,4.8,9.2,4.8,9.2z"/>
	<path fill="#D3B490" d="M5,9C5,9.1,5,9.1,5.1,9.2c0,0,0,0,0,0.1c0,0,0,0,0,0c0,0,0,0,0,0.1c0,0.1-0.1,0.1-0.1,0.2l0,0
		c0,0,0,0-0.1,0c0,0-0.1,0-0.1,0c0,0,0,0,0,0c-0.2,0-0.3-0.1-0.4-0.1c0,0,0,0,0,0c0,0,0,0,0,0c0,0,0,0,0,0c0,0-0.1,0-0.1,0
		c0,0-0.1,0-0.1,0c0,0,0,0-0.1,0c0,0,0,0,0,0c0,0-0.1,0.1-0.1,0.1c-0.1,0-0.1,0.1-0.2,0.1c0,0-0.1,0.1-0.1,0.1c0,0,0,0-0.1,0.1
		c0,0.1-0.1,0.1,0,0.2c0,0,0,0.1,0,0.1c0,0.3,0,0.6-0.1,0.7c0,0,0,0,0,0l0,0h0c0,0,0,0,0,0c0,0,0,0-0.1,0c0,0.1-0.1,0.1-0.1,0.2
		c0,0,0,0,0,0c-0.1,0-0.1,0-0.2,0.1c0,0,0,0-0.1,0c-0.2,0.1-0.4,0.2-0.5,0.4c0,0,0,0,0,0c0,0.1,0,0.3-0.1,0.4
		c-0.1,0.2-0.1,0.3-0.3,0.3c-0.1,0-0.1,0-0.2,0c-0.2,0-0.4-0.1-0.6,0c0,0,0,0,0,0c0,0-0.1,0.1-0.2,0.1V14h5V9H5z"/>
</g>
</svg>
