<?xml version="1.0" encoding="utf-8"?>
<!-- Generator: Adobe Illustrator 16.0.4, SVG Export Plug-In . SVG Version: 6.00 Build 0)  -->
<!DOCTYPE svg PUBLIC "-//W3C//DTD SVG 1.1//EN" "http://www.w3.org/Graphics/SVG/1.1/DTD/svg11.dtd">
<svg version="1.1" xmlns="http://www.w3.org/2000/svg" xmlns:xlink="http://www.w3.org/1999/xlink" x="0px" y="0px" width="16px"
	 height="16px" viewBox="0 0 16 16" enable-background="new 0 0 16 16" xml:space="preserve">
<g id="Dark_Theme_1_" display="none">
	<rect x="-104" y="-296" display="inline" fill="#333333" width="544" height="736"/>
	
		<rect x="-136" y="-328" display="inline" fill="none" stroke="#808080" stroke-width="0.25" stroke-miterlimit="10" width="612" height="792"/>
</g>
<g id="LightTheme" display="none">
	<rect x="-104" y="-296" display="inline" fill="#F8F8F8" width="544" height="736"/>
	
		<rect x="-136" y="-328" display="inline" fill="none" stroke="#808080" stroke-width="0.25" stroke-miterlimit="10" width="612" height="792"/>
</g>
<g id="Hover" display="none">
	<rect x="-104" y="-296" display="inline" fill="#C5E5F9" width="544" height="736"/>
</g>
<g id="Selected" display="none">
	<rect x="-104" y="-296" display="inline" fill="#AADBFA" width="544" height="736"/>
</g>
<g id="Icon_Name">
</g>
<g id="Icons">
	<path fill="#6D6E71" d="M2,15c-1.1,0-2-0.9-2-2V2c0-1.1,0.9-2,2-2h11c1.1,0,2,0.9,2,2v11c0,1.1-0.9,2-2,2H2z"/>
	<path fill="#F8F8F8" d="M2,14c-0.6,0-1-0.4-1-1V2c0-0.6,0.4-1,1-1h11c0.6,0,1,0.4,1,1v11c0,0.6-0.4,1-1,1H2z"/>
	<rect fill="none" width="16" height="16"/>
	<rect x="5" y="2" fill="#6DB5E3" width="5" height="1"/>
	<rect x="3" y="2" fill="#6DB5E3" width="1" height="1"/>
	<rect x="6" y="4" fill="#6DB5E3" width="3" height="1"/>
	<rect x="4" y="4" fill="#6DB5E3" width="1" height="1"/>
	<rect x="5" y="8" fill="#6DB5E3" width="6" height="1"/>
	<rect x="3" y="8" fill="#6DB5E3" width="1" height="1"/>
	<rect x="6" y="10" fill="#6DB5E3" width="6" height="1"/>
	<rect x="4" y="10" fill="#6DB5E3" width="1" height="1"/>
	<rect x="6" y="12" fill="#6DB5E3" width="4" height="1"/>
	<rect x="4" y="12" fill="#6DB5E3" width="1" height="1"/>
	<rect x="7" y="6" fill="#6DB5E3" width="5" height="1"/>
	<rect x="5" y="6" fill="#6DB5E3" width="1" height="1"/>
</g>
</svg>
