<?xml version="1.0" encoding="utf-8"?>
<!-- Generator: Adobe Illustrator 16.0.4, SVG Export Plug-In . SVG Version: 6.00 Build 0)  -->
<!DOCTYPE svg PUBLIC "-//W3C//DTD SVG 1.1//EN" "http://www.w3.org/Graphics/SVG/1.1/DTD/svg11.dtd">
<svg version="1.1" xmlns="http://www.w3.org/2000/svg" xmlns:xlink="http://www.w3.org/1999/xlink" x="0px" y="0px" width="16px"
	 height="16px" viewBox="0 0 16 16" enable-background="new 0 0 16 16" xml:space="preserve">
<g id="Dark_Theme_1_" display="none">
	<rect x="-424" y="-104" display="inline" fill="#333333" width="544" height="736"/>
	
		<rect x="-456" y="-136" display="inline" fill="none" stroke="#808080" stroke-width="0.25" stroke-miterlimit="10" width="612" height="792"/>
</g>
<g id="LightTheme" display="none">
	<rect x="-424" y="-104" display="inline" fill="#F8F8F8" width="544" height="736"/>
	
		<rect x="-456" y="-136" display="inline" fill="none" stroke="#808080" stroke-width="0.25" stroke-miterlimit="10" width="612" height="792"/>
</g>
<g id="Hover" display="none">
	<rect x="-424" y="-104" display="inline" fill="#C5E5F9" width="544" height="736"/>
</g>
<g id="Selected" display="none">
	<rect x="-424" y="-104" display="inline" fill="#AADBFA" width="544" height="736"/>
</g>
<g id="Icon_Name">
</g>
<g id="Icons">
	<rect fill-rule="evenodd" clip-rule="evenodd" fill="none" width="16" height="16"/>
	<path fill="#E5D255" d="M16,14.4c0,0-3.2-1.6-8,0c-4.8,1.6-8,0-8,0L2.1,1.6c0,0,3.2,1.1,5.9,0s5.9,0,5.9,0L16,14.4z"/>
	<path fill="#F4EEC8" d="M3.1,13c-0.3,0-0.6-0.1-0.7-0.3s-0.3-0.5-0.3-0.8l0.8-8C3,3.4,3.4,3,3.9,3h8.2c0.5,0,0.9,0.4,1,0.9l0.8,8
		c0,0.3-0.1,0.6-0.3,0.8S13.2,13,12.9,13H3.1z"/>
	<polygon fill="#6D6E71" points="3.1,12 3.9,4 12.1,4 12.9,12 	"/>
	<path fill="#6D6E71" d="M12,7V6h-2V5H9v1H7V5H6v1H4v1h2v1H4v1h2v2h1V9h2v2h1V9h2V8h-2V7H12z M9,8H7V7h2V8z"/>
	<rect x="7" y="5" fill="#BDDBEE" width="2" height="1"/>
	<polygon fill="#F4EEC8" points="6,6 6,5 4.8,5 4.7,6 	"/>
	<rect x="7" y="7" fill="#6DB5E3" width="2" height="1"/>
	<polygon fill="#F4EEC8" points="11.4,7 10,7 10,8 11.5,8 	"/>
	<polygon fill="#D3EAF9" points="11.3,6 11.2,5 10,5 10,6 	"/>
	<rect x="7" y="9" fill="#9BC29C" width="2" height="2"/>
	<polygon fill="#D3EAF9" points="4.5,8 6,8 6,7 4.6,7 	"/>
	<polygon fill="#9BC29C" points="10,9 10,11 11.8,11 11.6,9 	"/>
	<polygon fill="#6DB5E3" points="4.4,9 4.2,11 6,11 6,9 	"/>
</g>
</svg>
