<?xml version="1.0" encoding="utf-8"?>
<!-- Generator: Adobe Illustrator 16.0.4, SVG Export Plug-In . SVG Version: 6.00 Build 0)  -->
<!DOCTYPE svg PUBLIC "-//W3C//DTD SVG 1.1//EN" "http://www.w3.org/Graphics/SVG/1.1/DTD/svg11.dtd">
<svg version="1.1" xmlns="http://www.w3.org/2000/svg" xmlns:xlink="http://www.w3.org/1999/xlink" x="0px" y="0px" width="16px"
	 height="16px" viewBox="0 0 16 16" enable-background="new 0 0 16 16" xml:space="preserve">
<g id="Dark_Theme_1_" display="none">
	<rect x="-40" y="-488" display="inline" fill="#333333" width="544" height="736"/>
	
		<rect x="-72" y="-520" display="inline" fill="none" stroke="#808080" stroke-width="0.25" stroke-miterlimit="10" width="612" height="792"/>
</g>
<g id="LightTheme" display="none">
	<rect x="-40" y="-488" display="inline" fill="#F8F8F8" width="544" height="736"/>
	
		<rect x="-72" y="-520" display="inline" fill="none" stroke="#808080" stroke-width="0.25" stroke-miterlimit="10" width="612" height="792"/>
</g>
<g id="Hover" display="none">
	<rect x="-40" y="-488" display="inline" fill="#C5E5F9" width="544" height="736"/>
</g>
<g id="Selected" display="none">
	<rect x="-40" y="-488" display="inline" fill="#AADBFA" width="544" height="736"/>
</g>
<g id="Icon_Name">
</g>
<g id="Icons">
	<rect x="-0.2" fill-rule="evenodd" clip-rule="evenodd" fill="none" width="16" height="16"/>
	<path fill="#E5D255" d="M15.8,14.4c0,0-3.2-1.6-8,0c-4.8,1.6-8,0-8,0L1.9,1.6c0,0,3.2,1.1,5.9,0s5.9,0,5.9,0L15.8,14.4z"/>
	<path fill="#F8F8F8" d="M12.7,11.8L9.2,8.3C9,8.1,8.8,8,8.5,8H7C6.4,8,6,8.4,6,9v0.5c0,0.3,0.1,0.5,0.3,0.7l0,0
		C5.8,9.8,5.4,9.3,5.2,8.7C5.1,8.3,4.7,8,4.3,8H3.2C2.9,8,2.6,8.1,2.4,8.4C2.2,8.6,2.1,9,2.2,9.3c0.7,2.4,2.6,4.1,5,4.6l-0.9,0.9
		c0,0,0,0,0,0.1c0.6-0.1,1.1-0.3,1.7-0.5c1.6-0.5,3-0.7,4.2-0.7l0.5-0.5C13.1,12.8,13.1,12.2,12.7,11.8z"/>
	<path fill="#68AA67" d="M8.5,9H7v0.5L9.5,12h-1c-2,0-3.6-1.3-4.2-3H3.2c0.7,2.3,2.8,4,5.3,4h1L7,15.5V16h1.5l3.5-3.5L8.5,9z"/>
</g>
</svg>
