<?xml version="1.0" encoding="utf-8"?>
<!-- Generator: Adobe Illustrator 16.0.4, SVG Export Plug-In . SVG Version: 6.00 Build 0)  -->
<!DOCTYPE svg PUBLIC "-//W3C//DTD SVG 1.1//EN" "http://www.w3.org/Graphics/SVG/1.1/DTD/svg11.dtd">
<svg version="1.1" xmlns="http://www.w3.org/2000/svg" xmlns:xlink="http://www.w3.org/1999/xlink" x="0px" y="0px" width="16px"
	 height="16px" viewBox="0 0 16 16" enable-background="new 0 0 16 16" xml:space="preserve">
<g id="Dark_Theme_1_" display="none">
	<rect x="-168" y="-488" display="inline" fill="#333333" width="544" height="736"/>
	
		<rect x="-200" y="-520" display="inline" fill="none" stroke="#808080" stroke-width="0.25" stroke-miterlimit="10" width="612" height="792"/>
</g>
<g id="LightTheme" display="none">
	<rect x="-168" y="-488" display="inline" fill="#F8F8F8" width="544" height="736"/>
	
		<rect x="-200" y="-520" display="inline" fill="none" stroke="#808080" stroke-width="0.25" stroke-miterlimit="10" width="612" height="792"/>
</g>
<g id="Hover" display="none">
	<rect x="-168" y="-488" display="inline" fill="#C5E5F9" width="544" height="736"/>
</g>
<g id="Selected" display="none">
	<rect x="-168" y="-488" display="inline" fill="#AADBFA" width="544" height="736"/>
</g>
<g id="Icon_Name">
</g>
<g id="Icons">
	<rect x="1" fill="#6D6E71" width="14" height="14"/>
	<rect x="2" y="1" fill="#D3EAF9" width="12" height="12"/>
	<path fill="#9BC29C" d="M6.4,13c0-0.3,0.1-0.5,0.2-0.7c0.1-0.1,0.1-0.3,0.1-0.5c0-0.5-0.9-0.3-1.1-0.6c-0.4-0.7,0.6-0.9,0.6-1.5
		c0-0.1-0.1-0.4-0.3-0.4c-0.3,0-0.4,0.1-0.7,0.1C5,9.4,4.8,9.3,4.8,9.1c0-0.3,0.3-0.5,0.3-0.8C5.1,8,5,7.9,5,7.7
		c0-0.3,0.2-0.6,0.5-0.6c0.3,0,0.4,0.2,0.5,0.5c0.1,0.2,0.3,0.3,0.5,0.3C7,7.9,7.3,7.3,7.3,7c0-0.2,0.2-0.4,0.4-0.4
		c0.3,0,0.4,0.3,0.7,0.3c0.5,0,0.5-0.7,0.9-0.9c0.5-0.3,0.4-0.9,0.3-1.3c0-0.1,0.3-0.4,0.4-0.4c0.6,0,0.4-0.5,0.4-0.7
		c0,0,0-0.1,0-0.1C10.5,3.2,11,3.1,11,2.7c0-0.2-0.2-0.4-0.2-0.6c0-0.4,0.5-0.7,1.1-1c0.1-0.1,0.2,0,0.2-0.2H2v12L6.4,13
		C6.4,12.9,6.4,13,6.4,13z"/>
	<path fill="#F8F8F8" d="M2,1v12h12V1H2z M13,12H3V2h10V12z"/>
	<rect x="1" fill-rule="evenodd" clip-rule="evenodd" fill="none" width="14" height="14"/>
	<path fill="#F8F8F8" d="M14,11h-0.5c-0.2,0-0.3,0-0.5,0.1V9c0-0.6-0.4-1-1-1h-1c-0.6,0-1,0.4-1,1v2.1C9.8,11,9.7,11,9.5,11H9
		c-0.6,0-1,0.4-1,1v1.5c0,0.2,0.1,0.3,0.2,0.5h6.7c0.1-0.2,0.2-0.3,0.2-0.5V12C15,11.4,14.6,11,14,11z"/>
	<polygon fill="#E67E08" points="13.5,12 12,13.5 12,9 11,9 11,13.5 9.5,12 9,12 9,13.5 11.5,16 14,13.5 14,12 	"/>
	<rect fill="none" width="16" height="16"/>
	<rect fill="none" width="16" height="16"/>
</g>
</svg>
