<?xml version="1.0" encoding="utf-8"?>
<!-- Generator: Adobe Illustrator 16.0.4, SVG Export Plug-In . SVG Version: 6.00 Build 0)  -->
<!DOCTYPE svg PUBLIC "-//W3C//DTD SVG 1.1//EN" "http://www.w3.org/Graphics/SVG/1.1/DTD/svg11.dtd">
<svg version="1.1" xmlns="http://www.w3.org/2000/svg" xmlns:xlink="http://www.w3.org/1999/xlink" x="0px" y="0px" width="16px"
	 height="16px" viewBox="0 0 16 16" enable-background="new 0 0 16 16" xml:space="preserve">
<g id="Dark_Theme_1_" display="none">
	<rect x="-488" y="-488" display="inline" fill="#333333" width="544" height="736"/>
	
		<rect x="-520" y="-520" display="inline" fill="none" stroke="#808080" stroke-width="0.25" stroke-miterlimit="10" width="612" height="792"/>
</g>
<g id="LightTheme" display="none">
	<rect x="-488" y="-488" display="inline" fill="#F8F8F8" width="544" height="736"/>
	
		<rect x="-520" y="-520" display="inline" fill="none" stroke="#808080" stroke-width="0.25" stroke-miterlimit="10" width="612" height="792"/>
</g>
<g id="Hover" display="none">
	<rect x="-488" y="-488" display="inline" fill="#C5E5F9" width="544" height="736"/>
</g>
<g id="Selected" display="none">
	<rect x="-488" y="-488" display="inline" fill="#AADBFA" width="544" height="736"/>
</g>
<g id="Icon_Name">
</g>
<g id="Icons">
	<rect x="1" y="1" fill="#6D6E71" width="14" height="14"/>
	<rect x="2" y="2" fill="#D3EAF9" width="12" height="12"/>
	<path fill="#9BC29C" d="M7.4,14c0-0.3,0.1-0.5,0.2-0.7c0.1-0.1,0.1-0.3,0.1-0.5c0-0.5-0.9-0.3-1.1-0.6c-0.4-0.7,0.6-0.9,0.6-1.5
		c0-0.1-0.1-0.4-0.3-0.4c-0.3,0-0.4,0.1-0.7,0.1c-0.2,0-0.4-0.1-0.4-0.3c0-0.3,0.3-0.5,0.3-0.8C6.1,9,6,8.9,6,8.7
		c0-0.3,0.2-0.6,0.5-0.6c0.3,0,0.4,0.2,0.5,0.5c0.1,0.2,0.3,0.3,0.5,0.3C8,8.9,8.3,8.3,8.3,8c0-0.2,0.2-0.4,0.4-0.4
		c0.3,0,0.4,0.3,0.7,0.3c0.5,0,0.5-0.7,0.9-0.9c0.5-0.3,0.4-0.9,0.3-1.3c0-0.1,0.3-0.4,0.4-0.4c0.6,0,0.4-0.5,0.4-0.7
		c0,0,0-0.1,0-0.1C11.5,4.2,12,4.1,12,3.7c0-0.2-0.2-0.4-0.2-0.6c0-0.4,0.5-0.7,1.1-1c0.1-0.1,0.2,0,0.2-0.2H3v12L7.4,14
		C7.4,13.9,7.4,14,7.4,14z"/>
	<rect x="1" y="1" fill-rule="evenodd" clip-rule="evenodd" fill="none" width="14" height="14"/>
	<path fill="#9BC29C" d="M14,14v-4c-0.3,0.1-0.5,0.7-0.6,0.7c-0.2,0-0.4,0-0.6,0c-0.3,0-0.6-0.2-0.8-0.4c-0.2-0.2-0.2-0.7-0.5-0.7
		c-0.4,0-0.5,0.6-0.9,0.6c-0.2,0-0.3-0.2-0.5-0.2c-0.2,0-0.4,0.1-0.4,0.3c0,0.1,0,0.3,0,0.4c0,0.4-0.4,0.4-0.4,0.8
		c0,0.2,0.2,0.2,0.2,0.4c0,0.5-0.8,0.4-0.8,0.9c0,0.2,0.2,0.3,0.2,0.4c0,0,0,0,0,0c0,0.2-0.3,0.4-0.4,0.7H14z"/>
	<rect fill="none" width="16" height="16"/>
	<path fill="#F8F8F8" d="M2,2v12h12V2H2z M13,13H3V3h10V13z"/>
	<path fill-rule="evenodd" clip-rule="evenodd" fill="#F8F8F8" d="M4,1v3H1v3h3v4c0,0.6,0.4,1,1,1h1c0.6,0,1-0.4,1-1V7h4
		c0.6,0,1-0.4,1-1V5c0-0.6-0.4-1-1-1H7V1H4z"/>
	<rect x="7" y="5" fill="#6D6E71" width="4" height="1"/>
	<rect y="5" fill="#6D6E71" width="4" height="1"/>
	<rect x="5" y="7" fill="#6D6E71" width="1" height="4"/>
	<rect x="5" fill="#6D6E71" width="1" height="4"/>
	<rect x="5" y="5" fill="#6D6E71" width="1" height="1"/>
</g>
</svg>
