<?xml version="1.0" encoding="utf-8"?>
<!-- Generator: Adobe Illustrator 16.0.4, SVG Export Plug-In . SVG Version: 6.00 Build 0)  -->
<!DOCTYPE svg PUBLIC "-//W3C//DTD SVG 1.1//EN" "http://www.w3.org/Graphics/SVG/1.1/DTD/svg11.dtd">
<svg version="1.1" xmlns="http://www.w3.org/2000/svg" xmlns:xlink="http://www.w3.org/1999/xlink" x="0px" y="0px" width="16px"
	 height="16px" viewBox="0 0 16 16" enable-background="new 0 0 16 16" xml:space="preserve">
<g id="Dark_Theme_1_" display="none">
	<rect x="-296" y="-104" display="inline" fill="#333333" width="544" height="736"/>
	
		<rect x="-328" y="-136" display="inline" fill="none" stroke="#808080" stroke-width="0.25" stroke-miterlimit="10" width="612" height="792"/>
</g>
<g id="LightTheme" display="none">
	<rect x="-296" y="-104" display="inline" fill="#F8F8F8" width="544" height="736"/>
	
		<rect x="-328" y="-136" display="inline" fill="none" stroke="#808080" stroke-width="0.25" stroke-miterlimit="10" width="612" height="792"/>
</g>
<g id="Hover" display="none">
	<rect x="-296" y="-104" display="inline" fill="#C5E5F9" width="544" height="736"/>
</g>
<g id="Selected" display="none">
	<rect x="-296" y="-104" display="inline" fill="#AADBFA" width="544" height="736"/>
</g>
<g id="Icon_Name">
</g>
<g id="Icons">
	<rect fill-rule="evenodd" clip-rule="evenodd" fill="none" width="16" height="16"/>
	<path fill="#E5D255" d="M16,14.4c0,0-3.2-1.6-8,0c-4.8,1.6-8,0-8,0L2.1,1.6c0,0,3.2,1.1,5.9,0s5.9,0,5.9,0L16,14.4z"/>
	<rect x="8" y="4" fill="#6D6E71" width="5" height="5"/>
	<rect x="9" y="5" fill="#D3EAF9" width="3" height="3"/>
	<rect x="4" y="8" fill="#6D6E71" width="5" height="5"/>
	<rect x="5" y="9" fill="#D3EAF9" width="3" height="3"/>
	<rect x="8" y="8" fill="#6D6E71" width="5" height="5"/>
	<rect x="9" y="9" fill="#9BC29C" width="3" height="3"/>
	<path fill="#9BC29C" d="M8,10c0,0-1,0.3-1,1c0,1-1,0.2-1,1h2V10z"/>
	<rect x="4" y="4" fill="#F4EEC8" width="4" height="4"/>
	<rect x="2" y="2" fill="#6D6E71" width="5" height="5"/>
	<rect x="3" y="3" fill="#D3EAF9" width="3" height="3"/>
	<path fill="#9BC29C" d="M6,3H3v2.8c0.2,0,0.5-0.1,0.6-0.2C4.1,5.3,4,4.7,4.3,4.4c0.2-0.2,0.6,0.1,0.8-0.1c0.1-0.1,0.2-0.6,0.2-0.6
		c0.1-0.1,0.3-0.5,0.4-0.6C5.8,3.1,5.9,3,6,3L6,3z"/>
</g>
</svg>
