<?xml version="1.0" encoding="utf-8"?>
<!-- Generator: Adobe Illustrator 16.0.4, SVG Export Plug-In . SVG Version: 6.00 Build 0)  -->
<!DOCTYPE svg PUBLIC "-//W3C//DTD SVG 1.1//EN" "http://www.w3.org/Graphics/SVG/1.1/DTD/svg11.dtd">
<svg version="1.1" xmlns="http://www.w3.org/2000/svg" xmlns:xlink="http://www.w3.org/1999/xlink" x="0px" y="0px" width="16px"
	 height="16px" viewBox="0 0 16 16" enable-background="new 0 0 16 16" xml:space="preserve">
<g id="Dark_Theme_1_" display="none">
	<rect x="-104" y="-104" display="inline" fill="#333333" width="544" height="736"/>
	
		<rect x="-136" y="-136" display="inline" fill="none" stroke="#808080" stroke-width="0.25" stroke-miterlimit="10" width="612" height="792"/>
</g>
<g id="LightTheme" display="none">
	<rect x="-104" y="-104" display="inline" fill="#F8F8F8" width="544" height="736"/>
	
		<rect x="-136" y="-136" display="inline" fill="none" stroke="#808080" stroke-width="0.25" stroke-miterlimit="10" width="612" height="792"/>
</g>
<g id="Hover" display="none">
	<rect x="-104" y="-104" display="inline" fill="#C5E5F9" width="544" height="736"/>
</g>
<g id="Selected" display="none">
	<rect x="-104" y="-104" display="inline" fill="#AADBFA" width="544" height="736"/>
</g>
<g id="Icon_Name">
</g>
<g id="Icons">
	<rect fill="#6D6E71" width="16" height="16"/>
	<rect x="1" y="1" fill="#D3EAF9" width="14" height="14"/>
	<path fill="#57A6D9" d="M15,15v-4.8c-0.3,0.1-0.7,0.8-0.8,0.8c-0.2,0-0.4,0-0.6,0c-0.3,0-0.6-0.2-0.9-0.4c-0.3-0.2-0.3-0.8-0.6-0.8
		c-0.5,0-0.5,0.7-1,0.7c-0.2,0-0.4-0.2-0.6-0.2c-0.2,0-0.4,0.1-0.4,0.3c0,0.2,0,0.3,0,0.5c0,0.4-0.5,0.5-0.5,0.9
		c0,0.2,0.2,0.2,0.2,0.4c0,0.6-0.9,0.5-0.9,1.1C8.8,13.7,9,13.8,9,14c0,0,0,0,0,0c0,0.2-0.3,0.6-0.4,1H15z"/>
	<path fill="#57A6D9" d="M6.2,14.8c0-0.3,0.1-0.5,0.2-0.8c0.1-0.2,0.1-0.3,0.1-0.6c0-0.5-1-0.4-1.2-0.7C4.9,12,6,11.8,6,11.1
		c0-0.2-0.1-0.5-0.3-0.5c-0.4,0-0.4,0.2-0.8,0.2c-0.2,0-0.4-0.1-0.4-0.4c0-0.4,0.3-0.6,0.3-1c0-0.2-0.1-0.4-0.1-0.6
		c0-0.3,0.3-0.6,0.6-0.6c0.3,0,0.5,0.3,0.6,0.5C5.9,8.9,6.2,9,6.4,9c0.5,0,0.8-0.6,0.8-1c0-0.2,0.2-0.5,0.4-0.5
		c0.3,0,0.5,0.4,0.8,0.4c0.6,0,0.6-0.8,1.1-1c0.6-0.3,0.4-1.1,0.4-1.4c0-0.2,0.3-0.5,0.5-0.5c0.7,0.1,0.4-0.5,0.4-0.8
		c0-0.1,0-0.1,0-0.1c0.1-0.3,0.6-0.4,0.6-0.8c0-0.3-0.2-0.4-0.2-0.7c0-0.4,0.6-0.8,1.3-1.1c0.1-0.1,0.2-0.2,0.3-0.3H1v14h5.2
		C6.2,14.9,6.2,14.8,6.2,14.8z"/>
	<path fill="#F8F8F8" d="M1,1v14h14V1H1z M14,14H2V2h12V14z"/>
	<rect fill-rule="evenodd" clip-rule="evenodd" fill="none" width="16" height="16"/>
</g>
</svg>
