<svg style="position: absolute; width: 0; height: 0; overflow: hidden;" version="1.1" xmlns="http://www.w3.org/2000/svg" xmlns:xlink="http://www.w3.org/1999/xlink">
<defs>
<symbol id="icon-add-attachment" viewBox="0 0 32 32">
<title>add-attachment</title>
<path d="M2 2v28h28v-28h-28zM26 26h-20v-20h20v20zM14 24h4v-6h6v-4h-6v-6h-4v6h-6v4h6z"></path>
</symbol>
<symbol id="icon-announcement" viewBox="0 0 32 32">
<title>announcement</title>
<path d="M29 3.73c-0.286-0.168-0.631-0.267-0.998-0.267-0.369 0-0.714 0.1-1.011 0.274l-13.849 7.996c-0.285 0.168-0.629 0.267-0.995 0.267-0.001 0-0.003 0-0.004 0h-10.142c-1.105 0-2 0.895-2 2v4.001c0 1.105 0.895 2 2 2v4c0 1.105 0.895 2 2 2h6c1.105 0 2-0.895 2-2v-4h0.143c0.35 0 0.696 0.092 0.999 0.267l13.858 8.001c0.287 0.168 0.632 0.268 1 0.268 1.104 0 2-0.895 2.001-1.999v-21.075c0-0.715-0.381-1.375-1-1.732zM10 24h-6v-4h6v4z"></path>
</symbol>
<symbol id="icon-applications" viewBox="0 0 32 32">
<title>applications</title>
<path d="M29.998 28.119l-8.116-8.119h6.118v-2h-10v10h2v-6.113l8.115 8.115zM20 16h3.107l1.057-0.313c-0.246-0.963-1.199-2.119-1.199-2.119s1.107 0.702 1.737 0.518c0.622-0.182 0.156-0.933 0.674-1.477 0.085-0.090 0.327-0.128 0.506-0.126 0.284 0.955 0.439 1.966 0.439 3.014 0 0.17-0.014 0.336-0.024 0.503h2.799c0.005-0.072 0.012-0.143 0.012-0.216 0-7.365-5.97-13.335-13.335-13.335s-13.335 5.97-13.335 13.335 5.97 13.335 13.335 13.335c0.077 0 0.152-0.007 0.228-0.011v-1.795l-0.219-1.268h-0.008c-2.14 0-4.125-0.645-5.787-1.741 0.028-0.885 0.453-1.697 1.539-3.293 0.854-1.256 0.016-2.521-0.658-2.961s-1.363-1.192-3.281-1.633c-0.551-0.127-1.906-0.376-2.36-0.882l-0.001-0.038c0-0.818 0.096-1.613 0.272-2.377 0.23 0.037 0.495 0.059 0.765 0.059 0.251 0 0.497-0.018 0.738-0.054 0.984-0.153 0.965-1.189 1.302-2.122s1.667-1.033 2.238-2.122c0.383-0.732-0.273-1.587-0.64-2.146 1.644-1.119 3.674-1.786 5.859-1.786 0.005 0 0.010 0 0.015 0 1.193 0 2.339 0.201 3.409 0.566 0.083 0.499 0.135 1.199 0.012 1.676-0.137 0.53-1.133 0.788-1.415 1.251s-0.617 1.747 0.145 2.045c0.761 0.299 1.613-0.090 2.268 0.333 0.803 0.518 1.425 1.633 0.907 1.711s-2.048-0.363-3.059-0.363-3.499 1.814-3.344 3.395c0.050 0.511 0.135 0.901 0.254 1.201 0.066 0.248 0.677 0.811 1.049 0.853v-1.617h4z"></path>
</symbol>
<symbol id="icon-arrow-down-circled" viewBox="0 0 32 32">
<title>arrow-down-circled</title>
<path d="M16.047 0.447c-8.615 0-15.6 6.982-15.6 15.6 0 8.615 6.984 15.6 15.6 15.6 8.617 0 15.6-6.984 15.6-15.6 0-8.617-6.982-15.6-15.6-15.6zM16.047 29.246c-7.279 0-13.199-5.92-13.199-13.199s5.92-13.2 13.199-13.2 13.199 5.921 13.199 13.2-5.92 13.199-13.199 13.199zM8.047 11.047l8 8 8-8v5l-8 8-8-8z"></path>
</symbol>
<symbol id="icon-arrow-left-circled" viewBox="0 0 32 32">
<title>arrow-left-circled</title>
<path d="M16.047 0.447c-8.615 0-15.6 6.982-15.6 15.6 0 8.615 6.984 15.6 15.6 15.6 8.617 0 15.6-6.984 15.6-15.6 0-8.617-6.982-15.6-15.6-15.6zM16.047 29.246c-7.279 0-13.199-5.92-13.199-13.199s5.92-13.2 13.199-13.2 13.199 5.921 13.199 13.2-5.92 13.199-13.199 13.199zM21.047 24l-8-7.953 8-8.047h-5l-8 8.047 8 7.953z"></path>
</symbol>
<symbol id="icon-arrow-right-circled" viewBox="0 0 32 32">
<title>arrow-right-circled</title>
<path d="M16.047 0.447c-8.615 0-15.6 6.982-15.6 15.6 0 8.615 6.984 15.6 15.6 15.6 8.617 0 15.6-6.984 15.6-15.6 0-8.617-6.982-15.6-15.6-15.6zM16.047 29.246c-7.279 0-13.199-5.92-13.199-13.199s5.92-13.2 13.199-13.2 13.199 5.921 13.199 13.2-5.92 13.199-13.199 13.199zM11.047 24.047l8-8-8-8h5l8 8-8 8z"></path>
</symbol>
<symbol id="icon-arrow-up-circled" viewBox="0 0 32 32">
<title>arrow-up-circled</title>
<path d="M16.047 0.447c-8.615 0-15.6 6.982-15.6 15.6 0 8.615 6.984 15.6 15.6 15.6 8.617 0 15.6-6.984 15.6-15.6 0-8.617-6.982-15.6-15.6-15.6zM16.047 29.246c-7.279 0-13.199-5.92-13.199-13.199s5.92-13.2 13.199-13.2 13.199 5.921 13.199 13.2-5.92 13.199-13.199 13.199zM23.99 21.047l-7.953-8-8 8v-5l8-8 7.953 8v5z"></path>
</symbol>
<symbol id="icon-attachment" viewBox="0 0 32 32">
<title>attachment</title>
<path d="M10.646 20.854l12.070-12.065-1.334-1.334-12.066 12.061c-0.633 0.631-1.025 1.504-1.025 2.469s0.392 1.838 1.025 2.469c0.631 0.633 1.504 1.025 2.468 1.025s1.837-0.392 2.468-1.025l0.002 0.002 14.799-14.795c0.995-1.019 1.609-2.414 1.609-3.952 0-3.125-2.533-5.658-5.658-5.658-1.537 0-2.931 0.613-3.95 1.607l-17.468 17.468c-1.314 1.356-2.123 3.206-2.123 5.246 0 4.166 3.377 7.543 7.543 7.543 2.040 0 3.89-0.81 5.248-2.125l14.732-14.73-1.334-1.334-14.734 14.734c-1.023 1.022-2.436 1.655-3.996 1.655-1.562 0-2.977-0.634-4-1.659-1.024-1.023-1.657-2.437-1.657-3.998s0.632-2.973 1.655-3.996l17.467-17.471c0.683-0.682 1.626-1.103 2.667-1.103s1.984 0.422 2.667 1.103c0.682 0.682 1.104 1.625 1.104 2.666s-0.422 1.984-1.104 2.666l-14.797 14.805c-0.295 0.32-0.717 0.52-1.185 0.52-0.889 0-1.61-0.721-1.61-1.61 0-0.467 0.199-0.888 0.517-1.182z"></path>
</symbol>
<symbol id="icon-authorize" viewBox="0 0 32 32">
<title>authorize</title>
<path d="M27.029 1.858l-1.414 1.414-4.243-1.414-7.071 7.071v2.828l7.778-7.778 2.121 0.707-18.385 18.385 4.243 4.243 21.213-21.213zM2.304 30.873l6.34-2.145-4.243-4.243z"></path>
</symbol>
<symbol id="icon-basemap" viewBox="0 0 32 32">
<title>basemap</title>
<path d="M0 0v14h13.99v-14h-13.99zM11.99 11.92v0.080h-4.83c0.471-0.879 1.043-2.027 1.676-2.792 0.789 1.11 1.676 2.053 3.154 2.712zM5.951 2.336c0.119 0.233 0.234 0.475 0.311 0.754 0.361 1.308 0.857 3.078 1.738 4.752-0.979 1.101-1.85 2.559-2.496 4.158h-3.514v-5.775c2.49-0.862 3.445-2.79 3.961-3.889zM31.99 0h-13.99v14h13.99v-14zM26.26 12c0.010-0.25 0.037-0.561 0.084-0.805 0.029-0.761 0.309-1.917 0.752-2.108 0.242-0.106 0.461-0.163 0.644-0.214 0.412-0.111 0.877-0.239 1.137-0.714 0.266-0.486 0.143-1.063-0.053-1.684 0.088-0.142 0.445-0.284 1.166-0.345v5.869h-3.73zM29.99 4.603c-0.848 0.051-1.834 0.245-2.373 0.964-0.301 0.402-0.377 0.909-0.215 1.429 0.055 0.173 0.084 0.294 0.1 0.376-0.053 0.016-0.111 0.031-0.16 0.045-0.332 0.085-0.614 0.183-0.885 0.299-1.447 0.628-1.607 2.963-1.609 3.296-0.033 0.161-0.105 0.432-0.102 0.989h-2.045c0.096-0.496 0.098-0.65 0.080-0.83 0.059-0.568 0.252-3.403-1.559-4.344 0.107-0.042 0.236-0.080 0.368-0.106 2.72-0.13 3.363-2.495 3.585-3.7 0.102-0.549 0.672-0.849 1.262-1.020h3.553v2.603zM31.99 18h-13.99v14h13.99v-14zM21.906 26.633l1.693 3.367h-3.609v-10h0.338l4.371 2.661-2.691 3.142c-0.113 0.131-0.182 0.303-0.182 0.492 0 0.123 0.030 0.24 0.082 0.343zM23.234 20h6.756v4.113l-6.756-4.113zM0 18v14h13.99v-14h-13.99zM11.715 21.108c-0.279 0.718-0.911 1.243-1.677 1.365-1.237 0.206-1.85 1.019-2.080 1.851-1.502-0.482-2.896-0.236-3.859 0.721-1.141 1.139-1.377 3.014-0.57 4.562 0.045 0.086 0.096 0.253 0.133 0.393h-1.67v-10h10.010v0.127c-0.365 0.515-0.27 0.933-0.285 0.981z"></path>
</symbol>
<symbol id="icon-beginning" viewBox="0 0 32 32">
<title>beginning</title>
<path d="M26 6v20l-14-9.998 14-10.002zM8 6h-4v20h4v-20z"></path>
</symbol>
<symbol id="icon-blank-map-pin" viewBox="0 0 32 32">
<title>blank-map-pin</title>
<path d="M15.999 0c-4.785 0-7.999 1.805-7.999 6.5v17l7.999 8.5 8.001-8.5v-17c0-4.695-3.214-6.5-8.001-6.5z"></path>
</symbol>
<symbol id="icon-browser" viewBox="0 0 32 32">
<title>browser</title>
<path d="M0 4v24h32v-24h-32zM8 26h-6v-14h6v14zM30 26h-20v-14h20v14z"></path>
</symbol>
<symbol id="icon-calculator" viewBox="0 0 32 32">
<title>calculator</title>
<path d="M1 0v12h29.8v-12h-29.8zM28 9h-24v-6h24v6zM1 14v8h8v-8h-8zM7 20h-4v-4h4v4zM12 14v8h8v-8h-8zM18 20h-4v-4h4v4zM23 14v18h8v-18h-8zM29 30h-4v-14h4v14zM1 24v8h8v-8h-8zM7 30h-4v-4h4v4zM12 24v8h8v-8h-8zM18 30h-4v-4h4v4z"></path>
</symbol>
<symbol id="icon-calendar" viewBox="0 0 32 32">
<title>calendar</title>
<path d="M2 32h26v-20h-26v20zM22 14h4v4h-4v-4zM22 20h4v4h-4v-4zM22 26h4v4h-4v-4zM16 14h4v4h-4v-4zM16 20h4v4h-4v-4zM16 26h4v4h-4v-4zM10 14h4v4h-4v-4zM10 20h4v4h-4v-4zM10 26h4v4h-4v-4zM4 14h4v4h-4v-4zM4 20h4v4h-4v-4zM4 26h4v4h-4v-4zM28 2v8h-26v-8h4v4h6v-4h6v4h6v-4h4zM10 4h-2v-4h2v4zM22 4h-2v-4h2v4z"></path>
</symbol>
<symbol id="icon-chart" viewBox="0 0 32 32">
<title>chart</title>
<path d="M30 26v2h-28v-24h2v22h2v-14h6v14h2v-18h6v18h2v-8h6v8h2z"></path>
</symbol>
<symbol id="icon-chat" viewBox="0 0 32 32">
<title>chat</title>
<path d="M0 10.28c0-4.709 5.137-8.541 11.454-8.541s11.458 3.832 11.458 8.541c0 4.709-5.14 8.541-11.458 8.541-1.44 0-2.85-0.204-4.195-0.601l-7.26 5.841 4.139-7.232c-2.634-1.636-4.139-4.005-4.139-6.549zM32 18.698c0-3.45-2.771-6.41-6.73-7.756-0.438 5.724-6.458 10.278-13.816 10.278-0.62 0-1.236-0.034-1.847-0.099 1.41 3.526 5.757 6.117 10.938 6.117 1.44 0 2.85-0.204 4.195-0.601l7.26 5.361-4.139-6.752c2.634-1.636 4.139-4.005 4.139-6.549z"></path>
</symbol>
<symbol id="icon-check-mark" viewBox="0 0 32 32">
<title>check-mark</title>
<path fill="#5a9359" style="fill: var(--color1, #5a9359)" d="M11.927 22l-6.882-6.883-3 3 9.882 9.883 19.277-19.272-3.001-3.001z"></path>
</symbol>
<symbol id="icon-checkbox-checked" viewBox="0 0 32 32">
<title>checkbox-checked</title>
<path d="M2 2v28h28v-28h-28zM26 26h-20v-20h20v20zM12.992 23.146l-4.99-5.346 2-2 2.976 3.119 8.901-8.9 2.121 2.121-11.008 11.006z"></path>
</symbol>
<symbol id="icon-checkbox-unchecked" viewBox="0 0 32 32">
<title>checkbox-unchecked</title>
<path d="M2 2v28h28v-28h-28zM26 26h-20v-20h20v20z"></path>
</symbol>
<symbol id="icon-close-circled" viewBox="0 0 32 32">
<title>close-circled</title>
<path d="M21.598 8h2.402v2.402l-5.601 5.6 5.601 5.6v2.398h-2.402l-5.599-5.6-5.601 5.6h-2.398v-2.398l5.599-5.6-5.599-5.6v-2.402h2.398l5.601 5.6 5.599-5.6zM31.6 16c0 8.615-6.983 15.6-15.6 15.6s-15.6-6.984-15.6-15.6c0-8.615 6.983-15.6 15.6-15.6s15.6 6.984 15.6 15.6zM29.2 16c0-7.279-5.922-13.199-13.2-13.199s-13.2 5.92-13.2 13.199 5.922 13.199 13.2 13.199 13.2-5.92 13.2-13.199z"></path>
</symbol>
<symbol id="icon-close" viewBox="0 0 32 32">
<title>close</title>
<path d="M18.404 16l9.9 9.9-2.404 2.404-9.9-9.9-9.9 9.9-2.404-2.404 9.9-9.9-9.9-9.898 2.404-2.404 9.9 9.899 9.9-9.9 2.404 2.406-9.9 9.898z"></path>
</symbol>
<symbol id="icon-collapse" viewBox="0 0 32 32">
<title>collapse</title>
<path d="M1.047 4h5l12 12-12 12h-5l12-12-12-12zM27.047 16l-12 12h5l12-12-12-12h-5l12 12z"></path>
</symbol>
<symbol id="icon-collection" viewBox="0 0 32 32">
<title>collection</title>
<path d="M32 10v22h-22v-2h20v-20h2zM26 6v20h-20v2h22v-22h-2zM24 2v22h-22v-22h22zM22 10.237v-6.237h-5.42c0.691 2 0.299 2.214 0.156 2.38-0.147 0.161-0.344 0.275-0.565 0.318-0.28 0.239-0.833 0.981-0.983 1.503-0.141 0.485-0.453 0.86-0.885 1.059-0.772 0.355-1.637 0.012-1.842-0.082-0.118 0.357-0.28 0.667-0.484 0.944-0.511 0.709-1.145 0.87-1.587 0.879-1.168 0.011-2.232-1.049-2.619-1.503 0.231 0.62 0.399 1.42 0.162 1.982-0.060 0.141-0.14 0.261-0.238 0.364 1.025-0.084 1.873 0.392 2.266 1.053 0.457 0.772 0.404 1.938-0.746 2.801-0.301 0.226-0.443 0.418-0.498 0.576 1.178 0.183 2.057 0.843 2.324 1.793 0.289 1.025-0.207 2.091-1.268 2.715-0.033 0.020-0.336 0.217-0.684 1.217h8.375c-0.002-1-0.004-1.126-0.012-1.135-0.109-0.151-0.424-0.241-0.861-0.249-1.631-0.030-2.383-1.038-2.545-1.97-0.215-1.254 0.477-2.624 1.576-3.231-0.543-0.703-0.203-1.229-0.010-1.441 0.068-0.075 0.182-0.182 0.32-0.31 0.793-0.727 0.969-1.045 0.975-1.181-0.037-0.704 0.244-1.315 0.773-1.671 0.348-0.236 1.088-0.537 2.266-0.078 0.025-0.041 0.049-0.084 0.072-0.12 0.090-0.158 1.053-0.273 1.98-0.377z"></path>
</symbol>
<symbol id="icon-comment" viewBox="0 0 32 32">
<title>comment</title>
<path d="M15.999 2c-8.971 0-15.999 4.464-15.999 10.165 0 3.583 2.804 6.799 7.418 8.622-0.068 0.838-0.324 2.179-1.089 4.143l-1.953 5.020 4.878-2.288c0.185-0.086 4.154-1.977 6.56-5.334h0.186c8.972 0 16.001-4.464 16.001-10.163 0-5.7-7.028-10.165-16-10.165zM16 20.172c-0.455 0-0.904-0.015-1.348-0.039-1.904 3.508-6.315 5.577-6.315 5.577 1.449-3.722 1.33-5.677 1.157-6.478-4.366-1.347-7.495-4.169-7.495-7.232 0-4.423 6.354-8 14-8s14 3.741 14 8.164-6.354 8.008-14 8.008zM8 8h16v2h-16v-2zM8 12h12v2h-12v-2z"></path>
</symbol>
<symbol id="icon-compass" viewBox="0 0 32 32">
<title>compass</title>
<path d="M16.047 0.447c-8.615 0-15.6 6.982-15.6 15.6 0 8.615 6.984 15.599 15.6 15.599 8.617 0 15.6-6.984 15.6-15.599 0-8.617-6.982-15.6-15.6-15.6zM16.047 29.246c-7.279 0-13.199-5.92-13.199-13.199s5.92-13.2 13.199-13.2 13.199 5.921 13.199 13.2-5.92 13.199-13.199 13.199zM16 6l-8 18 8-4 8 4z"></path>
</symbol>
<symbol id="icon-configure-popup" viewBox="0 0 32 32">
<title>configure-popup</title>
<path d="M6 4h10v2h-10v-2zM14 8h10v2h-10v-2zM6 16h6v-8h-6v8zM8 10h2v4h-2v-4zM10 22.639l-2.625 2.099 0.564-2.254c0.038-0.146 0.060-0.313 0.060-0.486 0-1.103-0.895-1.998-1.998-1.998-0 0-0.001 0-0.001 0h-2.002c-1.1 0-1.998-0.898-1.998-2v-14c0-1.098 0.898-2 1.998-2h22c1.102 0 2.002 0.902 2.002 2v8.122c0.094-0.015 0.186-0.046 0.281-0.046 0.475 0 0.948 0.184 1.305 0.541l0.414 0.414v-9.031c0-2.207-1.791-4-4-4h-22c-2.209 0-4 1.793-4 4v14c0 2.211 1.791 4 4 4h2l-2 8 6.675-5.34c-0.404-0.341-0.675-0.829-0.675-1.39v-0.631zM32 23.338v-2.519l-3.209-0.42c-0.18-0.712-0.448-1.338-0.796-1.909l2.099-2.644-1.783-1.783-2.68 2.076c-0.54-0.329-1.164-0.595-1.828-0.763l-0.465-3.375h-2.519l-0.424 3.365c-0.67 0.166-1.297 0.43-1.879 0.773l-2.67-2.076-1.783 1.783 2.076 2.67c-0.328 0.542-0.593 1.169-0.763 1.835l-3.375 0.468v2.519l3.365 0.422c0.166 0.666 0.43 1.299 0.773 1.875l-2.076 2.676 1.779 1.779 2.674-2.082c0.541 0.336 1.167 0.604 1.834 0.769l0.465 3.223h2.523l0.418-3.213c0.712-0.175 1.338-0.442 1.907-0.795l2.644 2.098 1.787-1.779-2.082-2.676c0.332-0.54 0.599-1.164 0.769-1.828l3.219-0.469zM27.533 23.389c-0.15 0.587-0.37 1.102-0.657 1.572-0.099 0.162-0.166 0.387-0.166 0.628 0 0.295 0.1 0.566 0.268 0.782l1.408 1.804-0.211 0.213-1.809-1.406c-0.212-0.168-0.483-0.27-0.778-0.27-0.241 0-0.467 0.068-0.658 0.186-0.442 0.27-0.959 0.49-1.508 0.631-0.544 0.138-0.923 0.558-0.988 1.076l-0.286 2.281h-0.301l-0.281-2.275c-0.067-0.524-0.445-0.944-0.94-1.072-0.597-0.149-1.115-0.37-1.586-0.659-0.162-0.101-0.388-0.169-0.63-0.169-0.296 0-0.568 0.102-0.783 0.272l-1.806 1.404-0.207-0.211 1.406-1.805c0.322-0.42 0.357-0.988 0.088-1.435-0.272-0.445-0.492-0.961-0.632-1.508-0.138-0.546-0.559-0.925-1.078-0.992l-2.281-0.284 0.002-0.305 2.273-0.281c0.526-0.066 0.948-0.447 1.074-0.946 0.151-0.594 0.371-1.108 0.657-1.577 0.256-0.426 0.22-0.995-0.102-1.407l-1.41-1.813 0.211-0.211 1.814 1.41c0.212 0.167 0.484 0.268 0.778 0.268 0.243 0 0.47-0.068 0.662-0.187 0.44-0.271 0.955-0.492 1.503-0.631 0.547-0.137 0.924-0.559 0.988-1.082l0.281-2.271h0.301l0.285 2.271c0.064 0.523 0.439 0.945 0.947 1.074 0.586 0.148 1.102 0.369 1.571 0.657 0.163 0.101 0.39 0.169 0.633 0.169 0.295 0 0.567-0.101 0.782-0.269l1.808-1.408 0.211 0.211-1.41 1.813c-0.318 0.412-0.356 0.98-0.086 1.428 0.293 0.49 0.506 1.010 0.643 1.547 0.127 0.512 0.553 0.891 1.072 0.955l2.279 0.281-0.002 0.305-2.277 0.283c-0.524 0.068-0.943 0.448-1.070 0.944zM21.998 18.191c-2.1 0-3.807 1.711-3.807 3.809s1.707 3.809 3.807 3.809c2.099 0 3.807-1.711 3.807-3.809s-1.707-3.809-3.807-3.809zM21.998 24.539c-1.401-0.001-2.537-1.137-2.537-2.538s1.137-2.538 2.538-2.538c0.001 0 0.001 0 0.002 0 1.401 0.001 2.537 1.137 2.537 2.538s-1.137 2.538-2.538 2.538c-0.001 0-0.001 0-0.002 0z"></path>
</symbol>
<symbol id="icon-contact" viewBox="0 0 32 32">
<title>contact</title>
<path d="M0 4v24h32v-24h-32zM30 6v0.519l-14.051 9.395-13.949-9.333v-0.581h28zM2 26v-17.351l12.039 7.991 1.91 1.359 1.91-1.358 12.141-8.064v17.422h-28z"></path>
</symbol>
<symbol id="icon-dashboard" viewBox="0 0 32 32">
<title>dashboard</title>
<path d="M26.983 24.557h0.003v2.007h-0.003v-2.007zM29.709 7.706c0.389-0.389 0.389-1.025 0-1.414s-1.025-0.389-1.415 0l-10.274 10.274c-0.577-0.352-1.273-0.562-2.019-0.566-2.21 0-4.001 1.791-4.001 4s1.791 4 4 4c2.209 0 4-1.791 4-4-0.004-0.747-0.214-1.443-0.576-2.037l10.284-10.257zM31.579 16c0-1.377-0.196-2.705-0.532-3.976l-1.678 1.677c0.128 0.749 0.21 1.514 0.21 2.299 0 3.38-1.25 6.468-3.301 8.846l1.413 1.425c2.412-2.744 3.887-6.331 3.887-10.271zM26.28 24.846l-2.796-2.819c-0.182-0.182-0.433-0.295-0.71-0.295-0.276 0-0.526 0.112-0.708 0.292l-0.006 0.006c-0.18 0.181-0.291 0.431-0.291 0.707 0 0.274 0.11 0.523 0.288 0.704l4.215 4.25c0.507-0.447 0.97-0.91 1.402-1.399l-1.403-1.435 0.004-0.006 0.004-0.005zM7.791 5.208c2.248-1.738 5.106-2.786 8.209-2.787l0 4.579c0 0.55 0.45 1 1 1s1-0.45 1-1v-4.417c2.255 0.345 4.263 1.2 5.97 2.444l1.392-1.458c-2.128-1.605-4.686-2.646-7.463-2.99-0.561-0.069-1.124-0.135-1.702-0.142-0.067-0.001-0.13-0.016-0.197-0.016-0.002 0-0.005 0-0.007 0-3.651 0-7.008 1.263-9.657 3.375-0.496 0.392-0.999 0.837-1.468 1.316-2.318 2.366-3.887 5.474-4.315 8.936-0.074 0.626-0.114 1.184-0.121 1.751-0.001 0.068-0.010 0.133-0.010 0.201 0 3.942 1.476 7.531 3.89 10.275l1.418-1.418c-2.056-2.357-3.309-5.46-3.309-8.856 0-0 0-0.001 0-0.001l4.58 0c0.55 0 1-0.45 1-1s-0.45-1-1-1h-4.416c0.445-2.93 1.772-5.491 3.699-7.466l2.701 2.73c0.181 0.182 0.433 0.295 0.71 0.295 0.276 0 0.526-0.112 0.707-0.292l0.006-0.006c0.18-0.181 0.291-0.431 0.291-0.707 0-0.274-0.11-0.523-0.288-0.704l-2.619-2.641zM4.311 26.275c0.441 0.501 0.913 0.973 1.414 1.414l4.224-4.224c0.389-0.389 0.389-1.025 0-1.414s-1.025-0.389-1.414 0l-4.223 4.224z"></path>
</symbol>
<symbol id="icon-deny" viewBox="0 0 32 32">
<title>deny</title>
<path d="M16.047 0.447c-8.617 0-15.6 6.983-15.6 15.6s6.982 15.6 15.6 15.6 15.6-6.983 15.6-15.6-6.982-15.6-15.6-15.6zM16.047 2.847c3.063 0 5.879 1.059 8.121 2.816l-18.506 18.505c-1.755-2.211-2.815-5.041-2.815-8.12 0-0 0-0.001 0-0.001 0-7.278 5.92-13.2 13.199-13.2zM16.047 29.247c-3.079-0.001-5.91-1.061-8.148-2.837l18.533-18.484c1.754 2.211 2.814 5.042 2.814 8.121 0 7.278-5.92 13.2-13.199 13.2z"></path>
</symbol>
<symbol id="icon-description" viewBox="0 0 32 32">
<title>description</title>
<path d="M31.297 16.047c0 8.428-6.826 15.25-15.25 15.25s-15.25-6.822-15.25-15.25c0-8.424 6.826-15.25 15.25-15.25s15.25 6.826 15.25 15.25zM18 24v-12h-4v12h-2v2h8v-2h-2zM18 6h-4v4h4v-4z"></path>
</symbol>
<symbol id="icon-directions" viewBox="0 0 32 32">
<title>directions</title>
<path d="M28 12l-8-8v6h-8c-3.3 0-6 2.7-6 6v12h4v-12c0-1.084 0.916-2 2-2h8v6l8-8z"></path>
</symbol>
<symbol id="icon-directions2" viewBox="0 0 32 32">
<title>directions2</title>
<path d="M22 4h-12c-3.314 0-6 2.686-6 6v12c0 3.314 2.686 6 6 6h12c3.314 0 6-2.686 6-6v-12c0-3.314-2.686-6-6-6zM18 20v-4h-4v8h-4v-6c0-3.314 2.686-6 6-6h2v-4l7 6-7 6z"></path>
</symbol>
<symbol id="icon-dock-bottom" viewBox="0 0 32 32">
<title>dock-bottom</title>
<path d="M30 28v-24h-28v24h28zM4 6h24v16h-24v-16z"></path>
</symbol>
<symbol id="icon-dock-left" viewBox="0 0 32 32">
<title>dock-left</title>
<path d="M30 28v-24h-28v24h28zM8 6h20v20h-20v-20z"></path>
</symbol>
<symbol id="icon-dock-right" viewBox="0 0 32 32">
<title>dock-right</title>
<path d="M2 4v24h28v-24h-28zM24 26h-20v-20h20v20z"></path>
</symbol>
<symbol id="icon-documentation" viewBox="0 0 32 32">
<title>documentation</title>
<path d="M22 24h4v2h-4v-2zM22 12h4v2h-4v-2zM22 16h4v2h-4v-2zM8 6h10v2h-10v-2zM22 20h4v2h-4v-2zM8 12h10v2h-10v-2zM8 16h12v2h-12v-2zM22.801 0h-18.801v32h26v-24.801l-7.199-7.199zM28 30h-22v-28h14v8h8v20zM28 8h-6v-6h0.621l5.379 5.379v0.621zM8 20h12v2h-12v-2zM8 24h10v2h-10v-2z"></path>
</symbol>
<symbol id="icon-down-arrow-circled" viewBox="0 0 32 32">
<title>down-arrow-circled</title>
<path d="M16 0.4c-8.615 0-15.6 6.982-15.6 15.6 0 8.615 6.984 15.6 15.6 15.6 8.617 0 15.6-6.984 15.6-15.6 0-8.617-6.982-15.6-15.6-15.6zM16 29.199c-7.279 0-13.199-5.92-13.199-13.199s5.92-13.2 13.199-13.2 13.199 5.921 13.199 13.2-5.92 13.199-13.199 13.199zM18 19.162l6-6.238v5.055c-2.895 2.912-8 8.021-8 8.021s-5-5.063-8-7.982v-5.105l6 6.25v-13.162h4v13.162z"></path>
</symbol>
<symbol id="icon-down-arrow" viewBox="0 0 32 32">
<title>down-arrow</title>
<path d="M30 10l-14 14-14-14h28z"></path>
</symbol>
<symbol id="icon-down" viewBox="0 0 32 32">
<title>down</title>
<path d="M28 9v5l-12 12-12-12v-5l12 12 12-12z"></path>
</symbol>
<symbol id="icon-download" viewBox="0 0 32 32">
<title>download</title>
<path d="M24 24l-8 8-8-8h6v-10h4v10h6zM27.080 8.793c-0.652-4.748-4.484-8.397-9.129-8.397-3.48 0-6.504 2.045-8.082 5.062-0.401-0.12-0.863-0.192-1.34-0.199-2.567-0-4.475 1.909-4.65 4.326-2.172 1.115-3.68 3.368-3.68 5.972 0 3.537 2.891 6.443 5.801 6.443h4v-2.4h-4c-1.541 0-3.4-1.803-3.4-4.043 0-1.614 0.91-3.084 2.375-3.837l1.199-0.616 0.1-1.345c0.090-1.236 1.016-2.1 2.252-2.1 0.193 0 0.428 0.037 0.717 0.115l1.861 0.503 0.892-1.707c1.217-2.328 3.5-3.774 5.955-3.774 3.353 0 6.256 2.718 6.752 6.323l0.203 1.484 1.424 0.468c1.836 0.606 3.070 2.33 3.070 4.292 0 2.347-1.859 4.235-3.4 4.235h-4v2.4h4c2.838 0 5.801-2.936 5.801-6.636 0-3.070-1.982-5.67-4.721-6.571z"></path>
</symbol>
<symbol id="icon-drag-horizontal" viewBox="0 0 32 32">
<title>drag-horizontal</title>
<path d="M28 8h-24c-1.1 0-2-0.9-2-2s0.9-2 2-2h24c1.1 0 2 0.9 2 2s-0.9 2-2 2zM28 18h-24c-1.1 0-2-0.9-2-2s0.9-2 2-2h24c1.1 0 2 0.9 2 2s-0.9 2-2 2zM28 28h-24c-1.1 0-2-0.9-2-2s0.9-2 2-2h24c1.1 0 2 0.9 2 2s-0.9 2-2 2z"></path>
</symbol>
<symbol id="icon-drag-vertical" viewBox="0 0 32 32">
<title>drag-vertical</title>
<path d="M24 28v-24c0-1.1 0.9-2 2-2s2 0.9 2 2v24c0 1.1-0.9 2-2 2s-2-0.9-2-2zM14 28v-24c0-1.1 0.9-2 2-2s2 0.9 2 2v24c0 1.1-0.9 2-2 2s-2-0.9-2-2zM4 28v-24c0-1.1 0.9-2 2-2s2 0.9 2 2v24c0 1.1-0.9 2-2 2s-2-0.9-2-2z"></path>
</symbol>
<symbol id="icon-duplicate" viewBox="0 0 32 32">
<title>duplicate</title>
<path d="M22.801 0h-12.801v6h-8v26h20v-6h8v-18.801l-7.199-7.199zM20 24v6h-16v-22h8v8h8v8zM20 14h-6v-6h0.621l5.379 5.381v0.619zM28 24h-6v-10.801l-7.199-7.199h-2.801v-4h8v8h8v14zM28 8h-6v-6h0.621l5.379 5.381v0.619zM6 26h12v2h-12v-2zM6 22h12v2h-12v-2zM6 18h12v2h-12v-2zM6 14h4v2h-4v-2z"></path>
</symbol>
<symbol id="icon-edit" viewBox="0 0 32 32">
<title>edit</title>
<path d="M27.443 9.439l-4.955-4.953 1.652-1.65c0.423-0.422 1.006-0.683 1.651-0.683s1.228 0.261 1.651 0.683l1.648 1.65c0.424 0.422 0.686 1.006 0.686 1.651 0 0.643-0.261 1.226-0.682 1.647l-1.65 1.654zM4.924 22.195l-2.373 7.254 7.328-2.301-4.955-4.953zM20.455 6.713l-13.076 12.842 4.951 4.949 13.074-12.842-4.949-4.949z"></path>
</symbol>
<symbol id="icon-end" viewBox="0 0 32 32">
<title>end</title>
<path d="M20 16.002l-14 9.998v-20l14 10.002zM24 26h4v-20h-4v20z"></path>
</symbol>
<symbol id="icon-environment-settings" viewBox="0 0 32 32">
<title>environment-settings</title>
<path d="M16.047 22.746c-3.693 0-6.699-3.006-6.699-6.699s3.006-6.699 6.699-6.699 6.699 3.006 6.699 6.699-3.006 6.699-6.699 6.699zM16.047 5.746c1.094 0 2.127 0.219 3.117 0.535l-3.117-6.234-3.117 6.234c0.99-0.316 2.024-0.535 3.117-0.535zM25.156 11.344l2.205-6.611-6.611 2.205c1.897 0.997 3.409 2.509 4.379 4.35zM11.344 6.937l-6.609-2.205 2.203 6.611c0.997-1.898 2.508-3.409 4.35-4.379zM32.047 16.047l-6.234-3.117c0.316 0.99 0.535 2.024 0.535 3.117s-0.219 2.127-0.535 3.117l6.234-3.117zM5.746 16.047c0-1.094 0.219-2.127 0.535-3.117l-6.234 3.117 6.234 3.117c-0.316-0.99-0.535-2.023-0.535-3.117zM20.75 25.156l6.611 2.205-2.205-6.611c-0.997 1.898-2.508 3.409-4.35 4.379zM6.938 20.75l-2.203 6.611 6.609-2.205c-1.898-0.997-3.409-2.508-4.379-4.35zM16.047 26.348c-1.094 0-2.127-0.219-3.117-0.535l3.117 6.234 3.117-6.234c-0.99 0.317-2.023 0.535-3.117 0.535z"></path>
</symbol>
<symbol id="icon-erase" viewBox="0 0 32 32">
<title>erase</title>
<path d="M15.699 2.383l12.938 11.633-12.608 5.189c-0.106 0.042-0.229 0.069-0.358 0.072-0.004 0-0.007 0-0.010 0-0.254 0-0.483-0.105-0.647-0.273l-12.982-13.432 12.264-3.504c0.137-0.049 0.281-0.068 0.426-0.068 0.355 0 0.707 0.133 0.978 0.383zM31.107 23.74l-13.477 5.547c-0.159 0.067-0.344 0.106-0.538 0.106-0.399 0-0.759-0.165-1.017-0.431l-13.988-14.463c-0.133-0.137-0.239-0.301-0.306-0.485-0.601-1.623-1.847-4.532-1.78-6.423l13.273 13.723c0.61 0.628 1.461 1.020 2.403 1.025 0.433 0 0.86-0.088 1.273-0.256l13.586-5.604c0.916 2.4 2.453 6.494 0.57 7.26z"></path>
</symbol>
<symbol id="icon-error" viewBox="0 0 32 32">
<title>error</title>
<path d="M21.605 8l2.406 2.402-5.602 5.599 5.602 5.601-2.406 2.398-5.598-5.599-5.602 5.599-2.394-2.398 5.598-5.601-5.598-5.599 2.394-2.402 5.602 5.601 5.598-5.601zM32 10.6v10.801l-8.594 10.6h-14.801l-8.605-10.6v-10.801l8.605-10.6h14.801l8.594 10.6zM29.6 21.185v-10.369l-6.822-8.415h-13.543l-6.834 8.417v10.365l6.834 8.417h13.543l6.822-8.415z"></path>
</symbol>
<symbol id="icon-error2" viewBox="0 0 32 32">
<title>error2</title>
<path d="M21.797 2h-11.598l-8.199 8.201v11.598l8.199 8.201h11.598l8.203-8.201v-11.598l-8.203-8.201zM18 26h-4v-4h4v4zM18 18h-4v-10h4v10z"></path>
</symbol>
<symbol id="icon-expand" viewBox="0 0 32 32">
<title>expand</title>
<path d="M31.047 28h-5l-12-12 12-12h5l-12 12 12 12zM5.047 16l12-12h-5l-12 12 12 12h5l-12-12z"></path>
</symbol>
<symbol id="icon-experimental" viewBox="0 0 32 32">
<title>experimental</title>
<path d="M30.225 28.521l-10.225-17.71v-8.811h1c0.55 0 1-0.45 1-1s-0.45-1-1-1h-10c-0.55 0-1 0.45-1 1s0.45 1 1 1h1v8.811l-10.226 17.712c-0.194 0.332-0.309 0.731-0.309 1.157 0 1.281 1.038 2.319 2.319 2.32h24.435c0 0 0 0 0.001 0 1.28 0 2.318-1.038 2.318-2.318 0-0.428-0.116-0.828-0.318-1.172zM7.849 22l6.151-10.654v-9.346h4v2h-2v2h2v4h-2v2h2.378l2.309 4h-4.687v2h5.841l2.309 4h-16.301z"></path>
</symbol>
<symbol id="icon-favorites" viewBox="0 0 32 32">
<title>favorites</title>
<path d="M16.043 0.367l3.77 11.633h12.187l-9.859 7.172 3.789 11.625-9.887-7.193-9.889 7.193 3.787-11.625-9.941-7.172h12.271z"></path>
</symbol>
<symbol id="icon-feature-layer" viewBox="0 0 32 32">
<title>feature-layer</title>
<path d="M32.047 28.917s-6.4-3.198-16.002 0c-9.598 3.2-16 0-16 0l4.268-25.599s6.4 2.134 11.732 0c5.334-2.133 11.734 0 11.734 0l4.268 25.599z"></path>
</symbol>
<symbol id="icon-filter" viewBox="0 0 32 32">
<title>filter</title>
<path d="M4 0h24v2h-24v-2zM14 30h4l2-16h-8zM12 12h8l8-8h-24z"></path>
</symbol>
<symbol id="icon-forward" viewBox="0 0 32 32">
<title>forward</title>
<path d="M28 16.002l-14 9.998v-20l14 10.002zM6 26h4v-20h-4v20z"></path>
</symbol>
<symbol id="icon-globe" viewBox="0 0 32 32">
<title>globe</title>
<path d="M13.643 5.549c-0.824 0.044-0.711-0.867-0.756-1.155 0 0 0.31-0.222 0.488-0.288 0.178-0.067 0.756-0.067 0.867 0.288 0.109 0.355 0.223 1.11-0.6 1.155zM15.662 7.347c0.488-0.354 1.045 0.023 1.445 0 0.398-0.021 0.486-0.533 0.666-0.799 0.178-0.268 0.953-0.622 0.576-0.999-0.379-0.377-2.199-0.644-2.664-0.045-0.238 0.308-0.979 1.156-1.356 1.332s-0.178 0.866 0.066 0.91c0.246 0.045 0.777-0.044 1.266-0.399zM17.885 9.547c-0.133 0.156 0.068 0.49 0.51 0.49 0 0.333 0.090 0.866 0.533 0.754s0.49-0.756-0.066-1.111c-0.26-0.165-0.531-0.91-0.977-0.133zM31.297 16.047c0 8.423-6.828 15.25-15.25 15.25s-15.25-6.827-15.25-15.25c0-8.422 6.828-15.25 15.25-15.25s15.25 6.828 15.25 15.25zM16.047 28.857c1.311 0 2.574-0.199 3.766-0.566-0.036-0.12-0.081-0.224-0.135-0.321-0.349-0.636-0.508-1.946-0.152-2.279 0.354-0.334 0.51-1.199 0.244-1.422-0.266-0.221 0.18-0.601 0.223-0.843 0.246-0.912-0.244-0.955-0.998-1.179-0.756-0.221-1.51 0.090-2.486 0.112-0.98 0.021-1.379-1.378-1.49-1.62-0.354-0.223-0.842-0.558-0.775-1.045 0.066-0.49 0.51-0.91 0.531-1-0.088-0.289 0-0.82 0.135-0.999 0.221-0.844 1.309-1.399 1.666-1.556 0.133-0.577 1.266-1.132 1.531-1.019 0.266 0.11 0.512 0.532 0.934 0 0.42-0.534 0.688-0.378 1.332-0.378 0.643 0 0.842 0.312 1.043 0.91 0.199 0.6 1.6 0.687 1.621 0.556 0.287-0.954 1.088-0.223 1.244-0.223 0.934-0.065 1.043-0.466 0.934-1.022-0.111-0.555-1.045-0.267-1.156-0.51-0.086-0.192-0.289-0.622-0.4-0.4-0.109 0.222-0.486 0.688-0.732 0.065-0.244-0.621-0.932-1.331-1.109-1.221-0.268 0.379-0.602 0.377-0.756 0.267-0.621-0.467-1.086 0.023-1.355 0.289-0.266 0.267-0.668 0.706-1.246 0.863-0.576 0.154-0.955-0.245-1.021-0.822s0.447-1.062 0.959-0.797c0.512 0.267 0.953 0.045 0.732-0.177s-0.377-0.845-0.088-0.954c0.287-0.111 0.488 0 0.977-0.667s1.043-0.444 1.688-0.333c0.644 0.111 0.467-0.955 0.422-1.155s-0.822-0.644-0.889-0.489c-0.065 0.155 0.111 0.866-0.266 1.045-0.379 0.179-0.756-0.424-1.067-0.778-0.312-0.354 0.289-0.687 0.356-0.866 0.178-0.644 0.912-1.177 1.6-0.82s0.82 0.089 0.777-0.024c-0.358-0.422-0.346-1.183 0-1.554 0.215-0.231 0.418-0.379 0.607-0.469-2.012-1.39-4.503-2.221-7.188-2.221-0.003 0-0.006 0-0.009 0-2.697 0-5.197 0.842-7.264 2.271 0.664-0.297 2.156-0.422 2.195-0.115 0.043 0.356 0.043 1.288 0.353 1.11 0.266-0.134 0.578-0.889 1.289-0.355 0.709 0.532-0.135 1.198-0.355 1.554-0.223 0.357-0.312 0.933-1.066 0.666-0.756-0.267-0.889 0.089-0.934 0.355s-0.531 0.488-1.154 0.312c-0.623-0.178-1.641 0.797-2.131 1.287-0.268 0.267-2.371 0.923-2.064-0.467 0.018-0.080 0.037-0.141 0.055-0.215-0.786 1.332-1.348 2.892-1.588 4.557 0.586 0.248 1.824 0.586 2.043 1.543 0.266 0.399 0.797 1.644 1.332 2.31 0.857 1.073 0.27 1.593 0.355 2.443 0.443 0.222 1.109 0.71 1.775 1.067 0.666 0.354 1.156 1.287 0.135 1.643-0.223 0.178 0.043 1.022-0.4 1.199-0.367 0.146-0.869 0.754-1.334 0.968 2.293 2.155 5.369 3.487 8.758 3.487zM28.857 16.047c0-0.194-0.021-0.383-0.029-0.575-0.356-0.020-0.689-0.074-1.010-0.159-0.385-0.104-0.698 0.34-0.498 0.496 0.199 0.154 0.668 0.331 0.711 0.621 0.045 0.289-0.443 1.599-0.711 2.086-0.266 0.49-0.576 0.533-0.733 0.313-0.154-0.223-0.443-1.31-0.777-1.933-0.334-0.621-0.377-0.134-0.266 0.267 0.111 0.399 0.621 1.932 0.777 2.376 0.645 0.134 0.732 0.2 0.934 0.4 0.197 0.199-0.045 0.467-0.4 0.976-0.355 0.512-1.621 2.844-1.687 3.265-0.031 0.203 0.006 0.516-0.014 0.863 2.289-2.306 3.703-5.483 3.703-8.99 0-0.002 0-0.004 0-0.006z"></path>
</symbol>
<symbol id="icon-grant" viewBox="0 0 32 32">
<title>grant</title>
<path d="M31.297 16.047c0 8.424-6.826 15.25-15.25 15.25s-15.25-6.826-15.25-15.25 6.826-15.25 15.25-15.25 15.25 6.826 15.25 15.25zM23.504 8.246l-10.344 10.344-4.168-4.176-2.324 2.324 6.492 6.492 12.668-12.66-2.324-2.324z"></path>
</symbol>
<symbol id="icon-grid" viewBox="0 0 32 32">
<title>grid</title>
<path d="M0 0h13.3v13.3h-13.3v-13.3zM18.7 0h13.3v13.3h-13.3v-13.3zM0 18.7h13.3v13.3h-13.3v-13.3zM18.7 18.7h13.3v13.3h-13.3v-13.3z"></path>
</symbol>
<symbol id="icon-group" viewBox="0 0 32 32">
<title>group</title>
<path d="M16 4c0 2.209-1.791 4-4 4s-4-1.791-4-4c0-2.209 1.791-4 4-4s4 1.791 4 4zM14 12c0-1.543 0.601-2.936 1.561-4h-7.561c-2.209 0-4 1.793-4 4v8c0 1.105 0.895 2 2 2h2c0 1.105 0.895 2 2 2v-4c0-2.766 1.891-5.076 4.44-5.77-0.276-0.659-0.438-1.426-0.44-2.229zM24 12c0 2.209-1.791 4-4 4s-4-1.791-4-4c0-2.209 1.791-4 4-4s4 1.791 4 4zM24 16h-8c-2.209 0-4 1.793-4 4v8c0 1.105 0.895 2 2 2h2c0 1.105 0.895 2 2 2h4c1.105 0 2-0.895 2-2h2c1.105 0 2-0.895 2-2v-8c0-2.207-1.791-4-4-4z"></path>
</symbol>
<symbol id="icon-handle-horizontal" viewBox="0 0 32 32">
<title>handle-horizontal</title>
<path d="M31.635 16c0 2.008-1.627 3.635-3.635 3.635s-3.635-1.627-3.635-3.635c0-2.008 1.627-3.635 3.635-3.635s3.635 1.627 3.635 3.635zM7.634 16c0 2.007-1.627 3.634-3.634 3.634s-3.634-1.627-3.634-3.634c0-2.007 1.627-3.634 3.634-3.634s3.634 1.627 3.634 3.634zM19.634 16c0 2.007-1.627 3.634-3.634 3.634s-3.634-1.627-3.634-3.634c0-2.007 1.627-3.634 3.634-3.634s3.634 1.627 3.634 3.634z"></path>
</symbol>
<symbol id="icon-handle-vertical" viewBox="0 0 32 32">
<title>handle-vertical</title>
<path d="M19.634 28c0 2.007-1.627 3.634-3.634 3.634s-3.634-1.627-3.634-3.634c0-2.007 1.627-3.634 3.634-3.634s3.634 1.627 3.634 3.634zM19.635 4c0 2.008-1.627 3.635-3.635 3.635s-3.635-1.627-3.635-3.635c0-2.008 1.627-3.635 3.635-3.635s3.635 1.627 3.635 3.635zM19.635 16c0 2.008-1.627 3.635-3.635 3.635s-3.635-1.627-3.635-3.635c0-2.008 1.627-3.635 3.635-3.635s3.635 1.627 3.635 3.635z"></path>
</symbol>
<symbol id="icon-home" viewBox="0 0 32 32">
<title>home</title>
<path d="M30 15.957v16.043h-10v-12h-8v12h-10v-16h-2l6-6v-10h6v4l4-4 16 15.957h-2z"></path>
</symbol>
<symbol id="icon-key" viewBox="0 0 32 32">
<title>key</title>
<path d="M23-0.135c-4.971 0-9 4.029-9 9 0 1.451 0.375 2.802 0.985 4.015l-12.985 12.985v4h4l2-2h3.969l0.021-3.989 0.011-0.011h4v-4l2.985-2.985c1.214 0.61 2.564 0.985 4.015 0.985 4.971 0 9-4.029 9-9s-4.029-9-9-9zM26 10h-4v-4h4v4z"></path>
</symbol>
<symbol id="icon-labels" viewBox="0 0 32 32">
<title>labels</title>
<path d="M30.095 13.311l-11.406-11.406c-0.187-0.188-0.447-0.305-0.733-0.305s-0.546 0.116-0.733 0.305l-16.918 16.92c-0.188 0.186-0.304 0.445-0.305 0.73v6.862c0 0.273 0.109 0.539 0.305 0.734l4.547 4.545c0.195 0.195 0.459 0.305 0.734 0.305h6.86c0.275 0 0.537-0.109 0.732-0.305l16.918-16.916c0.188-0.188 0.305-0.448 0.305-0.735s-0.116-0.547-0.305-0.735zM12.045 30h-6.461l-3.584-3.582v-6.461l16.157-16.558 10.445 10.446-16.557 16.155zM12 23c0 1.657-1.343 3-3 3s-3-1.343-3-3c0-1.657 1.343-3 3-3s3 1.343 3 3z"></path>
</symbol>
<symbol id="icon-layer-list" viewBox="0 0 32 32">
<title>layer-list</title>
<path d="M3.998 8h-3.998v-4h3.998v4zM3.998 14h-3.998v4h3.998v-4zM3.998 24h-3.998v4h3.998v-4zM31.998 24h-24v4h24v-4zM31.998 14h-24v4h24v-4zM31.998 4h-24v4h24v-4z"></path>
</symbol>
<symbol id="icon-layers" viewBox="0 0 32 32">
<title>layers</title>
<path d="M32.047 9.047l-16 9-16-9 16-9zM16.047 22.062l-14.125-7.945-1.875 1.055 16 9 16-9-1.875-1.055zM16.047 27.992l-14.125-7.945-1.875 1.055 16 9 16-9-1.875-1.055z"></path>
</symbol>
<symbol id="icon-left-arrow-circled" viewBox="0 0 32 32">
<title>left-arrow-circled</title>
<path d="M16 0.4c-8.615 0-15.6 6.982-15.6 15.6 0 8.615 6.984 15.6 15.6 15.6 8.617 0 15.6-6.984 15.6-15.6 0-8.617-6.982-15.6-15.6-15.6zM16 29.199c-7.279 0-13.199-5.92-13.199-13.199s5.92-13.2 13.199-13.2 13.199 5.921 13.199 13.2-5.92 13.199-13.199 13.199zM26 14v4h-13.162l6.25 6h-5.105c-2.92-3-7.982-8-7.982-8s5.109-5.105 8.021-8h5.055l-6.238 6h13.162z"></path>
</symbol>
<symbol id="icon-left-arrow" viewBox="0 0 32 32">
<title>left-arrow</title>
<path d="M10.070 12l10.002-10h-7.072l-13 13 13 13h7.070l-10-10h21.93v-6z"></path>
</symbol>
<symbol id="icon-left-triangle-arrow" viewBox="0 0 32 32">
<title>left-triangle-arrow</title>
<path d="M22 30l-14-14 14-14v28z"></path>
</symbol>
<symbol id="icon-left" viewBox="0 0 32 32">
<title>left</title>
<path d="M25 28h-5l-12-12 12-12h5l-12 12 12 12z"></path>
</symbol>
<symbol id="icon-line-chart" viewBox="0 0 32 32">
<title>line-chart</title>
<path d="M4 26v-22h-2v24h28v-2zM10 17.8c1.019 0 1.94-0.407 2.623-1.060l3.733 2.24c-0.094 0.304-0.15 0.654-0.156 1.017-0 2.102 1.701 3.803 3.8 3.803s3.8-1.701 3.8-3.8c-0.004-1.198-0.564-2.264-1.436-2.954l3.117-7.298c0.171 0.024 0.341 0.052 0.518 0.052 2.099 0 3.8-1.701 3.8-3.8s-1.701-3.8-3.8-3.8c-2.099 0-3.8 1.701-3.8 3.8 0 1.204 0.571 2.263 1.444 2.96l-3.125 7.292c-0.171-0.024-0.341-0.052-0.518-0.052-1.019 0-1.94 0.407-2.623 1.060l-3.733-2.24c0.094-0.304 0.15-0.654 0.156-1.017 0-2.102-1.701-3.803-3.8-3.803s-3.8 1.701-3.8 3.8c0 2.099 1.701 3.8 3.8 3.8z"></path>
</symbol>
<symbol id="icon-link-external" viewBox="0 0 32 32">
<title>link-external</title>
<path d="M26 30h-24v-24h14v-2h-16v28h28v-14h-2zM21 8c-8.285 0-15 6.717-15 15 0 0.336 0.029 0.668 0.051 1h4c-0.030-0.296-0.048-0.644-0.051-0.996-0-6.069 4.936-11.004 11-11.004h3.004l-6 6h4l7.996-8-7.996-8h-4l6 6h-3.004z"></path>
</symbol>
<symbol id="icon-link" viewBox="0 0 32 32">
<title>link</title>
<path d="M28.633 17.945l-4.118-4.426c0.076 1.131-0.034 2.262-0.355 3.241l2.83 2.827c0.953 0.955 1.542 2.274 1.542 3.73s-0.589 2.774-1.542 3.73c-0.946 0.951-2.256 1.54-3.703 1.54-0.007 0-0.014 0-0.021-0-0.005 0-0.012 0-0.020 0-1.449 0-2.76-0.59-3.707-1.542l-5.459-5.459c-0.952-0.954-1.541-2.271-1.541-3.726s0.589-2.772 1.541-3.726c0.607-0.609 1.361-1.048 2.1-1.229-0.078-0.158-0.172-0.294-0.28-0.416l-1.342-1.459c-0.845 0.404-1.54 0.881-2.12 1.461-1.373 1.368-2.223 3.261-2.223 5.352 0 0.007 0 0.013 0 0.020 0 2.026 0.791 3.933 2.223 5.365l5.459 5.459c1.367 1.374 3.259 2.225 5.35 2.225 0.007 0 0.015 0 0.022-0 0.003 0 0.009 0 0.015 0 2.091 0 3.983-0.85 5.35-2.223 2.962-2.962 2.962-7.782 0-10.745zM8.711 3.497c0.006-0 0.013-0 0.020-0 1.448 0 2.759 0.589 3.706 1.54l5.459 5.457c0.952 0.955 1.54 2.272 1.54 3.727s-0.589 2.772-1.541 3.727c-0.605 0.605-1.356 1.043-2.105 1.222 0.086 0.154 0.166 0.301 0.287 0.421l1.422 1.422c0.808-0.394 1.476-0.862 2.039-1.422 2.96-2.962 2.96-7.777 0-10.74l-5.459-5.457c-1.434-1.435-3.342-2.225-5.369-2.225s-3.934 0.791-5.369 2.225c-1.434 1.434-2.225 3.342-2.225 5.369s0.791 3.934 2.225 5.369l4.118 4.428c-0.076-1.131 0.034-2.262 0.355-3.239l-2.83-2.833c-0.994-0.991-1.542-2.316-1.542-3.726s0.548-2.732 1.542-3.726c0.947-0.951 2.258-1.54 3.706-1.54 0.007 0 0.014 0 0.021 0z"></path>
</symbol>
<symbol id="icon-loading-indicator" viewBox="0 0 32 32">
<title>loading-indicator</title>
<path d="M27.518 8.338c0.324 0.37 0.772 0.94 1.261 1.727 1.25 2.008 1.991 4.445 1.991 7.056 0 0.125-0.002 0.249-0.005 0.373-0.019 3.225-1.41 7.167-4.559 10.063-3.085 2.902-7.94 4.492-12.611 3.566-4.697-0.832-8.864-4.161-10.853-8.38-2.043-4.23-1.863-9.035-0.373-12.647 1.463-3.672 4.051-6.090 6.098-7.421 2.084-1.338 3.625-1.785 3.922-1.872 1.234-0.356 2.457-0.18 3.282 0.309 0.839 0.511 1.281 1.259 1.276 2.105-0.079 1.717-1.406 3.039-2.86 3.478-0.19 0.051-1.158 0.258-2.564 0.99-1.909 1.039-3.428 2.587-4.402 4.463-1.244 2.377-1.726 5.731-0.532 8.931 1.158 3.185 4.042 6.059 7.693 7.058 3.629 1.078 7.773 0.199 10.671-2.060 2.944-2.244 4.563-5.648 4.855-8.66 0.369-3.046-0.465-5.615-1.261-7.222-0.347-0.697-0.707-1.291-1.111-1.851l-0.423-0.562 0.504 0.559z"></path>
</symbol>
<symbol id="icon-locate" viewBox="0 0 32 32">
<title>locate</title>
<path d="M16.047 0.447c-8.615 0-15.6 6.983-15.6 15.6s6.984 15.6 15.6 15.6c8.617 0 15.6-6.983 15.6-15.6s-6.982-15.6-15.6-15.6zM18 29.079v-5.032h-3.953v5.032c-5.676-0.869-10.164-5.357-11.031-11.032l4.984-0.047v-3.953h-4.984c0.867-5.676 5.355-10.163 11.031-11.032v4.985h3.953v-4.985c5.676 0.869 10.209 5.356 11.078 11.032h-5.031l-0.047 3.953h5.078c-0.869 5.676-5.402 10.21-11.078 11.079z"></path>
</symbol>
<symbol id="icon-locked" viewBox="0 0 32 32">
<title>locked</title>
<path d="M26 14h-20c-1.1 0-2 0.9-2 2v14c0 1.1 0.9 2 2 2h20c1.1 0 2-0.9 2-2v-14c0-1.1-0.9-2-2-2zM26 30h-20v-14h20v14zM12 10c0-2.205 1.794-4 4-4s4 1.795 4 4v4h2v-4c0-3.309-2.691-6-6-6s-6 2.691-6 6v4h2v-4zM8 10c0-4.4 3.6-8 8-8s8 3.6 8 8v4h2v-4c0-5.514-4.486-10-10-10s-10 4.486-10 10v4h2v-4zM18 22v-2h-2v-2h-2v10h2v-2h2v-2h-2v-2z"></path>
</symbol>
<symbol id="icon-map-pin" viewBox="0 0 32 32">
<title>map-pin</title>
<path d="M15.999 0c-4.785 0-7.999 1.805-7.999 6.5v17l7.999 8.5 8.001-8.5v-17c0-4.695-3.214-6.5-8.001-6.5zM16 14.402c-2.43-0.001-4.399-1.97-4.399-4.4 0-0.001 0-0.001 0-0.002-0.001-0.028-0.001-0.061-0.001-0.094 0-2.43 1.97-4.4 4.4-4.4s4.4 1.97 4.4 4.4c0 0.033-0 0.066-0.001 0.099 0-0.004 0-0.004 0-0.003 0 2.43-1.969 4.399-4.399 4.4z"></path>
</symbol>
<symbol id="icon-maps" viewBox="0 0 32 32">
<title>maps</title>
<path d="M0 0v32h32v-32h-32zM17.028 11.947l0.022 0.106c0.175 0.863 0.272 1.669-0.461 2.066-0.52 0.281-0.792 0.766-1.013 1.156-0.28 0.497-0.414 0.684-0.715 0.684-0.159 0-0.284-0.084-0.487-0.241-0.249-0.191-0.559-0.425-1.030-0.425-0.692 0-1.255 0.606-1.255 1.35 0 0.475-0.421 1.353-1.021 1.353-0.491 0-0.652-0.172-0.763-0.369-0.297-0.531-0.666-1.194-1.512-1.194-0.849 0-1.541 0.734-1.541 1.634 0 0.288 0.059 0.509 0.11 0.703 0.044 0.166 0.083 0.309 0.083 0.478 0 0.244-0.102 0.428-0.23 0.666-0.152 0.278-0.339 0.622-0.339 1.091 0 0.612 0.562 1.112 1.255 1.112 0.392 0 0.653-0.103 0.863-0.184 0.195-0.078 0.332-0.125 0.559-0.103 0.104 0.009 0.212 0.3 0.212 0.5 0 0.322-0.275 0.597-0.591 0.912-0.514 0.513-1.219 1.213-0.638 2.369 0.22 0.444 0.758 0.569 1.277 0.691 0.24 0.056 0.416 0.094 0.559 0.131 0 0 0.256 0.339 0.32 0.536-0.003 0.024-0.005 0.052-0.005 0.081 0 0.053 0.007 0.104 0.019 0.153-0.007 0.186-0.070 0.361-0.173 0.504-0.251 0.378-0.546 0.594-0.86 0.822-0.623 0.456-1.141 0.534-1.156 1.469h-6.517v-28h21.479c0.030 0.578-0.902 1.219-0.902 1.219l-0.98 0.581c-1.054 0.672-2.254 1.703-2.254 2.559 0 0.378 0.15 0.647 0.269 0.859 0.1 0.178 0.157 0.284 0.157 0.419 0 0.191-0.126 0.316-0.411 0.559-0.248 0.216-0.533 0.453-0.662 0.841-0.043 0.131-0.064 0.263-0.064 0.4s0.029 0.306 0.063 0.488c0.028 0.153 0.089 0.472 0.042 0.547 0 0-0.055 0.041-0.259 0.041l-0.173-0.006c-0.371 0-0.75 0.303-0.981 0.581-0.171 0.206-0.362 0.528-0.297 0.859zM30 30h-9.231c-0.206-1.22-1.348-1.258-2.167-1.556-0.288-0.106-0.584-0.212-0.858-0.353-0.354-0.184-0.35-0.586-0.295-0.891 0 0 0.102-0.303 0.091-0.369l0.002-0.003-0.002-0.002c-0.005-0.034-0.012-0.066-0.012-0.109 0-0.23 0.212-0.339 0.698-0.573 0.508-0.248 1.201-0.576 1.201-1.391 0-0.292-0.129-0.488-0.216-0.619-0.054-0.081-0.070-0.109-0.070-0.133 0-0.172 0.067-0.286 0.331-0.524 0.283-0.253 0.628-0.6 0.628-1.191v-0.928c0-0.094 0.269-0.197 0.605-0.031 0.166 0.078 0.411 0.188 0.715 0.188 0.673 0 1.039-0.494 1.299-0.853 0.241-0.331 0.332-0.516 0.566-0.478 0.234 0.041 0.148 0.050 0.324 0.409 0.121 0.25 0.261 0.537 0.52 0.763 0.454 0.397 0.979 0.528 1.506 0.569 0.305 0.054 0.657 0.085 1.016 0.085 0.346 0 0.685-0.029 1.016-0.084l0.132-0.023c0.232-0.046 0.498-0.072 0.771-0.072 0.074 0 0.148 0.002 0.221 0.006s0.079 0.022 0.127 0.006c0.39 0.044 0.719 0.176 0.981 0.458l0.1 0.248c0.003 0.005-0.003 0.009 0 0.014v7.437z"></path>
</symbol>
<symbol id="icon-marketplace" viewBox="0 0 32 32">
<title>marketplace</title>
<path d="M26 10h-3.994c-0.010-1.931-0.038-3.661-0.107-4-0.481-2.299-2.492-4-4.899-4-2.761 0-5 2.239-5 5 0 0 0 0 0 0v3h-4l-4 22h26l-4-22zM14 9.99v-2.99c0-1.654 1.346-3 3-3s3 1.346 3 3v3h-6v-0.010z"></path>
</symbol>
<symbol id="icon-maximize" viewBox="0 0 32 32">
<title>maximize</title>
<path d="M2 4v24h28v-24h-28zM28 26h-24v-16h24v16z"></path>
</symbol>
<symbol id="icon-media" viewBox="0 0 32 32">
<title>media</title>
<path d="M21.5 12c-1.313-0.109-3.406 4.176-4.5 3.848-0.535-0.16-0.803-1.262-3-4-1.166-1.453-1.75-2-3.271 0.223-0.998 1.457-5.291 4.398-5.854 4.652-0.21 0.095-0.507-0.003-0.875-0.078v3.356h20v-4.627c-0.948-1.663-1.704-3.306-2.5-3.373zM22 9c0 1.657-1.343 3-3 3s-3-1.343-3-3c0-1.657 1.343-3 3-3s3 1.343 3 3zM28 6v-4h-28v22h4v4h28v-22h-4zM2 22v-18h24v18h-24zM30 26h-24v-2h22v-16h2v18z"></path>
</symbol>
<symbol id="icon-media2" viewBox="0 0 32 32">
<title>media2</title>
<path d="M30 6h-2v14h-10v6h4v4h-12v-4h4v-6h-10v-14h-2v-4h28v4zM24 16v-10h-16v10h16z"></path>
</symbol>
<symbol id="icon-menu" viewBox="0 0 32 32">
<title>menu</title>
<path d="M28 3.5c0 1.381-1.119 2.5-2.5 2.5h-21c-1.381 0-2.5-1.119-2.5-2.5v-1c0-1.381 1.119-2.5 2.5-2.5h21c1.381 0 2.5 1.119 2.5 2.5v1zM28 14.5c0-1.381-1.119-2.5-2.5-2.5h-21c-1.381 0-2.5 1.119-2.5 2.5v1c0 1.381 1.119 2.5 2.5 2.5h21c1.381 0 2.5-1.119 2.5-2.5v-1zM28 26.5c0-1.381-1.119-2.5-2.5-2.5h-21c-1.381 0-2.5 1.119-2.5 2.5v1c0 1.381 1.119 2.5 2.5 2.5h21c1.381 0 2.5-1.119 2.5-2.5v-1z"></path>
</symbol>
<symbol id="icon-minimize" viewBox="0 0 32 32">
<title>minimize</title>
<path d="M32 2h-22v8h-10v20h22v-8h10v-20zM20 28h-18v-14h18v14zM30 20h-8v-10h-10v-4h18v14z"></path>
</symbol>
<symbol id="icon-minus-circled" viewBox="0 0 32 32">
<title>minus-circled</title>
<path d="M16.047 0.447c-8.615 0-15.6 6.982-15.6 15.6 0 8.615 6.984 15.599 15.6 15.599 8.617 0 15.6-6.984 15.6-15.599 0-8.617-6.982-15.6-15.6-15.6zM16.047 29.246c-7.279 0-13.199-5.92-13.199-13.199s5.92-13.2 13.199-13.2 13.199 5.921 13.199 13.2-5.92 13.199-13.199 13.199zM6 14h20v4h-20v-4z"></path>
</symbol>
<symbol id="icon-minus" viewBox="0 0 32 32">
<title>minus</title>
<path d="M30 18h-28v-4h28v4z"></path>
</symbol>
<symbol id="icon-mobile" viewBox="0 0 32 32">
<title>mobile</title>
<path d="M22 0h-13.967c-1.123 0-2.033 0.944-2.033 2.11v27.783c0 1.163 0.911 2.108 2.033 2.108h13.967c1.122 0 2-0.944 2-2.108v-27.783c0-1.166-0.878-2.11-2-2.11zM15 30.695c-0.937 0-1.694-0.759-1.694-1.696s0.758-1.694 1.694-1.694c0.936 0 1.695 0.759 1.695 1.695s-0.759 1.695-1.695 1.695zM22 26h-14v-22h14v22z"></path>
</symbol>
<symbol id="icon-navigation" viewBox="0 0 32 32">
<title>navigation</title>
<path d="M13.334 18.667l2.666 13.333 16-32-32 16z"></path>
</symbol>
<symbol id="icon-notice-round" viewBox="0 0 32 32">
<title>notice-round</title>
<path d="M14 9.2c0-0.663 0.537-1.2 1.2-1.2h1.6c0.663 0 1.2 0.537 1.2 1.2v7.6c0 0.663-0.537 1.2-1.2 1.2h-1.6c-0.663 0-1.2-0.537-1.2-1.2v-7.6zM18 21.199c-0.001-0.662-0.537-1.198-1.199-1.199h-1.602c-0.662 0.001-1.198 0.537-1.199 1.199v1.602c0.001 0.662 0.537 1.198 1.199 1.199h1.602c0.662-0.001 1.198-0.537 1.199-1.199v-1.602zM31.6 16c0 8.615-6.982 15.6-15.6 15.6-8.615 0-15.6-6.984-15.6-15.6s6.984-15.6 15.6-15.6c8.617 0 15.6 6.984 15.6 15.6zM29.199 16c0-7.279-5.92-13.201-13.199-13.201s-13.199 5.922-13.199 13.201 5.92 13.199 13.199 13.199 13.199-5.92 13.199-13.199z"></path>
</symbol>
<symbol id="icon-notice-triangle" viewBox="0 0 32 32">
<title>notice-triangle</title>
<path d="M28.764 30c1.105-0 2-0.895 2-2 0-0.326-0.078-0.634-0.216-0.905l-12.757-25.516c-0.336-0.661-1.010-1.106-1.789-1.106s-1.453 0.445-1.784 1.095l-12.771 25.538c-0.133 0.26-0.211 0.568-0.211 0.894 0 0.389 0.111 0.753 0.304 1.060 0.358 0.582 1.003 0.941 1.696 0.941h25.527zM3.236 28l12.766-25.527 12.762 25.527h-25.527zM14 11.2c0-0.663 0.537-1.2 1.2-1.2h1.6c0.663 0 1.2 0.537 1.2 1.2v7.6c0 0.663-0.537 1.2-1.2 1.2h-1.6c-0.663 0-1.2-0.537-1.2-1.2v-7.6zM18 24.801c-0.001 0.662-0.537 1.198-1.199 1.199h-1.602c-0.662-0.001-1.198-0.537-1.199-1.199v-1.602c0.001-0.662 0.537-1.198 1.199-1.199h1.602c0.662 0.001 1.198 0.537 1.199 1.199v1.602z"></path>
</symbol>
<symbol id="icon-organization" viewBox="0 0 32 32">
<title>organization</title>
<path d="M30 28v-24h-12v-2h-12v2h-4v24h-2v2h14v-6h4v6h14v-2h-2zM10 20h-4v-4h4v4zM10 12h-4v-4h4v4zM18 20h-4v-4h4v4zM18 12h-4v-4h4v4zM26 20h-4v-4h4v4zM26 12h-4v-4h4v4z"></path>
</symbol>
<symbol id="icon-overview-arrow-bottom-left" viewBox="0 0 32 32">
<title>overview-arrow-bottom-left</title>
<path d="M26.828 12l-6.828-6.828-8 8-8-8v22.828h22.828l-8-8 8-8z"></path>
</symbol>
<symbol id="icon-overview-arrow-bottom-right" viewBox="0 0 32 32">
<title>overview-arrow-bottom-right</title>
<path d="M20 13.172l-8-8-6.828 6.828 8 8-8 8h22.828v-22.828l-8 8z"></path>
</symbol>
<symbol id="icon-overview-arrow-top-left" viewBox="0 0 32 32">
<title>overview-arrow-top-left</title>
<path d="M26.828 4h-22.828v22.828l8-8 8 8 6.828-6.828-8-8 8-8z"></path>
</symbol>
<symbol id="icon-overview-arrow-top-right" viewBox="0 0 32 32">
<title>overview-arrow-top-right</title>
<path d="M5.172 4l8 8-8 8 6.828 6.828 8-8 8 8v-22.828h-22.828z"></path>
</symbol>
<symbol id="icon-pan" viewBox="0 0 32 32">
<title>pan</title>
<path d="M32.047 16.047l-6-6v4h-8.047v-8.047h4l-5.953-5.953-6 5.953h4v8.047h-8.047v-4l-5.953 6 5.953 6v-4.047h8.047v8.047h-4l6 6 6-6h-4.047v-8.047h8.047v4.047z"></path>
</symbol>
<symbol id="icon-pause" viewBox="0 0 32 32">
<title>pause</title>
<path d="M26 4v24h-6v-24h6zM6 28h6v-24h-6v24z"></path>
</symbol>
<symbol id="icon-phone" viewBox="0 0 32 32">
<title>phone</title>
<path d="M10.521 0.216c-2.295 1.736-4.113 3.983-5.302 6.579 1.569 4.439 3.541 8.699 5.929 12.836s5.092 7.974 8.037 11.537c2.82 0.286 5.727-0.121 8.463-1.287 0.385-0.165 0.65-0.54 0.65-0.978 0-0.275-0.105-0.525-0.276-0.713-1.421-1.572-2.831-3.275-4.168-5.038-0.332-0.449-0.637-0.614-0.981-0.614-0.238 0-0.458 0.079-0.634 0.213l-1.593 1.206c-0.166 0.127-0.377 0.203-0.605 0.203-0.369 0-0.692-0.2-0.865-0.497l-7.505-12.999c-0.084-0.144-0.134-0.317-0.134-0.501 0-0.413 0.249-0.767 0.606-0.921l1.851-0.78c0.538-0.227 0.782-0.845 0.553-1.382-0.701-1.56-1.506-3.661-2.219-5.805-0.297-0.971-0.695-1.277-1.165-1.277-0.242 0-0.466 0.081-0.644 0.218z"></path>
</symbol>
<symbol id="icon-pie-chart" viewBox="0 0 32 32">
<title>pie-chart</title>
<path d="M15.709 30.889c-0.001 0-0.003 0-0.005 0-6.523 0-12.066-4.192-14.084-10.028-0.524-1.524-0.809-3.161-0.809-4.864 0-3.701 1.345-7.089 3.573-9.7l9.643 10.878 5.733 13.148c-1.214 0.358-2.609 0.564-4.052 0.564zM7.405 3.611c1.016-0.694 2.184-1.285 3.427-1.715 1.526-0.531 3.166-0.82 4.874-0.82 3.551 0 6.974 1.264 9.677 3.568l-9.522 8.486-8.455-9.52zM20.065 20.912l7.334 4.295c-1.091 1.38-2.389 2.538-3.859 3.445l-3.475-7.741zM19.135 15.654l8.949-7.971c1.583 2.323 2.528 5.192 2.528 8.281 0 2.072-0.425 4.045-1.193 5.836l-10.284-6.148z"></path>
</symbol>
<symbol id="icon-play" viewBox="0 0 32 32">
<title>play</title>
<path d="M6 0l22 16.002-22 15.998v-32z"></path>
</symbol>
<symbol id="icon-plus-circled" viewBox="0 0 32 32">
<title>plus-circled</title>
<path d="M16.047 0.447c-8.615 0-15.6 6.982-15.6 15.6 0 8.615 6.984 15.599 15.6 15.599 8.617 0 15.6-6.984 15.6-15.599 0-8.617-6.982-15.6-15.6-15.6zM16.047 29.246c-7.279 0-13.199-5.92-13.199-13.199s5.92-13.2 13.199-13.2 13.199 5.921 13.199 13.2-5.92 13.199-13.199 13.199zM18 14v-8h-4v8h-8v4h8v8h4v-8h8v-4z"></path>
</symbol>
<symbol id="icon-plus" viewBox="0 0 32 32">
<title>plus</title>
<path d="M30 18h-12v12h-4v-12h-12v-4h12v-12h4v12h12v4z"></path>
</symbol>
<symbol id="icon-printer" viewBox="0 0 32 32">
<title>printer</title>
<path d="M6 18v14h20v-14h-20zM22 28h-12v-6h12v6zM6 0v14h20v-14h-20zM22 10h-12v-6h12v6zM0 10v16h10v-4h-6v-8h24v8h-4v4h8v-16z"></path>
</symbol>
<symbol id="icon-question" viewBox="0 0 32 32">
<title>question</title>
<path d="M16 0c-8.838 0-16 7.162-16 16s7.162 16 16 16c8.838 0 16-7.162 16-16s-7.162-16-16-16zM18 28h-4v-4h4v4zM19.164 15.609c-1.377 1.309-1.164 1.242-1.164 2.941v1.449h-4.211v-1.449c0-1.766 0.99-2.508 2.086-3.477 0.303-0.27 0.625-0.559 0.957-0.887l0.586-0.555c1.148-1.148 2.23-2.227 2.23-3.91 0-1.973-1.238-3.246-3.156-3.246-1.664 0-2.477 0.773-2.898 2.758l-0.156 0.766h-3.438l0.078-1.055c0.426-3.137 2.775-4.945 6.445-4.945 3.625 0 5.969 2.211 5.969 5.633 0 2.66-1.441 4.219-3.328 5.977z"></path>
</symbol>
<symbol id="icon-radio-checked" viewBox="0 0 32 32">
<title>radio-checked</title>
<path d="M21.6 16c0 3.088-2.512 5.6-5.6 5.6s-5.6-2.512-5.6-5.6 2.512-5.6 5.6-5.6c3.088 0 5.6 2.512 5.6 5.6zM29.2 16c0 7.287-5.91 13.199-13.2 13.199s-13.2-5.912-13.2-13.199c0-7.293 5.91-13.2 13.2-13.2s13.2 5.907 13.2 13.2zM26.477 16c0-5.777-4.7-10.477-10.477-10.477s-10.477 4.699-10.477 10.477c0 5.773 4.7 10.477 10.477 10.477s10.477-4.703 10.477-10.477z"></path>
</symbol>
<symbol id="icon-radio-unchecked" viewBox="0 0 32 32">
<title>radio-unchecked</title>
<path d="M16 2.8c-7.29 0-13.2 5.907-13.2 13.2 0 7.287 5.91 13.199 13.2 13.199s13.2-5.912 13.2-13.199c0-7.293-5.91-13.2-13.2-13.2zM16 26.477c-5.776 0-10.477-4.703-10.477-10.477 0-5.777 4.7-10.477 10.477-10.477s10.477 4.699 10.477 10.477c0 5.773-4.7 10.477-10.477 10.477z"></path>
</symbol>
<symbol id="icon-refresh" viewBox="0 0 32 32">
<title>refresh</title>
<path d="M30 0v14h-14v-3h9.080c-1.771-3-5.162-5.4-9.080-5.4-3.535 0-6.633 1.797-8.51 4.502l-3.768-0.801c2.371-4.348 6.975-7.301 12.277-7.301 4.471 0 8.441 2.104 11 5.367v-7.367h3zM16 26.4c-3.918 0-7.309-2.4-9.080-5.4h9.080v-3h-14v14h3v-7.369c2.559 3.266 6.529 5.369 11 5.369 5.303 0 9.906-2.953 12.277-7.301l-3.768-0.801c-1.877 2.705-4.975 4.502-8.51 4.502z"></path>
</symbol>
<symbol id="icon-resend-invitation" viewBox="0 0 32 32">
<title>resend-invitation</title>
<path d="M24 8h-16v-2h16v2zM22 12v-2h-12v2h12zM2 2h28v12h2v-14h-32v20h12v-2h-10v-16zM32 23c0-4.963-4.037-9-9-9s-9 4.037-9 9c0 2.402 0.936 4.663 2.637 6.364l0.141 0.142 1.84-1.841-0.143-0.142c-1.158-1.152-1.875-2.748-1.875-4.51 0-0.005 0-0.009 0-0.014 0-3.529 2.871-6.4 6.4-6.4s6.4 2.871 6.4 6.401c0 1.72-0.703 3.322-1.898 4.502l-3.502-3.502v8h8l-2.666-2.666c1.662-1.652 2.666-3.913 2.666-6.334z"></path>
</symbol>
<symbol id="icon-reverse" viewBox="0 0 32 32">
<title>reverse</title>
<path d="M18 6v20l-14-9.998 14-10.002zM26 6h-4v20h4v-20z"></path>
</symbol>
<symbol id="icon-review" viewBox="0 0 32 32">
<title>review</title>
<path d="M28 22h-7.281c-0.297-0.223-0.641-0.408-1.010-0.537 0.174-0.484 0.329-0.972 0.463-1.463h7.828v2zM28 16h-7.475c0.057 0.666 0.068 1.333 0.008 2h7.467v-2zM28 12h-8.549c0.307 0.646 0.543 1.315 0.725 2h7.824v-2zM32 7.199v18.801h-7.18l-1.998-2h7.178v-14h-8v-8h-8v4.581c-0.561-0.277-1.225-0.532-1.914-0.728l-0.086-5.853h12.801l7.199 7.199zM30 7.381l-5.379-5.381h-0.621v6h6v-0.619zM23.641 30.214l-1.43 1.43c-0.183 0.184-0.437 0.298-0.717 0.298s-0.534-0.114-0.717-0.298l-4.41-4.407c-0.181-0.183-0.293-0.434-0.293-0.712 0-0.267 0.104-0.511 0.273-0.692l-1.929-1.929 0.023-0.024-0.002-0.003c-3.459 2.74-8.477 2.55-11.672-0.644-1.547-1.586-2.501-3.756-2.501-6.15 0-4.867 3.945-8.812 8.812-8.812 2.393 0 4.563 0.954 6.151 2.502 3.207 3.207 3.381 8.25 0.607 11.71l0.010-0.011 1.926 1.925 0.025-0.027c0.184-0.183 0.437-0.296 0.717-0.296s0.533 0.113 0.717 0.296l4.406 4.41c0.184 0.183 0.298 0.437 0.298 0.717s-0.114 0.534-0.298 0.717zM13.414 12.59c-1.13-1.13-2.69-1.829-4.415-1.829-1.723 0-3.282 0.698-4.412 1.826-1.129 1.13-1.827 2.69-1.827 4.413s0.698 3.284 1.828 4.414c2.436 2.438 6.389 2.438 8.826-0s2.436-6.39 0-8.824z"></path>
</symbol>
<symbol id="icon-right-arrow-circled" viewBox="0 0 32 32">
<title>right-arrow-circled</title>
<path d="M16 0.4c-8.615 0-15.6 6.982-15.6 15.6 0 8.615 6.984 15.6 15.6 15.6 8.617 0 15.6-6.984 15.6-15.6 0-8.617-6.982-15.6-15.6-15.6zM16 29.199c-7.279 0-13.199-5.92-13.199-13.199s5.92-13.2 13.199-13.2 13.199 5.921 13.199 13.2-5.92 13.199-13.199 13.199zM26 16.002s-5.109 4.998-8.021 7.998h-5.055l6.238-6h-13.162v-4h13.162l-6.25-6h5.105c2.92 2.916 7.982 8.002 7.982 8.002z"></path>
</symbol>
<symbol id="icon-right-arrow" viewBox="0 0 32 32">
<title>right-arrow</title>
<path d="M21.93 12l-10.002-10h7.072l13 13-13 13h-7.070l10-10h-21.93v-6z"></path>
</symbol>
<symbol id="icon-right-triangle-arrow" viewBox="0 0 32 32">
<title>right-triangle-arrow</title>
<path d="M10 2l14 14-14 14v-28z"></path>
</symbol>
<symbol id="icon-right" viewBox="0 0 32 32">
<title>right</title>
<path d="M7 4h5l12 12-12 12h-5l12-12-12-12z"></path>
</symbol>
<symbol id="icon-rotate" viewBox="0 0 32 32">
<title>rotate</title>
<path d="M14 14h4v4h-4v-4zM26.514 28h-0.56c3.447-2.861 5.646-7.17 5.646-12 0-8.615-6.984-15.6-15.6-15.6s-15.6 6.984-15.6 15.6c0 4.309 1.746 8.207 4.568 11.031l2.748-2.748c-2.124-2.116-3.438-5.043-3.438-8.278 0-0.002 0-0.004 0-0.006 0-6.463 5.258-11.721 11.721-11.721s11.721 5.258 11.721 11.721c0 3.363-1.443 6.377-3.721 8.514v-4.514h-4v12h12v-4h-5.486z"></path>
</symbol>
<symbol id="icon-save" viewBox="0 0 32 32">
<title>save</title>
<path d="M27.672 2h-23.332c-0.001 0-0.003 0-0.004 0-1.287 0-2.33 1.043-2.33 2.33v18.67c0 0.615 0.242 1.213 0.684 1.65l4.666 4.666c0.422 0.422 1.006 0.684 1.65 0.684h18.666c0.001 0 0.002 0 0.003 0 1.287 0 2.331-1.044 2.331-2.331 0-0.001 0-0.002 0-0.003v-23.336c0 0 0 0 0 0 0-1.287-1.043-2.33-2.33-2.33-0.001 0-0.003 0-0.004 0zM16.006 28h-6v-6h6v6zM26.006 28h-2v-8h-16v7.111l-2-1.775v-5.002c0-0.001 0-0.002 0-0.003 0-1.287 1.044-2.331 2.331-2.331 0.001 0 0.002 0 0.003 0h15.332c0.001 0 0.002 0 0.003 0 1.287 0 2.331 1.044 2.331 2.331 0 0.001 0 0.002 0 0.003v7.666zM26.006 14h-20v-10h20v10z"></path>
</symbol>
<symbol id="icon-search" viewBox="0 0 32 32">
<title>search</title>
<path d="M31.607 27.838l-6.133-6.137c-0.242-0.241-0.575-0.39-0.944-0.39s-0.702 0.149-0.944 0.39l-0.035 0.035-2.533-2.533-0.014 0.014c3.652-4.556 3.422-11.195-0.803-15.42-4.529-4.527-11.875-4.531-16.404 0-4.531 4.531-4.529 11.875 0 16.406 4.205 4.204 10.811 4.455 15.365 0.848l0.004 0.003-0.033 0.033 2.541 2.54c-0.224 0.237-0.361 0.558-0.361 0.911 0 0.366 0.147 0.697 0.386 0.937l6.135 6.133c0.241 0.242 0.575 0.393 0.944 0.393s0.703-0.15 0.943-0.393l1.885-1.883c0.242-0.241 0.392-0.575 0.392-0.944s-0.15-0.702-0.392-0.943zM17.811 17.809c-1.486 1.487-3.541 2.408-5.809 2.408s-4.323-0.92-5.809-2.407c-1.487-1.487-2.407-3.542-2.407-5.811s0.92-4.324 2.407-5.811c1.487-1.485 3.54-2.403 5.808-2.403 2.27 0 4.324 0.92 5.811 2.407s2.406 3.54 2.406 5.809-0.919 4.322-2.406 5.809z"></path>
</symbol>
<symbol id="icon-settings" viewBox="0 0 32 32">
<title>settings</title>
<path d="M28.199 14.818l3.385-2.318-0.883-2.717-4.1 0.113-1.445-1.986 1.375-3.865-2.31-1.678-3.25 2.5-2.336-0.758-1.16-3.934h-2.855l-1.16 3.934-2.336 0.758-3.25-2.5-2.31 1.678 1.375 3.865-1.445 1.986-4.1-0.113-0.883 2.717 3.383 2.318v2.457l-3.383 2.318 0.883 2.717 4.1-0.113 1.445 1.986-1.375 3.865 2.31 1.678 3.25-2.5 2.336 0.758 1.16 3.934h2.855l1.16-3.934 2.336-0.758 3.25 2.5 2.31-1.678-1.375-3.865 1.445-1.986 4.1 0.113 0.883-2.717-3.385-2.318v-2.457zM16.047 21.848c-3.158-0.061-5.694-2.635-5.694-5.801s2.537-5.741 5.689-5.801c3.163 0.060 5.7 2.634 5.7 5.801s-2.537 5.741-5.689 5.801z"></path>
</symbol>
<symbol id="icon-settings2" viewBox="0 0 32 32">
<title>settings2</title>
<path d="M19.086 10.254l2.961-2.674-0.771-1.859-3.984 0.203-1.121-1.121 0.203-3.984-1.859-0.772-2.674 2.961h-1.586l-2.674-2.961-1.859 0.772 0.203 3.984-1.121 1.121-3.986-0.203-0.77 1.859 2.961 2.674v1.586l-2.961 2.674 0.77 1.859 3.986-0.203 1.121 1.121-0.203 3.984 1.859 0.771 2.674-2.961h1.586l2.674 2.961 1.859-0.771-0.203-3.984 1.121-1.121 3.984 0.203 0.771-1.859-2.961-2.674v-1.586zM11.047 14.848c-2.098 0-3.801-1.703-3.801-3.801s1.703-3.801 3.801-3.801 3.801 1.703 3.801 3.801-1.703 3.801-3.801 3.801zM27.348 23.125l-0.484-0.842 0.313-2.883-1.303-0.754-2.34 1.713h-0.973l-2.34-1.713-1.303 0.754 0.312 2.883-0.486 0.842-2.652 1.17v1.504l2.652 1.17 0.486 0.842-0.312 2.883 1.303 0.754 2.34-1.713h0.973l2.34 1.713 1.303-0.754-0.313-2.883 0.484-0.842 2.654-1.17v-1.504l-2.654-1.17zM23.047 28.047c-1.624-0.043-2.924-1.37-2.924-3s1.3-2.957 2.92-3c1.628 0.043 2.928 1.37 2.928 3s-1.3 2.957-2.92 3z"></path>
</symbol>
<symbol id="icon-share" viewBox="0 0 32 32">
<title>share</title>
<path d="M22.791 10l-1.984 2.121 1.416 1.414 1.414-1.535h1.275l0.707 0.967-7.865 7.865c-0.501-0.339-1.089-0.593-1.722-0.724l-0.032-14.912h1l1 0.805v2h2v-2.805l-5-5.195-5 5.195v2.805h2v-2l1-0.805h1v14.906c-0.665 0.138-1.253 0.392-1.772 0.741l-7.847-7.876 0.707-0.967h1.275l1.414 1.535 1.414-1.414-1.982-2.121h-7.209v7.209l2.121 1.984 1.414-1.416-1.535-1.414v-1.275l0.967-0.707 7.865 7.865c-0.521 0.774-0.832 1.726-0.832 2.752 0 0.001 0 0.002 0 0.002 0 2.762 2.238 5 5 5s5-2.238 5-5c0-1.020-0.309-1.965-0.832-2.754l7.865-7.865 0.967 0.707v1.275l-1.535 1.414 1.414 1.416 2.121-1.984v-7.209h-7.209zM15 28c-1.624-0.043-2.924-1.37-2.924-3s1.3-2.957 2.92-3c1.628 0.043 2.928 1.37 2.928 3s-1.3 2.957-2.92 3z"></path>
</symbol>
<symbol id="icon-sign-out" viewBox="0 0 32 32">
<title>sign-out</title>
<path d="M32 0v32h-20v-14h4v10h12v-24h-12v8h-4v-12h20zM7.357 19.126l-3.242-3.126h19.885v-2h-19.885l3.242-3.126-0.874-0.874-5.003 5 5.003 5 0.874-0.874z"></path>
</symbol>
<symbol id="icon-sort-ascending" viewBox="0 0 32 32">
<title>sort-ascending</title>
<path d="M12 13h6v2h-6v-2zM12 19h10v-2h-10v2zM12 23h14v-2h-14v2zM12 25v2h18v-2h-18zM12 6l-5-5-5 5v2.8l4-4v26.2h2v-26.2l4 4v-2.8z"></path>
</symbol>
<symbol id="icon-sort-descending" viewBox="0 0 32 32">
<title>sort-descending</title>
<path d="M12 17h6v2h-6v-2zM12 15h10v-2h-10v2zM12 11h14v-2h-14v2zM12 5v2h18v-2h-18zM8 17.5v-16.5h-2v26.2l-4-4v2.8l5 5 5-5v-2.8l-4 4v-9.7z"></path>
</symbol>
<symbol id="icon-support" viewBox="0 0 32 32">
<title>support</title>
<path d="M7.101 12c-0.037-0.333-0.101-0.658-0.101-1 0-4.963 4.039-9 9.006-9 4.959 0 8.994 4.037 8.994 9s-4.035 9-8.994 9c-0.552 0-1 0.448-1 1s0.448 1 1 1c5.022 0 9.258-3.39 10.568-8h1.716c0.911 0 1.65-0.739 1.65-1.65v-2.7c0-0.911-0.739-1.65-1.65-1.65h-1.716c-1.31-4.609-5.546-8-10.568-8-6.068 0-11.006 4.936-11.006 11 0 0.338 0.021 0.67 0.051 1h2.051zM23 11c0-3.868-3.136-7-6.994-7-0.002 0-0.004 0-0.006 0-3.866 0-7 3.134-7 7s3.134 7 7 7c3.866 0 7-3.134 7-7zM31.666 30.848c-0.408-5.447-10.219-6.848-15.666-6.848-5.431 0-15.259 1.407-15.668 6.848l-0.083 1.152h31.5l-0.083-1.152z"></path>
</symbol>
<symbol id="icon-table" viewBox="0 0 32 32">
<title>table</title>
<path d="M2 2v26h30v-26h-30zM16 9.999h6v4.001h-6v-4.001zM16 16h6v4h-6v-4zM14 26h-10v-4h10v4zM14 20h-10v-4h10v4zM14 14h-10v-4.001h10v4.001zM16 26v-4h6v4h-6zM30 26h-6v-4h6v4zM30 20h-6v-4h6v4zM30 14h-6v-4.001h6v4.001z"></path>
</symbol>
<symbol id="icon-tag" viewBox="0 0 32 32">
<title>tag</title>
<path d="M24 22h-24v-12h24l8 6z"></path>
</symbol>
<symbol id="icon-time-clock" viewBox="0 0 32 32">
<title>time-clock</title>
<path d="M16.047 0.447c-8.615 0-15.6 6.982-15.6 15.6 0 8.615 6.984 15.599 15.6 15.599 8.617 0 15.6-6.984 15.6-15.599 0-8.617-6.982-15.6-15.6-15.6zM16.047 29.246c-7.279 0-13.199-5.92-13.199-13.199s5.92-13.2 13.199-13.2 13.199 5.921 13.199 13.2-5.92 13.199-13.199 13.199zM18 14v-8h-4v12h12v-4h-8z"></path>
</symbol>
<symbol id="icon-trash" viewBox="0 0 32 32">
<title>trash</title>
<path d="M20 2v-2h-10v2h-8v4h26v-4zM6 32h18l2-24h-22l2 24zM20 11c0-0.55 0.45-1 1-1s1 0.45 1 1v18c0 0.55-0.45 1-1 1s-1-0.45-1-1v-18zM14 11c0-0.55 0.45-1 1-1s1 0.45 1 1v18c0 0.55-0.45 1-1 1s-1-0.45-1-1v-18zM8 11c0-0.55 0.45-1 1-1s1 0.45 1 1v18c0 0.55-0.45 1-1 1s-1-0.45-1-1v-18z"></path>
</symbol>
<symbol id="icon-unlocked" viewBox="0 0 32 32">
<title>unlocked</title>
<path d="M22 14h-20c-1.1 0-2 0.9-2 2v14c0 1.1 0.9 2 2 2h20c1.1 0 2-0.9 2-2v-14c0-1.1-0.9-2-2-2zM22 30h-20v-14h20v14zM24 0c-4.418 0.001-7.999 3.582-7.999 8l-0.001 6h2v-6c0.044-3.28 2.713-5.923 6-5.923s5.956 2.642 5.999 5.918l0.001 0.004v2h-2v-2c0-2.209-1.791-4-4-4s-4 1.791-4 4v6h2v-6c0-1.105 0.896-2.001 2-2.001s2 0.896 2 2.001v4h5.999v-4c0-4.418-3.582-8-8-8zM14 22v-2h-2v-2h-2v10h2v-2h2v-2h-2v-2z"></path>
</symbol>
<symbol id="icon-up-arrow-circled" viewBox="0 0 32 32">
<title>up-arrow-circled</title>
<path d="M16.047 31.646c8.615 0 15.6-6.982 15.6-15.6 0-8.615-6.984-15.6-15.6-15.6-8.617 0-15.6 6.984-15.6 15.6 0 8.617 6.982 15.6 15.6 15.6zM16.047 2.848c7.279 0 13.199 5.92 13.199 13.199s-5.92 13.199-13.199 13.199-13.199-5.92-13.199-13.199 5.92-13.199 13.199-13.199zM14.047 12.885l-6.047 6.238v-5.055c2.895-2.912 8.047-8.022 8.047-8.022s4.953 5.063 7.953 7.982v5.106l-6-6.25v13.115h-3.953v-13.115z"></path>
</symbol>
<symbol id="icon-up-arrow" viewBox="0 0 32 32">
<title>up-arrow</title>
<path d="M2 24l14-14 14 14h-28z"></path>
</symbol>
<symbol id="icon-up-down-arrows" viewBox="0 0 32 32">
<title>up-down-arrows</title>
<path d="M10 19.41l4-4v4.59l-6 6-6-6v-4.59l4 4v-13.41h4v13.41zM24 6l-6 7.41v4.59l4-5.41v13.41h4v-13.41l4 5.41v-4.59l-6-7.41z"></path>
</symbol>
<symbol id="icon-up" viewBox="0 0 32 32">
<title>up</title>
<path d="M4 23v-5l12-12 12 12v5l-12-12-12 12z"></path>
</symbol>
<symbol id="icon-upload" viewBox="0 0 32 32">
<title>upload</title>
<path d="M8 20h6v10h4v-10h6l-8-8zM27.080 8.793c-0.652-4.748-4.484-8.396-9.129-8.396-3.48 0-6.504 2.045-8.082 5.062-0.401-0.12-0.863-0.192-1.34-0.199-2.567-0-4.475 1.909-4.65 4.326-2.172 1.115-3.68 3.368-3.68 5.972 0 3.537 2.891 6.443 5.801 6.443v-2.4c-1.541 0-3.4-1.803-3.4-4.043 0-1.614 0.91-3.084 2.375-3.837l1.199-0.616 0.1-1.345c0.090-1.236 1.016-2.1 2.252-2.1 0.193 0 0.428 0.037 0.717 0.115l1.861 0.503 0.893-1.707c1.217-2.328 3.5-3.774 5.955-3.774 3.354 0 6.256 2.718 6.752 6.323l0.203 1.484 1.424 0.468c1.836 0.606 3.070 2.33 3.070 4.292 0 2.347-1.859 4.235-3.4 4.235v2.4c2.838 0 5.801-2.936 5.801-6.636 0-3.070-1.982-5.67-4.721-6.571z"></path>
</symbol>
<symbol id="icon-user" viewBox="0 0 32 32">
<title>user</title>
<path d="M16.005 15.871c3.196-0.061 5.764-2.666 5.764-5.871s-2.568-5.81-5.758-5.871c-3.248-0-5.877 2.628-5.877 5.871s2.629 5.871 5.871 5.871zM27.572 23.059c-0.302-4.023-7.549-5.059-11.572-5.059-4.012 0-11.271 1.039-11.573 5.059-0.224 3.051-0.359 5.121-0.407 6.941h23.96c-0.047-1.82-0.184-3.891-0.407-6.941z"></path>
</symbol>
<symbol id="icon-zoom-in-fixed" viewBox="0 0 32 32">
<title>zoom-in-fixed</title>
<path d="M20 20h12v3h-6.915l6.915 6.723v2.109l-0.168 0.168h-2.117l-6.715-6.91v6.91h-3v-12zM0 23h6.915l-6.915 6.723v2.109l0.168 0.168h2.117l6.715-6.91v6.91h3v-12h-12v3zM9 6.91l-6.715-6.91h-2.117l-0.168 0.168v2.109l6.915 6.723h-6.915v3h12v-12h-3v6.91zM32 0.168l-0.168-0.168h-2.117l-6.715 6.91v-6.91h-3v12h12v-3h-6.915l6.915-6.723v-2.109z"></path>
</symbol>
<symbol id="icon-zoom-in-magnifying-glass" viewBox="0 0 32 32">
<title>zoom-in-magnifying-glass</title>
<path d="M31.607 27.838l-6.133-6.137c-0.242-0.241-0.575-0.39-0.944-0.39s-0.702 0.149-0.944 0.39l-0.035 0.035-2.533-2.533-0.014 0.014c3.652-4.556 3.422-11.195-0.803-15.42-4.529-4.527-11.875-4.531-16.404 0-4.531 4.531-4.529 11.875 0 16.406 4.205 4.204 10.811 4.455 15.365 0.848l0.004 0.003-0.033 0.033 2.541 2.54c-0.224 0.237-0.361 0.558-0.361 0.911 0 0.366 0.147 0.697 0.386 0.937l6.135 6.133c0.241 0.242 0.574 0.392 0.943 0.392s0.702-0.15 0.943-0.392l1.885-1.883c0.242-0.241 0.392-0.575 0.392-0.944s-0.15-0.702-0.392-0.943zM17.811 17.809c-1.486 1.487-3.541 2.408-5.809 2.408s-4.323-0.92-5.809-2.407c-1.487-1.487-2.407-3.542-2.407-5.811s0.92-4.324 2.407-5.811c1.487-1.485 3.54-2.403 5.808-2.403 2.27 0 4.324 0.92 5.811 2.407s2.406 3.54 2.406 5.809-0.919 4.322-2.406 5.809zM14 6h-4v4h-4v4h4v4h4v-4h4v-4h-4z"></path>
</symbol>
<symbol id="icon-zoom-out-fixed" viewBox="0 0 32 32">
<title>zoom-out-fixed</title>
<path d="M0 0h12v3h-6.915l6.915 6.723v2.109l-0.168 0.168h-2.117l-6.715-6.91v6.91h-3v-12zM20 0v3h6.915l-6.915 6.723v2.109l0.168 0.168h2.117l6.715-6.91v6.91h3v-12h-12zM29 26.91l-6.715-6.91h-2.117l-0.168 0.168v2.109l6.915 6.723h-6.915v3h12v-12h-3v6.91zM9.715 20l-6.715 6.91v-6.91h-3v12h12v-3h-6.915l6.915-6.723v-2.109l-0.168-0.168h-2.117z"></path>
</symbol>
<symbol id="icon-zoom-out-magnifying-glass" viewBox="0 0 32 32">
<title>zoom-out-magnifying-glass</title>
<path d="M31.607 27.838l-6.133-6.137c-0.242-0.241-0.575-0.39-0.944-0.39s-0.702 0.149-0.944 0.39l-0.035 0.035-2.533-2.533-0.014 0.014c3.652-4.556 3.422-11.195-0.803-15.42-4.529-4.527-11.875-4.531-16.404 0-4.531 4.531-4.529 11.875 0 16.406 4.205 4.204 10.811 4.455 15.365 0.848l0.004 0.003-0.033 0.033 2.541 2.54c-0.224 0.237-0.361 0.558-0.361 0.911 0 0.366 0.147 0.697 0.386 0.937l6.135 6.133c0.241 0.242 0.574 0.392 0.943 0.392s0.702-0.15 0.943-0.392l1.885-1.883c0.242-0.241 0.392-0.575 0.392-0.944s-0.15-0.702-0.392-0.943zM17.811 17.809c-1.486 1.487-3.541 2.408-5.809 2.408s-4.323-0.92-5.809-2.407c-1.487-1.487-2.407-3.542-2.407-5.811s0.92-4.324 2.407-5.811c1.487-1.485 3.54-2.403 5.808-2.403 2.27 0 4.324 0.92 5.811 2.407s2.406 3.54 2.406 5.809-0.919 4.322-2.406 5.809zM6 10h12v4h-12v-4z"></path>
</symbol>
</defs>
</svg>