<?xml version="1.0" encoding="utf-8"?>
<!-- Generator: Adobe Illustrator 19.2.1, SVG Export Plug-In . SVG Version: 6.00 Build 0)  -->
<svg version="1.1" id="Layer_1" xmlns="http://www.w3.org/2000/svg" xmlns:xlink="http://www.w3.org/1999/xlink" x="0px" y="0px"
	 viewBox="0 0 192 108" style="enable-background:new 0 0 192 108;" xml:space="preserve">
<style type="text/css">
	.st0{fill:#59595A;}
	.st1{fill:#CCCCCC;}
</style>
<rect class="st0" width="192" height="108"/>
<g>
	<path class="st1" d="M94.3,45.6l-5.4,3.7l-5.1-7.9l11.4-7.3h10v32.2H94.3V45.6z"/>
</g>
<g>
	<path class="st1" d="M172-59.9c0.5-0.4,0.9-0.8,1.3-1.3c0.3-0.5,0.5-1,0.5-1.5c0-0.6-0.2-1.1-0.6-1.6c-0.4-0.5-1-0.7-1.8-0.7
		c-0.9,0-1.6,0.3-2.2,1c-0.6,0.7-0.9,1.6-1,2.8l-10.3-1.2c0.2-2.1,0.8-3.9,1.6-5.4c0.9-1.5,2-2.8,3.3-3.8c1.3-1,2.8-1.7,4.4-2.2
		c1.6-0.5,3.3-0.7,5-0.7c1.6,0,3.1,0.2,4.7,0.6c1.6,0.4,3,1,4.2,1.8c1.2,0.8,2.2,1.9,3,3.3c0.8,1.3,1.1,2.9,1.1,4.8
		c0,1.3-0.2,2.5-0.5,3.5c-0.3,1-0.8,1.9-1.4,2.7c-0.6,0.8-1.3,1.5-2,2.1c-0.7,0.6-1.5,1.2-2.3,1.8l-4.7,3.4h11.1v9.1h-26.1v-8.4
		L172-59.9z"/>
</g>
<g>
	<path class="st1" d="M15.1-58.6c0.8,0.3,1.6,0.7,2.3,1.1c0.7,0.5,1.3,1,1.8,1.7c0.5,0.6,0.9,1.3,1.1,2.1c0.3,0.7,0.4,1.5,0.4,2.3
		c0,1.9-0.4,3.5-1.2,4.8c-0.8,1.4-1.8,2.5-3.1,3.3c-1.3,0.9-2.7,1.5-4.3,1.9c-1.6,0.4-3.2,0.6-4.9,0.6c-1.6,0-3.3-0.2-4.8-0.6
		c-1.6-0.4-3-1-4.4-1.8C-3.4-44-4.6-45-5.6-46.3c-1-1.2-1.7-2.7-2.1-4.5l10.1-2.4c0.2,0.8,0.6,1.5,1.3,2.2c0.7,0.7,1.6,1,2.8,1
		c0.3,0,0.6,0,1-0.1c0.3-0.1,0.6-0.2,0.9-0.4c0.3-0.2,0.5-0.4,0.7-0.7c0.2-0.3,0.3-0.6,0.3-1c0-1-0.4-1.6-1.3-1.9
		c-0.8-0.3-2-0.5-3.4-0.5H1.6v-7.5H5c1.2,0,2.1-0.2,2.8-0.5c0.7-0.3,1-0.9,1-1.8c0-0.7-0.3-1.2-0.8-1.5c-0.5-0.3-1.1-0.4-1.7-0.4
		c-0.8,0-1.5,0.2-2.1,0.7c-0.6,0.5-1,1.2-1.2,2.1L-7-65.5c0.5-1.8,1.3-3.2,2.3-4.4c1-1.2,2.1-2.2,3.4-2.9C0-73.5,1.4-74,2.9-74.4
		c1.5-0.3,2.9-0.5,4.3-0.5c1.4,0,2.9,0.2,4.4,0.5c1.5,0.3,2.9,0.9,4.1,1.7c1.2,0.8,2.3,1.8,3,3c0.8,1.2,1.2,2.6,1.2,4.3
		c0,1.8-0.5,3.3-1.4,4.3c-1,1.1-2.1,1.8-3.5,2.2V-58.6z"/>
</g>
</svg>
