<?xml version="1.0" encoding="utf-8"?>
<!-- Generator: Adobe Illustrator 19.2.1, SVG Export Plug-In . SVG Version: 6.00 Build 0)  -->
<svg version="1.1" id="Layer_1" xmlns="http://www.w3.org/2000/svg" xmlns:xlink="http://www.w3.org/1999/xlink" x="0px" y="0px"
	 viewBox="0 0 108 108" style="enable-background:new 0 0 108 108;" xml:space="preserve">
<style type="text/css">
	.st0{fill:#59595A;}
	.st1{fill:#CCCCCC;}
</style>
<circle class="st0" cx="53.8" cy="54" r="53.5"/>
<g>
	<path class="st1" d="M193.8,169.3l-11.8,8.1l-11.1-17.2l24.9-15.9h21.8v70.2h-23.8V169.3z"/>
</g>
<g>
	<path class="st1" d="M209.3,67.6c1.1-0.9,2-1.8,2.8-2.9c0.7-1.1,1.1-2.1,1.1-3.3c0-1.3-0.4-2.5-1.2-3.5c-0.8-1-2.1-1.5-3.9-1.5
		c-1.9,0-3.5,0.8-4.8,2.3c-1.3,1.5-1.9,3.6-2.1,6.1l-22.5-2.6c0.5-4.6,1.7-8.5,3.6-11.8c1.9-3.3,4.3-6,7.2-8.2
		c2.9-2.2,6.1-3.8,9.6-4.8c3.5-1,7.2-1.5,11-1.5c3.4,0,6.9,0.4,10.3,1.3c3.4,0.9,6.4,2.2,9.1,4c2.6,1.8,4.8,4.2,6.4,7.1
		c1.7,2.9,2.5,6.4,2.5,10.5c0,2.9-0.4,5.5-1.1,7.7c-0.8,2.2-1.8,4.2-3.1,5.9c-1.3,1.7-2.7,3.3-4.4,4.7c-1.6,1.4-3.3,2.7-5.1,4
		l-10.3,7.3h24.2v19.7h-56.9V89.8L209.3,67.6z"/>
</g>
<g>
	<path class="st1" d="M73.4,52.3c1.8,0.6,3.4,1.4,4.9,2.5c1.5,1.1,2.8,2.3,3.8,3.7c1.1,1.4,1.9,2.9,2.4,4.5c0.6,1.6,0.8,3.3,0.8,4.9
		c0,4.1-0.9,7.6-2.6,10.6c-1.7,2.9-4,5.4-6.7,7.2c-2.8,1.9-5.9,3.3-9.4,4.1c-3.5,0.9-7,1.3-10.6,1.3c-3.6,0-7.1-0.4-10.6-1.2
		C42,89,38.8,87.7,36,85.9c-2.9-1.8-5.4-4-7.5-6.7c-2.1-2.7-3.7-5.9-4.6-9.7l22-5.2c0.4,1.7,1.4,3.3,2.9,4.8c1.6,1.5,3.6,2.2,6,2.2
		c0.7,0,1.4-0.1,2.1-0.2c0.7-0.2,1.4-0.4,2-0.8c0.6-0.4,1.1-0.8,1.5-1.4c0.4-0.6,0.6-1.4,0.6-2.3c0-2.1-0.9-3.5-2.8-4.2
		c-1.9-0.7-4.3-1-7.4-1h-6.7V45.1h7.5c2.5,0,4.5-0.3,6-1c1.5-0.7,2.3-2,2.3-4c0-1.5-0.6-2.6-1.8-3.2c-1.2-0.6-2.4-0.9-3.8-0.9
		c-1.7,0-3.2,0.5-4.6,1.5c-1.4,1-2.2,2.5-2.6,4.5l-21.9-4.7c1.2-3.8,2.9-7.1,5.1-9.7c2.2-2.6,4.7-4.7,7.5-6.3c2.8-1.6,5.8-2.7,9-3.4
		c3.2-0.7,6.4-1,9.5-1c3.1,0,6.3,0.4,9.6,1.1c3.3,0.8,6.3,2,9,3.7c2.7,1.7,4.9,3.8,6.6,6.4c1.7,2.6,2.6,5.8,2.6,9.5
		c0,4-1,7.1-3.1,9.5c-2.1,2.3-4.6,3.9-7.6,4.8V52.3z"/>
</g>
</svg>
