<?xml version="1.0" encoding="utf-8"?>
<!-- Generator: Adobe Illustrator 19.2.1, SVG Export Plug-In . SVG Version: 6.00 Build 0)  -->
<svg version="1.1" id="Layer_1" xmlns="http://www.w3.org/2000/svg" xmlns:xlink="http://www.w3.org/1999/xlink" x="0px" y="0px"
	 viewBox="0 0 108 108" style="enable-background:new 0 0 108 108;" xml:space="preserve">
<style type="text/css">
	.st0{fill:#59595A;}
	.st1{fill:#CCCCCC;}
</style>
<rect class="st0" width="108" height="108"/>
<g>
	<path class="st1" d="M164.4,39l-5.9,4.1l-5.6-8.7l12.5-8h11v35.4h-12V39z"/>
</g>
<g>
	<path class="st1" d="M172.2-12.3c0.6-0.4,1-0.9,1.4-1.4c0.4-0.5,0.5-1.1,0.5-1.6c0-0.7-0.2-1.3-0.6-1.8c-0.4-0.5-1.1-0.8-2-0.8
		c-1,0-1.8,0.4-2.4,1.1c-0.6,0.8-1,1.8-1,3.1L156.8-15c0.2-2.3,0.8-4.3,1.8-5.9c1-1.7,2.2-3.1,3.6-4.2c1.5-1.1,3.1-1.9,4.9-2.4
		c1.8-0.5,3.6-0.8,5.5-0.8c1.7,0,3.5,0.2,5.2,0.6c1.7,0.4,3.2,1.1,4.6,2c1.3,0.9,2.4,2.1,3.2,3.6c0.8,1.5,1.2,3.2,1.2,5.3
		c0,1.5-0.2,2.8-0.6,3.9c-0.4,1.1-0.9,2.1-1.6,3c-0.6,0.9-1.4,1.6-2.2,2.4c-0.8,0.7-1.7,1.4-2.6,2l-5.2,3.7h12.2v10h-28.7v-9.2
		L172.2-12.3z"/>
</g>
<g>
	<path class="st1" d="M63.5,53.2c0.9,0.3,1.7,0.7,2.5,1.2s1.4,1.1,1.9,1.8s0.9,1.5,1.2,2.3c0.3,0.8,0.4,1.6,0.4,2.5
		c0,2.1-0.4,3.8-1.3,5.3c-0.9,1.5-2,2.7-3.4,3.7c-1.4,0.9-3,1.6-4.8,2.1c-1.8,0.4-3.5,0.7-5.4,0.7c-1.8,0-3.6-0.2-5.3-0.6
		s-3.4-1.1-4.8-2c-1.4-0.9-2.7-2-3.8-3.4c-1.1-1.4-1.9-3-2.3-4.9l11.1-2.6c0.2,0.9,0.7,1.7,1.5,2.4c0.8,0.7,1.8,1.1,3,1.1
		c0.3,0,0.7,0,1-0.1c0.4-0.1,0.7-0.2,1-0.4c0.3-0.2,0.6-0.4,0.8-0.7c0.2-0.3,0.3-0.7,0.3-1.2c0-1.1-0.5-1.8-1.4-2.1
		c-0.9-0.3-2.2-0.5-3.8-0.5h-3.4v-8.2h3.8c1.3,0,2.3-0.2,3-0.5c0.8-0.3,1.1-1,1.1-2c0-0.8-0.3-1.3-0.9-1.6c-0.6-0.3-1.2-0.4-1.9-0.4
		c-0.8,0-1.6,0.3-2.3,0.8c-0.7,0.5-1.1,1.3-1.3,2.3l-11-2.4c0.6-1.9,1.4-3.6,2.5-4.9c1.1-1.3,2.4-2.4,3.8-3.2
		c1.4-0.8,2.9-1.4,4.6-1.7c1.6-0.4,3.2-0.5,4.8-0.5c1.6,0,3.2,0.2,4.9,0.6c1.7,0.4,3.2,1,4.5,1.8c1.4,0.9,2.5,1.9,3.4,3.2
		c0.9,1.3,1.3,2.9,1.3,4.8c0,2-0.5,3.6-1.6,4.8c-1.1,1.2-2.3,2-3.8,2.4V53.2z"/>
</g>
</svg>
