<svg xmlns="http://www.w3.org/2000/svg" width="960" height="320" viewBox="0 0 960 320"><path fill="#F9F9F9" d="M484.967-1H960v321H484.967z"/><path fill="none" stroke="#E4A793" stroke-miterlimit="10" d="M623.488 31.346h197.989v200.241H623.488z"/><circle fill="#FFF" cx="238.486" cy="260.856" r="26.999"/><path fill="#F9F9F9" d="M0-1h475.032v321H0z"/><path fill="#FFF" d="M172.235-209.419h200.167v33.756H172.235z"/><path fill="#EFEFEF" d="M372.955-175.026H171.681v-35.03h201.273l.001 35.03zM172.79-176.3h199.058v-32.483H172.79v32.483z"/><path fill="#E8E8E8" d="M295.906-188.403H184.393c-1.831 0-3.308-1.708-3.308-3.82 0-2.113 1.479-3.821 3.308-3.821h111.513c1.834 0 3.319 1.708 3.319 3.821-.002 2.114-1.487 3.82-3.319 3.82z"/><path fill="#C6C6C6" d="M269.366-221.101H184.4c-1.833 0-3.315-1.71-3.315-3.82s1.482-3.821 3.315-3.821h84.966c1.833 0 3.322 1.71 3.322 3.821-.002 2.109-1.488 3.82-3.322 3.82zM1154.55-178.522l-4.455-4.456c-.288-.432-.861-.432-1.295 0l-.001.001-1.642-1.642c2.733-3.353 2.542-8.375-.657-11.44-3.306-3.306-8.77-3.306-12.218 0-3.308 3.306-3.308 8.769 0 12.218 3.104 3.103 8.085 3.254 11.541.532l1.655 1.655c-.396.295-.396.845.024 1.263l4.455 4.456c.287.431.861.431 1.295 0l1.293-1.293c.435-.288.435-.863.005-1.294zm-18.399-7.187c-2.303-2.444-2.444-6.181 0-8.625 2.44-2.444 6.322-2.444 8.624 0 2.441 2.444 2.441 6.181 0 8.625-2.443 2.444-6.325 2.444-8.624 0z"/><path fill="#4BBF53" d="M231.912 279.967l-9.631-9.631-4.2 4.193 13.829 13.832 26.979-26.971-4.201-4.195-22.776 22.772z"/><g fill="#C84D30"><path d="M731.693 289.002a2.609 2.609 0 0 1-1.845-.766l-27.354-27.354a2.634 2.634 0 0 1 0-3.672c1.012-1.021 2.674-1.021 3.671 0l27.354 27.354a2.583 2.583 0 0 1 0 3.662 2.503 2.503 0 0 1-1.826.776z"/><path d="M704.339 289.002a2.6 2.6 0 0 1-1.843-4.438l27.354-27.344a2.58 2.58 0 0 1 3.669 0 2.578 2.578 0 0 1 0 3.66l-27.353 27.354a2.543 2.543 0 0 1-1.827.768z"/></g><g fill="#DDD"><path d="M1540.375 226.09h-11.85l45.896-106.199h10.5l45.604 106.199h-12l-11.701-27.898h-54.898l-11.551 27.898zm15.6-37.799h46.804l-23.4-56.4-23.404 56.4zM1689.774 180.656c0-6.055-1.604-10.57-4.803-13.549-3.198-2.979-7.853-4.469-13.947-4.469-4.2 0-8.104.75-11.7 2.25-3.6 1.5-6.65 3.502-9.149 6l-5.698-6.75c2.896-2.897 6.727-5.301 11.477-7.201 4.748-1.898 10.125-2.852 16.125-2.852 3.799 0 7.351.525 10.648 1.576 3.302 1.049 6.198 2.625 8.698 4.725 2.499 2.101 4.448 4.75 5.854 7.949 1.396 3.202 2.101 6.952 2.101 11.25v30.75c0 2.701.1 5.502.3 8.398.198 2.9.5 5.354.899 7.352h-9.149a73.622 73.622 0 0 1-.75-5.549c-.2-2-.3-3.949-.3-5.854h-.301c-3.201 4.701-6.824 8.076-10.875 10.125s-8.926 3.074-14.625 3.074c-2.699 0-5.477-.377-8.324-1.127a23.207 23.207 0 0 1-7.801-3.688c-2.354-1.706-4.301-3.914-5.852-6.623-1.553-2.709-2.323-6.021-2.323-9.937 0-5.419 1.374-9.706 4.125-12.864 2.749-3.158 6.425-5.521 11.021-7.072 4.603-1.559 9.875-2.562 15.825-3.012a245.058 245.058 0 0 1 18.524-.682v-2.22zm-3 10.334c-4.2 0-8.429.176-12.678.523-4.252.354-8.101 1.051-11.551 2.102-3.449 1.051-6.272 2.576-8.476 4.574-2.201 2.002-3.303 4.646-3.303 7.949 0 2.5.477 4.603 1.428 6.301a11.657 11.657 0 0 0 3.822 4.125 16.272 16.272 0 0 0 5.325 2.25c1.948.449 3.924.676 5.925.676 3.604 0 6.803-.623 9.604-1.875 2.798-1.249 5.146-2.948 7.049-5.102 1.898-2.147 3.352-4.625 4.354-7.428 1-2.798 1.5-5.748 1.5-8.852v-5.25l-2.999.007z"/></g><path fill="#E4A793" d="M764.377 35.167H652.865c-1.831 0-3.31-1.708-3.31-3.82s1.479-3.82 3.31-3.82h111.512c1.834 0 3.319 1.708 3.319 3.82-.001 2.111-1.486 3.82-3.319 3.82z"/><path fill="#C6C6C6" d="M236.584-148.979h-52.186c-1.833 0-3.315-1.71-3.315-3.819 0-2.111 1.482-3.821 3.315-3.821h52.186c1.833 0 3.322 1.71 3.322 3.821-.003 2.109-1.488 3.819-3.322 3.819z"/><path fill="#FFF" d="M649.557 128.762H801.22v25.577H649.557z"/><path fill="#EFEFEF" d="M801.639 154.821H649.137v-26.542h152.502v26.542zm-151.662-.965H800.8v-24.612H649.977v24.612z"/><path fill="#E8E8E8" d="M743.26 144.686h-84.49c-1.389 0-2.508-1.294-2.508-2.894 0-1.601 1.121-2.895 2.508-2.895h84.49c1.391 0 2.516 1.294 2.516 2.895-.003 1.601-1.128 2.894-2.516 2.894z"/><path fill="#C6C6C6" d="M723.151 119.911h-64.378c-1.39 0-2.513-1.296-2.513-2.894 0-1.599 1.123-2.895 2.513-2.895h64.378c1.39 0 2.517 1.296 2.517 2.895-.002 1.598-1.127 2.894-2.517 2.894z"/><path fill="#FFF" d="M649.557 69.42H801.22v25.577H649.557z"/><path fill="#EFEFEF" d="M801.639 95.479H649.137V68.937h152.502v26.542zm-151.662-.965H800.8V69.902H649.977v24.612z"/><path fill="#E8E8E8" d="M743.26 85.344h-84.49c-1.389 0-2.508-1.294-2.508-2.894 0-1.601 1.121-2.895 2.508-2.895h84.49c1.391 0 2.516 1.294 2.516 2.895-.003 1.601-1.128 2.894-2.516 2.894z"/><path fill="#C6C6C6" d="M723.151 60.569h-64.378c-1.39 0-2.513-1.296-2.513-2.894 0-1.599 1.123-2.895 2.513-2.895h64.378c1.39 0 2.517 1.296 2.517 2.895-.002 1.598-1.127 2.894-2.517 2.894z"/><path fill="#FFF" d="M649.557 183.407H801.22v25.577H649.557z"/><path fill="#EFEFEF" d="M801.639 209.467H649.137v-26.542h152.502v26.542zm-151.662-.965H800.8v-24.611H649.977v24.611z"/><path fill="#E8E8E8" d="M743.26 199.332h-84.49c-1.389 0-2.508-1.294-2.508-2.895 0-1.602 1.121-2.896 2.508-2.896h84.49c1.391 0 2.516 1.294 2.516 2.896-.003 1.601-1.128 2.895-2.516 2.895z"/><path fill="#C6C6C6" d="M698.312 174.557h-39.54c-1.39 0-2.513-1.295-2.513-2.894s1.123-2.896 2.513-2.896h39.54c1.389 0 2.518 1.297 2.518 2.896-.002 1.599-1.127 2.894-2.518 2.894z"/><g><path fill="#FFF" d="M176.634 116.838h151.663v25.577H176.634z"/><path fill="#EFEFEF" d="M328.716 142.897H176.214v-26.542h152.502v26.542zm-151.662-.965h150.823V117.32H177.054v24.612z"/><path fill="#E8E8E8" d="M270.337 132.762h-84.491c-1.388 0-2.507-1.294-2.507-2.894 0-1.601 1.121-2.895 2.507-2.895h84.491c1.39 0 2.515 1.294 2.515 2.895-.001 1.601-1.126 2.894-2.515 2.894z"/><path fill="#C6C6C6" d="M250.229 107.987h-64.378c-1.389 0-2.512-1.296-2.512-2.894 0-1.599 1.123-2.895 2.512-2.895h64.378c1.39 0 2.517 1.296 2.517 2.895-.003 1.598-1.128 2.894-2.517 2.894z"/></g><g><path fill="#FFF" d="M176.634 57.496h151.663v25.577H176.634z"/><path fill="#EFEFEF" d="M328.716 83.555H176.214V57.013h152.502v26.542zm-151.662-.965h150.823V57.978H177.054V82.59z"/><path fill="#E8E8E8" d="M270.337 73.42h-84.491c-1.388 0-2.507-1.294-2.507-2.894 0-1.601 1.121-2.895 2.507-2.895h84.491c1.39 0 2.515 1.294 2.515 2.895-.001 1.601-1.126 2.894-2.515 2.894z"/><path fill="#C6C6C6" d="M250.229 48.645h-64.378c-1.389 0-2.512-1.296-2.512-2.894 0-1.599 1.123-2.895 2.512-2.895h64.378c1.39 0 2.517 1.296 2.517 2.895-.003 1.598-1.128 2.894-2.517 2.894z"/></g><path fill="#C6C6C6" d="M225.39 162.635h-39.54c-1.389 0-2.512-1.296-2.512-2.896 0-1.599 1.123-2.896 2.512-2.896h39.54c1.389 0 2.518 1.297 2.518 2.896-.003 1.6-1.128 2.896-2.518 2.896z"/><path fill="#FFF" d="M177.133 172.405H328.36v25.503H177.133z"/><path fill="#C84D30" d="M328.776 198.389H176.714v-26.465h152.062v26.465zm-151.224-.962H327.94v-24.54H177.552v24.54z"/><path fill="#E8E8E8" d="M270.566 188.283h-84.248c-1.383 0-2.5-1.29-2.5-2.887 0-1.596 1.118-2.887 2.5-2.887h84.248c1.385 0 2.507 1.291 2.507 2.887-.001 1.597-1.123 2.887-2.507 2.887z"/><path fill="#E4A793" d="M177.832 229.391h150.387V204.85H201.186l-4.533-3.754-4.029 3.754h-14.792z"/><path fill="#C84D30" d="M320.332 178.089h-5.852l-4.138 4.14v5.853l4.138 4.138h5.852l4.14-4.138v-5.853l-4.14-4.14zm-1.915 12.111h-2.019v-2.021h2.019v2.021zm0-4.037h-2.019v-5.046h2.019v5.046z"/><path fill="#7F7F7F" d="M270.566 219.62h-84.248c-1.383 0-2.5-1.29-2.5-2.886s1.118-2.887 2.5-2.887h84.248c1.385 0 2.507 1.291 2.507 2.887-.001 1.596-1.123 2.886-2.507 2.886z"/></svg>