<svg xmlns="http://www.w3.org/2000/svg" width="480" height="320" viewBox="0 0 480 320"><path fill="#CCC" d="M-14.577-10.749h509.154v340.497H-14.577z"/><circle fill="#FFF" cx="136.256" cy="235.938" r="16.486"/><path fill="#FFF" d="M66.799 98.499h155.925v105.365H66.799zM254.672 98.499h155.926v105.365H254.672z"/><g fill="#FFF" stroke="#B7B7B7" stroke-miterlimit="10"><path d="M94.486 130.976h92.606v15.618H94.486z"/><path d="M187.348 146.888H94.229v-16.206h93.119v16.206zm-92.605-.59h92.093v-15.027H94.743v15.027z"/></g><path fill="#DBDBDB" d="M151.702 140.699h-51.591c-.847 0-1.531-.79-1.531-1.767 0-.978.685-1.769 1.531-1.769h51.591c.849 0 1.536.791 1.536 1.769-.002.977-.688 1.767-1.536 1.767z"/><path fill="#999" d="M139.423 125.571h-39.31c-.848 0-1.534-.791-1.534-1.767 0-.977.686-1.768 1.534-1.768h39.31c.848 0 1.537.791 1.537 1.768-.001.976-.689 1.767-1.537 1.767z"/><path fill="#4BBF53" d="M132.941 240.558l-4.857-4.857-2.118 2.114 6.974 6.977 13.606-13.603-2.119-2.115-11.486 11.484z"/><circle fill="#FFF" cx="335.363" cy="235.938" r="16.486"/><g fill="#C84D30"><path d="M340.552 243.1a.986.986 0 0 1-.698-.29l-10.366-10.365a1 1 0 0 1 0-1.391.98.98 0 0 1 1.392 0l10.365 10.365a.979.979 0 0 1 0 1.387.951.951 0 0 1-.693.294z"/><path d="M330.186 243.1a.986.986 0 0 1-.698-1.681l10.366-10.361a.978.978 0 0 1 1.391 0 .979.979 0 0 1 0 1.387L330.88 242.81a.972.972 0 0 1-.694.29z"/></g><g fill="#FFF" stroke="#B7B7B7" stroke-miterlimit="10"><path d="M94.486 164.343h92.606v15.617H94.486z"/><path d="M187.348 180.255H94.229v-16.207h93.119v16.207zm-92.605-.589h92.093v-15.028H94.743v15.028z"/></g><path fill="#DBDBDB" d="M151.702 174.066h-51.591c-.847 0-1.531-.79-1.531-1.768s.685-1.768 1.531-1.768h51.591c.849 0 1.536.79 1.536 1.768-.002.978-.688 1.768-1.536 1.768z"/><path fill="#999" d="M124.257 158.938h-24.144c-.848 0-1.534-.791-1.534-1.767 0-.977.686-1.769 1.534-1.769h24.144c.848 0 1.537.792 1.537 1.769-.002.976-.689 1.767-1.537 1.767z"/><g fill="#FFF" stroke="#B7B7B7" stroke-miterlimit="10"><path d="M289.061 127.943h92.605v15.617h-92.605z"/><path d="M381.922 143.854h-93.117v-16.206h93.117v16.206zm-92.606-.587h92.092v-15.028h-92.092v15.028z"/></g><path fill="#DBDBDB" d="M346.275 137.668h-51.59c-.848 0-1.531-.791-1.531-1.768 0-.979.684-1.768 1.531-1.768h51.59c.85 0 1.535.789 1.535 1.768.001.977-.685 1.768-1.535 1.768z"/><g fill="#FFF" stroke="#B7B7B7" stroke-miterlimit="10"><path d="M289.061 158.276h92.605v15.618h-92.605z"/><path d="M381.922 174.188h-93.117v-16.206h93.117v16.206zm-92.606-.589h92.092v-15.027h-92.092v15.027z"/></g><path fill="#DBDBDB" d="M346.275 168h-51.59c-.848 0-1.531-.79-1.531-1.767 0-.978.684-1.769 1.531-1.769h51.59c.85 0 1.535.791 1.535 1.769.001.977-.685 1.767-1.535 1.767z"/></svg>