<svg xmlns="http://www.w3.org/2000/svg" width="114" height="114" viewBox="0 0 114 114"><path d="M14.905 14.25l-.427 3.106h3.933l-1.558 11.1h3.461l1.558-11.1h3.934l.428-3.106zM36.767 14.25l-.72 5.141h-5.479l.72-5.141h-3.46L25.84 28.457h3.461l.837-5.96h5.478l-.837 5.96h3.461l1.987-14.207zM52.127 17.473l.448-3.223h-9.79l-1.987 14.207h10.141l.448-3.224h-6.68l.331-2.385h5.98l.447-3.223h-5.978l.31-2.152zM23.46 39.085a3.523 3.523 0 0 0-.984-.736 8.893 8.893 0 0 0-1.127-.478c-.378-.13-.758-.25-1.131-.355a5.592 5.592 0 0 1-.939-.346 1.522 1.522 0 0 1-.566-.443c-.117-.158-.158-.36-.127-.614.034-.222.113-.404.244-.557.138-.16.303-.29.492-.388a2.54 2.54 0 0 1 .639-.225c.629-.132 1.155-.084 1.753.138.364.135.63.335.814.611l.139.207 2.73-2.596-.149-.152a4.525 4.525 0 0 0-1.888-1.163 7.623 7.623 0 0 0-4.337-.05 6.339 6.339 0 0 0-1.873.875c-.564.39-1.045.881-1.429 1.46-.385.58-.635 1.265-.743 2.034-.11.807-.026 1.473.247 1.978.27.497.644.903 1.112 1.206.455.295.964.532 1.511.705.525.167 1.02.336 1.47.503.432.16.788.355 1.06.58.237.193.321.444.267.789-.033.21-.11.388-.237.542-.13.159-.296.292-.491.396a2.7 2.7 0 0 1-.668.243c-.747.167-1.43.079-2.03-.234a2.461 2.461 0 0 1-.96-.89l-.136-.217-2.851 2.697.145.152a5.51 5.51 0 0 0 2.045 1.376c.748.28 1.592.422 2.508.422.728 0 1.445-.094 2.129-.28a6.005 6.005 0 0 0 1.876-.868 5.321 5.321 0 0 0 1.42-1.48c.384-.594.634-1.297.742-2.088.095-.624.076-1.169-.055-1.619a2.8 2.8 0 0 0-.622-1.135zM35.198 41.93a3.83 3.83 0 0 1-1.274 1.035 3.588 3.588 0 0 1-1.62.367c-.51 0-.98-.104-1.398-.31a2.816 2.816 0 0 1-1.033-.861 3.543 3.543 0 0 1-.588-1.325c-.117-.51-.132-1.084-.046-1.706.088-.61.267-1.184.535-1.706.266-.521.6-.978.991-1.357a4.36 4.36 0 0 1 1.328-.883 3.953 3.953 0 0 1 1.555-.314c.536 0 .997.091 1.37.271a2.4 2.4 0 0 1 .914.771l.123.172 2.936-2.148-.102-.165a3.713 3.713 0 0 0-.918-1.011 5.005 5.005 0 0 0-1.149-.65 6.22 6.22 0 0 0-1.24-.353 7.236 7.236 0 0 0-1.233-.11 9.413 9.413 0 0 0-3.127.518 8.337 8.337 0 0 0-2.627 1.488A8.404 8.404 0 0 0 26.678 36a8.794 8.794 0 0 0-1.008 3.072c-.16 1.127-.112 2.165.142 3.083.254.924.682 1.723 1.273 2.374.59.65 1.34 1.157 2.231 1.505.885.346 1.89.521 2.988.521.97 0 1.954-.202 2.923-.6a6.706 6.706 0 0 0 2.553-1.869l.138-.16-2.586-2.162-.134.166zM41.188 31.997l-1.987 14.207h3.461l1.987-14.207zM56.793 35.22l.448-3.223h-9.79l-1.987 14.207h10.141l.447-3.223h-6.68l.332-2.385h5.979l.447-3.224h-5.977l.31-2.151zM69.83 31.997l-1.28 9.13-4.306-9.13h-4.443l-1.987 14.207h3.461l1.3-9.366 4.442 9.366h4.288l1.987-14.207zM83.52 41.93a3.83 3.83 0 0 1-1.273 1.035 3.588 3.588 0 0 1-1.62.367c-.51 0-.981-.104-1.398-.31a2.816 2.816 0 0 1-1.034-.861 3.544 3.544 0 0 1-.587-1.325c-.117-.512-.133-1.086-.045-1.706.086-.61.266-1.184.533-1.706.268-.522.601-.979.992-1.357a4.36 4.36 0 0 1 1.328-.883 3.953 3.953 0 0 1 1.554-.314c.537 0 .998.091 1.37.271.369.179.676.438.914.77l.123.173 2.937-2.148-.102-.165a3.713 3.713 0 0 0-.918-1.011 4.992 4.992 0 0 0-1.15-.65 6.22 6.22 0 0 0-1.239-.353 7.236 7.236 0 0 0-1.233-.11 9.413 9.413 0 0 0-3.127.518 8.337 8.337 0 0 0-2.627 1.488A8.404 8.404 0 0 0 75 36a8.79 8.79 0 0 0-1.008 3.072c-.16 1.128-.112 2.165.141 3.083.254.924.683 1.722 1.274 2.374.59.65 1.34 1.157 2.231 1.505.884.346 1.89.521 2.988.521.97 0 1.954-.202 2.923-.6a6.706 6.706 0 0 0 2.553-1.869l.137-.16-2.585-2.162-.134.166zM98.59 35.22l.447-3.223h-9.79L87.26 46.204h10.142l.448-3.223h-6.68l.331-2.385h5.979l.447-3.224H91.95l.31-2.151zM29.585 53.802c-.255-.922-.683-1.721-1.274-2.373-.591-.65-1.338-1.157-2.22-1.505-.878-.346-1.88-.521-2.98-.521a9.41 9.41 0 0 0-3.127.518 8.342 8.342 0 0 0-2.626 1.489 8.41 8.41 0 0 0-1.918 2.346 8.797 8.797 0 0 0-1.007 3.072c-.16 1.127-.112 2.165.141 3.084.254.924.683 1.723 1.274 2.373.59.651 1.34 1.158 2.231 1.506.884.345 1.889.52 2.988.52a9.326 9.326 0 0 0 3.117-.518 8.488 8.488 0 0 0 2.626-1.487 8.198 8.198 0 0 0 1.919-2.349 8.92 8.92 0 0 0 .998-3.07c.158-1.128.11-2.165-.142-3.085zm-3.428 3.026c-.088.623-.267 1.2-.534 1.715s-.61.967-1.017 1.345a4.537 4.537 0 0 1-1.415.884 4.692 4.692 0 0 1-1.735.316c-.616 0-1.164-.105-1.628-.313a3.028 3.028 0 0 1-1.14-.865 3.325 3.325 0 0 1-.63-1.32c-.124-.51-.143-1.084-.056-1.704a5.4 5.4 0 0 1 .535-1.706c.265-.52.608-.975 1.016-1.353a4.53 4.53 0 0 1 1.415-.884 4.698 4.698 0 0 1 1.735-.317c.616 0 1.163.106 1.628.313.46.206.848.498 1.15.867.303.37.515.815.63 1.325.117.518.132 1.09.046 1.697zM41.776 52.977l.447-3.223H32.55L30.563 63.96h3.462l.74-5.375h5.744l.47-3.224h-5.747l.331-2.385zM31.246 67.519l-3.39 8.585-1.51-8.585h-3.134l-3.9 8.35-.9-8.35h-3.744l2.227 14.207h2.924l4.168-9.119 1.637 9.119h3.02l6.14-14.207zM44.959 67.519l-.72 5.14H38.76l.72-5.14h-3.46l-1.987 14.207h3.461l.837-5.96h5.478l-.837 5.96h3.461l1.987-14.207zM60.319 70.742l.448-3.223h-9.79L48.99 81.726H59.13l.448-3.223h-6.68l.331-2.386h5.98l.446-3.223H53.68l.31-2.152zM73.529 71.945c.121-.836.071-1.55-.148-2.12a3.05 3.05 0 0 0-1.026-1.38c-.45-.333-1-.574-1.637-.717-.623-.14-1.3-.21-2.012-.21h-5.519L61.2 81.727h3.462l.76-5.512h1.173l2.123 5.512h4.112l-2.714-5.88c.923-.216 1.68-.656 2.253-1.31.621-.71 1.012-1.58 1.16-2.59zm-7.308-1.437h1.803c.261 0 .53.019.799.056.253.036.475.104.66.202a.984.984 0 0 1 .403.395c.093.165.118.402.073.706-.046.331-.152.588-.316.762a1.584 1.584 0 0 1-.602.405c-.24.09-.506.144-.787.162-.3.02-.585.029-.853.029H65.85l.37-2.717zM85.508 70.742l.448-3.223h-9.79l-1.987 14.207h10.142l.447-3.223h-6.68l.332-2.386h5.978l.448-3.223h-5.978l.31-2.152z"/><g><path d="M7.125 21.375V7.125h14.25V0H0v21.375zM28.5 7.125h78.375v71.25H114V0H28.5zM42.75 106.875H7.125v-71.25H0V114h42.75zM106.875 92.625v14.25h-57V114H114V92.625z"/></g><g><path d="M87.408 67.75h-.37v-.186h.955v.186h-.37v.97h-.215v-.97zM88.188 67.564h.327l.323.81.325-.81h.325v1.157h-.205v-.961h-.004l-.366.96h-.15l-.367-.96h-.004v.96h-.204v-1.156z"/></g></svg>