<?xml version="1.0" encoding="utf-8"?>
<!-- Generator: Adobe Illustrator 16.0.4, SVG Export Plug-In . SVG Version: 6.00 Build 0)  -->
<!DOCTYPE svg PUBLIC "-//W3C//DTD SVG 1.1//EN" "http://www.w3.org/Graphics/SVG/1.1/DTD/svg11.dtd">
<svg version="1.1" id="Layer_1" xmlns="http://www.w3.org/2000/svg" xmlns:xlink="http://www.w3.org/1999/xlink" x="0px" y="0px"
	 width="480px" height="320px" viewBox="0 0 480 320" enable-background="new 0 0 480 320" xml:space="preserve">
<rect y="-1" fill="#CCDE91" width="480" height="321"/>
<g>
	
		<line fill="none" stroke="#FFFFFF" stroke-width="15" stroke-linecap="round" stroke-miterlimit="10" x1="19.304" y1="-189.666" x2="106.636" y2="-189.666"/>
	<circle fill="#007AC2" cx="19.604" cy="-189.665" r="4.303"/>
	
		<line fill="none" stroke="#DFDFDF" stroke-width="5" stroke-linecap="round" stroke-miterlimit="10" x1="29.304" y1="-189.666" x2="104.708" y2="-189.666"/>
</g>
<g>
	
		<line fill="none" stroke="#FFFFFF" stroke-width="15" stroke-linecap="round" stroke-miterlimit="10" x1="19.304" y1="-159.798" x2="98.636" y2="-159.798"/>
	<circle fill="#00B1DC" cx="18.999" cy="-159.798" r="4.303"/>
	
		<line fill="none" stroke="#DFDFDF" stroke-width="5" stroke-linecap="round" stroke-miterlimit="10" x1="29.304" y1="-159.798" x2="98.636" y2="-159.798"/>
</g>
<g>
	
		<line fill="none" stroke="#FFFFFF" stroke-width="15" stroke-linecap="round" stroke-miterlimit="10" x1="19.304" y1="-129.798" x2="119.304" y2="-129.798"/>
	<circle fill="#B9DDEA" cx="19.969" cy="-129.931" r="4.302"/>
	
		<line fill="none" stroke="#DFDFDF" stroke-width="5" stroke-linecap="round" stroke-miterlimit="10" x1="29.304" y1="-129.798" x2="119.304" y2="-129.798"/>
</g>
<g>
	
		<line fill="none" stroke="#FFFFFF" stroke-width="15" stroke-linecap="round" stroke-miterlimit="10" x1="19.304" y1="-100.199" x2="79.304" y2="-100.199"/>
	<circle fill="#EFEFEF" cx="19.969" cy="-100.066" r="4.302"/>
	
		<line fill="none" stroke="#DFDFDF" stroke-width="5" stroke-linecap="round" stroke-miterlimit="10" x1="29.304" y1="-100.199" x2="76.636" y2="-100.199"/>
</g>
<g>
	
		<line fill="none" stroke="#FFFFFF" stroke-width="15" stroke-linecap="round" stroke-miterlimit="10" x1="19.304" y1="-71.568" x2="99.97" y2="-71.568"/>
	<circle fill="#CCCCCC" cx="19.303" cy="-70.198" r="4.304"/>
	
		<line fill="none" stroke="#DFDFDF" stroke-width="5" stroke-linecap="round" stroke-miterlimit="10" x1="29.304" y1="-71.568" x2="97.302" y2="-71.568"/>
</g>
<g>
	
		<line fill="none" stroke="#FFFFFF" stroke-width="15" stroke-linecap="round" stroke-miterlimit="10" x1="19.304" y1="-40.999" x2="122.636" y2="-40.999"/>
	<circle fill="#4C4C4C" cx="19.97" cy="-40.332" r="4.303"/>
	
		<line fill="none" stroke="#DFDFDF" stroke-width="5" stroke-linecap="round" stroke-miterlimit="10" x1="29.304" y1="-40.999" x2="119.302" y2="-40.999"/>
</g>
<rect x="88.675" y="36.608" fill="#FFFFFF" width="59.282" height="59.282"/>
<rect x="151.675" y="36.608" fill="#FFFFFF" width="59.283" height="59.282"/>
<rect x="88.675" y="98.608" fill="#FFFFFF" width="59.283" height="59.283"/>
<rect x="151.675" y="98.608" fill="#FFFFFF" width="122.655" height="121.333"/>
<rect x="278.342" y="98.608" fill="#FFFFFF" width="122.654" height="59.283"/>
<rect x="151.675" y="223.108" fill="#FFFFFF" width="186.616" height="59.283"/>
<rect x="214.688" y="36.608" fill="#FFFFFF" width="59.282" height="59.282"/>
<rect x="278.009" y="160.941" fill="#FFFFFF" width="59.282" height="59.282"/>
<rect x="342.021" y="160.941" fill="#FFFFFF" width="59.283" height="121.45"/>
<rect x="88.675" y="160.941" fill="#FFFFFF" width="59.283" height="121.45"/>
<rect x="277.701" y="36.608" fill="#FFFFFF" width="59.281" height="59.282"/>
<rect x="340.713" y="36.608" fill="#FFFFFF" width="59.283" height="59.282"/>
<g>
	<g>
		<rect x="277.864" y="36.796" fill="#F8F8F8" width="58.955" height="9.943"/>
		<path fill="#EFEFEF" d="M336.982,46.926h-59.281V36.608h59.281V46.926z M278.027,46.552h58.629v-9.568h-58.629V46.552z"/>
	</g>
	<g>
		<rect x="277.864" y="46.552" fill="#FFFFFF" width="58.955" height="9.942"/>
		<path fill="#EFEFEF" d="M336.982,56.682h-59.281V46.364h59.281V56.682z M278.027,56.306h58.629v-9.567h-58.629V56.306z"/>
	</g>
	<g>
		<rect x="277.864" y="56.354" fill="#FFFFFF" width="58.955" height="9.943"/>
		<path fill="#EFEFEF" d="M336.982,66.484h-59.281V56.166h59.281V66.484z M278.027,66.109h58.629v-9.567h-58.629V66.109z"/>
	</g>
	<g>
		<rect x="277.864" y="66.156" fill="#FFFFFF" width="58.955" height="9.943"/>
		<path fill="#EFEFEF" d="M336.982,76.287h-59.281V65.968h59.281V76.287z M278.027,75.911h58.629v-9.568h-58.629V75.911z"/>
	</g>
	<g>
		<rect x="277.864" y="75.958" fill="#FFFFFF" width="58.955" height="9.943"/>
		<path fill="#EFEFEF" d="M336.982,86.088h-59.281V75.771h59.281V86.088z M278.027,85.713h58.629v-9.568h-58.629V85.713z"/>
	</g>
	<g>
		<rect x="277.864" y="85.76" fill="#FFFFFF" width="58.955" height="9.943"/>
		<path fill="#EFEFEF" d="M336.982,95.891h-59.281V85.573h59.281V95.891z M278.027,95.515h58.629v-9.568h-58.629V95.515z"/>
	</g>
	<path fill="#E8E8E8" d="M314.289,52.742h-32.843c-0.54,0-0.976-0.503-0.976-1.125s0.436-1.125,0.976-1.125h32.843
		c0.54,0,0.978,0.503,0.978,1.125S314.829,52.742,314.289,52.742z"/>
	<path fill="#E8E8E8" d="M318.416,92.389h-36.97c-0.54,0-0.976-0.504-0.976-1.125c0-0.622,0.436-1.126,0.976-1.126h36.97
		c0.54,0,0.978,0.504,0.978,1.126C319.394,91.884,318.956,92.389,318.416,92.389z"/>
	<path fill="#E8E8E8" d="M321.186,82.477h-39.739c-0.54,0-0.976-0.504-0.976-1.125c0-0.622,0.436-1.125,0.976-1.125h39.739
		c0.54,0,0.978,0.503,0.978,1.125C322.163,81.973,321.726,82.477,321.186,82.477z"/>
	<path fill="#E8E8E8" d="M312.553,72.565h-31.106c-0.54,0-0.976-0.504-0.976-1.126c0-0.621,0.436-1.125,0.976-1.125h31.106
		c0.54,0,0.978,0.504,0.978,1.125C313.53,72.062,313.093,72.565,312.553,72.565z"/>
	<path fill="#E8E8E8" d="M321.186,62.654h-39.739c-0.54,0-0.976-0.504-0.976-1.125c0-0.622,0.436-1.126,0.976-1.126h39.739
		c0.54,0,0.978,0.504,0.978,1.126C322.163,62.149,321.726,62.654,321.186,62.654z"/>
	<path fill="#C6C6C6" d="M306.473,43.112h-25.026c-0.54,0-0.976-0.504-0.976-1.125c0-0.622,0.436-1.126,0.976-1.126h25.026
		c0.54,0,0.978,0.504,0.978,1.126C307.45,42.607,307.013,43.112,306.473,43.112z"/>
</g>
<rect x="342.022" y="160.941" fill="#FFFFFF" width="59.281" height="59.283"/>
<g>
	<g>
		<rect x="342.186" y="161.139" fill="#F8F8F8" width="58.955" height="10.484"/>
		<path fill="#EFEFEF" d="M401.304,171.82h-59.281v-10.879h59.281V171.82z M342.349,171.425h58.629v-10.087h-58.629V171.425z"/>
	</g>
	<g>
		<rect x="342.186" y="171.425" fill="#FFFFFF" width="58.955" height="10.484"/>
		<path fill="#EFEFEF" d="M401.304,182.106h-59.281v-10.879h59.281V182.106z M342.349,181.71h58.629v-10.087h-58.629V181.71z"/>
	</g>
	<g>
		<rect x="342.186" y="181.761" fill="#FFFFFF" width="58.955" height="10.482"/>
		<path fill="#EFEFEF" d="M401.304,192.441h-59.281v-10.879h59.281V192.441z M342.349,192.046h58.629v-10.088h-58.629V192.046z"/>
	</g>
	<g>
		<rect x="342.186" y="192.095" fill="#FFFFFF" width="58.955" height="10.483"/>
		<path fill="#EFEFEF" d="M401.304,202.776h-59.281v-10.88h59.281V202.776z M342.349,202.38h58.629v-10.087h-58.629V202.38z"/>
	</g>
	<g>
		<rect x="342.186" y="202.43" fill="#FFFFFF" width="58.955" height="10.483"/>
		<path fill="#EFEFEF" d="M401.304,213.111h-59.281v-10.88h59.281V213.111z M342.349,212.716h58.629v-10.089h-58.629V212.716z"/>
	</g>
	<g>
		<rect x="342.186" y="212.765" fill="#FFFFFF" width="58.955" height="10.484"/>
		<path fill="#EFEFEF" d="M401.304,223.446h-59.281v-10.879h59.281V223.446z M342.349,223.05h58.629v-10.087h-58.629V223.05z"/>
	</g>
	<path fill="#E8E8E8" d="M378.61,177.953h-32.843c-0.54,0-0.976-0.531-0.976-1.188c0-0.655,0.436-1.187,0.976-1.187h32.843
		c0.54,0,0.978,0.531,0.978,1.187C379.588,177.422,379.15,177.953,378.61,177.953z"/>
	<path fill="#E8E8E8" d="M382.737,219.754h-36.97c-0.54,0-0.976-0.532-0.976-1.188s0.436-1.187,0.976-1.187h36.97
		c0.54,0,0.978,0.531,0.978,1.187S383.277,219.754,382.737,219.754z"/>
	<path fill="#E8E8E8" d="M385.507,209.304h-39.739c-0.54,0-0.976-0.532-0.976-1.187c0-0.657,0.436-1.188,0.976-1.188h39.739
		c0.54,0,0.978,0.53,0.978,1.188C386.484,208.771,386.047,209.304,385.507,209.304z"/>
	<path fill="#E8E8E8" d="M376.874,198.853h-31.106c-0.54,0-0.976-0.531-0.976-1.187c0-0.654,0.436-1.187,0.976-1.187h31.106
		c0.54,0,0.978,0.532,0.978,1.187C377.852,198.321,377.414,198.853,376.874,198.853z"/>
	<path fill="#E8E8E8" d="M385.507,188.402h-39.739c-0.54,0-0.976-0.532-0.976-1.187c0-0.655,0.436-1.187,0.976-1.187h39.739
		c0.54,0,0.978,0.531,0.978,1.187C386.484,187.87,386.047,188.402,385.507,188.402z"/>
	<path fill="#C6C6C6" d="M370.794,167.799h-25.026c-0.54,0-0.976-0.531-0.976-1.187s0.436-1.188,0.976-1.188h25.026
		c0.54,0,0.978,0.532,0.978,1.188S371.334,167.799,370.794,167.799z"/>
</g>
<rect x="342.022" y="220.194" fill="#FFFFFF" width="59.281" height="59.283"/>
<g>
	<g>
		<rect x="342.186" y="223.382" fill="#F8F8F8" width="58.955" height="9.943"/>
		<path fill="#EFEFEF" d="M401.304,233.513h-59.281v-10.318h59.281V233.513z M342.349,233.138h58.629v-9.567h-58.629V233.138z"/>
	</g>
	<g>
		<rect x="342.186" y="233.138" fill="#FFFFFF" width="58.955" height="9.943"/>
		<path fill="#EFEFEF" d="M401.304,243.269h-59.281V232.95h59.281V243.269z M342.349,242.893h58.629v-9.567h-58.629V242.893z"/>
	</g>
	<g>
		<rect x="342.186" y="242.94" fill="#FFFFFF" width="58.955" height="9.942"/>
		<path fill="#EFEFEF" d="M401.304,253.07h-59.281v-10.317h59.281V253.07z M342.349,252.695h58.629v-9.567h-58.629V252.695z"/>
	</g>
	<g>
		<rect x="342.186" y="252.742" fill="#FFFFFF" width="58.955" height="9.942"/>
		<path fill="#EFEFEF" d="M401.304,262.873h-59.281v-10.319h59.281V262.873z M342.349,262.497h58.629v-9.567h-58.629V262.497z"/>
	</g>
	<g>
		<rect x="342.186" y="262.544" fill="#FFFFFF" width="58.955" height="9.943"/>
		<path fill="#EFEFEF" d="M401.304,272.675h-59.281v-10.318h59.281V272.675z M342.349,272.3h58.629v-9.568h-58.629V272.3z"/>
	</g>
	<g>
		<rect x="342.186" y="272.347" fill="#FFFFFF" width="58.955" height="9.943"/>
		<path fill="#EFEFEF" d="M401.304,282.478h-59.281v-10.318h59.281V282.478z M342.349,282.102h58.629v-9.567h-58.629V282.102z"/>
	</g>
	<path fill="#E8E8E8" d="M378.61,239.329h-32.843c-0.54,0-0.976-0.504-0.976-1.126s0.436-1.126,0.976-1.126h32.843
		c0.54,0,0.978,0.504,0.978,1.126S379.15,239.329,378.61,239.329z"/>
	<path fill="#E8E8E8" d="M382.737,278.976h-36.97c-0.54,0-0.976-0.505-0.976-1.126c0-0.622,0.436-1.126,0.976-1.126h36.97
		c0.54,0,0.978,0.504,0.978,1.126C383.715,278.471,383.277,278.976,382.737,278.976z"/>
	<path fill="#E8E8E8" d="M385.507,269.063h-39.739c-0.54,0-0.976-0.504-0.976-1.125c0-0.623,0.436-1.126,0.976-1.126h39.739
		c0.54,0,0.978,0.503,0.978,1.126C386.484,268.56,386.047,269.063,385.507,269.063z"/>
	<path fill="#E8E8E8" d="M376.874,259.151h-31.106c-0.54,0-0.976-0.504-0.976-1.125s0.436-1.126,0.976-1.126h31.106
		c0.54,0,0.978,0.505,0.978,1.126S377.414,259.151,376.874,259.151z"/>
	<path fill="#E8E8E8" d="M385.507,249.24h-39.739c-0.54,0-0.976-0.505-0.976-1.126s0.436-1.125,0.976-1.125h39.739
		c0.54,0,0.978,0.504,0.978,1.125S386.047,249.24,385.507,249.24z"/>
	<path fill="#C6C6C6" d="M370.794,229.698h-25.026c-0.54,0-0.976-0.504-0.976-1.125c0-0.622,0.436-1.127,0.976-1.127h25.026
		c0.54,0,0.978,0.505,0.978,1.127C371.771,229.194,371.334,229.698,370.794,229.698z"/>
</g>
<polyline fill="#FFFFFF" stroke="#EFEFEF" stroke-width="0.3651" stroke-miterlimit="10" points="338.291,231.853 338.291,282.392 
	151.675,282.392 151.675,231.853 "/>
<polyline fill="#FFFFFF" stroke="#EFEFEF" stroke-width="0.3651" stroke-miterlimit="10" points="197.949,231.75 197.949,223.583 
	245.469,223.583 245.469,231.75 "/>
<line fill="none" stroke="#E8E8E8" stroke-width="2.1904" stroke-linecap="round" stroke-miterlimit="10" x1="202.706" y1="227.743" x2="236.242" y2="227.743"/>
<rect x="151.675" y="223.583" fill="#F8F8F8" stroke="#EFEFEF" stroke-width="0.3651" stroke-miterlimit="10" width="46.538" height="8.167"/>
<line fill="none" stroke="#D3D3D3" stroke-width="2.1904" stroke-linecap="round" stroke-miterlimit="10" x1="156.432" y1="227.846" x2="180.022" y2="227.846"/>
<rect x="245.377" y="223.583" fill="#F8F8F8" stroke="#EFEFEF" stroke-width="0.3651" stroke-miterlimit="10" width="46.537" height="8.167"/>
<line fill="none" stroke="#D3D3D3" stroke-width="2.1904" stroke-linecap="round" stroke-miterlimit="10" x1="250.134" y1="227.846" x2="273.723" y2="227.846"/>
<rect x="291.754" y="223.583" fill="#F8F8F8" stroke="#EFEFEF" stroke-width="0.3651" stroke-miterlimit="10" width="46.537" height="8.167"/>
<line fill="none" stroke="#D3D3D3" stroke-width="2.1904" stroke-linecap="round" stroke-miterlimit="10" x1="296.84" y1="227.846" x2="320.429" y2="227.846"/>
<rect x="88.675" y="130.755" fill="#FFFFFF" stroke="#EFEFEF" stroke-width="0.295" stroke-miterlimit="10" width="59.283" height="27.136"/>
<line fill="none" stroke="#E8E8E8" stroke-width="2.1904" stroke-linecap="round" stroke-miterlimit="10" x1="206.078" y1="246.645" x2="279.707" y2="246.645"/>
<line fill="none" stroke="#E8E8E8" stroke-width="2.1904" stroke-linecap="round" stroke-miterlimit="10" x1="205.591" y1="263.409" x2="288.47" y2="263.409"/>
<line fill="none" stroke="#E8E8E8" stroke-width="2.1904" stroke-linecap="round" stroke-miterlimit="10" x1="205.591" y1="259.218" x2="294.677" y2="259.218"/>
<line fill="none" stroke="#E8E8E8" stroke-width="2.1904" stroke-linecap="round" stroke-miterlimit="10" x1="205.591" y1="255.026" x2="275.326" y2="255.026"/>
<line fill="none" stroke="#E8E8E8" stroke-width="2.1904" stroke-linecap="round" stroke-miterlimit="10" x1="205.591" y1="267.6" x2="275.326" y2="267.6"/>
<line fill="none" stroke="#E8E8E8" stroke-width="2.1904" stroke-linecap="round" stroke-miterlimit="10" x1="205.591" y1="250.836" x2="294.677" y2="250.836"/>
<line fill="none" stroke="#E8E8E8" stroke-width="1.7701" stroke-linecap="round" stroke-miterlimit="10" x1="94.621" y1="144.031" x2="126.15" y2="144.031"/>
<line fill="none" stroke="#E8E8E8" stroke-width="1.7701" stroke-linecap="round" stroke-miterlimit="10" x1="94.412" y1="151.602" x2="124.274" y2="151.602"/>
<line fill="none" stroke="#E8E8E8" stroke-width="1.7701" stroke-linecap="round" stroke-miterlimit="10" x1="94.412" y1="147.816" x2="132.56" y2="147.816"/>
<line fill="none" stroke="#C6C6C6" stroke-width="1.7701" stroke-linecap="round" stroke-miterlimit="10" x1="94.412" y1="136.775" x2="118.438" y2="136.775"/>
<path fill="#C6C6C6" d="M1154.55-178.522l-4.455-4.456c-0.288-0.432-0.864-0.432-1.295,0l-0.001,0.001l-1.642-1.642
	c2.734-3.353,2.542-8.375-0.657-11.44c-3.306-3.306-8.77-3.306-12.218,0c-3.307,3.306-3.307,8.769,0,12.218
	c3.104,3.103,8.085,3.254,11.541,0.532l1.655,1.655c-0.396,0.295-0.393,0.845,0.027,1.263l4.455,4.456
	c0.287,0.431,0.861,0.431,1.295,0l1.293-1.293C1154.98-177.516,1154.98-178.091,1154.55-178.522z M1136.151-185.709
	c-2.3-2.444-2.444-6.181,0-8.625c2.443-2.444,6.325-2.444,8.624,0c2.444,2.444,2.444,6.181,0,8.625
	C1142.332-183.265,1138.45-183.265,1136.151-185.709z"/>
<path fill="#4BBF53" d="M178.809,71.49l-5.871-5.871l-2.56,2.557l8.43,8.432l16.447-16.442l-2.561-2.558L178.809,71.49z"/>
<path fill="#C6C6C6" d="M100.253,43.369h-7.032c-0.322,0-0.586-0.264-0.586-0.585l0,0c0-0.323,0.264-0.586,0.586-0.586h7.032
	c0.322,0,0.585,0.264,0.585,0.586l0,0C100.839,43.105,100.575,43.369,100.253,43.369z M100.253,46.299h-7.032
	c-0.322,0-0.586-0.264-0.586-0.586l0,0c0-0.322,0.264-0.586,0.586-0.586h7.032c0.322,0,0.585,0.264,0.585,0.586l0,0
	C100.839,46.035,100.575,46.299,100.253,46.299z M100.253,49.229h-7.032c-0.322,0-0.586-0.264-0.586-0.586l0,0
	c0-0.322,0.264-0.585,0.586-0.585h7.032c0.322,0,0.585,0.264,0.585,0.585l0,0C100.839,48.965,100.575,49.229,100.253,49.229z"/>
<rect x="221.468" y="45.139" fill="#F8F8F8" stroke="#F8F8F8" stroke-width="1.5" stroke-linecap="round" stroke-linejoin="round" stroke-miterlimit="10" width="46" height="12"/>
<g>
	<path fill="#C84D30" d="M264.105,53.033c-0.079,0-0.159-0.03-0.22-0.091l-3.274-3.275c-0.121-0.122-0.121-0.319,0-0.44
		c0.12-0.122,0.318-0.122,0.438,0l3.275,3.275c0.122,0.122,0.122,0.318,0,0.439C264.265,53.002,264.186,53.033,264.105,53.033z"/>
	<path fill="#C84D30" d="M260.83,53.033c-0.08,0-0.159-0.031-0.219-0.091c-0.123-0.122-0.123-0.319,0-0.439l3.274-3.275
		c0.122-0.122,0.318-0.122,0.439,0c0.122,0.121,0.122,0.318,0,0.439l-3.275,3.275C260.99,53.002,260.909,53.033,260.83,53.033z"/>
</g>
<rect x="221.468" y="60.314" fill="#F8F8F8" stroke="#F8F8F8" stroke-width="1.5" stroke-linecap="round" stroke-linejoin="round" stroke-miterlimit="10" width="46" height="12"/>
<g>
	<path fill="#C84D30" d="M264.32,68.464c-0.09,0-0.181-0.034-0.249-0.104l-3.704-3.705c-0.137-0.138-0.137-0.361,0-0.498
		c0.136-0.138,0.36-0.138,0.497,0l3.704,3.706c0.139,0.137,0.139,0.359,0,0.497C264.5,68.429,264.411,68.464,264.32,68.464z"/>
	<path fill="#C84D30" d="M260.615,68.464c-0.091,0-0.18-0.035-0.248-0.104c-0.139-0.137-0.139-0.36,0-0.497l3.704-3.706
		c0.139-0.138,0.361-0.138,0.497,0c0.139,0.137,0.139,0.36,0,0.498l-3.704,3.705C260.796,68.429,260.705,68.464,260.615,68.464z"/>
</g>
<rect x="221.468" y="75.477" fill="#F8F8F8" stroke="#F8F8F8" stroke-width="1.5" stroke-linecap="round" stroke-linejoin="round" stroke-miterlimit="10" width="46" height="12"/>
<g>
	<path fill="#C84D30" d="M264.105,83.371c-0.079,0-0.16-0.03-0.22-0.091l-3.275-3.275c-0.12-0.122-0.12-0.319,0-0.44
		c0.121-0.122,0.319-0.122,0.439,0l3.275,3.275c0.122,0.122,0.122,0.318,0,0.439C264.265,83.34,264.186,83.371,264.105,83.371z"/>
	<path fill="#C84D30" d="M260.83,83.371c-0.08,0-0.159-0.031-0.22-0.091c-0.122-0.122-0.122-0.319,0-0.439l3.275-3.275
		c0.122-0.122,0.318-0.122,0.439,0c0.122,0.121,0.122,0.318,0,0.439l-3.275,3.275C260.99,83.34,260.909,83.371,260.83,83.371z"/>
</g>
<rect x="88.77" y="98.609" fill="#B9DDEA" width="59.094" height="32.146"/>
<line fill="none" stroke="#A3C3CC" stroke-width="0.59" stroke-miterlimit="10" x1="88.77" y1="98.609" x2="147.864" y2="130.755"/>
<line fill="none" stroke="#A3C3CC" stroke-width="0.59" stroke-miterlimit="10" x1="88.77" y1="130.755" x2="147.864" y2="98.609"/>
<g>
	<rect x="280.226" y="163.943" fill="#B9DDEA" width="54.849" height="53.279"/>
	
		<line fill="none" stroke="#A3C3CC" stroke-width="0.7318" stroke-miterlimit="10" x1="280.226" y1="163.943" x2="335.074" y2="217.223"/>
	
		<line fill="none" stroke="#A3C3CC" stroke-width="0.7318" stroke-miterlimit="10" x1="280.226" y1="217.223" x2="335.074" y2="163.943"/>
</g>
<g>
	<path fill="#DDDDDD" d="M1540.375,226.09h-11.85l45.899-106.199h10.5l45.601,106.199h-12l-11.701-27.898h-54.898L1540.375,226.09z
		 M1555.975,188.291h46.801l-23.4-56.4L1555.975,188.291z"/>
	<path fill="#DDDDDD" d="M1689.774,180.656c0-6.054-1.601-10.57-4.8-13.549c-3.201-2.978-7.853-4.468-13.95-4.468
		c-4.2,0-8.101,0.75-11.7,2.25c-3.599,1.5-6.65,3.502-9.149,6l-5.699-6.75c2.897-2.898,6.725-5.299,11.475-7.199
		c4.748-1.898,10.125-2.852,16.125-2.852c3.799,0,7.351,0.525,10.65,1.576c3.3,1.049,6.199,2.625,8.699,4.725
		c2.499,2.101,4.448,4.75,5.851,7.949c1.399,3.202,2.101,6.952,2.101,11.25v30.75c0,2.701,0.099,5.502,0.3,8.4
		c0.198,2.901,0.5,5.352,0.899,7.35h-9.149c-0.3-1.699-0.552-3.548-0.75-5.549c-0.201-2-0.3-3.949-0.3-5.852h-0.301
		c-3.201,4.702-6.824,8.077-10.875,10.125c-4.05,2.049-8.925,3.075-14.625,3.075c-2.699,0-5.475-0.377-8.324-1.127
		c-2.851-0.753-5.452-1.979-7.801-3.688c-2.351-1.706-4.301-3.914-5.85-6.623c-1.552-2.709-2.325-6.021-2.325-9.935
		c0-5.418,1.374-9.707,4.125-12.866c2.749-3.158,6.425-5.518,11.024-7.072c4.6-1.558,9.875-2.562,15.825-3.012
		c5.947-0.451,12.123-0.679,18.524-0.679V180.656L1689.774,180.656z M1686.774,190.99c-4.2,0-8.426,0.176-12.675,0.524
		c-4.252,0.353-8.101,1.051-11.551,2.101c-3.449,1.051-6.275,2.576-8.476,4.575c-2.201,2.001-3.3,4.648-3.3,7.949
		c0,2.5,0.474,4.602,1.425,6.301c0.949,1.701,2.226,3.074,3.825,4.125c1.599,1.05,3.375,1.8,5.325,2.25
		c1.948,0.449,3.924,0.675,5.925,0.675c3.601,0,6.8-0.623,9.601-1.875c2.798-1.249,5.148-2.948,7.049-5.101
		c1.898-2.148,3.351-4.625,4.352-7.426c0.999-2.798,1.5-5.748,1.5-8.85v-5.25L1686.774,190.99L1686.774,190.99z"/>
</g>
<g>
	<circle fill="#B9DDEA" cx="177.022" cy="257.447" r="15.417"/>
	
		<line fill="none" stroke="#A3C3CC" stroke-width="0.571" stroke-miterlimit="10" x1="166.163" y1="246.588" x2="187.881" y2="268.306"/>
	
		<line fill="none" stroke="#A3C3CC" stroke-width="0.571" stroke-miterlimit="10" x1="166.163" y1="268.306" x2="187.881" y2="246.588"/>
</g>
<g>
	
		<line fill="none" stroke="#FFFFFF" stroke-width="4.8461" stroke-linecap="round" stroke-miterlimit="10" x1="96.228" y1="168.555" x2="114.75" y2="168.555"/>
	<circle fill="#C84D30" cx="96.325" cy="168.556" r="1.39"/>
	
		<line fill="none" stroke="#DFDFDF" stroke-width="1.6154" stroke-linecap="round" stroke-miterlimit="10" x1="99.459" y1="168.555" x2="114.128" y2="168.555"/>
</g>
<g>
	
		<line fill="none" stroke="#FFFFFF" stroke-width="4.8461" stroke-linecap="round" stroke-miterlimit="10" x1="96.228" y1="178.118" x2="125.089" y2="178.118"/>
	<circle fill="#E99141" cx="96.13" cy="178.205" r="1.39"/>
	
		<line fill="none" stroke="#DFDFDF" stroke-width="1.6154" stroke-linecap="round" stroke-miterlimit="10" x1="99.459" y1="178.118" x2="125.089" y2="178.118"/>
</g>
<g>
	
		<line fill="none" stroke="#FFFFFF" stroke-width="4.8461" stroke-linecap="round" stroke-miterlimit="10" x1="96.228" y1="187.896" x2="109.151" y2="187.896"/>
	<circle fill="#FEE864" cx="96.443" cy="187.854" r="1.39"/>
	
		<line fill="none" stroke="#DFDFDF" stroke-width="1.6154" stroke-linecap="round" stroke-miterlimit="10" x1="99.459" y1="187.896" x2="109.151" y2="187.896"/>
</g>
<g>
	
		<line fill="none" stroke="#FFFFFF" stroke-width="4.8461" stroke-linecap="round" stroke-miterlimit="10" x1="96.228" y1="197.459" x2="122.074" y2="197.459"/>
	<circle fill="#CCDE91" cx="96.443" cy="197.502" r="1.39"/>
	
		<line fill="none" stroke="#DFDFDF" stroke-width="1.6154" stroke-linecap="round" stroke-miterlimit="10" x1="99.459" y1="197.459" x2="121.212" y2="197.459"/>
</g>
<g>
	
		<line fill="none" stroke="#FFFFFF" stroke-width="4.8461" stroke-linecap="round" stroke-miterlimit="10" x1="96.228" y1="206.709" x2="128.75" y2="206.709"/>
	<circle fill="#A3C855" cx="96.228" cy="207.151" r="1.39"/>
	
		<line fill="none" stroke="#DFDFDF" stroke-width="1.6154" stroke-linecap="round" stroke-miterlimit="10" x1="99.459" y1="206.709" x2="127.889" y2="206.709"/>
</g>
<g>
	
		<line fill="none" stroke="#FFFFFF" stroke-width="4.8461" stroke-linecap="round" stroke-miterlimit="10" x1="96.228" y1="216.585" x2="119.92" y2="216.585"/>
	<circle fill="#3EA349" cx="96.443" cy="216.801" r="1.39"/>
	
		<line fill="none" stroke="#DFDFDF" stroke-width="1.6154" stroke-linecap="round" stroke-miterlimit="10" x1="99.459" y1="216.585" x2="118.843" y2="216.585"/>
</g>
<g>
	
		<line fill="none" stroke="#FFFFFF" stroke-width="4.8461" stroke-linecap="round" stroke-miterlimit="10" x1="95.535" y1="60.187" x2="119.227" y2="60.187"/>
	<circle fill="#3EA349" cx="95.75" cy="60.403" r="1.39"/>
	
		<line fill="none" stroke="#DFDFDF" stroke-width="1.6154" stroke-linecap="round" stroke-miterlimit="10" x1="98.766" y1="60.187" x2="118.15" y2="60.187"/>
</g>
<g>
	
		<line fill="none" stroke="#FFFFFF" stroke-width="4.8461" stroke-linecap="round" stroke-miterlimit="10" x1="95.535" y1="66.269" x2="119.227" y2="66.269"/>
	<circle fill="#3EA349" cx="95.75" cy="66.484" r="1.39"/>
	
		<line fill="none" stroke="#DFDFDF" stroke-width="1.6154" stroke-linecap="round" stroke-miterlimit="10" x1="98.766" y1="66.269" x2="118.15" y2="66.269"/>
</g>
<g>
	
		<line fill="none" stroke="#FFFFFF" stroke-width="4.8461" stroke-linecap="round" stroke-miterlimit="10" x1="95.535" y1="72.35" x2="119.227" y2="72.35"/>
	<circle fill="#3EA349" cx="95.75" cy="72.566" r="1.39"/>
	
		<line fill="none" stroke="#DFDFDF" stroke-width="1.6154" stroke-linecap="round" stroke-miterlimit="10" x1="98.766" y1="72.35" x2="118.15" y2="72.35"/>
</g>
<g>
	
		<line fill="none" stroke="#FFFFFF" stroke-width="4.8461" stroke-linecap="round" stroke-miterlimit="10" x1="96.228" y1="225.627" x2="114.75" y2="225.627"/>
	<circle fill="#C84D30" cx="96.325" cy="225.628" r="1.39"/>
	
		<line fill="none" stroke="#DFDFDF" stroke-width="1.6154" stroke-linecap="round" stroke-miterlimit="10" x1="99.459" y1="225.627" x2="114.128" y2="225.627"/>
</g>
<g>
	
		<line fill="none" stroke="#FFFFFF" stroke-width="4.8461" stroke-linecap="round" stroke-miterlimit="10" x1="96.228" y1="235.19" x2="125.089" y2="235.19"/>
	<circle fill="#E99141" cx="96.13" cy="235.277" r="1.39"/>
	
		<line fill="none" stroke="#DFDFDF" stroke-width="1.6154" stroke-linecap="round" stroke-miterlimit="10" x1="99.459" y1="235.19" x2="125.089" y2="235.19"/>
</g>
<g>
	
		<line fill="none" stroke="#FFFFFF" stroke-width="4.8461" stroke-linecap="round" stroke-miterlimit="10" x1="96.228" y1="244.969" x2="109.151" y2="244.969"/>
	<circle fill="#FEE864" cx="96.443" cy="244.926" r="1.39"/>
	
		<line fill="none" stroke="#DFDFDF" stroke-width="1.6154" stroke-linecap="round" stroke-miterlimit="10" x1="99.459" y1="244.969" x2="109.151" y2="244.969"/>
</g>
<g>
	
		<line fill="none" stroke="#FFFFFF" stroke-width="4.8461" stroke-linecap="round" stroke-miterlimit="10" x1="96.228" y1="254.531" x2="122.074" y2="254.531"/>
	<circle fill="#CCDE91" cx="96.443" cy="254.574" r="1.39"/>
	
		<line fill="none" stroke="#DFDFDF" stroke-width="1.6154" stroke-linecap="round" stroke-miterlimit="10" x1="99.459" y1="254.531" x2="121.212" y2="254.531"/>
</g>
<g>
	
		<line fill="none" stroke="#FFFFFF" stroke-width="4.8461" stroke-linecap="round" stroke-miterlimit="10" x1="96.228" y1="263.781" x2="128.75" y2="263.781"/>
	<circle fill="#A3C855" cx="96.228" cy="264.224" r="1.39"/>
	
		<line fill="none" stroke="#DFDFDF" stroke-width="1.6154" stroke-linecap="round" stroke-miterlimit="10" x1="99.459" y1="263.781" x2="127.889" y2="263.781"/>
</g>
<g>
	
		<line fill="none" stroke="#FFFFFF" stroke-width="4.8461" stroke-linecap="round" stroke-miterlimit="10" x1="96.228" y1="273.657" x2="119.92" y2="273.657"/>
	<circle fill="#3EA349" cx="96.443" cy="273.873" r="1.39"/>
	
		<line fill="none" stroke="#DFDFDF" stroke-width="1.6154" stroke-linecap="round" stroke-miterlimit="10" x1="99.459" y1="273.657" x2="118.843" y2="273.657"/>
</g>
<rect x="151.676" y="98.608" fill="#FFFFFF" stroke="#EFEFEF" stroke-width="0.4992" stroke-miterlimit="10" width="122.654" height="121.333"/>
<rect x="211.118" y="196.682" fill="#007AC2" stroke="#007AB7" stroke-width="0.4992" stroke-miterlimit="10" width="20.748" height="12.27"/>
<rect x="235.684" y="196.682" fill="none" stroke="#007AB7" stroke-width="0.4992" stroke-miterlimit="10" width="29.67" height="12.27"/>
<rect x="113.45" y="84.152" fill="#007AC2" stroke="#007AB7" stroke-width="0.2706" stroke-miterlimit="10" width="11.246" height="6.65"/>
<rect x="126.765" y="84.152" fill="none" stroke="#007AB7" stroke-width="0.2706" stroke-miterlimit="10" width="16.082" height="6.65"/>
<line fill="none" stroke="#E8E8E8" stroke-width="2.9955" stroke-linecap="round" stroke-miterlimit="10" x1="164.983" y1="127.395" x2="212.621" y2="127.395"/>
<line fill="none" stroke="#E8E8E8" stroke-width="2.9955" stroke-linecap="round" stroke-miterlimit="10" x1="166.243" y1="183.14" x2="202.873" y2="183.14"/>
<line fill="none" stroke="#E8E8E8" stroke-width="2.9955" stroke-linecap="round" stroke-miterlimit="10" x1="164.667" y1="156.094" x2="218.291" y2="156.094"/>
<line fill="none" stroke="#E8E8E8" stroke-width="2.9955" stroke-linecap="round" stroke-miterlimit="10" x1="164.667" y1="148.919" x2="222.307" y2="148.919"/>
<line fill="none" stroke="#E8E8E8" stroke-width="2.9955" stroke-linecap="round" stroke-miterlimit="10" x1="164.667" y1="141.745" x2="209.786" y2="141.745"/>
<line fill="none" stroke="#E8E8E8" stroke-width="2.9955" stroke-linecap="round" stroke-miterlimit="10" x1="164.667" y1="163.27" x2="209.786" y2="163.27"/>
<line fill="none" stroke="#E8E8E8" stroke-width="2.9955" stroke-linecap="round" stroke-miterlimit="10" x1="164.667" y1="134.57" x2="222.307" y2="134.57"/>
<line fill="none" stroke="#C6C6C6" stroke-width="2.9955" stroke-linecap="round" stroke-miterlimit="10" x1="164.667" y1="113.643" x2="200.967" y2="113.643"/>
<line fill="none" stroke="#E8E8E8" stroke-width="2.9955" stroke-linecap="round" stroke-miterlimit="10" x1="346.171" y1="59.933" x2="393.809" y2="59.933"/>
<line fill="none" stroke="#E8E8E8" stroke-width="2.3772" stroke-linecap="round" stroke-miterlimit="10" x1="345.855" y1="81.458" x2="382.154" y2="81.458"/>
<line fill="none" stroke="#E8E8E8" stroke-width="2.9955" stroke-linecap="round" stroke-miterlimit="10" x1="345.855" y1="74.283" x2="390.975" y2="74.283"/>
<line fill="none" stroke="#E8E8E8" stroke-width="2.5308" stroke-linecap="round" stroke-miterlimit="10" x1="345.855" y1="67.108" x2="387" y2="67.108"/>
<line fill="none" stroke="#C6C6C6" stroke-width="2.9955" stroke-linecap="round" stroke-miterlimit="10" x1="345.855" y1="46.181" x2="382.154" y2="46.181"/>
<g>
	<path fill="#007AC2" d="M263.968,117.112c-0.186,0-0.368-0.07-0.509-0.211l-7.564-7.563c-0.281-0.28-0.281-0.734,0-1.015
		c0.28-0.28,0.735-0.281,1.015,0l7.564,7.563c0.28,0.28,0.28,0.735,0,1.015C264.335,117.042,264.15,117.112,263.968,117.112z"/>
	<path fill="#007AC2" d="M256.402,117.111c-0.185,0-0.367-0.07-0.508-0.21c-0.281-0.281-0.281-0.735,0-1.015l7.564-7.563
		c0.28-0.281,0.735-0.281,1.015,0c0.28,0.281,0.28,0.735,0,1.015l-7.565,7.563C256.77,117.041,256.585,117.111,256.402,117.111z"/>
</g>
<circle fill="#00B1DC" cx="309.964" cy="129.545" r="19.639"/>
<path fill="#B9DDEA" stroke="#FFFFFF" stroke-width="3.0405" stroke-miterlimit="10" d="M309.964,129.545h18.973
	c0-10.479-8.494-18.973-18.973-18.973s-18.973,8.495-18.973,18.973s8.494,18.973,18.973,18.973c3.122,0,6.063-0.758,8.66-2.093
	L309.964,129.545z"/>
<path fill="#4BBF53" stroke="#FFFFFF" stroke-miterlimit="10" d="M310.964,129.545h22.301c0-12.316-9.984-22.301-22.301-22.301
	c-2.607,0-5.108,0.452-7.434,1.274L310.964,129.545z"/>
<circle fill="#FFFFFF" cx="309.964" cy="129.545" r="12.465"/>
<line fill="none" stroke="#E8E8E8" stroke-width="2.5308" stroke-linecap="round" stroke-miterlimit="10" x1="333.326" y1="142.031" x2="380.562" y2="142.031"/>
<line fill="none" stroke="#E8E8E8" stroke-width="2.5308" stroke-linecap="round" stroke-miterlimit="10" x1="335.265" y1="114.697" x2="382.5" y2="114.697"/>
<line fill="none" stroke="#E8E8E8" stroke-width="2.303" stroke-linecap="round" stroke-miterlimit="10" x1="343.388" y1="120.5" x2="382.5" y2="120.5"/>
</svg>
