<svg xmlns="http://www.w3.org/2000/svg" width="480" height="320" viewBox="0 0 480 320"><path fill="#CCDE91" d="M0-1h480v321H0z"/><path fill="none" stroke="#FFF" stroke-width="15" stroke-linecap="round" stroke-miterlimit="10" d="M19.304-189.666h87.332"/><circle fill="#007AC2" cx="19.604" cy="-189.665" r="4.303"/><path fill="none" stroke="#DFDFDF" stroke-width="5" stroke-linecap="round" stroke-miterlimit="10" d="M29.304-189.666h75.404"/><path fill="none" stroke="#FFF" stroke-width="15" stroke-linecap="round" stroke-miterlimit="10" d="M19.304-159.798h79.332"/><circle fill="#00B1DC" cx="18.999" cy="-159.798" r="4.303"/><path fill="none" stroke="#DFDFDF" stroke-width="5" stroke-linecap="round" stroke-miterlimit="10" d="M29.304-159.798h69.332"/><path fill="none" stroke="#FFF" stroke-width="15" stroke-linecap="round" stroke-miterlimit="10" d="M19.304-129.798h100"/><circle fill="#B9DDEA" cx="19.969" cy="-129.931" r="4.302"/><path fill="none" stroke="#DFDFDF" stroke-width="5" stroke-linecap="round" stroke-miterlimit="10" d="M29.304-129.798h90"/><path fill="none" stroke="#FFF" stroke-width="15" stroke-linecap="round" stroke-miterlimit="10" d="M19.304-100.199h60"/><circle fill="#EFEFEF" cx="19.969" cy="-100.066" r="4.302"/><path fill="none" stroke="#DFDFDF" stroke-width="5" stroke-linecap="round" stroke-miterlimit="10" d="M29.304-100.199h47.332"/><path fill="none" stroke="#FFF" stroke-width="15" stroke-linecap="round" stroke-miterlimit="10" d="M19.304-71.568H99.97"/><circle fill="#CCC" cx="19.303" cy="-70.198" r="4.304"/><path fill="none" stroke="#DFDFDF" stroke-width="5" stroke-linecap="round" stroke-miterlimit="10" d="M29.304-71.568h67.998"/><path fill="none" stroke="#FFF" stroke-width="15" stroke-linecap="round" stroke-miterlimit="10" d="M19.304-40.999h103.332"/><circle fill="#4C4C4C" cx="19.97" cy="-40.332" r="4.303"/><path fill="none" stroke="#DFDFDF" stroke-width="5" stroke-linecap="round" stroke-miterlimit="10" d="M29.304-40.999h89.998"/><path fill="#FFF" d="M88.675 36.608h59.282V95.89H88.675zM151.675 36.608h59.283V95.89h-59.283zM88.675 98.608h59.283v59.283H88.675zM151.675 98.608H274.33v121.333H151.675zM278.342 98.608h122.654v59.283H278.342zM151.675 223.108h186.616v59.283H151.675zM214.688 36.608h59.282V95.89h-59.282zM278.009 160.941h59.282v59.282h-59.282zM342.021 160.941h59.283v121.45h-59.283zM88.675 160.941h59.283v121.45H88.675zM277.701 36.608h59.281V95.89h-59.281zM340.713 36.608h59.283V95.89h-59.283z"/><path fill="#F8F8F8" d="M277.864 36.796h58.955v9.943h-58.955z"/><path fill="#EFEFEF" d="M336.982 46.926h-59.281V36.608h59.281v10.318zm-58.955-.374h58.629v-9.568h-58.629v9.568z"/><path fill="#FFF" d="M277.864 46.552h58.955v9.942h-58.955z"/><path fill="#EFEFEF" d="M336.982 56.682h-59.281V46.364h59.281v10.318zm-58.955-.376h58.629v-9.567h-58.629v9.567z"/><path fill="#FFF" d="M277.864 56.354h58.955v9.943h-58.955z"/><path fill="#EFEFEF" d="M336.982 66.484h-59.281V56.166h59.281v10.318zm-58.955-.375h58.629v-9.567h-58.629v9.567z"/><path fill="#FFF" d="M277.864 66.156h58.955v9.943h-58.955z"/><path fill="#EFEFEF" d="M336.982 76.287h-59.281V65.968h59.281v10.319zm-58.955-.376h58.629v-9.568h-58.629v9.568z"/><path fill="#FFF" d="M277.864 75.958h58.955v9.943h-58.955z"/><path fill="#EFEFEF" d="M336.982 86.088h-59.281V75.771h59.281v10.317zm-58.955-.375h58.629v-9.568h-58.629v9.568z"/><path fill="#FFF" d="M277.864 85.76h58.955v9.943h-58.955z"/><path fill="#EFEFEF" d="M336.982 95.891h-59.281V85.573h59.281v10.318zm-58.955-.376h58.629v-9.568h-58.629v9.568z"/><path fill="#E8E8E8" d="M314.289 52.742h-32.843c-.54 0-.976-.503-.976-1.125s.436-1.125.976-1.125h32.843c.54 0 .978.503.978 1.125s-.438 1.125-.978 1.125zM318.416 92.389h-36.97c-.54 0-.976-.504-.976-1.125 0-.622.436-1.126.976-1.126h36.97c.54 0 .978.504.978 1.126 0 .62-.438 1.125-.978 1.125zM321.186 82.477h-39.739c-.54 0-.976-.504-.976-1.125 0-.622.436-1.125.976-1.125h39.739c.54 0 .978.503.978 1.125-.001.621-.438 1.125-.978 1.125zM312.553 72.565h-31.106c-.54 0-.976-.504-.976-1.126 0-.621.436-1.125.976-1.125h31.106c.54 0 .978.504.978 1.125-.001.623-.438 1.126-.978 1.126zM321.186 62.654h-39.739c-.54 0-.976-.504-.976-1.125 0-.622.436-1.126.976-1.126h39.739c.54 0 .978.504.978 1.126-.001.62-.438 1.125-.978 1.125z"/><path fill="#C6C6C6" d="M306.473 43.112h-25.026c-.54 0-.976-.504-.976-1.125 0-.622.436-1.126.976-1.126h25.026c.54 0 .978.504.978 1.126-.001.62-.438 1.125-.978 1.125z"/><path fill="#FFF" d="M342.022 160.941h59.281v59.283h-59.281z"/><path fill="#F8F8F8" d="M342.186 161.139h58.955v10.484h-58.955z"/><path fill="#EFEFEF" d="M401.304 171.82h-59.281v-10.879h59.281v10.879zm-58.955-.395h58.629v-10.087h-58.629v10.087z"/><path fill="#FFF" d="M342.186 171.425h58.955v10.484h-58.955z"/><path fill="#EFEFEF" d="M401.304 182.106h-59.281v-10.879h59.281v10.879zm-58.955-.396h58.629v-10.087h-58.629v10.087z"/><path fill="#FFF" d="M342.186 181.761h58.955v10.482h-58.955z"/><path fill="#EFEFEF" d="M401.304 192.441h-59.281v-10.879h59.281v10.879zm-58.955-.395h58.629v-10.088h-58.629v10.088z"/><path fill="#FFF" d="M342.186 192.095h58.955v10.483h-58.955z"/><path fill="#EFEFEF" d="M401.304 202.776h-59.281v-10.88h59.281v10.88zm-58.955-.396h58.629v-10.087h-58.629v10.087z"/><path fill="#FFF" d="M342.186 202.43h58.955v10.483h-58.955z"/><path fill="#EFEFEF" d="M401.304 213.111h-59.281v-10.88h59.281v10.88zm-58.955-.395h58.629v-10.089h-58.629v10.089z"/><path fill="#FFF" d="M342.186 212.765h58.955v10.484h-58.955z"/><path fill="#EFEFEF" d="M401.304 223.446h-59.281v-10.879h59.281v10.879zm-58.955-.396h58.629v-10.087h-58.629v10.087z"/><path fill="#E8E8E8" d="M378.61 177.953h-32.843c-.54 0-.976-.531-.976-1.188 0-.655.436-1.187.976-1.187h32.843c.54 0 .978.531.978 1.187 0 .657-.438 1.188-.978 1.188zM382.737 219.754h-36.97c-.54 0-.976-.532-.976-1.188s.436-1.187.976-1.187h36.97c.54 0 .978.531.978 1.187s-.438 1.188-.978 1.188zM385.507 209.304h-39.739c-.54 0-.976-.532-.976-1.187 0-.657.436-1.188.976-1.188h39.739c.54 0 .978.53.978 1.188-.001.654-.438 1.187-.978 1.187zM376.874 198.853h-31.106c-.54 0-.976-.531-.976-1.187 0-.654.436-1.187.976-1.187h31.106c.54 0 .978.532.978 1.187s-.438 1.187-.978 1.187zM385.507 188.402h-39.739c-.54 0-.976-.532-.976-1.187s.436-1.187.976-1.187h39.739c.54 0 .978.531.978 1.187-.001.655-.438 1.187-.978 1.187z"/><path fill="#C6C6C6" d="M370.794 167.799h-25.026c-.54 0-.976-.531-.976-1.187s.436-1.188.976-1.188h25.026c.54 0 .978.532.978 1.188s-.438 1.187-.978 1.187z"/><path fill="#FFF" d="M342.022 220.194h59.281v59.283h-59.281z"/><path fill="#F8F8F8" d="M342.186 223.382h58.955v9.943h-58.955z"/><path fill="#EFEFEF" d="M401.304 233.513h-59.281v-10.318h59.281v10.318zm-58.955-.375h58.629v-9.567h-58.629v9.567z"/><path fill="#FFF" d="M342.186 233.138h58.955v9.943h-58.955z"/><path fill="#EFEFEF" d="M401.304 243.269h-59.281V232.95h59.281v10.319zm-58.955-.376h58.629v-9.567h-58.629v9.567z"/><path fill="#FFF" d="M342.186 242.94h58.955v9.942h-58.955z"/><path fill="#EFEFEF" d="M401.304 253.07h-59.281v-10.317h59.281v10.317zm-58.955-.375h58.629v-9.567h-58.629v9.567z"/><path fill="#FFF" d="M342.186 252.742h58.955v9.942h-58.955z"/><path fill="#EFEFEF" d="M401.304 262.873h-59.281v-10.319h59.281v10.319zm-58.955-.376h58.629v-9.567h-58.629v9.567z"/><path fill="#FFF" d="M342.186 262.544h58.955v9.943h-58.955z"/><path fill="#EFEFEF" d="M401.304 272.675h-59.281v-10.318h59.281v10.318zm-58.955-.375h58.629v-9.568h-58.629v9.568z"/><path fill="#FFF" d="M342.186 272.347h58.955v9.943h-58.955z"/><path fill="#EFEFEF" d="M401.304 282.478h-59.281V272.16h59.281v10.318zm-58.955-.376h58.629v-9.567h-58.629v9.567z"/><path fill="#E8E8E8" d="M378.61 239.329h-32.843c-.54 0-.976-.504-.976-1.126s.436-1.126.976-1.126h32.843c.54 0 .978.504.978 1.126s-.438 1.126-.978 1.126zM382.737 278.976h-36.97c-.54 0-.976-.505-.976-1.126 0-.622.436-1.126.976-1.126h36.97c.54 0 .978.504.978 1.126 0 .621-.438 1.126-.978 1.126zM385.507 269.063h-39.739c-.54 0-.976-.504-.976-1.125 0-.623.436-1.126.976-1.126h39.739c.54 0 .978.503.978 1.126-.001.622-.438 1.125-.978 1.125zM376.874 259.151h-31.106c-.54 0-.976-.504-.976-1.125s.436-1.126.976-1.126h31.106c.54 0 .978.505.978 1.126s-.438 1.125-.978 1.125zM385.507 249.24h-39.739c-.54 0-.976-.505-.976-1.126s.436-1.125.976-1.125h39.739c.54 0 .978.504.978 1.125s-.438 1.126-.978 1.126z"/><path fill="#C6C6C6" d="M370.794 229.698h-25.026c-.54 0-.976-.504-.976-1.125 0-.622.436-1.127.976-1.127h25.026c.54 0 .978.505.978 1.127-.001.621-.438 1.125-.978 1.125z"/><path fill="#FFF" stroke="#EFEFEF" stroke-width=".365" stroke-miterlimit="10" d="M338.291 231.853v50.539H151.675v-50.539M197.949 231.75v-8.167h47.52v8.167"/><path fill="none" stroke="#E8E8E8" stroke-width="2.19" stroke-linecap="round" stroke-miterlimit="10" d="M202.706 227.743h33.536"/><path fill="#F8F8F8" stroke="#EFEFEF" stroke-width=".365" stroke-miterlimit="10" d="M151.675 223.583h46.538v8.167h-46.538z"/><path fill="none" stroke="#D3D3D3" stroke-width="2.19" stroke-linecap="round" stroke-miterlimit="10" d="M156.432 227.846h23.59"/><path fill="#F8F8F8" stroke="#EFEFEF" stroke-width=".365" stroke-miterlimit="10" d="M245.377 223.583h46.537v8.167h-46.537z"/><path fill="none" stroke="#D3D3D3" stroke-width="2.19" stroke-linecap="round" stroke-miterlimit="10" d="M250.134 227.846h23.589"/><path fill="#F8F8F8" stroke="#EFEFEF" stroke-width=".365" stroke-miterlimit="10" d="M291.754 223.583h46.537v8.167h-46.537z"/><path fill="none" stroke="#D3D3D3" stroke-width="2.19" stroke-linecap="round" stroke-miterlimit="10" d="M296.84 227.846h23.589"/><path fill="#FFF" stroke="#EFEFEF" stroke-width=".295" stroke-miterlimit="10" d="M88.675 130.755h59.283v27.136H88.675z"/><path fill="none" stroke="#E8E8E8" stroke-width="2.19" stroke-linecap="round" stroke-miterlimit="10" d="M206.078 246.645h73.629M205.591 263.409h82.879M205.591 259.218h89.086M205.591 255.026h69.735M205.591 267.6h69.735M205.591 250.836h89.086"/><path fill="none" stroke="#E8E8E8" stroke-width="1.77" stroke-linecap="round" stroke-miterlimit="10" d="M94.621 144.031h31.529M94.412 151.602h29.862M94.412 147.816h38.148"/><path fill="none" stroke="#C6C6C6" stroke-width="1.77" stroke-linecap="round" stroke-miterlimit="10" d="M94.412 136.775h24.026"/><path fill="#C6C6C6" d="M1154.55-178.522l-4.455-4.456c-.288-.432-.864-.432-1.295 0l-.001.001-1.642-1.642c2.734-3.353 2.542-8.375-.657-11.44-3.306-3.306-8.77-3.306-12.218 0-3.307 3.306-3.307 8.769 0 12.218 3.104 3.103 8.085 3.254 11.541.532l1.655 1.655c-.396.295-.393.845.027 1.263l4.455 4.456c.287.431.861.431 1.295 0l1.293-1.293c.432-.288.432-.863.002-1.294zm-18.399-7.187c-2.3-2.444-2.444-6.181 0-8.625 2.443-2.444 6.325-2.444 8.624 0 2.444 2.444 2.444 6.181 0 8.625-2.443 2.444-6.325 2.444-8.624 0z"/><path fill="#4BBF53" d="M178.809 71.49l-5.871-5.871-2.56 2.557 8.43 8.432 16.447-16.442-2.561-2.558-13.885 13.882z"/><path fill="#C6C6C6" d="M100.253 43.369h-7.032a.588.588 0 0 1-.586-.585c0-.323.264-.586.586-.586h7.032a.586.586 0 0 1 0 1.171zm0 2.93h-7.032a.588.588 0 0 1-.586-.586c0-.322.264-.586.586-.586h7.032a.587.587 0 0 1 0 1.172zm0 2.93h-7.032a.588.588 0 0 1-.586-.586c0-.322.264-.585.586-.585h7.032a.587.587 0 0 1 0 1.171z"/><path fill="#F8F8F8" stroke="#F8F8F8" stroke-width="1.5" stroke-linecap="round" stroke-linejoin="round" stroke-miterlimit="10" d="M221.468 45.139h46v12h-46z"/><g fill="#C84D30"><path d="M264.105 53.033a.31.31 0 0 1-.22-.091l-3.274-3.275a.312.312 0 0 1 0-.44.308.308 0 0 1 .438 0l3.275 3.275a.309.309 0 0 1 0 .439.303.303 0 0 1-.219.092z"/><path d="M260.83 53.033a.309.309 0 0 1-.219-.091.307.307 0 0 1 0-.439l3.274-3.275a.309.309 0 0 1 .439 0 .309.309 0 0 1 0 .439l-3.275 3.275a.309.309 0 0 1-.219.091z"/></g><path fill="#F8F8F8" stroke="#F8F8F8" stroke-width="1.5" stroke-linecap="round" stroke-linejoin="round" stroke-miterlimit="10" d="M221.468 60.314h46v12h-46z"/><g fill="#C84D30"><path d="M264.32 68.464a.346.346 0 0 1-.249-.104l-3.704-3.705a.353.353 0 0 1 0-.498.35.35 0 0 1 .497 0l3.704 3.706a.348.348 0 0 1 0 .497.346.346 0 0 1-.248.104z"/><path d="M260.615 68.464a.346.346 0 0 1-.248-.104.348.348 0 0 1 0-.497l3.704-3.706a.35.35 0 0 1 .497 0 .35.35 0 0 1 0 .498l-3.704 3.705a.35.35 0 0 1-.249.104z"/></g><path fill="#F8F8F8" stroke="#F8F8F8" stroke-width="1.5" stroke-linecap="round" stroke-linejoin="round" stroke-miterlimit="10" d="M221.468 75.477h46v12h-46z"/><g fill="#C84D30"><path d="M264.105 83.371a.309.309 0 0 1-.22-.091l-3.275-3.275a.314.314 0 0 1 0-.44.309.309 0 0 1 .439 0l3.275 3.275a.309.309 0 0 1 0 .439.303.303 0 0 1-.219.092z"/><path d="M260.83 83.371a.309.309 0 0 1-.22-.53l3.275-3.275a.309.309 0 0 1 .439 0 .309.309 0 0 1 0 .439l-3.275 3.275a.309.309 0 0 1-.219.091z"/></g><path fill="#B9DDEA" d="M88.77 98.609h59.094v32.146H88.77z"/><path fill="none" stroke="#A3C3CC" stroke-width=".59" stroke-miterlimit="10" d="M88.77 98.609l59.094 32.146M88.77 130.755l59.094-32.146"/><g><path fill="#B9DDEA" d="M280.226 163.943h54.849v53.279h-54.849z"/><path fill="none" stroke="#A3C3CC" stroke-width=".732" stroke-miterlimit="10" d="M280.226 163.943l54.848 53.28M280.226 217.223l54.848-53.28"/></g><g fill="#DDD"><path d="M1540.375 226.09h-11.85l45.899-106.199h10.5l45.601 106.199h-12l-11.701-27.898h-54.898l-11.551 27.898zm15.6-37.799h46.801l-23.4-56.4-23.401 56.4zM1689.774 180.656c0-6.054-1.601-10.57-4.8-13.549-3.201-2.978-7.853-4.468-13.95-4.468-4.2 0-8.101.75-11.7 2.25-3.599 1.5-6.65 3.502-9.149 6l-5.699-6.75c2.897-2.898 6.725-5.299 11.475-7.199 4.748-1.898 10.125-2.852 16.125-2.852 3.799 0 7.351.525 10.65 1.576 3.3 1.049 6.199 2.625 8.699 4.725 2.499 2.101 4.448 4.75 5.851 7.949 1.399 3.202 2.101 6.952 2.101 11.25v30.75c0 2.701.099 5.502.3 8.4.198 2.901.5 5.352.899 7.35h-9.149a73.763 73.763 0 0 1-.75-5.549c-.201-2-.3-3.949-.3-5.852h-.301c-3.201 4.702-6.824 8.077-10.875 10.125-4.05 2.049-8.925 3.075-14.625 3.075-2.699 0-5.475-.377-8.324-1.127a23.207 23.207 0 0 1-7.801-3.688c-2.351-1.706-4.301-3.914-5.85-6.623-1.552-2.709-2.325-6.021-2.325-9.935 0-5.418 1.374-9.707 4.125-12.866 2.749-3.158 6.425-5.518 11.024-7.072 4.6-1.558 9.875-2.562 15.825-3.012a245.092 245.092 0 0 1 18.524-.679v-2.229zm-3 10.334c-4.2 0-8.426.176-12.675.524-4.252.353-8.101 1.051-11.551 2.101-3.449 1.051-6.275 2.576-8.476 4.575-2.201 2.001-3.3 4.648-3.3 7.949 0 2.5.474 4.602 1.425 6.301a11.656 11.656 0 0 0 3.825 4.125c1.599 1.05 3.375 1.8 5.325 2.25 1.948.449 3.924.675 5.925.675 3.601 0 6.8-.623 9.601-1.875 2.798-1.249 5.148-2.948 7.049-5.101 1.898-2.148 3.351-4.625 4.352-7.426.999-2.798 1.5-5.748 1.5-8.85v-5.25l-3 .002z"/></g><g><circle fill="#B9DDEA" cx="177.022" cy="257.447" r="15.417"/><path fill="none" stroke="#A3C3CC" stroke-width=".571" stroke-miterlimit="10" d="M166.163 246.588l21.718 21.718M166.163 268.306l21.718-21.718"/></g><g><path fill="none" stroke="#FFF" stroke-width="4.846" stroke-linecap="round" stroke-miterlimit="10" d="M96.228 168.555h18.522"/><circle fill="#C84D30" cx="96.325" cy="168.556" r="1.39"/><path fill="none" stroke="#DFDFDF" stroke-width="1.615" stroke-linecap="round" stroke-miterlimit="10" d="M99.459 168.555h14.669"/></g><g><path fill="none" stroke="#FFF" stroke-width="4.846" stroke-linecap="round" stroke-miterlimit="10" d="M96.228 178.118h28.861"/><circle fill="#E99141" cx="96.13" cy="178.205" r="1.39"/><path fill="none" stroke="#DFDFDF" stroke-width="1.615" stroke-linecap="round" stroke-miterlimit="10" d="M99.459 178.118h25.63"/></g><g><path fill="none" stroke="#FFF" stroke-width="4.846" stroke-linecap="round" stroke-miterlimit="10" d="M96.228 187.896h12.923"/><circle fill="#FEE864" cx="96.443" cy="187.854" r="1.39"/><path fill="none" stroke="#DFDFDF" stroke-width="1.615" stroke-linecap="round" stroke-miterlimit="10" d="M99.459 187.896h9.692"/></g><g><path fill="none" stroke="#FFF" stroke-width="4.846" stroke-linecap="round" stroke-miterlimit="10" d="M96.228 197.459h25.846"/><circle fill="#CCDE91" cx="96.443" cy="197.502" r="1.39"/><path fill="none" stroke="#DFDFDF" stroke-width="1.615" stroke-linecap="round" stroke-miterlimit="10" d="M99.459 197.459h21.753"/></g><g><path fill="none" stroke="#FFF" stroke-width="4.846" stroke-linecap="round" stroke-miterlimit="10" d="M96.228 206.709h32.522"/><circle fill="#A3C855" cx="96.228" cy="207.151" r="1.39"/><path fill="none" stroke="#DFDFDF" stroke-width="1.615" stroke-linecap="round" stroke-miterlimit="10" d="M99.459 206.709h28.43"/></g><g><path fill="none" stroke="#FFF" stroke-width="4.846" stroke-linecap="round" stroke-miterlimit="10" d="M96.228 216.585h23.692"/><circle fill="#3EA349" cx="96.443" cy="216.801" r="1.39"/><path fill="none" stroke="#DFDFDF" stroke-width="1.615" stroke-linecap="round" stroke-miterlimit="10" d="M99.459 216.585h19.384"/></g><g><path fill="none" stroke="#FFF" stroke-width="4.846" stroke-linecap="round" stroke-miterlimit="10" d="M95.535 60.187h23.692"/><circle fill="#3EA349" cx="95.75" cy="60.403" r="1.39"/><path fill="none" stroke="#DFDFDF" stroke-width="1.615" stroke-linecap="round" stroke-miterlimit="10" d="M98.766 60.187h19.384"/></g><g><path fill="none" stroke="#FFF" stroke-width="4.846" stroke-linecap="round" stroke-miterlimit="10" d="M95.535 66.269h23.692"/><circle fill="#3EA349" cx="95.75" cy="66.484" r="1.39"/><path fill="none" stroke="#DFDFDF" stroke-width="1.615" stroke-linecap="round" stroke-miterlimit="10" d="M98.766 66.269h19.384"/></g><g><path fill="none" stroke="#FFF" stroke-width="4.846" stroke-linecap="round" stroke-miterlimit="10" d="M95.535 72.35h23.692"/><circle fill="#3EA349" cx="95.75" cy="72.566" r="1.39"/><path fill="none" stroke="#DFDFDF" stroke-width="1.615" stroke-linecap="round" stroke-miterlimit="10" d="M98.766 72.35h19.384"/></g><g><path fill="none" stroke="#FFF" stroke-width="4.846" stroke-linecap="round" stroke-miterlimit="10" d="M96.228 225.627h18.522"/><circle fill="#C84D30" cx="96.325" cy="225.628" r="1.39"/><path fill="none" stroke="#DFDFDF" stroke-width="1.615" stroke-linecap="round" stroke-miterlimit="10" d="M99.459 225.627h14.669"/></g><g><path fill="none" stroke="#FFF" stroke-width="4.846" stroke-linecap="round" stroke-miterlimit="10" d="M96.228 235.19h28.861"/><circle fill="#E99141" cx="96.13" cy="235.277" r="1.39"/><path fill="none" stroke="#DFDFDF" stroke-width="1.615" stroke-linecap="round" stroke-miterlimit="10" d="M99.459 235.19h25.63"/></g><g><path fill="none" stroke="#FFF" stroke-width="4.846" stroke-linecap="round" stroke-miterlimit="10" d="M96.228 244.969h12.923"/><circle fill="#FEE864" cx="96.443" cy="244.926" r="1.39"/><path fill="none" stroke="#DFDFDF" stroke-width="1.615" stroke-linecap="round" stroke-miterlimit="10" d="M99.459 244.969h9.692"/></g><g><path fill="none" stroke="#FFF" stroke-width="4.846" stroke-linecap="round" stroke-miterlimit="10" d="M96.228 254.531h25.846"/><circle fill="#CCDE91" cx="96.443" cy="254.574" r="1.39"/><path fill="none" stroke="#DFDFDF" stroke-width="1.615" stroke-linecap="round" stroke-miterlimit="10" d="M99.459 254.531h21.753"/></g><g><path fill="none" stroke="#FFF" stroke-width="4.846" stroke-linecap="round" stroke-miterlimit="10" d="M96.228 263.781h32.522"/><circle fill="#A3C855" cx="96.228" cy="264.224" r="1.39"/><path fill="none" stroke="#DFDFDF" stroke-width="1.615" stroke-linecap="round" stroke-miterlimit="10" d="M99.459 263.781h28.43"/></g><g><path fill="none" stroke="#FFF" stroke-width="4.846" stroke-linecap="round" stroke-miterlimit="10" d="M96.228 273.657h23.692"/><circle fill="#3EA349" cx="96.443" cy="273.873" r="1.39"/><path fill="none" stroke="#DFDFDF" stroke-width="1.615" stroke-linecap="round" stroke-miterlimit="10" d="M99.459 273.657h19.384"/></g><path fill="#FFF" stroke="#EFEFEF" stroke-width=".499" stroke-miterlimit="10" d="M151.676 98.608H274.33v121.333H151.676z"/><path fill="#007AC2" stroke="#007AB7" stroke-width=".499" stroke-miterlimit="10" d="M211.118 196.682h20.748v12.27h-20.748z"/><path fill="none" stroke="#007AB7" stroke-width=".499" stroke-miterlimit="10" d="M235.684 196.682h29.67v12.27h-29.67z"/><path fill="#007AC2" stroke="#007AB7" stroke-width=".271" stroke-miterlimit="10" d="M113.45 84.152h11.246v6.65H113.45z"/><path fill="none" stroke="#007AB7" stroke-width=".271" stroke-miterlimit="10" d="M126.765 84.152h16.082v6.65h-16.082z"/><path fill="none" stroke="#E8E8E8" stroke-width="2.995" stroke-linecap="round" stroke-miterlimit="10" d="M164.983 127.395h47.638M166.243 183.14h36.63M164.667 156.094h53.624M164.667 148.919h57.64M164.667 141.745h45.119M164.667 163.27h45.119M164.667 134.57h57.64"/><path fill="none" stroke="#C6C6C6" stroke-width="2.995" stroke-linecap="round" stroke-miterlimit="10" d="M164.667 113.643h36.3"/><path fill="none" stroke="#E8E8E8" stroke-width="2.995" stroke-linecap="round" stroke-miterlimit="10" d="M346.171 59.933h47.638"/><path fill="none" stroke="#E8E8E8" stroke-width="2.377" stroke-linecap="round" stroke-miterlimit="10" d="M345.855 81.458h36.299"/><path fill="none" stroke="#E8E8E8" stroke-width="2.995" stroke-linecap="round" stroke-miterlimit="10" d="M345.855 74.283h45.12"/><path fill="none" stroke="#E8E8E8" stroke-width="2.531" stroke-linecap="round" stroke-miterlimit="10" d="M345.855 67.108H387"/><path fill="none" stroke="#C6C6C6" stroke-width="2.995" stroke-linecap="round" stroke-miterlimit="10" d="M345.855 46.181h36.299"/><g fill="#007AC2"><path d="M263.968 117.112a.714.714 0 0 1-.509-.211l-7.564-7.563a.717.717 0 1 1 1.015-1.015l7.564 7.563a.718.718 0 0 1-.506 1.226z"/><path d="M256.402 117.111a.716.716 0 0 1-.508-1.225l7.564-7.563a.718.718 0 0 1 1.015 1.015l-7.565 7.563a.71.71 0 0 1-.506.21z"/></g><circle fill="#00B1DC" cx="309.964" cy="129.545" r="19.639"/><path fill="#B9DDEA" stroke="#FFF" stroke-width="3.041" stroke-miterlimit="10" d="M309.964 129.545h18.973c0-10.479-8.494-18.973-18.973-18.973s-18.973 8.495-18.973 18.973 8.494 18.973 18.973 18.973c3.122 0 6.063-.758 8.66-2.093l-8.66-16.88z"/><path fill="#4BBF53" stroke="#FFF" stroke-miterlimit="10" d="M310.964 129.545h22.301c0-12.316-9.984-22.301-22.301-22.301-2.607 0-5.108.452-7.434 1.274l7.434 21.027z"/><circle fill="#FFF" cx="309.964" cy="129.545" r="12.465"/><path fill="none" stroke="#E8E8E8" stroke-width="2.531" stroke-linecap="round" stroke-miterlimit="10" d="M333.326 142.031h47.236M335.265 114.697H382.5"/><path fill="none" stroke="#E8E8E8" stroke-width="2.303" stroke-linecap="round" stroke-miterlimit="10" d="M343.388 120.5H382.5"/></svg>