<?xml version="1.0" encoding="utf-8"?>
<!-- Generator: Adobe Illustrator 16.0.4, SVG Export Plug-In . SVG Version: 6.00 Build 0)  -->
<!DOCTYPE svg PUBLIC "-//W3C//DTD SVG 1.1//EN" "http://www.w3.org/Graphics/SVG/1.1/DTD/svg11.dtd">
<svg version="1.1" id="Layer_1" xmlns="http://www.w3.org/2000/svg" xmlns:xlink="http://www.w3.org/1999/xlink" x="0px" y="0px"
	 width="166px" height="33px" viewBox="0 0 166 33" enable-background="new 0 0 166 33" xml:space="preserve">
<g>
	<defs>
		<rect id="SVGID_1_" y="0" width="24.617" height="32.557"/>
	</defs>
	<clipPath id="SVGID_2_">
		<use xlink:href="#SVGID_1_"  overflow="visible"/>
	</clipPath>
	<path clip-path="url(#SVGID_2_)" fill="#3590E4" d="M24.61,12.598L24.61,12.598l0.007-2.17c0-0.123-0.044-0.241-0.125-0.333
		l-5.21-5.894l-1.01-1.143l-0.009-0.01c-0.027-0.031-0.058-0.058-0.091-0.081L14.01,0.089c-0.133-0.092-0.3-0.115-0.452-0.06
		L6.824,2.438L6.526,2.545c-0.1,0.035-0.186,0.101-0.245,0.188l-0.664,0.97L1.363,9.918l-1.087,1.589l-0.19,0.277
		C0.03,11.867,0,11.966,0,12.066v11.475c0,0.042,0.005,0.084,0.016,0.124l0.454,1.773c0.027,0.103,0.085,0.195,0.166,0.262
		l0.175,0.145l1.753,1.441l2.913,1.989l0.884,0.603l0.404,0.276l5.375,2.36c0.064,0.028,0.133,0.042,0.201,0.042
		c0.073,0,0.146-0.017,0.215-0.048l4.449-2.118l1.289-0.613l1.542-0.734l0.006-0.003l4.44-2.112
		c0.174-0.082,0.284-0.257,0.285-0.449l0.006-2.066l0.004-1.333l0.031-9.754L24.61,12.598z M23.616,10.615l-0.005,1.496
		l-3.885-1.898l-0.322-4.364L23.616,10.615z M6.391,28.696l-0.497-0.339l-0.298-3.545l3.093,2.511L6.391,28.696z M2.647,9.813
		l2.315-0.644l0.257,2.874l-2.981-1.632L2.647,9.813z M1.67,11.24l3.694,2.023l2.696,10.352l-6.612-12.05L1.67,11.24z M7.893,25.389
		L5.479,23.43l-0.243-2.884L7.893,25.389z M4.83,27.628l-0.661-0.451l0.494-1.53L4.83,27.628z M6.453,13.503l9.89,1.083l2.499,6.156
		v7.667l-1.902,0.905l-6.966-2.318L6.453,13.503z M17.859,15.667l3.505,2.735l-1.811,1.437L17.859,15.667z M17.379,14.022
		l1.735-2.436l2.065,5.401L17.379,14.022z M7.016,3.431l6.637-2.374l3.902,2.699L18.31,4.61l0.427,5.784l-2.28,3.199L6.255,12.476
		L5.9,8.44l0.671-4.359L7.016,3.431z M4.936,8.139L3.524,8.532l1.742-2.545L4.936,8.139z M3.967,18.234L1,23.479V12.825
		L3.967,18.234z M1.398,25.032l-0.04-0.156l2.819-4.981l0.279,3.304c-0.05,0.053-0.092,0.114-0.115,0.186l-1.033,3.203l-0.144-0.099
		L1.398,25.032z M12.332,31.508L7.31,29.312l2.308-1.38l6.018,2.004L12.332,31.508z M19.842,27.934v-7.048l2.124-1.686l1.61,4.174
		l-0.008,2.786L19.842,27.934z M20.169,11.542l3.439,1.68l-0.022,7.261L20.169,11.542z"/>
</g>
<text transform="matrix(1 0 0 1 32.167 25.0566)"><tspan x="0" y="0" font-family="'AvenirNext-DemiBold'" font-size="24">C</tspan><tspan x="16.752" y="0" font-family="'AvenirNext-DemiBold'" font-size="24">alcite Web</tspan></text>
</svg>
