<?xml version="1.0" encoding="utf-8"?>
<!-- Generator: Adobe Illustrator 16.0.4, SVG Export Plug-In . SVG Version: 6.00 Build 0)  -->
<!DOCTYPE svg PUBLIC "-//W3C//DTD SVG 1.1//EN" "http://www.w3.org/Graphics/SVG/1.1/DTD/svg11.dtd">
<svg version="1.1" id="Layer_1" xmlns="http://www.w3.org/2000/svg" xmlns:xlink="http://www.w3.org/1999/xlink" x="0px" y="0px"
	 width="8.055px" height="10.65px" viewBox="4.062 2.645 8.055 10.65" enable-background="new 4.062 2.645 8.055 10.65"
	 xml:space="preserve">
<g>
	<path opacity="0.45" fill="#176DC7" enable-background="new    " d="M6.004,7.002l3.523,0.386l0.891,2.193v2.731L9.74,12.635
		l-2.482-0.826L6.004,7.002z"/>
	<path opacity="0.2" fill="#176DC7" enable-background="new    " d="M10.618,4.275l-0.39-0.441L8.836,2.771
		C8.669,2.645,8.45,2.611,8.253,2.681L6.205,3.414L6.004,7.002l3.523,0.386l0.988-1.069L10.618,4.275z"/>
	<path opacity="0.55" fill="#176DC7" enable-background="new    " d="M5.813,3.985L4.502,5.9l1.501,1.102l0.201-3.588L5.813,3.985z"
		/>
	<path opacity="0.5" fill="#176DC7" enable-background="new    " d="M10.618,4.275l-0.103,2.044l1.6,0.583l0.001-0.207
		c0.001-0.124-0.036-0.244-0.104-0.346L10.618,4.275z"/>
	<path opacity="0.29" fill="#176DC7" enable-background="new    " d="M10.516,6.319l0.801,2.428l0.791,0.052l0.008-1.897
		L10.516,6.319z"/>
	<path opacity="0.01" fill="#176DC7" enable-background="new    " d="M10.516,6.319L9.527,7.388l0.891,2.193l0.898-0.834
		L10.516,6.319z"/>
	<path opacity="0.2" fill="#176DC7" enable-background="new    " d="M11.316,8.747l-0.898,0.834v2.731l0.355-0.17l1.328-0.631
		L11.316,8.747z"/>
	<path opacity="0.6" fill="#176DC7" enable-background="new    " d="M4.502,5.9L4.3,6.196l1.768,2.835l0.497,0.118L6.004,7.002
		L4.502,5.9z"/>
	<path opacity="0.9" fill="#176DC7" enable-background="new    " d="M4.3,6.196l-0.239,4.359l1.752-1.297l0.254-0.228L4.3,6.196z"/>
	<path opacity="0.97" fill="#176DC7" enable-background="new    " d="M6.564,9.149L6.068,9.031l-2.006,1.524l1.92,1.859l1.277-0.606
		L6.564,9.149z"/>
	<path opacity="0.6" fill="#176DC7" enable-background="new    " d="M7.258,11.809l-1.277,0.606l0.328,0.219l1.531,0.669
		c0.164,0.072,0.351,0.069,0.512-0.008l1.388-0.66L7.258,11.809z"/>
	<path opacity="0.5" fill="#176DC7" enable-background="new    " d="M11.316,8.747l0.791,0.052l-0.006,2.713L11.316,8.747z"/>
</g>
</svg>
