<?xml version="1.0" encoding="utf-8"?>
<!-- Generator: Adobe Illustrator 16.0.4, SVG Export Plug-In . SVG Version: 6.00 Build 0)  -->
<!DOCTYPE svg PUBLIC "-//W3C//DTD SVG 1.1//EN" "http://www.w3.org/Graphics/SVG/1.1/DTD/svg11.dtd">
<svg version="1.1" id="Layer_1" xmlns="http://www.w3.org/2000/svg" xmlns:xlink="http://www.w3.org/1999/xlink" x="0px" y="0px"
	 width="480px" height="320px" viewBox="0 0 480 320" enable-background="new 0 0 480 320" xml:space="preserve">
<rect y="-1" fill="#7461A8" width="480" height="321"/>
<g>
	
		<line fill="none" stroke="#FFFFFF" stroke-width="15" stroke-linecap="round" stroke-miterlimit="10" x1="-614.968" y1="-83.754" x2="-527.636" y2="-83.754"/>
	<circle fill="#007AC2" cx="-614.668" cy="-83.753" r="4.303"/>
	
		<line fill="none" stroke="#DFDFDF" stroke-width="5" stroke-linecap="round" stroke-miterlimit="10" x1="-604.968" y1="-83.754" x2="-529.564" y2="-83.754"/>
</g>
<g>
	
		<line fill="none" stroke="#FFFFFF" stroke-width="15" stroke-linecap="round" stroke-miterlimit="10" x1="-614.968" y1="-53.886" x2="-535.636" y2="-53.886"/>
	<circle fill="#00B1DC" cx="-615.273" cy="-53.886" r="4.303"/>
	
		<line fill="none" stroke="#DFDFDF" stroke-width="5" stroke-linecap="round" stroke-miterlimit="10" x1="-604.968" y1="-53.886" x2="-535.636" y2="-53.886"/>
</g>
<g>
	
		<line fill="none" stroke="#FFFFFF" stroke-width="15" stroke-linecap="round" stroke-miterlimit="10" x1="-614.968" y1="-23.886" x2="-514.968" y2="-23.886"/>
	<circle fill="#B9DDEA" cx="-614.304" cy="-24.019" r="4.302"/>
	
		<line fill="none" stroke="#DFDFDF" stroke-width="5" stroke-linecap="round" stroke-miterlimit="10" x1="-604.968" y1="-23.886" x2="-514.968" y2="-23.886"/>
</g>
<g>
	
		<line fill="none" stroke="#FFFFFF" stroke-width="15" stroke-linecap="round" stroke-miterlimit="10" x1="-614.968" y1="5.713" x2="-554.968" y2="5.713"/>
	<circle fill="#EFEFEF" cx="-614.304" cy="5.846" r="4.302"/>
	
		<line fill="none" stroke="#DFDFDF" stroke-width="5" stroke-linecap="round" stroke-miterlimit="10" x1="-604.968" y1="5.713" x2="-557.636" y2="5.713"/>
</g>
<g>
	
		<line fill="none" stroke="#FFFFFF" stroke-width="15" stroke-linecap="round" stroke-miterlimit="10" x1="-614.968" y1="34.344" x2="-534.302" y2="34.344"/>
	<circle fill="#CCCCCC" cx="-614.969" cy="35.714" r="4.304"/>
	
		<line fill="none" stroke="#DFDFDF" stroke-width="5" stroke-linecap="round" stroke-miterlimit="10" x1="-604.968" y1="34.344" x2="-536.971" y2="34.344"/>
</g>
<g>
	
		<line fill="none" stroke="#FFFFFF" stroke-width="15" stroke-linecap="round" stroke-miterlimit="10" x1="-614.968" y1="64.913" x2="-511.636" y2="64.913"/>
	<circle fill="#4C4C4C" cx="-614.302" cy="65.58" r="4.303"/>
	
		<line fill="none" stroke="#DFDFDF" stroke-width="5" stroke-linecap="round" stroke-miterlimit="10" x1="-604.968" y1="64.913" x2="-514.971" y2="64.913"/>
</g>
<rect x="-365.627" y="-158.48" fill="#FFFFFF" width="59.282" height="59.282"/>
<rect x="-302.627" y="-158.48" fill="#FFFFFF" width="59.283" height="59.282"/>
<rect x="-302.627" y="-96.48" fill="#FFFFFF" width="122.655" height="121.333"/>
<rect x="-175.96" y="-96.48" fill="#FFFFFF" width="122.654" height="59.283"/>
<rect x="-239.614" y="-158.48" fill="#FFFFFF" width="59.283" height="59.282"/>
<rect x="-365.627" y="-34.146" fill="#FFFFFF" width="59.283" height="121.449"/>
<rect x="-176.601" y="-158.48" fill="#FFFFFF" width="59.281" height="59.282"/>
<rect x="-113.589" y="-158.48" fill="#FFFFFF" width="59.283" height="59.282"/>
<g>
	<g>
		<rect x="-176.438" y="-158.292" fill="#F8F8F8" width="58.954" height="9.943"/>
		<path fill="#EFEFEF" d="M-117.319-148.162h-59.281v-10.318h59.281V-148.162z M-176.274-148.536h58.629v-9.568h-58.629V-148.536z"
			/>
	</g>
	<g>
		<rect x="-176.438" y="-148.536" fill="#FFFFFF" width="58.954" height="9.942"/>
		<path fill="#EFEFEF" d="M-117.319-138.406h-59.281v-10.318h59.281V-138.406z M-176.274-138.782h58.629v-9.567h-58.629V-138.782z"
			/>
	</g>
	<g>
		<rect x="-176.438" y="-138.734" fill="#FFFFFF" width="58.954" height="9.943"/>
		<path fill="#EFEFEF" d="M-117.319-128.604h-59.281v-10.318h59.281V-128.604z M-176.274-128.979h58.629v-9.567h-58.629V-128.979z"
			/>
	</g>
	<g>
		<rect x="-176.438" y="-128.932" fill="#FFFFFF" width="58.954" height="9.943"/>
		<path fill="#EFEFEF" d="M-117.319-118.801h-59.281v-10.319h59.281V-118.801z M-176.274-119.177h58.629v-9.568h-58.629V-119.177z"
			/>
	</g>
	<g>
		<rect x="-176.438" y="-119.13" fill="#FFFFFF" width="58.954" height="9.943"/>
		<path fill="#EFEFEF" d="M-117.319-109h-59.281v-10.317h59.281V-109z M-176.274-109.375h58.629v-9.568h-58.629V-109.375z"/>
	</g>
	<g>
		<rect x="-176.438" y="-109.328" fill="#FFFFFF" width="58.954" height="9.943"/>
		<path fill="#EFEFEF" d="M-117.319-99.197h-59.281v-10.318h59.281V-99.197z M-176.274-99.573h58.629v-9.568h-58.629V-99.573z"/>
	</g>
	<path fill="#E8E8E8" d="M-140.013-142.346h-32.844c-0.539,0-0.975-0.503-0.975-1.125s0.436-1.125,0.975-1.125h32.844
		c0.54,0,0.979,0.503,0.979,1.125S-139.473-142.346-140.013-142.346z"/>
	<path fill="#E8E8E8" d="M-135.886-102.699h-36.971c-0.539,0-0.976-0.504-0.976-1.125c0-0.622,0.437-1.126,0.976-1.126h36.971
		c0.54,0,0.979,0.504,0.979,1.126C-134.907-103.204-135.346-102.699-135.886-102.699z"/>
	<path fill="#E8E8E8" d="M-133.116-112.611h-39.738c-0.54,0-0.977-0.504-0.977-1.125c0-0.622,0.437-1.125,0.977-1.125h39.738
		c0.541,0,0.979,0.503,0.979,1.125C-132.139-113.115-132.575-112.611-133.116-112.611z"/>
	<path fill="#E8E8E8" d="M-141.749-122.523h-31.105c-0.54,0-0.977-0.504-0.977-1.126c0-0.621,0.437-1.125,0.977-1.125h31.105
		c0.54,0,0.979,0.504,0.979,1.125C-140.772-123.026-141.209-122.523-141.749-122.523z"/>
	<path fill="#E8E8E8" d="M-133.116-132.434h-39.738c-0.54,0-0.977-0.504-0.977-1.125c0-0.622,0.437-1.126,0.977-1.126h39.738
		c0.541,0,0.979,0.504,0.979,1.126C-132.139-132.939-132.575-132.434-133.116-132.434z"/>
	<path fill="#C6C6C6" d="M-147.829-151.976h-25.025c-0.54,0-0.977-0.504-0.977-1.125c0-0.622,0.437-1.126,0.977-1.126h25.025
		c0.541,0,0.979,0.504,0.979,1.126C-146.852-152.481-147.288-151.976-147.829-151.976z"/>
</g>
<line fill="none" stroke="#E8E8E8" stroke-width="1.7701" stroke-linecap="round" stroke-miterlimit="10" x1="-359.89" y1="-43.486" x2="-330.028" y2="-43.486"/>
<path fill="#4BBF53" d="M-275.493-123.598l-5.871-5.871l-2.56,2.557l8.431,8.432l16.446-16.442l-2.562-2.558L-275.493-123.598z"/>
<path fill="#C6C6C6" d="M-354.049-151.719h-7.032c-0.322,0-0.586-0.264-0.586-0.585l0,0c0-0.323,0.264-0.586,0.586-0.586h7.032
	c0.322,0,0.585,0.264,0.585,0.586l0,0C-353.463-151.983-353.727-151.719-354.049-151.719z M-354.049-148.789h-7.032
	c-0.322,0-0.586-0.264-0.586-0.586l0,0c0-0.322,0.264-0.586,0.586-0.586h7.032c0.322,0,0.585,0.264,0.585,0.586l0,0
	C-353.463-149.053-353.727-148.789-354.049-148.789z M-354.049-145.859h-7.032c-0.322,0-0.586-0.264-0.586-0.586l0,0
	c0-0.322,0.264-0.585,0.586-0.585h7.032c0.322,0,0.585,0.264,0.585,0.585l0,0C-353.463-146.123-353.727-145.859-354.049-145.859z"/>
<rect x="-232.834" y="-149.949" fill="#F8F8F8" stroke="#F8F8F8" stroke-width="1.5" stroke-linecap="round" stroke-linejoin="round" stroke-miterlimit="10" width="46" height="12"/>
<g>
	<path fill="#C84D30" d="M-190.196-142.055c-0.08,0-0.16-0.03-0.221-0.091l-3.273-3.275c-0.121-0.122-0.121-0.319,0-0.44
		c0.119-0.122,0.318-0.122,0.438,0l3.275,3.275c0.121,0.122,0.121,0.318,0,0.439C-190.036-142.086-190.116-142.055-190.196-142.055z
		"/>
	<path fill="#C84D30" d="M-193.472-142.055c-0.08,0-0.159-0.031-0.219-0.091c-0.123-0.122-0.123-0.319,0-0.439l3.273-3.275
		c0.122-0.122,0.318-0.122,0.439,0c0.121,0.121,0.121,0.318,0,0.439l-3.275,3.275C-193.312-142.086-193.393-142.055-193.472-142.055
		z"/>
</g>
<rect x="-232.834" y="-134.774" fill="#F8F8F8" stroke="#F8F8F8" stroke-width="1.5" stroke-linecap="round" stroke-linejoin="round" stroke-miterlimit="10" width="46" height="12"/>
<g>
	<path fill="#C84D30" d="M-189.981-126.624c-0.09,0-0.182-0.034-0.25-0.104l-3.703-3.705c-0.137-0.138-0.137-0.361,0-0.498
		c0.136-0.138,0.359-0.138,0.497,0l3.704,3.706c0.139,0.137,0.139,0.359,0,0.497C-189.802-126.659-189.891-126.624-189.981-126.624z
		"/>
	<path fill="#C84D30" d="M-193.687-126.624c-0.092,0-0.18-0.035-0.248-0.104c-0.139-0.137-0.139-0.36,0-0.497l3.703-3.706
		c0.14-0.138,0.361-0.138,0.498,0c0.139,0.137,0.139,0.36,0,0.498l-3.704,3.705C-193.506-126.659-193.597-126.624-193.687-126.624z"
		/>
</g>
<rect x="-232.834" y="-119.611" fill="#F8F8F8" stroke="#F8F8F8" stroke-width="1.5" stroke-linecap="round" stroke-linejoin="round" stroke-miterlimit="10" width="46" height="12"/>
<g>
	<path fill="#C84D30" d="M-190.196-111.717c-0.08,0-0.16-0.03-0.221-0.091l-3.275-3.275c-0.119-0.122-0.119-0.319,0-0.44
		c0.121-0.122,0.32-0.122,0.439,0l3.275,3.275c0.121,0.122,0.121,0.318,0,0.439C-190.036-111.748-190.116-111.717-190.196-111.717z"
		/>
	<path fill="#C84D30" d="M-193.472-111.717c-0.08,0-0.159-0.031-0.221-0.091c-0.121-0.122-0.121-0.319,0-0.439l3.275-3.275
		c0.122-0.122,0.318-0.122,0.439,0c0.121,0.121,0.121,0.318,0,0.439l-3.275,3.275C-193.312-111.748-193.393-111.717-193.472-111.717
		z"/>
</g>
<g>
	
		<line fill="none" stroke="#FFFFFF" stroke-width="4.8461" stroke-linecap="round" stroke-miterlimit="10" x1="-358.073" y1="-26.533" x2="-339.552" y2="-26.533"/>
	<circle fill="#C84D30" cx="-357.977" cy="-26.532" r="1.39"/>
	
		<line fill="none" stroke="#DFDFDF" stroke-width="1.6154" stroke-linecap="round" stroke-miterlimit="10" x1="-354.843" y1="-26.533" x2="-340.174" y2="-26.533"/>
</g>
<g>
	
		<line fill="none" stroke="#FFFFFF" stroke-width="4.8461" stroke-linecap="round" stroke-miterlimit="10" x1="-358.073" y1="-16.97" x2="-329.213" y2="-16.97"/>
	<circle fill="#E99141" cx="-358.172" cy="-16.883" r="1.391"/>
	
		<line fill="none" stroke="#DFDFDF" stroke-width="1.6154" stroke-linecap="round" stroke-miterlimit="10" x1="-354.843" y1="-16.97" x2="-329.213" y2="-16.97"/>
</g>
<g>
	
		<line fill="none" stroke="#FFFFFF" stroke-width="4.8461" stroke-linecap="round" stroke-miterlimit="10" x1="-358.073" y1="-7.191" x2="-345.151" y2="-7.191"/>
	<circle fill="#FEE864" cx="-357.858" cy="-7.234" r="1.39"/>
	
		<line fill="none" stroke="#DFDFDF" stroke-width="1.6154" stroke-linecap="round" stroke-miterlimit="10" x1="-354.843" y1="-7.191" x2="-345.151" y2="-7.191"/>
</g>
<g>
	
		<line fill="none" stroke="#FFFFFF" stroke-width="4.8461" stroke-linecap="round" stroke-miterlimit="10" x1="-358.073" y1="2.371" x2="-332.228" y2="2.371"/>
	<circle fill="#CCDE91" cx="-357.858" cy="2.414" r="1.391"/>
	
		<line fill="none" stroke="#DFDFDF" stroke-width="1.6154" stroke-linecap="round" stroke-miterlimit="10" x1="-354.843" y1="2.371" x2="-333.09" y2="2.371"/>
</g>
<g>
	
		<line fill="none" stroke="#FFFFFF" stroke-width="4.8461" stroke-linecap="round" stroke-miterlimit="10" x1="-358.073" y1="11.621" x2="-325.552" y2="11.621"/>
	<circle fill="#A3C855" cx="-358.073" cy="12.063" r="1.39"/>
	
		<line fill="none" stroke="#DFDFDF" stroke-width="1.6154" stroke-linecap="round" stroke-miterlimit="10" x1="-354.843" y1="11.621" x2="-326.413" y2="11.621"/>
</g>
<g>
	
		<line fill="none" stroke="#FFFFFF" stroke-width="4.8461" stroke-linecap="round" stroke-miterlimit="10" x1="-358.073" y1="21.497" x2="-334.382" y2="21.497"/>
	<circle fill="#3EA349" cx="-357.858" cy="21.713" r="1.39"/>
	
		<line fill="none" stroke="#DFDFDF" stroke-width="1.6154" stroke-linecap="round" stroke-miterlimit="10" x1="-354.843" y1="21.497" x2="-335.459" y2="21.497"/>
</g>
<g>
	
		<line fill="none" stroke="#FFFFFF" stroke-width="4.8461" stroke-linecap="round" stroke-miterlimit="10" x1="-358.767" y1="-134.901" x2="-335.075" y2="-134.901"/>
	<circle fill="#3EA349" cx="-358.552" cy="-134.685" r="1.39"/>
	
		<line fill="none" stroke="#DFDFDF" stroke-width="1.6154" stroke-linecap="round" stroke-miterlimit="10" x1="-355.536" y1="-134.901" x2="-336.151" y2="-134.901"/>
</g>
<g>
	
		<line fill="none" stroke="#FFFFFF" stroke-width="4.8461" stroke-linecap="round" stroke-miterlimit="10" x1="-358.767" y1="-128.819" x2="-335.075" y2="-128.819"/>
	<circle fill="#3EA349" cx="-358.552" cy="-128.604" r="1.39"/>
	
		<line fill="none" stroke="#DFDFDF" stroke-width="1.6154" stroke-linecap="round" stroke-miterlimit="10" x1="-355.536" y1="-128.819" x2="-336.151" y2="-128.819"/>
</g>
<g>
	
		<line fill="none" stroke="#FFFFFF" stroke-width="4.8461" stroke-linecap="round" stroke-miterlimit="10" x1="-358.767" y1="-122.738" x2="-335.075" y2="-122.738"/>
	<circle fill="#3EA349" cx="-358.552" cy="-122.522" r="1.39"/>
	
		<line fill="none" stroke="#DFDFDF" stroke-width="1.6154" stroke-linecap="round" stroke-miterlimit="10" x1="-355.536" y1="-122.738" x2="-336.151" y2="-122.738"/>
</g>
<g>
	
		<line fill="none" stroke="#FFFFFF" stroke-width="4.8461" stroke-linecap="round" stroke-miterlimit="10" x1="-358.073" y1="30.539" x2="-339.552" y2="30.539"/>
	<circle fill="#C84D30" cx="-357.977" cy="30.54" r="1.39"/>
	
		<line fill="none" stroke="#DFDFDF" stroke-width="1.6154" stroke-linecap="round" stroke-miterlimit="10" x1="-354.843" y1="30.539" x2="-340.174" y2="30.539"/>
</g>
<g>
	
		<line fill="none" stroke="#FFFFFF" stroke-width="4.8461" stroke-linecap="round" stroke-miterlimit="10" x1="-358.073" y1="40.102" x2="-329.213" y2="40.102"/>
	<circle fill="#E99141" cx="-358.172" cy="40.189" r="1.39"/>
	
		<line fill="none" stroke="#DFDFDF" stroke-width="1.6154" stroke-linecap="round" stroke-miterlimit="10" x1="-354.843" y1="40.102" x2="-329.213" y2="40.102"/>
</g>
<g>
	
		<line fill="none" stroke="#FFFFFF" stroke-width="4.8461" stroke-linecap="round" stroke-miterlimit="10" x1="-358.073" y1="49.881" x2="-345.151" y2="49.881"/>
	<circle fill="#FEE864" cx="-357.858" cy="49.838" r="1.39"/>
	
		<line fill="none" stroke="#DFDFDF" stroke-width="1.6154" stroke-linecap="round" stroke-miterlimit="10" x1="-354.843" y1="49.881" x2="-345.151" y2="49.881"/>
</g>
<g>
	
		<line fill="none" stroke="#FFFFFF" stroke-width="4.8461" stroke-linecap="round" stroke-miterlimit="10" x1="-358.073" y1="59.443" x2="-332.228" y2="59.443"/>
	<circle fill="#CCDE91" cx="-357.858" cy="59.486" r="1.39"/>
	
		<line fill="none" stroke="#DFDFDF" stroke-width="1.6154" stroke-linecap="round" stroke-miterlimit="10" x1="-354.843" y1="59.443" x2="-333.09" y2="59.443"/>
</g>
<g>
	
		<line fill="none" stroke="#FFFFFF" stroke-width="4.8461" stroke-linecap="round" stroke-miterlimit="10" x1="-358.073" y1="68.693" x2="-325.552" y2="68.693"/>
	<circle fill="#A3C855" cx="-358.073" cy="69.136" r="1.39"/>
	
		<line fill="none" stroke="#DFDFDF" stroke-width="1.6154" stroke-linecap="round" stroke-miterlimit="10" x1="-354.843" y1="68.693" x2="-326.413" y2="68.693"/>
</g>
<g>
	
		<line fill="none" stroke="#FFFFFF" stroke-width="4.8461" stroke-linecap="round" stroke-miterlimit="10" x1="-358.073" y1="78.569" x2="-334.382" y2="78.569"/>
	<circle fill="#3EA349" cx="-357.858" cy="78.785" r="1.391"/>
	
		<line fill="none" stroke="#DFDFDF" stroke-width="1.6154" stroke-linecap="round" stroke-miterlimit="10" x1="-354.843" y1="78.569" x2="-335.459" y2="78.569"/>
</g>
<rect x="-302.626" y="-96.48" fill="#FFFFFF" stroke="#EFEFEF" stroke-width="0.4992" stroke-miterlimit="10" width="122.654" height="121.333"/>
<rect x="-243.184" y="1.594" fill="#007AC2" stroke="#007AB7" stroke-width="0.4992" stroke-miterlimit="10" width="20.748" height="12.271"/>
<rect x="-218.618" y="1.594" fill="none" stroke="#007AB7" stroke-width="0.4992" stroke-miterlimit="10" width="29.67" height="12.271"/>
<rect x="-340.852" y="-110.936" fill="#007AC2" stroke="#007AB7" stroke-width="0.2706" stroke-miterlimit="10" width="11.245" height="6.65"/>
<rect x="-327.536" y="-110.936" fill="none" stroke="#007AB7" stroke-width="0.2706" stroke-miterlimit="10" width="16.082" height="6.65"/>
<line fill="none" stroke="#E8E8E8" stroke-width="2.9955" stroke-linecap="round" stroke-miterlimit="10" x1="-289.319" y1="-67.693" x2="-241.681" y2="-67.693"/>
<line fill="none" stroke="#E8E8E8" stroke-width="2.9955" stroke-linecap="round" stroke-miterlimit="10" x1="-288.059" y1="-11.947" x2="-251.429" y2="-11.947"/>
<line fill="none" stroke="#E8E8E8" stroke-width="2.9955" stroke-linecap="round" stroke-miterlimit="10" x1="-289.635" y1="-38.994" x2="-236.011" y2="-38.994"/>
<line fill="none" stroke="#E8E8E8" stroke-width="2.9955" stroke-linecap="round" stroke-miterlimit="10" x1="-289.635" y1="-46.169" x2="-231.995" y2="-46.169"/>
<line fill="none" stroke="#E8E8E8" stroke-width="2.9955" stroke-linecap="round" stroke-miterlimit="10" x1="-289.635" y1="-53.343" x2="-244.516" y2="-53.343"/>
<line fill="none" stroke="#E8E8E8" stroke-width="2.9955" stroke-linecap="round" stroke-miterlimit="10" x1="-289.635" y1="-31.818" x2="-244.516" y2="-31.818"/>
<line fill="none" stroke="#E8E8E8" stroke-width="2.9955" stroke-linecap="round" stroke-miterlimit="10" x1="-289.635" y1="-60.518" x2="-231.995" y2="-60.518"/>
<line fill="none" stroke="#C6C6C6" stroke-width="2.9955" stroke-linecap="round" stroke-miterlimit="10" x1="-289.635" y1="-81.445" x2="-253.335" y2="-81.445"/>
<line fill="none" stroke="#E8E8E8" stroke-width="2.9955" stroke-linecap="round" stroke-miterlimit="10" x1="-108.131" y1="-135.155" x2="-60.493" y2="-135.155"/>
<line fill="none" stroke="#E8E8E8" stroke-width="2.3772" stroke-linecap="round" stroke-miterlimit="10" x1="-108.446" y1="-113.63" x2="-72.147" y2="-113.63"/>
<line fill="none" stroke="#E8E8E8" stroke-width="2.9955" stroke-linecap="round" stroke-miterlimit="10" x1="-108.446" y1="-120.805" x2="-63.327" y2="-120.805"/>
<line fill="none" stroke="#E8E8E8" stroke-width="2.5308" stroke-linecap="round" stroke-miterlimit="10" x1="-108.446" y1="-127.98" x2="-67.302" y2="-127.98"/>
<line fill="none" stroke="#C6C6C6" stroke-width="2.9955" stroke-linecap="round" stroke-miterlimit="10" x1="-108.446" y1="-148.907" x2="-72.147" y2="-148.907"/>
<g>
	<path fill="#007AC2" d="M-190.334-77.976c-0.186,0-0.368-0.07-0.509-0.211l-7.564-7.563c-0.281-0.28-0.281-0.734,0-1.015
		c0.28-0.28,0.735-0.281,1.016,0l7.564,7.562c0.279,0.28,0.279,0.735,0,1.015C-189.967-78.046-190.151-77.976-190.334-77.976z"/>
	<path fill="#007AC2" d="M-197.899-77.977c-0.186,0-0.367-0.07-0.508-0.21c-0.281-0.281-0.281-0.735,0-1.015l7.563-7.562
		c0.28-0.281,0.735-0.281,1.015,0c0.28,0.281,0.28,0.735,0,1.015l-7.564,7.563C-197.532-78.047-197.717-77.977-197.899-77.977z"/>
</g>
<circle fill="#00B1DC" cx="-144.338" cy="-65.543" r="19.639"/>
<path fill="#B9DDEA" stroke="#FFFFFF" stroke-width="3.0405" stroke-miterlimit="10" d="M-144.338-65.543h18.974
	c0-10.479-8.494-18.973-18.974-18.973s-18.973,8.495-18.973,18.973s8.493,18.973,18.973,18.973c3.122,0,6.063-0.758,8.66-2.093
	L-144.338-65.543z"/>
<path fill="#4BBF53" stroke="#FFFFFF" stroke-miterlimit="10" d="M-143.338-65.543h22.302c0-12.316-9.984-22.301-22.302-22.301
	c-2.606,0-5.108,0.452-7.435,1.274L-143.338-65.543z"/>
<circle fill="#FFFFFF" cx="-144.338" cy="-65.543" r="12.465"/>
<line fill="none" stroke="#E8E8E8" stroke-width="2.5308" stroke-linecap="round" stroke-miterlimit="10" x1="-120.976" y1="-53.057" x2="-73.739" y2="-53.057"/>
<line fill="none" stroke="#E8E8E8" stroke-width="2.5308" stroke-linecap="round" stroke-miterlimit="10" x1="-119.036" y1="-80.391" x2="-71.802" y2="-80.391"/>
<line fill="none" stroke="#E8E8E8" stroke-width="2.303" stroke-linecap="round" stroke-miterlimit="10" x1="-110.913" y1="-74.588" x2="-71.802" y2="-74.588"/>
<g>
	
		<rect x="-544.907" y="383.693" fill="#FFFFFF" stroke="#EFEFEF" stroke-width="0.4432" stroke-miterlimit="10" width="358.561" height="32.719"/>
	
		<line fill="none" stroke="#C6C6C6" stroke-width="4.0818" stroke-linecap="round" stroke-miterlimit="10" x1="-536.365" y1="402.184" x2="-492.939" y2="402.184"/>
	
		<line fill="none" stroke="#DFDFDF" stroke-width="3.0248" stroke-linecap="round" stroke-miterlimit="10" x1="-473.707" y1="402.184" x2="-446.109" y2="402.184"/>
	
		<line fill="none" stroke="#DFDFDF" stroke-width="3.0248" stroke-linecap="round" stroke-miterlimit="10" x1="-433.707" y1="402.184" x2="-406.109" y2="402.184"/>
	
		<line fill="none" stroke="#DFDFDF" stroke-width="3.0248" stroke-linecap="round" stroke-miterlimit="10" x1="-393.706" y1="402.184" x2="-366.109" y2="402.184"/>
	
		<line fill="none" stroke="#DFDFDF" stroke-width="3.0248" stroke-linecap="round" stroke-miterlimit="10" x1="-353.706" y1="402.184" x2="-326.109" y2="402.184"/>
	<path fill="#DFDFDF" d="M-198.822,403.701l-1.9-1.901c-0.123-0.184-0.368-0.184-0.553,0v0.001l-0.7-0.7
		c1.166-1.431,1.085-3.573-0.28-4.88c-1.411-1.41-3.742-1.41-5.213,0c-1.41,1.41-1.41,3.74,0,5.212
		c1.324,1.325,3.449,1.389,4.924,0.228l0.706,0.705c-0.17,0.127-0.168,0.361,0.011,0.539l1.9,1.9c0.123,0.186,0.367,0.186,0.553,0
		l0.552-0.552C-198.638,404.131-198.638,403.886-198.822,403.701z M-206.671,400.635c-0.98-1.041-1.043-2.636,0-3.679
		c1.042-1.042,2.699-1.042,3.68,0c1.042,1.043,1.042,2.638,0,3.679C-204.034,401.678-205.69,401.678-206.671,400.635z"/>
	<rect x="-393.847" y="382.8" fill="#007AC2" width="28" height="3"/>
</g>
<rect x="-544.907" y="415.527" fill="#052942" width="358.561" height="54.432"/>
<rect x="-544.907" y="469.959" fill="#FFFFFF" width="358.561" height="241.605"/>
<line fill="none" stroke="#FFFFFF" stroke-width="6" stroke-linecap="round" stroke-miterlimit="10" x1="-533.365" y1="438.574" x2="-489.939" y2="438.574"/>
<polyline fill="#FFFFFF" points="-479.034,474.251 -479.034,456.255 -422.21,456.255 -422.21,474.251 "/>
<line fill="none" stroke="#E8E8E8" stroke-width="3.1027" stroke-linecap="round" stroke-miterlimit="10" x1="-473.346" y1="463.236" x2="-433.243" y2="463.236"/>
<rect x="-536.365" y="456.255" opacity="0.3" width="55.648" height="13.704"/>
<line fill="none" stroke="#D3D3D3" stroke-width="3.1027" stroke-linecap="round" stroke-miterlimit="10" x1="-530.677" y1="463.408" x2="-502.469" y2="463.408"/>
<rect x="-420.32" y="456.255" opacity="0.3" width="55.647" height="13.704"/>
<line fill="none" stroke="#D3D3D3" stroke-width="3.1027" stroke-linecap="round" stroke-miterlimit="10" x1="-414.632" y1="463.408" x2="-386.425" y2="463.408"/>
<rect x="-363.866" y="456.255" opacity="0.3" width="55.649" height="13.704"/>
<line fill="none" stroke="#D3D3D3" stroke-width="3.1027" stroke-linecap="round" stroke-miterlimit="10" x1="-357.783" y1="463.408" x2="-329.575" y2="463.408"/>
<rect x="-537.182" y="478.711" fill="#FFFFFF" width="59.282" height="121.449"/>
<rect x="-537.182" y="478.711" fill="#FFFFFF" width="59.281" height="59.283"/>
<rect x="-537.182" y="537.963" fill="#FFFFFF" width="59.281" height="59.283"/>
<g>
	<g>
		<g>
			<rect x="-537.018" y="485.908" fill="#F8F8F8" width="58.955" height="10.484"/>
			<path fill="#EFEFEF" d="M-477.899,496.59h-59.28v-10.879h59.28V496.59z M-536.854,496.193h58.628v-10.086h-58.628V496.193z"/>
		</g>
		<g>
			<rect x="-537.018" y="496.193" fill="#FFFFFF" width="58.955" height="10.484"/>
			<path fill="#EFEFEF" d="M-477.899,506.875h-59.28v-10.879h59.28V506.875z M-536.854,506.479h58.628v-10.086h-58.628V506.479z"/>
		</g>
		<g>
			<rect x="-537.018" y="506.531" fill="#FFFFFF" width="58.955" height="10.48"/>
			<path fill="#EFEFEF" d="M-477.899,517.211h-59.28v-10.879h59.28V517.211z M-536.854,516.814h58.628v-10.088h-58.628V516.814z"/>
		</g>
		<g>
			<rect x="-537.018" y="516.865" fill="#FFFFFF" width="58.955" height="10.482"/>
			<path fill="#EFEFEF" d="M-477.899,527.545h-59.28v-10.879h59.28V527.545z M-536.854,527.148h58.628v-10.086h-58.628V527.148z"/>
		</g>
		<g>
			<rect x="-537.018" y="527.199" fill="#FFFFFF" width="58.955" height="10.482"/>
			<path fill="#EFEFEF" d="M-477.899,537.881h-59.28V527h59.28V537.881z M-536.854,537.484h58.628v-10.088h-58.628V537.484z"/>
		</g>
		<g>
			<rect x="-537.018" y="537.535" fill="#FFFFFF" width="58.955" height="10.482"/>
			<path fill="#EFEFEF" d="M-477.899,548.215h-59.28v-10.879h59.28V548.215z M-536.854,547.818h58.628v-10.086h-58.628V547.818z"/>
		</g>
		<path fill="#E8E8E8" d="M-500.594,502.723h-32.842c-0.541,0-0.977-0.531-0.977-1.188s0.436-1.188,0.977-1.188h32.842
			c0.541,0,0.979,0.531,0.979,1.188S-500.053,502.723-500.594,502.723z"/>
		<path fill="#E8E8E8" d="M-496.467,544.523h-36.969c-0.541,0-0.977-0.531-0.977-1.188s0.436-1.188,0.977-1.188h36.969
			c0.541,0,0.979,0.531,0.979,1.188S-495.926,544.523-496.467,544.523z"/>
		<path fill="#E8E8E8" d="M-493.696,534.074h-39.739c-0.539,0-0.976-0.533-0.976-1.188c0-0.658,0.437-1.188,0.976-1.188h39.739
			c0.54,0,0.978,0.529,0.978,1.188C-492.719,533.541-493.156,534.074-493.696,534.074z"/>
		<path fill="#E8E8E8" d="M-502.329,523.623h-31.106c-0.539,0-0.976-0.531-0.976-1.188c0-0.654,0.437-1.188,0.976-1.188h31.106
			c0.54,0,0.978,0.533,0.978,1.188S-501.789,523.623-502.329,523.623z"/>
		<path fill="#E8E8E8" d="M-493.696,513.172h-39.739c-0.539,0-0.976-0.533-0.976-1.188s0.437-1.188,0.976-1.188h39.739
			c0.54,0,0.978,0.531,0.978,1.188C-492.719,512.639-493.156,513.172-493.696,513.172z"/>
		<path fill="#C6C6C6" d="M-508.409,492.568h-25.026c-0.539,0-0.976-0.531-0.976-1.188s0.437-1.188,0.976-1.188h25.026
			c0.54,0,0.978,0.531,0.978,1.188S-507.869,492.568-508.409,492.568z"/>
	</g>
	<g>
		<g>
			<rect x="-537.018" y="548.15" fill="#F8F8F8" width="58.955" height="9.943"/>
			<path fill="#EFEFEF" d="M-477.899,558.283h-59.28v-10.318h59.28V558.283z M-536.854,557.908h58.628v-9.568h-58.628V557.908z"/>
		</g>
		<g>
			<rect x="-537.018" y="557.908" fill="#FFFFFF" width="58.955" height="9.941"/>
			<path fill="#EFEFEF" d="M-477.899,568.039h-59.28v-10.32h59.28V568.039z M-536.854,567.662h58.628v-9.566h-58.628V567.662z"/>
		</g>
		<g>
			<rect x="-537.018" y="567.709" fill="#FFFFFF" width="58.955" height="9.941"/>
			<path fill="#EFEFEF" d="M-477.899,577.84h-59.28v-10.318h59.28V577.84z M-536.854,577.465h58.628v-9.568h-58.628V577.465z"/>
		</g>
		<g>
			<rect x="-537.018" y="577.512" fill="#FFFFFF" width="58.955" height="9.941"/>
			<path fill="#EFEFEF" d="M-477.899,587.643h-59.28v-10.318h59.28V587.643z M-536.854,587.266h58.628v-9.566h-58.628V587.266z"/>
		</g>
		<g>
			<rect x="-537.018" y="587.312" fill="#FFFFFF" width="58.955" height="9.943"/>
			<path fill="#EFEFEF" d="M-477.899,597.443h-59.28v-10.316h59.28V597.443z M-536.854,597.068h58.628v-9.566h-58.628V597.068z"/>
		</g>
		<g>
			<rect x="-537.018" y="597.117" fill="#FFFFFF" width="58.955" height="9.941"/>
			<path fill="#EFEFEF" d="M-477.899,607.248h-59.28V596.93h59.28V607.248z M-536.854,606.871h58.628v-9.566h-58.628V606.871z"/>
		</g>
		<path fill="#E8E8E8" d="M-500.594,564.098h-32.842c-0.541,0-0.977-0.504-0.977-1.125c0-0.623,0.436-1.127,0.977-1.127h32.842
			c0.541,0,0.979,0.504,0.979,1.127C-499.615,563.594-500.053,564.098-500.594,564.098z"/>
		<path fill="#E8E8E8" d="M-496.467,603.746h-36.969c-0.541,0-0.977-0.506-0.977-1.127s0.436-1.125,0.977-1.125h36.969
			c0.541,0,0.979,0.504,0.979,1.125S-495.926,603.746-496.467,603.746z"/>
		<path fill="#E8E8E8" d="M-493.696,593.832h-39.739c-0.539,0-0.976-0.504-0.976-1.125c0-0.623,0.437-1.125,0.976-1.125h39.739
			c0.54,0,0.978,0.502,0.978,1.125S-493.156,593.832-493.696,593.832z"/>
		<path fill="#E8E8E8" d="M-502.329,583.92h-31.106c-0.539,0-0.976-0.504-0.976-1.125s0.437-1.125,0.976-1.125h31.106
			c0.54,0,0.978,0.504,0.978,1.125S-501.789,583.92-502.329,583.92z"/>
		<path fill="#E8E8E8" d="M-493.696,574.01h-39.739c-0.539,0-0.976-0.506-0.976-1.127s0.437-1.125,0.976-1.125h39.739
			c0.54,0,0.978,0.504,0.978,1.125S-493.156,574.01-493.696,574.01z"/>
		<path fill="#C6C6C6" d="M-508.409,554.467h-25.026c-0.539,0-0.976-0.504-0.976-1.125s0.437-1.127,0.976-1.127h25.026
			c0.54,0,0.978,0.506,0.978,1.127S-507.869,554.467-508.409,554.467z"/>
	</g>
</g>
<g>
	<rect x="-469.393" y="486.023" fill="#FFFFFF" width="59.283" height="59.283"/>
	
		<rect x="-469.393" y="518.17" fill="#FFFFFF" stroke="#EFEFEF" stroke-width="0.295" stroke-miterlimit="10" width="59.283" height="27.137"/>
	
		<line fill="none" stroke="#E8E8E8" stroke-width="1.7701" stroke-linecap="round" stroke-miterlimit="10" x1="-463.446" y1="531.447" x2="-431.917" y2="531.447"/>
	
		<line fill="none" stroke="#E8E8E8" stroke-width="1.7701" stroke-linecap="round" stroke-miterlimit="10" x1="-463.655" y1="535.232" x2="-425.507" y2="535.232"/>
	
		<line fill="none" stroke="#C6C6C6" stroke-width="1.7701" stroke-linecap="round" stroke-miterlimit="10" x1="-463.655" y1="524.191" x2="-439.63" y2="524.191"/>
	<rect x="-469.298" y="486.025" fill="#B9DDEA" width="59.094" height="32.145"/>
	
		<line fill="none" stroke="#A3C3CC" stroke-width="0.59" stroke-miterlimit="10" x1="-469.298" y1="486.025" x2="-410.204" y2="518.17"/>
	
		<line fill="none" stroke="#A3C3CC" stroke-width="0.59" stroke-miterlimit="10" x1="-469.298" y1="518.17" x2="-410.204" y2="486.025"/>
</g>
<g>
	<rect x="-396.276" y="486.023" fill="#FFFFFF" width="59.284" height="59.283"/>
	
		<rect x="-396.276" y="518.17" fill="#FFFFFF" stroke="#EFEFEF" stroke-width="0.295" stroke-miterlimit="10" width="59.284" height="27.137"/>
	
		<line fill="none" stroke="#E8E8E8" stroke-width="1.7701" stroke-linecap="round" stroke-miterlimit="10" x1="-390.33" y1="531.447" x2="-358.801" y2="531.447"/>
	
		<line fill="none" stroke="#E8E8E8" stroke-width="1.7701" stroke-linecap="round" stroke-miterlimit="10" x1="-390.539" y1="535.232" x2="-352.391" y2="535.232"/>
	
		<line fill="none" stroke="#C6C6C6" stroke-width="1.7701" stroke-linecap="round" stroke-miterlimit="10" x1="-390.539" y1="524.191" x2="-366.514" y2="524.191"/>
	<rect x="-396.181" y="486.025" fill="#B9DDEA" width="59.093" height="32.145"/>
	
		<line fill="none" stroke="#A3C3CC" stroke-width="0.59" stroke-miterlimit="10" x1="-396.181" y1="486.025" x2="-337.088" y2="518.17"/>
	
		<line fill="none" stroke="#A3C3CC" stroke-width="0.59" stroke-miterlimit="10" x1="-396.181" y1="518.17" x2="-337.088" y2="486.025"/>
</g>
<g>
	<rect x="-325.98" y="486.023" fill="#FFFFFF" width="59.284" height="59.283"/>
	
		<rect x="-325.98" y="518.17" fill="#FFFFFF" stroke="#EFEFEF" stroke-width="0.295" stroke-miterlimit="10" width="59.284" height="27.137"/>
	
		<line fill="none" stroke="#E8E8E8" stroke-width="1.7701" stroke-linecap="round" stroke-miterlimit="10" x1="-320.033" y1="531.447" x2="-288.505" y2="531.447"/>
	
		<line fill="none" stroke="#E8E8E8" stroke-width="1.7701" stroke-linecap="round" stroke-miterlimit="10" x1="-320.242" y1="535.232" x2="-282.095" y2="535.232"/>
	
		<line fill="none" stroke="#C6C6C6" stroke-width="1.7701" stroke-linecap="round" stroke-miterlimit="10" x1="-320.242" y1="524.191" x2="-296.218" y2="524.191"/>
	<rect x="-325.885" y="486.025" fill="#B9DDEA" width="59.093" height="32.145"/>
	
		<line fill="none" stroke="#A3C3CC" stroke-width="0.59" stroke-miterlimit="10" x1="-325.885" y1="486.025" x2="-266.792" y2="518.17"/>
	
		<line fill="none" stroke="#A3C3CC" stroke-width="0.59" stroke-miterlimit="10" x1="-325.885" y1="518.17" x2="-266.792" y2="486.025"/>
</g>
<g>
	<rect x="-257.968" y="486.023" fill="#FFFFFF" width="59.284" height="59.283"/>
	
		<rect x="-257.968" y="518.17" fill="#FFFFFF" stroke="#EFEFEF" stroke-width="0.295" stroke-miterlimit="10" width="59.284" height="27.137"/>
	
		<line fill="none" stroke="#E8E8E8" stroke-width="1.7701" stroke-linecap="round" stroke-miterlimit="10" x1="-252.021" y1="531.447" x2="-220.492" y2="531.447"/>
	
		<line fill="none" stroke="#E8E8E8" stroke-width="1.7701" stroke-linecap="round" stroke-miterlimit="10" x1="-252.229" y1="535.232" x2="-214.082" y2="535.232"/>
	
		<line fill="none" stroke="#C6C6C6" stroke-width="1.7701" stroke-linecap="round" stroke-miterlimit="10" x1="-252.229" y1="524.191" x2="-228.205" y2="524.191"/>
	<rect x="-257.872" y="486.025" fill="#B9DDEA" width="59.093" height="32.145"/>
	
		<line fill="none" stroke="#A3C3CC" stroke-width="0.59" stroke-miterlimit="10" x1="-257.872" y1="486.025" x2="-198.779" y2="518.17"/>
	
		<line fill="none" stroke="#A3C3CC" stroke-width="0.59" stroke-miterlimit="10" x1="-257.872" y1="518.17" x2="-198.779" y2="486.025"/>
</g>
<rect x="-465.093" y="564.189" fill="#FFFFFF" width="186.617" height="59.283"/>
<polyline fill="#FFFFFF" stroke="#EFEFEF" stroke-width="0.3651" stroke-miterlimit="10" points="-278.477,572.936 
	-278.477,623.475 -465.093,623.475 -465.093,572.936 "/>
<polyline fill="#FFFFFF" stroke="#EFEFEF" stroke-width="0.3651" stroke-miterlimit="10" points="-418.819,572.832 
	-418.819,564.664 -371.299,564.664 -371.299,572.832 "/>
<line fill="none" stroke="#E8E8E8" stroke-width="2.1904" stroke-linecap="round" stroke-miterlimit="10" x1="-414.062" y1="568.824" x2="-380.526" y2="568.824"/>
<rect x="-465.093" y="564.664" fill="#F8F8F8" stroke="#EFEFEF" stroke-width="0.3651" stroke-miterlimit="10" width="46.538" height="8.168"/>
<line fill="none" stroke="#D3D3D3" stroke-width="2.1904" stroke-linecap="round" stroke-miterlimit="10" x1="-460.336" y1="568.928" x2="-436.747" y2="568.928"/>
<rect x="-371.391" y="564.664" fill="#F8F8F8" stroke="#EFEFEF" stroke-width="0.3651" stroke-miterlimit="10" width="46.538" height="8.168"/>
<line fill="none" stroke="#D3D3D3" stroke-width="2.1904" stroke-linecap="round" stroke-miterlimit="10" x1="-366.635" y1="568.928" x2="-343.045" y2="568.928"/>
<rect x="-325.014" y="564.664" fill="#F8F8F8" stroke="#EFEFEF" stroke-width="0.3651" stroke-miterlimit="10" width="46.537" height="8.168"/>
<line fill="none" stroke="#D3D3D3" stroke-width="2.1904" stroke-linecap="round" stroke-miterlimit="10" x1="-319.928" y1="568.928" x2="-296.338" y2="568.928"/>
<line fill="none" stroke="#E8E8E8" stroke-width="2.1904" stroke-linecap="round" stroke-miterlimit="10" x1="-410.69" y1="587.727" x2="-337.061" y2="587.727"/>
<line fill="none" stroke="#E8E8E8" stroke-width="2.1904" stroke-linecap="round" stroke-miterlimit="10" x1="-411.177" y1="604.49" x2="-328.297" y2="604.49"/>
<line fill="none" stroke="#E8E8E8" stroke-width="2.1904" stroke-linecap="round" stroke-miterlimit="10" x1="-411.177" y1="600.299" x2="-322.092" y2="600.299"/>
<line fill="none" stroke="#E8E8E8" stroke-width="2.1904" stroke-linecap="round" stroke-miterlimit="10" x1="-411.177" y1="596.107" x2="-341.441" y2="596.107"/>
<line fill="none" stroke="#E8E8E8" stroke-width="2.1904" stroke-linecap="round" stroke-miterlimit="10" x1="-411.177" y1="608.682" x2="-341.441" y2="608.682"/>
<line fill="none" stroke="#E8E8E8" stroke-width="2.1904" stroke-linecap="round" stroke-miterlimit="10" x1="-411.177" y1="591.918" x2="-322.092" y2="591.918"/>
<g>
	<circle fill="#B9DDEA" cx="-439.747" cy="598.528" r="15.417"/>
	
		<line fill="none" stroke="#A3C3CC" stroke-width="0.571" stroke-miterlimit="10" x1="-450.605" y1="587.67" x2="-428.887" y2="609.389"/>
	
		<line fill="none" stroke="#A3C3CC" stroke-width="0.571" stroke-miterlimit="10" x1="-450.605" y1="609.389" x2="-428.887" y2="587.67"/>
</g>
<g>
	<g>
		<g>
			<rect x="71.429" y="62.803" fill="#B9DDEA" width="338.552" height="156.634"/>
			<path fill="#FFFFFF" d="M408.98,63.803v154.634H72.429V63.803H408.98 M410.98,61.803h-2H72.429h-2v2v154.634v2h2H408.98h2v-2
				V63.803V61.803L410.98,61.803z"/>
		</g>
		
			<line fill="none" stroke="#A3C3CC" stroke-width="0.7318" stroke-miterlimit="10" x1="72.429" y1="63.803" x2="408.975" y2="218.438"/>
		
			<line fill="none" stroke="#A3C3CC" stroke-width="0.7318" stroke-miterlimit="10" x1="72.429" y1="218.438" x2="408.975" y2="63.803"/>
	</g>
	<g>
		<circle fill="#FFFFFF" cx="205.705" cy="240.447" r="4.75"/>
		<circle fill="#FFFFFF" cx="223.205" cy="240.447" r="4.75"/>
		<circle fill="#FFFFFF" cx="240.705" cy="240.447" r="4.75"/>
		<circle fill="#FFFFFF" cx="258.205" cy="240.447" r="4.75"/>
		<circle fill="#FFFFFF" cx="275.705" cy="240.447" r="4.75"/>
	</g>
</g>
</svg>
