<?xml version="1.0" encoding="utf-8"?>
<!-- Generator: Adobe Illustrator 16.0.4, SVG Export Plug-In . SVG Version: 6.00 Build 0)  -->
<!DOCTYPE svg PUBLIC "-//W3C//DTD SVG 1.1//EN" "http://www.w3.org/Graphics/SVG/1.1/DTD/svg11.dtd">
<svg version="1.1" id="Layer_1" xmlns="http://www.w3.org/2000/svg" xmlns:xlink="http://www.w3.org/1999/xlink" x="0px" y="0px"
	 width="480px" height="320px" viewBox="0 0 480 320" enable-background="new 0 0 480 320" xml:space="preserve">
<rect y="-2.416" fill="#007AC2" width="480" height="322.416"/>
<polyline fill="#FFFFFF" stroke="#EFEFEF" stroke-width="0.5228" stroke-miterlimit="10" points="267.451,119.782 267.451,206.466 
	44.303,206.466 44.303,119.782 "/>
<polyline fill="#FFFFFF" stroke="#EFEFEF" stroke-width="0.5171" stroke-miterlimit="10" points="99.634,121.485 99.634,107.781 
	156.458,107.781 156.458,121.485 "/>
<line fill="none" stroke="#E8E8E8" stroke-width="3.1027" stroke-linecap="round" stroke-miterlimit="10" x1="105.322" y1="114.763" x2="145.425" y2="114.763"/>
<rect x="44.303" y="107.781" fill="#F8F8F8" stroke="#EFEFEF" stroke-width="0.5171" stroke-miterlimit="10" width="55.648" height="13.704"/>
<line fill="none" stroke="#D3D3D3" stroke-width="3.1027" stroke-linecap="round" stroke-miterlimit="10" x1="49.991" y1="114.935" x2="78.199" y2="114.935"/>
<rect x="156.347" y="107.781" fill="#F8F8F8" stroke="#EFEFEF" stroke-width="0.5171" stroke-miterlimit="10" width="55.648" height="13.704"/>
<line fill="none" stroke="#D3D3D3" stroke-width="3.1027" stroke-linecap="round" stroke-miterlimit="10" x1="162.036" y1="114.935" x2="190.243" y2="114.935"/>
<line fill="none" stroke="#E8E8E8" stroke-width="3.1027" stroke-linecap="round" stroke-miterlimit="10" x1="136.597" y1="145.021" x2="224.639" y2="145.021"/>
<line fill="none" stroke="#E8E8E8" stroke-width="3.1027" stroke-linecap="round" stroke-miterlimit="10" x1="136.015" y1="173.152" x2="235.118" y2="173.152"/>
<line fill="none" stroke="#E8E8E8" stroke-width="3.1027" stroke-linecap="round" stroke-miterlimit="10" x1="136.015" y1="166.12" x2="242.54" y2="166.12"/>
<line fill="none" stroke="#E8E8E8" stroke-width="3.1027" stroke-linecap="round" stroke-miterlimit="10" x1="136.015" y1="159.087" x2="219.4" y2="159.087"/>
<line fill="none" stroke="#E8E8E8" stroke-width="3.1027" stroke-linecap="round" stroke-miterlimit="10" x1="136.015" y1="180.186" x2="219.4" y2="180.186"/>
<line fill="none" stroke="#E8E8E8" stroke-width="3.1027" stroke-linecap="round" stroke-miterlimit="10" x1="136.015" y1="152.055" x2="242.54" y2="152.055"/>
<circle fill="#B9DDEA" cx="95.177" cy="161.275" r="27.924"/>
<line fill="none" stroke="#A3C3CC" stroke-width="1.0342" stroke-miterlimit="10" x1="75.508" y1="141.606" x2="114.846" y2="180.944"/>
<line fill="none" stroke="#A3C3CC" stroke-width="1.0342" stroke-miterlimit="10" x1="75.508" y1="180.944" x2="114.846" y2="141.606"/>
<g>
	
		<line fill="none" stroke="#FFFFFF" stroke-width="15" stroke-linecap="round" stroke-miterlimit="10" x1="47.939" y1="-282.456" x2="135.271" y2="-282.456"/>
	<circle fill="#007AC2" cx="48.24" cy="-282.455" r="4.303"/>
	
		<line fill="none" stroke="#DFDFDF" stroke-width="5" stroke-linecap="round" stroke-miterlimit="10" x1="57.939" y1="-282.456" x2="133.344" y2="-282.456"/>
</g>
<g>
	
		<line fill="none" stroke="#FFFFFF" stroke-width="15" stroke-linecap="round" stroke-miterlimit="10" x1="47.939" y1="-252.588" x2="127.271" y2="-252.588"/>
	<circle fill="#00B1DC" cx="47.635" cy="-252.588" r="4.303"/>
	
		<line fill="none" stroke="#DFDFDF" stroke-width="5" stroke-linecap="round" stroke-miterlimit="10" x1="57.939" y1="-252.588" x2="127.271" y2="-252.588"/>
</g>
<g>
	
		<line fill="none" stroke="#FFFFFF" stroke-width="15" stroke-linecap="round" stroke-miterlimit="10" x1="47.939" y1="-222.588" x2="147.939" y2="-222.588"/>
	<circle fill="#B9DDEA" cx="48.604" cy="-222.721" r="4.302"/>
	
		<line fill="none" stroke="#DFDFDF" stroke-width="5" stroke-linecap="round" stroke-miterlimit="10" x1="57.939" y1="-222.588" x2="147.939" y2="-222.588"/>
</g>
<g>
	
		<line fill="none" stroke="#FFFFFF" stroke-width="15" stroke-linecap="round" stroke-miterlimit="10" x1="47.939" y1="-192.989" x2="107.939" y2="-192.989"/>
	<circle fill="#EFEFEF" cx="48.604" cy="-192.856" r="4.302"/>
	
		<line fill="none" stroke="#DFDFDF" stroke-width="5" stroke-linecap="round" stroke-miterlimit="10" x1="57.939" y1="-192.989" x2="105.271" y2="-192.989"/>
</g>
<g>
	
		<line fill="none" stroke="#FFFFFF" stroke-width="15" stroke-linecap="round" stroke-miterlimit="10" x1="47.939" y1="-164.358" x2="128.605" y2="-164.358"/>
	<circle fill="#CCCCCC" cx="47.938" cy="-162.988" r="4.304"/>
	
		<line fill="none" stroke="#DFDFDF" stroke-width="5" stroke-linecap="round" stroke-miterlimit="10" x1="57.939" y1="-164.358" x2="125.938" y2="-164.358"/>
</g>
<g>
	
		<line fill="none" stroke="#FFFFFF" stroke-width="15" stroke-linecap="round" stroke-miterlimit="10" x1="47.939" y1="-133.789" x2="151.271" y2="-133.789"/>
	<circle fill="#4C4C4C" cx="48.605" cy="-133.122" r="4.303"/>
	
		<line fill="none" stroke="#DFDFDF" stroke-width="5" stroke-linecap="round" stroke-miterlimit="10" x1="57.939" y1="-133.789" x2="147.938" y2="-133.789"/>
</g>
<path fill="#C6C6C6" d="M1154.55-178.522l-4.455-4.456c-0.288-0.432-0.864-0.432-1.295,0l-0.001,0.001l-1.642-1.642
	c2.734-3.353,2.542-8.375-0.657-11.44c-3.306-3.306-8.77-3.306-12.218,0c-3.307,3.306-3.307,8.769,0,12.218
	c3.104,3.103,8.085,3.254,11.541,0.532l1.655,1.655c-0.396,0.295-0.393,0.845,0.027,1.263l4.455,4.456
	c0.287,0.431,0.861,0.431,1.295,0l1.293-1.293C1154.98-177.516,1154.98-178.091,1154.55-178.522z M1136.151-185.709
	c-2.3-2.444-2.444-6.181,0-8.625c2.443-2.444,6.325-2.444,8.624,0c2.444,2.444,2.444,6.181,0,8.625
	C1142.332-183.265,1138.45-183.265,1136.151-185.709z"/>
<g>
	<path fill="#DDDDDD" d="M1540.375,226.09h-11.85l45.899-106.199h10.5l45.601,106.199h-12l-11.701-27.898h-54.898L1540.375,226.09z
		 M1555.975,188.291h46.801l-23.4-56.4L1555.975,188.291z"/>
	<path fill="#DDDDDD" d="M1689.774,180.656c0-6.054-1.601-10.57-4.8-13.549c-3.201-2.978-7.853-4.468-13.95-4.468
		c-4.2,0-8.101,0.75-11.7,2.25c-3.599,1.5-6.65,3.502-9.149,6l-5.699-6.75c2.897-2.898,6.725-5.299,11.475-7.199
		c4.748-1.898,10.125-2.852,16.125-2.852c3.799,0,7.351,0.525,10.65,1.576c3.3,1.049,6.199,2.625,8.699,4.725
		c2.499,2.101,4.448,4.75,5.851,7.949c1.399,3.202,2.101,6.952,2.101,11.25v30.75c0,2.701,0.099,5.502,0.3,8.4
		c0.198,2.901,0.5,5.352,0.899,7.35h-9.149c-0.3-1.699-0.552-3.548-0.75-5.549c-0.201-2-0.3-3.949-0.3-5.852h-0.301
		c-3.201,4.702-6.824,8.077-10.875,10.125c-4.05,2.049-8.925,3.075-14.625,3.075c-2.699,0-5.475-0.377-8.324-1.127
		c-2.851-0.753-5.452-1.979-7.801-3.688c-2.351-1.706-4.301-3.914-5.85-6.623c-1.552-2.709-2.325-6.021-2.325-9.935
		c0-5.418,1.374-9.707,4.125-12.866c2.749-3.158,6.425-5.518,11.024-7.072c4.6-1.558,9.875-2.562,15.825-3.012
		c5.947-0.451,12.123-0.679,18.524-0.679V180.656L1689.774,180.656z M1686.774,190.99c-4.2,0-8.426,0.176-12.675,0.524
		c-4.252,0.353-8.101,1.051-11.551,2.101c-3.449,1.051-6.275,2.576-8.476,4.575c-2.201,2.001-3.3,4.648-3.3,7.949
		c0,2.5,0.474,4.602,1.425,6.301c0.949,1.701,2.226,3.074,3.825,4.125c1.599,1.05,3.375,1.8,5.325,2.25
		c1.948,0.449,3.924,0.675,5.925,0.675c3.601,0,6.8-0.623,9.601-1.875c2.798-1.249,5.148-2.948,7.049-5.101
		c1.898-2.148,3.351-4.625,4.352-7.426c0.999-2.798,1.5-5.748,1.5-8.85v-5.25L1686.774,190.99L1686.774,190.99z"/>
</g>
<g>
	<rect x="-1060.611" y="-318.252" fill="#F8F8F8" stroke="#EFEFEF" stroke-miterlimit="10" width="181" height="26.5"/>
	<rect x="-1060.611" y="-292.252" fill="#FFFFFF" stroke="#EFEFEF" stroke-miterlimit="10" width="181" height="26.5"/>
	<rect x="-1060.611" y="-266.127" fill="#FFFFFF" stroke="#EFEFEF" stroke-miterlimit="10" width="181" height="26.5"/>
	<rect x="-1060.611" y="-240.002" fill="#FFFFFF" stroke="#EFEFEF" stroke-miterlimit="10" width="181" height="26.5"/>
	<rect x="-1060.611" y="-213.877" fill="#FFFFFF" stroke="#EFEFEF" stroke-miterlimit="10" width="181" height="26.5"/>
	<rect x="-1060.611" y="-187.752" fill="#FFFFFF" stroke="#EFEFEF" stroke-miterlimit="10" width="181" height="26.5"/>
	
		<line fill="none" stroke="#E8E8E8" stroke-width="6" stroke-linecap="round" stroke-miterlimit="10" x1="-1049.611" y1="-278.752" x2="-948.779" y2="-278.752"/>
	
		<line fill="none" stroke="#E8E8E8" stroke-width="6" stroke-linecap="round" stroke-miterlimit="10" x1="-1049.611" y1="-173.086" x2="-936.112" y2="-173.086"/>
	
		<line fill="none" stroke="#E8E8E8" stroke-width="6" stroke-linecap="round" stroke-miterlimit="10" x1="-1049.611" y1="-199.502" x2="-927.611" y2="-199.502"/>
	
		<line fill="none" stroke="#E8E8E8" stroke-width="6" stroke-linecap="round" stroke-miterlimit="10" x1="-1049.611" y1="-225.919" x2="-954.112" y2="-225.919"/>
	
		<line fill="none" stroke="#E8E8E8" stroke-width="6" stroke-linecap="round" stroke-miterlimit="10" x1="-1049.611" y1="-252.336" x2="-927.611" y2="-252.336"/>
	
		<line fill="none" stroke="#C6C6C6" stroke-width="6" stroke-linecap="round" stroke-miterlimit="10" x1="-1049.611" y1="-304.419" x2="-972.779" y2="-304.419"/>
</g>
<rect x="211.802" y="107.781" fill="#F8F8F8" stroke="#EFEFEF" stroke-width="0.5171" stroke-miterlimit="10" width="55.649" height="13.704"/>
<line fill="none" stroke="#D3D3D3" stroke-width="3.1027" stroke-linecap="round" stroke-miterlimit="10" x1="217.885" y1="114.935" x2="246.093" y2="114.935"/>
<rect x="217.105" y="65.837" fill="#FFFFFF" stroke="#EFEFEF" stroke-width="0.8188" stroke-miterlimit="10" width="212.58" height="188.326"/>
<rect x="-1161.94" y="-514.552" fill="#FFFFFF" stroke="#EFEFEF" stroke-miterlimit="10" width="189.59" height="97.495"/>
<rect x="320.129" y="218.062" fill="#007AC2" stroke="#007AB7" stroke-width="0.8188" stroke-miterlimit="10" width="35.961" height="19.043"/>
<rect x="362.705" y="218.062" fill="none" stroke="#007AB7" stroke-width="0.8188" stroke-miterlimit="10" width="51.423" height="19.043"/>
<line fill="none" stroke="#E8E8E8" stroke-width="4.9131" stroke-linecap="round" stroke-miterlimit="10" x1="240.168" y1="110.519" x2="322.733" y2="110.519"/>
<line fill="none" stroke="#E8E8E8" stroke-width="4.9131" stroke-linecap="round" stroke-miterlimit="10" x1="242.352" y1="197.043" x2="305.838" y2="197.043"/>
<line fill="none" stroke="#E8E8E8" stroke-width="4.9131" stroke-linecap="round" stroke-miterlimit="10" x1="239.622" y1="155.063" x2="332.561" y2="155.063"/>
<line fill="none" stroke="#E8E8E8" stroke-width="4.9131" stroke-linecap="round" stroke-miterlimit="10" x1="239.622" y1="143.927" x2="339.521" y2="143.927"/>
<line fill="none" stroke="#E8E8E8" stroke-width="4.9131" stroke-linecap="round" stroke-miterlimit="10" x1="239.622" y1="132.792" x2="317.821" y2="132.792"/>
<line fill="none" stroke="#E8E8E8" stroke-width="4.9131" stroke-linecap="round" stroke-miterlimit="10" x1="239.622" y1="166.2" x2="317.821" y2="166.2"/>
<line fill="none" stroke="#E8E8E8" stroke-width="4.9131" stroke-linecap="round" stroke-miterlimit="10" x1="239.622" y1="121.655" x2="339.521" y2="121.655"/>
<line fill="none" stroke="#C6C6C6" stroke-width="4.9131" stroke-linecap="round" stroke-miterlimit="10" x1="239.622" y1="89.173" x2="302.536" y2="89.173"/>
<line fill="none" stroke="#E8E8E8" stroke-width="6" stroke-linecap="round" stroke-miterlimit="10" x1="-1142.925" y1="-466.856" x2="-1042.094" y2="-466.856"/>
<line fill="none" stroke="#E8E8E8" stroke-width="6" stroke-linecap="round" stroke-miterlimit="10" x1="-1143.592" y1="-439.656" x2="-1048.093" y2="-439.656"/>
<line fill="none" stroke="#E8E8E8" stroke-width="6" stroke-linecap="round" stroke-miterlimit="10" x1="-1143.592" y1="-453.256" x2="-1021.592" y2="-453.256"/>
<line fill="none" stroke="#C6C6C6" stroke-width="6" stroke-linecap="round" stroke-miterlimit="10" x1="-1143.592" y1="-492.924" x2="-1066.76" y2="-492.924"/>
<path fill="#C6C6C6" d="M-590.837-627.567l-4.455-4.456c-0.288-0.432-0.864-0.432-1.295,0l-0.001,0.001l-1.642-1.642
	c2.734-3.353,2.542-8.375-0.657-11.44c-3.306-3.306-8.77-3.306-12.218,0c-3.307,3.306-3.307,8.769,0,12.218
	c3.104,3.103,8.085,3.254,11.541,0.532l1.655,1.655c-0.396,0.295-0.393,0.845,0.027,1.263l4.455,4.456
	c0.287,0.431,0.861,0.431,1.295,0l1.293-1.293C-590.406-626.561-590.406-627.136-590.837-627.567z M-609.235-634.754
	c-2.3-2.444-2.444-6.181,0-8.625c2.443-2.444,6.325-2.444,8.624,0c2.444,2.444,2.444,6.181,0,8.625
	C-603.055-632.31-606.937-632.31-609.235-634.754z"/>
<path fill="#3EA349" d="M-860.611-572.754l-5.9-5.9l-2.572,2.57l8.472,8.473l16.528-16.523l-2.573-2.57L-860.611-572.754z"/>
<path fill="#C6C6C6" d="M-1171.99-282.168h-24c-1.1,0-2-0.9-2-2l0,0c0-1.1,0.9-2,2-2h24c1.1,0,2,0.9,2,2l0,0
	C-1169.99-283.068-1170.89-282.168-1171.99-282.168z M-1171.99-272.168h-24c-1.1,0-2-0.9-2-2l0,0c0-1.1,0.9-2,2-2h24
	c1.1,0,2,0.9,2,2l0,0C-1169.99-273.068-1170.89-272.168-1171.99-272.168z M-1171.99-262.168h-24c-1.1,0-2-0.9-2-2l0,0
	c0-1.1,0.9-2,2-2h24c1.1,0,2,0.9,2,2l0,0C-1169.99-263.068-1170.89-262.168-1171.99-262.168z"/>
<g>
	<path fill="#007AC2" d="M411.354,94.95c-0.302,0-0.602-0.115-0.831-0.344l-12.367-12.368c-0.459-0.458-0.459-1.201,0-1.66
		c0.458-0.458,1.201-0.459,1.658,0l12.368,12.368c0.459,0.458,0.459,1.202,0,1.66C411.953,94.835,411.654,94.95,411.354,94.95z"/>
	<path fill="#007AC2" d="M398.984,94.949c-0.301,0-0.6-0.115-0.83-0.344c-0.459-0.459-0.459-1.201,0-1.66l12.368-12.368
		c0.459-0.459,1.202-0.459,1.659,0c0.459,0.459,0.459,1.202,0,1.66l-12.368,12.368C399.585,94.834,399.285,94.949,398.984,94.949z"
		/>
</g>
<rect x="-461.123" y="-632.754" fill="#F8F8F8" stroke="#F8F8F8" stroke-width="3" stroke-linecap="round" stroke-linejoin="round" stroke-miterlimit="10" width="92" height="24"/>
<g>
	<path fill="#C84D30" d="M-374.988-615.943c-0.201,0-0.402-0.076-0.555-0.23l-8.271-8.27c-0.305-0.307-0.305-0.805,0-1.111
		c0.307-0.306,0.805-0.307,1.111,0.001l8.27,8.271c0.308,0.307,0.308,0.803,0,1.109
		C-374.586-616.02-374.787-615.943-374.988-615.943z"/>
	<path fill="#C84D30" d="M-383.26-615.943c-0.2,0-0.399-0.077-0.555-0.23c-0.307-0.307-0.307-0.804,0-1.11l8.271-8.271
		c0.307-0.306,0.803-0.307,1.108,0.001c0.308,0.306,0.308,0.804,0,1.11l-8.271,8.27
		C-382.857-616.021-383.059-615.943-383.26-615.943z"/>
</g>
<rect x="-1161.64" y="-630.046" fill="#B9DDEA" width="188.99" height="115.494"/>
<line fill="none" stroke="#A3C3CC" stroke-width="2" stroke-miterlimit="10" x1="-1161.64" y1="-630.046" x2="-972.65" y2="-514.552"/>
<line fill="none" stroke="#A3C3CC" stroke-width="2" stroke-miterlimit="10" x1="-1161.64" y1="-514.552" x2="-972.65" y2="-630.046"/>
<g>
	<path fill="#DDDDDD" d="M-205.012-222.955h-11.85l45.899-106.199h10.5l45.601,106.199h-12l-11.701-27.898h-54.898L-205.012-222.955
		z M-189.412-260.754h46.801l-23.4-56.4L-189.412-260.754z"/>
	<path fill="#DDDDDD" d="M-55.612-268.389c0-6.054-1.601-10.57-4.8-13.549c-3.201-2.978-7.853-4.468-13.95-4.468
		c-4.2,0-8.101,0.75-11.7,2.25c-3.599,1.5-6.65,3.502-9.149,6l-5.699-6.75c2.897-2.898,6.725-5.299,11.475-7.199
		c4.748-1.898,10.125-2.852,16.125-2.852c3.799,0,7.351,0.525,10.65,1.576c3.3,1.049,6.199,2.625,8.699,4.725
		c2.499,2.101,4.448,4.75,5.851,7.949c1.399,3.202,2.101,6.952,2.101,11.25v30.75c0,2.701,0.099,5.502,0.3,8.4
		c0.198,2.901,0.5,5.352,0.899,7.35h-9.149c-0.3-1.699-0.552-3.548-0.75-5.549c-0.201-2-0.3-3.949-0.3-5.852h-0.301
		c-3.201,4.702-6.824,8.077-10.875,10.125c-4.05,2.049-8.925,3.075-14.625,3.075c-2.699,0-5.475-0.377-8.324-1.127
		c-2.851-0.753-5.452-1.979-7.801-3.688c-2.351-1.706-4.301-3.914-5.85-6.623c-1.552-2.709-2.325-6.021-2.325-9.935
		c0-5.418,1.374-9.707,4.125-12.866c2.749-3.158,6.425-5.518,11.024-7.072c4.6-1.558,9.875-2.562,15.825-3.012
		c5.947-0.451,12.123-0.679,18.524-0.679V-268.389L-55.612-268.389z M-58.612-258.055c-4.2,0-8.426,0.176-12.675,0.524
		c-4.252,0.353-8.101,1.051-11.551,2.101c-3.449,1.051-6.275,2.576-8.476,4.575c-2.201,2.001-3.3,4.648-3.3,7.949
		c0,2.5,0.474,4.602,1.425,6.301c0.949,1.701,2.226,3.074,3.825,4.125c1.599,1.05,3.375,1.8,5.325,2.25
		c1.948,0.449,3.924,0.675,5.925,0.675c3.601,0,6.8-0.623,9.601-1.875c2.798-1.249,5.148-2.948,7.049-5.101
		c1.898-2.148,3.351-4.625,4.352-7.426c0.999-2.798,1.5-5.748,1.5-8.85v-5.25L-58.612-258.055L-58.612-258.055z"/>
</g>
</svg>
