<svg xmlns="http://www.w3.org/2000/svg" width="480" height="320" viewBox="0 0 480 320"><path fill="#007AC2" d="M0-2.416h480V320H0z"/><path fill="#FFF" stroke="#EFEFEF" stroke-width=".523" stroke-miterlimit="10" d="M267.451 119.782v86.684H44.303v-86.684"/><path fill="#FFF" stroke="#EFEFEF" stroke-width=".517" stroke-miterlimit="10" d="M99.634 121.485v-13.704h56.824v13.704"/><path fill="none" stroke="#E8E8E8" stroke-width="3.103" stroke-linecap="round" stroke-miterlimit="10" d="M105.322 114.763h40.103"/><path fill="#F8F8F8" stroke="#EFEFEF" stroke-width=".517" stroke-miterlimit="10" d="M44.303 107.781h55.648v13.704H44.303z"/><path fill="none" stroke="#D3D3D3" stroke-width="3.103" stroke-linecap="round" stroke-miterlimit="10" d="M49.991 114.935h28.208"/><path fill="#F8F8F8" stroke="#EFEFEF" stroke-width=".517" stroke-miterlimit="10" d="M156.347 107.781h55.648v13.704h-55.648z"/><path fill="none" stroke="#D3D3D3" stroke-width="3.103" stroke-linecap="round" stroke-miterlimit="10" d="M162.036 114.935h28.207"/><path fill="none" stroke="#E8E8E8" stroke-width="3.103" stroke-linecap="round" stroke-miterlimit="10" d="M136.597 145.021h88.042M136.015 173.152h99.103M136.015 166.12H242.54M136.015 159.087H219.4M136.015 180.186H219.4M136.015 152.055H242.54"/><circle fill="#B9DDEA" cx="95.177" cy="161.275" r="27.924"/><path fill="none" stroke="#A3C3CC" stroke-width="1.034" stroke-miterlimit="10" d="M75.508 141.606l39.338 39.338M75.508 180.944l39.338-39.338"/><path fill="none" stroke="#FFF" stroke-width="15" stroke-linecap="round" stroke-miterlimit="10" d="M47.939-282.456h87.332"/><circle fill="#007AC2" cx="48.24" cy="-282.455" r="4.303"/><path fill="none" stroke="#DFDFDF" stroke-width="5" stroke-linecap="round" stroke-miterlimit="10" d="M57.939-282.456h75.405"/><path fill="none" stroke="#FFF" stroke-width="15" stroke-linecap="round" stroke-miterlimit="10" d="M47.939-252.588h79.332"/><circle fill="#00B1DC" cx="47.635" cy="-252.588" r="4.303"/><path fill="none" stroke="#DFDFDF" stroke-width="5" stroke-linecap="round" stroke-miterlimit="10" d="M57.939-252.588h69.332"/><path fill="none" stroke="#FFF" stroke-width="15" stroke-linecap="round" stroke-miterlimit="10" d="M47.939-222.588h100"/><circle fill="#B9DDEA" cx="48.604" cy="-222.721" r="4.302"/><path fill="none" stroke="#DFDFDF" stroke-width="5" stroke-linecap="round" stroke-miterlimit="10" d="M57.939-222.588h90"/><path fill="none" stroke="#FFF" stroke-width="15" stroke-linecap="round" stroke-miterlimit="10" d="M47.939-192.989h60"/><circle fill="#EFEFEF" cx="48.604" cy="-192.856" r="4.302"/><path fill="none" stroke="#DFDFDF" stroke-width="5" stroke-linecap="round" stroke-miterlimit="10" d="M57.939-192.989h47.332"/><path fill="none" stroke="#FFF" stroke-width="15" stroke-linecap="round" stroke-miterlimit="10" d="M47.939-164.358h80.666"/><circle fill="#CCC" cx="47.938" cy="-162.988" r="4.304"/><path fill="none" stroke="#DFDFDF" stroke-width="5" stroke-linecap="round" stroke-miterlimit="10" d="M57.939-164.358h67.999"/><path fill="none" stroke="#FFF" stroke-width="15" stroke-linecap="round" stroke-miterlimit="10" d="M47.939-133.789h103.332"/><circle fill="#4C4C4C" cx="48.605" cy="-133.122" r="4.303"/><path fill="none" stroke="#DFDFDF" stroke-width="5" stroke-linecap="round" stroke-miterlimit="10" d="M57.939-133.789h89.999"/><path fill="#C6C6C6" d="M1154.55-178.522l-4.455-4.456c-.288-.432-.864-.432-1.295 0l-.001.001-1.642-1.642c2.734-3.353 2.542-8.375-.657-11.44-3.306-3.306-8.77-3.306-12.218 0-3.307 3.306-3.307 8.769 0 12.218 3.104 3.103 8.085 3.254 11.541.532l1.655 1.655c-.396.295-.393.845.027 1.263l4.455 4.456c.287.431.861.431 1.295 0l1.293-1.293c.432-.288.432-.863.002-1.294zm-18.399-7.187c-2.3-2.444-2.444-6.181 0-8.625 2.443-2.444 6.325-2.444 8.624 0 2.444 2.444 2.444 6.181 0 8.625-2.443 2.444-6.325 2.444-8.624 0z"/><g fill="#DDD"><path d="M1540.375 226.09h-11.85l45.899-106.199h10.5l45.601 106.199h-12l-11.701-27.898h-54.898l-11.551 27.898zm15.6-37.799h46.801l-23.4-56.4-23.401 56.4zM1689.774 180.656c0-6.054-1.601-10.57-4.8-13.549-3.201-2.978-7.853-4.468-13.95-4.468-4.2 0-8.101.75-11.7 2.25-3.599 1.5-6.65 3.502-9.149 6l-5.699-6.75c2.897-2.898 6.725-5.299 11.475-7.199 4.748-1.898 10.125-2.852 16.125-2.852 3.799 0 7.351.525 10.65 1.576 3.3 1.049 6.199 2.625 8.699 4.725 2.499 2.101 4.448 4.75 5.851 7.949 1.399 3.202 2.101 6.952 2.101 11.25v30.75c0 2.701.099 5.502.3 8.4.198 2.901.5 5.352.899 7.35h-9.149a73.763 73.763 0 0 1-.75-5.549c-.201-2-.3-3.949-.3-5.852h-.301c-3.201 4.702-6.824 8.077-10.875 10.125-4.05 2.049-8.925 3.075-14.625 3.075-2.699 0-5.475-.377-8.324-1.127a23.207 23.207 0 0 1-7.801-3.688c-2.351-1.706-4.301-3.914-5.85-6.623-1.552-2.709-2.325-6.021-2.325-9.935 0-5.418 1.374-9.707 4.125-12.866 2.749-3.158 6.425-5.518 11.024-7.072 4.6-1.558 9.875-2.562 15.825-3.012a245.092 245.092 0 0 1 18.524-.679v-2.229zm-3 10.334c-4.2 0-8.426.176-12.675.524-4.252.353-8.101 1.051-11.551 2.101-3.449 1.051-6.275 2.576-8.476 4.575-2.201 2.001-3.3 4.648-3.3 7.949 0 2.5.474 4.602 1.425 6.301a11.656 11.656 0 0 0 3.825 4.125c1.599 1.05 3.375 1.8 5.325 2.25 1.948.449 3.924.675 5.925.675 3.601 0 6.8-.623 9.601-1.875 2.798-1.249 5.148-2.948 7.049-5.101 1.898-2.148 3.351-4.625 4.352-7.426.999-2.798 1.5-5.748 1.5-8.85v-5.25l-3 .002z"/></g><g stroke-miterlimit="10"><path fill="#F8F8F8" stroke="#EFEFEF" d="M-1060.611-318.252h181v26.5h-181z"/><path fill="#FFF" stroke="#EFEFEF" d="M-1060.611-292.252h181v26.5h-181z"/><path fill="#FFF" stroke="#EFEFEF" d="M-1060.611-266.127h181v26.5h-181z"/><path fill="#FFF" stroke="#EFEFEF" d="M-1060.611-240.002h181v26.5h-181z"/><path fill="#FFF" stroke="#EFEFEF" d="M-1060.611-213.877h181v26.5h-181z"/><path fill="#FFF" stroke="#EFEFEF" d="M-1060.611-187.752h181v26.5h-181z"/><path fill="none" stroke="#E8E8E8" stroke-width="6" stroke-linecap="round" d="M-1049.611-278.752h100.832M-1049.611-173.086h113.499M-1049.611-199.502h122M-1049.611-225.919h95.499M-1049.611-252.336h122"/><path fill="none" stroke="#C6C6C6" stroke-width="6" stroke-linecap="round" d="M-1049.611-304.419h76.832"/></g><path fill="#F8F8F8" stroke="#EFEFEF" stroke-width=".517" stroke-miterlimit="10" d="M211.802 107.781h55.649v13.704h-55.649z"/><path fill="none" stroke="#D3D3D3" stroke-width="3.103" stroke-linecap="round" stroke-miterlimit="10" d="M217.885 114.935h28.208"/><path fill="#FFF" stroke="#EFEFEF" stroke-width=".819" stroke-miterlimit="10" d="M217.105 65.837h212.58v188.326h-212.58z"/><path fill="#FFF" stroke="#EFEFEF" stroke-miterlimit="10" d="M-1161.94-514.552h189.59v97.495h-189.59z"/><path fill="#007AC2" stroke="#007AB7" stroke-width=".819" stroke-miterlimit="10" d="M320.129 218.062h35.961v19.043h-35.961z"/><path fill="none" stroke="#007AB7" stroke-width=".819" stroke-miterlimit="10" d="M362.705 218.062h51.423v19.043h-51.423z"/><path fill="none" stroke="#E8E8E8" stroke-width="4.913" stroke-linecap="round" stroke-miterlimit="10" d="M240.168 110.519h82.565M242.352 197.043h63.486M239.622 155.063h92.939M239.622 143.927h99.899M239.622 132.792h78.199M239.622 166.2h78.199M239.622 121.655h99.899"/><path fill="none" stroke="#C6C6C6" stroke-width="4.913" stroke-linecap="round" stroke-miterlimit="10" d="M239.622 89.173h62.914"/><path fill="none" stroke="#E8E8E8" stroke-width="6" stroke-linecap="round" stroke-miterlimit="10" d="M-1142.925-466.856h100.831M-1143.592-439.656h95.499M-1143.592-453.256h122"/><path fill="none" stroke="#C6C6C6" stroke-width="6" stroke-linecap="round" stroke-miterlimit="10" d="M-1143.592-492.924h76.832"/><path fill="#C6C6C6" d="M-590.837-627.567l-4.455-4.456c-.288-.432-.864-.432-1.295 0l-.001.001-1.642-1.642c2.734-3.353 2.542-8.375-.657-11.44-3.306-3.306-8.77-3.306-12.218 0-3.307 3.306-3.307 8.769 0 12.218 3.104 3.103 8.085 3.254 11.541.532l1.655 1.655c-.396.295-.393.845.027 1.263l4.455 4.456c.287.431.861.431 1.295 0l1.293-1.293c.433-.288.433-.863.002-1.294zm-18.398-7.187c-2.3-2.444-2.444-6.181 0-8.625 2.443-2.444 6.325-2.444 8.624 0 2.444 2.444 2.444 6.181 0 8.625s-6.326 2.444-8.624 0z"/><path fill="#3EA349" d="M-860.611-572.754l-5.9-5.9-2.572 2.57 8.472 8.473 16.528-16.523-2.573-2.57-13.955 13.95z"/><path fill="#C6C6C6" d="M-1171.99-282.168h-24c-1.1 0-2-.9-2-2s.9-2 2-2h24c1.1 0 2 .9 2 2s-.9 2-2 2zm0 10h-24c-1.1 0-2-.9-2-2s.9-2 2-2h24c1.1 0 2 .9 2 2s-.9 2-2 2zm0 10h-24c-1.1 0-2-.9-2-2s.9-2 2-2h24c1.1 0 2 .9 2 2s-.9 2-2 2z"/><g fill="#007AC2"><path d="M411.354 94.95a1.17 1.17 0 0 1-.831-.344l-12.367-12.368a1.173 1.173 0 1 1 1.658-1.66l12.368 12.368a1.173 1.173 0 0 1-.828 2.004z"/><path d="M398.984 94.949a1.173 1.173 0 0 1-.83-2.004l12.368-12.368a1.173 1.173 0 1 1 1.659 1.66l-12.368 12.368a1.166 1.166 0 0 1-.829.344z"/></g><path fill="#F8F8F8" stroke="#F8F8F8" stroke-width="3" stroke-linecap="round" stroke-linejoin="round" stroke-miterlimit="10" d="M-461.123-632.754h92v24h-92z"/><g fill="#C84D30"><path d="M-374.988-615.943a.779.779 0 0 1-.555-.23l-8.271-8.27a.785.785 0 1 1 1.111-1.11l8.27 8.271a.781.781 0 0 1 0 1.109.783.783 0 0 1-.555.23z"/><path d="M-383.26-615.943a.784.784 0 0 1-.555-1.34l8.271-8.271a.782.782 0 0 1 1.108.001.782.782 0 0 1 0 1.11l-8.271 8.27a.777.777 0 0 1-.553.23z"/></g><path fill="#B9DDEA" d="M-1161.64-630.046h188.99v115.494h-188.99z"/><path fill="none" stroke="#A3C3CC" stroke-width="2" stroke-miterlimit="10" d="M-1161.64-630.046l188.99 115.494M-1161.64-514.552l188.99-115.494"/><g fill="#DDD"><path d="M-205.012-222.955h-11.85l45.899-106.199h10.5l45.601 106.199h-12l-11.701-27.898h-54.898l-11.551 27.898zm15.6-37.799h46.801l-23.4-56.4-23.401 56.4zM-55.612-268.389c0-6.054-1.601-10.57-4.8-13.549-3.201-2.978-7.853-4.468-13.95-4.468-4.2 0-8.101.75-11.7 2.25-3.599 1.5-6.65 3.502-9.149 6l-5.699-6.75c2.897-2.898 6.725-5.299 11.475-7.199 4.748-1.898 10.125-2.852 16.125-2.852 3.799 0 7.351.525 10.65 1.576 3.3 1.049 6.199 2.625 8.699 4.725 2.499 2.101 4.448 4.75 5.851 7.949 1.399 3.202 2.101 6.952 2.101 11.25v30.75c0 2.701.099 5.502.3 8.4.198 2.901.5 5.352.899 7.35h-9.149a73.763 73.763 0 0 1-.75-5.549c-.201-2-.3-3.949-.3-5.852h-.301c-3.201 4.702-6.824 8.077-10.875 10.125-4.05 2.049-8.925 3.075-14.625 3.075-2.699 0-5.475-.377-8.324-1.127a23.207 23.207 0 0 1-7.801-3.688c-2.351-1.706-4.301-3.914-5.85-6.623-1.552-2.709-2.325-6.021-2.325-9.935 0-5.418 1.374-9.707 4.125-12.866 2.749-3.158 6.425-5.518 11.024-7.072 4.6-1.558 9.875-2.562 15.825-3.012a245.092 245.092 0 0 1 18.524-.679v-2.229zm-3 10.334c-4.2 0-8.426.176-12.675.524-4.252.353-8.101 1.051-11.551 2.101-3.449 1.051-6.275 2.576-8.476 4.575-2.201 2.001-3.3 4.648-3.3 7.949 0 2.5.474 4.602 1.425 6.301a11.656 11.656 0 0 0 3.825 4.125c1.599 1.05 3.375 1.8 5.325 2.25 1.948.449 3.924.675 5.925.675 3.601 0 6.8-.623 9.601-1.875 2.798-1.249 5.148-2.948 7.049-5.101 1.898-2.148 3.351-4.625 4.352-7.426.999-2.798 1.5-5.748 1.5-8.85v-5.25l-3 .002z"/></g></svg>