<svg xmlns="http://www.w3.org/2000/svg" width="800" height="600" viewBox="0 0 800 600"><path fill="#007AC2" d="M0 0h800v600H0z"/><path fill="#052942" d="M-450.247 236.877h358.561v54.432h-358.561z"/><path fill="#FFF" d="M-450.247 291.308h358.561v17.815h-358.561z"/><path fill="#FFF" d="M-384.374 295.601v-17.996h56.824v17.996"/><path fill="none" stroke="#E8E8E8" stroke-width="3.103" stroke-linecap="round" stroke-miterlimit="10" d="M-378.686 284.587h40.103"/><path opacity=".3" d="M-441.705 277.605h55.648v13.704h-55.648z"/><path fill="none" stroke="#D3D3D3" stroke-width="3.103" stroke-linecap="round" stroke-miterlimit="10" d="M-436.017 284.759h28.208"/><path opacity=".3" d="M-325.661 277.605h55.648v13.704h-55.648z"/><path fill="none" stroke="#D3D3D3" stroke-width="3.103" stroke-linecap="round" stroke-miterlimit="10" d="M-319.972 284.759h28.207"/><path opacity=".3" d="M-269.205 277.605h55.648v13.704h-55.648z"/><path fill="none" stroke="#D3D3D3" stroke-width="3.103" stroke-linecap="round" stroke-miterlimit="10" d="M-263.123 284.759h28.208"/><path fill="#F8F8F8" d="M-200.463 364.804h58.955v10.484h-58.955z"/><path fill="#EFEFEF" d="M-141.345 375.485h-59.28v-10.879h59.28v10.879zm-58.954-.395h58.628v-10.087h-58.628v10.087z"/><path fill="#FFF" d="M-200.463 375.09h58.955v10.483h-58.955z"/><path fill="#EFEFEF" d="M-141.345 385.771h-59.28v-10.879h59.28v10.879zm-58.954-.396h58.628v-10.087h-58.628v10.087z"/><path fill="#FFF" d="M-200.463 385.427h58.955v10.48h-58.955z"/><path fill="#EFEFEF" d="M-141.345 396.106h-59.28v-10.879h59.28v10.879zm-58.954-.395h58.628v-10.088h-58.628v10.088z"/><path fill="#FFF" d="M-200.463 395.761h58.955v10.482h-58.955z"/><path fill="#EFEFEF" d="M-141.345 406.44h-59.28v-10.879h59.28v10.879zm-58.954-.395h58.628v-10.087h-58.628v10.087z"/><path fill="#FFF" d="M-200.463 406.095h58.955v10.483h-58.955z"/><path fill="#EFEFEF" d="M-141.345 416.776h-59.28v-10.881h59.28v10.881zm-58.954-.395h58.628v-10.089h-58.628v10.089z"/><path fill="#FFF" d="M-200.463 416.431h58.955v10.483h-58.955z"/><path fill="#EFEFEF" d="M-141.345 427.11h-59.28v-10.879h59.28v10.879zm-58.954-.395h58.628v-10.087h-58.628v10.087z"/><path fill="#E8E8E8" d="M-164.041 381.618h-32.841c-.541 0-.977-.531-.977-1.188s.436-1.188.977-1.188h32.842c.541 0 .979.531.979 1.188s-.439 1.188-.98 1.188zM-159.914 423.419h-36.968c-.541 0-.977-.531-.977-1.188 0-.658.436-1.188.977-1.188h36.969c.541 0 .979.53.979 1.188 0 .657-.439 1.188-.98 1.188zM-157.143 412.97h-39.739c-.539 0-.976-.533-.976-1.188 0-.657.437-1.188.976-1.188h39.739c.54 0 .978.529.978 1.188-.001.655-.438 1.188-.978 1.188zM-165.775 402.519h-31.106c-.539 0-.976-.531-.976-1.188 0-.654.437-1.188.976-1.188h31.106c.54 0 .978.532.978 1.188 0 .654-.438 1.188-.978 1.188zM-157.143 392.067h-39.739c-.539 0-.976-.531-.976-1.188 0-.654.437-1.188.976-1.188h39.739c.54 0 .978.53.978 1.188-.001.655-.438 1.188-.978 1.188z"/><path fill="#F8F8F8" d="M-190.989 601.672h58.955v9.942h-58.955z"/><path fill="#EFEFEF" d="M-131.871 611.804h-59.28v-10.318h59.28v10.318zm-58.954-.375h58.628v-9.568h-58.628v9.568z"/><path fill="#FFF" d="M-190.989 611.429h58.955v9.942h-58.955z"/><path fill="#EFEFEF" d="M-131.871 621.56h-59.28v-10.318h59.28v10.318zm-58.954-.377h58.628v-9.566h-58.628v9.566z"/><path fill="#FFF" d="M-190.989 621.229h58.955v9.942h-58.955z"/><path fill="#EFEFEF" d="M-131.871 631.36h-59.28v-10.317h59.28v10.317zm-58.954-.375h58.628v-9.567h-58.628v9.567z"/><path fill="#FFF" d="M-190.989 631.032h58.955v9.94h-58.955z"/><path fill="#EFEFEF" d="M-131.871 641.163h-59.28v-10.318h59.28v10.318zm-58.954-.376h58.628v-9.567h-58.628v9.567z"/><path fill="#FFF" d="M-190.989 640.834h58.955v9.942h-58.955z"/><path fill="#EFEFEF" d="M-131.871 650.965h-59.28v-10.317h59.28v10.317zm-58.954-.375h58.628v-9.567h-58.628v9.567z"/><path fill="#FFF" d="M-190.989 650.638h58.955v9.942h-58.955z"/><path fill="#EFEFEF" d="M-131.871 660.769h-59.28V650.45h59.28v10.319zm-58.954-.377h58.628v-9.566h-58.628v9.566z"/><path fill="#E8E8E8" d="M-154.566 617.619h-32.841c-.541 0-.977-.505-.977-1.126 0-.622.436-1.127.977-1.127h32.842c.541 0 .979.505.979 1.127 0 .621-.439 1.126-.98 1.126zM-150.439 657.267h-36.968c-.541 0-.977-.506-.977-1.127s.436-1.125.977-1.125h36.969c.541 0 .979.504.979 1.125s-.439 1.127-.98 1.127zM-147.668 647.353h-39.739c-.539 0-.976-.504-.976-1.125 0-.623.437-1.125.976-1.125h39.739c.54 0 .978.502.978 1.125s-.438 1.125-.978 1.125zM-156.301 637.44h-31.106c-.539 0-.976-.504-.976-1.125s.437-1.125.976-1.125h31.106c.54 0 .978.504.978 1.125s-.438 1.125-.978 1.125zM-147.668 627.53h-39.739c-.539 0-.976-.506-.976-1.127s.437-1.125.976-1.125h39.739c.54 0 .978.504.978 1.125-.001.621-.438 1.127-.978 1.127z"/><path fill="#C6C6C6" d="M-162.381 607.987h-25.026c-.539 0-.976-.504-.976-1.125s.437-1.127.976-1.127h25.026c.54 0 .978.506.978 1.127s-.438 1.125-.978 1.125z"/><path fill="#FFF" stroke="#EFEFEF" stroke-width=".443" stroke-miterlimit="10" d="M221.72 52.883h358.561v32.719H221.72z"/><path fill="none" stroke="#C6C6C6" stroke-width="4.082" stroke-linecap="round" stroke-miterlimit="10" d="M230.262 71.372h43.426"/><path fill="none" stroke="#DFDFDF" stroke-width="3.025" stroke-linecap="round" stroke-miterlimit="10" d="M292.92 71.372h27.598M332.92 71.372h27.598M372.921 71.372h27.597M412.921 71.372h27.597"/><path fill="#DFDFDF" d="M573.805 72.89l-1.899-1.901c-.123-.184-.368-.184-.554 0v.001l-.699-.701c1.166-1.431 1.085-3.573-.28-4.88-1.411-1.411-3.742-1.411-5.213 0-1.41 1.41-1.41 3.741 0 5.212 1.324 1.325 3.449 1.389 4.924.227l.706.706c-.17.126-.168.361.011.539l1.9 1.901c.123.185.367.185.553 0l.552-.552c.183-.122.183-.367-.001-.552zm-7.849-3.066c-.98-1.042-1.043-2.636 0-3.679 1.042-1.042 2.699-1.042 3.68 0 1.042 1.043 1.042 2.638 0 3.679-1.043 1.043-2.698 1.043-3.68 0z"/><path fill="#007AC2" d="M372.78 51.989h28v3h-28z"/><path fill="#F8F8F8" d="M221.72 440.582h358.34v73.799H221.72z"/><path fill="none" stroke="#E8E8E8" stroke-width="4.554" stroke-linecap="round" stroke-miterlimit="10" d="M345.609 479.791h57.04M345.232 502.064h54.024M345.232 490.928h69.017"/><path fill="none" stroke="#C6C6C6" stroke-width="4.554" stroke-linecap="round" stroke-miterlimit="10" d="M345.232 460.445h43.465"/><path fill="none" stroke="#E8E8E8" stroke-width="4.554" stroke-linecap="round" stroke-miterlimit="10" d="M259.928 479.791h54.79M259.566 502.064h51.892M259.566 490.928h66.294"/><path fill="none" stroke="#C6C6C6" stroke-width="4.554" stroke-linecap="round" stroke-miterlimit="10" d="M259.566 460.445h41.75"/><path fill="none" stroke="#E8E8E8" stroke-width="4.554" stroke-linecap="round" stroke-miterlimit="10" d="M432.646 479.791h46.184M432.268 502.064h54.024M432.268 490.928h34.306"/><path fill="none" stroke="#C6C6C6" stroke-width="4.554" stroke-linecap="round" stroke-miterlimit="10" d="M432.268 460.445h60.492"/><path fill="none" stroke="#E8E8E8" stroke-width="4.554" stroke-linecap="round" stroke-miterlimit="10" d="M521.41 479.791h46.184M521.032 502.064h27.012M521.032 490.928h46.562"/><path fill="none" stroke="#C6C6C6" stroke-width="4.554" stroke-linecap="round" stroke-miterlimit="10" d="M521.032 460.445h25.702"/><path fill="#052942" d="M221.72 85.602h358.561v107.995H221.72z"/><path fill="none" stroke="#FFF" stroke-width="6" stroke-linecap="round" stroke-miterlimit="10" d="M348.219 139.599h103.689"/><path fill="#FFF" d="M221.499 191.688h358.562v248.894H221.499z"/><path fill="#FFF" d="M229.225 200.439h59.282v121.449h-59.282z"/><path fill="#FFF" d="M229.225 200.439h59.281v59.283h-59.281z"/><path fill="#FFF" d="M229.225 259.691h59.281v59.283h-59.281z"/><g><path fill="#F8F8F8" d="M229.377 207.637h54.435v10.484h-54.435z"/><path fill="#EFEFEF" d="M283.962 218.318h-54.735v-10.879h54.735v10.879zm-54.434-.395h54.132v-10.087h-54.132v10.087z"/><path fill="#FFF" d="M229.377 217.923h54.435v10.483h-54.435z"/><path fill="#EFEFEF" d="M283.962 228.604h-54.735v-10.879h54.735v10.879zm-54.434-.396h54.132v-10.087h-54.132v10.087z"/><path fill="#FFF" d="M229.377 228.26h54.435v10.48h-54.435z"/><path fill="#EFEFEF" d="M283.962 238.939h-54.735V228.06h54.735v10.879zm-54.434-.395h54.132v-10.088h-54.132v10.088z"/><path fill="#FFF" d="M229.377 238.594h54.435v10.482h-54.435z"/><path fill="#EFEFEF" d="M283.962 249.273h-54.735v-10.879h54.735v10.879zm-54.434-.395h54.132v-10.087h-54.132v10.087z"/><path fill="#FFF" d="M229.377 248.928h54.435v10.483h-54.435z"/><path fill="#EFEFEF" d="M283.962 259.609h-54.735v-10.881h54.735v10.881zm-54.434-.395h54.132v-10.089h-54.132v10.089z"/><path fill="#FFF" d="M229.377 259.264h54.435v10.483h-54.435z"/><path fill="#EFEFEF" d="M283.962 269.943h-54.735v-10.879h54.735v10.879zm-54.434-.395h54.132v-10.087h-54.132v10.087z"/><path fill="#E8E8E8" d="M263.007 224.451h-30.323c-.5 0-.902-.531-.902-1.188s.403-1.188.902-1.188h30.324c.5 0 .904.531.904 1.188s-.406 1.188-.905 1.188zM266.817 266.252h-34.133c-.5 0-.902-.531-.902-1.188 0-.658.403-1.188.902-1.188h34.134c.5 0 .904.53.904 1.188 0 .657-.405 1.188-.905 1.188zM269.376 255.803h-36.692c-.498 0-.901-.533-.901-1.188 0-.657.404-1.188.901-1.188h36.692c.499 0 .903.529.903 1.188-.001.655-.404 1.188-.903 1.188zM261.405 245.352h-28.721c-.498 0-.901-.531-.901-1.188 0-.654.404-1.188.901-1.188h28.721c.499 0 .903.532.903 1.188 0 .654-.404 1.188-.903 1.188zM269.376 234.9h-36.692c-.498 0-.901-.531-.901-1.188 0-.654.404-1.188.901-1.188h36.692c.499 0 .903.53.903 1.188-.001.655-.404 1.188-.903 1.188z"/><path fill="#C6C6C6" d="M255.791 214.297h-23.107c-.498 0-.901-.531-.901-1.188 0-.655.404-1.188.901-1.188h23.107c.499 0 .903.532.903 1.188s-.404 1.188-.903 1.188z"/><g><path fill="#F8F8F8" d="M229.377 269.88h54.435v9.942h-54.435z"/><path fill="#EFEFEF" d="M283.962 280.012h-54.735v-10.318h54.735v10.318zm-54.434-.375h54.132v-9.568h-54.132v9.568z"/><path fill="#FFF" d="M229.377 279.637h54.435v9.942h-54.435z"/><path fill="#EFEFEF" d="M283.962 289.768h-54.735V279.45h54.735v10.318zm-54.434-.377h54.132v-9.566h-54.132v9.566z"/><path fill="#FFF" d="M229.377 289.438h54.435v9.942h-54.435z"/><path fill="#EFEFEF" d="M283.962 299.568h-54.735v-10.317h54.735v10.317zm-54.434-.375h54.132v-9.567h-54.132v9.567z"/><path fill="#FFF" d="M229.377 299.24h54.435v9.94h-54.435z"/><path fill="#EFEFEF" d="M283.962 309.371h-54.735v-10.318h54.735v10.318zm-54.434-.376h54.132v-9.567h-54.132v9.567z"/><path fill="#FFF" d="M229.377 309.042h54.435v9.942h-54.435z"/><path fill="#EFEFEF" d="M283.962 319.173h-54.735v-10.317h54.735v10.317zm-54.434-.375h54.132v-9.567h-54.132v9.567z"/><path fill="#FFF" d="M229.377 318.846h54.435v9.942h-54.435z"/><path fill="#EFEFEF" d="M283.962 328.977h-54.735v-10.318h54.735v10.318zm-54.434-.377h54.132v-9.566h-54.132v9.566z"/><path fill="#E8E8E8" d="M263.007 285.827h-30.323c-.5 0-.902-.505-.902-1.126 0-.622.403-1.127.902-1.127h30.324c.5 0 .904.505.904 1.127 0 .621-.406 1.126-.905 1.126zM266.817 325.475h-34.133c-.5 0-.902-.506-.902-1.127s.403-1.125.902-1.125h34.134c.5 0 .904.504.904 1.125s-.405 1.127-.905 1.127zM269.376 315.561h-36.692c-.498 0-.901-.504-.901-1.125 0-.623.404-1.125.901-1.125h36.692c.499 0 .903.502.903 1.125s-.404 1.125-.903 1.125zM261.405 305.648h-28.721c-.498 0-.901-.504-.901-1.125s.404-1.125.901-1.125h28.721c.499 0 .903.504.903 1.125s-.404 1.125-.903 1.125zM269.376 295.738h-36.692c-.498 0-.901-.506-.901-1.127s.404-1.125.901-1.125h36.692c.499 0 .903.504.903 1.125-.001.621-.404 1.127-.903 1.127z"/><path fill="#C6C6C6" d="M255.791 276.195h-23.107c-.498 0-.901-.504-.901-1.125s.404-1.127.901-1.127h23.107c.499 0 .903.506.903 1.127s-.404 1.125-.903 1.125z"/></g></g><g><path fill="#FFF" d="M302.014 207.752h59.283v59.283h-59.283z"/><path fill="#FFF" stroke="#EFEFEF" stroke-width=".295" stroke-miterlimit="10" d="M302.014 239.9h59.283v27.136h-59.283z"/><path fill="none" stroke="#E8E8E8" stroke-width="1.77" stroke-linecap="round" stroke-miterlimit="10" d="M307.96 253.176h31.529M307.751 256.961h38.148"/><path fill="none" stroke="#C6C6C6" stroke-width="1.77" stroke-linecap="round" stroke-miterlimit="10" d="M307.751 245.92h24.025"/><path fill="#B9DDEA" d="M302.108 207.754h59.094V239.9h-59.094z"/><path fill="none" stroke="#A3C3CC" stroke-width=".59" stroke-miterlimit="10" d="M302.108 207.754l59.094 32.146M302.108 239.9l59.094-32.146"/></g><g><path fill="#FFF" d="M376.13 207.752h59.284v59.283H376.13z"/><path fill="#FFF" stroke="#EFEFEF" stroke-width=".295" stroke-miterlimit="10" d="M376.13 239.9h59.284v27.136H376.13z"/><path fill="none" stroke="#E8E8E8" stroke-width="1.77" stroke-linecap="round" stroke-miterlimit="10" d="M382.077 253.176h31.528M381.868 256.961h38.148"/><path fill="none" stroke="#C6C6C6" stroke-width="1.77" stroke-linecap="round" stroke-miterlimit="10" d="M381.868 245.92h24.025"/><path fill="#B9DDEA" d="M376.225 207.754h59.093V239.9h-59.093z"/><path fill="none" stroke="#A3C3CC" stroke-width=".59" stroke-miterlimit="10" d="M376.225 207.754l59.093 32.146M376.225 239.9l59.093-32.146"/></g><g><path fill="#FFF" d="M446.426 207.752h59.284v59.283h-59.284z"/><path fill="#FFF" stroke="#EFEFEF" stroke-width=".295" stroke-miterlimit="10" d="M446.426 239.9h59.284v27.136h-59.284z"/><path fill="none" stroke="#E8E8E8" stroke-width="1.77" stroke-linecap="round" stroke-miterlimit="10" d="M452.373 253.176H483.9M452.164 256.961h38.147"/><path fill="none" stroke="#C6C6C6" stroke-width="1.77" stroke-linecap="round" stroke-miterlimit="10" d="M452.164 245.92h24.024"/><path fill="#B9DDEA" d="M446.521 207.754h59.093V239.9h-59.093z"/><path fill="none" stroke="#A3C3CC" stroke-width=".59" stroke-miterlimit="10" d="M446.521 207.754l59.093 32.146M446.521 239.9l59.093-32.146"/></g><g><path fill="#FFF" d="M515.438 207.752h59.284v59.283h-59.284z"/><path fill="#FFF" stroke="#EFEFEF" stroke-width=".295" stroke-miterlimit="10" d="M515.438 239.9h59.284v27.136h-59.284z"/><path fill="none" stroke="#E8E8E8" stroke-width="1.77" stroke-linecap="round" stroke-miterlimit="10" d="M521.387 253.176h31.527M521.178 256.961h38.146"/><path fill="none" stroke="#C6C6C6" stroke-width="1.77" stroke-linecap="round" stroke-miterlimit="10" d="M521.178 245.92h24.023"/><path fill="#B9DDEA" d="M515.534 207.754h59.093V239.9h-59.093z"/><path fill="none" stroke="#A3C3CC" stroke-width=".59" stroke-miterlimit="10" d="M515.534 207.754l59.093 32.146M515.534 239.9l59.093-32.146"/></g><path fill="none" stroke="#7A7A7A" stroke-width="3" stroke-linecap="round" stroke-miterlimit="10" d="M303.108 289.768H353.5M303.108 364.606H353.5"/><path fill="none" stroke="#ADADAD" stroke-width="3" stroke-linecap="round" stroke-miterlimit="10" d="M303.108 303.398h251.406M303.108 313.536H563M303.108 323.674H571.5M303.108 333.812H566.5M303.108 375.768H571.5M303.108 385.905h255.139M303.108 396.043H566.5M303.108 406.181H571.5M303.108 416.318H566.5"/><g fill="#C84D30"><path opacity=".2" d="M228.225 51.989h11.839v462.392h-11.839zM242.788 51.989h11.839v462.392h-11.839zM257.35 51.989h11.839v462.392H257.35zM271.913 51.989h11.839v462.392h-11.839zM286.475 51.989h11.839v462.392h-11.839zM301.037 51.989h11.839v462.392h-11.839zM315.599 51.989h11.84v462.392h-11.84zM330.162 51.989h11.84v462.392h-11.84zM344.724 51.989h11.839v462.392h-11.839zM359.287 51.989h11.839v462.392h-11.839zM373.849 51.989h11.839v462.392h-11.839zM388.412 51.989h11.839v462.392h-11.839zM402.974 51.989h11.84v462.392h-11.84zM417.536 51.989h11.841v462.392h-11.841zM432.098 51.989h11.841v462.392h-11.841zM446.661 51.989H458.5v462.392h-11.839zM461.223 51.989h11.84v462.392h-11.84zM475.786 51.989h11.839v462.392h-11.839zM490.349 51.989h11.839v462.392h-11.839zM504.911 51.989h11.839v462.392h-11.839zM519.473 51.989h11.84v462.392h-11.84zM534.035 51.989h11.84v462.392h-11.84zM548.599 51.989h11.839v462.392h-11.839zM563.16 51.989H575v462.392h-11.84z"/></g></svg>