<svg xmlns="http://www.w3.org/2000/svg" width="480" height="320" viewBox="0 0 480 320"><path fill="#00B1DC" d="M0-1h480v321H0z"/><g fill="#84E0EF"><path d="M165.824 211.7h-11.85l45.899-106.199h10.5L255.975 211.7h-12l-11.701-27.898h-54.898L165.824 211.7zm15.6-37.799h46.801l-23.4-56.4-23.401 56.4zM315.225 166.267c0-6.054-1.602-10.57-4.801-13.549-3.201-2.978-7.852-4.468-13.949-4.468-4.201 0-8.102.75-11.701 2.25-3.598 1.5-6.65 3.502-9.148 6l-5.699-6.75c2.896-2.898 6.725-5.299 11.475-7.199 4.748-1.898 10.125-2.852 16.125-2.852 3.799 0 7.35.525 10.65 1.576 3.299 1.049 6.199 2.625 8.699 4.725 2.498 2.101 4.447 4.75 5.85 7.949 1.4 3.202 2.102 6.952 2.102 11.25v30.75c0 2.701.098 5.502.299 8.4.199 2.901.5 5.352.9 7.35h-9.15a74.81 74.81 0 0 1-.75-5.549c-.201-2-.299-3.949-.299-5.852h-.301c-3.201 4.702-6.824 8.077-10.875 10.125-4.051 2.049-8.926 3.075-14.625 3.075-2.699 0-5.475-.377-8.324-1.127a23.19 23.19 0 0 1-7.801-3.688c-2.352-1.706-4.301-3.914-5.85-6.623-1.553-2.709-2.326-6.021-2.326-9.935 0-5.418 1.375-9.707 4.125-12.866 2.75-3.158 6.426-5.518 11.025-7.072 4.6-1.558 9.875-2.562 15.824-3.012a245.1 245.1 0 0 1 18.525-.679v-2.229zm-3 10.334c-4.201 0-8.426.176-12.676.524-4.252.353-8.1 1.051-11.551 2.101-3.449 1.051-6.275 2.576-8.475 4.575-2.201 2.001-3.301 4.648-3.301 7.949 0 2.5.475 4.602 1.426 6.301a11.653 11.653 0 0 0 3.824 4.125c1.6 1.05 3.375 1.8 5.326 2.25 1.947.449 3.924.675 5.924.675 3.602 0 6.801-.623 9.602-1.875 2.797-1.249 5.148-2.948 7.049-5.101 1.898-2.148 3.35-4.625 4.352-7.426.998-2.798 1.5-5.748 1.5-8.85v-5.25l-3 .002z"/></g></svg>