<svg id="Layer_1" xmlns="http://www.w3.org/2000/svg" viewBox="0 0 108 108"><style>.st0{fill:#59595a}.st1{fill:#ccc}</style><circle class="st0" cx="53.8" cy="54" r="53.5"/><path class="st1" d="M193.8 169.3l-11.8 8.1-11.1-17.2 24.9-15.9h21.8v70.2h-23.8v-45.2zM54.7 46.3c1.1-.9 2-1.8 2.8-2.9.7-1.1 1.1-2.1 1.1-3.3 0-1.3-.4-2.5-1.2-3.5-.8-1-2.1-1.5-3.9-1.5-1.9 0-3.5.8-4.8 2.3-1.3 1.5-1.9 3.6-2.1 6.1L24.1 41c.5-4.6 1.7-8.5 3.6-11.8 1.9-3.3 4.3-6 7.2-8.2 2.9-2.2 6.1-3.8 9.6-4.8s7.2-1.5 11-1.5c3.4 0 6.9.4 10.3 1.3 3.4.9 6.4 2.2 9.1 4 2.6 1.8 4.8 4.2 6.4 7.1 1.7 2.9 2.5 6.4 2.5 10.5 0 2.9-.4 5.5-1.1 7.7-.8 2.2-1.8 4.2-3.1 5.9-1.3 1.7-2.7 3.3-4.4 4.7-1.6 1.4-3.3 2.7-5.1 4l-10.3 7.3H84v19.7H27V68.5l27.7-22.2zM-118.3 55.6c1.8.6 3.4 1.4 4.9 2.5s2.8 2.3 3.8 3.7c1.1 1.4 1.9 2.9 2.4 4.5.6 1.6.8 3.3.8 4.9 0 4.1-.9 7.6-2.6 10.6-1.7 2.9-4 5.4-6.7 7.2-2.8 1.9-5.9 3.3-9.4 4.1-3.5.9-7 1.3-10.6 1.3-3.6 0-7.1-.4-10.6-1.2-3.5-.8-6.6-2.1-9.5-3.9-2.9-1.8-5.4-4-7.5-6.7-2.1-2.7-3.7-5.9-4.6-9.7l22-5.2c.4 1.7 1.4 3.3 2.9 4.8 1.6 1.5 3.6 2.2 6 2.2.7 0 1.4-.1 2.1-.2.7-.2 1.4-.4 2-.8.6-.4 1.1-.8 1.5-1.4.4-.6.6-1.4.6-2.3 0-2.1-.9-3.5-2.8-4.2-1.9-.7-4.3-1-7.4-1h-6.7V48.4h7.5c2.5 0 4.5-.3 6-1s2.3-2 2.3-4c0-1.5-.6-2.6-1.8-3.2-1.2-.6-2.4-.9-3.8-.9-1.7 0-3.2.5-4.6 1.5-1.4 1-2.2 2.5-2.6 4.5l-21.9-4.7c1.2-3.8 2.9-7.1 5.1-9.7 2.2-2.6 4.7-4.7 7.5-6.3 2.8-1.6 5.8-2.7 9-3.4 3.2-.7 6.4-1 9.5-1 3.1 0 6.3.4 9.6 1.1 3.3.8 6.3 2 9 3.7 2.7 1.7 4.9 3.8 6.6 6.4 1.7 2.6 2.6 5.8 2.6 9.5 0 4-1 7.1-3.1 9.5-2.1 2.3-4.6 3.9-7.6 4.8v.4z"/></svg>