<svg id="Layer_1" xmlns="http://www.w3.org/2000/svg" viewBox="0 0 108 108"><style>.st0{fill:#59595a}.st1{fill:#ccc}</style><path class="st0" d="M0 0h108v108H0z"/><path class="st1" d="M164.4 39l-5.9 4.1-5.6-8.7 12.5-8h11v35.4h-12V39zM54.4 46.8c.6-.4 1-.9 1.4-1.4.4-.5.5-1.1.5-1.6 0-.7-.2-1.2-.6-1.8-.4-.5-1.1-.8-2-.8-1 0-1.8.4-2.4 1.1-.6.8-1 1.8-1 3.1l-11.4-1.3c.2-2.3.8-4.3 1.8-5.9 1-1.7 2.2-3.1 3.6-4.2 1.5-1.1 3.1-1.9 4.9-2.4 1.8-.5 3.6-.8 5.5-.8 1.7 0 3.5.2 5.2.6 1.7.4 3.2 1.1 4.6 2 1.3.9 2.4 2.1 3.2 3.6.8 1.5 1.2 3.2 1.2 5.3 0 1.5-.2 2.8-.6 3.9-.4 1.1-.9 2.1-1.6 3-.6.9-1.4 1.6-2.2 2.4-.8.7-1.7 1.4-2.6 2l-5.2 3.7h12.2v10H40.4V58l14-11.2zM-32 91.1c.9.3 1.7.7 2.5 1.2s1.4 1.1 1.9 1.8.9 1.5 1.2 2.3c.3.8.4 1.6.4 2.5 0 2.1-.4 3.8-1.3 5.3s-2 2.7-3.4 3.7c-1.4.9-3 1.6-4.8 2.1-1.8.4-3.5.7-5.4.7-1.8 0-3.6-.2-5.3-.6s-3.4-1.1-4.8-2c-1.4-.9-2.7-2-3.8-3.4-1.1-1.4-1.9-3-2.3-4.9l11.1-2.6c.2.9.7 1.7 1.5 2.4s1.8 1.1 3 1.1c.3 0 .7 0 1-.1.4-.1.7-.2 1-.4.3-.2.6-.4.8-.7.2-.3.3-.7.3-1.2 0-1.1-.5-1.8-1.4-2.1-.9-.3-2.2-.5-3.8-.5H-47v-8.2h3.8c1.3 0 2.3-.2 3-.5.8-.3 1.1-1 1.1-2 0-.8-.3-1.3-.9-1.6-.6-.3-1.2-.4-1.9-.4-.8 0-1.6.3-2.3.8-.7.5-1.1 1.3-1.3 2.3l-11-2.4c.6-1.9 1.4-3.6 2.5-4.9 1.1-1.3 2.4-2.4 3.8-3.2 1.4-.8 2.9-1.4 4.6-1.7 1.6-.4 3.2-.5 4.8-.5 1.6 0 3.2.2 4.9.6 1.7.4 3.2 1 4.5 1.8 1.4.9 2.5 1.9 3.4 3.2.9 1.3 1.3 2.9 1.3 4.8 0 2-.5 3.6-1.6 4.8-1.1 1.2-2.3 2-3.8 2.4v.1z"/></svg>