<?xml version="1.0" encoding="utf-8"?>
<!-- Generator: Adobe Illustrator 16.0.4, SVG Export Plug-In . SVG Version: 6.00 Build 0)  -->
<!DOCTYPE svg PUBLIC "-//W3C//DTD SVG 1.1//EN" "http://www.w3.org/Graphics/SVG/1.1/DTD/svg11.dtd">
<svg version="1.1" xmlns="http://www.w3.org/2000/svg" xmlns:xlink="http://www.w3.org/1999/xlink" x="0px" y="0px" width="1400px"
	 height="600px" viewBox="0 0 1400 600" enable-background="new 0 0 1400 600" xml:space="preserve">
<g id="Layer_2">
</g>
<g id="Layer_1">
	<g>
		<rect x="201" y="381.502" fill="#F8F8F8" stroke="#EFEFEF" stroke-miterlimit="10" width="181" height="26.5"/>
		<rect x="201" y="407.502" fill="#FFFFFF" stroke="#EFEFEF" stroke-miterlimit="10" width="181" height="26.5"/>
		<rect x="201" y="433.627" fill="#FFFFFF" stroke="#EFEFEF" stroke-miterlimit="10" width="181" height="26.5"/>
		<rect x="201" y="459.752" fill="#FFFFFF" stroke="#EFEFEF" stroke-miterlimit="10" width="181" height="26.5"/>
		<rect x="201" y="485.877" fill="#FFFFFF" stroke="#EFEFEF" stroke-miterlimit="10" width="181" height="26.5"/>
		<rect x="201" y="512.002" fill="#FFFFFF" stroke="#EFEFEF" stroke-miterlimit="10" width="181" height="26.5"/>
		
			<line fill="none" stroke="#E8E8E8" stroke-width="6" stroke-linecap="round" stroke-miterlimit="10" x1="212" y1="421.002" x2="312.832" y2="421.002"/>
		
			<line fill="none" stroke="#E8E8E8" stroke-width="6" stroke-linecap="round" stroke-miterlimit="10" x1="212" y1="526.668" x2="325.499" y2="526.668"/>
		
			<line fill="none" stroke="#E8E8E8" stroke-width="6" stroke-linecap="round" stroke-miterlimit="10" x1="212" y1="500.252" x2="334" y2="500.252"/>
		
			<line fill="none" stroke="#E8E8E8" stroke-width="6" stroke-linecap="round" stroke-miterlimit="10" x1="212" y1="473.835" x2="307.499" y2="473.835"/>
		
			<line fill="none" stroke="#E8E8E8" stroke-width="6" stroke-linecap="round" stroke-miterlimit="10" x1="212" y1="447.418" x2="334" y2="447.418"/>
		
			<line fill="none" stroke="#C6C6C6" stroke-width="6" stroke-linecap="round" stroke-miterlimit="10" x1="212" y1="395.335" x2="288.832" y2="395.335"/>
	</g>
	<polyline fill="#FFFFFF" stroke="#EFEFEF" stroke-miterlimit="10" points="938,453.388 938,617.388 506.482,617.388 
		506.482,453.388 	"/>
	<polyline fill="#FFFFFF" stroke="#EFEFEF" stroke-miterlimit="10" points="613.48,453.055 613.48,426.555 723.363,426.555 
		723.363,453.055 	"/>
	
		<line fill="none" stroke="#E8E8E8" stroke-width="6" stroke-linecap="round" stroke-miterlimit="10" x1="624.48" y1="440.055" x2="702.029" y2="440.055"/>
	<rect x="506.482" y="426.555" fill="#F8F8F8" stroke="#EFEFEF" stroke-miterlimit="10" width="107.611" height="26.5"/>
	
		<line fill="none" stroke="#D3D3D3" stroke-width="6" stroke-linecap="round" stroke-miterlimit="10" x1="517.482" y1="440.388" x2="572.029" y2="440.388"/>
	<rect x="723.15" y="426.555" fill="#F8F8F8" stroke="#EFEFEF" stroke-miterlimit="10" width="107.611" height="26.5"/>
	
		<line fill="none" stroke="#D3D3D3" stroke-width="6" stroke-linecap="round" stroke-miterlimit="10" x1="734.15" y1="440.388" x2="788.697" y2="440.388"/>
	<rect x="830.389" y="426.555" fill="#F8F8F8" stroke="#EFEFEF" stroke-miterlimit="10" width="107.611" height="26.5"/>
	
		<line fill="none" stroke="#D3D3D3" stroke-width="6" stroke-linecap="round" stroke-miterlimit="10" x1="842.15" y1="440.388" x2="896.697" y2="440.388"/>
	<rect x="1064.972" y="48.501" fill="#FFFFFF" stroke="#EFEFEF" stroke-miterlimit="10" width="259.609" height="229.989"/>
	<rect x="99.671" y="185.202" fill="#FFFFFF" stroke="#EFEFEF" stroke-miterlimit="10" width="189.59" height="97.495"/>
	<rect x="1190.787" y="234.402" fill="#007AC2" stroke="#007AB7" stroke-miterlimit="10" width="43.916" height="23.256"/>
	<rect x="1242.782" y="234.402" fill="none" stroke="#007AB7" stroke-miterlimit="10" width="62.799" height="23.256"/>
	
		<line fill="none" stroke="#E8E8E8" stroke-width="6" stroke-linecap="round" stroke-miterlimit="10" x1="1093.137" y1="103.068" x2="1193.968" y2="103.068"/>
	
		<line fill="none" stroke="#E8E8E8" stroke-width="6" stroke-linecap="round" stroke-miterlimit="10" x1="1095.804" y1="208.734" x2="1173.334" y2="208.734"/>
	
		<line fill="none" stroke="#E8E8E8" stroke-width="6" stroke-linecap="round" stroke-miterlimit="10" x1="1092.47" y1="157.467" x2="1205.969" y2="157.467"/>
	
		<line fill="none" stroke="#E8E8E8" stroke-width="6" stroke-linecap="round" stroke-miterlimit="10" x1="1092.47" y1="143.867" x2="1214.47" y2="143.867"/>
	
		<line fill="none" stroke="#E8E8E8" stroke-width="6" stroke-linecap="round" stroke-miterlimit="10" x1="1092.47" y1="130.268" x2="1187.969" y2="130.268"/>
	
		<line fill="none" stroke="#E8E8E8" stroke-width="6" stroke-linecap="round" stroke-miterlimit="10" x1="1092.47" y1="171.068" x2="1187.969" y2="171.068"/>
	
		<line fill="none" stroke="#E8E8E8" stroke-width="6" stroke-linecap="round" stroke-miterlimit="10" x1="1092.47" y1="116.668" x2="1214.47" y2="116.668"/>
	
		<line fill="none" stroke="#E8E8E8" stroke-width="6" stroke-linecap="round" stroke-miterlimit="10" x1="684.957" y1="498.568" x2="855.211" y2="498.568"/>
	
		<line fill="none" stroke="#E8E8E8" stroke-width="6" stroke-linecap="round" stroke-miterlimit="10" x1="683.832" y1="552.968" x2="875.475" y2="552.968"/>
	
		<line fill="none" stroke="#E8E8E8" stroke-width="6" stroke-linecap="round" stroke-miterlimit="10" x1="683.832" y1="539.368" x2="889.828" y2="539.368"/>
	
		<line fill="none" stroke="#E8E8E8" stroke-width="6" stroke-linecap="round" stroke-miterlimit="10" x1="683.832" y1="525.769" x2="845.08" y2="525.769"/>
	
		<line fill="none" stroke="#E8E8E8" stroke-width="6" stroke-linecap="round" stroke-miterlimit="10" x1="683.832" y1="566.568" x2="845.08" y2="566.568"/>
	
		<line fill="none" stroke="#E8E8E8" stroke-width="6" stroke-linecap="round" stroke-miterlimit="10" x1="683.832" y1="512.169" x2="889.828" y2="512.169"/>
	
		<line fill="none" stroke="#C6C6C6" stroke-width="6" stroke-linecap="round" stroke-miterlimit="10" x1="1092.47" y1="77" x2="1169.302" y2="77"/>
	
		<line fill="none" stroke="#E8E8E8" stroke-width="6" stroke-linecap="round" stroke-miterlimit="10" x1="118.686" y1="232.898" x2="219.517" y2="232.898"/>
	
		<line fill="none" stroke="#E8E8E8" stroke-width="6" stroke-linecap="round" stroke-miterlimit="10" x1="118.019" y1="260.098" x2="213.518" y2="260.098"/>
	
		<line fill="none" stroke="#E8E8E8" stroke-width="6" stroke-linecap="round" stroke-miterlimit="10" x1="118.019" y1="246.498" x2="240.019" y2="246.498"/>
	
		<line fill="none" stroke="#C6C6C6" stroke-width="6" stroke-linecap="round" stroke-miterlimit="10" x1="118.019" y1="206.83" x2="194.851" y2="206.83"/>
	<path fill="#C6C6C6" d="M670.774,72.187l-4.455-4.456c-0.288-0.432-0.864-0.432-1.295,0l-0.001,0.001l-1.641-1.642
		c2.734-3.353,2.542-8.375-0.657-11.44c-3.306-3.306-8.77-3.306-12.218,0c-3.307,3.306-3.307,8.769,0,12.218
		c3.104,3.103,8.085,3.254,11.541,0.532l1.655,1.655c-0.396,0.295-0.392,0.845,0.027,1.263l4.456,4.456
		c0.287,0.431,0.861,0.431,1.294,0l1.293-1.293C671.205,73.193,671.205,72.618,670.774,72.187z M652.376,65
		c-2.3-2.444-2.444-6.181,0-8.625c2.443-2.444,6.325-2.444,8.624,0c2.444,2.444,2.444,6.181,0,8.625
		C658.557,67.444,654.675,67.444,652.376,65z"/>
	<path fill="#3EA349" d="M401,127l-5.9-5.9l-2.572,2.57l8.472,8.473l16.528-16.523l-2.573-2.57L401,127z"/>
	<path fill="#C6C6C6" d="M89.621,417.586h-24c-1.1,0-2-0.9-2-2l0,0c0-1.1,0.9-2,2-2h24c1.1,0,2,0.9,2,2l0,0
		C91.621,416.686,90.721,417.586,89.621,417.586z M89.621,427.586h-24c-1.1,0-2-0.9-2-2l0,0c0-1.1,0.9-2,2-2h24c1.1,0,2,0.9,2,2l0,0
		C91.621,426.686,90.721,427.586,89.621,427.586z M89.621,437.586h-24c-1.1,0-2-0.9-2-2l0,0c0-1.1,0.9-2,2-2h24c1.1,0,2,0.9,2,2l0,0
		C91.621,436.686,90.721,437.586,89.621,437.586z"/>
	<g>
		<path fill="#007AC2" d="M1302.193,84.054c-0.368,0-0.734-0.14-1.014-0.42l-15.104-15.104c-0.56-0.56-0.56-1.467,0-2.027
			c0.56-0.56,1.467-0.561,2.026,0l15.104,15.104c0.561,0.56,0.561,1.468,0,2.027C1302.926,83.914,1302.56,84.054,1302.193,84.054z"
			/>
		<path fill="#007AC2" d="M1287.088,84.053c-0.367,0-0.733-0.14-1.014-0.42c-0.56-0.561-0.56-1.467,0-2.027l15.105-15.104
			c0.56-0.56,1.467-0.561,2.026,0c0.561,0.561,0.561,1.468,0,2.027l-15.105,15.104C1287.821,83.913,1287.455,84.053,1287.088,84.053
			z"/>
	</g>
	
		<rect x="800.488" y="67" fill="#F8F8F8" stroke="#F8F8F8" stroke-width="3" stroke-linecap="round" stroke-linejoin="round" stroke-miterlimit="10" width="92" height="24"/>
	<g>
		<path fill="#C84D30" d="M886.623,83.811c-0.201,0-0.402-0.076-0.555-0.23l-8.271-8.27c-0.305-0.307-0.305-0.805,0-1.111
			c0.307-0.306,0.805-0.307,1.111,0.001l8.27,8.271c0.307,0.307,0.307,0.803,0,1.109C887.025,83.734,886.824,83.811,886.623,83.811z
			"/>
		<path fill="#C84D30" d="M878.352,83.811c-0.201,0-0.4-0.077-0.555-0.23c-0.307-0.307-0.307-0.804,0-1.11l8.271-8.271
			c0.307-0.306,0.803-0.307,1.109,0.001c0.307,0.306,0.307,0.804,0,1.11l-8.271,8.27C878.754,83.733,878.553,83.811,878.352,83.811z
			"/>
	</g>
	<rect x="99.971" y="69.708" fill="#B9DDEA" width="188.99" height="115.494"/>
	<line fill="none" stroke="#A3C3CC" stroke-width="2" stroke-miterlimit="10" x1="99.971" y1="69.708" x2="288.961" y2="185.202"/>
	<line fill="none" stroke="#A3C3CC" stroke-width="2" stroke-miterlimit="10" x1="99.971" y1="185.202" x2="288.961" y2="69.708"/>
	<circle fill="#B9DDEA" cx="604.861" cy="530" r="53.998"/>
	
		<line fill="none" stroke="#A3C3CC" stroke-width="2" stroke-miterlimit="10" x1="566.826" y1="491.965" x2="642.896" y2="568.034"/>
	
		<line fill="none" stroke="#A3C3CC" stroke-width="2" stroke-miterlimit="10" x1="566.826" y1="568.034" x2="642.896" y2="491.965"/>
	<g>
		<path fill="#DDDDDD" d="M1056.6,476.799h-11.85l45.899-106.199h10.5l45.601,106.199h-12l-11.701-27.899h-54.899L1056.6,476.799z
			 M1072.199,439H1119l-23.4-56.4L1072.199,439z"/>
		<path fill="#DDDDDD" d="M1205.999,431.365c0-6.053-1.601-10.57-4.8-13.549c-3.201-2.977-7.852-4.467-13.95-4.467
			c-4.2,0-8.101,0.75-11.7,2.25s-6.651,3.502-9.15,6l-5.699-6.75c2.898-2.899,6.725-5.299,11.475-7.2
			c4.748-1.898,10.125-2.851,16.125-2.851c3.799,0,7.35,0.525,10.65,1.576c3.3,1.049,6.199,2.625,8.699,4.725
			c2.499,2.1,4.449,4.75,5.851,7.949c1.399,3.202,2.101,6.952,2.101,11.25v30.75c0,2.701,0.098,5.502,0.299,8.4
			c0.199,2.902,0.5,5.352,0.9,7.35h-9.15c-0.299-1.699-0.551-3.548-0.75-5.549c-0.201-2-0.299-3.949-0.299-5.851h-0.301
			c-3.201,4.702-6.824,8.077-10.875,10.125c-4.05,2.048-8.925,3.075-14.625,3.075c-2.699,0-5.475-0.377-8.324-1.127
			c-2.851-0.753-5.452-1.98-7.801-3.688c-2.351-1.706-4.301-3.914-5.85-6.623c-1.552-2.709-2.325-6.02-2.325-9.934
			c0-5.418,1.374-9.707,4.125-12.867c2.749-3.158,6.425-5.517,11.024-7.072c4.6-1.557,9.875-2.561,15.826-3.012
			c5.947-0.451,12.123-0.678,18.524-0.678V431.365z M1202.999,441.699c-4.2,0-8.426,0.176-12.675,0.525
			c-4.252,0.352-8.1,1.05-11.551,2.1c-3.449,1.051-6.275,2.576-8.475,4.575c-2.201,2.001-3.3,4.649-3.3,7.95
			c0,2.5,0.474,4.601,1.425,6.3c0.949,1.702,2.225,3.075,3.825,4.125c1.599,1.05,3.375,1.8,5.325,2.25
			c1.949,0.45,3.924,0.675,5.925,0.675c3.601,0,6.8-0.623,9.601-1.875c2.798-1.249,5.148-2.948,7.049-5.1
			c1.898-2.149,3.35-4.625,4.351-7.426c0.999-2.798,1.5-5.748,1.5-8.85v-5.25H1202.999z"/>
	</g>
</g>
</svg>
