<?xml version="1.0" encoding="utf-8"?>
<!-- Generator: Adobe Illustrator 16.0.4, SVG Export Plug-In . SVG Version: 6.00 Build 0)  -->
<!DOCTYPE svg PUBLIC "-//W3C//DTD SVG 1.1//EN" "http://www.w3.org/Graphics/SVG/1.1/DTD/svg11.dtd">
<svg version="1.1" id="Layer_1" xmlns="http://www.w3.org/2000/svg" xmlns:xlink="http://www.w3.org/1999/xlink" x="0px" y="0px"
	 width="480px" height="320px" viewBox="0 0 480 320" enable-background="new 0 0 480 320" xml:space="preserve">
<rect y="-1" fill="#00B1DC" width="480" height="321"/>
<g>
	
		<line fill="none" stroke="#FFFFFF" stroke-width="15" stroke-linecap="round" stroke-miterlimit="10" x1="-614.968" y1="-83.754" x2="-527.636" y2="-83.754"/>
	<circle fill="#007AC2" cx="-614.668" cy="-83.753" r="4.303"/>
	
		<line fill="none" stroke="#DFDFDF" stroke-width="5" stroke-linecap="round" stroke-miterlimit="10" x1="-604.968" y1="-83.754" x2="-529.564" y2="-83.754"/>
</g>
<g>
	
		<line fill="none" stroke="#FFFFFF" stroke-width="15" stroke-linecap="round" stroke-miterlimit="10" x1="-614.968" y1="-53.886" x2="-535.636" y2="-53.886"/>
	<circle fill="#00B1DC" cx="-615.273" cy="-53.886" r="4.303"/>
	
		<line fill="none" stroke="#DFDFDF" stroke-width="5" stroke-linecap="round" stroke-miterlimit="10" x1="-604.968" y1="-53.886" x2="-535.636" y2="-53.886"/>
</g>
<g>
	
		<line fill="none" stroke="#FFFFFF" stroke-width="15" stroke-linecap="round" stroke-miterlimit="10" x1="-614.968" y1="-23.886" x2="-514.968" y2="-23.886"/>
	<circle fill="#B9DDEA" cx="-614.304" cy="-24.019" r="4.302"/>
	
		<line fill="none" stroke="#DFDFDF" stroke-width="5" stroke-linecap="round" stroke-miterlimit="10" x1="-604.968" y1="-23.886" x2="-514.968" y2="-23.886"/>
</g>
<g>
	
		<line fill="none" stroke="#FFFFFF" stroke-width="15" stroke-linecap="round" stroke-miterlimit="10" x1="-614.968" y1="5.713" x2="-554.968" y2="5.713"/>
	<circle fill="#EFEFEF" cx="-614.304" cy="5.846" r="4.302"/>
	
		<line fill="none" stroke="#DFDFDF" stroke-width="5" stroke-linecap="round" stroke-miterlimit="10" x1="-604.968" y1="5.713" x2="-557.636" y2="5.713"/>
</g>
<g>
	
		<line fill="none" stroke="#FFFFFF" stroke-width="15" stroke-linecap="round" stroke-miterlimit="10" x1="-614.968" y1="34.344" x2="-534.302" y2="34.344"/>
	<circle fill="#CCCCCC" cx="-614.969" cy="35.714" r="4.304"/>
	
		<line fill="none" stroke="#DFDFDF" stroke-width="5" stroke-linecap="round" stroke-miterlimit="10" x1="-604.968" y1="34.344" x2="-536.971" y2="34.344"/>
</g>
<g>
	
		<line fill="none" stroke="#FFFFFF" stroke-width="15" stroke-linecap="round" stroke-miterlimit="10" x1="-614.968" y1="64.913" x2="-511.636" y2="64.913"/>
	<circle fill="#4C4C4C" cx="-614.302" cy="65.58" r="4.303"/>
	
		<line fill="none" stroke="#DFDFDF" stroke-width="5" stroke-linecap="round" stroke-miterlimit="10" x1="-604.968" y1="64.913" x2="-514.971" y2="64.913"/>
</g>
<rect x="-365.627" y="-158.48" fill="#FFFFFF" width="59.282" height="59.282"/>
<rect x="-302.627" y="-158.48" fill="#FFFFFF" width="59.283" height="59.282"/>
<rect x="-302.627" y="-96.48" fill="#FFFFFF" width="122.655" height="121.333"/>
<rect x="-175.96" y="-96.48" fill="#FFFFFF" width="122.654" height="59.283"/>
<rect x="-239.614" y="-158.48" fill="#FFFFFF" width="59.283" height="59.282"/>
<rect x="-176.293" y="-34.146" fill="#FFFFFF" width="59.282" height="59.281"/>
<rect x="-365.627" y="-34.146" fill="#FFFFFF" width="59.283" height="121.449"/>
<rect x="-176.601" y="-158.48" fill="#FFFFFF" width="59.281" height="59.282"/>
<rect x="-113.589" y="-158.48" fill="#FFFFFF" width="59.283" height="59.282"/>
<g>
	<g>
		<rect x="-176.438" y="-158.292" fill="#F8F8F8" width="58.954" height="9.943"/>
		<path fill="#EFEFEF" d="M-117.319-148.162h-59.281v-10.318h59.281V-148.162z M-176.274-148.536h58.629v-9.568h-58.629V-148.536z"
			/>
	</g>
	<g>
		<rect x="-176.438" y="-148.536" fill="#FFFFFF" width="58.954" height="9.942"/>
		<path fill="#EFEFEF" d="M-117.319-138.406h-59.281v-10.318h59.281V-138.406z M-176.274-138.782h58.629v-9.567h-58.629V-138.782z"
			/>
	</g>
	<g>
		<rect x="-176.438" y="-138.734" fill="#FFFFFF" width="58.954" height="9.943"/>
		<path fill="#EFEFEF" d="M-117.319-128.604h-59.281v-10.318h59.281V-128.604z M-176.274-128.979h58.629v-9.567h-58.629V-128.979z"
			/>
	</g>
	<g>
		<rect x="-176.438" y="-128.932" fill="#FFFFFF" width="58.954" height="9.943"/>
		<path fill="#EFEFEF" d="M-117.319-118.801h-59.281v-10.319h59.281V-118.801z M-176.274-119.177h58.629v-9.568h-58.629V-119.177z"
			/>
	</g>
	<g>
		<rect x="-176.438" y="-119.13" fill="#FFFFFF" width="58.954" height="9.943"/>
		<path fill="#EFEFEF" d="M-117.319-109h-59.281v-10.317h59.281V-109z M-176.274-109.375h58.629v-9.568h-58.629V-109.375z"/>
	</g>
	<g>
		<rect x="-176.438" y="-109.328" fill="#FFFFFF" width="58.954" height="9.943"/>
		<path fill="#EFEFEF" d="M-117.319-99.197h-59.281v-10.318h59.281V-99.197z M-176.274-99.573h58.629v-9.568h-58.629V-99.573z"/>
	</g>
	<path fill="#E8E8E8" d="M-140.013-142.346h-32.844c-0.539,0-0.975-0.503-0.975-1.125s0.436-1.125,0.975-1.125h32.844
		c0.54,0,0.979,0.503,0.979,1.125S-139.473-142.346-140.013-142.346z"/>
	<path fill="#E8E8E8" d="M-135.886-102.699h-36.971c-0.539,0-0.976-0.504-0.976-1.125c0-0.622,0.437-1.126,0.976-1.126h36.971
		c0.54,0,0.979,0.504,0.979,1.126C-134.907-103.204-135.346-102.699-135.886-102.699z"/>
	<path fill="#E8E8E8" d="M-133.116-112.611h-39.738c-0.54,0-0.977-0.504-0.977-1.125c0-0.622,0.437-1.125,0.977-1.125h39.738
		c0.541,0,0.979,0.503,0.979,1.125C-132.139-113.115-132.575-112.611-133.116-112.611z"/>
	<path fill="#E8E8E8" d="M-141.749-122.523h-31.105c-0.54,0-0.977-0.504-0.977-1.126c0-0.621,0.437-1.125,0.977-1.125h31.105
		c0.54,0,0.979,0.504,0.979,1.125C-140.772-123.026-141.209-122.523-141.749-122.523z"/>
	<path fill="#E8E8E8" d="M-133.116-132.434h-39.738c-0.54,0-0.977-0.504-0.977-1.125c0-0.622,0.437-1.126,0.977-1.126h39.738
		c0.541,0,0.979,0.504,0.979,1.126C-132.139-132.939-132.575-132.434-133.116-132.434z"/>
	<path fill="#C6C6C6" d="M-147.829-151.976h-25.025c-0.54,0-0.977-0.504-0.977-1.125c0-0.622,0.437-1.126,0.977-1.126h25.025
		c0.541,0,0.979,0.504,0.979,1.126C-146.852-152.481-147.288-151.976-147.829-151.976z"/>
</g>
<line fill="none" stroke="#E8E8E8" stroke-width="1.7701" stroke-linecap="round" stroke-miterlimit="10" x1="-359.89" y1="-43.486" x2="-330.028" y2="-43.486"/>
<path fill="#4BBF53" d="M-275.493-123.598l-5.871-5.871l-2.56,2.557l8.431,8.432l16.446-16.442l-2.562-2.558L-275.493-123.598z"/>
<path fill="#C6C6C6" d="M-354.049-151.719h-7.032c-0.322,0-0.586-0.264-0.586-0.585l0,0c0-0.323,0.264-0.586,0.586-0.586h7.032
	c0.322,0,0.585,0.264,0.585,0.586l0,0C-353.463-151.983-353.727-151.719-354.049-151.719z M-354.049-148.789h-7.032
	c-0.322,0-0.586-0.264-0.586-0.586l0,0c0-0.322,0.264-0.586,0.586-0.586h7.032c0.322,0,0.585,0.264,0.585,0.586l0,0
	C-353.463-149.053-353.727-148.789-354.049-148.789z M-354.049-145.859h-7.032c-0.322,0-0.586-0.264-0.586-0.586l0,0
	c0-0.322,0.264-0.585,0.586-0.585h7.032c0.322,0,0.585,0.264,0.585,0.585l0,0C-353.463-146.123-353.727-145.859-354.049-145.859z"/>
<rect x="-232.834" y="-149.949" fill="#F8F8F8" stroke="#F8F8F8" stroke-width="1.5" stroke-linecap="round" stroke-linejoin="round" stroke-miterlimit="10" width="46" height="12"/>
<g>
	<path fill="#C84D30" d="M-190.196-142.055c-0.08,0-0.16-0.03-0.221-0.091l-3.273-3.275c-0.121-0.122-0.121-0.319,0-0.44
		c0.119-0.122,0.318-0.122,0.438,0l3.275,3.275c0.121,0.122,0.121,0.318,0,0.439C-190.036-142.086-190.116-142.055-190.196-142.055z
		"/>
	<path fill="#C84D30" d="M-193.472-142.055c-0.08,0-0.159-0.031-0.219-0.091c-0.123-0.122-0.123-0.319,0-0.439l3.273-3.275
		c0.122-0.122,0.318-0.122,0.439,0c0.121,0.121,0.121,0.318,0,0.439l-3.275,3.275C-193.312-142.086-193.393-142.055-193.472-142.055
		z"/>
</g>
<rect x="-232.834" y="-134.774" fill="#F8F8F8" stroke="#F8F8F8" stroke-width="1.5" stroke-linecap="round" stroke-linejoin="round" stroke-miterlimit="10" width="46" height="12"/>
<g>
	<path fill="#C84D30" d="M-189.981-126.624c-0.09,0-0.182-0.034-0.25-0.104l-3.703-3.705c-0.137-0.138-0.137-0.361,0-0.498
		c0.136-0.138,0.359-0.138,0.497,0l3.704,3.706c0.139,0.137,0.139,0.359,0,0.497C-189.802-126.659-189.891-126.624-189.981-126.624z
		"/>
	<path fill="#C84D30" d="M-193.687-126.624c-0.092,0-0.18-0.035-0.248-0.104c-0.139-0.137-0.139-0.36,0-0.497l3.703-3.706
		c0.14-0.138,0.361-0.138,0.498,0c0.139,0.137,0.139,0.36,0,0.498l-3.704,3.705C-193.506-126.659-193.597-126.624-193.687-126.624z"
		/>
</g>
<rect x="-232.834" y="-119.611" fill="#F8F8F8" stroke="#F8F8F8" stroke-width="1.5" stroke-linecap="round" stroke-linejoin="round" stroke-miterlimit="10" width="46" height="12"/>
<g>
	<path fill="#C84D30" d="M-190.196-111.717c-0.08,0-0.16-0.03-0.221-0.091l-3.275-3.275c-0.119-0.122-0.119-0.319,0-0.44
		c0.121-0.122,0.32-0.122,0.439,0l3.275,3.275c0.121,0.122,0.121,0.318,0,0.439C-190.036-111.748-190.116-111.717-190.196-111.717z"
		/>
	<path fill="#C84D30" d="M-193.472-111.717c-0.08,0-0.159-0.031-0.221-0.091c-0.121-0.122-0.121-0.319,0-0.439l3.275-3.275
		c0.122-0.122,0.318-0.122,0.439,0c0.121,0.121,0.121,0.318,0,0.439l-3.275,3.275C-193.312-111.748-193.393-111.717-193.472-111.717
		z"/>
</g>
<g>
	<rect x="-174.075" y="-31.145" fill="#B9DDEA" width="54.849" height="53.279"/>
	
		<line fill="none" stroke="#A3C3CC" stroke-width="0.7318" stroke-miterlimit="10" x1="-174.075" y1="-31.145" x2="-119.228" y2="22.135"/>
	
		<line fill="none" stroke="#A3C3CC" stroke-width="0.7318" stroke-miterlimit="10" x1="-174.075" y1="22.135" x2="-119.228" y2="-31.145"/>
</g>
<g>
	
		<line fill="none" stroke="#FFFFFF" stroke-width="4.8461" stroke-linecap="round" stroke-miterlimit="10" x1="-358.073" y1="-26.533" x2="-339.552" y2="-26.533"/>
	<circle fill="#C84D30" cx="-357.977" cy="-26.532" r="1.39"/>
	
		<line fill="none" stroke="#DFDFDF" stroke-width="1.6154" stroke-linecap="round" stroke-miterlimit="10" x1="-354.843" y1="-26.533" x2="-340.174" y2="-26.533"/>
</g>
<g>
	
		<line fill="none" stroke="#FFFFFF" stroke-width="4.8461" stroke-linecap="round" stroke-miterlimit="10" x1="-358.073" y1="-16.97" x2="-329.213" y2="-16.97"/>
	<circle fill="#E99141" cx="-358.172" cy="-16.883" r="1.391"/>
	
		<line fill="none" stroke="#DFDFDF" stroke-width="1.6154" stroke-linecap="round" stroke-miterlimit="10" x1="-354.843" y1="-16.97" x2="-329.213" y2="-16.97"/>
</g>
<g>
	
		<line fill="none" stroke="#FFFFFF" stroke-width="4.8461" stroke-linecap="round" stroke-miterlimit="10" x1="-358.073" y1="-7.191" x2="-345.151" y2="-7.191"/>
	<circle fill="#FEE864" cx="-357.858" cy="-7.234" r="1.39"/>
	
		<line fill="none" stroke="#DFDFDF" stroke-width="1.6154" stroke-linecap="round" stroke-miterlimit="10" x1="-354.843" y1="-7.191" x2="-345.151" y2="-7.191"/>
</g>
<g>
	
		<line fill="none" stroke="#FFFFFF" stroke-width="4.8461" stroke-linecap="round" stroke-miterlimit="10" x1="-358.073" y1="2.371" x2="-332.228" y2="2.371"/>
	<circle fill="#CCDE91" cx="-357.858" cy="2.414" r="1.391"/>
	
		<line fill="none" stroke="#DFDFDF" stroke-width="1.6154" stroke-linecap="round" stroke-miterlimit="10" x1="-354.843" y1="2.371" x2="-333.09" y2="2.371"/>
</g>
<g>
	
		<line fill="none" stroke="#FFFFFF" stroke-width="4.8461" stroke-linecap="round" stroke-miterlimit="10" x1="-358.073" y1="11.621" x2="-325.552" y2="11.621"/>
	<circle fill="#A3C855" cx="-358.073" cy="12.063" r="1.39"/>
	
		<line fill="none" stroke="#DFDFDF" stroke-width="1.6154" stroke-linecap="round" stroke-miterlimit="10" x1="-354.843" y1="11.621" x2="-326.413" y2="11.621"/>
</g>
<g>
	
		<line fill="none" stroke="#FFFFFF" stroke-width="4.8461" stroke-linecap="round" stroke-miterlimit="10" x1="-358.073" y1="21.497" x2="-334.382" y2="21.497"/>
	<circle fill="#3EA349" cx="-357.858" cy="21.713" r="1.39"/>
	
		<line fill="none" stroke="#DFDFDF" stroke-width="1.6154" stroke-linecap="round" stroke-miterlimit="10" x1="-354.843" y1="21.497" x2="-335.459" y2="21.497"/>
</g>
<g>
	
		<line fill="none" stroke="#FFFFFF" stroke-width="4.8461" stroke-linecap="round" stroke-miterlimit="10" x1="-358.767" y1="-134.901" x2="-335.075" y2="-134.901"/>
	<circle fill="#3EA349" cx="-358.552" cy="-134.685" r="1.39"/>
	
		<line fill="none" stroke="#DFDFDF" stroke-width="1.6154" stroke-linecap="round" stroke-miterlimit="10" x1="-355.536" y1="-134.901" x2="-336.151" y2="-134.901"/>
</g>
<g>
	
		<line fill="none" stroke="#FFFFFF" stroke-width="4.8461" stroke-linecap="round" stroke-miterlimit="10" x1="-358.767" y1="-128.819" x2="-335.075" y2="-128.819"/>
	<circle fill="#3EA349" cx="-358.552" cy="-128.604" r="1.39"/>
	
		<line fill="none" stroke="#DFDFDF" stroke-width="1.6154" stroke-linecap="round" stroke-miterlimit="10" x1="-355.536" y1="-128.819" x2="-336.151" y2="-128.819"/>
</g>
<g>
	
		<line fill="none" stroke="#FFFFFF" stroke-width="4.8461" stroke-linecap="round" stroke-miterlimit="10" x1="-358.767" y1="-122.738" x2="-335.075" y2="-122.738"/>
	<circle fill="#3EA349" cx="-358.552" cy="-122.522" r="1.39"/>
	
		<line fill="none" stroke="#DFDFDF" stroke-width="1.6154" stroke-linecap="round" stroke-miterlimit="10" x1="-355.536" y1="-122.738" x2="-336.151" y2="-122.738"/>
</g>
<g>
	
		<line fill="none" stroke="#FFFFFF" stroke-width="4.8461" stroke-linecap="round" stroke-miterlimit="10" x1="-358.073" y1="30.539" x2="-339.552" y2="30.539"/>
	<circle fill="#C84D30" cx="-357.977" cy="30.54" r="1.39"/>
	
		<line fill="none" stroke="#DFDFDF" stroke-width="1.6154" stroke-linecap="round" stroke-miterlimit="10" x1="-354.843" y1="30.539" x2="-340.174" y2="30.539"/>
</g>
<g>
	
		<line fill="none" stroke="#FFFFFF" stroke-width="4.8461" stroke-linecap="round" stroke-miterlimit="10" x1="-358.073" y1="40.102" x2="-329.213" y2="40.102"/>
	<circle fill="#E99141" cx="-358.172" cy="40.189" r="1.39"/>
	
		<line fill="none" stroke="#DFDFDF" stroke-width="1.6154" stroke-linecap="round" stroke-miterlimit="10" x1="-354.843" y1="40.102" x2="-329.213" y2="40.102"/>
</g>
<g>
	
		<line fill="none" stroke="#FFFFFF" stroke-width="4.8461" stroke-linecap="round" stroke-miterlimit="10" x1="-358.073" y1="49.881" x2="-345.151" y2="49.881"/>
	<circle fill="#FEE864" cx="-357.858" cy="49.838" r="1.39"/>
	
		<line fill="none" stroke="#DFDFDF" stroke-width="1.6154" stroke-linecap="round" stroke-miterlimit="10" x1="-354.843" y1="49.881" x2="-345.151" y2="49.881"/>
</g>
<g>
	
		<line fill="none" stroke="#FFFFFF" stroke-width="4.8461" stroke-linecap="round" stroke-miterlimit="10" x1="-358.073" y1="59.443" x2="-332.228" y2="59.443"/>
	<circle fill="#CCDE91" cx="-357.858" cy="59.486" r="1.39"/>
	
		<line fill="none" stroke="#DFDFDF" stroke-width="1.6154" stroke-linecap="round" stroke-miterlimit="10" x1="-354.843" y1="59.443" x2="-333.09" y2="59.443"/>
</g>
<g>
	
		<line fill="none" stroke="#FFFFFF" stroke-width="4.8461" stroke-linecap="round" stroke-miterlimit="10" x1="-358.073" y1="68.693" x2="-325.552" y2="68.693"/>
	<circle fill="#A3C855" cx="-358.073" cy="69.136" r="1.39"/>
	
		<line fill="none" stroke="#DFDFDF" stroke-width="1.6154" stroke-linecap="round" stroke-miterlimit="10" x1="-354.843" y1="68.693" x2="-326.413" y2="68.693"/>
</g>
<g>
	
		<line fill="none" stroke="#FFFFFF" stroke-width="4.8461" stroke-linecap="round" stroke-miterlimit="10" x1="-358.073" y1="78.569" x2="-334.382" y2="78.569"/>
	<circle fill="#3EA349" cx="-357.858" cy="78.785" r="1.391"/>
	
		<line fill="none" stroke="#DFDFDF" stroke-width="1.6154" stroke-linecap="round" stroke-miterlimit="10" x1="-354.843" y1="78.569" x2="-335.459" y2="78.569"/>
</g>
<rect x="-302.626" y="-96.48" fill="#FFFFFF" stroke="#EFEFEF" stroke-width="0.4992" stroke-miterlimit="10" width="122.654" height="121.333"/>
<rect x="-243.184" y="1.594" fill="#007AC2" stroke="#007AB7" stroke-width="0.4992" stroke-miterlimit="10" width="20.748" height="12.271"/>
<rect x="-218.618" y="1.594" fill="none" stroke="#007AB7" stroke-width="0.4992" stroke-miterlimit="10" width="29.67" height="12.271"/>
<rect x="-340.852" y="-110.936" fill="#007AC2" stroke="#007AB7" stroke-width="0.2706" stroke-miterlimit="10" width="11.245" height="6.65"/>
<rect x="-327.536" y="-110.936" fill="none" stroke="#007AB7" stroke-width="0.2706" stroke-miterlimit="10" width="16.082" height="6.65"/>
<line fill="none" stroke="#E8E8E8" stroke-width="2.9955" stroke-linecap="round" stroke-miterlimit="10" x1="-289.319" y1="-67.693" x2="-241.681" y2="-67.693"/>
<line fill="none" stroke="#E8E8E8" stroke-width="2.9955" stroke-linecap="round" stroke-miterlimit="10" x1="-288.059" y1="-11.947" x2="-251.429" y2="-11.947"/>
<line fill="none" stroke="#E8E8E8" stroke-width="2.9955" stroke-linecap="round" stroke-miterlimit="10" x1="-289.635" y1="-38.994" x2="-236.011" y2="-38.994"/>
<line fill="none" stroke="#E8E8E8" stroke-width="2.9955" stroke-linecap="round" stroke-miterlimit="10" x1="-289.635" y1="-46.169" x2="-231.995" y2="-46.169"/>
<line fill="none" stroke="#E8E8E8" stroke-width="2.9955" stroke-linecap="round" stroke-miterlimit="10" x1="-289.635" y1="-53.343" x2="-244.516" y2="-53.343"/>
<line fill="none" stroke="#E8E8E8" stroke-width="2.9955" stroke-linecap="round" stroke-miterlimit="10" x1="-289.635" y1="-31.818" x2="-244.516" y2="-31.818"/>
<line fill="none" stroke="#E8E8E8" stroke-width="2.9955" stroke-linecap="round" stroke-miterlimit="10" x1="-289.635" y1="-60.518" x2="-231.995" y2="-60.518"/>
<line fill="none" stroke="#C6C6C6" stroke-width="2.9955" stroke-linecap="round" stroke-miterlimit="10" x1="-289.635" y1="-81.445" x2="-253.335" y2="-81.445"/>
<line fill="none" stroke="#E8E8E8" stroke-width="2.9955" stroke-linecap="round" stroke-miterlimit="10" x1="-108.131" y1="-135.155" x2="-60.493" y2="-135.155"/>
<line fill="none" stroke="#E8E8E8" stroke-width="2.3772" stroke-linecap="round" stroke-miterlimit="10" x1="-108.446" y1="-113.63" x2="-72.147" y2="-113.63"/>
<line fill="none" stroke="#E8E8E8" stroke-width="2.9955" stroke-linecap="round" stroke-miterlimit="10" x1="-108.446" y1="-120.805" x2="-63.327" y2="-120.805"/>
<line fill="none" stroke="#E8E8E8" stroke-width="2.5308" stroke-linecap="round" stroke-miterlimit="10" x1="-108.446" y1="-127.98" x2="-67.302" y2="-127.98"/>
<line fill="none" stroke="#C6C6C6" stroke-width="2.9955" stroke-linecap="round" stroke-miterlimit="10" x1="-108.446" y1="-148.907" x2="-72.147" y2="-148.907"/>
<g>
	<path fill="#007AC2" d="M-190.334-77.976c-0.186,0-0.368-0.07-0.509-0.211l-7.564-7.563c-0.281-0.28-0.281-0.734,0-1.015
		c0.28-0.28,0.735-0.281,1.016,0l7.564,7.562c0.279,0.28,0.279,0.735,0,1.015C-189.967-78.046-190.151-77.976-190.334-77.976z"/>
	<path fill="#007AC2" d="M-197.899-77.977c-0.186,0-0.367-0.07-0.508-0.21c-0.281-0.281-0.281-0.735,0-1.015l7.563-7.562
		c0.28-0.281,0.735-0.281,1.015,0c0.28,0.281,0.28,0.735,0,1.015l-7.564,7.563C-197.532-78.047-197.717-77.977-197.899-77.977z"/>
</g>
<circle fill="#00B1DC" cx="-144.338" cy="-65.543" r="19.639"/>
<path fill="#B9DDEA" stroke="#FFFFFF" stroke-width="3.0405" stroke-miterlimit="10" d="M-144.338-65.543h18.974
	c0-10.479-8.494-18.973-18.974-18.973s-18.973,8.495-18.973,18.973s8.493,18.973,18.973,18.973c3.122,0,6.063-0.758,8.66-2.093
	L-144.338-65.543z"/>
<path fill="#4BBF53" stroke="#FFFFFF" stroke-miterlimit="10" d="M-143.338-65.543h22.302c0-12.316-9.984-22.301-22.302-22.301
	c-2.606,0-5.108,0.452-7.435,1.274L-143.338-65.543z"/>
<circle fill="#FFFFFF" cx="-144.338" cy="-65.543" r="12.465"/>
<line fill="none" stroke="#E8E8E8" stroke-width="2.5308" stroke-linecap="round" stroke-miterlimit="10" x1="-120.976" y1="-53.057" x2="-73.739" y2="-53.057"/>
<line fill="none" stroke="#E8E8E8" stroke-width="2.5308" stroke-linecap="round" stroke-miterlimit="10" x1="-119.036" y1="-80.391" x2="-71.802" y2="-80.391"/>
<line fill="none" stroke="#E8E8E8" stroke-width="2.303" stroke-linecap="round" stroke-miterlimit="10" x1="-110.913" y1="-74.588" x2="-71.802" y2="-74.588"/>
<g>
	
		<rect x="66.878" y="65.71" fill="#FFFFFF" stroke="#EFEFEF" stroke-width="0.4432" stroke-miterlimit="10" width="358.561" height="32.719"/>
	
		<line fill="none" stroke="#C6C6C6" stroke-width="4.0818" stroke-linecap="round" stroke-miterlimit="10" x1="75.42" y1="84.199" x2="118.846" y2="84.199"/>
	
		<line fill="none" stroke="#DFDFDF" stroke-width="3.0248" stroke-linecap="round" stroke-miterlimit="10" x1="138.078" y1="84.199" x2="165.676" y2="84.199"/>
	
		<line fill="none" stroke="#DFDFDF" stroke-width="3.0248" stroke-linecap="round" stroke-miterlimit="10" x1="178.078" y1="84.199" x2="205.676" y2="84.199"/>
	
		<line fill="none" stroke="#DFDFDF" stroke-width="3.0248" stroke-linecap="round" stroke-miterlimit="10" x1="218.079" y1="84.199" x2="245.676" y2="84.199"/>
	
		<line fill="none" stroke="#DFDFDF" stroke-width="3.0248" stroke-linecap="round" stroke-miterlimit="10" x1="258.079" y1="84.199" x2="285.676" y2="84.199"/>
	<path fill="#DFDFDF" d="M412.963,85.717l-1.9-1.901c-0.123-0.184-0.368-0.184-0.553,0v0.001l-0.7-0.701
		c1.166-1.431,1.085-3.573-0.28-4.88c-1.411-1.411-3.742-1.411-5.213,0c-1.41,1.41-1.41,3.741,0,5.212
		c1.324,1.325,3.449,1.389,4.924,0.227l0.706,0.706c-0.17,0.126-0.168,0.361,0.011,0.539l1.9,1.901c0.123,0.185,0.367,0.185,0.553,0
		l0.552-0.552C413.147,86.147,413.147,85.902,412.963,85.717z M405.114,82.651c-0.98-1.042-1.043-2.636,0-3.679
		c1.042-1.042,2.699-1.042,3.68,0c1.042,1.043,1.042,2.638,0,3.679C407.751,83.694,406.095,83.694,405.114,82.651z"/>
	<rect x="217.938" y="64.816" fill="#007AC2" width="28" height="3"/>
</g>
<rect x="66.878" y="97.543" fill="#052942" width="358.561" height="54.432"/>
<rect x="66.878" y="151.975" fill="#FFFFFF" width="358.561" height="241.605"/>
<line fill="none" stroke="#FFFFFF" stroke-width="6" stroke-linecap="round" stroke-miterlimit="10" x1="78.42" y1="120.59" x2="121.846" y2="120.59"/>
<polyline fill="#FFFFFF" points="132.751,156.267 132.751,138.271 189.575,138.271 189.575,156.267 "/>
<line fill="none" stroke="#E8E8E8" stroke-width="3.1027" stroke-linecap="round" stroke-miterlimit="10" x1="138.439" y1="145.253" x2="178.542" y2="145.253"/>
<rect x="75.42" y="138.271" opacity="0.3" width="55.648" height="13.704"/>
<line fill="none" stroke="#D3D3D3" stroke-width="3.1027" stroke-linecap="round" stroke-miterlimit="10" x1="81.108" y1="145.425" x2="109.316" y2="145.425"/>
<rect x="191.465" y="138.271" opacity="0.3" width="55.647" height="13.704"/>
<line fill="none" stroke="#D3D3D3" stroke-width="3.1027" stroke-linecap="round" stroke-miterlimit="10" x1="197.153" y1="145.425" x2="225.36" y2="145.425"/>
<rect x="247.919" y="138.271" opacity="0.3" width="55.649" height="13.704"/>
<line fill="none" stroke="#D3D3D3" stroke-width="3.1027" stroke-linecap="round" stroke-miterlimit="10" x1="254.002" y1="145.425" x2="282.21" y2="145.425"/>
<rect x="74.604" y="160.727" fill="#FFFFFF" width="59.282" height="121.449"/>
<rect x="74.604" y="160.727" fill="#FFFFFF" width="59.281" height="59.283"/>
<rect x="74.604" y="219.979" fill="#FFFFFF" width="59.281" height="59.283"/>
<g>
	<g>
		<g>
			<rect x="74.768" y="167.924" fill="#F8F8F8" width="58.955" height="10.484"/>
			<path fill="#EFEFEF" d="M133.886,178.605h-59.28v-10.879h59.28V178.605z M74.932,178.21h58.628v-10.087H74.932V178.21z"/>
		</g>
		<g>
			<rect x="74.768" y="178.21" fill="#FFFFFF" width="58.955" height="10.484"/>
			<path fill="#EFEFEF" d="M133.886,188.891h-59.28v-10.879h59.28V188.891z M74.932,188.495h58.628v-10.087H74.932V188.495z"/>
		</g>
		<g>
			<rect x="74.768" y="188.547" fill="#FFFFFF" width="58.955" height="10.481"/>
			<path fill="#EFEFEF" d="M133.886,199.227h-59.28v-10.879h59.28V199.227z M74.932,198.831h58.628v-10.088H74.932V198.831z"/>
		</g>
		<g>
			<rect x="74.768" y="198.881" fill="#FFFFFF" width="58.955" height="10.482"/>
			<path fill="#EFEFEF" d="M133.886,209.561h-59.28v-10.879h59.28V209.561z M74.932,209.165h58.628v-10.087H74.932V209.165z"/>
		</g>
		<g>
			<rect x="74.768" y="209.215" fill="#FFFFFF" width="58.955" height="10.483"/>
			<path fill="#EFEFEF" d="M133.886,219.896h-59.28v-10.881h59.28V219.896z M74.932,219.501h58.628v-10.089H74.932V219.501z"/>
		</g>
		<g>
			<rect x="74.768" y="219.551" fill="#FFFFFF" width="58.955" height="10.483"/>
			<path fill="#EFEFEF" d="M133.886,230.23h-59.28v-10.879h59.28V230.23z M74.932,229.835h58.628v-10.087H74.932V229.835z"/>
		</g>
		<path fill="#E8E8E8" d="M111.191,184.738H78.35c-0.541,0-0.977-0.531-0.977-1.188s0.436-1.188,0.977-1.188h32.842
			c0.541,0,0.979,0.531,0.979,1.188S111.732,184.738,111.191,184.738z"/>
		<path fill="#E8E8E8" d="M115.318,226.539H78.35c-0.541,0-0.977-0.531-0.977-1.188s0.436-1.188,0.977-1.188h36.969
			c0.541,0,0.979,0.531,0.979,1.188S115.859,226.539,115.318,226.539z"/>
		<path fill="#E8E8E8" d="M118.089,216.09H78.35c-0.539,0-0.976-0.533-0.976-1.188c0-0.657,0.437-1.188,0.976-1.188h39.739
			c0.54,0,0.978,0.529,0.978,1.188C119.066,215.557,118.629,216.09,118.089,216.09z"/>
		<path fill="#E8E8E8" d="M109.456,205.639H78.35c-0.539,0-0.976-0.531-0.976-1.188c0-0.654,0.437-1.188,0.976-1.188h31.106
			c0.54,0,0.978,0.533,0.978,1.188S109.996,205.639,109.456,205.639z"/>
		<path fill="#E8E8E8" d="M118.089,195.188H78.35c-0.539,0-0.976-0.532-0.976-1.188c0-0.654,0.437-1.188,0.976-1.188h39.739
			c0.54,0,0.978,0.531,0.978,1.188C119.066,194.655,118.629,195.188,118.089,195.188z"/>
		<path fill="#C6C6C6" d="M103.376,174.584H78.35c-0.539,0-0.976-0.531-0.976-1.188c0-0.655,0.437-1.188,0.976-1.188h25.026
			c0.54,0,0.978,0.532,0.978,1.188C104.354,174.053,103.916,174.584,103.376,174.584z"/>
	</g>
	<g>
		<g>
			<rect x="74.768" y="230.167" fill="#F8F8F8" width="58.955" height="9.943"/>
			<path fill="#EFEFEF" d="M133.886,240.299h-59.28V229.98h59.28V240.299z M74.932,239.924h58.628v-9.568H74.932V239.924z"/>
		</g>
		<g>
			<rect x="74.768" y="239.924" fill="#FFFFFF" width="58.955" height="9.942"/>
			<path fill="#EFEFEF" d="M133.886,250.055h-59.28v-10.319h59.28V250.055z M74.932,249.678h58.628v-9.566H74.932V249.678z"/>
		</g>
		<g>
			<rect x="74.768" y="249.725" fill="#FFFFFF" width="58.955" height="9.942"/>
			<path fill="#EFEFEF" d="M133.886,259.855h-59.28v-10.317h59.28V259.855z M74.932,259.48h58.628v-9.567H74.932V259.48z"/>
		</g>
		<g>
			<rect x="74.768" y="259.527" fill="#FFFFFF" width="58.955" height="9.941"/>
			<path fill="#EFEFEF" d="M133.886,269.658h-59.28V259.34h59.28V269.658z M74.932,269.282h58.628v-9.567H74.932V269.282z"/>
		</g>
		<g>
			<rect x="74.768" y="269.329" fill="#FFFFFF" width="58.955" height="9.942"/>
			<path fill="#EFEFEF" d="M133.886,279.46h-59.28v-10.317h59.28V279.46z M74.932,279.085h58.628v-9.567H74.932V279.085z"/>
		</g>
		<g>
			<rect x="74.768" y="279.133" fill="#FFFFFF" width="58.955" height="9.942"/>
			<path fill="#EFEFEF" d="M133.886,289.264h-59.28v-10.318h59.28V289.264z M74.932,288.887h58.628v-9.566H74.932V288.887z"/>
		</g>
		<path fill="#E8E8E8" d="M111.191,246.114H78.35c-0.541,0-0.977-0.504-0.977-1.126s0.436-1.126,0.977-1.126h32.842
			c0.541,0,0.979,0.504,0.979,1.126S111.732,246.114,111.191,246.114z"/>
		<path fill="#E8E8E8" d="M115.318,285.762H78.35c-0.541,0-0.977-0.506-0.977-1.127s0.436-1.125,0.977-1.125h36.969
			c0.541,0,0.979,0.504,0.979,1.125S115.859,285.762,115.318,285.762z"/>
		<path fill="#E8E8E8" d="M118.089,275.848H78.35c-0.539,0-0.976-0.504-0.976-1.125c0-0.623,0.437-1.125,0.976-1.125h39.739
			c0.54,0,0.978,0.502,0.978,1.125S118.629,275.848,118.089,275.848z"/>
		<path fill="#E8E8E8" d="M109.456,265.936H78.35c-0.539,0-0.976-0.504-0.976-1.125s0.437-1.125,0.976-1.125h31.106
			c0.54,0,0.978,0.504,0.978,1.125S109.996,265.936,109.456,265.936z"/>
		<path fill="#E8E8E8" d="M118.089,256.025H78.35c-0.539,0-0.976-0.506-0.976-1.127c0-0.62,0.437-1.125,0.976-1.125h39.739
			c0.54,0,0.978,0.505,0.978,1.125C119.066,255.52,118.629,256.025,118.089,256.025z"/>
		<path fill="#C6C6C6" d="M103.376,236.483H78.35c-0.539,0-0.976-0.505-0.976-1.125c0-0.622,0.437-1.128,0.976-1.128h25.026
			c0.54,0,0.978,0.506,0.978,1.128C104.354,235.979,103.916,236.483,103.376,236.483z"/>
	</g>
</g>
<g>
	<rect x="142.393" y="168.039" fill="#FFFFFF" width="59.283" height="59.283"/>
	
		<rect x="142.393" y="200.187" fill="#FFFFFF" stroke="#EFEFEF" stroke-width="0.295" stroke-miterlimit="10" width="59.283" height="27.136"/>
	
		<line fill="none" stroke="#E8E8E8" stroke-width="1.7701" stroke-linecap="round" stroke-miterlimit="10" x1="148.339" y1="213.463" x2="179.868" y2="213.463"/>
	
		<line fill="none" stroke="#E8E8E8" stroke-width="1.7701" stroke-linecap="round" stroke-miterlimit="10" x1="148.13" y1="217.248" x2="186.278" y2="217.248"/>
	
		<line fill="none" stroke="#C6C6C6" stroke-width="1.7701" stroke-linecap="round" stroke-miterlimit="10" x1="148.13" y1="206.207" x2="172.155" y2="206.207"/>
	<rect x="142.487" y="168.041" fill="#B9DDEA" width="59.094" height="32.146"/>
	
		<line fill="none" stroke="#A3C3CC" stroke-width="0.59" stroke-miterlimit="10" x1="142.487" y1="168.041" x2="201.581" y2="200.187"/>
	
		<line fill="none" stroke="#A3C3CC" stroke-width="0.59" stroke-miterlimit="10" x1="142.487" y1="200.187" x2="201.581" y2="168.041"/>
</g>
<g>
	<rect x="215.509" y="168.039" fill="#FFFFFF" width="59.284" height="59.283"/>
	
		<rect x="215.509" y="200.187" fill="#FFFFFF" stroke="#EFEFEF" stroke-width="0.295" stroke-miterlimit="10" width="59.284" height="27.136"/>
	
		<line fill="none" stroke="#E8E8E8" stroke-width="1.7701" stroke-linecap="round" stroke-miterlimit="10" x1="221.456" y1="213.463" x2="252.984" y2="213.463"/>
	
		<line fill="none" stroke="#E8E8E8" stroke-width="1.7701" stroke-linecap="round" stroke-miterlimit="10" x1="221.247" y1="217.248" x2="259.395" y2="217.248"/>
	
		<line fill="none" stroke="#C6C6C6" stroke-width="1.7701" stroke-linecap="round" stroke-miterlimit="10" x1="221.247" y1="206.207" x2="245.271" y2="206.207"/>
	<rect x="215.604" y="168.041" fill="#B9DDEA" width="59.093" height="32.146"/>
	
		<line fill="none" stroke="#A3C3CC" stroke-width="0.59" stroke-miterlimit="10" x1="215.604" y1="168.041" x2="274.697" y2="200.187"/>
	
		<line fill="none" stroke="#A3C3CC" stroke-width="0.59" stroke-miterlimit="10" x1="215.604" y1="200.187" x2="274.697" y2="168.041"/>
</g>
<g>
	<rect x="285.805" y="168.039" fill="#FFFFFF" width="59.284" height="59.283"/>
	
		<rect x="285.805" y="200.187" fill="#FFFFFF" stroke="#EFEFEF" stroke-width="0.295" stroke-miterlimit="10" width="59.284" height="27.136"/>
	
		<line fill="none" stroke="#E8E8E8" stroke-width="1.7701" stroke-linecap="round" stroke-miterlimit="10" x1="291.752" y1="213.463" x2="323.28" y2="213.463"/>
	
		<line fill="none" stroke="#E8E8E8" stroke-width="1.7701" stroke-linecap="round" stroke-miterlimit="10" x1="291.543" y1="217.248" x2="329.69" y2="217.248"/>
	
		<line fill="none" stroke="#C6C6C6" stroke-width="1.7701" stroke-linecap="round" stroke-miterlimit="10" x1="291.543" y1="206.207" x2="315.567" y2="206.207"/>
	<rect x="285.9" y="168.041" fill="#B9DDEA" width="59.093" height="32.146"/>
	
		<line fill="none" stroke="#A3C3CC" stroke-width="0.59" stroke-miterlimit="10" x1="285.9" y1="168.041" x2="344.993" y2="200.187"/>
	
		<line fill="none" stroke="#A3C3CC" stroke-width="0.59" stroke-miterlimit="10" x1="285.9" y1="200.187" x2="344.993" y2="168.041"/>
</g>
<g>
	<rect x="353.817" y="168.039" fill="#FFFFFF" width="59.284" height="59.283"/>
	
		<rect x="353.817" y="200.187" fill="#FFFFFF" stroke="#EFEFEF" stroke-width="0.295" stroke-miterlimit="10" width="59.284" height="27.136"/>
	
		<line fill="none" stroke="#E8E8E8" stroke-width="1.7701" stroke-linecap="round" stroke-miterlimit="10" x1="359.765" y1="213.463" x2="391.293" y2="213.463"/>
	
		<line fill="none" stroke="#E8E8E8" stroke-width="1.7701" stroke-linecap="round" stroke-miterlimit="10" x1="359.556" y1="217.248" x2="397.703" y2="217.248"/>
	
		<line fill="none" stroke="#C6C6C6" stroke-width="1.7701" stroke-linecap="round" stroke-miterlimit="10" x1="359.556" y1="206.207" x2="383.58" y2="206.207"/>
	<rect x="353.913" y="168.041" fill="#B9DDEA" width="59.093" height="32.146"/>
	
		<line fill="none" stroke="#A3C3CC" stroke-width="0.59" stroke-miterlimit="10" x1="353.913" y1="168.041" x2="413.006" y2="200.187"/>
	
		<line fill="none" stroke="#A3C3CC" stroke-width="0.59" stroke-miterlimit="10" x1="353.913" y1="200.187" x2="413.006" y2="168.041"/>
</g>
<rect x="146.692" y="246.205" fill="#FFFFFF" width="186.617" height="59.283"/>
<polyline fill="#FFFFFF" stroke="#EFEFEF" stroke-width="0.3651" stroke-miterlimit="10" points="333.309,254.951 333.309,305.49 
	146.692,305.49 146.692,254.951 "/>
<polyline fill="#FFFFFF" stroke="#EFEFEF" stroke-width="0.3651" stroke-miterlimit="10" points="192.966,254.848 192.966,246.681 
	240.486,246.681 240.486,254.848 "/>
<line fill="none" stroke="#E8E8E8" stroke-width="2.1904" stroke-linecap="round" stroke-miterlimit="10" x1="197.723" y1="250.841" x2="231.259" y2="250.841"/>
<rect x="146.692" y="246.681" fill="#F8F8F8" stroke="#EFEFEF" stroke-width="0.3651" stroke-miterlimit="10" width="46.538" height="8.167"/>
<line fill="none" stroke="#D3D3D3" stroke-width="2.1904" stroke-linecap="round" stroke-miterlimit="10" x1="151.449" y1="250.943" x2="175.039" y2="250.943"/>
<rect x="240.394" y="246.681" fill="#F8F8F8" stroke="#EFEFEF" stroke-width="0.3651" stroke-miterlimit="10" width="46.538" height="8.167"/>
<line fill="none" stroke="#D3D3D3" stroke-width="2.1904" stroke-linecap="round" stroke-miterlimit="10" x1="245.15" y1="250.943" x2="268.74" y2="250.943"/>
<rect x="286.771" y="246.681" fill="#F8F8F8" stroke="#EFEFEF" stroke-width="0.3651" stroke-miterlimit="10" width="46.537" height="8.167"/>
<line fill="none" stroke="#D3D3D3" stroke-width="2.1904" stroke-linecap="round" stroke-miterlimit="10" x1="291.857" y1="250.943" x2="315.447" y2="250.943"/>
<line fill="none" stroke="#E8E8E8" stroke-width="2.1904" stroke-linecap="round" stroke-miterlimit="10" x1="201.095" y1="269.742" x2="274.725" y2="269.742"/>
<line fill="none" stroke="#E8E8E8" stroke-width="2.1904" stroke-linecap="round" stroke-miterlimit="10" x1="200.608" y1="286.507" x2="283.488" y2="286.507"/>
<line fill="none" stroke="#E8E8E8" stroke-width="2.1904" stroke-linecap="round" stroke-miterlimit="10" x1="200.608" y1="282.315" x2="289.693" y2="282.315"/>
<line fill="none" stroke="#E8E8E8" stroke-width="2.1904" stroke-linecap="round" stroke-miterlimit="10" x1="200.608" y1="278.123" x2="270.344" y2="278.123"/>
<line fill="none" stroke="#E8E8E8" stroke-width="2.1904" stroke-linecap="round" stroke-miterlimit="10" x1="200.608" y1="290.697" x2="270.344" y2="290.697"/>
<line fill="none" stroke="#E8E8E8" stroke-width="2.1904" stroke-linecap="round" stroke-miterlimit="10" x1="200.608" y1="273.934" x2="289.693" y2="273.934"/>
<g>
	<circle fill="#B9DDEA" cx="172.039" cy="280.544" r="15.417"/>
	
		<line fill="none" stroke="#A3C3CC" stroke-width="0.571" stroke-miterlimit="10" x1="161.18" y1="269.686" x2="182.898" y2="291.404"/>
	
		<line fill="none" stroke="#A3C3CC" stroke-width="0.571" stroke-miterlimit="10" x1="161.18" y1="291.404" x2="182.898" y2="269.686"/>
</g>
</svg>
