<svg xmlns="http://www.w3.org/2000/svg" width="480" height="320" viewBox="0 0 480 320"><path fill="#00B1DC" d="M0-1h480v321H0z"/><path fill="none" stroke="#FFF" stroke-width="15" stroke-linecap="round" stroke-miterlimit="10" d="M-614.968-83.754h87.332"/><circle fill="#007AC2" cx="-614.668" cy="-83.753" r="4.303"/><path fill="none" stroke="#DFDFDF" stroke-width="5" stroke-linecap="round" stroke-miterlimit="10" d="M-604.968-83.754h75.404"/><path fill="none" stroke="#FFF" stroke-width="15" stroke-linecap="round" stroke-miterlimit="10" d="M-614.968-53.886h79.332"/><circle fill="#00B1DC" cx="-615.273" cy="-53.886" r="4.303"/><path fill="none" stroke="#DFDFDF" stroke-width="5" stroke-linecap="round" stroke-miterlimit="10" d="M-604.968-53.886h69.332"/><path fill="none" stroke="#FFF" stroke-width="15" stroke-linecap="round" stroke-miterlimit="10" d="M-614.968-23.886h100"/><circle fill="#B9DDEA" cx="-614.304" cy="-24.019" r="4.302"/><path fill="none" stroke="#DFDFDF" stroke-width="5" stroke-linecap="round" stroke-miterlimit="10" d="M-604.968-23.886h90"/><path fill="none" stroke="#FFF" stroke-width="15" stroke-linecap="round" stroke-miterlimit="10" d="M-614.968 5.713h60"/><circle fill="#EFEFEF" cx="-614.304" cy="5.846" r="4.302"/><path fill="none" stroke="#DFDFDF" stroke-width="5" stroke-linecap="round" stroke-miterlimit="10" d="M-604.968 5.713h47.332"/><path fill="none" stroke="#FFF" stroke-width="15" stroke-linecap="round" stroke-miterlimit="10" d="M-614.968 34.344h80.666"/><circle fill="#CCC" cx="-614.969" cy="35.714" r="4.304"/><path fill="none" stroke="#DFDFDF" stroke-width="5" stroke-linecap="round" stroke-miterlimit="10" d="M-604.968 34.344h67.997"/><path fill="none" stroke="#FFF" stroke-width="15" stroke-linecap="round" stroke-miterlimit="10" d="M-614.968 64.913h103.332"/><circle fill="#4C4C4C" cx="-614.302" cy="65.58" r="4.303"/><path fill="none" stroke="#DFDFDF" stroke-width="5" stroke-linecap="round" stroke-miterlimit="10" d="M-604.968 64.913h89.997"/><path fill="#FFF" d="M-365.627-158.48h59.282v59.282h-59.282zM-302.627-158.48h59.283v59.282h-59.283zM-302.627-96.48h122.655V24.853h-122.655zM-175.96-96.48h122.654v59.283H-175.96zM-239.614-158.48h59.283v59.282h-59.283zM-176.293-34.146h59.282v59.281h-59.282zM-365.627-34.146h59.283V87.303h-59.283zM-176.601-158.48h59.281v59.282h-59.281zM-113.589-158.48h59.283v59.282h-59.283z"/><path fill="#F8F8F8" d="M-176.438-158.292h58.954v9.943h-58.954z"/><path fill="#EFEFEF" d="M-117.319-148.162H-176.6v-10.318h59.281v10.318zm-58.955-.374h58.629v-9.568h-58.629v9.568z"/><path fill="#FFF" d="M-176.438-148.536h58.954v9.942h-58.954z"/><path fill="#EFEFEF" d="M-117.319-138.406H-176.6v-10.318h59.281v10.318zm-58.955-.376h58.629v-9.567h-58.629v9.567z"/><path fill="#FFF" d="M-176.438-138.734h58.954v9.943h-58.954z"/><path fill="#EFEFEF" d="M-117.319-128.604H-176.6v-10.318h59.281v10.318zm-58.955-.375h58.629v-9.567h-58.629v9.567z"/><path fill="#FFF" d="M-176.438-128.932h58.954v9.943h-58.954z"/><path fill="#EFEFEF" d="M-117.319-118.801H-176.6v-10.319h59.281v10.319zm-58.955-.376h58.629v-9.568h-58.629v9.568z"/><path fill="#FFF" d="M-176.438-119.13h58.954v9.943h-58.954z"/><path fill="#EFEFEF" d="M-117.319-109H-176.6v-10.317h59.281V-109zm-58.955-.375h58.629v-9.568h-58.629v9.568z"/><path fill="#FFF" d="M-176.438-109.328h58.954v9.943h-58.954z"/><path fill="#EFEFEF" d="M-117.319-99.197H-176.6v-10.318h59.281v10.318zm-58.955-.376h58.629v-9.568h-58.629v9.568z"/><path fill="#E8E8E8" d="M-140.013-142.346h-32.844c-.539 0-.975-.503-.975-1.125s.436-1.125.975-1.125h32.844c.54 0 .979.503.979 1.125s-.439 1.125-.979 1.125zM-135.886-102.699h-36.971c-.539 0-.976-.504-.976-1.125 0-.622.437-1.126.976-1.126h36.971c.54 0 .979.504.979 1.126 0 .62-.439 1.125-.979 1.125zM-133.116-112.611h-39.738c-.54 0-.977-.504-.977-1.125 0-.622.437-1.125.977-1.125h39.738c.541 0 .979.503.979 1.125-.002.621-.438 1.125-.979 1.125zM-141.749-122.523h-31.105c-.54 0-.977-.504-.977-1.126 0-.621.437-1.125.977-1.125h31.105c.54 0 .979.504.979 1.125-.002.623-.439 1.126-.979 1.126zM-133.116-132.434h-39.738c-.54 0-.977-.504-.977-1.125 0-.622.437-1.126.977-1.126h39.738c.541 0 .979.504.979 1.126-.002.62-.438 1.125-.979 1.125z"/><path fill="#C6C6C6" d="M-147.829-151.976h-25.025c-.54 0-.977-.504-.977-1.125 0-.622.437-1.126.977-1.126h25.025c.541 0 .979.504.979 1.126-.002.62-.438 1.125-.979 1.125z"/><path fill="none" stroke="#E8E8E8" stroke-width="1.77" stroke-linecap="round" stroke-miterlimit="10" d="M-359.89-43.486h29.862"/><path fill="#4BBF53" d="M-275.493-123.598l-5.871-5.871-2.56 2.557 8.431 8.432 16.446-16.442-2.562-2.558-13.884 13.882z"/><path fill="#C6C6C6" d="M-354.049-151.719h-7.032a.588.588 0 0 1-.586-.585c0-.323.264-.586.586-.586h7.032a.586.586 0 0 1 0 1.171zm0 2.93h-7.032a.588.588 0 0 1-.586-.586c0-.322.264-.586.586-.586h7.032a.587.587 0 0 1 0 1.172zm0 2.93h-7.032a.588.588 0 0 1-.586-.586c0-.322.264-.585.586-.585h7.032a.587.587 0 0 1 0 1.171z"/><path fill="#F8F8F8" stroke="#F8F8F8" stroke-width="1.5" stroke-linecap="round" stroke-linejoin="round" stroke-miterlimit="10" d="M-232.834-149.949h46v12h-46z"/><g fill="#C84D30"><path d="M-190.196-142.055c-.08 0-.16-.03-.221-.091l-3.273-3.275a.312.312 0 0 1 0-.44.308.308 0 0 1 .438 0l3.275 3.275a.31.31 0 0 1-.219.531z"/><path d="M-193.472-142.055a.309.309 0 0 1-.219-.091.307.307 0 0 1 0-.439l3.273-3.275a.31.31 0 0 1 .439.439l-3.275 3.275a.305.305 0 0 1-.218.091z"/></g><path fill="#F8F8F8" stroke="#F8F8F8" stroke-width="1.5" stroke-linecap="round" stroke-linejoin="round" stroke-miterlimit="10" d="M-232.834-134.774h46v12h-46z"/><g fill="#C84D30"><path d="M-189.981-126.624a.348.348 0 0 1-.25-.104l-3.703-3.705a.353.353 0 0 1 0-.498.35.35 0 0 1 .497 0l3.704 3.706a.348.348 0 0 1 0 .497.35.35 0 0 1-.248.104z"/><path d="M-193.687-126.624a.344.344 0 0 1-.248-.104.348.348 0 0 1 0-.497l3.703-3.706a.351.351 0 0 1 .498 0 .35.35 0 0 1 0 .498l-3.704 3.705a.35.35 0 0 1-.249.104z"/></g><path fill="#F8F8F8" stroke="#F8F8F8" stroke-width="1.5" stroke-linecap="round" stroke-linejoin="round" stroke-miterlimit="10" d="M-232.834-119.611h46v12h-46z"/><g fill="#C84D30"><path d="M-190.196-111.717c-.08 0-.16-.03-.221-.091l-3.275-3.275a.316.316 0 0 1 0-.44.309.309 0 0 1 .439 0l3.275 3.275a.31.31 0 0 1-.218.531z"/><path d="M-193.472-111.717a.31.31 0 0 1-.221-.53l3.275-3.275a.31.31 0 0 1 .439.439l-3.275 3.275a.305.305 0 0 1-.218.091z"/></g><path fill="#B9DDEA" d="M-174.075-31.145h54.849v53.279h-54.849z"/><path fill="none" stroke="#A3C3CC" stroke-width=".732" stroke-miterlimit="10" d="M-174.075-31.145l54.847 53.28M-174.075 22.135l54.847-53.28"/><path fill="none" stroke="#FFF" stroke-width="4.846" stroke-linecap="round" stroke-miterlimit="10" d="M-358.073-26.533h18.521"/><circle fill="#C84D30" cx="-357.977" cy="-26.532" r="1.39"/><path fill="none" stroke="#DFDFDF" stroke-width="1.615" stroke-linecap="round" stroke-miterlimit="10" d="M-354.843-26.533h14.669"/><path fill="none" stroke="#FFF" stroke-width="4.846" stroke-linecap="round" stroke-miterlimit="10" d="M-358.073-16.97h28.86"/><circle fill="#E99141" cx="-358.172" cy="-16.883" r="1.391"/><path fill="none" stroke="#DFDFDF" stroke-width="1.615" stroke-linecap="round" stroke-miterlimit="10" d="M-354.843-16.97h25.63"/><path fill="none" stroke="#FFF" stroke-width="4.846" stroke-linecap="round" stroke-miterlimit="10" d="M-358.073-7.191h12.922"/><circle fill="#FEE864" cx="-357.858" cy="-7.234" r="1.39"/><path fill="none" stroke="#DFDFDF" stroke-width="1.615" stroke-linecap="round" stroke-miterlimit="10" d="M-354.843-7.191h9.692"/><path fill="none" stroke="#FFF" stroke-width="4.846" stroke-linecap="round" stroke-miterlimit="10" d="M-358.073 2.371h25.845"/><circle fill="#CCDE91" cx="-357.858" cy="2.414" r="1.391"/><path fill="none" stroke="#DFDFDF" stroke-width="1.615" stroke-linecap="round" stroke-miterlimit="10" d="M-354.843 2.371h21.753"/><path fill="none" stroke="#FFF" stroke-width="4.846" stroke-linecap="round" stroke-miterlimit="10" d="M-358.073 11.621h32.521"/><circle fill="#A3C855" cx="-358.073" cy="12.063" r="1.39"/><path fill="none" stroke="#DFDFDF" stroke-width="1.615" stroke-linecap="round" stroke-miterlimit="10" d="M-354.843 11.621h28.43"/><path fill="none" stroke="#FFF" stroke-width="4.846" stroke-linecap="round" stroke-miterlimit="10" d="M-358.073 21.497h23.691"/><circle fill="#3EA349" cx="-357.858" cy="21.713" r="1.39"/><path fill="none" stroke="#DFDFDF" stroke-width="1.615" stroke-linecap="round" stroke-miterlimit="10" d="M-354.843 21.497h19.384"/><path fill="none" stroke="#FFF" stroke-width="4.846" stroke-linecap="round" stroke-miterlimit="10" d="M-358.767-134.901h23.692"/><circle fill="#3EA349" cx="-358.552" cy="-134.685" r="1.39"/><path fill="none" stroke="#DFDFDF" stroke-width="1.615" stroke-linecap="round" stroke-miterlimit="10" d="M-355.536-134.901h19.385"/><path fill="none" stroke="#FFF" stroke-width="4.846" stroke-linecap="round" stroke-miterlimit="10" d="M-358.767-128.819h23.692"/><circle fill="#3EA349" cx="-358.552" cy="-128.604" r="1.39"/><path fill="none" stroke="#DFDFDF" stroke-width="1.615" stroke-linecap="round" stroke-miterlimit="10" d="M-355.536-128.819h19.385"/><path fill="none" stroke="#FFF" stroke-width="4.846" stroke-linecap="round" stroke-miterlimit="10" d="M-358.767-122.738h23.692"/><circle fill="#3EA349" cx="-358.552" cy="-122.522" r="1.39"/><path fill="none" stroke="#DFDFDF" stroke-width="1.615" stroke-linecap="round" stroke-miterlimit="10" d="M-355.536-122.738h19.385"/><path fill="none" stroke="#FFF" stroke-width="4.846" stroke-linecap="round" stroke-miterlimit="10" d="M-358.073 30.539h18.521"/><circle fill="#C84D30" cx="-357.977" cy="30.54" r="1.39"/><path fill="none" stroke="#DFDFDF" stroke-width="1.615" stroke-linecap="round" stroke-miterlimit="10" d="M-354.843 30.539h14.669"/><path fill="none" stroke="#FFF" stroke-width="4.846" stroke-linecap="round" stroke-miterlimit="10" d="M-358.073 40.102h28.86"/><circle fill="#E99141" cx="-358.172" cy="40.189" r="1.39"/><path fill="none" stroke="#DFDFDF" stroke-width="1.615" stroke-linecap="round" stroke-miterlimit="10" d="M-354.843 40.102h25.63"/><path fill="none" stroke="#FFF" stroke-width="4.846" stroke-linecap="round" stroke-miterlimit="10" d="M-358.073 49.881h12.922"/><circle fill="#FEE864" cx="-357.858" cy="49.838" r="1.39"/><path fill="none" stroke="#DFDFDF" stroke-width="1.615" stroke-linecap="round" stroke-miterlimit="10" d="M-354.843 49.881h9.692"/><path fill="none" stroke="#FFF" stroke-width="4.846" stroke-linecap="round" stroke-miterlimit="10" d="M-358.073 59.443h25.845"/><circle fill="#CCDE91" cx="-357.858" cy="59.486" r="1.39"/><path fill="none" stroke="#DFDFDF" stroke-width="1.615" stroke-linecap="round" stroke-miterlimit="10" d="M-354.843 59.443h21.753"/><path fill="none" stroke="#FFF" stroke-width="4.846" stroke-linecap="round" stroke-miterlimit="10" d="M-358.073 68.693h32.521"/><circle fill="#A3C855" cx="-358.073" cy="69.136" r="1.39"/><path fill="none" stroke="#DFDFDF" stroke-width="1.615" stroke-linecap="round" stroke-miterlimit="10" d="M-354.843 68.693h28.43"/><path fill="none" stroke="#FFF" stroke-width="4.846" stroke-linecap="round" stroke-miterlimit="10" d="M-358.073 78.569h23.691"/><circle fill="#3EA349" cx="-357.858" cy="78.785" r="1.391"/><path fill="none" stroke="#DFDFDF" stroke-width="1.615" stroke-linecap="round" stroke-miterlimit="10" d="M-354.843 78.569h19.384"/><path fill="#FFF" stroke="#EFEFEF" stroke-width=".499" stroke-miterlimit="10" d="M-302.626-96.48h122.654V24.853h-122.654z"/><path fill="#007AC2" stroke="#007AB7" stroke-width=".499" stroke-miterlimit="10" d="M-243.184 1.594h20.748v12.271h-20.748z"/><path fill="none" stroke="#007AB7" stroke-width=".499" stroke-miterlimit="10" d="M-218.618 1.594h29.67v12.271h-29.67z"/><path fill="#007AC2" stroke="#007AB7" stroke-width=".271" stroke-miterlimit="10" d="M-340.852-110.936h11.245v6.65h-11.245z"/><path fill="none" stroke="#007AB7" stroke-width=".271" stroke-miterlimit="10" d="M-327.536-110.936h16.082v6.65h-16.082z"/><path fill="none" stroke="#E8E8E8" stroke-width="2.995" stroke-linecap="round" stroke-miterlimit="10" d="M-289.319-67.693h47.638M-288.059-11.947h36.63M-289.635-38.994h53.624M-289.635-46.169h57.64M-289.635-53.343h45.119M-289.635-31.818h45.119M-289.635-60.518h57.64"/><path fill="none" stroke="#C6C6C6" stroke-width="2.995" stroke-linecap="round" stroke-miterlimit="10" d="M-289.635-81.445h36.3"/><path fill="none" stroke="#E8E8E8" stroke-width="2.995" stroke-linecap="round" stroke-miterlimit="10" d="M-108.131-135.155h47.638"/><path fill="none" stroke="#E8E8E8" stroke-width="2.377" stroke-linecap="round" stroke-miterlimit="10" d="M-108.446-113.63h36.299"/><path fill="none" stroke="#E8E8E8" stroke-width="2.995" stroke-linecap="round" stroke-miterlimit="10" d="M-108.446-120.805h45.119"/><path fill="none" stroke="#E8E8E8" stroke-width="2.531" stroke-linecap="round" stroke-miterlimit="10" d="M-108.446-127.98h41.144"/><path fill="none" stroke="#C6C6C6" stroke-width="2.995" stroke-linecap="round" stroke-miterlimit="10" d="M-108.446-148.907h36.299"/><g fill="#007AC2"><path d="M-190.334-77.976a.714.714 0 0 1-.509-.211l-7.564-7.563a.719.719 0 0 1 1.016-1.015l7.564 7.562a.72.72 0 0 1-.507 1.227z"/><path d="M-197.899-77.977a.716.716 0 0 1-.508-1.225l7.563-7.562a.718.718 0 0 1 1.015 1.015l-7.564 7.563a.716.716 0 0 1-.506.209z"/></g><circle fill="#00B1DC" cx="-144.338" cy="-65.543" r="19.639"/><path fill="#B9DDEA" stroke="#FFF" stroke-width="3.041" stroke-miterlimit="10" d="M-144.338-65.543h18.974c0-10.479-8.494-18.973-18.974-18.973s-18.973 8.495-18.973 18.973 8.493 18.973 18.973 18.973c3.122 0 6.063-.758 8.66-2.093l-8.66-16.88z"/><path fill="#4BBF53" stroke="#FFF" stroke-miterlimit="10" d="M-143.338-65.543h22.302c0-12.316-9.984-22.301-22.302-22.301-2.606 0-5.108.452-7.435 1.274l7.435 21.027z"/><circle fill="#FFF" cx="-144.338" cy="-65.543" r="12.465"/><path fill="none" stroke="#E8E8E8" stroke-width="2.531" stroke-linecap="round" stroke-miterlimit="10" d="M-120.976-53.057h47.237M-119.036-80.391h47.234"/><path fill="none" stroke="#E8E8E8" stroke-width="2.303" stroke-linecap="round" stroke-miterlimit="10" d="M-110.913-74.588h39.111"/><g><path fill="#FFF" stroke="#EFEFEF" stroke-width=".443" stroke-miterlimit="10" d="M66.878 65.71h358.561v32.719H66.878z"/><path fill="none" stroke="#C6C6C6" stroke-width="4.082" stroke-linecap="round" stroke-miterlimit="10" d="M75.42 84.199h43.426"/><path fill="none" stroke="#DFDFDF" stroke-width="3.025" stroke-linecap="round" stroke-miterlimit="10" d="M138.078 84.199h27.598M178.078 84.199h27.598M218.079 84.199h27.597M258.079 84.199h27.597"/><path fill="#DFDFDF" d="M412.963 85.717l-1.9-1.901c-.123-.184-.368-.184-.553 0v.001l-.7-.701c1.166-1.431 1.085-3.573-.28-4.88-1.411-1.411-3.742-1.411-5.213 0-1.41 1.41-1.41 3.741 0 5.212 1.324 1.325 3.449 1.389 4.924.227l.706.706c-.17.126-.168.361.011.539l1.9 1.901c.123.185.367.185.553 0l.552-.552c.184-.122.184-.367 0-.552zm-7.849-3.066c-.98-1.042-1.043-2.636 0-3.679 1.042-1.042 2.699-1.042 3.68 0 1.042 1.043 1.042 2.638 0 3.679-1.043 1.043-2.699 1.043-3.68 0z"/><path fill="#007AC2" d="M217.938 64.816h28v3h-28z"/></g><path fill="#052942" d="M66.878 97.543h358.561v54.432H66.878z"/><path fill="#FFF" d="M66.878 151.975h358.561V393.58H66.878z"/><path fill="none" stroke="#FFF" stroke-width="6" stroke-linecap="round" stroke-miterlimit="10" d="M78.42 120.59h43.426"/><path fill="#FFF" d="M132.751 156.267v-17.996h56.824v17.996"/><path fill="none" stroke="#E8E8E8" stroke-width="3.103" stroke-linecap="round" stroke-miterlimit="10" d="M138.439 145.253h40.103"/><path opacity=".3" d="M75.42 138.271h55.648v13.704H75.42z"/><path fill="none" stroke="#D3D3D3" stroke-width="3.103" stroke-linecap="round" stroke-miterlimit="10" d="M81.108 145.425h28.208"/><path opacity=".3" d="M191.465 138.271h55.647v13.704h-55.647z"/><path fill="none" stroke="#D3D3D3" stroke-width="3.103" stroke-linecap="round" stroke-miterlimit="10" d="M197.153 145.425h28.207"/><path opacity=".3" d="M247.919 138.271h55.649v13.704h-55.649z"/><path fill="none" stroke="#D3D3D3" stroke-width="3.103" stroke-linecap="round" stroke-miterlimit="10" d="M254.002 145.425h28.208"/><path fill="#FFF" d="M74.604 160.727h59.282v121.449H74.604z"/><path fill="#FFF" d="M74.604 160.727h59.281v59.283H74.604z"/><path fill="#FFF" d="M74.604 219.979h59.281v59.283H74.604z"/><g><path fill="#F8F8F8" d="M74.768 167.924h58.955v10.484H74.768z"/><path fill="#EFEFEF" d="M133.886 178.605h-59.28v-10.879h59.28v10.879zm-58.954-.395h58.628v-10.087H74.932v10.087z"/><path fill="#FFF" d="M74.768 178.21h58.955v10.484H74.768z"/><path fill="#EFEFEF" d="M133.886 188.891h-59.28v-10.879h59.28v10.879zm-58.954-.396h58.628v-10.087H74.932v10.087z"/><path fill="#FFF" d="M74.768 188.547h58.955v10.481H74.768z"/><path fill="#EFEFEF" d="M133.886 199.227h-59.28v-10.879h59.28v10.879zm-58.954-.396h58.628v-10.088H74.932v10.088z"/><path fill="#FFF" d="M74.768 198.881h58.955v10.482H74.768z"/><path fill="#EFEFEF" d="M133.886 209.561h-59.28v-10.879h59.28v10.879zm-58.954-.396h58.628v-10.087H74.932v10.087z"/><path fill="#FFF" d="M74.768 209.215h58.955v10.483H74.768z"/><path fill="#EFEFEF" d="M133.886 219.896h-59.28v-10.881h59.28v10.881zm-58.954-.395h58.628v-10.089H74.932v10.089z"/><path fill="#FFF" d="M74.768 219.551h58.955v10.483H74.768z"/><path fill="#EFEFEF" d="M133.886 230.23h-59.28v-10.879h59.28v10.879zm-58.954-.395h58.628v-10.087H74.932v10.087z"/><path fill="#E8E8E8" d="M111.191 184.738H78.35c-.541 0-.977-.531-.977-1.188s.436-1.188.977-1.188h32.842c.541 0 .979.531.979 1.188s-.439 1.188-.98 1.188zM115.318 226.539H78.35c-.541 0-.977-.531-.977-1.188s.436-1.188.977-1.188h36.969c.541 0 .979.531.979 1.188s-.439 1.188-.98 1.188zM118.089 216.09H78.35c-.539 0-.976-.533-.976-1.188 0-.657.437-1.188.976-1.188h39.739c.54 0 .978.529.978 1.188-.001.655-.438 1.188-.978 1.188zM109.456 205.639H78.35c-.539 0-.976-.531-.976-1.188 0-.654.437-1.188.976-1.188h31.106c.54 0 .978.533.978 1.188s-.438 1.188-.978 1.188zM118.089 195.188H78.35c-.539 0-.976-.532-.976-1.188 0-.654.437-1.188.976-1.188h39.739c.54 0 .978.531.978 1.188-.001.655-.438 1.188-.978 1.188z"/><path fill="#C6C6C6" d="M103.376 174.584H78.35c-.539 0-.976-.531-.976-1.188 0-.655.437-1.188.976-1.188h25.026c.54 0 .978.532.978 1.188 0 .657-.438 1.188-.978 1.188z"/><g><path fill="#F8F8F8" d="M74.768 230.167h58.955v9.943H74.768z"/><path fill="#EFEFEF" d="M133.886 240.299h-59.28V229.98h59.28v10.319zm-58.954-.375h58.628v-9.568H74.932v9.568z"/><path fill="#FFF" d="M74.768 239.924h58.955v9.942H74.768z"/><path fill="#EFEFEF" d="M133.886 250.055h-59.28v-10.319h59.28v10.319zm-58.954-.377h58.628v-9.566H74.932v9.566z"/><path fill="#FFF" d="M74.768 249.725h58.955v9.942H74.768z"/><path fill="#EFEFEF" d="M133.886 259.855h-59.28v-10.317h59.28v10.317zm-58.954-.375h58.628v-9.567H74.932v9.567z"/><path fill="#FFF" d="M74.768 259.527h58.955v9.941H74.768z"/><path fill="#EFEFEF" d="M133.886 269.658h-59.28V259.34h59.28v10.318zm-58.954-.376h58.628v-9.567H74.932v9.567z"/><path fill="#FFF" d="M74.768 269.329h58.955v9.942H74.768z"/><path fill="#EFEFEF" d="M133.886 279.46h-59.28v-10.317h59.28v10.317zm-58.954-.375h58.628v-9.567H74.932v9.567z"/><path fill="#FFF" d="M74.768 279.133h58.955v9.942H74.768z"/><path fill="#EFEFEF" d="M133.886 289.264h-59.28v-10.318h59.28v10.318zm-58.954-.377h58.628v-9.566H74.932v9.566z"/><path fill="#E8E8E8" d="M111.191 246.114H78.35c-.541 0-.977-.504-.977-1.126s.436-1.126.977-1.126h32.842c.541 0 .979.504.979 1.126s-.439 1.126-.98 1.126zM115.318 285.762H78.35c-.541 0-.977-.506-.977-1.127s.436-1.125.977-1.125h36.969c.541 0 .979.504.979 1.125s-.439 1.127-.98 1.127zM118.089 275.848H78.35c-.539 0-.976-.504-.976-1.125 0-.623.437-1.125.976-1.125h39.739c.54 0 .978.502.978 1.125s-.438 1.125-.978 1.125zM109.456 265.936H78.35c-.539 0-.976-.504-.976-1.125s.437-1.125.976-1.125h31.106c.54 0 .978.504.978 1.125s-.438 1.125-.978 1.125zM118.089 256.025H78.35c-.539 0-.976-.506-.976-1.127 0-.62.437-1.125.976-1.125h39.739c.54 0 .978.505.978 1.125-.001.622-.438 1.127-.978 1.127z"/><path fill="#C6C6C6" d="M103.376 236.483H78.35c-.539 0-.976-.505-.976-1.125 0-.622.437-1.128.976-1.128h25.026c.54 0 .978.506.978 1.128 0 .621-.438 1.125-.978 1.125z"/></g></g><g><path fill="#FFF" d="M142.393 168.039h59.283v59.283h-59.283z"/><path fill="#FFF" stroke="#EFEFEF" stroke-width=".295" stroke-miterlimit="10" d="M142.393 200.187h59.283v27.136h-59.283z"/><path fill="none" stroke="#E8E8E8" stroke-width="1.77" stroke-linecap="round" stroke-miterlimit="10" d="M148.339 213.463h31.529M148.13 217.248h38.148"/><path fill="none" stroke="#C6C6C6" stroke-width="1.77" stroke-linecap="round" stroke-miterlimit="10" d="M148.13 206.207h24.025"/><path fill="#B9DDEA" d="M142.487 168.041h59.094v32.146h-59.094z"/><path fill="none" stroke="#A3C3CC" stroke-width=".59" stroke-miterlimit="10" d="M142.487 168.041l59.094 32.146M142.487 200.187l59.094-32.146"/></g><g><path fill="#FFF" d="M215.509 168.039h59.284v59.283h-59.284z"/><path fill="#FFF" stroke="#EFEFEF" stroke-width=".295" stroke-miterlimit="10" d="M215.509 200.187h59.284v27.136h-59.284z"/><path fill="none" stroke="#E8E8E8" stroke-width="1.77" stroke-linecap="round" stroke-miterlimit="10" d="M221.456 213.463h31.528M221.247 217.248h38.148"/><path fill="none" stroke="#C6C6C6" stroke-width="1.77" stroke-linecap="round" stroke-miterlimit="10" d="M221.247 206.207h24.024"/><path fill="#B9DDEA" d="M215.604 168.041h59.093v32.146h-59.093z"/><path fill="none" stroke="#A3C3CC" stroke-width=".59" stroke-miterlimit="10" d="M215.604 168.041l59.093 32.146M215.604 200.187l59.093-32.146"/></g><g><path fill="#FFF" d="M285.805 168.039h59.284v59.283h-59.284z"/><path fill="#FFF" stroke="#EFEFEF" stroke-width=".295" stroke-miterlimit="10" d="M285.805 200.187h59.284v27.136h-59.284z"/><path fill="none" stroke="#E8E8E8" stroke-width="1.77" stroke-linecap="round" stroke-miterlimit="10" d="M291.752 213.463h31.528M291.543 217.248h38.147"/><path fill="none" stroke="#C6C6C6" stroke-width="1.77" stroke-linecap="round" stroke-miterlimit="10" d="M291.543 206.207h24.024"/><path fill="#B9DDEA" d="M285.9 168.041h59.093v32.146H285.9z"/><path fill="none" stroke="#A3C3CC" stroke-width=".59" stroke-miterlimit="10" d="M285.9 168.041l59.093 32.146M285.9 200.187l59.093-32.146"/></g><g><path fill="#FFF" d="M353.817 168.039h59.284v59.283h-59.284z"/><path fill="#FFF" stroke="#EFEFEF" stroke-width=".295" stroke-miterlimit="10" d="M353.817 200.187h59.284v27.136h-59.284z"/><path fill="none" stroke="#E8E8E8" stroke-width="1.77" stroke-linecap="round" stroke-miterlimit="10" d="M359.765 213.463h31.528M359.556 217.248h38.147"/><path fill="none" stroke="#C6C6C6" stroke-width="1.77" stroke-linecap="round" stroke-miterlimit="10" d="M359.556 206.207h24.024"/><path fill="#B9DDEA" d="M353.913 168.041h59.093v32.146h-59.093z"/><path fill="none" stroke="#A3C3CC" stroke-width=".59" stroke-miterlimit="10" d="M353.913 168.041l59.093 32.146M353.913 200.187l59.093-32.146"/></g><path fill="#FFF" d="M146.692 246.205h186.617v59.283H146.692z"/><path fill="#FFF" stroke="#EFEFEF" stroke-width=".365" stroke-miterlimit="10" d="M333.309 254.951v50.539H146.692v-50.539M192.966 254.848v-8.167h47.52v8.167"/><path fill="none" stroke="#E8E8E8" stroke-width="2.19" stroke-linecap="round" stroke-miterlimit="10" d="M197.723 250.841h33.536"/><path fill="#F8F8F8" stroke="#EFEFEF" stroke-width=".365" stroke-miterlimit="10" d="M146.692 246.681h46.538v8.167h-46.538z"/><path fill="none" stroke="#D3D3D3" stroke-width="2.19" stroke-linecap="round" stroke-miterlimit="10" d="M151.449 250.943h23.59"/><path fill="#F8F8F8" stroke="#EFEFEF" stroke-width=".365" stroke-miterlimit="10" d="M240.394 246.681h46.538v8.167h-46.538z"/><path fill="none" stroke="#D3D3D3" stroke-width="2.19" stroke-linecap="round" stroke-miterlimit="10" d="M245.15 250.943h23.59"/><path fill="#F8F8F8" stroke="#EFEFEF" stroke-width=".365" stroke-miterlimit="10" d="M286.771 246.681h46.537v8.167h-46.537z"/><path fill="none" stroke="#D3D3D3" stroke-width="2.19" stroke-linecap="round" stroke-miterlimit="10" d="M291.857 250.943h23.59"/><path fill="none" stroke="#E8E8E8" stroke-width="2.19" stroke-linecap="round" stroke-miterlimit="10" d="M201.095 269.742h73.63M200.608 286.507h82.88M200.608 282.315h89.085M200.608 278.123h69.736M200.608 290.697h69.736M200.608 273.934h89.085"/><g><circle fill="#B9DDEA" cx="172.039" cy="280.544" r="15.417"/><path fill="none" stroke="#A3C3CC" stroke-width=".571" stroke-miterlimit="10" d="M161.18 269.686l21.718 21.718M161.18 291.404l21.718-21.718"/></g></svg>