<svg xmlns="http://www.w3.org/2000/svg" width="480" height="320" viewBox="0 0 480 320"><path fill="#CCC" d="M0-1h480v321H0z"/><path fill="none" stroke="#FFF" stroke-width="15" stroke-linecap="round" stroke-miterlimit="10" d="M96.638 84.833h57.333"/><circle fill="#C84D30" cx="96.939" cy="84.834" r="4.302"/><path fill="none" stroke="#DFDFDF" stroke-width="5" stroke-linecap="round" stroke-miterlimit="10" d="M106.638 84.833h45.404"/><path fill="none" stroke="#FFF" stroke-width="15" stroke-linecap="round" stroke-miterlimit="10" d="M284.637 84.833h87.332"/><circle fill="#007AC2" cx="284.938" cy="84.834" r="4.303"/><path fill="none" stroke="#DFDFDF" stroke-width="5" stroke-linecap="round" stroke-miterlimit="10" d="M294.637 84.833h75.404"/><g><path fill="none" stroke="#FFF" stroke-width="15" stroke-linecap="round" stroke-miterlimit="10" d="M96.638 114.435h89.333"/><circle fill="#E99141" cx="96.334" cy="114.701" r="4.303"/><path fill="none" stroke="#DFDFDF" stroke-width="5" stroke-linecap="round" stroke-miterlimit="10" d="M106.638 114.435h79.333"/><g><path fill="none" stroke="#FFF" stroke-width="15" stroke-linecap="round" stroke-miterlimit="10" d="M284.637 114.701h79.332"/><circle fill="#00B1DC" cx="284.332" cy="114.701" r="4.303"/><path fill="none" stroke="#DFDFDF" stroke-width="5" stroke-linecap="round" stroke-miterlimit="10" d="M294.637 114.701h69.332"/></g></g><g><path fill="none" stroke="#FFF" stroke-width="15" stroke-linecap="round" stroke-miterlimit="10" d="M96.638 144.701h39.999"/><circle fill="#FEE864" cx="97.303" cy="144.568" r="4.302"/><path fill="none" stroke="#DFDFDF" stroke-width="5" stroke-linecap="round" stroke-miterlimit="10" d="M106.638 144.701h29.999"/><g><path fill="none" stroke="#FFF" stroke-width="15" stroke-linecap="round" stroke-miterlimit="10" d="M284.637 144.701h100"/><circle fill="#B9DDEA" cx="285.302" cy="144.568" r="4.302"/><path fill="none" stroke="#DFDFDF" stroke-width="5" stroke-linecap="round" stroke-miterlimit="10" d="M294.637 144.701h90"/></g></g><g><path fill="none" stroke="#FFF" stroke-width="15" stroke-linecap="round" stroke-miterlimit="10" d="M96.638 174.3h79.999"/><circle fill="#CCDE91" cx="97.303" cy="174.433" r="4.302"/><path fill="none" stroke="#DFDFDF" stroke-width="5" stroke-linecap="round" stroke-miterlimit="10" d="M106.638 174.3h67.332"/><g><path fill="none" stroke="#FFF" stroke-width="15" stroke-linecap="round" stroke-miterlimit="10" d="M284.637 174.3h60"/><circle fill="#EFEFEF" cx="285.302" cy="174.433" r="4.302"/><path fill="none" stroke="#DFDFDF" stroke-width="5" stroke-linecap="round" stroke-miterlimit="10" d="M294.637 174.3h47.332"/></g></g><g><path fill="none" stroke="#FFF" stroke-width="15" stroke-linecap="round" stroke-miterlimit="10" d="M96.638 202.931h100.666"/><circle fill="#A3C855" cx="96.637" cy="204.301" r="4.303"/><path fill="none" stroke="#DFDFDF" stroke-width="5" stroke-linecap="round" stroke-miterlimit="10" d="M106.638 202.931h87.999"/><g><path fill="none" stroke="#FFF" stroke-width="15" stroke-linecap="round" stroke-miterlimit="10" d="M284.637 202.931h80.666"/><circle fill="#CCC" cx="284.636" cy="204.301" r="4.304"/><path fill="none" stroke="#DFDFDF" stroke-width="5" stroke-linecap="round" stroke-miterlimit="10" d="M294.637 202.931h67.998"/></g></g><g><path fill="none" stroke="#FFF" stroke-width="15" stroke-linecap="round" stroke-miterlimit="10" d="M96.638 233.5h73.333"/><circle fill="#3EA349" cx="97.303" cy="234.167" r="4.303"/><path fill="none" stroke="#DFDFDF" stroke-width="5" stroke-linecap="round" stroke-miterlimit="10" d="M106.638 233.5h59.999"/><g><path fill="none" stroke="#FFF" stroke-width="15" stroke-linecap="round" stroke-miterlimit="10" d="M284.637 233.5h103.332"/><circle fill="#4C4C4C" cx="285.303" cy="234.167" r="4.303"/><path fill="none" stroke="#DFDFDF" stroke-width="5" stroke-linecap="round" stroke-miterlimit="10" d="M294.637 233.5h89.998"/></g></g></svg>