<?xml version="1.0" encoding="utf-8"?>
<!-- Generator: Adobe Illustrator 16.0.4, SVG Export Plug-In . SVG Version: 6.00 Build 0)  -->
<!DOCTYPE svg PUBLIC "-//W3C//DTD SVG 1.1//EN" "http://www.w3.org/Graphics/SVG/1.1/DTD/svg11.dtd">
<svg version="1.1" id="Layer_1" xmlns="http://www.w3.org/2000/svg" xmlns:xlink="http://www.w3.org/1999/xlink" x="0px" y="0px"
	 width="480px" height="320px" viewBox="0 0 480 320" enable-background="new 0 0 480 320" xml:space="preserve">
<rect y="-1" fill="#CCCCCC" width="480" height="321"/>
<g>
	<g>
		<g>
			
				<line fill="none" stroke="#FFFFFF" stroke-width="15" stroke-linecap="round" stroke-miterlimit="10" x1="96.638" y1="84.833" x2="153.971" y2="84.833"/>
			<circle fill="#C84D30" cx="96.939" cy="84.834" r="4.302"/>
			
				<line fill="none" stroke="#DFDFDF" stroke-width="5" stroke-linecap="round" stroke-miterlimit="10" x1="106.638" y1="84.833" x2="152.042" y2="84.833"/>
		</g>
		<g>
			
				<line fill="none" stroke="#FFFFFF" stroke-width="15" stroke-linecap="round" stroke-miterlimit="10" x1="284.637" y1="84.833" x2="371.969" y2="84.833"/>
			<circle fill="#007AC2" cx="284.938" cy="84.834" r="4.303"/>
			
				<line fill="none" stroke="#DFDFDF" stroke-width="5" stroke-linecap="round" stroke-miterlimit="10" x1="294.637" y1="84.833" x2="370.041" y2="84.833"/>
		</g>
	</g>
	<g>
		<g>
			
				<line fill="none" stroke="#FFFFFF" stroke-width="15" stroke-linecap="round" stroke-miterlimit="10" x1="96.638" y1="114.435" x2="185.971" y2="114.435"/>
			<circle fill="#E99141" cx="96.334" cy="114.701" r="4.303"/>
			
				<line fill="none" stroke="#DFDFDF" stroke-width="5" stroke-linecap="round" stroke-miterlimit="10" x1="106.638" y1="114.435" x2="185.971" y2="114.435"/>
		</g>
		<g>
			
				<line fill="none" stroke="#FFFFFF" stroke-width="15" stroke-linecap="round" stroke-miterlimit="10" x1="284.637" y1="114.701" x2="363.969" y2="114.701"/>
			<circle fill="#00B1DC" cx="284.332" cy="114.701" r="4.303"/>
			
				<line fill="none" stroke="#DFDFDF" stroke-width="5" stroke-linecap="round" stroke-miterlimit="10" x1="294.637" y1="114.701" x2="363.969" y2="114.701"/>
		</g>
	</g>
	<g>
		<g>
			
				<line fill="none" stroke="#FFFFFF" stroke-width="15" stroke-linecap="round" stroke-miterlimit="10" x1="96.638" y1="144.701" x2="136.637" y2="144.701"/>
			<circle fill="#FEE864" cx="97.303" cy="144.568" r="4.302"/>
			
				<line fill="none" stroke="#DFDFDF" stroke-width="5" stroke-linecap="round" stroke-miterlimit="10" x1="106.638" y1="144.701" x2="136.637" y2="144.701"/>
		</g>
		<g>
			
				<line fill="none" stroke="#FFFFFF" stroke-width="15" stroke-linecap="round" stroke-miterlimit="10" x1="284.637" y1="144.701" x2="384.637" y2="144.701"/>
			<circle fill="#B9DDEA" cx="285.302" cy="144.568" r="4.302"/>
			
				<line fill="none" stroke="#DFDFDF" stroke-width="5" stroke-linecap="round" stroke-miterlimit="10" x1="294.637" y1="144.701" x2="384.637" y2="144.701"/>
		</g>
	</g>
	<g>
		<g>
			
				<line fill="none" stroke="#FFFFFF" stroke-width="15" stroke-linecap="round" stroke-miterlimit="10" x1="96.638" y1="174.3" x2="176.637" y2="174.3"/>
			<circle fill="#CCDE91" cx="97.303" cy="174.433" r="4.302"/>
			
				<line fill="none" stroke="#DFDFDF" stroke-width="5" stroke-linecap="round" stroke-miterlimit="10" x1="106.638" y1="174.3" x2="173.97" y2="174.3"/>
		</g>
		<g>
			
				<line fill="none" stroke="#FFFFFF" stroke-width="15" stroke-linecap="round" stroke-miterlimit="10" x1="284.637" y1="174.3" x2="344.637" y2="174.3"/>
			<circle fill="#EFEFEF" cx="285.302" cy="174.433" r="4.302"/>
			
				<line fill="none" stroke="#DFDFDF" stroke-width="5" stroke-linecap="round" stroke-miterlimit="10" x1="294.637" y1="174.3" x2="341.969" y2="174.3"/>
		</g>
	</g>
	<g>
		<g>
			
				<line fill="none" stroke="#FFFFFF" stroke-width="15" stroke-linecap="round" stroke-miterlimit="10" x1="96.638" y1="202.931" x2="197.304" y2="202.931"/>
			<circle fill="#A3C855" cx="96.637" cy="204.301" r="4.303"/>
			
				<line fill="none" stroke="#DFDFDF" stroke-width="5" stroke-linecap="round" stroke-miterlimit="10" x1="106.638" y1="202.931" x2="194.637" y2="202.931"/>
		</g>
		<g>
			
				<line fill="none" stroke="#FFFFFF" stroke-width="15" stroke-linecap="round" stroke-miterlimit="10" x1="284.637" y1="202.931" x2="365.303" y2="202.931"/>
			<circle fill="#CCCCCC" cx="284.636" cy="204.301" r="4.304"/>
			
				<line fill="none" stroke="#DFDFDF" stroke-width="5" stroke-linecap="round" stroke-miterlimit="10" x1="294.637" y1="202.931" x2="362.635" y2="202.931"/>
		</g>
	</g>
	<g>
		<g>
			
				<line fill="none" stroke="#FFFFFF" stroke-width="15" stroke-linecap="round" stroke-miterlimit="10" x1="96.638" y1="233.5" x2="169.971" y2="233.5"/>
			<circle fill="#3EA349" cx="97.303" cy="234.167" r="4.303"/>
			
				<line fill="none" stroke="#DFDFDF" stroke-width="5" stroke-linecap="round" stroke-miterlimit="10" x1="106.638" y1="233.5" x2="166.637" y2="233.5"/>
		</g>
		<g>
			
				<line fill="none" stroke="#FFFFFF" stroke-width="15" stroke-linecap="round" stroke-miterlimit="10" x1="284.637" y1="233.5" x2="387.969" y2="233.5"/>
			<circle fill="#4C4C4C" cx="285.303" cy="234.167" r="4.303"/>
			
				<line fill="none" stroke="#DFDFDF" stroke-width="5" stroke-linecap="round" stroke-miterlimit="10" x1="294.637" y1="233.5" x2="384.635" y2="233.5"/>
		</g>
	</g>
</g>
</svg>
