<svg xmlns="http://www.w3.org/2000/svg" width="480" height="320" viewBox="0 0 480 320"><path fill="#D8D8D8" d="M0-2.416h480V320H0z"/><path fill="none" stroke="#FFF" stroke-width="15" stroke-linecap="round" stroke-miterlimit="10" d="M19.304-189.666h87.332"/><circle fill="#007AC2" cx="19.604" cy="-189.665" r="4.303"/><path fill="none" stroke="#DFDFDF" stroke-width="5" stroke-linecap="round" stroke-miterlimit="10" d="M29.304-189.666h75.404"/><path fill="none" stroke="#FFF" stroke-width="15" stroke-linecap="round" stroke-miterlimit="10" d="M19.304-159.798h79.332"/><circle fill="#00B1DC" cx="18.999" cy="-159.798" r="4.303"/><path fill="none" stroke="#DFDFDF" stroke-width="5" stroke-linecap="round" stroke-miterlimit="10" d="M29.304-159.798h69.332"/><path fill="none" stroke="#FFF" stroke-width="15" stroke-linecap="round" stroke-miterlimit="10" d="M19.304-129.798h100"/><circle fill="#B9DDEA" cx="19.969" cy="-129.931" r="4.302"/><path fill="none" stroke="#DFDFDF" stroke-width="5" stroke-linecap="round" stroke-miterlimit="10" d="M29.304-129.798h90"/><path fill="none" stroke="#FFF" stroke-width="15" stroke-linecap="round" stroke-miterlimit="10" d="M19.304-100.199h60"/><circle fill="#EFEFEF" cx="19.969" cy="-100.066" r="4.302"/><path fill="none" stroke="#DFDFDF" stroke-width="5" stroke-linecap="round" stroke-miterlimit="10" d="M29.304-100.199h47.332"/><g><path fill="none" stroke="#FFF" stroke-width="15" stroke-linecap="round" stroke-miterlimit="10" d="M19.304-71.568H99.97"/><circle fill="#CCC" cx="19.303" cy="-70.198" r="4.304"/><path fill="none" stroke="#DFDFDF" stroke-width="5" stroke-linecap="round" stroke-miterlimit="10" d="M29.304-71.568h67.998"/></g><g><path fill="none" stroke="#FFF" stroke-width="15" stroke-linecap="round" stroke-miterlimit="10" d="M19.304-40.999h103.332"/><circle fill="#4C4C4C" cx="19.97" cy="-40.332" r="4.303"/><path fill="none" stroke="#DFDFDF" stroke-width="5" stroke-linecap="round" stroke-miterlimit="10" d="M29.304-40.999h89.998"/></g><path fill="#C6C6C6" d="M1154.55-178.522l-4.455-4.456c-.288-.432-.864-.432-1.295 0l-.001.001-1.642-1.642c2.734-3.353 2.542-8.375-.657-11.44-3.306-3.306-8.77-3.306-12.218 0-3.307 3.306-3.307 8.769 0 12.218 3.104 3.103 8.085 3.254 11.541.532l1.655 1.655c-.396.295-.393.845.027 1.263l4.455 4.456c.287.431.861.431 1.295 0l1.293-1.293c.432-.288.432-.863.002-1.294zm-18.399-7.187c-2.3-2.444-2.444-6.181 0-8.625 2.443-2.444 6.325-2.444 8.624 0 2.444 2.444 2.444 6.181 0 8.625-2.443 2.444-6.325 2.444-8.624 0z"/><path fill="#4BBF53" d="M555.519 194.941l-5.87-5.871-2.561 2.557 8.431 8.432 16.446-16.441-2.561-2.558-13.885 13.881z"/><g fill="#DDD"><path d="M1540.375 226.09h-11.85l45.899-106.199h10.5l45.601 106.199h-12l-11.701-27.898h-54.898l-11.551 27.898zm15.6-37.799h46.801l-23.4-56.4-23.401 56.4zM1689.774 180.656c0-6.054-1.601-10.57-4.8-13.549-3.201-2.978-7.853-4.468-13.95-4.468-4.2 0-8.101.75-11.7 2.25-3.599 1.5-6.65 3.502-9.149 6l-5.699-6.75c2.897-2.898 6.725-5.299 11.475-7.199 4.748-1.898 10.125-2.852 16.125-2.852 3.799 0 7.351.525 10.65 1.576 3.3 1.049 6.199 2.625 8.699 4.725 2.499 2.101 4.448 4.75 5.851 7.949 1.399 3.202 2.101 6.952 2.101 11.25v30.75c0 2.701.099 5.502.3 8.4.198 2.901.5 5.352.899 7.35h-9.149a73.763 73.763 0 0 1-.75-5.549c-.201-2-.3-3.949-.3-5.852h-.301c-3.201 4.702-6.824 8.077-10.875 10.125-4.05 2.049-8.925 3.075-14.625 3.075-2.699 0-5.475-.377-8.324-1.127a23.207 23.207 0 0 1-7.801-3.688c-2.351-1.706-4.301-3.914-5.85-6.623-1.552-2.709-2.325-6.021-2.325-9.935 0-5.418 1.374-9.707 4.125-12.866 2.749-3.158 6.425-5.518 11.024-7.072 4.6-1.558 9.875-2.562 15.825-3.012a245.092 245.092 0 0 1 18.524-.679v-2.229zm-3 10.334c-4.2 0-8.426.176-12.675.524-4.252.353-8.101 1.051-11.551 2.101-3.449 1.051-6.275 2.576-8.476 4.575-2.201 2.001-3.3 4.648-3.3 7.949 0 2.5.474 4.602 1.425 6.301a11.656 11.656 0 0 0 3.825 4.125c1.599 1.05 3.375 1.8 5.325 2.25 1.948.449 3.924.675 5.925.675 3.601 0 6.8-.623 9.601-1.875 2.798-1.249 5.148-2.948 7.049-5.101 1.898-2.148 3.351-4.625 4.352-7.426.999-2.798 1.5-5.748 1.5-8.85v-5.25l-3 .002z"/></g><g><path fill="#F8F8F8" stroke="#F8F8F8" stroke-width="1.5" stroke-linecap="round" stroke-linejoin="round" stroke-miterlimit="10" d="M302.3 152.084h46v12h-46z"/><g fill="#C84D30"><path d="M344.937 159.979a.307.307 0 0 1-.22-.092l-3.274-3.274a.312.312 0 0 1 0-.44.309.309 0 0 1 .438.001l3.275 3.274a.309.309 0 0 1 0 .439.31.31 0 0 1-.219.092z"/><path d="M341.661 159.979a.306.306 0 0 1-.219-.092.307.307 0 0 1 0-.439l3.274-3.275a.31.31 0 0 1 .439.001.309.309 0 0 1 0 .439l-3.275 3.274a.31.31 0 0 1-.219.092z"/></g><path fill="#FFF" d="M378.997 128.442h59.283v59.283h-59.283z"/><path fill="#FFF" stroke="#EFEFEF" stroke-width=".295" stroke-miterlimit="10" d="M378.997 160.59h59.283v27.136h-59.283z"/><path fill="none" stroke="#E8E8E8" stroke-width="1.77" stroke-linecap="round" stroke-miterlimit="10" d="M384.943 173.865h31.529M384.734 181.435h29.863M384.734 177.649h38.148"/><path fill="none" stroke="#C6C6C6" stroke-width="1.77" stroke-linecap="round" stroke-miterlimit="10" d="M384.734 166.609h24.026"/><path fill="#B9DDEA" d="M379.093 128.443h59.094v32.146h-59.094z"/><path fill="none" stroke="#A3C3CC" stroke-width=".59" stroke-miterlimit="10" d="M379.093 128.443l59.094 32.147M379.093 160.59l59.094-32.147"/><g><path fill="#FFF" d="M212.318 128.442h59.283v59.282h-59.283z"/><path fill="#B9DDEA" d="M214.535 131.444h54.85v53.279h-54.85z"/><path fill="none" stroke="#A3C3CC" stroke-width=".732" stroke-miterlimit="10" d="M214.535 131.444l54.85 53.28M214.535 184.724l54.85-53.28"/></g><g><path fill="#007AC2" stroke="#007AB7" stroke-width=".46" stroke-miterlimit="10" d="M131.702 136.115h29.235v11.293h-29.235z"/><path fill="none" stroke="#007AB7" stroke-width=".46" stroke-miterlimit="10" d="M164.45 136.115h17.169v11.293H164.45z"/><path fill="#C84D30" stroke="#C84D30" stroke-width=".46" stroke-miterlimit="10" d="M131.702 152.409h19.096v11.292h-19.096z"/><path fill="#3EA349" d="M131.702 167.761h49.917v11.292h-49.917z"/><path fill="none" stroke="#C84D30" stroke-width=".46" stroke-miterlimit="10" d="M154.312 152.409h27.308v11.292h-27.308z"/></g><g><path fill="#FFF" d="M41.72 128.442h59.283v59.281H41.72z"/><path fill="none" stroke="#E8E8E8" stroke-width="2.995" stroke-linecap="round" stroke-miterlimit="10" d="M47.178 151.767h47.637"/><path fill="none" stroke="#E8E8E8" stroke-width="2.377" stroke-linecap="round" stroke-miterlimit="10" d="M46.862 173.291h36.299"/><path fill="none" stroke="#E8E8E8" stroke-width="2.995" stroke-linecap="round" stroke-miterlimit="10" d="M46.862 166.116h45.119"/><path fill="none" stroke="#E8E8E8" stroke-width="2.531" stroke-linecap="round" stroke-miterlimit="10" d="M46.862 158.942h41.145"/><path fill="none" stroke="#C6C6C6" stroke-width="2.995" stroke-linecap="round" stroke-miterlimit="10" d="M46.862 138.015h36.299"/></g></g></svg>