<?xml version="1.0" encoding="utf-8"?>
<!-- Generator: Adobe Illustrator 16.0.4, SVG Export Plug-In . SVG Version: 6.00 Build 0)  -->
<!DOCTYPE svg PUBLIC "-//W3C//DTD SVG 1.1//EN" "http://www.w3.org/Graphics/SVG/1.1/DTD/svg11.dtd">
<svg version="1.1" id="Layer_1" xmlns="http://www.w3.org/2000/svg" xmlns:xlink="http://www.w3.org/1999/xlink" x="0px" y="0px"
	 width="480px" height="320px" viewBox="0 0 480 320" enable-background="new 0 0 480 320" xml:space="preserve">
<rect y="-2.416" fill="#D8D8D8" width="480" height="322.416"/>
<g>
	
		<line fill="none" stroke="#FFFFFF" stroke-width="15" stroke-linecap="round" stroke-miterlimit="10" x1="19.304" y1="-189.666" x2="106.636" y2="-189.666"/>
	<circle fill="#007AC2" cx="19.604" cy="-189.665" r="4.303"/>
	
		<line fill="none" stroke="#DFDFDF" stroke-width="5" stroke-linecap="round" stroke-miterlimit="10" x1="29.304" y1="-189.666" x2="104.708" y2="-189.666"/>
</g>
<g>
	
		<line fill="none" stroke="#FFFFFF" stroke-width="15" stroke-linecap="round" stroke-miterlimit="10" x1="19.304" y1="-159.798" x2="98.636" y2="-159.798"/>
	<circle fill="#00B1DC" cx="18.999" cy="-159.798" r="4.303"/>
	
		<line fill="none" stroke="#DFDFDF" stroke-width="5" stroke-linecap="round" stroke-miterlimit="10" x1="29.304" y1="-159.798" x2="98.636" y2="-159.798"/>
</g>
<g>
	
		<line fill="none" stroke="#FFFFFF" stroke-width="15" stroke-linecap="round" stroke-miterlimit="10" x1="19.304" y1="-129.798" x2="119.304" y2="-129.798"/>
	<circle fill="#B9DDEA" cx="19.969" cy="-129.931" r="4.302"/>
	
		<line fill="none" stroke="#DFDFDF" stroke-width="5" stroke-linecap="round" stroke-miterlimit="10" x1="29.304" y1="-129.798" x2="119.304" y2="-129.798"/>
</g>
<g>
	
		<line fill="none" stroke="#FFFFFF" stroke-width="15" stroke-linecap="round" stroke-miterlimit="10" x1="19.304" y1="-100.199" x2="79.304" y2="-100.199"/>
	<circle fill="#EFEFEF" cx="19.969" cy="-100.066" r="4.302"/>
	
		<line fill="none" stroke="#DFDFDF" stroke-width="5" stroke-linecap="round" stroke-miterlimit="10" x1="29.304" y1="-100.199" x2="76.636" y2="-100.199"/>
</g>
<g>
	
		<line fill="none" stroke="#FFFFFF" stroke-width="15" stroke-linecap="round" stroke-miterlimit="10" x1="19.304" y1="-71.568" x2="99.97" y2="-71.568"/>
	<circle fill="#CCCCCC" cx="19.303" cy="-70.198" r="4.304"/>
	
		<line fill="none" stroke="#DFDFDF" stroke-width="5" stroke-linecap="round" stroke-miterlimit="10" x1="29.304" y1="-71.568" x2="97.302" y2="-71.568"/>
</g>
<g>
	
		<line fill="none" stroke="#FFFFFF" stroke-width="15" stroke-linecap="round" stroke-miterlimit="10" x1="19.304" y1="-40.999" x2="122.636" y2="-40.999"/>
	<circle fill="#4C4C4C" cx="19.97" cy="-40.332" r="4.303"/>
	
		<line fill="none" stroke="#DFDFDF" stroke-width="5" stroke-linecap="round" stroke-miterlimit="10" x1="29.304" y1="-40.999" x2="119.302" y2="-40.999"/>
</g>
<path fill="#C6C6C6" d="M1154.55-178.522l-4.455-4.456c-0.288-0.432-0.864-0.432-1.295,0l-0.001,0.001l-1.642-1.642
	c2.734-3.353,2.542-8.375-0.657-11.44c-3.306-3.306-8.77-3.306-12.218,0c-3.307,3.306-3.307,8.769,0,12.218
	c3.104,3.103,8.085,3.254,11.541,0.532l1.655,1.655c-0.396,0.295-0.393,0.845,0.027,1.263l4.455,4.456
	c0.287,0.431,0.861,0.431,1.295,0l1.293-1.293C1154.98-177.516,1154.98-178.091,1154.55-178.522z M1136.151-185.709
	c-2.3-2.444-2.444-6.181,0-8.625c2.443-2.444,6.325-2.444,8.624,0c2.444,2.444,2.444,6.181,0,8.625
	C1142.332-183.265,1138.45-183.265,1136.151-185.709z"/>
<path fill="#4BBF53" d="M555.519,194.941l-5.87-5.871l-2.561,2.557l8.431,8.432l16.446-16.441l-2.561-2.558L555.519,194.941z"/>
<g>
	<path fill="#DDDDDD" d="M1540.375,226.09h-11.85l45.899-106.199h10.5l45.601,106.199h-12l-11.701-27.898h-54.898L1540.375,226.09z
		 M1555.975,188.291h46.801l-23.4-56.4L1555.975,188.291z"/>
	<path fill="#DDDDDD" d="M1689.774,180.656c0-6.054-1.601-10.57-4.8-13.549c-3.201-2.978-7.853-4.468-13.95-4.468
		c-4.2,0-8.101,0.75-11.7,2.25c-3.599,1.5-6.65,3.502-9.149,6l-5.699-6.75c2.897-2.898,6.725-5.299,11.475-7.199
		c4.748-1.898,10.125-2.852,16.125-2.852c3.799,0,7.351,0.525,10.65,1.576c3.3,1.049,6.199,2.625,8.699,4.725
		c2.499,2.101,4.448,4.75,5.851,7.949c1.399,3.202,2.101,6.952,2.101,11.25v30.75c0,2.701,0.099,5.502,0.3,8.4
		c0.198,2.901,0.5,5.352,0.899,7.35h-9.149c-0.3-1.699-0.552-3.548-0.75-5.549c-0.201-2-0.3-3.949-0.3-5.852h-0.301
		c-3.201,4.702-6.824,8.077-10.875,10.125c-4.05,2.049-8.925,3.075-14.625,3.075c-2.699,0-5.475-0.377-8.324-1.127
		c-2.851-0.753-5.452-1.979-7.801-3.688c-2.351-1.706-4.301-3.914-5.85-6.623c-1.552-2.709-2.325-6.021-2.325-9.935
		c0-5.418,1.374-9.707,4.125-12.866c2.749-3.158,6.425-5.518,11.024-7.072c4.6-1.558,9.875-2.562,15.825-3.012
		c5.947-0.451,12.123-0.679,18.524-0.679V180.656L1689.774,180.656z M1686.774,190.99c-4.2,0-8.426,0.176-12.675,0.524
		c-4.252,0.353-8.101,1.051-11.551,2.101c-3.449,1.051-6.275,2.576-8.476,4.575c-2.201,2.001-3.3,4.648-3.3,7.949
		c0,2.5,0.474,4.602,1.425,6.301c0.949,1.701,2.226,3.074,3.825,4.125c1.599,1.05,3.375,1.8,5.325,2.25
		c1.948,0.449,3.924,0.675,5.925,0.675c3.601,0,6.8-0.623,9.601-1.875c2.798-1.249,5.148-2.948,7.049-5.101
		c1.898-2.148,3.351-4.625,4.352-7.426c0.999-2.798,1.5-5.748,1.5-8.85v-5.25L1686.774,190.99L1686.774,190.99z"/>
</g>
<g>
	<g>
		
			<rect x="302.3" y="152.084" fill="#F8F8F8" stroke="#F8F8F8" stroke-width="1.5" stroke-linecap="round" stroke-linejoin="round" stroke-miterlimit="10" width="46" height="12"/>
		<g>
			<path fill="#C84D30" d="M344.937,159.979c-0.079,0-0.159-0.03-0.22-0.092l-3.274-3.274c-0.121-0.122-0.121-0.319,0-0.44
				c0.12-0.121,0.318-0.121,0.438,0.001l3.275,3.274c0.122,0.122,0.122,0.318,0,0.439
				C345.096,159.947,345.017,159.979,344.937,159.979z"/>
			<path fill="#C84D30" d="M341.661,159.979c-0.08,0-0.159-0.031-0.219-0.092c-0.123-0.121-0.123-0.318,0-0.439l3.274-3.275
				c0.122-0.121,0.318-0.121,0.439,0.001c0.122,0.121,0.122,0.318,0,0.439l-3.275,3.274
				C341.821,159.947,341.74,159.979,341.661,159.979z"/>
		</g>
	</g>
	<g>
		<rect x="378.997" y="128.442" fill="#FFFFFF" width="59.283" height="59.283"/>
		
			<rect x="378.997" y="160.59" fill="#FFFFFF" stroke="#EFEFEF" stroke-width="0.295" stroke-miterlimit="10" width="59.283" height="27.136"/>
		
			<line fill="none" stroke="#E8E8E8" stroke-width="1.7701" stroke-linecap="round" stroke-miterlimit="10" x1="384.943" y1="173.865" x2="416.472" y2="173.865"/>
		
			<line fill="none" stroke="#E8E8E8" stroke-width="1.7701" stroke-linecap="round" stroke-miterlimit="10" x1="384.734" y1="181.435" x2="414.597" y2="181.435"/>
		
			<line fill="none" stroke="#E8E8E8" stroke-width="1.7701" stroke-linecap="round" stroke-miterlimit="10" x1="384.734" y1="177.649" x2="422.882" y2="177.649"/>
		
			<line fill="none" stroke="#C6C6C6" stroke-width="1.7701" stroke-linecap="round" stroke-miterlimit="10" x1="384.734" y1="166.609" x2="408.76" y2="166.609"/>
		<rect x="379.093" y="128.443" fill="#B9DDEA" width="59.094" height="32.146"/>
		
			<line fill="none" stroke="#A3C3CC" stroke-width="0.59" stroke-miterlimit="10" x1="379.093" y1="128.443" x2="438.187" y2="160.59"/>
		
			<line fill="none" stroke="#A3C3CC" stroke-width="0.59" stroke-miterlimit="10" x1="379.093" y1="160.59" x2="438.187" y2="128.443"/>
	</g>
	<g>
		<rect x="212.318" y="128.442" fill="#FFFFFF" width="59.283" height="59.282"/>
		<g>
			<rect x="214.535" y="131.444" fill="#B9DDEA" width="54.85" height="53.279"/>
			
				<line fill="none" stroke="#A3C3CC" stroke-width="0.7318" stroke-miterlimit="10" x1="214.535" y1="131.444" x2="269.385" y2="184.724"/>
			
				<line fill="none" stroke="#A3C3CC" stroke-width="0.7318" stroke-miterlimit="10" x1="214.535" y1="184.724" x2="269.385" y2="131.444"/>
		</g>
	</g>
	<g>
		
			<rect x="131.702" y="136.115" fill="#007AC2" stroke="#007AB7" stroke-width="0.4595" stroke-miterlimit="10" width="29.235" height="11.293"/>
		
			<rect x="164.45" y="136.115" fill="none" stroke="#007AB7" stroke-width="0.4595" stroke-miterlimit="10" width="17.169" height="11.293"/>
		
			<rect x="131.702" y="152.409" fill="#C84D30" stroke="#C84D30" stroke-width="0.4595" stroke-miterlimit="10" width="19.096" height="11.292"/>
		<rect x="131.702" y="167.761" fill="#3EA349" width="49.917" height="11.292"/>
		
			<rect x="154.312" y="152.409" fill="none" stroke="#C84D30" stroke-width="0.4595" stroke-miterlimit="10" width="27.308" height="11.292"/>
	</g>
	<g>
		<rect x="41.72" y="128.442" fill="#FFFFFF" width="59.283" height="59.281"/>
		
			<line fill="none" stroke="#E8E8E8" stroke-width="2.9955" stroke-linecap="round" stroke-miterlimit="10" x1="47.178" y1="151.767" x2="94.815" y2="151.767"/>
		
			<line fill="none" stroke="#E8E8E8" stroke-width="2.3772" stroke-linecap="round" stroke-miterlimit="10" x1="46.862" y1="173.291" x2="83.161" y2="173.291"/>
		
			<line fill="none" stroke="#E8E8E8" stroke-width="2.9955" stroke-linecap="round" stroke-miterlimit="10" x1="46.862" y1="166.116" x2="91.981" y2="166.116"/>
		
			<line fill="none" stroke="#E8E8E8" stroke-width="2.5308" stroke-linecap="round" stroke-miterlimit="10" x1="46.862" y1="158.942" x2="88.007" y2="158.942"/>
		
			<line fill="none" stroke="#C6C6C6" stroke-width="2.9955" stroke-linecap="round" stroke-miterlimit="10" x1="46.862" y1="138.015" x2="83.161" y2="138.015"/>
	</g>
</g>
</svg>
