<svg xmlns="http://www.w3.org/2000/svg" width="480" height="320" viewBox="0 0 480 320"><path fill="#0071AB" d="M0-1h480v321H0z"/><path fill="none" d="M49.5 130h263v190h-263z"/><g fill="#B9DDEA"><path d="M133.936 233.75c-1.452 2.178-3.206 4.235-5.262 6.176-2.056 1.938-4.436 3.647-7.137 5.122-2.703 1.474-5.686 2.641-8.952 3.502-3.267.857-6.835 1.289-10.706 1.289-6.453 0-12.42-1.13-17.903-3.387-5.485-2.257-10.202-5.383-14.153-9.375-3.952-3.992-7.037-8.729-9.254-14.214-2.219-5.483-3.326-11.492-3.326-18.024s1.128-12.539 3.387-18.024c2.257-5.482 5.383-10.222 9.375-14.214 3.992-3.991 8.71-7.116 14.153-9.374 5.443-2.257 11.35-3.388 17.722-3.388 3.146 0 6.23.329 9.254.982 3.024.656 5.867 1.579 8.528 2.766 2.661 1.189 5.081 2.616 7.258 4.279 2.177 1.665 3.992 3.546 5.443 5.642l-7.258 5.323c-.888-1.37-2.077-2.741-3.568-4.113-1.494-1.37-3.248-2.58-5.262-3.629-2.017-1.047-4.215-1.894-6.593-2.54-2.38-.645-4.941-.968-7.682-.968-5.564 0-10.545 1.006-14.939 3.015-4.396 2.011-8.125 4.724-11.189 8.139-3.066 3.418-5.404 7.376-7.016 11.878-1.614 4.502-2.419 9.244-2.419 14.227 0 4.984.826 9.727 2.48 14.229 1.652 4.503 4.011 8.461 7.076 11.876 3.064 3.417 6.793 6.13 11.19 8.139 4.395 2.012 9.333 3.015 14.818 3.015 4.918 0 9.596-1.007 14.033-3.024 4.434-2.015 8.145-5.241 11.128-9.677l6.774 4.352zM190.426 175.807c-1.856-2.58-4.234-4.657-7.137-6.229-2.903-1.573-6.411-2.359-10.524-2.359-2.098 0-4.234.323-6.411.968a18.594 18.594 0 0 0-5.928 2.964c-1.775 1.33-3.206 3.006-4.294 5.021-1.088 2.017-1.633 4.396-1.633 7.137 0 2.743.521 5.001 1.567 6.774 1.045 1.774 2.433 3.287 4.162 4.536 1.729 1.251 3.701 2.28 5.912 3.085 2.211.807 4.523 1.613 6.937 2.419a218.28 218.28 0 0 1 8.985 3.146c3.017 1.131 5.731 2.601 8.145 4.415 2.412 1.814 4.383 4.112 5.91 6.896 1.528 2.782 2.293 6.312 2.293 10.585 0 4.274-.816 7.965-2.445 11.068-1.632 3.104-3.749 5.666-6.351 7.681-2.605 2.017-5.58 3.508-8.925 4.477a36.198 36.198 0 0 1-10.101 1.451c-2.582 0-5.162-.263-7.742-.786a35.109 35.109 0 0 1-7.379-2.359 29.996 29.996 0 0 1-6.532-3.991 28.92 28.92 0 0 1-5.323-5.564l7.5-5.565c1.854 3.066 4.455 5.626 7.803 7.682 3.345 2.057 7.277 3.085 11.794 3.085 2.178 0 4.395-.342 6.653-1.028a18.682 18.682 0 0 0 6.109-3.145c1.814-1.41 3.306-3.146 4.476-5.202 1.168-2.057 1.754-4.454 1.754-7.197 0-2.983-.586-5.462-1.754-7.439-1.17-1.976-2.722-3.629-4.658-4.96s-4.154-2.438-6.653-3.326a307.207 307.207 0 0 0-7.863-2.662 102.005 102.005 0 0 1-8.347-3.024c-2.743-1.128-5.202-2.6-7.379-4.415-2.177-1.813-3.932-4.053-5.262-6.713-1.331-2.661-1.996-5.928-1.996-9.799 0-4.113.826-7.661 2.48-10.646 1.652-2.982 3.811-5.443 6.472-7.379a27.12 27.12 0 0 1 8.83-4.234c3.225-.886 6.412-1.33 9.557-1.33 5.807 0 10.766 1.028 14.879 3.085 4.113 2.056 7.216 4.496 9.314 7.318l-6.895 5.559zM258.651 175.807c-1.856-2.58-4.234-4.657-7.138-6.229-2.902-1.573-6.41-2.359-10.523-2.359-2.098 0-4.234.323-6.411.968a18.583 18.583 0 0 0-5.928 2.964c-1.774 1.33-3.206 3.006-4.295 5.021-1.089 2.017-1.633 4.396-1.633 7.137 0 2.743.521 5.001 1.567 6.774 1.045 1.774 2.432 3.287 4.161 4.536 1.73 1.251 3.701 2.28 5.913 3.085 2.212.807 4.522 1.613 6.937 2.419a217.76 217.76 0 0 1 8.985 3.146c3.018 1.131 5.731 2.601 8.145 4.415 2.412 1.814 4.384 4.112 5.911 6.896 1.526 2.782 2.292 6.312 2.292 10.585 0 4.274-.816 7.965-2.446 11.068-1.631 3.104-3.747 5.666-6.35 7.681-2.605 2.017-5.58 3.508-8.926 4.477a36.193 36.193 0 0 1-10.101 1.451c-2.582 0-5.162-.263-7.742-.786a35.109 35.109 0 0 1-7.379-2.359 29.996 29.996 0 0 1-6.532-3.991 28.885 28.885 0 0 1-5.322-5.564l7.5-5.565c1.854 3.066 4.455 5.626 7.803 7.682 3.345 2.057 7.276 3.085 11.794 3.085 2.178 0 4.395-.342 6.653-1.028a18.667 18.667 0 0 0 6.108-3.145c1.814-1.41 3.306-3.146 4.476-5.202 1.169-2.057 1.754-4.454 1.754-7.197 0-2.983-.585-5.462-1.754-7.439a15.629 15.629 0 0 0-4.657-4.96c-1.935-1.331-4.154-2.438-6.652-3.326a307.207 307.207 0 0 0-7.863-2.662 102.14 102.14 0 0 1-8.347-3.024c-2.743-1.128-5.202-2.6-7.379-4.415-2.178-1.813-3.932-4.053-5.263-6.713-1.33-2.661-1.996-5.928-1.996-9.799 0-4.113.827-7.661 2.48-10.646 1.651-2.982 3.81-5.443 6.472-7.379a27.12 27.12 0 0 1 8.83-4.234c3.225-.886 6.411-1.33 9.557-1.33 5.807 0 10.766 1.028 14.879 3.085 4.113 2.056 7.217 4.496 9.314 7.318l-6.894 5.559z"/></g></svg>