<svg xmlns="http://www.w3.org/2000/svg" xmlns:xlink="http://www.w3.org/1999/xlink" width="480" height="320" viewBox="0 0 480 320"><path fill="#EFEFEF" d="M0-1h480v321H0z"/><path fill="#FFF" stroke="#EFEFEF" stroke-width=".295" stroke-miterlimit="10" d="M182.541 167.471h90.23v105.904h-90.23zM274.572 167.471h93.678v105.904h-93.678zM370.604 167.471h89.645v105.904h-89.645z"/><path fill="none" stroke="#FFF" stroke-width="15" stroke-linecap="round" stroke-miterlimit="10" d="M928.388 99.765h57.333"/><circle fill="#C84D30" cx="928.688" cy="99.766" r="4.302"/><path fill="none" stroke="#DFDFDF" stroke-width="5" stroke-linecap="round" stroke-miterlimit="10" d="M938.388 99.765h45.403"/><path fill="none" stroke="#FFF" stroke-width="15" stroke-linecap="round" stroke-miterlimit="10" d="M1116.387 99.765h87.332"/><circle fill="#007AC2" cx="1116.688" cy="99.766" r="4.303"/><path fill="none" stroke="#DFDFDF" stroke-width="5" stroke-linecap="round" stroke-miterlimit="10" d="M1126.387 99.765h75.404"/><path fill="none" stroke="#FFF" stroke-width="15" stroke-linecap="round" stroke-miterlimit="10" d="M928.388 129.367h89.333"/><circle fill="#E99141" cx="928.084" cy="129.633" r="4.303"/><path fill="none" stroke="#DFDFDF" stroke-width="5" stroke-linecap="round" stroke-miterlimit="10" d="M938.388 129.367h79.333"/><path fill="none" stroke="#FFF" stroke-width="15" stroke-linecap="round" stroke-miterlimit="10" d="M1116.387 129.633h79.332"/><circle fill="#00B1DC" cx="1116.082" cy="129.633" r="4.303"/><path fill="none" stroke="#DFDFDF" stroke-width="5" stroke-linecap="round" stroke-miterlimit="10" d="M1126.387 129.633h69.332"/><path fill="none" stroke="#FFF" stroke-width="15" stroke-linecap="round" stroke-miterlimit="10" d="M928.388 159.633h39.999"/><circle fill="#FEE864" cx="929.053" cy="159.5" r="4.302"/><path fill="none" stroke="#DFDFDF" stroke-width="5" stroke-linecap="round" stroke-miterlimit="10" d="M938.388 159.633h29.999"/><path fill="none" stroke="#FFF" stroke-width="15" stroke-linecap="round" stroke-miterlimit="10" d="M1116.387 159.633h100"/><circle fill="#B9DDEA" cx="1117.051" cy="159.5" r="4.302"/><path fill="none" stroke="#DFDFDF" stroke-width="5" stroke-linecap="round" stroke-miterlimit="10" d="M1126.387 159.633h90"/><path fill="none" stroke="#FFF" stroke-width="15" stroke-linecap="round" stroke-miterlimit="10" d="M928.388 189.231h79.999"/><circle fill="#CCDE91" cx="929.053" cy="189.364" r="4.302"/><path fill="none" stroke="#DFDFDF" stroke-width="5" stroke-linecap="round" stroke-miterlimit="10" d="M938.388 189.231h67.332"/><path fill="none" stroke="#FFF" stroke-width="15" stroke-linecap="round" stroke-miterlimit="10" d="M1116.387 189.231h60"/><circle fill="#EFEFEF" cx="1117.051" cy="189.364" r="4.302"/><path fill="none" stroke="#DFDFDF" stroke-width="5" stroke-linecap="round" stroke-miterlimit="10" d="M1126.387 189.231h47.332"/><path fill="none" stroke="#FFF" stroke-width="15" stroke-linecap="round" stroke-miterlimit="10" d="M928.388 217.863h100.666"/><circle fill="#A3C855" cx="928.387" cy="219.232" r="4.303"/><path fill="none" stroke="#DFDFDF" stroke-width="5" stroke-linecap="round" stroke-miterlimit="10" d="M938.388 217.863h87.999"/><path fill="none" stroke="#FFF" stroke-width="15" stroke-linecap="round" stroke-miterlimit="10" d="M1116.387 217.863h80.666"/><circle fill="#CCC" cx="1116.385" cy="219.233" r="4.304"/><path fill="none" stroke="#DFDFDF" stroke-width="5" stroke-linecap="round" stroke-miterlimit="10" d="M1126.387 217.863h67.998"/><path fill="none" stroke="#FFF" stroke-width="15" stroke-linecap="round" stroke-miterlimit="10" d="M928.388 248.432h73.333"/><circle fill="#3EA349" cx="929.053" cy="249.099" r="4.303"/><path fill="none" stroke="#DFDFDF" stroke-width="5" stroke-linecap="round" stroke-miterlimit="10" d="M938.388 248.432h59.999"/><path fill="none" stroke="#FFF" stroke-width="15" stroke-linecap="round" stroke-miterlimit="10" d="M1116.387 248.432h103.332"/><circle fill="#4C4C4C" cx="1117.053" cy="249.099" r="4.303"/><path fill="none" stroke="#DFDFDF" stroke-width="5" stroke-linecap="round" stroke-miterlimit="10" d="M1126.387 248.432h89.998"/><image overflow="visible" width="2762" height="1330" xlink:href="../../../../../../../../Desktop/Screen Shot 2016-07-20 at 2.23.07 PM.png" transform="matrix(.5 0 0 .5 -764.045 -724.506)"/><path fill="#FFF" d="M-1502.475 174.433h150.442v150.441h-150.442zM-1342.599 174.433h150.444v150.441h-150.444zM-1342.599 331.771h311.265V639.68h-311.265zM-1021.153 331.771h311.262v150.444h-311.262zM-1342.599 647.715h473.58v150.444h-473.58zM-1182.689 174.433h150.443v150.441h-150.443zM-1021.999 489.955h150.442v150.439h-150.442zM-859.552 489.955h150.442v308.204h-150.442zM-1502.475 489.955h150.444v308.204h-150.444zM-1022.779 174.433h150.439v150.441h-150.439zM-862.873 174.433h150.444v150.441h-150.444z"/><path fill="#F8F8F8" d="M-1022.365 174.911h149.609v25.233h-149.609z"/><path fill="#EFEFEF" d="M-872.34 200.615h-150.439v-26.183h150.439v26.183zm-149.611-.946h148.783v-24.282h-148.783v24.282z"/><path fill="#FFF" d="M-1022.365 199.669h149.609v25.229h-149.609z"/><path fill="#EFEFEF" d="M-872.34 225.375h-150.439v-26.183h150.439v26.183zm-149.611-.954h148.783v-24.276h-148.783v24.276z"/><path fill="#FFF" d="M-1022.365 224.543h149.609v25.23h-149.609z"/><path fill="#EFEFEF" d="M-872.34 250.249h-150.439v-26.185h150.439v26.185zm-149.611-.951h148.783v-24.277h-148.783v24.277z"/><path fill="#FFF" d="M-1022.365 249.417h149.609v25.233h-149.609z"/><path fill="#EFEFEF" d="M-872.34 275.126h-150.439v-26.185h150.439v26.185zm-149.611-.951h148.783v-24.282h-148.783v24.282z"/><path fill="#FFF" d="M-1022.365 274.293h149.609v25.231h-149.609z"/><path fill="#EFEFEF" d="M-872.34 299.998h-150.439v-26.181h150.439v26.181zm-149.611-.952h148.783v-24.279h-148.783v24.279z"/><path fill="#FFF" d="M-1022.365 299.165h149.609v25.233h-149.609z"/><path fill="#EFEFEF" d="M-872.34 324.877h-150.439v-26.183h150.439v26.183zm-149.611-.954h148.783v-24.282h-148.783v24.282z"/><path fill="#E8E8E8" d="M-929.929 215.376h-83.348c-1.368 0-2.474-1.274-2.474-2.855 0-1.576 1.105-2.854 2.474-2.854h83.348c1.371 0 2.483 1.278 2.483 2.854 0 1.581-1.113 2.855-2.483 2.855zM-919.456 315.99h-93.821c-1.368 0-2.476-1.281-2.476-2.855 0-1.578 1.107-2.857 2.476-2.857h93.821c1.37 0 2.483 1.279 2.483 2.857 0 1.574-1.113 2.855-2.483 2.855zM-912.428 290.836h-100.845c-1.371 0-2.479-1.279-2.479-2.855 0-1.578 1.108-2.854 2.479-2.854h100.845c1.373 0 2.483 1.276 2.483 2.854-.002 1.576-1.11 2.855-2.483 2.855zM-934.336 265.682h-78.937c-1.371 0-2.479-1.279-2.479-2.857 0-1.576 1.108-2.855 2.479-2.855h78.937c1.371 0 2.483 1.279 2.483 2.855-.004 1.58-1.112 2.857-2.483 2.857zM-912.428 240.53h-100.845c-1.371 0-2.479-1.279-2.479-2.855s1.108-2.857 2.479-2.857h100.845c1.373 0 2.483 1.281 2.483 2.857-.002 1.574-1.11 2.855-2.483 2.855z"/><path fill="#C6C6C6" d="M-949.765 190.938h-63.507c-1.371 0-2.479-1.278-2.479-2.854 0-1.579 1.108-2.857 2.479-2.857h63.507c1.373 0 2.483 1.278 2.483 2.857-.002 1.572-1.11 2.854-2.483 2.854z"/><path fill="#FFF" d="M-859.552 489.955h150.439v150.444h-150.439z"/><path fill="#F8F8F8" d="M25.509 195.431h435.946v19.673H25.509z"/><path fill="#EFEFEF" d="M462.662 215.473H24.311v-20.411h438.351v20.411zm-435.941-.74h433.527v-18.929H26.721v18.929z"/><path fill="#FFF" d="M25.509 214.733h435.946v19.671H25.509z"/><path fill="#EFEFEF" d="M462.662 234.771H24.311v-20.412h438.351v20.412zm-435.941-.741h433.527v-18.927H26.721v18.927z"/><path fill="#F8F8F8" d="M25.509 234.034h435.946v19.673H25.509z"/><path fill="#EFEFEF" d="M462.662 254.076H24.311v-20.411h438.351v20.411zm-435.941-.739h433.527v-18.929H26.721v18.929z"/><path fill="#FFF" d="M25.509 253.337h435.946v19.671H25.509z"/><path fill="#EFEFEF" d="M462.662 273.375H24.311v-20.412h438.351v20.412zm-435.941-.741h433.527v-18.927H26.721v18.927z"/><path fill="#FFF" d="M-859.552 640.32h150.439v150.443h-150.439z"/><path fill="#F8F8F8" d="M-859.136 648.414h149.611v25.233h-149.611z"/><path fill="#EFEFEF" d="M-709.11 674.123h-150.437v-26.186h150.437v26.186zm-149.61-.951h148.781V648.89H-858.72v24.282z"/><path fill="#FFF" d="M-859.136 673.172h149.611v25.233h-149.611z"/><path fill="#EFEFEF" d="M-709.11 698.881h-150.437v-26.186h150.437v26.186zm-149.61-.957h148.781v-24.276H-858.72v24.276z"/><path fill="#FFF" d="M-859.136 698.043h149.611v25.233h-149.611z"/><path fill="#EFEFEF" d="M-709.11 723.752h-150.437v-26.18h150.437v26.18zm-149.61-.951h148.781v-24.277H-858.72v24.277z"/><path fill="#FFF" d="M-859.136 722.92h149.611v25.229h-149.611z"/><path fill="#EFEFEF" d="M-709.11 748.629h-150.437v-26.186h150.437v26.186zm-149.61-.951h148.781v-24.282H-858.72v24.282z"/><path fill="#FFF" d="M-859.136 747.796h149.611v25.229h-149.611z"/><path fill="#EFEFEF" d="M-709.11 773.506h-150.437V747.32h150.437v26.186zm-149.61-.952h148.781v-24.281H-858.72v24.281z"/><path fill="#FFF" d="M-859.136 772.673h149.611v25.233h-149.611z"/><path fill="#EFEFEF" d="M-709.11 798.382h-150.437v-26.185h150.437v26.185zm-149.61-.956h148.781v-24.277H-858.72v24.277z"/><path fill="#E8E8E8" d="M-766.702 688.884h-83.344c-1.373 0-2.478-1.279-2.478-2.86 0-1.576 1.105-2.854 2.478-2.854h83.344c1.373 0 2.483 1.278 2.483 2.854 0 1.58-1.11 2.86-2.483 2.86zM-756.229 789.495h-93.816c-1.373 0-2.478-1.284-2.478-2.86s1.105-2.854 2.478-2.854h93.816c1.373 0 2.483 1.278 2.483 2.854s-1.11 2.86-2.483 2.86zM-749.198 764.336h-100.848c-1.368 0-2.476-1.278-2.476-2.854 0-1.581 1.108-2.855 2.476-2.855h100.848c1.37 0 2.48 1.274 2.48 2.855s-1.11 2.854-2.48 2.854zM-771.106 739.182h-78.939c-1.368 0-2.476-1.278-2.476-2.854s1.108-2.855 2.476-2.855h78.939c1.371 0 2.481 1.279 2.481 2.855s-1.11 2.854-2.481 2.854zM-749.198 714.032h-100.848c-1.368 0-2.476-1.283-2.476-2.859 0-1.571 1.108-2.855 2.476-2.855h100.848c1.37 0 2.48 1.284 2.48 2.855 0 1.576-1.11 2.859-2.48 2.859z"/><path fill="#C6C6C6" d="M-786.536 664.443h-63.51c-1.368 0-2.476-1.284-2.476-2.855 0-1.581 1.108-2.864 2.476-2.864h63.51c1.371 0 2.481 1.283 2.481 2.864 0 1.571-1.11 2.855-2.481 2.855z"/><path fill="#FFF" stroke="#EFEFEF" stroke-width=".365" stroke-miterlimit="10" d="M-869.019 669.91v128.254h-473.58V669.91M-1225.167 669.647v-20.723h120.591v20.723"/><path fill="none" stroke="#E8E8E8" stroke-width="2.19" stroke-linecap="round" stroke-miterlimit="10" d="M-1213.096 659.481h85.106"/><path fill="#F8F8F8" stroke="#EFEFEF" stroke-width=".365" stroke-miterlimit="10" d="M-1342.599 648.924h118.101v20.724h-118.101z"/><path fill="none" stroke="#D3D3D3" stroke-width="2.19" stroke-linecap="round" stroke-miterlimit="10" d="M-1330.526 659.739h59.864"/><path fill="#F8F8F8" stroke="#EFEFEF" stroke-width=".365" stroke-miterlimit="10" d="M-1104.809 648.924h118.098v20.724h-118.098z"/><path fill="none" stroke="#D3D3D3" stroke-width="2.19" stroke-linecap="round" stroke-miterlimit="10" d="M-1092.737 659.739h59.862"/><path fill="#F8F8F8" stroke="#EFEFEF" stroke-width=".365" stroke-miterlimit="10" d="M-987.117 648.924h118.098v20.724h-118.098z"/><path fill="none" stroke="#D3D3D3" stroke-width="2.19" stroke-linecap="round" stroke-miterlimit="10" d="M-974.21 659.739h59.864"/><path fill="#FFF" stroke="#EFEFEF" stroke-width=".295" stroke-miterlimit="10" d="M181.541 46.5h90.23v105.904h-90.23z"/><path fill="none" stroke="#E8E8E8" stroke-width="2.19" stroke-linecap="round" stroke-miterlimit="10" d="M-1204.538 707.445h186.85M-1205.775 749.992h210.326M-1205.775 739.355H-979.7M-1205.775 728.714h176.969M-1205.775 760.624h176.969M-1205.775 718.082H-979.7"/><path fill="none" stroke="#E8E8E8" stroke-width="1.77" stroke-linecap="round" stroke-miterlimit="10" d="M202.663 80.19h47.987M203.931 99.404h45.45M197.625 89.795h58.063"/><path fill="none" stroke="#C6C6C6" stroke-width="1.77" stroke-linecap="round" stroke-miterlimit="10" d="M208.372 61.776h36.567"/><path fill="#4BBF53" d="M-1273.739 262.953l-14.899-14.899-6.497 6.488 21.394 21.399 41.737-41.727-6.499-6.49-35.236 35.229z"/><path fill="#C6C6C6" d="M-1473.093 191.59h-17.845c-.818 0-1.488-.67-1.488-1.482 0-.822.67-1.487 1.488-1.487h17.845c.817 0 1.484.67 1.484 1.487a1.486 1.486 0 0 1-1.484 1.482zm0 7.434h-17.845a1.492 1.492 0 0 1-1.488-1.487c0-.815.67-1.486 1.488-1.486h17.845a1.487 1.487 0 0 1 0 2.973zm0 7.437h-17.845a1.493 1.493 0 0 1-1.488-1.486c0-.818.67-1.484 1.488-1.484h17.845c.817 0 1.484.669 1.484 1.484a1.488 1.488 0 0 1-1.484 1.486z"/><path fill="#F8F8F8" stroke="#F8F8F8" stroke-width="1.5" stroke-linecap="round" stroke-linejoin="round" stroke-miterlimit="10" d="M-1165.483 196.083h116.735v30.452h-116.735z"/><g fill="#C84D30"><path d="M-1057.281 216.114a.78.78 0 0 1-.56-.23l-8.307-8.31a.794.794 0 0 1 0-1.118.779.779 0 0 1 1.11 0l8.312 8.31a.79.79 0 0 1-.555 1.348z"/><path d="M-1065.593 216.114a.785.785 0 0 1-.555-.23.779.779 0 0 1 0-1.113l8.307-8.312a.785.785 0 0 1 1.115 0 .79.79 0 0 1 0 1.115l-8.312 8.31a.786.786 0 0 1-.555.23z"/></g><path fill="#F8F8F8" stroke="#F8F8F8" stroke-width="1.5" stroke-linecap="round" stroke-linejoin="round" stroke-miterlimit="10" d="M-1165.483 234.592h116.735v30.453h-116.735z"/><g fill="#C84D30"><path d="M-1056.736 255.275a.88.88 0 0 1-.634-.266l-9.397-9.402a.894.894 0 0 1 0-1.261.883.883 0 0 1 1.261 0l9.4 9.402a.885.885 0 0 1 0 1.261.872.872 0 0 1-.63.266z"/><path d="M-1066.139 255.275a.87.87 0 0 1-.629-.266.883.883 0 0 1 0-1.261l9.397-9.402a.887.887 0 0 1 1.264 0 .885.885 0 0 1 0 1.261l-9.4 9.402a.878.878 0 0 1-.632.266z"/></g><path fill="#F8F8F8" stroke="#F8F8F8" stroke-width="1.5" stroke-linecap="round" stroke-linejoin="round" stroke-miterlimit="10" d="M-1165.483 273.071h116.735v30.453h-116.735z"/><g fill="#C84D30"><path d="M-1057.281 293.104a.78.78 0 0 1-.56-.23l-8.312-8.31a.803.803 0 0 1 0-1.118.785.785 0 0 1 1.115 0l8.312 8.31a.79.79 0 0 1-.555 1.348z"/><path d="M-1065.593 293.104a.788.788 0 0 1-.56-1.343l8.312-8.312a.785.785 0 0 1 1.115 0 .79.79 0 0 1 0 1.115l-8.312 8.31a.79.79 0 0 1-.555.23z"/></g><path fill="#B9DDEA" d="M-1016.37 497.573h139.19v135.208h-139.19z"/><path fill="none" stroke="#A3C3CC" stroke-width=".732" stroke-miterlimit="10" d="M-1016.37 497.573l139.187 135.208M-1016.37 632.781l139.187-135.208"/><path fill="#B9DDEA" d="M-1278.274 695.733c21.607 0 39.124 17.521 39.124 39.126 0 21.605-17.517 39.122-39.124 39.122-21.608 0-39.124-17.517-39.124-39.122 0-21.604 17.515-39.126 39.124-39.126z"/><path fill="none" stroke="#A3C3CC" stroke-width=".571" stroke-miterlimit="10" d="M-1305.832 707.302l55.114 55.116M-1305.832 762.418l55.114-55.116"/><g><path fill="none" stroke="#FFF" stroke-width="4.846" stroke-linecap="round" stroke-miterlimit="10" d="M-1483.307 509.275h47.003"/><circle fill="#C84D30" cx="-1483.061" cy="509.278" r="3.527"/><path fill="none" stroke="#DFDFDF" stroke-width="1.615" stroke-linecap="round" stroke-miterlimit="10" d="M-1475.107 509.275h37.225"/></g><g><path fill="none" stroke="#FFF" stroke-width="4.846" stroke-linecap="round" stroke-miterlimit="10" d="M-1483.307 533.547h73.241"/><circle fill="#E99141" cx="-1483.556" cy="533.765" r="3.529"/><path fill="none" stroke="#DFDFDF" stroke-width="1.615" stroke-linecap="round" stroke-miterlimit="10" d="M-1475.107 533.547h65.041"/></g><g><path fill="none" stroke="#FFF" stroke-width="4.846" stroke-linecap="round" stroke-miterlimit="10" d="M-1483.307 558.359h32.794"/><circle fill="#FEE864" cx="-1482.762" cy="558.253" r="3.526"/><path fill="none" stroke="#DFDFDF" stroke-width="1.615" stroke-linecap="round" stroke-miterlimit="10" d="M-1475.107 558.359h24.594"/></g><g><path fill="none" stroke="#FFF" stroke-width="4.846" stroke-linecap="round" stroke-miterlimit="10" d="M-1483.307 582.626h65.59"/><circle fill="#CCDE91" cx="-1482.762" cy="582.735" r="3.529"/><path fill="none" stroke="#DFDFDF" stroke-width="1.615" stroke-linecap="round" stroke-miterlimit="10" d="M-1475.107 582.626h55.202"/></g><g><path fill="none" stroke="#FFF" stroke-width="4.846" stroke-linecap="round" stroke-miterlimit="10" d="M-1483.307 606.101h82.532"/><circle fill="#A3C855" cx="-1483.307" cy="607.223" r="3.526"/><path fill="none" stroke="#DFDFDF" stroke-width="1.615" stroke-linecap="round" stroke-miterlimit="10" d="M-1475.107 606.101h72.147"/></g><g><path fill="none" stroke="#FFF" stroke-width="4.846" stroke-linecap="round" stroke-miterlimit="10" d="M-1483.307 631.165h60.123"/><circle fill="#3EA349" cx="-1482.762" cy="631.713" r="3.526"/><path fill="none" stroke="#DFDFDF" stroke-width="1.615" stroke-linecap="round" stroke-miterlimit="10" d="M-1475.107 631.165h49.19"/></g><g><path fill="none" stroke="#FFF" stroke-width="4.846" stroke-linecap="round" stroke-miterlimit="10" d="M-1485.065 234.27h60.123"/><circle fill="#3EA349" cx="-1484.521" cy="234.817" r="3.526"/><path fill="none" stroke="#DFDFDF" stroke-width="1.615" stroke-linecap="round" stroke-miterlimit="10" d="M-1476.866 234.27h49.19"/></g><g><path fill="none" stroke="#FFF" stroke-width="4.846" stroke-linecap="round" stroke-miterlimit="10" d="M-1485.065 249.704h60.123"/><circle fill="#3EA349" cx="-1484.521" cy="250.25" r="3.529"/><path fill="none" stroke="#DFDFDF" stroke-width="1.615" stroke-linecap="round" stroke-miterlimit="10" d="M-1476.866 249.704h49.19"/></g><g><path fill="none" stroke="#FFF" stroke-width="4.846" stroke-linecap="round" stroke-miterlimit="10" d="M-1485.065 265.137h60.123"/><circle fill="#3EA349" cx="-1484.521" cy="265.684" r="3.529"/><path fill="none" stroke="#DFDFDF" stroke-width="1.615" stroke-linecap="round" stroke-miterlimit="10" d="M-1476.866 265.137h49.19"/></g><g><path fill="none" stroke="#FFF" stroke-width="4.846" stroke-linecap="round" stroke-miterlimit="10" d="M-1483.307 654.108h47.003"/><circle fill="#C84D30" cx="-1483.061" cy="654.111" r="3.526"/><path fill="none" stroke="#DFDFDF" stroke-width="1.615" stroke-linecap="round" stroke-miterlimit="10" d="M-1475.107 654.108h37.225"/></g><g><path fill="none" stroke="#FFF" stroke-width="4.846" stroke-linecap="round" stroke-miterlimit="10" d="M-1483.307 678.376h73.241"/><circle fill="#E99141" cx="-1483.556" cy="678.599" r="3.529"/><path fill="none" stroke="#DFDFDF" stroke-width="1.615" stroke-linecap="round" stroke-miterlimit="10" d="M-1475.107 678.376h65.041"/></g><g><path fill="none" stroke="#FFF" stroke-width="4.846" stroke-linecap="round" stroke-miterlimit="10" d="M-1483.307 703.192h32.794"/><circle fill="#FEE864" cx="-1482.762" cy="703.086" r="3.527"/><path fill="none" stroke="#DFDFDF" stroke-width="1.615" stroke-linecap="round" stroke-miterlimit="10" d="M-1475.107 703.192h24.594"/></g><g><path fill="none" stroke="#FFF" stroke-width="4.846" stroke-linecap="round" stroke-miterlimit="10" d="M-1483.307 727.46h65.59"/><circle fill="#CCDE91" cx="-1482.762" cy="727.569" r="3.529"/><path fill="none" stroke="#DFDFDF" stroke-width="1.615" stroke-linecap="round" stroke-miterlimit="10" d="M-1475.107 727.46h55.202"/></g><g><path fill="none" stroke="#FFF" stroke-width="4.846" stroke-linecap="round" stroke-miterlimit="10" d="M-1483.307 750.934h82.532"/><circle fill="#A3C855" cx="-1483.307" cy="752.059" r="3.529"/><path fill="none" stroke="#DFDFDF" stroke-width="1.615" stroke-linecap="round" stroke-miterlimit="10" d="M-1475.107 750.934h72.147"/></g><g><path fill="none" stroke="#FFF" stroke-width="4.846" stroke-linecap="round" stroke-miterlimit="10" d="M-1483.307 775.999h60.123"/><circle fill="#3EA349" cx="-1482.762" cy="776.544" r="3.529"/><path fill="none" stroke="#DFDFDF" stroke-width="1.615" stroke-linecap="round" stroke-miterlimit="10" d="M-1475.107 775.999h49.19"/></g><path fill="#FFF" stroke="#EFEFEF" stroke-width=".499" stroke-miterlimit="10" d="M-1342.596 331.771h311.262V639.68h-311.262z"/><path fill="#007AC2" stroke="#007AB7" stroke-width=".499" stroke-miterlimit="10" d="M-1191.748 580.653h52.652v31.142h-52.652z"/><path fill="none" stroke="#007AB7" stroke-width=".499" stroke-miterlimit="10" d="M-1129.407 580.653h75.292v31.142h-75.292z"/><path fill="#007AC2" stroke="#007AB7" stroke-width=".271" stroke-miterlimit="10" d="M-1439.602 295.086h28.539v16.877h-28.539z"/><path fill="none" stroke="#007AB7" stroke-width=".271" stroke-miterlimit="10" d="M-1405.812 295.086H-1365v16.877h-40.812z"/><path fill="none" stroke="#E8E8E8" stroke-width="2.995" stroke-linecap="round" stroke-miterlimit="10" d="M-1308.826 404.825h120.892M-1305.628 546.29h92.956M-1309.628 477.653h136.083M-1309.628 459.448h146.274M-1309.628 441.242h114.5M-1309.628 495.863h114.5M-1309.628 423.032h146.274"/><path fill="none" stroke="#C6C6C6" stroke-width="2.995" stroke-linecap="round" stroke-miterlimit="10" d="M-1309.628 369.926h92.118"/><path fill="none" stroke="#CCC" stroke-width="2" stroke-linecap="round" stroke-miterlimit="10" d="M24.311 102.339h120.892M23.511 138.755h114.5"/><path fill="none" stroke="#CCC" stroke-width="4" stroke-linecap="round" stroke-miterlimit="10" d="M192.132 185.062h68.311"/><path fill="none" stroke="#D3D3D3" stroke-width="2" stroke-linecap="round" stroke-miterlimit="10" d="M35.414 205.268H93.5M35.414 224.565h68.311M35.414 243.871H108.5M35.414 263.169h53.753"/><path fill="none" stroke="#CCC" stroke-width="4" stroke-linecap="round" stroke-miterlimit="10" d="M287.532 185.062h68.312M381.27 185.062h68.311"/><path fill="none" stroke="#CCC" stroke-width="2" stroke-linecap="round" stroke-miterlimit="10" d="M23.511 120.547h104.413"/><path fill="none" stroke="#939393" stroke-width="2" stroke-linecap="round" stroke-miterlimit="10" d="M23.511 67.44h92.116"/><path fill="none" stroke="#007AC2" stroke-width="2" stroke-linecap="round" stroke-miterlimit="10" d="M29.66 181.166h92.116"/><g fill="#007AC2"><path d="M-1057.631 378.729c-.471 0-.934-.176-1.291-.535L-1078.118 359a1.812 1.812 0 0 1 0-2.572 1.818 1.818 0 0 1 2.577 0l19.196 19.191a1.823 1.823 0 0 1-1.286 3.11z"/><path d="M-1076.83 378.727c-.471 0-.932-.179-1.289-.533a1.814 1.814 0 0 1 0-2.574l19.194-19.191a1.816 1.816 0 0 1 2.575 0 1.817 1.817 0 0 1 0 2.572l-19.196 19.193c-.351.354-.82.533-1.284.533z"/></g><circle fill="#00B1DC" cx="-940.905" cy="410.281" r="49.838"/><path fill="#B9DDEA" stroke="#FFF" stroke-width="3.041" stroke-miterlimit="10" d="M-940.905 410.279h48.149c0-26.592-21.556-48.147-48.149-48.147-26.594 0-48.147 21.559-48.147 48.147 0 26.592 21.553 48.15 48.147 48.15a47.94 47.94 0 0 0 21.977-5.312l-21.977-42.838z"/><path fill="#4BBF53" stroke="#FFF" stroke-miterlimit="10" d="M-938.368 410.279h56.596c0-31.253-25.337-56.593-56.596-56.593a56.5 56.5 0 0 0-18.867 3.234l18.867 53.359z"/><circle fill="#FFF" cx="-940.905" cy="410.28" r="31.632"/><path fill="none" stroke="#E8E8E8" stroke-width="2.531" stroke-linecap="round" stroke-miterlimit="10" d="M-881.618 441.966h119.872M-876.696 372.601h119.867"/><path fill="none" stroke="#E8E8E8" stroke-width="2.303" stroke-linecap="round" stroke-miterlimit="10" d="M-856.083 387.326h99.254"/><path fill="none" stroke="#007AB7" stroke-width=".499" stroke-miterlimit="10" d="M192.87 118.203h67.573v22.202H192.87z"/><path fill="none" stroke="#9081BC" stroke-width="4" stroke-miterlimit="10" d="M181.541 46.5h90.23"/><path fill="#FFF" stroke="#EFEFEF" stroke-width=".295" stroke-miterlimit="10" d="M276.572 46.5h90.23v105.904h-90.23z"/><path fill="none" stroke="#E8E8E8" stroke-width="1.77" stroke-linecap="round" stroke-miterlimit="10" d="M297.693 80.19h47.989M298.963 99.404h45.449M292.656 89.795h58.063"/><path fill="none" stroke="#C6C6C6" stroke-width="1.77" stroke-linecap="round" stroke-miterlimit="10" d="M303.404 61.776h36.567"/><path fill="none" stroke="#007AB7" stroke-width=".499" stroke-miterlimit="10" d="M287.9 118.203h67.574v22.202H287.9z"/><path fill="none" stroke="#0078C0" stroke-width="3" stroke-miterlimit="10" d="M276.572 46.5h90.231"/><path fill="#FFF" stroke="#EFEFEF" stroke-width=".295" stroke-miterlimit="10" d="M371.604 46.5h90.23v105.904h-90.23z"/><path fill="none" stroke="#E8E8E8" stroke-width="1.77" stroke-linecap="round" stroke-miterlimit="10" d="M392.725 80.19h47.988M393.994 99.404h45.449M387.688 89.795h58.062"/><path fill="none" stroke="#C6C6C6" stroke-width="1.77" stroke-linecap="round" stroke-miterlimit="10" d="M398.436 61.776h36.566"/><path fill="none" stroke="#007AB7" stroke-width=".499" stroke-miterlimit="10" d="M382.932 118.203h67.574v22.202h-67.574z"/><path fill="none" stroke="#D17F21" stroke-width="3" stroke-miterlimit="10" d="M371.604 46.5h90.23"/><path fill="none" stroke="#EFEFEF" stroke-width="2" stroke-miterlimit="10" d="M273.771 195.062v77.572M369.604 195.062v77.572M181.541 195.062v77.572"/><path fill="#9081BC" d="M223.422 207.445l-3.817-3.817-1.665 1.663 5.481 5.481 10.693-10.689-1.664-1.663-9.028 9.025zM223.422 227.418l-3.817-3.817-1.665 1.663 5.481 5.481 10.693-10.689-1.664-1.663-9.028 9.025z"/><path fill="#0078C0" d="M319.082 266.021l-3.816-3.817-1.665 1.663 5.481 5.481 10.693-10.689-1.664-1.663-9.029 9.025zM319.082 227.414l-3.816-3.817-1.665 1.663 5.481 5.481 10.693-10.689-1.664-1.663-9.029 9.025z"/><path fill="#D17F21" d="M412.819 227.414l-3.816-3.817-1.665 1.663 5.481 5.481 10.693-10.689-1.664-1.663-9.029 9.025z"/><path fill="#0078C0" d="M319.082 207.445l-3.816-3.817-1.665 1.663 5.481 5.481 10.693-10.689-1.664-1.663-9.029 9.025z"/><path fill="#D17F21" d="M412.819 207.445l-3.816-3.817-1.665 1.663 5.481 5.481 10.693-10.689-1.664-1.663-9.029 9.025zM412.819 266.021l-3.816-3.817-1.665 1.663 5.481 5.481 10.693-10.689-1.664-1.663-9.029 9.025zM412.819 246.72l-3.816-3.817-1.665 1.663 5.481 5.481 10.693-10.689-1.664-1.663-9.029 9.025z"/></svg>