<?xml version="1.0" encoding="utf-8"?>
<!-- Generator: Adobe Illustrator 16.0.4, SVG Export Plug-In . SVG Version: 6.00 Build 0)  -->
<!DOCTYPE svg PUBLIC "-//W3C//DTD SVG 1.1//EN" "http://www.w3.org/Graphics/SVG/1.1/DTD/svg11.dtd">
<svg version="1.1" id="Layer_1" xmlns="http://www.w3.org/2000/svg" xmlns:xlink="http://www.w3.org/1999/xlink" x="0px" y="0px"
	 width="480px" height="320px" viewBox="0 0 480 320" enable-background="new 0 0 480 320" xml:space="preserve">
<rect y="-1" fill="#EFEFEF" width="480" height="321"/>
<rect x="182.541" y="167.471" fill="#FFFFFF" stroke="#EFEFEF" stroke-width="0.295" stroke-miterlimit="10" width="90.23" height="105.904"/>
<rect x="274.572" y="167.471" fill="#FFFFFF" stroke="#EFEFEF" stroke-width="0.295" stroke-miterlimit="10" width="93.678" height="105.904"/>
<rect x="370.604" y="167.471" fill="#FFFFFF" stroke="#EFEFEF" stroke-width="0.295" stroke-miterlimit="10" width="89.645" height="105.904"/>
<g>
	<g>
		<g>
			
				<line fill="none" stroke="#FFFFFF" stroke-width="15" stroke-linecap="round" stroke-miterlimit="10" x1="928.388" y1="99.765" x2="985.721" y2="99.765"/>
			<circle fill="#C84D30" cx="928.688" cy="99.766" r="4.302"/>
			
				<line fill="none" stroke="#DFDFDF" stroke-width="5" stroke-linecap="round" stroke-miterlimit="10" x1="938.388" y1="99.765" x2="983.791" y2="99.765"/>
		</g>
		<g>
			
				<line fill="none" stroke="#FFFFFF" stroke-width="15" stroke-linecap="round" stroke-miterlimit="10" x1="1116.387" y1="99.765" x2="1203.719" y2="99.765"/>
			<circle fill="#007AC2" cx="1116.688" cy="99.766" r="4.303"/>
			
				<line fill="none" stroke="#DFDFDF" stroke-width="5" stroke-linecap="round" stroke-miterlimit="10" x1="1126.387" y1="99.765" x2="1201.791" y2="99.765"/>
		</g>
	</g>
	<g>
		<g>
			
				<line fill="none" stroke="#FFFFFF" stroke-width="15" stroke-linecap="round" stroke-miterlimit="10" x1="928.388" y1="129.367" x2="1017.721" y2="129.367"/>
			<circle fill="#E99141" cx="928.084" cy="129.633" r="4.303"/>
			
				<line fill="none" stroke="#DFDFDF" stroke-width="5" stroke-linecap="round" stroke-miterlimit="10" x1="938.388" y1="129.367" x2="1017.721" y2="129.367"/>
		</g>
		<g>
			
				<line fill="none" stroke="#FFFFFF" stroke-width="15" stroke-linecap="round" stroke-miterlimit="10" x1="1116.387" y1="129.633" x2="1195.719" y2="129.633"/>
			<circle fill="#00B1DC" cx="1116.082" cy="129.633" r="4.303"/>
			
				<line fill="none" stroke="#DFDFDF" stroke-width="5" stroke-linecap="round" stroke-miterlimit="10" x1="1126.387" y1="129.633" x2="1195.719" y2="129.633"/>
		</g>
	</g>
	<g>
		<g>
			
				<line fill="none" stroke="#FFFFFF" stroke-width="15" stroke-linecap="round" stroke-miterlimit="10" x1="928.388" y1="159.633" x2="968.387" y2="159.633"/>
			<circle fill="#FEE864" cx="929.053" cy="159.5" r="4.302"/>
			
				<line fill="none" stroke="#DFDFDF" stroke-width="5" stroke-linecap="round" stroke-miterlimit="10" x1="938.388" y1="159.633" x2="968.387" y2="159.633"/>
		</g>
		<g>
			
				<line fill="none" stroke="#FFFFFF" stroke-width="15" stroke-linecap="round" stroke-miterlimit="10" x1="1116.387" y1="159.633" x2="1216.387" y2="159.633"/>
			<circle fill="#B9DDEA" cx="1117.051" cy="159.5" r="4.302"/>
			
				<line fill="none" stroke="#DFDFDF" stroke-width="5" stroke-linecap="round" stroke-miterlimit="10" x1="1126.387" y1="159.633" x2="1216.387" y2="159.633"/>
		</g>
	</g>
	<g>
		<g>
			
				<line fill="none" stroke="#FFFFFF" stroke-width="15" stroke-linecap="round" stroke-miterlimit="10" x1="928.388" y1="189.231" x2="1008.387" y2="189.231"/>
			<circle fill="#CCDE91" cx="929.053" cy="189.364" r="4.302"/>
			
				<line fill="none" stroke="#DFDFDF" stroke-width="5" stroke-linecap="round" stroke-miterlimit="10" x1="938.388" y1="189.231" x2="1005.72" y2="189.231"/>
		</g>
		<g>
			
				<line fill="none" stroke="#FFFFFF" stroke-width="15" stroke-linecap="round" stroke-miterlimit="10" x1="1116.387" y1="189.231" x2="1176.387" y2="189.231"/>
			<circle fill="#EFEFEF" cx="1117.051" cy="189.364" r="4.302"/>
			
				<line fill="none" stroke="#DFDFDF" stroke-width="5" stroke-linecap="round" stroke-miterlimit="10" x1="1126.387" y1="189.231" x2="1173.719" y2="189.231"/>
		</g>
	</g>
	<g>
		<g>
			
				<line fill="none" stroke="#FFFFFF" stroke-width="15" stroke-linecap="round" stroke-miterlimit="10" x1="928.388" y1="217.863" x2="1029.054" y2="217.863"/>
			<circle fill="#A3C855" cx="928.387" cy="219.232" r="4.303"/>
			
				<line fill="none" stroke="#DFDFDF" stroke-width="5" stroke-linecap="round" stroke-miterlimit="10" x1="938.388" y1="217.863" x2="1026.387" y2="217.863"/>
		</g>
		<g>
			
				<line fill="none" stroke="#FFFFFF" stroke-width="15" stroke-linecap="round" stroke-miterlimit="10" x1="1116.387" y1="217.863" x2="1197.053" y2="217.863"/>
			<circle fill="#CCCCCC" cx="1116.385" cy="219.233" r="4.304"/>
			
				<line fill="none" stroke="#DFDFDF" stroke-width="5" stroke-linecap="round" stroke-miterlimit="10" x1="1126.387" y1="217.863" x2="1194.385" y2="217.863"/>
		</g>
	</g>
	<g>
		<g>
			
				<line fill="none" stroke="#FFFFFF" stroke-width="15" stroke-linecap="round" stroke-miterlimit="10" x1="928.388" y1="248.432" x2="1001.721" y2="248.432"/>
			<circle fill="#3EA349" cx="929.053" cy="249.099" r="4.303"/>
			
				<line fill="none" stroke="#DFDFDF" stroke-width="5" stroke-linecap="round" stroke-miterlimit="10" x1="938.388" y1="248.432" x2="998.387" y2="248.432"/>
		</g>
		<g>
			
				<line fill="none" stroke="#FFFFFF" stroke-width="15" stroke-linecap="round" stroke-miterlimit="10" x1="1116.387" y1="248.432" x2="1219.719" y2="248.432"/>
			<circle fill="#4C4C4C" cx="1117.053" cy="249.099" r="4.303"/>
			
				<line fill="none" stroke="#DFDFDF" stroke-width="5" stroke-linecap="round" stroke-miterlimit="10" x1="1126.387" y1="248.432" x2="1216.385" y2="248.432"/>
		</g>
	</g>
</g>
<image overflow="visible" width="2762" height="1330" xlink:href="../../../../../../../../Desktop/Screen Shot 2016-07-20 at 2.23.07 PM.png"  transform="matrix(0.5 0 0 0.5 -764.0449 -724.5059)">
</image>
<rect x="-1502.475" y="174.433" fill="#FFFFFF" width="150.442" height="150.441"/>
<rect x="-1342.599" y="174.433" fill="#FFFFFF" width="150.444" height="150.441"/>
<rect x="-1342.599" y="331.771" fill="#FFFFFF" width="311.265" height="307.909"/>
<rect x="-1021.153" y="331.771" fill="#FFFFFF" width="311.262" height="150.444"/>
<rect x="-1342.599" y="647.715" fill="#FFFFFF" width="473.58" height="150.444"/>
<rect x="-1182.689" y="174.433" fill="#FFFFFF" width="150.443" height="150.441"/>
<rect x="-1021.999" y="489.955" fill="#FFFFFF" width="150.442" height="150.439"/>
<rect x="-859.552" y="489.955" fill="#FFFFFF" width="150.442" height="308.204"/>
<rect x="-1502.475" y="489.955" fill="#FFFFFF" width="150.444" height="308.204"/>
<rect x="-1022.779" y="174.433" fill="#FFFFFF" width="150.439" height="150.441"/>
<rect x="-862.873" y="174.433" fill="#FFFFFF" width="150.444" height="150.441"/>
<g>
	<g>
		<rect x="-1022.365" y="174.911" fill="#F8F8F8" width="149.609" height="25.233"/>
		<path fill="#EFEFEF" d="M-872.34,200.615h-150.439v-26.183h150.439V200.615z M-1021.951,199.669h148.783v-24.282h-148.783V199.669
			z"/>
	</g>
	<g>
		<rect x="-1022.365" y="199.669" fill="#FFFFFF" width="149.609" height="25.229"/>
		<path fill="#EFEFEF" d="M-872.34,225.375h-150.439v-26.183h150.439V225.375z M-1021.951,224.421h148.783v-24.276h-148.783V224.421
			z"/>
	</g>
	<g>
		<rect x="-1022.365" y="224.543" fill="#FFFFFF" width="149.609" height="25.23"/>
		<path fill="#EFEFEF" d="M-872.34,250.249h-150.439v-26.185h150.439V250.249z M-1021.951,249.298h148.783v-24.277h-148.783V249.298
			z"/>
	</g>
	<g>
		<rect x="-1022.365" y="249.417" fill="#FFFFFF" width="149.609" height="25.233"/>
		<path fill="#EFEFEF" d="M-872.34,275.126h-150.439v-26.185h150.439V275.126z M-1021.951,274.175h148.783v-24.282h-148.783V274.175
			z"/>
	</g>
	<g>
		<rect x="-1022.365" y="274.293" fill="#FFFFFF" width="149.609" height="25.231"/>
		<path fill="#EFEFEF" d="M-872.34,299.998h-150.439v-26.181h150.439V299.998z M-1021.951,299.046h148.783v-24.279h-148.783V299.046
			z"/>
	</g>
	<g>
		<rect x="-1022.365" y="299.165" fill="#FFFFFF" width="149.609" height="25.233"/>
		<path fill="#EFEFEF" d="M-872.34,324.877h-150.439v-26.183h150.439V324.877z M-1021.951,323.923h148.783v-24.282h-148.783V323.923
			z"/>
	</g>
	<path fill="#E8E8E8" d="M-929.929,215.376h-83.348c-1.368,0-2.474-1.274-2.474-2.855c0-1.576,1.105-2.854,2.474-2.854h83.348
		c1.371,0,2.483,1.278,2.483,2.854C-927.446,214.102-928.559,215.376-929.929,215.376z"/>
	<path fill="#E8E8E8" d="M-919.456,315.99h-93.821c-1.368,0-2.476-1.281-2.476-2.855c0-1.578,1.107-2.857,2.476-2.857h93.821
		c1.37,0,2.483,1.279,2.483,2.857C-916.973,314.709-918.086,315.99-919.456,315.99z"/>
	<path fill="#E8E8E8" d="M-912.428,290.836h-100.845c-1.371,0-2.479-1.279-2.479-2.855c0-1.578,1.108-2.854,2.479-2.854h100.845
		c1.373,0,2.483,1.276,2.483,2.854C-909.947,289.557-911.055,290.836-912.428,290.836z"/>
	<path fill="#E8E8E8" d="M-934.336,265.682h-78.937c-1.371,0-2.479-1.279-2.479-2.857c0-1.576,1.108-2.855,2.479-2.855h78.937
		c1.371,0,2.483,1.279,2.483,2.855C-931.857,264.405-932.965,265.682-934.336,265.682z"/>
	<path fill="#E8E8E8" d="M-912.428,240.53h-100.845c-1.371,0-2.479-1.279-2.479-2.855s1.108-2.857,2.479-2.857h100.845
		c1.373,0,2.483,1.281,2.483,2.857C-909.947,239.249-911.055,240.53-912.428,240.53z"/>
	<path fill="#C6C6C6" d="M-949.765,190.938h-63.507c-1.371,0-2.479-1.278-2.479-2.854c0-1.579,1.108-2.857,2.479-2.857h63.507
		c1.373,0,2.483,1.278,2.483,2.857C-947.284,189.656-948.392,190.938-949.765,190.938z"/>
</g>
<rect x="-859.552" y="489.955" fill="#FFFFFF" width="150.439" height="150.444"/>
<g>
	<rect x="25.509" y="195.431" fill="#F8F8F8" width="435.946" height="19.673"/>
	<path fill="#EFEFEF" d="M462.662,215.473H24.311v-20.411h438.351V215.473z M26.721,214.733h433.527v-18.929H26.721V214.733z"/>
</g>
<g>
	<rect x="25.509" y="214.733" fill="#FFFFFF" width="435.946" height="19.671"/>
	<path fill="#EFEFEF" d="M462.662,234.771H24.311v-20.412h438.351V234.771z M26.721,234.03h433.527v-18.927H26.721V234.03z"/>
</g>
<g>
	<rect x="25.509" y="234.034" fill="#F8F8F8" width="435.946" height="19.673"/>
	<path fill="#EFEFEF" d="M462.662,254.076H24.311v-20.411h438.351V254.076z M26.721,253.337h433.527v-18.929H26.721V253.337z"/>
</g>
<g>
	<rect x="25.509" y="253.337" fill="#FFFFFF" width="435.946" height="19.671"/>
	<path fill="#EFEFEF" d="M462.662,273.375H24.311v-20.412h438.351V273.375z M26.721,272.634h433.527v-18.927H26.721V272.634z"/>
</g>
<rect x="-859.552" y="640.32" fill="#FFFFFF" width="150.439" height="150.443"/>
<g>
	<g>
		<rect x="-859.136" y="648.414" fill="#F8F8F8" width="149.611" height="25.233"/>
		<path fill="#EFEFEF" d="M-709.11,674.123h-150.437v-26.186h150.437V674.123z M-858.72,673.172h148.781V648.89H-858.72V673.172z"/>
	</g>
	<g>
		<rect x="-859.136" y="673.172" fill="#FFFFFF" width="149.611" height="25.233"/>
		<path fill="#EFEFEF" d="M-709.11,698.881h-150.437v-26.186h150.437V698.881z M-858.72,697.924h148.781v-24.276H-858.72V697.924z"
			/>
	</g>
	<g>
		<rect x="-859.136" y="698.043" fill="#FFFFFF" width="149.611" height="25.233"/>
		<path fill="#EFEFEF" d="M-709.11,723.752h-150.437v-26.18h150.437V723.752z M-858.72,722.801h148.781v-24.277H-858.72V722.801z"/>
	</g>
	<g>
		<rect x="-859.136" y="722.92" fill="#FFFFFF" width="149.611" height="25.229"/>
		<path fill="#EFEFEF" d="M-709.11,748.629h-150.437v-26.186h150.437V748.629z M-858.72,747.678h148.781v-24.282H-858.72V747.678z"
			/>
	</g>
	<g>
		<rect x="-859.136" y="747.796" fill="#FFFFFF" width="149.611" height="25.229"/>
		<path fill="#EFEFEF" d="M-709.11,773.506h-150.437V747.32h150.437V773.506z M-858.72,772.554h148.781v-24.281H-858.72V772.554z"/>
	</g>
	<g>
		<rect x="-859.136" y="772.673" fill="#FFFFFF" width="149.611" height="25.233"/>
		<path fill="#EFEFEF" d="M-709.11,798.382h-150.437v-26.185h150.437V798.382z M-858.72,797.426h148.781v-24.277H-858.72V797.426z"
			/>
	</g>
	<path fill="#E8E8E8" d="M-766.702,688.884h-83.344c-1.373,0-2.478-1.279-2.478-2.86c0-1.576,1.105-2.854,2.478-2.854h83.344
		c1.373,0,2.483,1.278,2.483,2.854C-764.219,687.604-765.329,688.884-766.702,688.884z"/>
	<path fill="#E8E8E8" d="M-756.229,789.495h-93.816c-1.373,0-2.478-1.284-2.478-2.86s1.105-2.854,2.478-2.854h93.816
		c1.373,0,2.483,1.278,2.483,2.854S-754.856,789.495-756.229,789.495z"/>
	<path fill="#E8E8E8" d="M-749.198,764.336h-100.848c-1.368,0-2.476-1.278-2.476-2.854c0-1.581,1.108-2.855,2.476-2.855h100.848
		c1.37,0,2.48,1.274,2.48,2.855S-747.828,764.336-749.198,764.336z"/>
	<path fill="#E8E8E8" d="M-771.106,739.182h-78.939c-1.368,0-2.476-1.278-2.476-2.854s1.108-2.855,2.476-2.855h78.939
		c1.371,0,2.481,1.279,2.481,2.855S-769.735,739.182-771.106,739.182z"/>
	<path fill="#E8E8E8" d="M-749.198,714.032h-100.848c-1.368,0-2.476-1.283-2.476-2.859c0-1.571,1.108-2.855,2.476-2.855h100.848
		c1.37,0,2.48,1.284,2.48,2.855C-746.718,712.749-747.828,714.032-749.198,714.032z"/>
	<path fill="#C6C6C6" d="M-786.536,664.443h-63.51c-1.368,0-2.476-1.284-2.476-2.855c0-1.581,1.108-2.864,2.476-2.864h63.51
		c1.371,0,2.481,1.283,2.481,2.864C-784.055,663.159-785.165,664.443-786.536,664.443z"/>
</g>
<polyline fill="#FFFFFF" stroke="#EFEFEF" stroke-width="0.3651" stroke-miterlimit="10" points="-869.019,669.91 -869.019,798.164 
	-1342.599,798.164 -1342.599,669.91 "/>
<polyline fill="#FFFFFF" stroke="#EFEFEF" stroke-width="0.3651" stroke-miterlimit="10" points="-1225.167,669.647 
	-1225.167,648.924 -1104.576,648.924 -1104.576,669.647 "/>
<line fill="none" stroke="#E8E8E8" stroke-width="2.1904" stroke-linecap="round" stroke-miterlimit="10" x1="-1213.096" y1="659.481" x2="-1127.99" y2="659.481"/>
<rect x="-1342.599" y="648.924" fill="#F8F8F8" stroke="#EFEFEF" stroke-width="0.3651" stroke-miterlimit="10" width="118.101" height="20.724"/>
<line fill="none" stroke="#D3D3D3" stroke-width="2.1904" stroke-linecap="round" stroke-miterlimit="10" x1="-1330.526" y1="659.739" x2="-1270.662" y2="659.739"/>
<rect x="-1104.809" y="648.924" fill="#F8F8F8" stroke="#EFEFEF" stroke-width="0.3651" stroke-miterlimit="10" width="118.098" height="20.724"/>
<line fill="none" stroke="#D3D3D3" stroke-width="2.1904" stroke-linecap="round" stroke-miterlimit="10" x1="-1092.737" y1="659.739" x2="-1032.875" y2="659.739"/>
<rect x="-987.117" y="648.924" fill="#F8F8F8" stroke="#EFEFEF" stroke-width="0.3651" stroke-miterlimit="10" width="118.098" height="20.724"/>
<line fill="none" stroke="#D3D3D3" stroke-width="2.1904" stroke-linecap="round" stroke-miterlimit="10" x1="-974.21" y1="659.739" x2="-914.346" y2="659.739"/>
<rect x="181.541" y="46.5" fill="#FFFFFF" stroke="#EFEFEF" stroke-width="0.295" stroke-miterlimit="10" width="90.23" height="105.904"/>
<line fill="none" stroke="#E8E8E8" stroke-width="2.1904" stroke-linecap="round" stroke-miterlimit="10" x1="-1204.538" y1="707.445" x2="-1017.688" y2="707.445"/>
<line fill="none" stroke="#E8E8E8" stroke-width="2.1904" stroke-linecap="round" stroke-miterlimit="10" x1="-1205.775" y1="749.992" x2="-995.449" y2="749.992"/>
<line fill="none" stroke="#E8E8E8" stroke-width="2.1904" stroke-linecap="round" stroke-miterlimit="10" x1="-1205.775" y1="739.355" x2="-979.7" y2="739.355"/>
<line fill="none" stroke="#E8E8E8" stroke-width="2.1904" stroke-linecap="round" stroke-miterlimit="10" x1="-1205.775" y1="728.714" x2="-1028.806" y2="728.714"/>
<line fill="none" stroke="#E8E8E8" stroke-width="2.1904" stroke-linecap="round" stroke-miterlimit="10" x1="-1205.775" y1="760.624" x2="-1028.806" y2="760.624"/>
<line fill="none" stroke="#E8E8E8" stroke-width="2.1904" stroke-linecap="round" stroke-miterlimit="10" x1="-1205.775" y1="718.082" x2="-979.7" y2="718.082"/>
<line fill="none" stroke="#E8E8E8" stroke-width="1.7701" stroke-linecap="round" stroke-miterlimit="10" x1="202.663" y1="80.19" x2="250.65" y2="80.19"/>
<line fill="none" stroke="#E8E8E8" stroke-width="1.7701" stroke-linecap="round" stroke-miterlimit="10" x1="203.931" y1="99.404" x2="249.381" y2="99.404"/>
<line fill="none" stroke="#E8E8E8" stroke-width="1.7701" stroke-linecap="round" stroke-miterlimit="10" x1="197.625" y1="89.795" x2="255.688" y2="89.795"/>
<line fill="none" stroke="#C6C6C6" stroke-width="1.7701" stroke-linecap="round" stroke-miterlimit="10" x1="208.372" y1="61.776" x2="244.939" y2="61.776"/>
<path fill="#4BBF53" d="M-1273.739,262.953l-14.899-14.899l-6.497,6.488l21.394,21.399l41.737-41.727l-6.499-6.49L-1273.739,262.953
	z"/>
<path fill="#C6C6C6" d="M-1473.093,191.59h-17.845c-0.818,0-1.488-0.67-1.488-1.482l0,0c0-0.822,0.67-1.487,1.488-1.487h17.845
	c0.817,0,1.484,0.67,1.484,1.487l0,0C-1471.606,190.92-1472.275,191.59-1473.093,191.59z M-1473.093,199.024h-17.845
	c-0.818,0-1.488-0.669-1.488-1.487l0,0c0-0.815,0.67-1.486,1.488-1.486h17.845c0.817,0,1.484,0.671,1.484,1.486l0,0
	C-1471.606,198.355-1472.275,199.024-1473.093,199.024z M-1473.093,206.461h-17.845c-0.818,0-1.488-0.671-1.488-1.486l0,0
	c0-0.818,0.67-1.484,1.488-1.484h17.845c0.817,0,1.484,0.669,1.484,1.484l0,0C-1471.606,205.79-1472.275,206.461-1473.093,206.461z"
	/>
<rect x="-1165.483" y="196.083" fill="#F8F8F8" stroke="#F8F8F8" stroke-width="1.5" stroke-linecap="round" stroke-linejoin="round" stroke-miterlimit="10" width="116.735" height="30.452"/>
<g>
	<path fill="#C84D30" d="M-1057.281,216.114c-0.203,0-0.406-0.074-0.56-0.23l-8.307-8.31c-0.307-0.312-0.307-0.811,0-1.118
		c0.303-0.31,0.808-0.31,1.11,0l8.312,8.31c0.307,0.312,0.307,0.809,0,1.115C-1056.875,216.035-1057.078,216.114-1057.281,216.114z"
		/>
	<path fill="#C84D30" d="M-1065.593,216.114c-0.203,0-0.404-0.079-0.555-0.23c-0.312-0.31-0.312-0.811,0-1.113l8.307-8.312
		c0.31-0.31,0.808-0.31,1.115,0c0.307,0.308,0.307,0.808,0,1.115l-8.312,8.31C-1065.187,216.035-1065.393,216.114-1065.593,216.114z
		"/>
</g>
<rect x="-1165.483" y="234.592" fill="#F8F8F8" stroke="#F8F8F8" stroke-width="1.5" stroke-linecap="round" stroke-linejoin="round" stroke-miterlimit="10" width="116.735" height="30.453"/>
<g>
	<path fill="#C84D30" d="M-1056.736,255.275c-0.228,0-0.461-0.087-0.634-0.266l-9.397-9.402c-0.347-0.35-0.347-0.914,0-1.261
		c0.344-0.353,0.912-0.353,1.261,0l9.4,9.402c0.352,0.347,0.352,0.912,0,1.261C-1056.28,255.187-1056.505,255.275-1056.736,255.275z
		"/>
	<path fill="#C84D30" d="M-1066.139,255.275c-0.232,0-0.456-0.089-0.629-0.266c-0.353-0.347-0.353-0.914,0-1.261l9.397-9.402
		c0.354-0.353,0.917-0.353,1.264,0c0.352,0.347,0.352,0.911,0,1.261l-9.4,9.402C-1065.68,255.187-1065.91,255.275-1066.139,255.275z
		"/>
</g>
<rect x="-1165.483" y="273.071" fill="#F8F8F8" stroke="#F8F8F8" stroke-width="1.5" stroke-linecap="round" stroke-linejoin="round" stroke-miterlimit="10" width="116.735" height="30.453"/>
<g>
	<path fill="#C84D30" d="M-1057.281,293.104c-0.203,0-0.406-0.074-0.56-0.23l-8.312-8.31c-0.302-0.312-0.302-0.811,0-1.118
		c0.308-0.31,0.813-0.31,1.115,0l8.312,8.31c0.307,0.312,0.307,0.808,0,1.115C-1056.875,293.024-1057.078,293.104-1057.281,293.104z
		"/>
	<path fill="#C84D30" d="M-1065.593,293.104c-0.203,0-0.404-0.079-0.56-0.23c-0.307-0.311-0.307-0.811,0-1.113l8.312-8.312
		c0.31-0.31,0.808-0.31,1.115,0c0.307,0.307,0.307,0.808,0,1.115l-8.312,8.31C-1065.187,293.024-1065.393,293.104-1065.593,293.104z
		"/>
</g>
<g>
	<rect x="-1016.37" y="497.573" fill="#B9DDEA" width="139.19" height="135.208"/>
	
		<line fill="none" stroke="#A3C3CC" stroke-width="0.7318" stroke-miterlimit="10" x1="-1016.37" y1="497.573" x2="-877.183" y2="632.781"/>
	
		<line fill="none" stroke="#A3C3CC" stroke-width="0.7318" stroke-miterlimit="10" x1="-1016.37" y1="632.781" x2="-877.183" y2="497.573"/>
</g>
<g>
	<path fill="#B9DDEA" d="M-1278.274,695.733c21.607,0,39.124,17.521,39.124,39.126c0,21.605-17.517,39.122-39.124,39.122
		c-21.608,0-39.124-17.517-39.124-39.122C-1317.398,713.255-1299.883,695.733-1278.274,695.733z"/>
	
		<line fill="none" stroke="#A3C3CC" stroke-width="0.571" stroke-miterlimit="10" x1="-1305.832" y1="707.302" x2="-1250.718" y2="762.418"/>
	
		<line fill="none" stroke="#A3C3CC" stroke-width="0.571" stroke-miterlimit="10" x1="-1305.832" y1="762.418" x2="-1250.718" y2="707.302"/>
</g>
<g>
	
		<line fill="none" stroke="#FFFFFF" stroke-width="4.8461" stroke-linecap="round" stroke-miterlimit="10" x1="-1483.307" y1="509.275" x2="-1436.304" y2="509.275"/>
	<circle fill="#C84D30" cx="-1483.061" cy="509.278" r="3.527"/>
	
		<line fill="none" stroke="#DFDFDF" stroke-width="1.6154" stroke-linecap="round" stroke-miterlimit="10" x1="-1475.107" y1="509.275" x2="-1437.882" y2="509.275"/>
</g>
<g>
	
		<line fill="none" stroke="#FFFFFF" stroke-width="4.8461" stroke-linecap="round" stroke-miterlimit="10" x1="-1483.307" y1="533.547" x2="-1410.066" y2="533.547"/>
	<circle fill="#E99141" cx="-1483.556" cy="533.765" r="3.529"/>
	
		<line fill="none" stroke="#DFDFDF" stroke-width="1.6154" stroke-linecap="round" stroke-miterlimit="10" x1="-1475.107" y1="533.547" x2="-1410.066" y2="533.547"/>
</g>
<g>
	
		<line fill="none" stroke="#FFFFFF" stroke-width="4.8461" stroke-linecap="round" stroke-miterlimit="10" x1="-1483.307" y1="558.359" x2="-1450.513" y2="558.359"/>
	<circle fill="#FEE864" cx="-1482.762" cy="558.253" r="3.526"/>
	
		<line fill="none" stroke="#DFDFDF" stroke-width="1.6154" stroke-linecap="round" stroke-miterlimit="10" x1="-1475.107" y1="558.359" x2="-1450.513" y2="558.359"/>
</g>
<g>
	
		<line fill="none" stroke="#FFFFFF" stroke-width="4.8461" stroke-linecap="round" stroke-miterlimit="10" x1="-1483.307" y1="582.626" x2="-1417.717" y2="582.626"/>
	<circle fill="#CCDE91" cx="-1482.762" cy="582.735" r="3.529"/>
	
		<line fill="none" stroke="#DFDFDF" stroke-width="1.6154" stroke-linecap="round" stroke-miterlimit="10" x1="-1475.107" y1="582.626" x2="-1419.905" y2="582.626"/>
</g>
<g>
	
		<line fill="none" stroke="#FFFFFF" stroke-width="4.8461" stroke-linecap="round" stroke-miterlimit="10" x1="-1483.307" y1="606.101" x2="-1400.775" y2="606.101"/>
	<circle fill="#A3C855" cx="-1483.307" cy="607.223" r="3.526"/>
	
		<line fill="none" stroke="#DFDFDF" stroke-width="1.6154" stroke-linecap="round" stroke-miterlimit="10" x1="-1475.107" y1="606.101" x2="-1402.96" y2="606.101"/>
</g>
<g>
	
		<line fill="none" stroke="#FFFFFF" stroke-width="4.8461" stroke-linecap="round" stroke-miterlimit="10" x1="-1483.307" y1="631.165" x2="-1423.184" y2="631.165"/>
	<circle fill="#3EA349" cx="-1482.762" cy="631.713" r="3.526"/>
	
		<line fill="none" stroke="#DFDFDF" stroke-width="1.6154" stroke-linecap="round" stroke-miterlimit="10" x1="-1475.107" y1="631.165" x2="-1425.917" y2="631.165"/>
</g>
<g>
	
		<line fill="none" stroke="#FFFFFF" stroke-width="4.8461" stroke-linecap="round" stroke-miterlimit="10" x1="-1485.065" y1="234.27" x2="-1424.942" y2="234.27"/>
	<circle fill="#3EA349" cx="-1484.521" cy="234.817" r="3.526"/>
	
		<line fill="none" stroke="#DFDFDF" stroke-width="1.6154" stroke-linecap="round" stroke-miterlimit="10" x1="-1476.866" y1="234.27" x2="-1427.676" y2="234.27"/>
</g>
<g>
	
		<line fill="none" stroke="#FFFFFF" stroke-width="4.8461" stroke-linecap="round" stroke-miterlimit="10" x1="-1485.065" y1="249.704" x2="-1424.942" y2="249.704"/>
	<circle fill="#3EA349" cx="-1484.521" cy="250.25" r="3.529"/>
	
		<line fill="none" stroke="#DFDFDF" stroke-width="1.6154" stroke-linecap="round" stroke-miterlimit="10" x1="-1476.866" y1="249.704" x2="-1427.676" y2="249.704"/>
</g>
<g>
	
		<line fill="none" stroke="#FFFFFF" stroke-width="4.8461" stroke-linecap="round" stroke-miterlimit="10" x1="-1485.065" y1="265.137" x2="-1424.942" y2="265.137"/>
	<circle fill="#3EA349" cx="-1484.521" cy="265.684" r="3.529"/>
	
		<line fill="none" stroke="#DFDFDF" stroke-width="1.6154" stroke-linecap="round" stroke-miterlimit="10" x1="-1476.866" y1="265.137" x2="-1427.676" y2="265.137"/>
</g>
<g>
	
		<line fill="none" stroke="#FFFFFF" stroke-width="4.8461" stroke-linecap="round" stroke-miterlimit="10" x1="-1483.307" y1="654.108" x2="-1436.304" y2="654.108"/>
	<circle fill="#C84D30" cx="-1483.061" cy="654.111" r="3.526"/>
	
		<line fill="none" stroke="#DFDFDF" stroke-width="1.6154" stroke-linecap="round" stroke-miterlimit="10" x1="-1475.107" y1="654.108" x2="-1437.882" y2="654.108"/>
</g>
<g>
	
		<line fill="none" stroke="#FFFFFF" stroke-width="4.8461" stroke-linecap="round" stroke-miterlimit="10" x1="-1483.307" y1="678.376" x2="-1410.066" y2="678.376"/>
	<circle fill="#E99141" cx="-1483.556" cy="678.599" r="3.529"/>
	
		<line fill="none" stroke="#DFDFDF" stroke-width="1.6154" stroke-linecap="round" stroke-miterlimit="10" x1="-1475.107" y1="678.376" x2="-1410.066" y2="678.376"/>
</g>
<g>
	
		<line fill="none" stroke="#FFFFFF" stroke-width="4.8461" stroke-linecap="round" stroke-miterlimit="10" x1="-1483.307" y1="703.192" x2="-1450.513" y2="703.192"/>
	<circle fill="#FEE864" cx="-1482.762" cy="703.086" r="3.527"/>
	
		<line fill="none" stroke="#DFDFDF" stroke-width="1.6154" stroke-linecap="round" stroke-miterlimit="10" x1="-1475.107" y1="703.192" x2="-1450.513" y2="703.192"/>
</g>
<g>
	
		<line fill="none" stroke="#FFFFFF" stroke-width="4.8461" stroke-linecap="round" stroke-miterlimit="10" x1="-1483.307" y1="727.46" x2="-1417.717" y2="727.46"/>
	<circle fill="#CCDE91" cx="-1482.762" cy="727.569" r="3.529"/>
	
		<line fill="none" stroke="#DFDFDF" stroke-width="1.6154" stroke-linecap="round" stroke-miterlimit="10" x1="-1475.107" y1="727.46" x2="-1419.905" y2="727.46"/>
</g>
<g>
	
		<line fill="none" stroke="#FFFFFF" stroke-width="4.8461" stroke-linecap="round" stroke-miterlimit="10" x1="-1483.307" y1="750.934" x2="-1400.775" y2="750.934"/>
	<circle fill="#A3C855" cx="-1483.307" cy="752.059" r="3.529"/>
	
		<line fill="none" stroke="#DFDFDF" stroke-width="1.6154" stroke-linecap="round" stroke-miterlimit="10" x1="-1475.107" y1="750.934" x2="-1402.96" y2="750.934"/>
</g>
<g>
	
		<line fill="none" stroke="#FFFFFF" stroke-width="4.8461" stroke-linecap="round" stroke-miterlimit="10" x1="-1483.307" y1="775.999" x2="-1423.184" y2="775.999"/>
	<circle fill="#3EA349" cx="-1482.762" cy="776.544" r="3.529"/>
	
		<line fill="none" stroke="#DFDFDF" stroke-width="1.6154" stroke-linecap="round" stroke-miterlimit="10" x1="-1475.107" y1="775.999" x2="-1425.917" y2="775.999"/>
</g>
<rect x="-1342.596" y="331.771" fill="#FFFFFF" stroke="#EFEFEF" stroke-width="0.4992" stroke-miterlimit="10" width="311.262" height="307.909"/>
<rect x="-1191.748" y="580.653" fill="#007AC2" stroke="#007AB7" stroke-width="0.4992" stroke-miterlimit="10" width="52.652" height="31.142"/>
<rect x="-1129.407" y="580.653" fill="none" stroke="#007AB7" stroke-width="0.4992" stroke-miterlimit="10" width="75.292" height="31.142"/>
<rect x="-1439.602" y="295.086" fill="#007AC2" stroke="#007AB7" stroke-width="0.2706" stroke-miterlimit="10" width="28.539" height="16.877"/>
<rect x="-1405.812" y="295.086" fill="none" stroke="#007AB7" stroke-width="0.2706" stroke-miterlimit="10" width="40.812" height="16.877"/>
<line fill="none" stroke="#E8E8E8" stroke-width="2.9955" stroke-linecap="round" stroke-miterlimit="10" x1="-1308.826" y1="404.825" x2="-1187.934" y2="404.825"/>
<line fill="none" stroke="#E8E8E8" stroke-width="2.9955" stroke-linecap="round" stroke-miterlimit="10" x1="-1305.628" y1="546.29" x2="-1212.672" y2="546.29"/>
<line fill="none" stroke="#E8E8E8" stroke-width="2.9955" stroke-linecap="round" stroke-miterlimit="10" x1="-1309.628" y1="477.653" x2="-1173.545" y2="477.653"/>
<line fill="none" stroke="#E8E8E8" stroke-width="2.9955" stroke-linecap="round" stroke-miterlimit="10" x1="-1309.628" y1="459.448" x2="-1163.354" y2="459.448"/>
<line fill="none" stroke="#E8E8E8" stroke-width="2.9955" stroke-linecap="round" stroke-miterlimit="10" x1="-1309.628" y1="441.242" x2="-1195.128" y2="441.242"/>
<line fill="none" stroke="#E8E8E8" stroke-width="2.9955" stroke-linecap="round" stroke-miterlimit="10" x1="-1309.628" y1="495.863" x2="-1195.128" y2="495.863"/>
<line fill="none" stroke="#E8E8E8" stroke-width="2.9955" stroke-linecap="round" stroke-miterlimit="10" x1="-1309.628" y1="423.032" x2="-1163.354" y2="423.032"/>
<line fill="none" stroke="#C6C6C6" stroke-width="2.9955" stroke-linecap="round" stroke-miterlimit="10" x1="-1309.628" y1="369.926" x2="-1217.51" y2="369.926"/>
<line fill="none" stroke="#CCCCCC" stroke-width="2" stroke-linecap="round" stroke-miterlimit="10" x1="24.311" y1="102.339" x2="145.203" y2="102.339"/>
<line fill="none" stroke="#CCCCCC" stroke-width="2" stroke-linecap="round" stroke-miterlimit="10" x1="23.511" y1="138.755" x2="138.011" y2="138.755"/>
<line fill="none" stroke="#CCCCCC" stroke-width="4" stroke-linecap="round" stroke-miterlimit="10" x1="192.132" y1="185.062" x2="260.443" y2="185.062"/>
<line fill="none" stroke="#D3D3D3" stroke-width="2" stroke-linecap="round" stroke-miterlimit="10" x1="35.414" y1="205.268" x2="93.5" y2="205.268"/>
<line fill="none" stroke="#D3D3D3" stroke-width="2" stroke-linecap="round" stroke-miterlimit="10" x1="35.414" y1="224.565" x2="103.725" y2="224.565"/>
<line fill="none" stroke="#D3D3D3" stroke-width="2" stroke-linecap="round" stroke-miterlimit="10" x1="35.414" y1="243.871" x2="108.5" y2="243.871"/>
<line fill="none" stroke="#D3D3D3" stroke-width="2" stroke-linecap="round" stroke-miterlimit="10" x1="35.414" y1="263.169" x2="89.167" y2="263.169"/>
<line fill="none" stroke="#CCCCCC" stroke-width="4" stroke-linecap="round" stroke-miterlimit="10" x1="287.532" y1="185.062" x2="355.844" y2="185.062"/>
<line fill="none" stroke="#CCCCCC" stroke-width="4" stroke-linecap="round" stroke-miterlimit="10" x1="381.27" y1="185.062" x2="449.581" y2="185.062"/>
<line fill="none" stroke="#CCCCCC" stroke-width="2" stroke-linecap="round" stroke-miterlimit="10" x1="23.511" y1="120.547" x2="127.924" y2="120.547"/>
<line fill="none" stroke="#939393" stroke-width="2" stroke-linecap="round" stroke-miterlimit="10" x1="23.511" y1="67.44" x2="115.627" y2="67.44"/>
<line fill="none" stroke="#007AC2" stroke-width="2" stroke-linecap="round" stroke-miterlimit="10" x1="29.66" y1="181.166" x2="121.776" y2="181.166"/>
<g>
	<path fill="#007AC2" d="M-1057.631,378.729c-0.471,0-0.934-0.176-1.291-0.535L-1078.118,359c-0.714-0.709-0.714-1.861,0-2.572
		c0.711-0.714,1.866-0.714,2.577,0l19.196,19.191c0.709,0.708,0.709,1.863,0,2.574
		C-1056.699,378.553-1057.167,378.729-1057.631,378.729z"/>
	<path fill="#007AC2" d="M-1076.83,378.727c-0.471,0-0.932-0.179-1.289-0.533c-0.714-0.711-0.714-1.866,0-2.574l19.194-19.191
		c0.711-0.714,1.866-0.714,2.575,0c0.711,0.711,0.711,1.863,0,2.572l-19.196,19.193
		C-1075.897,378.548-1076.366,378.727-1076.83,378.727z"/>
</g>
<circle fill="#00B1DC" cx="-940.905" cy="410.281" r="49.838"/>
<path fill="#B9DDEA" stroke="#FFFFFF" stroke-width="3.0405" stroke-miterlimit="10" d="M-940.905,410.279h48.149
	c0-26.592-21.556-48.147-48.149-48.147c-26.594,0-48.147,21.559-48.147,48.147c0,26.592,21.553,48.15,48.147,48.15
	c7.923,0,15.387-1.926,21.977-5.312L-940.905,410.279z"/>
<path fill="#4BBF53" stroke="#FFFFFF" stroke-miterlimit="10" d="M-938.368,410.279h56.596c0-31.253-25.337-56.593-56.596-56.593
	c-6.615,0-12.963,1.147-18.867,3.234L-938.368,410.279z"/>
<circle fill="#FFFFFF" cx="-940.905" cy="410.28" r="31.632"/>
<line fill="none" stroke="#E8E8E8" stroke-width="2.5308" stroke-linecap="round" stroke-miterlimit="10" x1="-881.618" y1="441.966" x2="-761.746" y2="441.966"/>
<line fill="none" stroke="#E8E8E8" stroke-width="2.5308" stroke-linecap="round" stroke-miterlimit="10" x1="-876.696" y1="372.601" x2="-756.829" y2="372.601"/>
<line fill="none" stroke="#E8E8E8" stroke-width="2.303" stroke-linecap="round" stroke-miterlimit="10" x1="-856.083" y1="387.326" x2="-756.829" y2="387.326"/>
<rect x="192.87" y="118.203" fill="none" stroke="#007AB7" stroke-width="0.4992" stroke-miterlimit="10" width="67.573" height="22.202"/>
<line fill="none" stroke="#9081BC" stroke-width="4" stroke-miterlimit="10" x1="181.541" y1="46.5" x2="271.771" y2="46.5"/>
<rect x="276.572" y="46.5" fill="#FFFFFF" stroke="#EFEFEF" stroke-width="0.295" stroke-miterlimit="10" width="90.23" height="105.904"/>
<line fill="none" stroke="#E8E8E8" stroke-width="1.7701" stroke-linecap="round" stroke-miterlimit="10" x1="297.693" y1="80.19" x2="345.682" y2="80.19"/>
<line fill="none" stroke="#E8E8E8" stroke-width="1.7701" stroke-linecap="round" stroke-miterlimit="10" x1="298.963" y1="99.404" x2="344.412" y2="99.404"/>
<line fill="none" stroke="#E8E8E8" stroke-width="1.7701" stroke-linecap="round" stroke-miterlimit="10" x1="292.656" y1="89.795" x2="350.719" y2="89.795"/>
<line fill="none" stroke="#C6C6C6" stroke-width="1.7701" stroke-linecap="round" stroke-miterlimit="10" x1="303.404" y1="61.776" x2="339.971" y2="61.776"/>
<rect x="287.9" y="118.203" fill="none" stroke="#007AB7" stroke-width="0.4992" stroke-miterlimit="10" width="67.574" height="22.202"/>
<line fill="none" stroke="#0078C0" stroke-width="3" stroke-miterlimit="10" x1="276.572" y1="46.5" x2="366.803" y2="46.5"/>
<rect x="371.604" y="46.5" fill="#FFFFFF" stroke="#EFEFEF" stroke-width="0.295" stroke-miterlimit="10" width="90.23" height="105.904"/>
<line fill="none" stroke="#E8E8E8" stroke-width="1.7701" stroke-linecap="round" stroke-miterlimit="10" x1="392.725" y1="80.19" x2="440.713" y2="80.19"/>
<line fill="none" stroke="#E8E8E8" stroke-width="1.7701" stroke-linecap="round" stroke-miterlimit="10" x1="393.994" y1="99.404" x2="439.443" y2="99.404"/>
<line fill="none" stroke="#E8E8E8" stroke-width="1.7701" stroke-linecap="round" stroke-miterlimit="10" x1="387.688" y1="89.795" x2="445.75" y2="89.795"/>
<line fill="none" stroke="#C6C6C6" stroke-width="1.7701" stroke-linecap="round" stroke-miterlimit="10" x1="398.436" y1="61.776" x2="435.002" y2="61.776"/>
<rect x="382.932" y="118.203" fill="none" stroke="#007AB7" stroke-width="0.4992" stroke-miterlimit="10" width="67.574" height="22.202"/>
<line fill="none" stroke="#D17F21" stroke-width="3" stroke-miterlimit="10" x1="371.604" y1="46.5" x2="461.834" y2="46.5"/>
<line fill="none" stroke="#EFEFEF" stroke-width="2" stroke-miterlimit="10" x1="273.771" y1="195.062" x2="273.771" y2="272.634"/>
<line fill="none" stroke="#EFEFEF" stroke-width="2" stroke-miterlimit="10" x1="369.604" y1="195.062" x2="369.604" y2="272.634"/>
<line fill="none" stroke="#EFEFEF" stroke-width="2" stroke-miterlimit="10" x1="181.541" y1="195.062" x2="181.541" y2="272.634"/>
<path fill="#9081BC" d="M223.422,207.445l-3.817-3.817l-1.665,1.663l5.481,5.481l10.693-10.689l-1.664-1.663L223.422,207.445z"/>
<path fill="#9081BC" d="M223.422,227.418l-3.817-3.817l-1.665,1.663l5.481,5.481l10.693-10.689l-1.664-1.663L223.422,227.418z"/>
<path fill="#0078C0" d="M319.082,266.021l-3.816-3.817l-1.665,1.663l5.481,5.481l10.693-10.689l-1.664-1.663L319.082,266.021z"/>
<path fill="#0078C0" d="M319.082,227.414l-3.816-3.817l-1.665,1.663l5.481,5.481l10.693-10.689l-1.664-1.663L319.082,227.414z"/>
<path fill="#D17F21" d="M412.819,227.414l-3.816-3.817l-1.665,1.663l5.481,5.481l10.693-10.689l-1.664-1.663L412.819,227.414z"/>
<path fill="#0078C0" d="M319.082,207.445l-3.816-3.817l-1.665,1.663l5.481,5.481l10.693-10.689l-1.664-1.663L319.082,207.445z"/>
<path fill="#D17F21" d="M412.819,207.445l-3.816-3.817l-1.665,1.663l5.481,5.481l10.693-10.689l-1.664-1.663L412.819,207.445z"/>
<path fill="#D17F21" d="M412.819,266.021l-3.816-3.817l-1.665,1.663l5.481,5.481l10.693-10.689l-1.664-1.663L412.819,266.021z"/>
<path fill="#D17F21" d="M412.819,246.72l-3.816-3.817l-1.665,1.663l5.481,5.481l10.693-10.689l-1.664-1.663L412.819,246.72z"/>
</svg>
