<?xml version="1.0" encoding="utf-8"?>
<!-- Generator: Adobe Illustrator 16.0.4, SVG Export Plug-In . SVG Version: 6.00 Build 0)  -->
<!DOCTYPE svg PUBLIC "-//W3C//DTD SVG 1.1//EN" "http://www.w3.org/Graphics/SVG/1.1/DTD/svg11.dtd">
<svg version="1.1" id="Layer_1" xmlns="http://www.w3.org/2000/svg" xmlns:xlink="http://www.w3.org/1999/xlink" x="0px" y="0px"
	 width="960px" height="320px" viewBox="-240 0 960 320" enable-background="new -240 0 960 320" xml:space="preserve">
<rect x="244.967" y="-1" fill="#F9F9F9" width="475.033" height="321"/>
<circle fill="#FFFFFF" cx="-1.514" cy="272.779" r="26.999"/>
<rect x="-240" y="-1" fill="#F9F9F9" width="475.032" height="321"/>
<g>
	<g>
		<rect x="-70.42" y="43.933" fill="#FFFFFF" width="151.663" height="25.577"/>
		<path fill="#EFEFEF" d="M81.662,69.992H-70.84V43.45H81.662V69.992z M-70,69.027H80.823V44.415H-70V69.027z"/>
	</g>
	<path fill="#E8E8E8" d="M23.283,59.857h-84.491c-1.387,0-2.507-1.294-2.507-2.894c0-1.601,1.121-2.895,2.507-2.895h84.491
		c1.39,0,2.515,1.294,2.515,2.895C25.797,58.563,24.672,59.857,23.283,59.857z"/>
	<path fill="#C6C6C6" d="M3.175,35.082h-64.378c-1.389,0-2.512-1.296-2.512-2.894c0-1.599,1.123-2.895,2.512-2.895H3.175
		c1.389,0,2.517,1.296,2.517,2.895C5.69,33.786,4.564,35.082,3.175,35.082z"/>
</g>
<path fill="#C6C6C6" d="M1154.55-178.522l-4.455-4.456c-0.288-0.432-0.863-0.432-1.295,0l-0.001,0.001l-1.642-1.642
	c2.733-3.353,2.542-8.375-0.657-11.44c-3.306-3.306-8.77-3.306-12.218,0c-3.308,3.306-3.308,8.769,0,12.218
	c3.104,3.103,8.085,3.254,11.541,0.532l1.655,1.655c-0.396,0.295-0.394,0.845,0.026,1.263l4.455,4.456
	c0.287,0.431,0.861,0.431,1.295,0l1.293-1.293C1154.98-177.516,1154.98-178.091,1154.55-178.522z M1136.151-185.709
	c-2.301-2.444-2.444-6.181,0-8.625c2.442-2.444,6.324-2.444,8.624,0c2.443,2.444,2.443,6.181,0,8.625
	S1138.45-183.265,1136.151-185.709z"/>
<path fill="#4BBF53" d="M-8.088,279.967l-9.631-9.631l-4.2,4.194l13.829,13.832l26.979-26.971l-4.201-4.196L-8.088,279.967z"/>
<g>
	<path fill="#C84D30" d="M491.693,289.002c-0.668,0-1.338-0.259-1.843-0.765l-27.354-27.354c-0.994-1.013-0.994-2.658,0-3.672
		c1.012-1.019,2.674-1.019,3.671,0l27.353,27.354c1.014,1.013,1.014,2.658,0,3.661C493.032,288.743,492.361,289.002,491.693,289.002
		z"/>
	<path fill="#C84D30" d="M464.339,289.002c-0.668,0-1.33-0.259-1.843-0.765c-1.012-1.014-1.012-2.659,0-3.672l27.354-27.345
		c1.021-1.02,2.659-1.02,3.669,0c1.014,1.01,1.014,2.649,0,3.662l-27.353,27.354C465.678,288.743,464.999,289.002,464.339,289.002z"
		/>
</g>
<g>
	<path fill="#DDDDDD" d="M1540.375,226.09h-11.85l45.898-106.199h10.5l45.602,106.199h-12l-11.701-27.898h-54.898L1540.375,226.09z
		 M1555.975,188.291h46.802l-23.4-56.4L1555.975,188.291z"/>
	<path fill="#DDDDDD" d="M1689.774,180.656c0-6.055-1.602-10.57-4.801-13.549c-3.2-2.979-7.853-4.469-13.949-4.469
		c-4.2,0-8.102,0.75-11.7,2.25c-3.6,1.5-6.65,3.502-9.149,6l-5.698-6.75c2.896-2.897,6.725-5.299,11.475-7.199
		c4.748-1.898,10.125-2.852,16.125-2.852c3.799,0,7.351,0.525,10.65,1.576c3.3,1.049,6.198,2.625,8.698,4.725
		c2.499,2.101,4.448,4.75,5.852,7.949c1.398,3.202,2.101,6.952,2.101,11.25v30.75c0,2.701,0.099,5.502,0.3,8.4
		c0.198,2.9,0.5,5.352,0.899,7.35h-9.149c-0.3-1.699-0.552-3.548-0.75-5.549c-0.201-2-0.3-3.949-0.3-5.852h-0.301
		c-3.201,4.701-6.824,8.076-10.875,10.125s-8.926,3.074-14.625,3.074c-2.699,0-5.476-0.377-8.324-1.127
		c-2.851-0.753-5.452-1.979-7.801-3.688c-2.352-1.706-4.301-3.914-5.851-6.623c-1.552-2.709-2.324-6.021-2.324-9.936
		c0-5.418,1.374-9.707,4.125-12.865c2.749-3.158,6.425-5.519,11.023-7.072c4.601-1.559,9.875-2.562,15.825-3.012
		c5.947-0.451,12.123-0.68,18.524-0.68V180.656L1689.774,180.656z M1686.774,190.99c-4.2,0-8.427,0.176-12.676,0.523
		c-4.252,0.354-8.101,1.051-11.551,2.102c-3.449,1.051-6.274,2.576-8.476,4.574c-2.201,2.002-3.301,4.648-3.301,7.949
		c0,2.5,0.475,4.603,1.426,6.301c0.949,1.701,2.226,3.074,3.824,4.125c1.6,1.051,3.375,1.801,5.325,2.25
		c1.948,0.449,3.924,0.676,5.925,0.676c3.602,0,6.801-0.623,9.602-1.875c2.798-1.249,5.147-2.948,7.049-5.102
		c1.898-2.147,3.351-4.625,4.352-7.426c1-2.798,1.5-5.748,1.5-8.85v-5.25L1686.774,190.99L1686.774,190.99z"/>
</g>
<g>
	<g>
		<rect x="-70.42" y="98.578" fill="#FFFFFF" width="151.663" height="25.577"/>
		<path fill="#EFEFEF" d="M81.662,124.638H-70.84V98.096H81.662V124.638z M-70,123.673H80.823V99.061H-70V123.673z"/>
	</g>
	<path fill="#E8E8E8" d="M23.283,114.503h-84.491c-1.387,0-2.507-1.294-2.507-2.894c0-1.601,1.121-2.895,2.507-2.895h84.491
		c1.39,0,2.515,1.294,2.515,2.895C25.797,113.209,24.672,114.503,23.283,114.503z"/>
	<path fill="#C6C6C6" d="M3.175,89.728h-64.378c-1.389,0-2.512-1.296-2.512-2.894c0-1.599,1.123-2.895,2.512-2.895H3.175
		c1.389,0,2.517,1.296,2.517,2.895C5.69,88.432,4.564,89.728,3.175,89.728z"/>
</g>
<g>
	<g>
		<rect x="-70.42" y="153.224" fill="#FFFFFF" width="151.663" height="25.577"/>
		<path fill="#EFEFEF" d="M81.662,179.283H-70.84v-26.542H81.662V179.283z M-70,178.318H80.823v-24.612H-70V178.318z"/>
	</g>
	<path fill="#E8E8E8" d="M23.283,169.148h-84.491c-1.387,0-2.507-1.294-2.507-2.894c0-1.601,1.121-2.895,2.507-2.895h84.491
		c1.39,0,2.515,1.294,2.515,2.895C25.797,167.854,24.672,169.148,23.283,169.148z"/>
	<path fill="#C6C6C6" d="M3.175,144.373h-64.378c-1.389,0-2.512-1.296-2.512-2.894c0-1.599,1.123-2.895,2.512-2.895H3.175
		c1.389,0,2.517,1.296,2.517,2.895C5.69,143.077,4.564,144.373,3.175,144.373z"/>
</g>
<g>
	<g>
		<rect x="-70.42" y="207.869" fill="#FFFFFF" width="151.663" height="25.577"/>
		<path fill="#EFEFEF" d="M81.662,233.929H-70.84v-26.542H81.662V233.929z M-70,232.964H80.823v-24.612H-70V232.964z"/>
	</g>
	<path fill="#E8E8E8" d="M23.283,223.794h-84.491c-1.387,0-2.507-1.294-2.507-2.894c0-1.601,1.121-2.895,2.507-2.895h84.491
		c1.39,0,2.515,1.294,2.515,2.895C25.797,222.5,24.672,223.794,23.283,223.794z"/>
	<path fill="#C6C6C6" d="M3.175,199.019h-64.378c-1.389,0-2.512-1.296-2.512-2.894c0-1.599,1.123-2.895,2.512-2.895H3.175
		c1.389,0,2.517,1.296,2.517,2.895C5.69,197.723,4.564,199.019,3.175,199.019z"/>
</g>
<g>
	<g>
		<rect x="316.534" y="98.579" fill="#FFFFFF" width="151.662" height="25.577"/>
		<path fill="#EFEFEF" d="M468.616,124.639H316.114V98.097h152.502V124.639z M316.954,123.674h150.822V99.062H316.954V123.674z"/>
	</g>
	<path fill="#E8E8E8" d="M410.237,114.504h-84.491c-1.387,0-2.507-1.294-2.507-2.894c0-1.601,1.12-2.895,2.507-2.895h84.491
		c1.389,0,2.514,1.294,2.514,2.895C412.751,113.21,411.626,114.504,410.237,114.504z"/>
	<path fill="#C6C6C6" d="M390.13,89.729h-64.379c-1.389,0-2.512-1.296-2.512-2.894c0-1.599,1.123-2.895,2.512-2.895h64.379
		c1.389,0,2.517,1.296,2.517,2.895C392.644,88.433,391.519,89.729,390.13,89.729z"/>
</g>
<g>
	<g>
		<rect x="316.534" y="158.192" fill="#FFFFFF" width="151.662" height="25.577"/>
		<path fill="#EFEFEF" d="M468.616,184.252H316.114V157.71h152.502V184.252z M316.954,183.287h150.822v-24.612H316.954V183.287z"/>
	</g>
	<path fill="#E8E8E8" d="M410.237,174.117h-84.491c-1.387,0-2.507-1.294-2.507-2.894c0-1.601,1.12-2.895,2.507-2.895h84.491
		c1.389,0,2.514,1.294,2.514,2.895C412.751,172.823,411.626,174.117,410.237,174.117z"/>
	<path fill="#C6C6C6" d="M390.13,149.342h-64.379c-1.389,0-2.512-1.296-2.512-2.894c0-1.599,1.123-2.895,2.512-2.895h64.379
		c1.389,0,2.517,1.296,2.517,2.895C392.644,148.046,391.519,149.342,390.13,149.342z"/>
</g>
<g>
	<g>
		<rect x="504.179" y="98.578" fill="#FFFFFF" width="151.662" height="25.577"/>
		<path fill="#EFEFEF" d="M656.261,124.638H503.759V98.096h152.502V124.638z M504.599,123.673h150.822V99.061H504.599V123.673z"/>
	</g>
	<path fill="#E8E8E8" d="M597.882,114.503h-84.491c-1.387,0-2.507-1.294-2.507-2.894c0-1.601,1.12-2.895,2.507-2.895h84.491
		c1.389,0,2.514,1.294,2.514,2.895C600.396,113.209,599.271,114.503,597.882,114.503z"/>
	<path fill="#C6C6C6" d="M577.774,89.728h-64.379c-1.389,0-2.512-1.296-2.512-2.894c0-1.599,1.123-2.895,2.512-2.895h64.379
		c1.389,0,2.517,1.296,2.517,2.895C580.288,88.432,579.163,89.728,577.774,89.728z"/>
</g>
<g>
	<g>
		<rect x="504.179" y="158.191" fill="#FFFFFF" width="151.662" height="25.577"/>
		<path fill="#EFEFEF" d="M656.261,184.251H503.759v-26.542h152.502V184.251z M504.599,183.286h150.822v-24.612H504.599V183.286z"/>
	</g>
	<path fill="#E8E8E8" d="M597.882,174.116h-84.491c-1.387,0-2.507-1.294-2.507-2.894c0-1.601,1.12-2.895,2.507-2.895h84.491
		c1.389,0,2.514,1.294,2.514,2.895C600.396,172.822,599.271,174.116,597.882,174.116z"/>
	<path fill="#C6C6C6" d="M577.774,149.341h-64.379c-1.389,0-2.512-1.296-2.512-2.894c0-1.599,1.123-2.895,2.512-2.895h64.379
		c1.389,0,2.517,1.296,2.517,2.895C580.288,148.045,579.163,149.341,577.774,149.341z"/>
</g>
</svg>
