<?xml version="1.0" encoding="utf-8"?>
<!-- Generator: Adobe Illustrator 16.0.4, SVG Export Plug-In . SVG Version: 6.00 Build 0)  -->
<!DOCTYPE svg PUBLIC "-//W3C//DTD SVG 1.1//EN" "http://www.w3.org/Graphics/SVG/1.1/DTD/svg11.dtd">
<svg version="1.1" id="Layer_1" xmlns="http://www.w3.org/2000/svg" xmlns:xlink="http://www.w3.org/1999/xlink" x="0px" y="0px"
	 width="960px" height="320px" viewBox="0 0 960 320" enable-background="new 0 0 960 320" xml:space="preserve">
<rect x="484.967" y="-1" fill="#F9F9F9" width="475.033" height="321"/>
<rect x="623.488" y="31.346" fill="none" stroke="#E4A793" stroke-miterlimit="10" width="197.989" height="200.241"/>
<circle fill="#FFFFFF" cx="238.486" cy="260.856" r="26.999"/>
<rect y="-1" fill="#F9F9F9" width="475.032" height="321"/>
<g>
	<g>
		<rect x="172.235" y="-209.419" fill="#FFFFFF" width="200.167" height="33.756"/>
		<path fill="#EFEFEF" d="M372.955-175.026H171.681v-35.03h201.273L372.955-175.026L372.955-175.026z M172.79-176.3h199.058v-32.483
			H172.79V-176.3z"/>
	</g>
	<path fill="#E8E8E8" d="M295.906-188.403H184.393c-1.831,0-3.308-1.708-3.308-3.82c0-2.113,1.479-3.821,3.308-3.821h111.513
		c1.834,0,3.319,1.708,3.319,3.821C299.223-190.109,297.738-188.403,295.906-188.403z"/>
	<path fill="#C6C6C6" d="M269.366-221.101H184.4c-1.833,0-3.315-1.71-3.315-3.82c0-2.11,1.482-3.821,3.315-3.821h84.966
		c1.833,0,3.322,1.71,3.322,3.821C272.686-222.812,271.2-221.101,269.366-221.101z"/>
</g>
<path fill="#C6C6C6" d="M1154.55-178.522l-4.455-4.456c-0.288-0.432-0.861-0.432-1.295,0l-0.001,0.001l-1.642-1.642
	c2.733-3.353,2.542-8.375-0.657-11.44c-3.306-3.306-8.77-3.306-12.218,0c-3.308,3.306-3.308,8.769,0,12.218
	c3.104,3.103,8.085,3.254,11.541,0.532l1.655,1.655c-0.396,0.295-0.396,0.845,0.024,1.263l4.455,4.456
	c0.287,0.431,0.861,0.431,1.295,0l1.293-1.293C1154.98-177.516,1154.98-178.091,1154.55-178.522z M1136.151-185.709
	c-2.303-2.444-2.444-6.181,0-8.625c2.44-2.444,6.322-2.444,8.624,0c2.441,2.444,2.441,6.181,0,8.625
	C1142.332-183.265,1138.45-183.265,1136.151-185.709z"/>
<path fill="#4BBF53" d="M231.912,279.967l-9.631-9.631l-4.2,4.193l13.829,13.832l26.979-26.971l-4.201-4.195L231.912,279.967z"/>
<g>
	<path fill="#C84D30" d="M731.693,289.002c-0.668,0-1.338-0.259-1.845-0.766l-27.354-27.354c-0.994-1.013-0.994-2.657,0-3.672
		c1.012-1.021,2.674-1.021,3.671,0l27.354,27.354c1.015,1.014,1.015,2.658,0,3.662C733.032,288.743,732.361,289.002,731.693,289.002
		z"/>
	<path fill="#C84D30" d="M704.339,289.002c-0.668,0-1.33-0.259-1.843-0.766c-1.012-1.014-1.012-2.658,0-3.672l27.354-27.344
		c1.021-1.021,2.659-1.021,3.669,0c1.016,1.01,1.016,2.647,0,3.66l-27.353,27.354C705.678,288.743,704.999,289.002,704.339,289.002z
		"/>
</g>
<g>
	<path fill="#DDDDDD" d="M1540.375,226.09h-11.85l45.896-106.199h10.5l45.604,106.199h-12l-11.701-27.898h-54.898L1540.375,226.09z
		 M1555.975,188.291h46.804l-23.4-56.4L1555.975,188.291z"/>
	<path fill="#DDDDDD" d="M1689.774,180.656c0-6.055-1.604-10.57-4.803-13.549c-3.198-2.979-7.853-4.469-13.947-4.469
		c-4.2,0-8.104,0.75-11.7,2.25c-3.6,1.5-6.65,3.502-9.149,6l-5.698-6.75c2.896-2.897,6.727-5.301,11.477-7.201
		c4.748-1.898,10.125-2.852,16.125-2.852c3.799,0,7.351,0.525,10.648,1.576c3.302,1.049,6.198,2.625,8.698,4.725
		c2.499,2.101,4.448,4.75,5.854,7.949c1.396,3.202,2.101,6.952,2.101,11.25v30.75c0,2.701,0.1,5.502,0.3,8.398
		c0.198,2.9,0.5,5.354,0.899,7.352h-9.149c-0.3-1.697-0.552-3.548-0.75-5.549c-0.2-2-0.3-3.949-0.3-5.854h-0.301
		c-3.201,4.701-6.824,8.076-10.875,10.125s-8.926,3.074-14.625,3.074c-2.699,0-5.477-0.377-8.324-1.127
		c-2.851-0.753-5.452-1.979-7.801-3.688c-2.354-1.706-4.301-3.914-5.852-6.623c-1.553-2.709-2.323-6.021-2.323-9.937
		c0-5.419,1.374-9.706,4.125-12.864c2.749-3.158,6.425-5.521,11.021-7.072c4.603-1.559,9.875-2.562,15.825-3.012
		c5.947-0.451,12.123-0.682,18.524-0.682V180.656L1689.774,180.656z M1686.774,190.99c-4.2,0-8.429,0.176-12.678,0.523
		c-4.252,0.354-8.101,1.051-11.551,2.102c-3.449,1.051-6.272,2.576-8.476,4.574c-2.201,2.002-3.303,4.646-3.303,7.949
		c0,2.5,0.477,4.603,1.428,6.301c0.947,1.701,2.226,3.074,3.822,4.125c1.602,1.051,3.375,1.801,5.325,2.25
		c1.948,0.449,3.924,0.676,5.925,0.676c3.604,0,6.803-0.623,9.604-1.875c2.798-1.249,5.146-2.948,7.049-5.102
		c1.898-2.147,3.352-4.625,4.354-7.428c1-2.798,1.5-5.748,1.5-8.852v-5.25L1686.774,190.99L1686.774,190.99z"/>
</g>
<path fill="#E4A793" d="M764.377,35.167H652.865c-1.831,0-3.31-1.708-3.31-3.82c0-2.112,1.479-3.82,3.31-3.82h111.512
	c1.834,0,3.319,1.708,3.319,3.82C767.695,33.458,766.21,35.167,764.377,35.167z"/>
<path fill="#C6C6C6" d="M236.584-148.979h-52.186c-1.833,0-3.315-1.71-3.315-3.819c0-2.111,1.482-3.821,3.315-3.821h52.186
	c1.833,0,3.322,1.71,3.322,3.821C239.903-150.689,238.418-148.979,236.584-148.979z"/>
<g>
	<g>
		<rect x="649.557" y="128.762" fill="#FFFFFF" width="151.663" height="25.577"/>
		<path fill="#EFEFEF" d="M801.639,154.821H649.137v-26.542h152.502V154.821L801.639,154.821z M649.977,153.856H800.8v-24.612
			H649.977V153.856z"/>
	</g>
	<path fill="#E8E8E8" d="M743.26,144.686h-84.49c-1.389,0-2.508-1.294-2.508-2.894c0-1.601,1.121-2.895,2.508-2.895h84.49
		c1.391,0,2.516,1.294,2.516,2.895C745.773,143.393,744.648,144.686,743.26,144.686z"/>
	<path fill="#C6C6C6" d="M723.151,119.911h-64.378c-1.39,0-2.513-1.296-2.513-2.894c0-1.599,1.123-2.895,2.513-2.895h64.378
		c1.39,0,2.517,1.296,2.517,2.895C725.666,118.615,724.541,119.911,723.151,119.911z"/>
</g>
<g>
	<g>
		<rect x="649.557" y="69.42" fill="#FFFFFF" width="151.663" height="25.577"/>
		<path fill="#EFEFEF" d="M801.639,95.479H649.137V68.937h152.502V95.479L801.639,95.479z M649.977,94.514H800.8V69.902H649.977
			V94.514z"/>
	</g>
	<path fill="#E8E8E8" d="M743.26,85.344h-84.49c-1.389,0-2.508-1.294-2.508-2.894c0-1.601,1.121-2.895,2.508-2.895h84.49
		c1.391,0,2.516,1.294,2.516,2.895C745.773,84.051,744.648,85.344,743.26,85.344z"/>
	<path fill="#C6C6C6" d="M723.151,60.569h-64.378c-1.39,0-2.513-1.296-2.513-2.894c0-1.599,1.123-2.895,2.513-2.895h64.378
		c1.39,0,2.517,1.296,2.517,2.895C725.666,59.273,724.541,60.569,723.151,60.569z"/>
</g>
<g>
	<g>
		<rect x="649.557" y="183.407" fill="#FFFFFF" width="151.663" height="25.577"/>
		<path fill="#EFEFEF" d="M801.639,209.467H649.137v-26.542h152.502V209.467L801.639,209.467z M649.977,208.502H800.8v-24.611
			H649.977V208.502z"/>
	</g>
	<path fill="#E8E8E8" d="M743.26,199.332h-84.49c-1.389,0-2.508-1.294-2.508-2.895c0-1.602,1.121-2.896,2.508-2.896h84.49
		c1.391,0,2.516,1.294,2.516,2.896C745.773,198.038,744.648,199.332,743.26,199.332z"/>
	<path fill="#C6C6C6" d="M698.312,174.557h-39.54c-1.39,0-2.513-1.295-2.513-2.894s1.123-2.896,2.513-2.896h39.54
		c1.389,0,2.518,1.297,2.518,2.896C700.828,173.262,699.703,174.557,698.312,174.557z"/>
</g>
<g>
	<g>
		<rect x="176.634" y="116.838" fill="#FFFFFF" width="151.663" height="25.577"/>
		<path fill="#EFEFEF" d="M328.716,142.897H176.214v-26.542h152.502V142.897z M177.054,141.932h150.823V117.32H177.054V141.932z"/>
	</g>
	<path fill="#E8E8E8" d="M270.337,132.762h-84.491c-1.388,0-2.507-1.294-2.507-2.894c0-1.601,1.121-2.895,2.507-2.895h84.491
		c1.39,0,2.515,1.294,2.515,2.895C272.851,131.469,271.726,132.762,270.337,132.762z"/>
	<path fill="#C6C6C6" d="M250.229,107.987h-64.378c-1.389,0-2.512-1.296-2.512-2.894c0-1.599,1.123-2.895,2.512-2.895h64.378
		c1.39,0,2.517,1.296,2.517,2.895C252.743,106.691,251.618,107.987,250.229,107.987z"/>
</g>
<g>
	<g>
		<rect x="176.634" y="57.496" fill="#FFFFFF" width="151.663" height="25.577"/>
		<path fill="#EFEFEF" d="M328.716,83.555H176.214V57.013h152.502V83.555z M177.054,82.59h150.823V57.978H177.054V82.59z"/>
	</g>
	<path fill="#E8E8E8" d="M270.337,73.42h-84.491c-1.388,0-2.507-1.294-2.507-2.894c0-1.601,1.121-2.895,2.507-2.895h84.491
		c1.39,0,2.515,1.294,2.515,2.895C272.851,72.127,271.726,73.42,270.337,73.42z"/>
	<path fill="#C6C6C6" d="M250.229,48.645h-64.378c-1.389,0-2.512-1.296-2.512-2.894c0-1.599,1.123-2.895,2.512-2.895h64.378
		c1.39,0,2.517,1.296,2.517,2.895C252.743,47.349,251.618,48.645,250.229,48.645z"/>
</g>
<path fill="#C6C6C6" d="M225.39,162.635h-39.54c-1.389,0-2.512-1.296-2.512-2.896c0-1.599,1.123-2.896,2.512-2.896h39.54
	c1.389,0,2.518,1.297,2.518,2.896C227.905,161.339,226.78,162.635,225.39,162.635z"/>
<rect x="177.133" y="172.405" fill="#FFFFFF" width="151.227" height="25.503"/>
<path fill="#C84D30" d="M328.776,198.389H176.714v-26.465h152.062V198.389z M177.552,197.427H327.94v-24.54H177.552V197.427z"/>
<path fill="#E8E8E8" d="M270.566,188.283h-84.248c-1.383,0-2.5-1.29-2.5-2.887c0-1.596,1.118-2.887,2.5-2.887h84.248
	c1.385,0,2.507,1.291,2.507,2.887C273.072,186.993,271.95,188.283,270.566,188.283z"/>
<polygon fill="#E4A793" points="177.832,229.391 328.219,229.391 328.219,204.85 201.186,204.85 196.653,201.096 192.624,204.85 
	177.832,204.85 "/>
<path fill="#C84D30" d="M320.332,178.089h-5.852l-4.138,4.14v5.853l4.138,4.138h5.852l4.14-4.138v-5.853L320.332,178.089z
	 M318.417,190.2h-2.019v-2.021h2.019V190.2z M318.417,186.163h-2.019v-5.046h2.019V186.163z"/>
<path fill="#7F7F7F" d="M270.566,219.62h-84.248c-1.383,0-2.5-1.29-2.5-2.886s1.118-2.887,2.5-2.887h84.248
	c1.385,0,2.507,1.291,2.507,2.887C273.072,218.33,271.95,219.62,270.566,219.62z"/>
</svg>
