<svg xmlns="http://www.w3.org/2000/svg" width="960" height="320" viewBox="-240 0 960 320"><path fill="#F9F9F9" d="M244.967-1H720v321H244.967z"/><circle fill="#FFF" cx="-1.514" cy="272.779" r="26.999"/><path fill="#F9F9F9" d="M-240-1h475.032v321H-240z"/><path fill="#FFF" d="M-70.42 108.514H81.243v25.577H-70.42z"/><path fill="#EFEFEF" d="M81.662 134.573H-70.84v-26.542H81.662v26.542zM-70 133.608H80.823v-24.612H-70v24.612z"/><path fill="#E8E8E8" d="M23.283 124.438h-84.491c-1.387 0-2.507-1.294-2.507-2.894 0-1.601 1.121-2.895 2.507-2.895h84.491c1.39 0 2.515 1.294 2.515 2.895-.001 1.601-1.126 2.894-2.515 2.894z"/><path fill="#C6C6C6" d="M3.175 99.663h-64.378c-1.389 0-2.512-1.296-2.512-2.894 0-1.599 1.123-2.895 2.512-2.895H3.175c1.389 0 2.517 1.296 2.517 2.895-.002 1.598-1.128 2.894-2.517 2.894zM1154.55-178.522l-4.455-4.456c-.288-.432-.863-.432-1.295 0l-.001.001-1.642-1.642c2.733-3.353 2.542-8.375-.657-11.44-3.306-3.306-8.77-3.306-12.218 0-3.308 3.306-3.308 8.769 0 12.218 3.104 3.103 8.085 3.254 11.541.532l1.655 1.655c-.396.295-.394.845.026 1.263l4.455 4.456c.287.431.861.431 1.295 0l1.293-1.293c.433-.288.433-.863.003-1.294zm-18.399-7.187c-2.301-2.444-2.444-6.181 0-8.625 2.442-2.444 6.324-2.444 8.624 0 2.443 2.444 2.443 6.181 0 8.625s-6.325 2.444-8.624 0z"/><path fill="#4BBF53" d="M-8.088 279.967l-9.631-9.631-4.2 4.194 13.829 13.832 26.979-26.971-4.201-4.196-22.776 22.772z"/><g fill="#C84D30"><path d="M491.693 289.002a2.604 2.604 0 0 1-1.843-.765l-27.354-27.354a2.634 2.634 0 0 1 0-3.672c1.012-1.019 2.674-1.019 3.671 0l27.353 27.354a2.583 2.583 0 0 1 0 3.661 2.506 2.506 0 0 1-1.827.776z"/><path d="M464.339 289.002a2.6 2.6 0 0 1-1.843-4.437l27.354-27.345a2.582 2.582 0 0 1 3.669 0 2.584 2.584 0 0 1 0 3.662l-27.353 27.354a2.55 2.55 0 0 1-1.827.766z"/></g><g fill="#DDD"><path d="M1540.375 226.09h-11.85l45.898-106.199h10.5l45.602 106.199h-12l-11.701-27.898h-54.898l-11.551 27.898zm15.6-37.799h46.802l-23.4-56.4-23.402 56.4zM1689.774 180.656c0-6.055-1.602-10.57-4.801-13.549-3.2-2.979-7.853-4.469-13.949-4.469-4.2 0-8.102.75-11.7 2.25-3.6 1.5-6.65 3.502-9.149 6l-5.698-6.75c2.896-2.897 6.725-5.299 11.475-7.199 4.748-1.898 10.125-2.852 16.125-2.852 3.799 0 7.351.525 10.65 1.576 3.3 1.049 6.198 2.625 8.698 4.725 2.499 2.101 4.448 4.75 5.852 7.949 1.398 3.202 2.101 6.952 2.101 11.25v30.75c0 2.701.099 5.502.3 8.4.198 2.9.5 5.352.899 7.35h-9.149a73.763 73.763 0 0 1-.75-5.549c-.201-2-.3-3.949-.3-5.852h-.301c-3.201 4.701-6.824 8.076-10.875 10.125s-8.926 3.074-14.625 3.074c-2.699 0-5.476-.377-8.324-1.127a23.207 23.207 0 0 1-7.801-3.688c-2.352-1.706-4.301-3.914-5.851-6.623-1.552-2.709-2.324-6.021-2.324-9.936 0-5.418 1.374-9.707 4.125-12.865 2.749-3.158 6.425-5.519 11.023-7.072 4.601-1.559 9.875-2.562 15.825-3.012a245.08 245.08 0 0 1 18.524-.68v-2.226zm-3 10.334c-4.2 0-8.427.176-12.676.523-4.252.354-8.101 1.051-11.551 2.102-3.449 1.051-6.274 2.576-8.476 4.574-2.201 2.002-3.301 4.648-3.301 7.949 0 2.5.475 4.603 1.426 6.301a11.662 11.662 0 0 0 3.824 4.125c1.6 1.051 3.375 1.801 5.325 2.25 1.948.449 3.924.676 5.925.676 3.602 0 6.801-.623 9.602-1.875 2.798-1.249 5.147-2.948 7.049-5.102 1.898-2.147 3.351-4.625 4.352-7.426 1-2.798 1.5-5.748 1.5-8.85v-5.25l-2.999.003z"/></g><g><path fill="#FFF" d="M-70.42 163.159H81.243v25.577H-70.42z"/><path fill="#EFEFEF" d="M81.662 189.219H-70.84v-26.542H81.662v26.542zM-70 188.254H80.823v-24.612H-70v24.612z"/><path fill="#E8E8E8" d="M23.283 179.084h-84.491c-1.387 0-2.507-1.294-2.507-2.894 0-1.601 1.121-2.895 2.507-2.895h84.491c1.39 0 2.515 1.294 2.515 2.895-.001 1.6-1.126 2.894-2.515 2.894z"/><path fill="#C6C6C6" d="M-21.664 154.309h-39.54c-1.389 0-2.512-1.296-2.512-2.894 0-1.599 1.123-2.895 2.512-2.895h39.54c1.389 0 2.517 1.296 2.517 2.895-.002 1.598-1.127 2.894-2.517 2.894z"/></g><g><path fill="#FFF" d="M406.652 103.547h151.662v25.577H406.652z"/><path fill="#EFEFEF" d="M558.734 129.606H406.232v-26.542h152.502v26.542zm-151.662-.964h150.822V104.03H407.072v24.612z"/><path fill="#E8E8E8" d="M500.355 119.472h-84.491c-1.387 0-2.507-1.294-2.507-2.894 0-1.601 1.12-2.895 2.507-2.895h84.491c1.389 0 2.514 1.294 2.514 2.895 0 1.6-1.125 2.894-2.514 2.894z"/><path fill="#FFF" d="M406.652 153.225h151.662v25.577H406.652z"/><path fill="#EFEFEF" d="M558.734 179.284H406.232v-26.542h152.502v26.542zm-151.662-.965h150.822v-24.612H407.072v24.612z"/><path fill="#E8E8E8" d="M500.355 169.149h-84.491c-1.387 0-2.507-1.294-2.507-2.894 0-1.601 1.12-2.895 2.507-2.895h84.491c1.389 0 2.514 1.294 2.514 2.895 0 1.6-1.125 2.894-2.514 2.894z"/></g></svg>