<?xml version="1.0" encoding="utf-8"?>
<!-- Generator: Adobe Illustrator 16.0.4, SVG Export Plug-In . SVG Version: 6.00 Build 0)  -->
<!DOCTYPE svg PUBLIC "-//W3C//DTD SVG 1.1//EN" "http://www.w3.org/Graphics/SVG/1.1/DTD/svg11.dtd">
<svg version="1.1" id="Layer_1" xmlns="http://www.w3.org/2000/svg" xmlns:xlink="http://www.w3.org/1999/xlink" x="0px" y="0px"
	 width="480px" height="320px" viewBox="0 0 480 320" enable-background="new 0 0 480 320" xml:space="preserve">
<rect x="-14.577" y="-10.749" fill="#CCCCCC" width="509.154" height="340.497"/>
<circle fill="#FFFFFF" cx="136.256" cy="235.938" r="16.486"/>
<rect x="66.799" y="98.499" fill="#FFFFFF" width="155.925" height="105.365"/>
<rect x="254.672" y="98.499" fill="#FFFFFF" width="155.926" height="105.365"/>
<g>
	<rect x="94.486" y="130.976" fill="#FFFFFF" stroke="#B7B7B7" stroke-miterlimit="10" width="92.606" height="15.618"/>
	<path fill="#FFFFFF" stroke="#B7B7B7" stroke-miterlimit="10" d="M187.348,146.888H94.229v-16.206h93.119V146.888z M94.743,146.298
		h92.093v-15.027H94.743V146.298z"/>
</g>
<path fill="#DBDBDB" d="M151.702,140.699h-51.591c-0.847,0-1.531-0.79-1.531-1.767c0-0.978,0.685-1.769,1.531-1.769h51.591
	c0.849,0,1.536,0.791,1.536,1.769C153.236,139.909,152.55,140.699,151.702,140.699z"/>
<path fill="#999999" d="M139.423,125.571h-39.31c-0.848,0-1.534-0.791-1.534-1.767c0-0.977,0.686-1.768,1.534-1.768h39.31
	c0.848,0,1.537,0.791,1.537,1.768C140.959,124.78,140.271,125.571,139.423,125.571z"/>
<path fill="#4BBF53" d="M132.941,240.558l-4.857-4.857l-2.118,2.114l6.974,6.977l13.606-13.603l-2.119-2.115L132.941,240.558z"/>
<circle fill="#FFFFFF" cx="335.363" cy="235.938" r="16.486"/>
<g>
	<path fill="#C84D30" d="M340.552,243.1c-0.252,0-0.507-0.098-0.698-0.29l-10.366-10.365c-0.375-0.384-0.375-1.007,0-1.391
		c0.385-0.387,1.014-0.387,1.392,0l10.365,10.365c0.384,0.384,0.384,1.007,0,1.387C341.06,243.002,340.805,243.1,340.552,243.1z"/>
	<path fill="#C84D30" d="M330.186,243.1c-0.253,0-0.504-0.098-0.698-0.29c-0.383-0.384-0.383-1.007,0-1.391l10.366-10.361
		c0.387-0.387,1.007-0.387,1.391,0c0.384,0.382,0.384,1.003,0,1.387l-10.365,10.365C330.693,243.002,330.437,243.1,330.186,243.1z"
		/>
</g>
<g>
	<rect x="94.486" y="164.343" fill="#FFFFFF" stroke="#B7B7B7" stroke-miterlimit="10" width="92.606" height="15.617"/>
	<path fill="#FFFFFF" stroke="#B7B7B7" stroke-miterlimit="10" d="M187.348,180.255H94.229v-16.207h93.119V180.255z M94.743,179.666
		h92.093v-15.028H94.743V179.666z"/>
</g>
<path fill="#DBDBDB" d="M151.702,174.066h-51.591c-0.847,0-1.531-0.79-1.531-1.768s0.685-1.768,1.531-1.768h51.591
	c0.849,0,1.536,0.79,1.536,1.768C153.236,173.276,152.55,174.066,151.702,174.066z"/>
<path fill="#999999" d="M124.257,158.938h-24.144c-0.848,0-1.534-0.791-1.534-1.767c0-0.977,0.686-1.769,1.534-1.769h24.144
	c0.848,0,1.537,0.792,1.537,1.769C125.792,158.147,125.105,158.938,124.257,158.938z"/>
<g>
	<rect x="289.061" y="127.943" fill="#FFFFFF" stroke="#B7B7B7" stroke-miterlimit="10" width="92.605" height="15.617"/>
	<path fill="#FFFFFF" stroke="#B7B7B7" stroke-miterlimit="10" d="M381.922,143.854h-93.117v-16.206h93.117V143.854z
		 M289.316,143.267h92.092v-15.028h-92.092V143.267z"/>
</g>
<path fill="#DBDBDB" d="M346.275,137.668h-51.59c-0.848,0-1.531-0.791-1.531-1.768c0-0.979,0.684-1.768,1.531-1.768h51.59
	c0.85,0,1.535,0.789,1.535,1.768C347.811,136.877,347.125,137.668,346.275,137.668z"/>
<g>
	<rect x="289.061" y="158.276" fill="#FFFFFF" stroke="#B7B7B7" stroke-miterlimit="10" width="92.605" height="15.618"/>
	<path fill="#FFFFFF" stroke="#B7B7B7" stroke-miterlimit="10" d="M381.922,174.188h-93.117v-16.206h93.117V174.188z
		 M289.316,173.599h92.092v-15.027h-92.092V173.599z"/>
</g>
<path fill="#DBDBDB" d="M346.275,168h-51.59c-0.848,0-1.531-0.79-1.531-1.767c0-0.978,0.684-1.769,1.531-1.769h51.59
	c0.85,0,1.535,0.791,1.535,1.769C347.811,167.21,347.125,168,346.275,168z"/>
</svg>
