<?xml version="1.0" encoding="utf-8"?>
<!-- Generator: Adobe Illustrator 16.0.4, SVG Export Plug-In . SVG Version: 6.00 Build 0)  -->
<!DOCTYPE svg PUBLIC "-//W3C//DTD SVG 1.1//EN" "http://www.w3.org/Graphics/SVG/1.1/DTD/svg11.dtd">
<svg version="1.1" id="Layer_1" xmlns="http://www.w3.org/2000/svg" xmlns:xlink="http://www.w3.org/1999/xlink" x="0px" y="0px"
	 width="960px" height="320px" viewBox="0 0 960 320" enable-background="new 0 0 960 320" xml:space="preserve">
<rect x="484.967" y="-1" fill="#F9F9F9" width="475.033" height="321"/>
<circle fill="#FFFFFF" cx="238.486" cy="272.778" r="26.999"/>
<rect y="-1" fill="#F9F9F9" width="475.032" height="321"/>
<g>
	<g>
		<rect x="169.58" y="108.514" fill="#FFFFFF" width="151.663" height="25.577"/>
		<path fill="#EFEFEF" d="M321.662,134.573H169.16v-26.542h152.502V134.573z M170,133.608h150.823v-24.612H170V133.608z"/>
	</g>
	<path fill="#E8E8E8" d="M263.283,124.438h-84.491c-1.387,0-2.507-1.294-2.507-2.894c0-1.601,1.121-2.895,2.507-2.895h84.491
		c1.39,0,2.515,1.294,2.515,2.895C265.797,123.145,264.672,124.438,263.283,124.438z"/>
	<path fill="#C6C6C6" d="M243.175,99.663h-64.378c-1.389,0-2.512-1.296-2.512-2.894c0-1.599,1.123-2.895,2.512-2.895h64.378
		c1.389,0,2.517,1.296,2.517,2.895C245.69,98.367,244.564,99.663,243.175,99.663z"/>
</g>
<path fill="#C6C6C6" d="M1154.55-178.522l-4.455-4.456c-0.288-0.432-0.862-0.432-1.295,0l-0.001,0.001l-1.642-1.642
	c2.733-3.353,2.542-8.375-0.657-11.44c-3.306-3.306-8.77-3.306-12.218,0c-3.308,3.306-3.308,8.769,0,12.218
	c3.104,3.103,8.085,3.254,11.541,0.532l1.655,1.655c-0.396,0.295-0.395,0.845,0.025,1.263l4.455,4.456
	c0.287,0.431,0.861,0.431,1.295,0l1.293-1.293C1154.98-177.516,1154.98-178.091,1154.55-178.522z M1136.151-185.709
	c-2.302-2.444-2.444-6.181,0-8.625c2.441-2.444,6.323-2.444,8.624,0c2.442,2.444,2.442,6.181,0,8.625
	C1142.332-183.265,1138.45-183.265,1136.151-185.709z"/>
<path fill="#4BBF53" d="M231.912,279.967l-9.631-9.631l-4.2,4.193l13.829,13.832l26.979-26.971l-4.201-4.195L231.912,279.967z"/>
<g>
	<path fill="#C84D30" d="M731.693,289.002c-0.668,0-1.338-0.259-1.844-0.766l-27.354-27.354c-0.994-1.013-0.994-2.658,0-3.672
		c1.012-1.02,2.674-1.02,3.671,0l27.353,27.354c1.015,1.014,1.015,2.658,0,3.662C733.032,288.743,732.361,289.002,731.693,289.002z"
		/>
	<path fill="#C84D30" d="M704.339,289.002c-0.668,0-1.33-0.259-1.843-0.766c-1.012-1.014-1.012-2.658,0-3.672l27.354-27.344
		c1.021-1.021,2.659-1.021,3.669,0c1.015,1.01,1.015,2.648,0,3.661l-27.353,27.354C705.678,288.743,704.999,289.002,704.339,289.002
		z"/>
</g>
<g>
	<path fill="#DDDDDD" d="M1540.375,226.09h-11.85l45.897-106.199h10.5l45.603,106.199h-12l-11.701-27.898h-54.898L1540.375,226.09z
		 M1555.975,188.291h46.803l-23.4-56.4L1555.975,188.291z"/>
	<path fill="#DDDDDD" d="M1689.774,180.656c0-6.055-1.603-10.57-4.802-13.549c-3.199-2.979-7.853-4.469-13.948-4.469
		c-4.2,0-8.103,0.75-11.7,2.25c-3.6,1.5-6.65,3.502-9.149,6l-5.698-6.75c2.896-2.897,6.726-5.3,11.476-7.2
		c4.748-1.898,10.125-2.852,16.125-2.852c3.799,0,7.351,0.525,10.649,1.576c3.301,1.049,6.198,2.625,8.698,4.725
		c2.499,2.101,4.448,4.75,5.853,7.949c1.397,3.202,2.101,6.952,2.101,11.25v30.75c0,2.701,0.099,5.502,0.3,8.399
		c0.198,2.9,0.5,5.353,0.899,7.351h-9.149c-0.3-1.698-0.552-3.548-0.75-5.549c-0.201-2-0.3-3.949-0.3-5.853h-0.301
		c-3.201,4.701-6.824,8.076-10.875,10.125s-8.926,3.074-14.625,3.074c-2.699,0-5.476-0.377-8.324-1.127
		c-2.851-0.753-5.452-1.979-7.801-3.688c-2.353-1.706-4.301-3.914-5.851-6.623c-1.553-2.709-2.324-6.021-2.324-9.936
		c0-5.419,1.374-9.707,4.125-12.865c2.749-3.158,6.425-5.52,11.022-7.072c4.602-1.559,9.875-2.562,15.825-3.012
		c5.947-0.451,12.123-0.681,18.524-0.681V180.656L1689.774,180.656z M1686.774,190.99c-4.2,0-8.428,0.176-12.677,0.523
		c-4.252,0.354-8.101,1.051-11.551,2.102c-3.449,1.051-6.273,2.576-8.476,4.574c-2.201,2.002-3.302,4.647-3.302,7.949
		c0,2.5,0.476,4.603,1.427,6.301c0.948,1.701,2.226,3.074,3.823,4.125c1.601,1.051,3.375,1.801,5.325,2.25
		c1.948,0.449,3.924,0.676,5.925,0.676c3.603,0,6.802-0.623,9.603-1.875c2.798-1.249,5.147-2.948,7.049-5.102
		c1.898-2.147,3.351-4.625,4.353-7.427c1-2.798,1.5-5.748,1.5-8.851v-5.25L1686.774,190.99L1686.774,190.99z"/>
</g>
<g>
	<g>
		<rect x="169.58" y="163.159" fill="#FFFFFF" width="151.663" height="25.577"/>
		<path fill="#EFEFEF" d="M321.662,189.219H169.16v-26.542h152.502V189.219z M170,188.254h150.823v-24.611H170V188.254z"/>
	</g>
	<path fill="#E8E8E8" d="M263.283,179.084h-84.491c-1.387,0-2.507-1.294-2.507-2.895s1.121-2.895,2.507-2.895h84.491
		c1.39,0,2.515,1.294,2.515,2.895C265.797,177.79,264.672,179.084,263.283,179.084z"/>
	<path fill="#C6C6C6" d="M218.336,154.309h-39.54c-1.389,0-2.512-1.296-2.512-2.894c0-1.599,1.123-2.895,2.512-2.895h39.54
		c1.389,0,2.517,1.296,2.517,2.895C220.851,153.013,219.726,154.309,218.336,154.309z"/>
</g>
<g>
	<rect x="690.473" y="103.547" fill="#FFFFFF" width="151.662" height="25.577"/>
	<path fill="#EFEFEF" d="M842.555,129.606H690.053v-26.542h152.502V129.606z M690.893,128.642h150.822V104.03H690.893V128.642z"/>
</g>
<path fill="#E8E8E8" d="M784.176,119.472h-84.491c-1.387,0-2.507-1.294-2.507-2.894c0-1.601,1.12-2.895,2.507-2.895h84.491
	c1.39,0,2.515,1.294,2.515,2.895C786.689,118.178,785.564,119.472,784.176,119.472z"/>
<path fill="#C6C6C6" d="M669.303,121.113h-64.379c-1.389,0-2.512-1.296-2.512-2.894c0-1.599,1.123-2.895,2.512-2.895h64.379
	c1.39,0,2.518,1.296,2.518,2.895C671.816,119.817,670.691,121.113,669.303,121.113z"/>
<g>
	<rect x="690.473" y="153.225" fill="#FFFFFF" width="151.662" height="25.577"/>
	<path fill="#EFEFEF" d="M842.555,179.284H690.053v-26.542h152.502V179.284z M690.893,178.318h150.822v-24.611H690.893V178.318z"/>
</g>
<path fill="#E8E8E8" d="M784.176,169.148h-84.491c-1.387,0-2.507-1.293-2.507-2.894s1.12-2.896,2.507-2.896h84.491
	c1.39,0,2.515,1.295,2.515,2.896C786.689,167.855,785.564,169.148,784.176,169.148z"/>
<path fill="#C6C6C6" d="M649.432,170.79h-44.508c-1.389,0-2.512-1.296-2.512-2.894c0-1.6,1.123-2.896,2.512-2.896h44.508
	c1.39,0,2.518,1.296,2.518,2.896C651.945,169.494,650.82,170.79,649.432,170.79z"/>
</svg>
