<?xml version="1.0" encoding="utf-8"?>
<!-- Generator: Adobe Illustrator 16.0.4, SVG Export Plug-In . SVG Version: 6.00 Build 0)  -->
<!DOCTYPE svg PUBLIC "-//W3C//DTD SVG 1.1//EN" "http://www.w3.org/Graphics/SVG/1.1/DTD/svg11.dtd">
<svg version="1.1" id="Layer_1" xmlns="http://www.w3.org/2000/svg" xmlns:xlink="http://www.w3.org/1999/xlink" x="0px" y="0px"
	 width="960px" height="436.395px" viewBox="-240 -116.395 960 436.395" enable-background="new -240 -116.395 960 436.395"
	 xml:space="preserve">
<rect x="244.967" y="-116.395" fill="#F9F9F9" width="475.033" height="436.395"/>
<circle fill="#FFFFFF" cx="-1.514" cy="272.779" r="26.999"/>
<rect x="-240" y="-116.395" fill="#F9F9F9" width="475.032" height="436.395"/>
<g>
	<g>
		<rect x="428.393" y="-49.044" fill="#FFFFFF" width="108.182" height="18.244"/>
		<path fill="#EFEFEF" d="M536.873-30.457H428.094v-18.932h108.779V-30.457z M428.692-31.145h107.583v-17.556H428.692V-31.145z"/>
	</g>
	<path fill="#E8E8E8" d="M495.231-37.686h-60.267c-0.99,0-1.789-0.923-1.789-2.064c0-1.142,0.799-2.064,1.789-2.064h60.267
		c0.991,0,1.794,0.923,1.794,2.064C497.025-38.608,496.223-37.686,495.231-37.686z"/>
	<path fill="#C6C6C6" d="M480.889-55.358h-45.921c-0.991,0-1.792-0.924-1.792-2.064c0-1.14,0.801-2.064,1.792-2.064h45.921
		c0.99,0,1.795,0.924,1.795,2.064C482.683-56.282,481.879-55.358,480.889-55.358z"/>
</g>
<path fill="#C6C6C6" d="M1154.55-178.522l-4.455-4.456c-0.288-0.432-0.863-0.432-1.295,0l-0.001,0.001l-1.642-1.642
	c2.733-3.353,2.542-8.375-0.657-11.44c-3.306-3.306-8.77-3.306-12.218,0c-3.308,3.306-3.308,8.769,0,12.218
	c3.104,3.103,8.085,3.254,11.541,0.532l1.655,1.655c-0.396,0.295-0.394,0.845,0.026,1.263l4.455,4.456
	c0.287,0.431,0.861,0.431,1.295,0l1.293-1.293C1154.98-177.516,1154.98-178.091,1154.55-178.522z M1136.151-185.709
	c-2.301-2.444-2.444-6.181,0-8.625c2.442-2.444,6.324-2.444,8.624,0c2.443,2.444,2.443,6.181,0,8.625
	S1138.45-183.265,1136.151-185.709z"/>
<path fill="#4BBF53" d="M-8.088,279.967l-9.631-9.631l-4.2,4.194l13.829,13.832l26.979-26.971l-4.201-4.196L-8.088,279.967z"/>
<g>
	<path fill="#C84D30" d="M491.693,289.002c-0.668,0-1.338-0.259-1.843-0.765l-27.354-27.354c-0.994-1.013-0.994-2.658,0-3.672
		c1.012-1.019,2.674-1.019,3.671,0l27.353,27.354c1.014,1.013,1.014,2.658,0,3.661C493.032,288.743,492.361,289.002,491.693,289.002
		z"/>
	<path fill="#C84D30" d="M464.339,289.002c-0.668,0-1.33-0.259-1.843-0.765c-1.012-1.014-1.012-2.659,0-3.672l27.354-27.345
		c1.021-1.02,2.659-1.02,3.669,0c1.014,1.01,1.014,2.649,0,3.662l-27.353,27.354C465.678,288.743,464.999,289.002,464.339,289.002z"
		/>
</g>
<g>
	<path fill="#DDDDDD" d="M1540.375,226.09h-11.85l45.898-106.199h10.5l45.602,106.199h-12l-11.701-27.898h-54.898L1540.375,226.09z
		 M1555.975,188.291h46.802l-23.4-56.4L1555.975,188.291z"/>
	<path fill="#DDDDDD" d="M1689.774,180.656c0-6.055-1.602-10.57-4.801-13.549c-3.2-2.979-7.853-4.469-13.949-4.469
		c-4.2,0-8.102,0.75-11.7,2.25c-3.6,1.5-6.65,3.502-9.149,6l-5.698-6.75c2.896-2.897,6.725-5.299,11.475-7.199
		c4.748-1.898,10.125-2.852,16.125-2.852c3.799,0,7.351,0.525,10.65,1.576c3.3,1.049,6.198,2.625,8.698,4.725
		c2.499,2.101,4.448,4.75,5.852,7.949c1.398,3.202,2.101,6.952,2.101,11.25v30.75c0,2.701,0.099,5.502,0.3,8.4
		c0.198,2.9,0.5,5.352,0.899,7.35h-9.149c-0.3-1.699-0.552-3.548-0.75-5.549c-0.201-2-0.3-3.949-0.3-5.852h-0.301
		c-3.201,4.701-6.824,8.076-10.875,10.125s-8.926,3.074-14.625,3.074c-2.699,0-5.476-0.377-8.324-1.127
		c-2.851-0.753-5.452-1.979-7.801-3.688c-2.352-1.706-4.301-3.914-5.851-6.623c-1.552-2.709-2.324-6.021-2.324-9.936
		c0-5.418,1.374-9.707,4.125-12.865c2.749-3.158,6.425-5.519,11.023-7.072c4.601-1.559,9.875-2.562,15.825-3.012
		c5.947-0.451,12.123-0.68,18.524-0.68V180.656L1689.774,180.656z M1686.774,190.99c-4.2,0-8.427,0.176-12.676,0.523
		c-4.252,0.354-8.101,1.051-11.551,2.102c-3.449,1.051-6.274,2.576-8.476,4.574c-2.201,2.002-3.301,4.648-3.301,7.949
		c0,2.5,0.475,4.603,1.426,6.301c0.949,1.701,2.226,3.074,3.824,4.125c1.6,1.051,3.375,1.801,5.325,2.25
		c1.948,0.449,3.924,0.676,5.925,0.676c3.602,0,6.801-0.623,9.602-1.875c2.798-1.249,5.147-2.948,7.049-5.102
		c1.898-2.147,3.351-4.625,4.352-7.426c1-2.798,1.5-5.748,1.5-8.85v-5.25L1686.774,190.99L1686.774,190.99z"/>
</g>
<g>
	<g>
		<rect x="428.393" y="-10.066" fill="#FFFFFF" width="108.182" height="18.244"/>
		<path fill="#EFEFEF" d="M536.873,8.522H428.094V-10.41h108.779V8.522z M428.692,7.834h107.583V-9.722H428.692V7.834z"/>
	</g>
	<path fill="#E8E8E8" d="M495.231,1.293h-60.267c-0.99,0-1.789-0.923-1.789-2.064c0-1.142,0.799-2.064,1.789-2.064h60.267
		c0.991,0,1.794,0.923,1.794,2.064C497.025,0.37,496.223,1.293,495.231,1.293z"/>
	<path fill="#C6C6C6" d="M463.172-16.379h-28.204c-0.991,0-1.792-0.925-1.792-2.064c0-1.141,0.801-2.065,1.792-2.065h28.204
		c0.99,0,1.795,0.924,1.795,2.065C464.965-17.304,464.162-16.379,463.172-16.379z"/>
</g>
<g>
	<g>
		<rect x="428.393" y="34.644" fill="#FFFFFF" width="108.182" height="18.244"/>
		<path fill="#EFEFEF" d="M536.873,53.232H428.094V34.3h108.779V53.232z M428.692,52.544h107.583V34.988H428.692V52.544z"/>
	</g>
	<path fill="#E8E8E8" d="M495.231,46.003h-60.267c-0.99,0-1.789-0.923-1.789-2.064c0-1.142,0.799-2.064,1.789-2.064h60.267
		c0.991,0,1.794,0.923,1.794,2.064C497.025,45.08,496.223,46.003,495.231,46.003z"/>
	<path fill="#C6C6C6" d="M480.889,28.331h-45.921c-0.991,0-1.792-0.924-1.792-2.064c0-1.14,0.801-2.064,1.792-2.064h45.921
		c0.99,0,1.795,0.924,1.795,2.064C482.683,27.406,481.879,28.331,480.889,28.331z"/>
</g>
<g>
	<g>
		<rect x="428.393" y="73.623" fill="#FFFFFF" width="108.182" height="18.244"/>
		<path fill="#EFEFEF" d="M536.873,92.21H428.094V73.279h108.779V92.21z M428.692,91.523h107.583V73.966H428.692V91.523z"/>
	</g>
	<path fill="#E8E8E8" d="M495.231,84.982h-60.267c-0.99,0-1.789-0.924-1.789-2.064c0-1.142,0.799-2.064,1.789-2.064h60.267
		c0.991,0,1.794,0.923,1.794,2.064C497.025,84.058,496.223,84.982,495.231,84.982z"/>
	<path fill="#C6C6C6" d="M463.172,67.309h-28.204c-0.991,0-1.792-0.924-1.792-2.063c0-1.141,0.801-2.065,1.792-2.065h28.204
		c0.99,0,1.795,0.924,1.795,2.065C464.965,66.385,464.162,67.309,463.172,67.309z"/>
</g>
<g>
	<g>
		<rect x="428.393" y="116.896" fill="#FFFFFF" width="108.182" height="18.244"/>
		<path fill="#EFEFEF" d="M536.873,135.484H428.094v-18.932h108.779V135.484z M428.692,134.796h107.583V117.24H428.692V134.796z"/>
	</g>
	<path fill="#E8E8E8" d="M495.231,128.255h-60.267c-0.99,0-1.789-0.924-1.789-2.064c0-1.142,0.799-2.064,1.789-2.064h60.267
		c0.991,0,1.794,0.923,1.794,2.064C497.025,127.332,496.223,128.255,495.231,128.255z"/>
	<path fill="#C6C6C6" d="M480.889,110.583h-45.921c-0.991,0-1.792-0.925-1.792-2.063c0-1.141,0.801-2.064,1.792-2.064h45.921
		c0.99,0,1.795,0.924,1.795,2.064C482.683,109.658,481.879,110.583,480.889,110.583z"/>
</g>
<g>
	<g>
		<rect x="428.393" y="155.875" fill="#FFFFFF" width="108.182" height="18.245"/>
		<path fill="#EFEFEF" d="M536.873,174.463H428.094v-18.932h108.779V174.463z M428.692,173.775h107.583v-17.557H428.692V173.775z"/>
	</g>
	<path fill="#E8E8E8" d="M495.231,167.234h-60.267c-0.99,0-1.789-0.924-1.789-2.064c0-1.143,0.799-2.064,1.789-2.064h60.267
		c0.991,0,1.794,0.922,1.794,2.064C497.025,166.311,496.223,167.234,495.231,167.234z"/>
	<path fill="#C6C6C6" d="M463.172,149.562h-28.204c-0.991,0-1.792-0.926-1.792-2.064c0-1.141,0.801-2.064,1.792-2.064h28.204
		c0.99,0,1.795,0.924,1.795,2.064C464.965,148.636,464.162,149.562,463.172,149.562z"/>
</g>
<g>
	<g>
		<rect x="-35.201" y="-63.948" fill="#FFFFFF" width="108.182" height="18.244"/>
		<path fill="#EFEFEF" d="M73.28-45.36H-35.5v-18.932H73.28V-45.36z M-34.901-46.048H72.682v-17.556H-34.901V-46.048z"/>
	</g>
	<path fill="#E8E8E8" d="M31.638-52.589h-60.267c-0.99,0-1.789-0.923-1.789-2.064c0-1.142,0.799-2.064,1.789-2.064h60.267
		c0.991,0,1.794,0.923,1.794,2.064C33.432-53.512,32.629-52.589,31.638-52.589z"/>
	<path fill="#C6C6C6" d="M17.295-70.261h-45.921c-0.991,0-1.792-0.924-1.792-2.064c0-1.14,0.801-2.064,1.792-2.064h45.921
		c0.99,0,1.795,0.924,1.795,2.064C19.089-71.186,18.286-70.261,17.295-70.261z"/>
</g>
<g>
	<g>
		<rect x="-35.201" y="-24.969" fill="#FFFFFF" width="108.182" height="18.244"/>
		<path fill="#EFEFEF" d="M73.28-6.381H-35.5v-18.933H73.28V-6.381z M-34.901-7.069H72.682v-17.556H-34.901V-7.069z"/>
	</g>
	<path fill="#E8E8E8" d="M31.638-13.61h-60.267c-0.99,0-1.789-0.923-1.789-2.064c0-1.142,0.799-2.064,1.789-2.064h60.267
		c0.991,0,1.794,0.923,1.794,2.064C33.432-14.533,32.629-13.61,31.638-13.61z"/>
	<path fill="#C6C6C6" d="M-0.421-31.282h-28.204c-0.991,0-1.792-0.925-1.792-2.064c0-1.141,0.801-2.065,1.792-2.065h28.204
		c0.99,0,1.795,0.924,1.795,2.065C1.372-32.207,0.569-31.282-0.421-31.282z"/>
</g>
<g>
	<g>
		<rect x="-35.201" y="49.547" fill="#FFFFFF" width="108.182" height="18.244"/>
		<path fill="#EFEFEF" d="M73.28,68.135H-35.5V49.203H73.28V68.135z M-34.901,67.447H72.682V49.891H-34.901V67.447z"/>
	</g>
	<path fill="#E8E8E8" d="M31.638,60.906h-60.267c-0.99,0-1.789-0.923-1.789-2.064c0-1.142,0.799-2.064,1.789-2.064h60.267
		c0.991,0,1.794,0.923,1.794,2.064C33.432,59.983,32.629,60.906,31.638,60.906z"/>
	<path fill="#C6C6C6" d="M17.295,43.234h-45.921c-0.991,0-1.792-0.924-1.792-2.064c0-1.14,0.801-2.064,1.792-2.064h45.921
		c0.99,0,1.795,0.924,1.795,2.064C19.089,42.31,18.286,43.234,17.295,43.234z"/>
</g>
<g>
	<g>
		<rect x="-35.201" y="88.526" fill="#FFFFFF" width="108.182" height="18.244"/>
		<path fill="#EFEFEF" d="M73.28,107.114H-35.5V88.182H73.28V107.114z M-34.901,106.426H72.682V88.87H-34.901V106.426z"/>
	</g>
	<path fill="#E8E8E8" d="M31.638,99.885h-60.267c-0.99,0-1.789-0.924-1.789-2.064c0-1.142,0.799-2.064,1.789-2.064h60.267
		c0.991,0,1.794,0.923,1.794,2.064C33.432,98.961,32.629,99.885,31.638,99.885z"/>
	<path fill="#C6C6C6" d="M-0.421,82.212h-28.204c-0.991,0-1.792-0.924-1.792-2.063c0-1.141,0.801-2.065,1.792-2.065h28.204
		c0.99,0,1.795,0.924,1.795,2.065C1.372,81.289,0.569,82.212-0.421,82.212z"/>
</g>
<g>
	<g>
		<rect x="-35.201" y="166.574" fill="#FFFFFF" width="108.182" height="18.244"/>
		<path fill="#EFEFEF" d="M73.28,185.162H-35.5V166.23H73.28V185.162z M-34.901,184.475H72.682v-17.557H-34.901V184.475z"/>
	</g>
	<path fill="#E8E8E8" d="M31.638,177.934h-60.267c-0.99,0-1.789-0.924-1.789-2.064c0-1.142,0.799-2.064,1.789-2.064h60.267
		c0.991,0,1.794,0.923,1.794,2.064C33.432,177.01,32.629,177.934,31.638,177.934z"/>
	<path fill="#C6C6C6" d="M17.295,160.26h-45.921c-0.991,0-1.792-0.925-1.792-2.063c0-1.141,0.801-2.064,1.792-2.064h45.921
		c0.99,0,1.795,0.924,1.795,2.064C19.089,159.335,18.286,160.26,17.295,160.26z"/>
</g>
<g>
	<g>
		<rect x="-35.201" y="205.553" fill="#FFFFFF" width="108.182" height="18.244"/>
		<path fill="#EFEFEF" d="M73.28,224.141H-35.5v-18.932H73.28V224.141z M-34.901,223.453H72.682v-17.557H-34.901V223.453z"/>
	</g>
	<path fill="#E8E8E8" d="M31.638,216.912h-60.267c-0.99,0-1.789-0.924-1.789-2.064c0-1.143,0.799-2.064,1.789-2.064h60.267
		c0.991,0,1.794,0.922,1.794,2.064C33.432,215.988,32.629,216.912,31.638,216.912z"/>
	<path fill="#C6C6C6" d="M-0.421,199.24h-28.204c-0.991,0-1.792-0.926-1.792-2.064c0-1.141,0.801-2.064,1.792-2.064h28.204
		c0.99,0,1.795,0.924,1.795,2.064C1.372,198.314,0.569,199.24-0.421,199.24z"/>
</g>
</svg>
