<svg xmlns="http://www.w3.org/2000/svg" width="960" height="320" viewBox="0 0 960 320"><path fill="#F9F9F9" d="M484.967-1H960v321H484.967z"/><circle fill="#FFF" cx="238.486" cy="272.778" r="26.999"/><path fill="#F9F9F9" d="M0-1h475.032v321H0z"/><path fill="#FFF" d="M145.329 97.95h200.167v33.756H145.329z"/><path fill="#EFEFEF" d="M346.048 132.343H144.774v-35.03h201.273v35.03zm-200.165-1.274h199.058V98.586H145.883v32.483z"/><path fill="#E8E8E8" d="M268.999 118.967H157.486c-1.831 0-3.308-1.708-3.308-3.82 0-2.113 1.479-3.821 3.308-3.821h111.513c1.834 0 3.319 1.708 3.319 3.821-.002 2.113-1.486 3.82-3.319 3.82z"/><path fill="#C6C6C6" d="M242.459 86.269h-84.966c-1.833 0-3.315-1.71-3.315-3.82s1.482-3.821 3.315-3.821h84.966c1.833 0 3.322 1.71 3.322 3.821-.002 2.109-1.488 3.82-3.322 3.82zM1154.55-178.522l-4.455-4.456c-.288-.432-.862-.432-1.295 0l-.001.001-1.642-1.642c2.733-3.353 2.542-8.375-.657-11.44-3.306-3.306-8.77-3.306-12.218 0-3.308 3.306-3.308 8.769 0 12.218 3.104 3.103 8.085 3.254 11.541.532l1.655 1.655c-.396.295-.395.845.025 1.263l4.455 4.456c.287.431.861.431 1.295 0l1.293-1.293c.434-.288.434-.863.004-1.294zm-18.399-7.187c-2.302-2.444-2.444-6.181 0-8.625 2.441-2.444 6.323-2.444 8.624 0 2.442 2.444 2.442 6.181 0 8.625-2.443 2.444-6.325 2.444-8.624 0z"/><path fill="#4BBF53" d="M231.912 279.967l-9.631-9.631-4.2 4.193 13.829 13.832 26.979-26.971-4.201-4.195-22.776 22.772z"/><g fill="#C84D30"><path d="M731.693 289.002a2.605 2.605 0 0 1-1.844-.766l-27.354-27.354a2.634 2.634 0 0 1 0-3.672c1.012-1.02 2.674-1.02 3.671 0l27.353 27.354a2.583 2.583 0 0 1 0 3.662 2.503 2.503 0 0 1-1.826.776z"/><path d="M704.339 289.002a2.6 2.6 0 0 1-1.843-4.438l27.354-27.344a2.58 2.58 0 0 1 3.669 0 2.581 2.581 0 0 1 0 3.661l-27.353 27.354a2.546 2.546 0 0 1-1.827.767z"/></g><g fill="#DDD"><path d="M1540.375 226.09h-11.85l45.897-106.199h10.5l45.603 106.199h-12l-11.701-27.898h-54.898l-11.551 27.898zm15.6-37.799h46.803l-23.4-56.4-23.403 56.4zM1689.774 180.656c0-6.055-1.603-10.57-4.802-13.549-3.199-2.979-7.853-4.469-13.948-4.469-4.2 0-8.103.75-11.7 2.25-3.6 1.5-6.65 3.502-9.149 6l-5.698-6.75c2.896-2.897 6.726-5.3 11.476-7.2 4.748-1.898 10.125-2.852 16.125-2.852 3.799 0 7.351.525 10.649 1.576 3.301 1.049 6.198 2.625 8.698 4.725 2.499 2.101 4.448 4.75 5.853 7.949 1.397 3.202 2.101 6.952 2.101 11.25v30.75c0 2.701.099 5.502.3 8.399.198 2.9.5 5.353.899 7.351h-9.149a73.693 73.693 0 0 1-.75-5.549c-.201-2-.3-3.949-.3-5.853h-.301c-3.201 4.701-6.824 8.076-10.875 10.125s-8.926 3.074-14.625 3.074c-2.699 0-5.476-.377-8.324-1.127a23.207 23.207 0 0 1-7.801-3.688c-2.353-1.706-4.301-3.914-5.851-6.623-1.553-2.709-2.324-6.021-2.324-9.936 0-5.419 1.374-9.707 4.125-12.865 2.749-3.158 6.425-5.52 11.022-7.072 4.602-1.559 9.875-2.562 15.825-3.012a245.07 245.07 0 0 1 18.524-.681v-2.223zm-3 10.334c-4.2 0-8.428.176-12.677.523-4.252.354-8.101 1.051-11.551 2.102-3.449 1.051-6.273 2.576-8.476 4.574-2.201 2.002-3.302 4.647-3.302 7.949 0 2.5.476 4.603 1.427 6.301a11.66 11.66 0 0 0 3.823 4.125c1.601 1.051 3.375 1.801 5.325 2.25 1.948.449 3.924.676 5.925.676 3.603 0 6.802-.623 9.603-1.875 2.798-1.249 5.147-2.948 7.049-5.102 1.898-2.147 3.351-4.625 4.353-7.427 1-2.798 1.5-5.748 1.5-8.851v-5.25l-2.999.005z"/></g><path fill="#FFF" d="M145.329 170.071h200.167v33.757H145.329z"/><path fill="#EFEFEF" d="M346.048 204.465H144.774v-35.03h201.273v35.03zm-200.165-1.274h199.058v-32.482H145.883v32.482z"/><path fill="#E8E8E8" d="M268.999 191.089H157.486c-1.831 0-3.308-1.708-3.308-3.82s1.479-3.82 3.308-3.82h111.513c1.834 0 3.319 1.708 3.319 3.82-.002 2.112-1.486 3.82-3.319 3.82z"/><path fill="#C6C6C6" d="M209.677 158.391h-52.186c-1.833 0-3.315-1.71-3.315-3.819 0-2.111 1.482-3.821 3.315-3.821h52.186c1.833 0 3.322 1.71 3.322 3.821-.002 2.108-1.487 3.819-3.322 3.819z"/><path fill="#FFF" d="M646.652 108.514h151.663v25.577H646.652z"/><path fill="#EFEFEF" d="M798.734 134.573H646.232v-26.542h152.502v26.542zm-151.662-.965h150.823v-24.612H647.072v24.612z"/><path fill="#E8E8E8" d="M740.355 124.438h-84.491c-1.388 0-2.507-1.294-2.507-2.894 0-1.601 1.121-2.895 2.507-2.895h84.491c1.39 0 2.515 1.294 2.515 2.895-.001 1.601-1.126 2.894-2.515 2.894z"/><path fill="#C6C6C6" d="M720.247 99.663h-64.378c-1.389 0-2.512-1.296-2.512-2.894 0-1.599 1.123-2.895 2.512-2.895h64.378c1.39 0 2.517 1.296 2.517 2.895-.002 1.598-1.127 2.894-2.517 2.894z"/><g><path fill="#FFF" d="M646.652 163.159h151.663v25.577H646.652z"/><path fill="#EFEFEF" d="M798.734 189.219H646.232v-26.542h152.502v26.542zm-151.662-.965h150.823v-24.611H647.072v24.611z"/><path fill="#E8E8E8" d="M740.355 179.084h-84.491c-1.388 0-2.507-1.294-2.507-2.895s1.121-2.895 2.507-2.895h84.491c1.39 0 2.515 1.294 2.515 2.895-.001 1.601-1.126 2.895-2.515 2.895z"/><path fill="#C6C6C6" d="M695.408 154.309h-39.54c-1.389 0-2.512-1.296-2.512-2.894 0-1.599 1.123-2.895 2.512-2.895h39.54c1.389 0 2.518 1.296 2.518 2.895-.002 1.598-1.127 2.894-2.518 2.894z"/></g><path fill="none" d="M221.534 148.267h72.5v27.498h-72.5z"/><text transform="translate(221.532 158.85)" fill="#9B9B9B" font-family="'Avenir-Medium'" font-size="14">(Optional)</text><path fill="none" d="M685.258 209.78h72.5v27.497h-72.5z"/><text transform="translate(685.259 220.362)" fill="#9B9B9B" font-family="'Avenir-Medium'" font-size="14">Required</text><circle fill="#C84D30" cx="734.28" cy="96.769" r="4.302"/><circle fill="#C84D30" cx="675.641" cy="215.286" r="4.302"/></svg>