<?xml version="1.0" encoding="utf-8"?>
<!-- Generator: Adobe Illustrator 16.0.4, SVG Export Plug-In . SVG Version: 6.00 Build 0)  -->
<!DOCTYPE svg PUBLIC "-//W3C//DTD SVG 1.1//EN" "http://www.w3.org/Graphics/SVG/1.1/DTD/svg11.dtd">
<svg version="1.1" id="Layer_1" xmlns="http://www.w3.org/2000/svg" xmlns:xlink="http://www.w3.org/1999/xlink" x="0px" y="0px"
	 width="256px" height="256px" viewBox="0 0 256 256" enable-background="new 0 0 256 256" xml:space="preserve">
<g>
	<g>
		<path fill="#FFFFFF" d="M223.255,97.562L223.255,97.562l0.061-16.805c0-0.953-0.34-1.867-0.968-2.578L182.003,32.54l-7.827-8.855
			l-0.061-0.076c-0.212-0.242-0.454-0.447-0.711-0.627l-32.23-22.287c-1.028-0.71-2.322-0.892-3.494-0.469L85.53,18.882
			l-2.314,0.832c-0.771,0.271-1.437,0.779-1.891,1.451l-5.143,7.518L43.241,76.81l-8.425,12.305l-1.467,2.146
			c-0.438,0.643-0.665,1.406-0.665,2.178v88.865c0,0.326,0.037,0.65,0.121,0.961l3.523,13.725c0.204,0.803,0.65,1.514,1.278,2.035
			l1.354,1.119l13.582,11.162l22.551,15.396l6.852,4.674l3.131,2.133l41.623,18.277c0.492,0.221,1.028,0.326,1.551,0.326
			c0.566,0,1.126-0.129,1.671-0.371l34.446-16.402l9.982-4.75l11.941-5.678l0.045-0.023l34.386-16.357
			c1.347-0.635,2.201-1.988,2.201-3.479l0.053-15.994l0.03-10.322l0.234-75.533L223.255,97.562z M215.564,82.21l-0.038,11.576
			l-30.083-14.693l-2.495-33.795L215.564,82.21z M82.172,222.218l-3.842-2.623l-2.313-27.451l23.957,19.449L82.172,222.218z
			 M53.179,75.993l17.93-4.984l1.989,22.256l-23.08-12.637L53.179,75.993z M45.616,87.05l28.608,15.66l20.879,80.168L43.899,89.56
			L45.616,87.05z M93.803,196.613l-18.693-15.17l-1.876-22.332L93.803,196.613z M70.088,213.952l-5.12-3.494l3.827-11.85
			L70.088,213.952z M82.656,104.572l76.584,8.387l19.352,47.672v59.373l-14.731,7.002l-53.935-17.945L82.656,104.572z
			 M170.984,121.329l27.142,21.174l-14.028,11.133L170.984,121.329z M167.264,108.587l13.438-18.861l15.994,41.82L167.264,108.587z
			 M87.012,26.573l51.395-18.384l30.219,20.902l5.854,6.609l3.297,44.793l-17.65,24.773l-79.004-8.65l-2.745-31.256l5.188-33.75
			L87.012,26.573z M70.904,63.031l-10.936,3.049l13.492-19.715L70.904,63.031z M63.402,141.202L40.428,181.82V99.323L63.402,141.202
			z M43.514,193.853l-0.317-1.211l21.832-38.576l2.163,25.592c-0.386,0.408-0.711,0.877-0.893,1.438L58.306,205.9l-1.119-0.764
			L43.514,193.853z M128.182,243.997L89.296,226.99l17.87-10.686l46.599,15.52L128.182,243.997z M186.336,216.32v-54.578
			l16.448-13.051l12.47,32.32l-0.061,21.576L186.336,216.32z M188.869,89.386l26.627,13.008l-0.166,56.225L188.869,89.386z"/>
	</g>
</g>
</svg>
