<?xml version="1.0" encoding="utf-8"?>
<!-- Generator: Adobe Illustrator 21.1.0, SVG Export Plug-In . SVG Version: 6.00 Build 0)  -->
<!DOCTYPE svg PUBLIC "-//W3C//DTD SVG 1.1//EN" "http://www.w3.org/Graphics/SVG/1.1/DTD/svg11.dtd">
<svg version="1.1" id="Layer_1" xmlns="http://www.w3.org/2000/svg" xmlns:xlink="http://www.w3.org/1999/xlink" x="0px" y="0px"
	 width="114px" height="114px" viewBox="0 0 114 114" style="enable-background:new 0 0 114 114;" xml:space="preserve">
<g>
	<g>
		<g>
			<g>
				<polygon points="14.9053526,14.2496071 14.4775324,17.3560104 18.4109459,17.3560104 16.8530407,28.456852 
					20.3140526,28.456852 21.8719578,17.3560104 25.8061905,17.3560104 26.2340107,14.2496071 				"/>
				<polygon points="36.7667427,14.2496071 36.0464821,19.3910217 30.5682507,19.3910217 31.2889214,14.2496071 
					27.8279095,14.2496071 25.8409557,28.456852 29.3019676,28.456852 30.139204,22.4974251 35.6174355,22.4974251 
					34.779789,28.456852 38.2412109,28.456852 40.2277565,14.2496071 				"/>
				<polygon points="52.126976,17.4729862 52.5748405,14.2496071 42.7848625,14.2496071 40.7979088,28.456852 50.9392204,28.456852 
					51.3866768,25.2334728 44.7067833,25.2334728 45.0380783,22.8479424 51.0173416,22.8479424 51.4647942,19.6247692 
					45.4871674,19.6247692 45.7967834,17.4729862 				"/>
				<path d="M23.4597206,39.0846786c-0.2752609-0.2955093-0.6061478-0.5429573-0.9836597-0.7353935
					c-0.3640156-0.1850777-0.7431641-0.3462257-1.1268139-0.4785385c-0.3779202-0.1300621-0.758297-0.2492905-1.1317196-0.3544044
					c-0.3554268-0.0995903-0.6711788-0.2161598-0.938261-0.3466339c-0.247448-0.1208611-0.4380455-0.2699432-0.566473-0.4429512
					c-0.1169758-0.1578789-0.1582851-0.3601303-0.1267929-0.6135101c0.0335388-0.2218857,0.1132946-0.4040985,0.2441769-0.5568619
					c0.1374264-0.1603317,0.3030739-0.291008,0.4920349-0.3883514c0.1971416-0.1014328,0.4122791-0.1771011,0.6384583-0.2247505
					c0.6290531-0.1319046,1.1554432-0.0842552,1.7538204,0.1374283c0.3636055,0.1349716,0.6298695,0.3349762,0.8139229,0.6112595
					l0.1382427,0.2071609l2.7297096-2.5963707l-0.1480598-0.1517448c-0.5280285-0.541523-1.1636238-0.9329414-1.8883839-1.1634159
					c-1.3304977-0.4227085-2.8769493-0.4658585-4.3366928-0.0505123c-0.6809959,0.1936646-1.3112755,0.4883537-1.873251,0.876297
					c-0.5644283,0.3899841-1.0454197,0.8807945-1.4286585,1.4587212c-0.3856926,0.58181-0.6355953,1.2660789-0.7435732,2.0350113
					c-0.1096144,0.8071709-0.0261765,1.4728317,0.2474489,1.978157c0.2691259,0.4967384,0.6433668,0.9024734,1.1120882,1.2053413
					c0.4548149,0.2948952,0.9636192,0.5323219,1.51087,0.7055359c0.5247536,0.1666718,1.0196514,0.3359985,1.470787,0.5032845
					c0.4310913,0.1601257,0.7873363,0.3550148,1.0597343,0.578949c0.2359962,0.1940727,0.3206615,0.4449959,0.2666721,0.7891769
					c-0.0331287,0.2106361-0.1108398,0.3879433-0.2372227,0.5423431c-0.1304741,0.1591034-0.2957115,0.2922325-0.4912167,0.3957138
					c-0.2024593,0.1071587-0.427412,0.1893692-0.6683178,0.2437668c-0.7464352,0.1666679-1.4294758,0.0783234-2.0286713-0.2347717
					c-0.3995991-0.2083855-0.7231236-0.507576-0.9615726-0.8891792l-0.1353817-0.2169762l-2.8511839,2.696373l0.145606,0.1521492
					c0.6041031,0.6306915,1.2920513,1.0936852,2.0446234,1.3759003c0.7480726,0.2801666,1.5918531,0.4222984,2.5080271,0.4222984
					c0.7280312,0,1.4446106-0.0942764,2.1288776-0.2801704c0.6887665-0.1869164,1.3202724-0.4789467,1.8765221-0.8679123
					c0.5587025-0.3903961,1.0360126-0.8881569,1.4192524-1.4795799c0.3844643-0.5942841,0.6343689-1.2979813,0.7419376-2.0881805
					c0.0948887-0.6243477,0.0764828-1.1689415-0.0548077-1.6190529
					C23.9497108,39.7687416,23.7402992,39.3867302,23.4597206,39.0846786z"/>
				<path d="M35.198204,41.9295235c-0.355835,0.4419289-0.7844734,0.7899933-1.2740555,1.0349884
					c-0.4875374,0.2437668-1.0327415,0.3674927-1.6200752,0.3674927c-0.5104389,0-0.9807968-0.1042976-1.3975735-0.3098221
					c-0.4155502-0.2047081-0.7636147-0.4946938-1.033968-0.8615723c-0.2736263-0.3705597-0.4711761-0.8161736-0.5877419-1.3245659
					c-0.1169758-0.5104408-0.1321106-1.0844803-0.0454006-1.7055588c0.0871181-0.6108513,0.2666721-1.1848907,0.5341625-1.7065773
					c0.2666721-0.5212784,0.6000118-0.9777298,0.9914322-1.3566742c0.3885555-0.3760834,0.8355999-0.6732254,1.3284531-0.8830452
					c0.4912148-0.2085915,1.0139275-0.3143196,1.5542221-0.3143196c0.5366173,0,0.9975662,0.0912056,1.3697624,0.2713737
					c0.3676987,0.1781235,0.6752701,0.4374313,0.9141312,0.770771l0.1231117,0.1719894l2.9366646-2.1481018l-0.102253-0.1648293
					c-0.2454033-0.3959198-0.554203-0.7360077-0.9182205-1.0112686c-0.3578796-0.2695351-0.7443886-0.4883537-1.1488953-0.650322
					c-0.4004173-0.1603298-0.8176041-0.2789402-1.2392921-0.352562c-0.4212761-0.0732117-0.8364182-0.1104317-1.2335625-0.1104317
					c-1.095726,0-2.1476936,0.1744404-3.1272621,0.5184174c-0.9803886,0.3443832-1.8642521,0.845211-2.6266384,1.4883728
					c-0.7623882,0.6427536-1.4073925,1.4321365-1.9174232,2.3462639c-0.5104389,0.9145393-0.8495064,1.9480972-1.0081997,3.0720482
					c-0.1591034,1.1272202-0.1112499,2.1650734,0.1419258,3.0839081c0.2539921,0.9237404,0.6822224,1.7223244,1.2736454,2.3734627
					c0.5901966,0.6509323,1.340723,1.1574898,2.2311287,1.5053482c0.8842716,0.3456116,1.8896103,0.5208702,2.9877911,0.5208702
					c0.9705734,0,1.9538231-0.2018433,2.9231682-0.6002159c0.9742546-0.4006233,1.833168-1.0292664,2.5526085-1.8685455
					l0.1378365-0.1609459l-2.5857391-2.1618042L35.198204,41.9295235z"/>
				<polygon points="41.1881027,31.9972115 39.2007408,46.2044563 42.662159,46.2044563 44.6491127,31.9972115 				"/>
				<polygon points="56.7926483,35.2205887 57.240509,31.9972115 47.4505348,31.9972115 45.4635811,46.2044563 
					55.6053047,46.2044563 56.0523491,42.9812813 49.3724556,42.9812813 49.7041588,40.5955467 55.6830139,40.5955467 
					56.1304665,37.3723717 50.1528397,37.3723717 50.4628677,35.2205887 				"/>
				<polygon points="69.8306808,31.9972115 68.5500793,41.1278687 64.2444687,31.9972115 59.8006172,31.9972115 
					57.8136635,46.2044563 61.2750854,46.2044563 62.5757256,36.8384132 67.017128,46.2044563 71.3047409,46.2044563 
					73.2916946,31.9972115 				"/>
				<path d="M83.5209427,41.9295235c-0.355835,0.4419289-0.7844772,0.7899933-1.2740555,1.0349884
					c-0.4875336,0.2437668-1.0327377,0.3674927-1.6200714,0.3674927c-0.5104446,0-0.9807968-0.1042976-1.3975754-0.3098221
					c-0.4155502-0.2047081-0.7636185-0.4946938-1.0339737-0.8615723c-0.2736206-0.3705597-0.4711685-0.8161736-0.587738-1.3243637
					c-0.1169739-0.5120735-0.1321106-1.0861168-0.0449905-1.7059631c0.0867081-0.6102371,0.2662659-1.1842804,0.5337524-1.7061729
					c0.2674866-0.5220947,0.6008301-0.9787521,0.9914322-1.3568764c0.3885574-0.3760834,0.8356018-0.6732254,1.3284531-0.8830452
					c0.4912186-0.2085915,1.0139236-0.3143196,1.5542221-0.3143196c0.5366135,0,0.9975662,0.0912056,1.3697662,0.2713737
					c0.368515,0.1783257,0.6760864,0.4376373,0.9137192,0.7705688l0.1231079,0.1723938l2.9370728-2.148304l-0.1022491-0.1648293
					c-0.2454071-0.3959198-0.5542068-0.7360077-0.9182205-1.0112686c-0.3582916-0.2699432-0.7447968-0.4887619-1.1488953-0.650322
					c-0.4004211-0.1603298-0.8176041-0.2789402-1.2392883-0.352562c-0.4212799-0.0732117-0.8364182-0.1104317-1.2335663-0.1104317
					c-1.095726,0-2.1476898,0.1744404-3.1272659,0.5184174c-0.9803848,0.3443832-1.8642502,0.845211-2.6266327,1.4883728
					c-0.7623901,0.6427536-1.4073944,1.4321365-1.9174271,2.3462639c-0.510437,0.9149475-0.8495026,1.9485054-1.0077896,3.0720482
					c-0.1591034,1.1280403-0.1116562,2.1656876,0.1415176,3.0839081c0.2539902,0.9233322,0.6826324,1.7217102,1.2740555,2.3734627
					c0.5897827,0.6509323,1.3403091,1.1572838,2.2307205,1.5053482c0.8842697,0.3456116,1.8896103,0.5208702,2.987793,0.5208702
					c0.9705658,0,1.9538193-0.2018433,2.9231644-0.6002159c0.9742508-0.4006233,1.833168-1.0292664,2.5526123-1.8685455
					l0.1378326-0.1609459l-2.5857391-2.1618042L83.5209427,41.9295235z"/>
				<polygon points="98.5899658,35.2205887 99.0374146,31.9972115 89.2474365,31.9972115 87.2604904,46.2044563 
					97.4022064,46.2044563 97.8496628,42.9812813 91.1697693,42.9812813 91.5010681,40.5955467 97.4799194,40.5955467 
					97.9273758,37.3723717 91.9497452,37.3723717 92.2597733,35.2205887 				"/>
				<path d="M29.5845909,53.8022957c-0.2544022-0.922718-0.6826324-1.721508-1.2740555-2.3734665
					c-0.5906048-0.6503181-1.33745-1.1566696-2.2200851-1.504734c-0.8777275-0.3456078-1.8802032-0.5210724-2.9787941-0.5210724
					c-1.0961361,0-2.1481018,0.1742363-3.1272621,0.5182114c-0.9803886,0.3447914-1.8642521,0.845417-2.6262302,1.4883728
					c-0.7632065,0.6437759-1.408618,1.433567-1.9178305,2.3464699c-0.5100317,0.9141312-0.8490973,1.9476891-1.0077925,3.0716362
					c-0.1591034,1.127224-0.1116581,2.1648712,0.1415167,3.0843201c0.2544022,0.9239426,0.6830406,1.7227325,1.2740545,2.3734627
					c0.5897865,0.6507301,1.340723,1.1574898,2.2311306,1.5051422c0.8834534,0.3456154,1.8887901,0.5206642,2.987381,0.5206642
					c1.096138,0,2.1452389-0.1742325,3.117857-0.5182076c0.9734344-0.3443832,1.8568878-0.8450089,2.625412-1.4875565
					c0.7689304-0.6433678,1.414753-1.4331589,1.9186478-2.3481064c0.5034866-0.9141312,0.8392811-1.9472809,0.9979763-3.071228
					C29.88521,55.7593918,29.8373566,54.7217407,29.5845909,53.8022957z M26.1567078,56.828125
					c-0.0875263,0.6229172-0.2670803,1.2000237-0.5337524,1.7145538s-0.6090107,0.9673004-1.0171986,1.3452225
					c-0.4077797,0.3762856-0.8838634,0.6736336-1.415163,0.8838615c-0.5312977,0.210228-1.114542,0.3165703-1.7341862,0.3165703
					c-0.6167812,0-1.1648502-0.105114-1.628664-0.3128891c-0.4601307-0.2057304-0.8433704-0.4969406-1.1394901-0.8650475
					c-0.297348-0.3705597-0.5100327-0.814743-0.6310978-1.3202744c-0.1235199-0.510849-0.1419258-1.0838661-0.0548077-1.7039185
					c0.08671-0.6090126,0.266264-1.1828461,0.5341625-1.7059669c0.2658539-0.520256,0.6081924-0.9754791,1.0167904-1.3534012
					c0.4077797-0.3766937,0.8838634-0.6740417,1.415163-0.8842735c0.5308895-0.2098198,1.114542-0.3161621,1.7341862-0.3161621
					c0.615963,0,1.1636238,0.1051178,1.6282539,0.3124809c0.4609509,0.2065506,0.84828,0.4981728,1.1505356,0.8666878
					c0.3022556,0.3697395,0.5141201,0.8155556,0.6298695,1.3255882
					C26.2282848,55.6493683,26.2434177,56.2203407,26.1567078,56.828125z"/>
				<polygon points="41.7758446,52.9769211 42.2232971,49.75354 32.5502968,49.75354 30.563343,63.9607849 34.024765,63.9607849 
					34.7646561,58.5856247 40.5087433,58.5856247 40.9786911,55.3622437 35.2317429,55.3622437 35.563446,52.9769211 				"/>
				<polygon points="31.2463837,67.5185928 27.8557205,76.104454 26.3452606,67.5185928 23.2118626,67.5185928 
					19.312397,75.8696899 18.411356,67.5185928 14.6677198,67.5185928 16.8951683,81.7258377 19.8187466,81.7258377 
					23.9865208,72.6074524 25.6241817,81.7258377 28.643877,81.7258377 34.7842903,67.5185928 				"/>
				<polygon points="44.9587326,67.5185928 44.238472,72.6598053 38.7602386,72.6598053 39.4809074,67.5185928 
					36.0198975,67.5185928 34.0325356,81.7258377 37.4939575,81.7258377 38.331192,75.7666168 43.8094215,75.7666168 
					42.9717789,81.7258377 46.4332008,81.7258377 48.4197426,67.5185928 				"/>
				<polygon points="60.3189659,70.7419739 60.7668266,67.5185928 50.9768524,67.5185928 48.9898987,81.7258377 
					59.1312103,81.7258377 59.5786629,78.5028687 52.8987732,78.5028687 53.2304764,76.1167297 59.2093315,76.1167297 
					59.6563759,72.8937607 53.6791573,72.8937607 53.9891815,70.7419739 				"/>
				<path d="M73.5286407,71.9452744c0.1214752-0.8360138,0.071579-1.5497284-0.148056-2.121109
					c-0.2216797-0.5734253-0.5664749-1.0372391-1.025383-1.3783493c-0.4494934-0.3337555-1.0004272-0.5750656-1.6368408-0.7178116
					c-0.6233292-0.139061-1.3002319-0.2094116-2.0127182-0.2094116h-5.5183144l-1.9869537,14.2072449h3.461422l0.7595215-5.5113602
					h1.173851l2.1227417,5.5113602h4.1125565l-2.7141647-5.8806915c0.9227219-0.2155457,1.6793823-0.6548157,2.2523956-1.309227
					C72.9903946,73.8266983,73.3805847,72.9551086,73.5286407,71.9452744z M66.22052,70.5080261h1.8037186
					c0.2609406,0,0.5292511,0.0188141,0.798378,0.0564423c0.2531738,0.0351715,0.4756775,0.1030655,0.6609573,0.2012253
					c0.1730042,0.0924377,0.3047104,0.2216873,0.4028702,0.3951035c0.0928421,0.1652374,0.1173859,0.4020538,0.0727997,0.7063522
					c-0.0462189,0.3312988-0.1525574,0.5877457-0.3161621,0.7619781c-0.1709595,0.1824188-0.3734207,0.3186188-0.6016464,0.4045105
					c-0.2409058,0.0899811-0.5059433,0.1447906-0.7873383,0.1623764c-0.300209,0.0192184-0.584877,0.0286255-0.8531876,0.0286255
					h-1.5513611L66.22052,70.5080261z"/>
				<polygon points="85.5084381,70.7419739 85.9558945,67.5185928 76.1659164,67.5185928 74.1789627,81.7258377 
					84.3206863,81.7258377 84.7681351,78.5028687 78.0882492,78.5028687 78.4195404,76.1167297 84.3983994,76.1167297 
					84.8458481,72.8937607 78.8682251,72.8937607 79.1782455,70.7419739 				"/>
			</g>
		</g>
		<g>
			<polygon points="7.1250272,21.3746319 7.1250272,7.1250272 21.3746185,7.1250272 21.3746185,0 0,0 0,21.3746319 			"/>
			<polygon points="28.4996452,7.1250272 106.8749695,7.1250272 106.8749695,78.3748474 114,78.3748474 114,0 28.4996452,0 			"/>
			<polygon points="42.7496986,106.8749619 7.1250272,106.8749619 7.1250272,35.6246872 0,35.6246872 0,113.9999847 
				42.7496986,113.9999847 			"/>
			<polygon points="106.8749695,92.6249008 106.8749695,106.8749619 49.8747253,106.8749619 49.8747253,113.9999847 
				114,113.9999847 114,92.6249008 			"/>
		</g>
	</g>
	<g>
		<path d="M87.4081421,67.7498322h-0.370079v-0.1862183h0.9553299v0.1862183h-0.3703613v0.9710159h-0.2148895V67.7498322z"/>
		<path d="M88.1877365,67.5636139h0.3273315l0.3226089,0.8105927l0.3256607-0.8105927h0.3242798v1.1572342h-0.204895v-0.961174
			h-0.003334l-0.3667526,0.961174h-0.1501999l-0.3667526-0.961174h-0.0033264v0.961174h-0.2046204V67.5636139z"/>
	</g>
</g>
</svg>
