<?xml version="1.0" encoding="utf-8"?>
<!-- Generator: Adobe Illustrator 16.0.4, SVG Export Plug-In . SVG Version: 6.00 Build 0)  -->
<!DOCTYPE svg PUBLIC "-//W3C//DTD SVG 1.1//EN" "http://www.w3.org/Graphics/SVG/1.1/DTD/svg11.dtd">
<svg version="1.1" id="Layer_1" xmlns="http://www.w3.org/2000/svg" xmlns:xlink="http://www.w3.org/1999/xlink" x="0px" y="0px"
	 width="480px" height="320px" viewBox="0 0 480 320" enable-background="new 0 0 480 320" xml:space="preserve">
<rect y="-1" fill="#CCDE91" width="480" height="321"/>
<path fill="#C6C6C6" d="M1154.55-178.522l-4.455-4.456c-0.288-0.432-0.863-0.432-1.295,0l-0.001,0.001l-1.642-1.642
	c2.733-3.353,2.542-8.375-0.657-11.44c-3.306-3.306-8.77-3.306-12.218,0c-3.308,3.306-3.308,8.769,0,12.218
	c3.104,3.103,8.085,3.254,11.541,0.532l1.655,1.655c-0.396,0.295-0.394,0.845,0.026,1.263l4.455,4.456
	c0.287,0.431,0.861,0.431,1.295,0l1.293-1.293C1154.98-177.516,1154.98-178.091,1154.55-178.522z M1136.151-185.709
	c-2.301-2.444-2.444-6.181,0-8.625c2.442-2.444,6.324-2.444,8.624,0c2.443,2.444,2.443,6.181,0,8.625
	S1138.45-183.265,1136.151-185.709z"/>
<g>
	<path fill="#DDDDDD" d="M1540.375,226.09h-11.85l45.898-106.199h10.5l45.602,106.199h-12l-11.701-27.898h-54.898L1540.375,226.09z
		 M1555.975,188.291h46.802l-23.4-56.4L1555.975,188.291z"/>
	<path fill="#DDDDDD" d="M1689.774,180.656c0-6.055-1.602-10.57-4.801-13.549c-3.2-2.979-7.853-4.469-13.949-4.469
		c-4.2,0-8.102,0.75-11.7,2.25c-3.6,1.5-6.65,3.502-9.149,6l-5.698-6.75c2.896-2.897,6.725-5.299,11.475-7.199
		c4.748-1.898,10.125-2.852,16.125-2.852c3.799,0,7.351,0.525,10.65,1.576c3.3,1.049,6.198,2.625,8.698,4.725
		c2.499,2.101,4.448,4.75,5.852,7.949c1.398,3.202,2.101,6.952,2.101,11.25v30.75c0,2.701,0.099,5.502,0.3,8.4
		c0.198,2.9,0.5,5.352,0.899,7.35h-9.149c-0.3-1.699-0.552-3.548-0.75-5.549c-0.201-2-0.3-3.949-0.3-5.852h-0.301
		c-3.201,4.701-6.824,8.076-10.875,10.125s-8.926,3.074-14.625,3.074c-2.699,0-5.476-0.377-8.324-1.127
		c-2.851-0.753-5.452-1.979-7.801-3.688c-2.352-1.706-4.301-3.914-5.851-6.623c-1.552-2.709-2.324-6.021-2.324-9.936
		c0-5.418,1.374-9.707,4.125-12.865c2.749-3.158,6.425-5.519,11.023-7.072c4.601-1.559,9.875-2.562,15.825-3.012
		c5.947-0.451,12.123-0.68,18.524-0.68V180.656L1689.774,180.656z M1686.774,190.99c-4.2,0-8.427,0.176-12.676,0.523
		c-4.252,0.354-8.101,1.051-11.551,2.102c-3.449,1.051-6.274,2.576-8.476,4.574c-2.201,2.002-3.301,4.648-3.301,7.949
		c0,2.5,0.475,4.603,1.426,6.301c0.949,1.701,2.226,3.074,3.824,4.125c1.6,1.051,3.375,1.801,5.325,2.25
		c1.948,0.449,3.924,0.676,5.925,0.676c3.602,0,6.801-0.623,9.602-1.875c2.798-1.249,5.147-2.948,7.049-5.102
		c1.898-2.147,3.351-4.625,4.352-7.426c1-2.798,1.5-5.748,1.5-8.85v-5.25L1686.774,190.99L1686.774,190.99z"/>
</g>
<g>
	<g>
		<rect x="42.167" y="65.982" fill="#B9DDEA" width="57.849" height="56.279"/>
		<path fill="#FFFFFF" d="M98.516,67.482v53.279H43.667V67.482H98.516 M101.516,64.482h-3H43.667h-3v3v53.279v3h3h54.849h3v-3
			V67.482V64.482L101.516,64.482z"/>
	</g>
	
		<line fill="none" stroke="#A3C3CC" stroke-width="0.7318" stroke-miterlimit="10" x1="43.667" y1="67.482" x2="98.515" y2="120.762"/>
	
		<line fill="none" stroke="#A3C3CC" stroke-width="0.7318" stroke-miterlimit="10" x1="43.667" y1="120.762" x2="98.515" y2="67.482"/>
</g>
<g>
	<g>
		<rect x="109.73" y="65.982" fill="#B9DDEA" width="193.814" height="56.279"/>
		<path fill="#FFFFFF" d="M302.045,67.482v53.279H111.23V67.482H302.045 M305.045,64.482h-3H111.23h-3v3v53.279v3h3h190.814h3v-3
			V67.482V64.482L305.045,64.482z"/>
	</g>
	
		<line fill="none" stroke="#A3C3CC" stroke-width="0.7318" stroke-miterlimit="10" x1="111.23" y1="67.482" x2="302.042" y2="120.762"/>
	
		<line fill="none" stroke="#A3C3CC" stroke-width="0.7318" stroke-miterlimit="10" x1="111.23" y1="120.762" x2="302.042" y2="67.482"/>
</g>
<g>
	<g>
		<rect x="312.422" y="65.982" fill="#B9DDEA" width="57.848" height="56.279"/>
		<path fill="#FFFFFF" d="M368.77,67.482v53.279h-54.848V67.482H368.77 M371.77,64.482h-3h-54.848h-3v3v53.279v3h3h54.848h3v-3
			V67.482V64.482L371.77,64.482z"/>
	</g>
	
		<line fill="none" stroke="#A3C3CC" stroke-width="0.7318" stroke-miterlimit="10" x1="313.922" y1="67.482" x2="368.77" y2="120.762"/>
	
		<line fill="none" stroke="#A3C3CC" stroke-width="0.7318" stroke-miterlimit="10" x1="313.922" y1="120.762" x2="368.77" y2="67.482"/>
</g>
<g>
	<g>
		<rect x="379.984" y="65.982" fill="#B9DDEA" width="57.848" height="122.035"/>
		<path fill="#FFFFFF" d="M436.332,67.482v119.035h-54.848V67.482H436.332 M439.332,64.482h-3h-54.848h-3v3v119.035v3h3h54.848h3v-3
			V67.482V64.482L439.332,64.482z"/>
	</g>
	
		<line fill="none" stroke="#A3C3CC" stroke-width="0.7318" stroke-miterlimit="10" x1="381.484" y1="67.482" x2="436.332" y2="186.518"/>
	
		<line fill="none" stroke="#A3C3CC" stroke-width="0.7318" stroke-miterlimit="10" x1="381.484" y1="186.518" x2="436.332" y2="67.482"/>
</g>
<g>
	<g>
		<rect x="42.167" y="131.739" fill="#B9DDEA" width="125.412" height="56.279"/>
		<path fill="#FFFFFF" d="M166.079,133.239v53.279H43.667v-53.279H166.079 M169.079,130.239h-3H43.667h-3v3v53.279v3h3h122.412h3v-3
			v-53.279V130.239L169.079,130.239z"/>
	</g>
	
		<line fill="none" stroke="#A3C3CC" stroke-width="0.7318" stroke-miterlimit="10" x1="43.667" y1="133.239" x2="166.077" y2="186.518"/>
	
		<line fill="none" stroke="#A3C3CC" stroke-width="0.7318" stroke-miterlimit="10" x1="43.667" y1="186.518" x2="166.077" y2="133.239"/>
</g>
<g>
	<g>
		<rect x="177.294" y="131.739" fill="#B9DDEA" width="57.849" height="56.279"/>
		<path fill="#FFFFFF" d="M233.643,133.239v53.279h-54.849v-53.279H233.643 M236.643,130.239h-3h-54.849h-3v3v53.279v3h3h54.849h3
			v-3v-53.279V130.239L236.643,130.239z"/>
	</g>
	
		<line fill="none" stroke="#A3C3CC" stroke-width="0.7318" stroke-miterlimit="10" x1="178.794" y1="133.239" x2="233.641" y2="186.518"/>
	
		<line fill="none" stroke="#A3C3CC" stroke-width="0.7318" stroke-miterlimit="10" x1="178.794" y1="186.518" x2="233.641" y2="133.239"/>
</g>
<g>
	<g>
		<rect x="244.857" y="131.739" fill="#B9DDEA" width="125.415" height="56.279"/>
		<path fill="#FFFFFF" d="M368.772,133.239v53.279H246.357v-53.279H368.772 M371.772,130.239h-3H246.357h-3v3v53.279v3h3h122.415h3
			v-3v-53.279V130.239L371.772,130.239z"/>
	</g>
	
		<line fill="none" stroke="#A3C3CC" stroke-width="0.7318" stroke-miterlimit="10" x1="246.357" y1="133.239" x2="368.772" y2="186.518"/>
	
		<line fill="none" stroke="#A3C3CC" stroke-width="0.7318" stroke-miterlimit="10" x1="246.357" y1="186.518" x2="368.772" y2="133.239"/>
</g>
<g>
	<g>
		<rect x="42.167" y="197.738" fill="#B9DDEA" width="57.849" height="56.279"/>
		<path fill="#FFFFFF" d="M98.516,199.238v53.279H43.667v-53.279H98.516 M101.516,196.238h-3H43.667h-3v3v53.279v3h3h54.849h3v-3
			v-53.279V196.238L101.516,196.238z"/>
	</g>
	
		<line fill="none" stroke="#A3C3CC" stroke-width="0.7318" stroke-miterlimit="10" x1="43.667" y1="199.238" x2="98.515" y2="252.518"/>
	
		<line fill="none" stroke="#A3C3CC" stroke-width="0.7318" stroke-miterlimit="10" x1="43.667" y1="252.518" x2="98.515" y2="199.238"/>
</g>
<g>
	<g>
		<rect x="109.73" y="197.738" fill="#B9DDEA" width="193.814" height="56.279"/>
		<path fill="#FFFFFF" d="M302.045,199.238v53.279H111.23v-53.279H302.045 M305.045,196.238h-3H111.23h-3v3v53.279v3h3h190.814h3v-3
			v-53.279V196.238L305.045,196.238z"/>
	</g>
	
		<line fill="none" stroke="#A3C3CC" stroke-width="0.7318" stroke-miterlimit="10" x1="111.23" y1="199.238" x2="302.042" y2="252.518"/>
	
		<line fill="none" stroke="#A3C3CC" stroke-width="0.7318" stroke-miterlimit="10" x1="111.23" y1="252.518" x2="302.042" y2="199.238"/>
</g>
<g>
	<g>
		<rect x="312.422" y="197.738" fill="#B9DDEA" width="125.41" height="56.279"/>
		<path fill="#FFFFFF" d="M436.332,199.238v53.279h-122.41v-53.279H436.332 M439.332,196.238h-3h-122.41h-3v3v53.279v3h3h122.41h3
			v-3v-53.279V196.238L439.332,196.238z"/>
	</g>
	
		<line fill="none" stroke="#A3C3CC" stroke-width="0.7318" stroke-miterlimit="10" x1="313.922" y1="199.238" x2="436.332" y2="252.518"/>
	
		<line fill="none" stroke="#A3C3CC" stroke-width="0.7318" stroke-miterlimit="10" x1="313.922" y1="252.518" x2="436.332" y2="199.238"/>
</g>
</svg>
