<svg xmlns="http://www.w3.org/2000/svg" width="480" height="320" viewBox="0 0 480 320"><path fill="#CCDE91" d="M0-1h480v321H0z"/><path fill="#C6C6C6" d="M1154.55-178.522l-4.455-4.456c-.288-.432-.863-.432-1.295 0l-.001.001-1.642-1.642c2.733-3.353 2.542-8.375-.657-11.44-3.306-3.306-8.77-3.306-12.218 0-3.308 3.306-3.308 8.769 0 12.218 3.104 3.103 8.085 3.254 11.541.532l1.655 1.655c-.396.295-.394.845.026 1.263l4.455 4.456c.287.431.861.431 1.295 0l1.293-1.293c.433-.288.433-.863.003-1.294zm-18.399-7.187c-2.301-2.444-2.444-6.181 0-8.625 2.442-2.444 6.324-2.444 8.624 0 2.443 2.444 2.443 6.181 0 8.625s-6.325 2.444-8.624 0z"/><g fill="#DDD"><path d="M1540.375 226.09h-11.85l45.898-106.199h10.5l45.602 106.199h-12l-11.701-27.898h-54.898l-11.551 27.898zm15.6-37.799h46.802l-23.4-56.4-23.402 56.4zM1689.774 180.656c0-6.055-1.602-10.57-4.801-13.549-3.2-2.979-7.853-4.469-13.949-4.469-4.2 0-8.102.75-11.7 2.25-3.6 1.5-6.65 3.502-9.149 6l-5.698-6.75c2.896-2.897 6.725-5.299 11.475-7.199 4.748-1.898 10.125-2.852 16.125-2.852 3.799 0 7.351.525 10.65 1.576 3.3 1.049 6.198 2.625 8.698 4.725 2.499 2.101 4.448 4.75 5.852 7.949 1.398 3.202 2.101 6.952 2.101 11.25v30.75c0 2.701.099 5.502.3 8.4.198 2.9.5 5.352.899 7.35h-9.149a73.763 73.763 0 0 1-.75-5.549c-.201-2-.3-3.949-.3-5.852h-.301c-3.201 4.701-6.824 8.076-10.875 10.125s-8.926 3.074-14.625 3.074c-2.699 0-5.476-.377-8.324-1.127a23.207 23.207 0 0 1-7.801-3.688c-2.352-1.706-4.301-3.914-5.851-6.623-1.552-2.709-2.324-6.021-2.324-9.936 0-5.418 1.374-9.707 4.125-12.865 2.749-3.158 6.425-5.519 11.023-7.072 4.601-1.559 9.875-2.562 15.825-3.012a245.08 245.08 0 0 1 18.524-.68v-2.226zm-3 10.334c-4.2 0-8.427.176-12.676.523-4.252.354-8.101 1.051-11.551 2.102-3.449 1.051-6.274 2.576-8.476 4.574-2.201 2.002-3.301 4.648-3.301 7.949 0 2.5.475 4.603 1.426 6.301a11.662 11.662 0 0 0 3.824 4.125c1.6 1.051 3.375 1.801 5.325 2.25 1.948.449 3.924.676 5.925.676 3.602 0 6.801-.623 9.602-1.875 2.798-1.249 5.147-2.948 7.049-5.102 1.898-2.147 3.351-4.625 4.352-7.426 1-2.798 1.5-5.748 1.5-8.85v-5.25l-2.999.003z"/></g><path fill="#B9DDEA" d="M42.167 65.982h57.849v56.279H42.167z"/><path fill="#FFF" d="M98.516 67.482v53.279H43.667V67.482h54.849m3-3H40.667v59.279h60.849V64.482z"/><path fill="none" stroke="#A3C3CC" stroke-width=".732" stroke-miterlimit="10" d="M43.667 67.482l54.848 53.28M43.667 120.762l54.848-53.28"/><path fill="#B9DDEA" d="M109.73 65.982h193.814v56.279H109.73z"/><path fill="#FFF" d="M302.045 67.482v53.279H111.23V67.482h190.815m3-3H108.23v59.279h196.814V64.482h.001z"/><path fill="none" stroke="#A3C3CC" stroke-width=".732" stroke-miterlimit="10" d="M111.23 67.482l190.812 53.28M111.23 120.762l190.812-53.28"/><path fill="#B9DDEA" d="M312.422 65.982h57.848v56.279h-57.848z"/><path fill="#FFF" d="M368.77 67.482v53.279h-54.848V67.482h54.848m3-3h-60.848v59.279h60.848V64.482z"/><path fill="none" stroke="#A3C3CC" stroke-width=".732" stroke-miterlimit="10" d="M313.922 67.482l54.848 53.28M313.922 120.762l54.848-53.28"/><g><path fill="#B9DDEA" d="M379.984 65.982h57.848v122.035h-57.848z"/><path fill="#FFF" d="M436.332 67.482v119.035h-54.848V67.482h54.848m3-3h-60.848v125.035h60.848V64.482z"/><path fill="none" stroke="#A3C3CC" stroke-width=".732" stroke-miterlimit="10" d="M381.484 67.482l54.848 119.036M381.484 186.518l54.848-119.036"/></g><g><path fill="#B9DDEA" d="M42.167 131.739h125.412v56.279H42.167z"/><path fill="#FFF" d="M166.079 133.239v53.279H43.667v-53.279h122.412m3-3H40.667v59.279h128.412v-59.279z"/><path fill="none" stroke="#A3C3CC" stroke-width=".732" stroke-miterlimit="10" d="M43.667 133.239l122.41 53.279M43.667 186.518l122.41-53.279"/></g><g><path fill="#B9DDEA" d="M177.294 131.739h57.849v56.279h-57.849z"/><path fill="#FFF" d="M233.643 133.239v53.279h-54.849v-53.279h54.849m3-3h-60.849v59.279h60.849v-59.279z"/><path fill="none" stroke="#A3C3CC" stroke-width=".732" stroke-miterlimit="10" d="M178.794 133.239l54.847 53.279M178.794 186.518l54.847-53.279"/></g><g><path fill="#B9DDEA" d="M244.857 131.739h125.415v56.279H244.857z"/><path fill="#FFF" d="M368.772 133.239v53.279H246.357v-53.279h122.415m3-3H243.357v59.279H371.772v-59.279z"/><path fill="none" stroke="#A3C3CC" stroke-width=".732" stroke-miterlimit="10" d="M246.357 133.239l122.415 53.279M246.357 186.518l122.415-53.279"/></g><g><path fill="#B9DDEA" d="M42.167 197.738h57.849v56.279H42.167z"/><path fill="#FFF" d="M98.516 199.238v53.279H43.667v-53.279h54.849m3-3H40.667v59.279h60.849v-59.279z"/><path fill="none" stroke="#A3C3CC" stroke-width=".732" stroke-miterlimit="10" d="M43.667 199.238l54.848 53.28M43.667 252.518l54.848-53.28"/></g><g><path fill="#B9DDEA" d="M109.73 197.738h193.814v56.279H109.73z"/><path fill="#FFF" d="M302.045 199.238v53.279H111.23v-53.279h190.815m3-3H108.23v59.279h196.814v-59.279h.001z"/><path fill="none" stroke="#A3C3CC" stroke-width=".732" stroke-miterlimit="10" d="M111.23 199.238l190.812 53.28M111.23 252.518l190.812-53.28"/></g><g><path fill="#B9DDEA" d="M312.422 197.738h125.41v56.279h-125.41z"/><path fill="#FFF" d="M436.332 199.238v53.279h-122.41v-53.279h122.41m3-3h-128.41v59.279h128.41v-59.279z"/><path fill="none" stroke="#A3C3CC" stroke-width=".732" stroke-miterlimit="10" d="M313.922 199.238l122.41 53.28M313.922 252.518l122.41-53.28"/></g></svg>