<?xml version="1.0" encoding="utf-8"?>
<!-- Generator: Adobe Illustrator 16.0.4, SVG Export Plug-In . SVG Version: 6.00 Build 0)  -->
<!DOCTYPE svg PUBLIC "-//W3C//DTD SVG 1.1//EN" "http://www.w3.org/Graphics/SVG/1.1/DTD/svg11.dtd">
<svg version="1.1" id="Layer_1" xmlns="http://www.w3.org/2000/svg" xmlns:xlink="http://www.w3.org/1999/xlink" x="0px" y="0px"
	 width="480px" height="320px" viewBox="0 0 480 320" enable-background="new 0 0 480 320" xml:space="preserve">
<rect y="-1" fill="#A3C855" width="480" height="321"/>
<g>
	<path fill="#3EA349" d="M56.89,160.959h9.152v39.025h49.068v-39.025h9.152v90h-9.152v-42.585H66.042v42.585H56.89V160.959z"/>
	<path fill="#3EA349" d="M177.016,250.959h-9.152v-81.864h-30.127v-8.136h69.407v8.136h-30.127V250.959z"/>
	<path fill="#3EA349" d="M265.109,235.451h0.127l30.127-74.492h13.983v90h-9.152v-78.178h-0.255l-32.543,78.178h-4.831
		l-32.542-78.178h-0.254v78.178h-9.152v-90H234.6L265.109,235.451z"/>
	<path fill="#3EA349" d="M342.395,242.823h41.95v8.136h-51.103v-90h9.152V242.823z"/>
</g>
</svg>
