<svg xmlns="http://www.w3.org/2000/svg" width="480" height="320" viewBox="0 0 480 320"><path fill="#A3C855" d="M0-1h480v321H0z"/><g fill="#3EA349"><path d="M56.89 160.959h9.152v39.025h49.068v-39.025h9.152v90h-9.152v-42.585H66.042v42.585H56.89v-90zM177.016 250.959h-9.152v-81.864h-30.127v-8.136h69.407v8.136h-30.127v81.864zM265.109 235.451h.127l30.127-74.492h13.983v90h-9.152v-78.178h-.255l-32.543 78.178h-4.831l-32.542-78.178h-.254v78.178h-9.152v-90H234.6l30.509 74.492zM342.395 242.823h41.95v8.136h-51.103v-90h9.152v81.864z"/></g></svg>