<?xml version="1.0" encoding="utf-8"?>
<!-- Generator: Adobe Illustrator 16.0.4, SVG Export Plug-In . SVG Version: 6.00 Build 0)  -->
<!DOCTYPE svg PUBLIC "-//W3C//DTD SVG 1.1//EN" "http://www.w3.org/Graphics/SVG/1.1/DTD/svg11.dtd">
<svg version="1.1" id="Layer_1" xmlns="http://www.w3.org/2000/svg" xmlns:xlink="http://www.w3.org/1999/xlink" x="0px" y="0px"
	 width="480px" height="320px" viewBox="0 0 480 320" enable-background="new 0 0 480 320" xml:space="preserve">
<rect y="-1" fill="#B9DDEA" width="480" height="321"/>
<g>
	<path fill="#00B1DC" d="M56.351,240.049H44.5L90.399,133.85h10.5l45.602,106.199h-12L122.8,212.15H67.902L56.351,240.049z
		 M71.95,202.249h46.801l-23.4-56.399L71.95,202.249z"/>
	<path fill="#00B1DC" d="M205.751,194.616c0-6.055-1.602-10.571-4.801-13.55c-3.201-2.978-7.852-4.468-13.949-4.468
		c-4.201,0-8.102,0.75-11.701,2.25c-3.598,1.5-6.649,3.502-9.147,6l-5.699-6.75c2.896-2.897,6.726-5.299,11.476-7.199
		c4.748-1.897,10.125-2.852,16.125-2.852c3.799,0,7.35,0.524,10.649,1.575c3.3,1.05,6.199,2.625,8.699,4.726
		c2.498,2.101,4.447,4.75,5.851,7.949c1.399,3.202,2.102,6.951,2.102,11.25v30.75c0,2.701,0.098,5.502,0.299,8.4
		c0.199,2.9,0.5,5.352,0.9,7.35h-9.15c-0.299-1.699-0.551-3.549-0.75-5.549c-0.201-2-0.299-3.949-0.299-5.853h-0.301
		c-3.201,4.702-6.824,8.077-10.875,10.125c-4.051,2.05-8.926,3.075-14.625,3.075c-2.699,0-5.476-0.377-8.324-1.127
		c-2.852-0.753-5.453-1.979-7.801-3.688c-2.353-1.707-4.301-3.914-5.851-6.623c-1.553-2.709-2.325-6.021-2.325-9.936
		c0-5.418,1.375-9.707,4.125-12.866c2.75-3.157,6.426-5.518,11.024-7.071c4.601-1.559,9.875-2.562,15.824-3.013
		c5.946-0.45,12.123-0.679,18.524-0.679V194.616L205.751,194.616z M202.751,204.95c-4.201,0-8.426,0.176-12.676,0.523
		c-4.252,0.354-8.1,1.051-11.551,2.102c-3.449,1.051-6.275,2.575-8.475,4.574c-2.201,2.001-3.301,4.648-3.301,7.949
		c0,2.5,0.475,4.602,1.426,6.301c0.949,1.701,2.225,3.074,3.824,4.125s3.375,1.801,5.325,2.25c1.947,0.449,3.925,0.676,5.925,0.676
		c3.602,0,6.801-0.623,9.602-1.875c2.797-1.25,5.148-2.949,7.049-5.102c1.898-2.148,3.35-4.625,4.352-7.426
		c0.998-2.799,1.5-5.748,1.5-8.85v-5.25L202.751,204.95L202.751,204.95z"/>
</g>
<g>
	<path fill="#00B1DC" d="M263.101,163.851h-4.391l17.005-39.346h3.891l16.896,39.346h-4.446l-4.334-10.338h-20.342L263.101,163.851z
		 M268.881,149.845h17.339l-8.67-20.895L268.881,149.845z M282.941,116.612c0,0.742-0.14,1.436-0.418,2.084
		c-0.277,0.647-0.666,1.213-1.166,1.695c-0.501,0.481-1.076,0.853-1.724,1.111c-0.649,0.26-1.325,0.389-2.028,0.389
		c-0.742,0-1.426-0.128-2.057-0.389c-0.63-0.259-1.194-0.63-1.694-1.111c-0.501-0.482-0.89-1.047-1.168-1.695
		c-0.277-0.648-0.417-1.342-0.417-2.084s0.14-1.436,0.417-2.085c0.278-0.646,0.667-1.202,1.168-1.666
		c0.5-0.463,1.064-0.833,1.694-1.112c0.631-0.278,1.314-0.417,2.057-0.417c0.703,0,1.379,0.139,2.028,0.417
		c0.647,0.278,1.223,0.648,1.724,1.112c0.5,0.464,0.889,1.02,1.166,1.666C282.802,115.176,282.941,115.871,282.941,116.612z
		 M280.939,116.612c0-0.926-0.324-1.704-0.973-2.334c-0.648-0.631-1.436-0.945-2.361-0.945c-0.928,0-1.715,0.314-2.362,0.945
		c-0.648,0.63-0.972,1.408-0.972,2.334c0,0.927,0.323,1.705,0.972,2.333c0.647,0.631,1.435,0.946,2.362,0.946
		c0.926,0,1.713-0.315,2.361-0.946C280.615,118.317,280.939,117.539,280.939,116.612z"/>
	<path fill="#00B1DC" d="M318.452,147.018c0-2.243-0.593-3.917-1.778-5.02c-1.187-1.104-2.909-1.655-5.168-1.655
		c-1.557,0-3,0.278-4.336,0.833c-1.332,0.555-2.464,1.297-3.389,2.223l-2.113-2.501c1.074-1.074,2.492-1.963,4.252-2.667
		c1.76-0.704,3.752-1.057,5.975-1.057c1.407,0,2.723,0.195,3.945,0.583c1.223,0.389,2.298,0.973,3.224,1.751
		c0.927,0.777,1.648,1.76,2.168,2.946c0.518,1.185,0.776,2.576,0.776,4.167v11.393c0,1,0.039,2.037,0.113,3.111
		c0.074,1.076,0.184,1.982,0.332,2.724h-3.39c-0.111-0.63-0.204-1.314-0.278-2.057c-0.074-0.739-0.111-1.463-0.111-2.167h-0.11
		c-1.187,1.742-2.528,2.992-4.028,3.75c-1.501,0.759-3.307,1.14-5.419,1.14c-1.001,0-2.028-0.14-3.085-0.417
		c-1.057-0.28-2.02-0.735-2.89-1.366c-0.871-0.633-1.593-1.45-2.167-2.455c-0.576-1.004-0.861-2.229-0.861-3.68
		c0-2.009,0.508-3.597,1.527-4.767c1.02-1.172,2.381-2.045,4.084-2.621c1.705-0.577,3.66-0.947,5.864-1.116
		c2.204-0.166,4.492-0.251,6.863-0.251V147.018z M317.34,150.847c-1.555,0-3.121,0.064-4.695,0.194
		c-1.574,0.129-3.001,0.389-4.279,0.778c-1.277,0.389-2.326,0.955-3.139,1.694c-0.816,0.742-1.223,1.724-1.223,2.946
		c0,0.927,0.174,1.706,0.527,2.334c0.352,0.631,0.824,1.14,1.418,1.529c0.592,0.389,1.248,0.667,1.972,0.833
		c0.722,0.166,1.454,0.25,2.195,0.25c1.334,0,2.519-0.231,3.558-0.694c1.037-0.464,1.906-1.092,2.61-1.891
		c0.704-0.796,1.242-1.712,1.612-2.75c0.37-1.039,0.556-2.13,0.556-3.279v-1.945H317.34z M317.119,127.727
		c0,0.742-0.139,1.437-0.418,2.085c-0.277,0.648-0.666,1.213-1.166,1.694c-0.5,0.482-1.074,0.852-1.723,1.112
		c-0.649,0.259-1.325,0.389-2.029,0.389c-0.741,0-1.427-0.13-2.057-0.389c-0.63-0.26-1.193-0.63-1.694-1.112
		c-0.501-0.481-0.89-1.046-1.167-1.694c-0.278-0.648-0.417-1.343-0.417-2.085c0-0.74,0.139-1.436,0.417-2.083
		c0.277-0.648,0.666-1.204,1.167-1.668c0.501-0.462,1.064-0.833,1.694-1.11c0.63-0.278,1.315-0.417,2.057-0.417
		c0.704,0,1.38,0.139,2.029,0.417c0.648,0.277,1.223,0.648,1.723,1.11c0.5,0.464,0.889,1.02,1.166,1.668
		C316.98,126.291,317.119,126.986,317.119,127.727z M315.119,127.727c0-0.925-0.326-1.702-0.975-2.333
		c-0.648-0.629-1.436-0.945-2.361-0.945s-1.714,0.316-2.361,0.945c-0.648,0.631-0.973,1.409-0.973,2.333
		c0,0.927,0.324,1.705,0.973,2.334c0.647,0.631,1.436,0.945,2.361,0.945s1.713-0.314,2.361-0.945
		C314.793,129.432,315.119,128.654,315.119,127.727z"/>
</g>
<g>
	<path fill="#00B1DC" d="M357.941,163.851h-4.391l17.006-39.346h3.891l16.895,39.346h-4.445l-4.334-10.338h-20.342L357.941,163.851z
		 M363.723,149.845h17.338l-8.67-20.895L363.723,149.845z M374.059,121.392h-3.279l5.559-8.003h5.057L374.059,121.392z"/>
	<path fill="#00B1DC" d="M413.295,147.018c0-2.243-0.594-3.917-1.779-5.02s-2.908-1.655-5.168-1.655
		c-1.557,0-3.002,0.278-4.336,0.833c-1.332,0.555-2.463,1.297-3.391,2.223l-2.111-2.501c1.074-1.074,2.492-1.963,4.252-2.667
		c1.76-0.704,3.752-1.057,5.975-1.057c1.406,0,2.723,0.195,3.947,0.583c1.221,0.389,2.295,0.973,3.221,1.751
		c0.928,0.777,1.65,1.76,2.168,2.946c0.52,1.185,0.779,2.576,0.779,4.167v11.393c0,1,0.035,2.037,0.109,3.111
		c0.076,1.076,0.186,1.982,0.334,2.724h-3.391c-0.109-0.63-0.203-1.314-0.277-2.057c-0.074-0.739-0.109-1.463-0.109-2.167h-0.113
		c-1.186,1.742-2.529,2.992-4.027,3.75c-1.502,0.759-3.309,1.14-5.42,1.14c-1,0-2.027-0.14-3.082-0.417
		c-1.057-0.28-2.021-0.735-2.893-1.366c-0.869-0.633-1.592-1.45-2.166-2.455s-0.861-2.229-0.861-3.68
		c0-2.009,0.508-3.597,1.527-4.767c1.02-1.172,2.381-2.045,4.084-2.621c1.705-0.577,3.66-0.947,5.863-1.116
		c2.205-0.166,4.492-0.251,6.865-0.251V147.018z M412.184,150.847c-1.559,0-3.121,0.064-4.697,0.194
		c-1.574,0.129-3.002,0.389-4.279,0.778c-1.277,0.389-2.326,0.955-3.139,1.694c-0.816,0.742-1.225,1.724-1.225,2.946
		c0,0.927,0.176,1.706,0.529,2.334c0.352,0.631,0.824,1.14,1.418,1.529c0.592,0.389,1.248,0.667,1.971,0.833
		c0.725,0.166,1.455,0.25,2.197,0.25c1.332,0,2.52-0.231,3.557-0.694c1.037-0.464,1.906-1.092,2.611-1.891
		c0.703-0.796,1.24-1.712,1.611-2.75c0.371-1.039,0.557-2.13,0.557-3.279v-1.945H412.184z M407.127,132.507h-3.281l5.559-8.003
		h5.057L407.127,132.507z"/>
</g>
<g>
	<path fill="#00B1DC" d="M263.101,239.755h-4.391l17.007-39.347h3.889l16.895,39.347h-4.445l-4.335-10.338h-20.341L263.101,239.755z
		 M268.881,225.748h17.34l-8.67-20.895L268.881,225.748z M269.491,192.684c0-0.744,0.259-1.398,0.778-1.975
		c0.518-0.575,1.203-0.861,2.057-0.861c0.851,0,1.535,0.286,2.056,0.861c0.519,0.576,0.778,1.23,0.778,1.975
		c0,0.742-0.26,1.396-0.778,1.971c-0.521,0.575-1.205,0.861-2.056,0.861c-0.854,0-1.539-0.286-2.057-0.861
		C269.75,194.08,269.491,193.426,269.491,192.684z M280.162,192.684c0-0.744,0.258-1.398,0.777-1.975
		c0.519-0.575,1.203-0.861,2.057-0.861c0.852,0,1.537,0.286,2.057,0.861c0.519,0.576,0.777,1.23,0.777,1.975
		c0,0.742-0.259,1.396-0.777,1.971c-0.52,0.575-1.205,0.861-2.057,0.861c-0.854,0-1.538-0.286-2.057-0.861
		C280.42,194.08,280.162,193.426,280.162,192.684z"/>
	<path fill="#00B1DC" d="M318.452,222.921c0-2.242-0.593-3.916-1.778-5.019c-1.187-1.104-2.908-1.656-5.168-1.656
		c-1.557,0-3,0.278-4.336,0.835c-1.332,0.554-2.463,1.295-3.389,2.222l-2.113-2.501c1.074-1.073,2.492-1.962,4.252-2.668
		c1.76-0.703,3.752-1.056,5.975-1.056c1.407,0,2.724,0.194,3.945,0.583c1.223,0.39,2.298,0.973,3.225,1.751
		c0.924,0.777,1.648,1.762,2.166,2.946c0.519,1.185,0.777,2.575,0.777,4.167v11.394c0,1.002,0.039,2.036,0.113,3.111
		c0.072,1.076,0.184,1.983,0.332,2.725h-3.389c-0.111-0.63-0.205-1.316-0.279-2.058c-0.074-0.739-0.109-1.463-0.109-2.166h-0.111
		c-1.188,1.741-2.529,2.992-4.029,3.751c-1.502,0.759-3.307,1.14-5.419,1.14c-1.002,0-2.028-0.14-3.085-0.418
		c-1.055-0.278-2.02-0.735-2.889-1.365c-0.871-0.635-1.596-1.45-2.17-2.453c-0.574-1.005-0.859-2.23-0.859-3.682
		c0-2.01,0.508-3.597,1.527-4.768s2.381-2.045,4.084-2.621c1.705-0.576,3.66-0.947,5.863-1.115c2.205-0.167,4.493-0.25,6.864-0.25
		V222.921z M303.668,203.799c0-0.742,0.261-1.398,0.779-1.974c0.519-0.573,1.203-0.862,2.057-0.862c0.851,0,1.536,0.289,2.056,0.862
		c0.519,0.575,0.778,1.231,0.778,1.974c0,0.74-0.26,1.397-0.778,1.972c-0.52,0.575-1.205,0.861-2.056,0.861
		c-0.854,0-1.538-0.286-2.057-0.861C303.929,205.196,303.668,204.539,303.668,203.799z M317.34,226.75
		c-1.555,0-3.121,0.065-4.695,0.194s-3.001,0.39-4.279,0.778c-1.277,0.389-2.326,0.954-3.139,1.694
		c-0.815,0.741-1.223,1.723-1.223,2.945c0,0.928,0.174,1.706,0.525,2.333c0.354,0.632,0.826,1.142,1.42,1.53
		c0.592,0.389,1.25,0.667,1.971,0.834c0.725,0.165,1.455,0.249,2.196,0.249c1.334,0,2.519-0.231,3.558-0.694
		c1.037-0.463,1.906-1.093,2.61-1.891c0.704-0.796,1.242-1.712,1.613-2.749c0.368-1.038,0.555-2.131,0.555-3.279v-1.945H317.34z
		 M314.34,203.799c0-0.742,0.258-1.398,0.779-1.974c0.518-0.573,1.201-0.862,2.055-0.862c0.853,0,1.537,0.289,2.057,0.862
		c0.52,0.575,0.779,1.231,0.779,1.974c0,0.74-0.26,1.397-0.779,1.972c-0.52,0.575-1.204,0.861-2.057,0.861
		c-0.854,0-1.537-0.286-2.055-0.861C314.598,205.196,314.34,204.539,314.34,203.799z"/>
</g>
<g>
	<path fill="#00B1DC" d="M391.953,250.146c-0.631,0.63-1.389,1.12-2.279,1.475c-0.887,0.35-1.795,0.526-2.723,0.526
		c-0.666,0-1.297-0.111-1.889-0.332c-0.594-0.225-1.121-0.549-1.584-0.973c-0.463-0.427-0.834-0.928-1.111-1.502
		c-0.277-0.575-0.418-1.214-0.418-1.918c0-0.776,0.148-1.528,0.445-2.25c0.297-0.723,0.684-1.408,1.166-2.057
		c0.482-0.647,1.02-1.261,1.613-1.834c0.592-0.574,1.166-1.084,1.723-1.527l-4.334-10.338h-20.342l-4.279,10.338h-4.391
		l17.006-39.347h3.891l16.895,39.347h-1.777c-1.371,1.371-2.428,2.564-3.168,3.585c-0.742,1.018-1.113,2.064-1.113,3.138
		c0,0.778,0.279,1.419,0.836,1.919c0.555,0.499,1.203,0.749,1.945,0.749c0.518,0,1.027-0.101,1.527-0.304
		c0.5-0.205,0.936-0.512,1.307-0.919L391.953,250.146z M363.721,225.748h17.34l-8.67-20.895L363.721,225.748z"/>
	<path fill="#00B1DC" d="M419.072,250.146c-0.629,0.63-1.389,1.12-2.277,1.475c-0.889,0.35-1.799,0.526-2.723,0.526
		c-0.668,0-1.297-0.111-1.891-0.332c-0.594-0.225-1.121-0.549-1.582-0.973c-0.467-0.427-0.836-0.928-1.113-1.502
		c-0.277-0.575-0.416-1.214-0.416-1.918c0-0.776,0.148-1.528,0.445-2.25c0.295-0.723,0.684-1.408,1.164-2.057
		c0.482-0.647,1.02-1.261,1.613-1.834c0.594-0.574,1.168-1.084,1.721-1.527h-0.109c-0.109-0.63-0.203-1.316-0.277-2.058
		c-0.076-0.739-0.111-1.463-0.111-2.166h-0.111c-1.186,1.741-2.529,2.992-4.029,3.751s-3.307,1.14-5.418,1.14
		c-1.002,0-2.029-0.14-3.084-0.418c-1.057-0.278-2.02-0.735-2.891-1.365c-0.871-0.635-1.594-1.45-2.168-2.453
		c-0.574-1.005-0.859-2.23-0.859-3.682c0-2.01,0.508-3.597,1.527-4.768s2.381-2.045,4.084-2.621
		c1.705-0.576,3.658-0.947,5.863-1.115c2.203-0.167,4.492-0.25,6.865-0.25v-0.829c0-2.242-0.594-3.916-1.779-5.019
		c-1.186-1.104-2.908-1.656-5.168-1.656c-1.557,0-3.004,0.278-4.336,0.835c-1.334,0.554-2.465,1.295-3.391,2.222l-2.111-2.501
		c1.074-1.073,2.492-1.962,4.252-2.668c1.76-0.703,3.752-1.056,5.975-1.056c1.406,0,2.723,0.194,3.943,0.583
		c1.225,0.39,2.299,0.973,3.225,1.751c0.926,0.777,1.648,1.762,2.168,2.946s0.779,2.575,0.779,4.167v11.394
		c0,1.002,0.035,2.036,0.109,3.111c0.074,1.076,0.186,1.983,0.334,2.725h-0.609c-1.373,1.371-2.43,2.564-3.17,3.585
		c-0.74,1.018-1.111,2.064-1.111,3.138c0,0.778,0.277,1.419,0.834,1.919c0.557,0.499,1.203,0.749,1.945,0.749
		c0.518,0,1.027-0.101,1.527-0.304c0.502-0.205,0.938-0.512,1.307-0.919L419.072,250.146z M412.182,226.75
		c-1.557,0-3.119,0.065-4.695,0.194s-3.002,0.39-4.279,0.778c-1.279,0.389-2.326,0.954-3.141,1.694
		c-0.814,0.741-1.223,1.723-1.223,2.945c0,0.928,0.176,1.706,0.529,2.333c0.35,0.632,0.824,1.142,1.416,1.53
		c0.594,0.389,1.25,0.667,1.973,0.834c0.723,0.165,1.455,0.249,2.197,0.249c1.332,0,2.52-0.231,3.555-0.694
		c1.037-0.463,1.908-1.093,2.613-1.891c0.703-0.796,1.24-1.712,1.611-2.749c0.371-1.038,0.557-2.131,0.557-3.279v-1.945H412.182z"/>
</g>
</svg>
