<svg xmlns="http://www.w3.org/2000/svg" width="480" height="320" viewBox="-80 -44.75 480 320"><path fill="#E99141" d="M-83-48h487.5v329.5H-83z"/><path opacity=".1" d="M166.264 240.869l-4.926-4.928c-.318-.478-.955-.478-1.432 0v.002l-1.816-1.815c3.023-3.708 2.811-9.26-.726-12.648-3.656-3.655-9.697-3.655-13.509 0-3.656 3.656-3.656 9.696 0 13.51 3.431 3.432 8.938 3.598 12.76.587l1.83 1.829c-.438.326-.435.936.029 1.397l4.926 4.926c.318.478.951.478 1.432 0l1.43-1.43c.478-.318.478-.953.002-1.43zm-20.342-7.946c-2.542-2.701-2.702-6.835 0-9.536 2.701-2.701 6.993-2.701 9.535 0 2.701 2.701 2.701 6.835 0 9.536-2.701 2.701-6.993 2.701-9.535 0z"/><path fill="#FFF" d="M161.842 236.446l-4.927-4.928c-.317-.477-.955-.477-1.432 0v.003l-1.816-1.816c3.023-3.708 2.811-9.26-.726-12.647-3.656-3.656-9.697-3.656-13.509 0-3.656 3.655-3.656 9.695 0 13.509 3.431 3.432 8.938 3.598 12.76.588l1.83 1.829c-.438.326-.435.935.029 1.396l4.925 4.926c.317.479.952.479 1.433 0l1.43-1.43c.479-.317.479-.953.003-1.43zM141.5 228.5c-2.542-2.701-2.702-6.834 0-9.536 2.7-2.701 6.993-2.701 9.535 0 2.702 2.702 2.702 6.835 0 9.536-2.702 2.701-6.993 2.701-9.535 0z"/><path opacity=".1" d="M-21.085 25.507l-6.523-6.523-2.844 2.841 9.367 9.368 18.273-18.268-2.844-2.842-15.429 15.424z"/><path fill="#FFF" d="M-23.296 23.295l-6.523-6.523-2.844 2.841 9.367 9.368 18.273-18.268-2.844-2.842-15.429 15.424z"/><path opacity=".1" d="M192.352-6.869h-24.493a2.048 2.048 0 0 1-2.042-2.042c0-1.122.919-2.041 2.042-2.041h24.493c1.121 0 2.041.919 2.041 2.041 0 1.123-.92 2.042-2.041 2.042zm0 10.204h-24.493a2.048 2.048 0 0 1-2.042-2.041c0-1.122.919-2.041 2.042-2.041h24.493c1.121 0 2.041.919 2.041 2.041 0 1.123-.92 2.041-2.041 2.041zm0 10.206h-24.493a2.047 2.047 0 0 1-2.042-2.041c0-1.122.919-2.041 2.042-2.041h24.493c1.121 0 2.041.919 2.041 2.041 0 1.123-.92 2.041-2.041 2.041z"/><path fill="#FFF" d="M190.311-8.912h-24.494a2.047 2.047 0 0 1-2.04-2.041c0-1.123.918-2.042 2.04-2.042h24.494c1.122 0 2.041.919 2.041 2.042a2.048 2.048 0 0 1-2.041 2.041zm0 10.206h-24.494a2.047 2.047 0 0 1-2.04-2.041c0-1.122.918-2.041 2.04-2.041h24.494c1.122 0 2.041.919 2.041 2.041a2.048 2.048 0 0 1-2.041 2.041zm0 10.206h-24.494a2.046 2.046 0 0 1-2.04-2.041c0-1.123.918-2.041 2.04-2.041h24.494c1.122 0 2.041.918 2.041 2.041a2.047 2.047 0 0 1-2.041 2.041z"/><path opacity=".1" d="M93.224 85.421c-3.071-.747-17.227-.747-20.298 0-2.507.607-3.078 3.204-3.207 4.766-.233 2.776-.222 6.981 0 9.638.132 1.562.703 4.157 3.207 4.764 3.071.744 17.227.744 20.298 0 2.507-.606 3.078-3.205 3.207-4.764.234-2.777.225-6.979 0-9.638-.129-1.562-.7-4.159-3.207-4.766zM79.693 99.144v-8.28l8.455 4.141-8.455 4.139z"/><path fill="#FFF" d="M91.533 82.039c-3.071-.747-17.227-.747-20.298 0-2.506.608-3.078 3.204-3.207 4.766-.233 2.776-.221 6.982 0 9.637.132 1.562.704 4.158 3.207 4.764 3.072.746 17.227.746 20.298 0 2.507-.606 3.078-3.206 3.207-4.765.235-2.777.225-6.978 0-9.637-.129-1.561-.7-4.157-3.207-4.765zM78.002 95.762v-8.28l8.455 4.14-8.455 4.14z"/><g><path opacity=".1" d="M5.849 186.801c.013.266.02.536.02.808 0 8.23-6.273 17.727-17.733 17.727a17.614 17.614 0 0 1-9.552-2.798 12.52 12.52 0 0 0 9.226-2.578 6.233 6.233 0 0 1-5.821-4.325c.383.072.771.112 1.169.112.567 0 1.121-.079 1.642-.219a6.239 6.239 0 0 1-4.997-6.111v-.081a6.225 6.225 0 0 0 2.821.781 6.23 6.23 0 0 1-2.772-5.188c0-1.143.307-2.214.844-3.131 3.072 3.767 7.663 6.252 12.841 6.513a6.456 6.456 0 0 1-.159-1.422 6.227 6.227 0 0 1 6.229-6.232c1.792 0 3.41.755 4.548 1.972a12.708 12.708 0 0 0 3.958-1.513 6.24 6.24 0 0 1-2.742 3.447 12.462 12.462 0 0 0 3.583-.982 12.79 12.79 0 0 1-3.105 3.22z"/><path fill="#FFF" d="M4.162 185.113c.013.266.02.536.02.808 0 8.23-6.272 17.727-17.733 17.727a17.614 17.614 0 0 1-9.552-2.798 12.52 12.52 0 0 0 9.226-2.578 6.234 6.234 0 0 1-5.821-4.325c.383.072.771.112 1.169.112.567 0 1.12-.079 1.642-.22a6.237 6.237 0 0 1-4.997-6.11v-.081a6.229 6.229 0 0 0 2.821.781 6.23 6.23 0 0 1-2.772-5.188c0-1.143.307-2.214.844-3.132 3.072 3.768 7.663 6.253 12.841 6.514a6.459 6.459 0 0 1-.159-1.423 6.226 6.226 0 0 1 6.229-6.231c1.792 0 3.411.755 4.548 1.972a12.732 12.732 0 0 0 3.959-1.513 6.237 6.237 0 0 1-2.743 3.447 12.526 12.526 0 0 0 3.583-.982 12.79 12.79 0 0 1-3.105 3.22z"/></g><g><path opacity=".1" d="M347.011 29.661l3.889 12.008h12.582l-10.178 7.402 3.909 12-10.202-7.425-10.21 7.425 3.909-12-10.262-7.402h12.671l3.892-12.008z"/><path fill="#FFF" d="M343.373 26.024l3.89 12.008h12.583l-10.179 7.402 3.909 12.001-10.203-7.426-10.209 7.426 3.909-12.001-10.261-7.402h12.669l3.892-12.008z"/></g><g><path opacity=".1" d="M318.158 189.369l10.946 10.946-2.658 2.658-10.946-10.946-10.945 10.946-2.658-2.658 10.945-10.946-10.945-10.942 2.658-2.657 10.945 10.945 10.946-10.945 2.658 2.659-10.946 10.94z"/><path fill="#FFF" d="M318.158 183.842l10.946 10.945-2.658 2.658L315.5 186.5l-10.945 10.945-2.658-2.658 10.945-10.945-10.945-10.943 2.658-2.657 10.945 10.945 10.946-10.945 2.658 2.659-10.946 10.941z"/></g><g><path opacity=".1" d="M208.28 120.616h8.545v14.242h5.696v-14.242h8.542l-11.39-11.388-11.393 11.388zm27.171-15.957c-.931-6.757-6.388-11.952-13.001-11.952-4.952 0-9.26 2.911-11.507 7.206-.618-.167-1.254-.282-1.916-.282-3.646 0-6.362 2.718-6.611 6.157-3.094 1.588-5.241 4.8-5.241 8.508 0 5.035 4.117 9.174 8.259 9.174v-3.417c-2.194 0-4.842-2.571-4.842-5.757 0-2.299 1.298-4.394 3.385-5.466l1.706-.878.141-1.915c.129-1.759 1.446-2.99 3.208-2.99.274 0 .607.053 1.021.166l2.648.713 1.271-2.43c1.733-3.312 4.984-5.373 8.478-5.373 4.781 0 8.91 3.87 9.617 9.004l.286 2.114 2.032.665c2.611.861 4.369 3.317 4.369 6.112 0 3.34-2.647 6.028-4.841 6.028v3.418c4.04 0 8.258-4.184 8.258-9.446.001-4.373-2.818-8.074-6.72-9.359z"/><path fill="#FFF" d="M206.069 117.3h8.545v14.242h5.696V117.3h8.542l-11.391-11.388-11.392 11.388zm27.171-15.957c-.931-6.757-6.388-11.953-13.001-11.953-4.952 0-9.261 2.911-11.508 7.206-.617-.167-1.253-.281-1.915-.281-3.647 0-6.362 2.718-6.612 6.156-3.093 1.588-5.24 4.801-5.24 8.508 0 5.036 4.116 9.175 8.259 9.175v-3.418c-2.194 0-4.842-2.57-4.842-5.757 0-2.299 1.298-4.393 3.385-5.465l1.706-.878.141-1.916c.128-1.759 1.446-2.989 3.207-2.989.274 0 .608.052 1.021.165l2.648.714 1.272-2.431c1.732-3.312 4.983-5.372 8.478-5.372 4.781 0 8.91 3.869 9.617 9.003l.286 2.114 2.031.665c2.612.862 4.37 3.318 4.37 6.112 0 3.341-2.647 6.029-4.842 6.029v3.417c4.041 0 8.259-4.183 8.259-9.446.001-4.374-2.819-8.074-6.72-9.358z"/></g></svg>