<?xml version="1.0" encoding="utf-8"?>
<!-- Generator: Adobe Illustrator 16.0.4, SVG Export Plug-In . SVG Version: 6.00 Build 0)  -->
<!DOCTYPE svg PUBLIC "-//W3C//DTD SVG 1.1//EN" "http://www.w3.org/Graphics/SVG/1.1/DTD/svg11.dtd">
<svg version="1.1" xmlns="http://www.w3.org/2000/svg" xmlns:xlink="http://www.w3.org/1999/xlink" x="0px" y="0px" width="480px"
	 height="320px" viewBox="-80 -44.75 480 320" enable-background="new -80 -44.75 480 320" xml:space="preserve">
<g id="Layer_2">
	<rect x="-83" y="-48" fill="#E99141" width="487.5" height="329.5"/>
</g>
<g id="Layer_1">
	<g>
		<path opacity="0.1" enable-background="new    " d="M166.264,240.869l-4.926-4.928c-0.318-0.478-0.955-0.478-1.432,0v0.002
			l-1.816-1.815c3.023-3.708,2.811-9.26-0.726-12.648c-3.656-3.655-9.697-3.655-13.509,0c-3.656,3.656-3.656,9.696,0,13.51
			c3.431,3.432,8.938,3.598,12.76,0.587l1.83,1.829c-0.438,0.326-0.435,0.936,0.029,1.397l4.926,4.926
			c0.318,0.478,0.951,0.478,1.432,0l1.43-1.43C166.74,241.981,166.74,241.346,166.264,240.869z M145.922,232.923
			c-2.542-2.701-2.702-6.835,0-9.536c2.701-2.701,6.993-2.701,9.535,0c2.701,2.701,2.701,6.835,0,9.536
			C152.756,235.624,148.464,235.624,145.922,232.923z"/>
		<path fill="#FFFFFF" d="M161.842,236.446l-4.927-4.928c-0.317-0.477-0.955-0.477-1.432,0v0.003l-1.816-1.816
			c3.023-3.708,2.811-9.26-0.726-12.647c-3.656-3.656-9.697-3.656-13.509,0c-3.656,3.655-3.656,9.695,0,13.509
			c3.431,3.432,8.938,3.598,12.76,0.588l1.83,1.829c-0.438,0.326-0.435,0.935,0.029,1.396l4.925,4.926
			c0.317,0.479,0.952,0.479,1.433,0l1.43-1.43C162.318,237.559,162.318,236.923,161.842,236.446z M141.5,228.5
			c-2.542-2.701-2.702-6.834,0-9.536c2.7-2.701,6.993-2.701,9.535,0c2.702,2.702,2.702,6.835,0,9.536
			C148.333,231.201,144.042,231.201,141.5,228.5z"/>
	</g>
	<g>
		<path opacity="0.1" enable-background="new    " d="M-21.085,25.507l-6.523-6.523l-2.844,2.841l9.367,9.368l18.273-18.268
			l-2.844-2.842L-21.085,25.507z"/>
		<path fill="#FFFFFF" d="M-23.296,23.295l-6.523-6.523l-2.844,2.841l9.367,9.368l18.273-18.268l-2.844-2.842L-23.296,23.295z"/>
	</g>
	<g>
		<path opacity="0.1" enable-background="new    " d="M192.352-6.869h-24.493c-1.123,0-2.042-0.919-2.042-2.042l0,0
			c0-1.122,0.919-2.041,2.042-2.041h24.493c1.121,0,2.041,0.919,2.041,2.041l0,0C194.393-7.788,193.473-6.869,192.352-6.869z
			 M192.352,3.335h-24.493c-1.123,0-2.042-0.919-2.042-2.041l0,0c0-1.122,0.919-2.041,2.042-2.041h24.493
			c1.121,0,2.041,0.919,2.041,2.041l0,0C194.393,2.417,193.473,3.335,192.352,3.335z M192.352,13.541h-24.493
			c-1.123,0-2.042-0.918-2.042-2.041l0,0c0-1.122,0.919-2.041,2.042-2.041h24.493c1.121,0,2.041,0.919,2.041,2.041l0,0
			C194.393,12.623,193.473,13.541,192.352,13.541z"/>
		<path fill="#FFFFFF" d="M190.311-8.912h-24.494c-1.122,0-2.04-0.919-2.04-2.041l0,0c0-1.123,0.918-2.042,2.04-2.042h24.494
			c1.122,0,2.041,0.919,2.041,2.042l0,0C192.352-9.831,191.433-8.912,190.311-8.912z M190.311,1.294h-24.494
			c-1.122,0-2.04-0.919-2.04-2.041l0,0c0-1.122,0.918-2.041,2.04-2.041h24.494c1.122,0,2.041,0.919,2.041,2.041l0,0
			C192.352,0.375,191.433,1.294,190.311,1.294z M190.311,11.5h-24.494c-1.122,0-2.04-0.918-2.04-2.041l0,0
			c0-1.123,0.918-2.041,2.04-2.041h24.494c1.122,0,2.041,0.918,2.041,2.041l0,0C192.352,10.582,191.433,11.5,190.311,11.5z"/>
	</g>
	<g>
		<path opacity="0.1" enable-background="new    " d="M93.224,85.421c-3.071-0.747-17.227-0.747-20.298,0
			c-2.507,0.607-3.078,3.204-3.207,4.766c-0.233,2.776-0.222,6.981,0,9.638c0.132,1.562,0.703,4.157,3.207,4.764
			c3.071,0.744,17.227,0.744,20.298,0c2.507-0.606,3.078-3.205,3.207-4.764c0.234-2.777,0.225-6.979,0-9.638
			C96.302,88.625,95.731,86.028,93.224,85.421z M79.693,99.144v-8.28l8.455,4.141L79.693,99.144z"/>
		<path fill="#FFFFFF" d="M91.533,82.039c-3.071-0.747-17.227-0.747-20.298,0c-2.506,0.608-3.078,3.204-3.207,4.766
			c-0.233,2.776-0.221,6.982,0,9.637c0.132,1.562,0.704,4.158,3.207,4.764c3.072,0.746,17.227,0.746,20.298,0
			C94.04,100.6,94.611,98,94.74,96.441c0.235-2.777,0.225-6.978,0-9.637C94.611,85.243,94.04,82.647,91.533,82.039z M78.002,95.762
			v-8.28l8.455,4.14L78.002,95.762z"/>
	</g>
	<g>
		<path opacity="0.1" enable-background="new    " d="M5.849,186.801c0.013,0.266,0.02,0.536,0.02,0.808
			c0,8.23-6.273,17.727-17.733,17.727c-3.517,0-6.795-1.027-9.552-2.798c0.488,0.059,0.982,0.091,1.487,0.091
			c2.917,0,5.605-0.999,7.739-2.669c-2.729-0.046-5.029-1.854-5.821-4.325c0.383,0.072,0.771,0.112,1.169,0.112
			c0.567,0,1.121-0.079,1.642-0.219c-2.851-0.576-4.997-3.094-4.997-6.111c0-0.029,0-0.055,0-0.081
			c0.836,0.465,1.802,0.748,2.821,0.781c-1.673-1.119-2.772-3.026-2.772-5.188c0-1.143,0.307-2.214,0.844-3.131
			c3.072,3.767,7.663,6.252,12.841,6.513c-0.104-0.46-0.159-0.938-0.159-1.422c0-3.447,2.788-6.232,6.229-6.232
			c1.792,0,3.41,0.755,4.548,1.972c1.421-0.284,2.756-0.805,3.958-1.513c-0.464,1.453-1.453,2.677-2.742,3.447
			c1.263-0.151,2.462-0.485,3.583-0.982C8.122,184.822,7.063,185.921,5.849,186.801L5.849,186.801z"/>
		<path fill="#FFFFFF" d="M4.162,185.113c0.013,0.266,0.02,0.536,0.02,0.808c0,8.23-6.272,17.727-17.733,17.727
			c-3.517,0-6.795-1.027-9.552-2.798c0.488,0.059,0.982,0.091,1.487,0.091c2.917,0,5.605-0.999,7.739-2.669
			c-2.729-0.047-5.029-1.854-5.821-4.325c0.383,0.072,0.771,0.112,1.169,0.112c0.567,0,1.12-0.079,1.642-0.22
			c-2.851-0.575-4.997-3.093-4.997-6.11c0-0.029,0-0.055,0-0.081c0.837,0.465,1.802,0.748,2.821,0.781
			c-1.673-1.119-2.772-3.026-2.772-5.188c0-1.143,0.307-2.214,0.844-3.132c3.072,3.768,7.663,6.253,12.841,6.514
			c-0.104-0.46-0.159-0.938-0.159-1.423c0-3.446,2.788-6.231,6.229-6.231c1.792,0,3.411,0.755,4.548,1.972
			c1.421-0.284,2.755-0.805,3.959-1.513c-0.464,1.453-1.453,2.677-2.743,3.447c1.263-0.152,2.462-0.486,3.583-0.982
			C6.434,183.135,5.376,184.233,4.162,185.113L4.162,185.113z"/>
	</g>
	<g>
		<path opacity="0.1" enable-background="new    " d="M347.011,29.661l3.889,12.008h12.582l-10.178,7.402l3.909,12l-10.202-7.425
			l-10.21,7.425l3.909-12l-10.262-7.402h12.671L347.011,29.661z"/>
		<path fill="#FFFFFF" d="M343.373,26.024l3.89,12.008h12.583l-10.179,7.402l3.909,12.001l-10.203-7.426l-10.209,7.426l3.909-12.001
			l-10.261-7.402h12.669L343.373,26.024z"/>
	</g>
	<g>
		<path opacity="0.1" enable-background="new    " d="M318.158,189.369l10.946,10.946l-2.658,2.658L315.5,192.027l-10.945,10.946
			l-2.658-2.658l10.945-10.946l-10.945-10.942l2.658-2.657l10.945,10.945l10.946-10.945l2.658,2.659L318.158,189.369
			L318.158,189.369z"/>
		<path fill="#FFFFFF" d="M318.158,183.842l10.946,10.945l-2.658,2.658L315.5,186.5l-10.945,10.945l-2.658-2.658l10.945-10.945
			l-10.945-10.943l2.658-2.657l10.945,10.945l10.946-10.945l2.658,2.659L318.158,183.842L318.158,183.842z"/>
	</g>
	<g>
		<path opacity="0.1" d="M208.28,120.616h8.545v14.242h5.696v-14.242h8.542l-11.39-11.388L208.28,120.616z M235.451,104.659
			c-0.931-6.757-6.388-11.952-13.001-11.952c-4.952,0-9.26,2.911-11.507,7.206c-0.618-0.167-1.254-0.282-1.916-0.282
			c-3.646,0-6.362,2.718-6.611,6.157c-3.094,1.588-5.241,4.8-5.241,8.508c0,5.035,4.117,9.174,8.259,9.174v-3.417
			c-2.194,0-4.842-2.571-4.842-5.757c0-2.299,1.298-4.394,3.385-5.466l1.706-0.878l0.141-1.915c0.129-1.759,1.446-2.99,3.208-2.99
			c0.274,0,0.607,0.053,1.021,0.166l2.648,0.713l1.271-2.43c1.733-3.312,4.984-5.373,8.478-5.373c4.781,0,8.91,3.87,9.617,9.004
			l0.286,2.114l2.032,0.665c2.611,0.861,4.369,3.317,4.369,6.112c0,3.34-2.647,6.028-4.841,6.028v3.418
			c4.04,0,8.258-4.184,8.258-9.446C242.172,109.645,239.353,105.944,235.451,104.659L235.451,104.659z"/>
		<path fill="#FFFFFF" d="M206.069,117.3h8.545v14.242h5.696V117.3h8.542l-11.391-11.388L206.069,117.3z M233.24,101.343
			c-0.931-6.757-6.388-11.953-13.001-11.953c-4.952,0-9.261,2.911-11.508,7.206c-0.617-0.167-1.253-0.281-1.915-0.281
			c-3.647,0-6.362,2.718-6.612,6.156c-3.093,1.588-5.24,4.801-5.24,8.508c0,5.036,4.116,9.175,8.259,9.175v-3.418
			c-2.194,0-4.842-2.57-4.842-5.757c0-2.299,1.298-4.393,3.385-5.465l1.706-0.878l0.141-1.916c0.128-1.759,1.446-2.989,3.207-2.989
			c0.274,0,0.608,0.052,1.021,0.165l2.648,0.714l1.272-2.431c1.732-3.312,4.983-5.372,8.478-5.372c4.781,0,8.91,3.869,9.617,9.003
			l0.286,2.114l2.031,0.665c2.612,0.862,4.37,3.318,4.37,6.112c0,3.341-2.647,6.029-4.842,6.029v3.417
			c4.041,0,8.259-4.183,8.259-9.446C239.961,106.327,237.141,102.627,233.24,101.343L233.24,101.343z"/>
	</g>
</g>
</svg>
