<svg xmlns="http://www.w3.org/2000/svg" width="480" height="320" viewBox="0 0 480 320"><path fill="#FEE864" d="M0-1h480v321H0z"/><path fill="none" d="M49.5 130h263v190h-263z"/><g fill="#E0BD2B"><path d="M66.536 232.121c.644 3.388 2.156 6.23 4.536 8.528 2.378 2.299 5.504 3.447 9.375 3.447 2.982 0 5.443-.542 7.379-1.629s3.487-2.558 4.657-4.41c1.168-1.853 1.975-3.965 2.419-6.341.442-2.374.665-4.851.665-7.428v-60.272h8.71v60.968c0 2.823-.302 5.807-.907 8.951a24.782 24.782 0 0 1-3.448 8.71c-1.693 2.661-4.034 4.859-7.016 6.593-2.985 1.733-6.816 2.601-11.492 2.601-6.21 0-11.331-1.654-15.363-4.959-4.033-3.307-6.574-7.5-7.621-12.581l8.106-2.178zM167.784 177.807c-1.856-2.58-4.234-4.657-7.137-6.229-2.903-1.573-6.412-2.359-10.524-2.359-2.098 0-4.234.323-6.411.968a18.589 18.589 0 0 0-5.927 2.964c-1.775 1.33-3.206 3.006-4.294 5.021-1.089 2.017-1.633 4.396-1.633 7.137 0 2.743.521 5.001 1.567 6.774 1.045 1.774 2.433 3.287 4.162 4.536 1.729 1.251 3.701 2.28 5.912 3.085 2.212.807 4.523 1.613 6.937 2.419a218.28 218.28 0 0 1 8.985 3.146c3.017 1.131 5.731 2.601 8.145 4.415 2.412 1.814 4.384 4.112 5.911 6.896 1.527 2.782 2.292 6.312 2.292 10.585 0 4.274-.816 7.965-2.445 11.068-1.631 3.104-3.749 5.666-6.351 7.681-2.604 2.017-5.58 3.508-8.925 4.477a36.193 36.193 0 0 1-10.101 1.451c-2.582 0-5.162-.263-7.742-.786a35.109 35.109 0 0 1-7.379-2.359 30.02 30.02 0 0 1-6.532-3.991 28.92 28.92 0 0 1-5.323-5.564l7.5-5.565c1.854 3.066 4.455 5.626 7.803 7.682 3.345 2.057 7.277 3.085 11.794 3.085 2.178 0 4.395-.342 6.654-1.028a18.692 18.692 0 0 0 6.109-3.145c1.814-1.41 3.305-3.146 4.476-5.202 1.168-2.057 1.754-4.454 1.754-7.197 0-2.983-.586-5.462-1.754-7.439-1.17-1.976-2.722-3.629-4.657-4.96s-4.155-2.438-6.653-3.326c-2.5-.887-5.123-1.773-7.863-2.662a101.984 101.984 0 0 1-8.346-3.024c-2.743-1.128-5.202-2.6-7.379-4.415-2.177-1.813-3.932-4.053-5.262-6.713-1.331-2.661-1.996-5.928-1.996-9.799 0-4.113.826-7.661 2.48-10.646 1.652-2.982 3.811-5.443 6.472-7.379s5.604-3.345 8.831-4.234c3.225-.886 6.411-1.33 9.556-1.33 5.807 0 10.766 1.028 14.879 3.085 4.113 2.056 7.216 4.496 9.314 7.318l-6.899 5.559z"/></g></svg>