<?xml version="1.0" encoding="utf-8"?>
<!-- Generator: Adobe Illustrator 16.0.4, SVG Export Plug-In . SVG Version: 6.00 Build 0)  -->
<!DOCTYPE svg PUBLIC "-//W3C//DTD SVG 1.1//EN" "http://www.w3.org/Graphics/SVG/1.1/DTD/svg11.dtd">
<svg version="1.1" id="Layer_1" xmlns="http://www.w3.org/2000/svg" xmlns:xlink="http://www.w3.org/1999/xlink" x="0px" y="0px"
	 width="480px" height="320px" viewBox="0 0 480 320" enable-background="new 0 0 480 320" xml:space="preserve">
<rect y="-1" fill="#FEE864" width="480" height="321"/>
<rect x="49.5" y="130" fill="none" width="263" height="190"/>
<g enable-background="new    ">
	<path fill="#E0BD2B" d="M66.536,232.121c0.644,3.388,2.156,6.23,4.536,8.528c2.378,2.299,5.504,3.447,9.375,3.447
		c2.982,0,5.443-0.542,7.379-1.629s3.487-2.558,4.657-4.41c1.168-1.853,1.975-3.965,2.419-6.341
		c0.442-2.374,0.665-4.851,0.665-7.428v-60.272h8.71v60.968c0,2.823-0.302,5.807-0.907,8.951c-0.605,3.146-1.754,6.049-3.448,8.71
		c-1.693,2.661-4.034,4.859-7.016,6.593c-2.985,1.733-6.816,2.601-11.492,2.601c-6.21,0-11.331-1.654-15.363-4.959
		c-4.033-3.307-6.574-7.5-7.621-12.581L66.536,232.121z"/>
	<path fill="#E0BD2B" d="M167.784,177.807c-1.856-2.58-4.234-4.657-7.137-6.229c-2.903-1.573-6.412-2.359-10.524-2.359
		c-2.098,0-4.234,0.323-6.411,0.968c-2.177,0.646-4.155,1.633-5.927,2.964c-1.775,1.33-3.206,3.006-4.294,5.021
		c-1.089,2.017-1.633,4.396-1.633,7.137c0,2.743,0.521,5.001,1.567,6.774c1.045,1.774,2.433,3.287,4.162,4.536
		c1.729,1.251,3.701,2.28,5.912,3.085c2.212,0.807,4.523,1.613,6.937,2.419c2.975,0.968,5.969,2.017,8.985,3.146
		c3.017,1.131,5.731,2.601,8.145,4.415c2.412,1.814,4.384,4.112,5.911,6.896c1.527,2.782,2.292,6.312,2.292,10.585
		c0,4.274-0.816,7.965-2.445,11.068c-1.631,3.104-3.749,5.666-6.351,7.681c-2.604,2.017-5.58,3.508-8.925,4.477
		c-3.348,0.968-6.713,1.451-10.101,1.451c-2.582,0-5.162-0.263-7.742-0.786c-2.582-0.525-5.041-1.312-7.379-2.359
		c-2.34-1.047-4.517-2.377-6.532-3.991c-2.017-1.612-3.792-3.467-5.323-5.564l7.5-5.565c1.854,3.066,4.455,5.626,7.803,7.682
		c3.345,2.057,7.277,3.085,11.794,3.085c2.178,0,4.395-0.342,6.654-1.028c2.256-0.684,4.294-1.733,6.109-3.145
		c1.814-1.41,3.305-3.146,4.476-5.202c1.168-2.057,1.754-4.454,1.754-7.197c0-2.983-0.586-5.462-1.754-7.439
		c-1.17-1.976-2.722-3.629-4.657-4.96s-4.155-2.438-6.653-3.326c-2.5-0.887-5.123-1.773-7.863-2.662
		c-2.824-0.886-5.605-1.894-8.346-3.024c-2.743-1.128-5.202-2.6-7.379-4.415c-2.177-1.813-3.932-4.053-5.262-6.713
		c-1.331-2.661-1.996-5.928-1.996-9.799c0-4.113,0.826-7.661,2.48-10.646c1.652-2.982,3.811-5.443,6.472-7.379
		s5.604-3.345,8.831-4.234c3.225-0.886,6.411-1.33,9.556-1.33c5.807,0,10.766,1.028,14.879,3.085
		c4.113,2.056,7.216,4.496,9.314,7.318L167.784,177.807z"/>
</g>
</svg>
