<svg xmlns="http://www.w3.org/2000/svg" width="8.055" height="10.65" viewBox="4.062 2.645 8.055 10.65"><g fill="#176DC7"><path opacity=".45" d="M6.004 7.002l3.523.386.891 2.193v2.731l-.678.323-2.482-.826-1.254-4.807z"/><path opacity=".2" d="M10.618 4.275l-.39-.441-1.392-1.063a.622.622 0 0 0-.583-.09l-2.048.733-.201 3.588 3.523.386.988-1.069.103-2.044z"/><path opacity=".55" d="M5.813 3.985L4.502 5.9l1.501 1.102.201-3.588-.391.571z"/><path opacity=".5" d="M10.618 4.275l-.103 2.044 1.6.583.001-.207a.614.614 0 0 0-.104-.346l-1.394-2.074z"/><path opacity=".29" d="M10.516 6.319l.801 2.428.791.052.008-1.897-1.6-.583z"/><path opacity=".01" d="M10.516 6.319l-.989 1.069.891 2.193.898-.834-.8-2.428z"/><path opacity=".2" d="M11.316 8.747l-.898.834v2.731l.355-.17 1.328-.631-.785-2.764z"/><path opacity=".6" d="M4.502 5.9l-.202.296 1.768 2.835.497.118-.561-2.147L4.502 5.9z"/><path opacity=".9" d="M4.3 6.196l-.239 4.359 1.752-1.297.254-.228L4.3 6.196z"/><path opacity=".97" d="M6.564 9.149l-.496-.118-2.006 1.524 1.92 1.859 1.277-.606-.695-2.659z"/><path opacity=".6" d="M7.258 11.809l-1.277.606.328.219 1.531.669a.614.614 0 0 0 .512-.008l1.388-.66-2.482-.826z"/><path opacity=".5" d="M11.316 8.747l.791.052-.006 2.713-.785-2.765z"/></g></svg>