<svg xmlns="http://www.w3.org/2000/svg" width="480" height="320" viewBox="0 0 480 320"><path fill="#007AC2" d="M0-2.416h480V320H0z"/><path fill="#C6C6C6" d="M1154.55-178.522l-4.455-4.456c-.288-.432-.863-.432-1.295 0l-.001.001-1.642-1.642c2.733-3.353 2.542-8.375-.657-11.44-3.306-3.306-8.77-3.306-12.218 0-3.308 3.306-3.308 8.769 0 12.218 3.104 3.103 8.085 3.254 11.541.532l1.655 1.655c-.396.295-.394.845.026 1.263l4.455 4.456c.287.431.861.431 1.295 0l1.293-1.293c.433-.288.433-.863.003-1.294zm-18.399-7.187c-2.301-2.444-2.444-6.181 0-8.625 2.442-2.444 6.324-2.444 8.624 0 2.443 2.444 2.443 6.181 0 8.625s-6.325 2.444-8.624 0z"/><g fill="#DDD"><path d="M1540.375 226.09h-11.85l45.898-106.199h10.5l45.602 106.199h-12l-11.701-27.898h-54.898l-11.551 27.898zm15.6-37.799h46.802l-23.4-56.4-23.402 56.4zM1689.774 180.656c0-6.055-1.602-10.57-4.801-13.549-3.2-2.979-7.853-4.469-13.949-4.469-4.2 0-8.102.75-11.7 2.25-3.6 1.5-6.65 3.502-9.149 6l-5.698-6.75c2.896-2.897 6.725-5.299 11.475-7.199 4.748-1.898 10.125-2.852 16.125-2.852 3.799 0 7.351.525 10.65 1.576 3.3 1.049 6.198 2.625 8.698 4.725 2.499 2.101 4.448 4.75 5.852 7.949 1.398 3.202 2.101 6.952 2.101 11.25v30.75c0 2.701.099 5.502.3 8.4.198 2.9.5 5.352.899 7.35h-9.149a73.763 73.763 0 0 1-.75-5.549c-.201-2-.3-3.949-.3-5.852h-.301c-3.201 4.701-6.824 8.076-10.875 10.125s-8.926 3.074-14.625 3.074c-2.699 0-5.476-.377-8.324-1.127a23.207 23.207 0 0 1-7.801-3.688c-2.352-1.706-4.301-3.914-5.851-6.623-1.552-2.709-2.324-6.021-2.324-9.936 0-5.418 1.374-9.707 4.125-12.865 2.749-3.158 6.425-5.519 11.023-7.072 4.601-1.559 9.875-2.562 15.825-3.012a245.08 245.08 0 0 1 18.524-.68v-2.226zm-3 10.334c-4.2 0-8.427.176-12.676.523-4.252.354-8.101 1.051-11.551 2.102-3.449 1.051-6.274 2.576-8.476 4.574-2.201 2.002-3.301 4.648-3.301 7.949 0 2.5.475 4.603 1.426 6.301a11.662 11.662 0 0 0 3.824 4.125c1.6 1.051 3.375 1.801 5.325 2.25 1.948.449 3.924.676 5.925.676 3.602 0 6.801-.623 9.602-1.875 2.798-1.249 5.147-2.948 7.049-5.102 1.898-2.147 3.351-4.625 4.352-7.426 1-2.798 1.5-5.748 1.5-8.85v-5.25l-2.999.003z"/></g><g stroke-miterlimit="10"><path fill="#F8F8F8" stroke="#EFEFEF" d="M-1060.611-318.252h181v26.5h-181z"/><path fill="#FFF" stroke="#EFEFEF" d="M-1060.611-292.252h181v26.5h-181z"/><path fill="#FFF" stroke="#EFEFEF" d="M-1060.611-266.127h181v26.5h-181z"/><path fill="#FFF" stroke="#EFEFEF" d="M-1060.611-240.002h181v26.5h-181z"/><path fill="#FFF" stroke="#EFEFEF" d="M-1060.611-213.877h181v26.5h-181z"/><path fill="#FFF" stroke="#EFEFEF" d="M-1060.611-187.752h181v26.5h-181z"/><path fill="none" stroke="#E8E8E8" stroke-width="6" stroke-linecap="round" d="M-1049.611-278.752h100.832M-1049.611-173.086h113.499M-1049.611-199.502h122M-1049.611-225.919h95.499M-1049.611-252.336h122"/><path fill="none" stroke="#C6C6C6" stroke-width="6" stroke-linecap="round" d="M-1049.611-304.419h76.832"/></g><path fill="#FFF" stroke="#EFEFEF" stroke-miterlimit="10" d="M-1161.94-514.552h189.59v97.495h-189.59z"/><path fill="none" stroke="#E8E8E8" stroke-width="6" stroke-linecap="round" stroke-miterlimit="10" d="M-1142.925-466.856h100.831M-1143.592-439.656h95.499M-1143.592-453.256h122"/><path fill="none" stroke="#C6C6C6" stroke-width="6" stroke-linecap="round" stroke-miterlimit="10" d="M-1143.592-492.924h76.832"/><path fill="#C6C6C6" d="M-590.837-627.567l-4.455-4.456c-.288-.432-.864-.432-1.295 0l-.001.001-1.642-1.642c2.734-3.353 2.542-8.375-.657-11.44-3.306-3.306-8.771-3.306-12.218 0-3.307 3.306-3.307 8.769 0 12.218 3.104 3.103 8.085 3.254 11.541.532l1.655 1.655c-.396.295-.393.845.027 1.263l4.455 4.456c.287.431.861.431 1.295 0l1.293-1.293c.433-.288.433-.863.002-1.294zm-18.398-7.187c-2.3-2.444-2.444-6.181 0-8.625 2.443-2.444 6.325-2.444 8.624 0 2.444 2.444 2.444 6.181 0 8.625s-6.326 2.444-8.624 0z"/><path fill="#3EA349" d="M-860.611-572.754l-5.899-5.9-2.572 2.57 8.472 8.473 16.528-16.523-2.573-2.57-13.956 13.95z"/><path fill="#C6C6C6" d="M-1171.99-282.168h-24c-1.1 0-2-.9-2-2s.9-2 2-2h24c1.1 0 2 .9 2 2s-.9 2-2 2zm0 10h-24c-1.1 0-2-.9-2-2s.9-2 2-2h24c1.1 0 2 .9 2 2s-.9 2-2 2zm0 10h-24c-1.1 0-2-.9-2-2s.9-2 2-2h24c1.1 0 2 .9 2 2s-.9 2-2 2z"/><path fill="#F8F8F8" stroke="#F8F8F8" stroke-width="3" stroke-linecap="round" stroke-linejoin="round" stroke-miterlimit="10" d="M-461.123-632.754h92v24h-92z"/><g fill="#C84D30"><path d="M-374.988-615.943a.779.779 0 0 1-.555-.23l-8.271-8.27a.785.785 0 1 1 1.111-1.11l8.27 8.271a.781.781 0 0 1 0 1.109.783.783 0 0 1-.555.23z"/><path d="M-383.26-615.943a.784.784 0 0 1-.555-1.34l8.271-8.271a.782.782 0 0 1 1.108.001.782.782 0 0 1 0 1.11l-8.271 8.27a.777.777 0 0 1-.553.23z"/></g><path fill="#B9DDEA" d="M-1161.64-630.046h188.99v115.494h-188.99z"/><path fill="none" stroke="#A3C3CC" stroke-width="2" stroke-miterlimit="10" d="M-1161.64-630.046l188.99 115.494M-1161.64-514.552l188.99-115.494"/><path fill="#FFF" stroke="#EFEFEF" stroke-width=".443" stroke-miterlimit="10" d="M60.72 39.951h358.561V72.67H60.72z"/><path fill="none" stroke="#C6C6C6" stroke-width="4.082" stroke-linecap="round" stroke-miterlimit="10" d="M69.262 58.44h43.426"/><path fill="none" stroke="#DFDFDF" stroke-width="3.025" stroke-linecap="round" stroke-miterlimit="10" d="M131.92 58.44h27.598M171.92 58.44h27.598M211.921 58.44h27.597M251.921 58.44h27.597"/><path fill="#DFDFDF" d="M406.805 59.958l-1.9-1.901c-.123-.184-.368-.184-.553 0v.001l-.7-.701c1.166-1.431 1.085-3.573-.28-4.88-1.411-1.411-3.742-1.411-5.213 0-1.41 1.41-1.41 3.741 0 5.212 1.324 1.325 3.449 1.389 4.924.227l.706.706c-.17.126-.168.361.011.539l1.9 1.901c.123.185.367.185.553 0l.552-.552c.184-.122.184-.367 0-.552zm-7.849-3.066c-.98-1.042-1.043-2.636 0-3.679 1.042-1.042 2.699-1.042 3.68 0 1.042 1.043 1.042 2.638 0 3.679-1.043 1.043-2.699 1.043-3.68 0z"/><path fill="#007AC2" d="M211.78 39.057h28v3h-28z"/><g><path fill="#F8F8F8" d="M60.72 207.145h358.561v73.799H60.72z"/><path fill="none" stroke="#E8E8E8" stroke-width="4.554" stroke-linecap="round" stroke-miterlimit="10" d="M204.698 246.354h57.075M204.321 268.627h54.057M204.321 257.49h69.059"/><path fill="none" stroke="#C6C6C6" stroke-width="4.554" stroke-linecap="round" stroke-miterlimit="10" d="M204.321 227.008h43.491"/><path fill="none" stroke="#C6C6C6" stroke-width="6" stroke-linecap="round" stroke-miterlimit="10" d="M105.378 233.557h43.491"/><path fill="none" stroke="#E8E8E8" stroke-width="4.554" stroke-linecap="round" stroke-miterlimit="10" d="M289.786 246.354h46.213M289.408 268.627h54.058M289.408 257.49h34.329"/><path fill="none" stroke="#C6C6C6" stroke-width="4.554" stroke-linecap="round" stroke-miterlimit="10" d="M289.408 227.008h60.53"/><path fill="none" stroke="#E8E8E8" stroke-width="4.554" stroke-linecap="round" stroke-miterlimit="10" d="M364.597 246.354h46.213M364.219 268.627h27.028M364.219 257.49h46.591"/><path fill="none" stroke="#C6C6C6" stroke-width="4.554" stroke-linecap="round" stroke-miterlimit="10" d="M364.219 227.008h25.719"/><path fill="none" stroke="#DFDFDF" stroke-width="3.025" stroke-linecap="round" stroke-miterlimit="10" d="M95.403 251.379H123M135.744 251.379h27.596"/></g><g><path fill="#052942" d="M60.72 103.784h358.561v54.432H60.72z"/><path fill="#FFF" d="M60.72 158.215h358.561v17.815H60.72z"/><path fill="none" stroke="#FFF" stroke-width="6" stroke-linecap="round" stroke-miterlimit="10" d="M72.262 126.831h43.426"/><path fill="#FFF" d="M126.593 162.508v-17.996h56.824v17.996"/><path fill="none" stroke="#E8E8E8" stroke-width="3.103" stroke-linecap="round" stroke-miterlimit="10" d="M132.281 151.494h40.103"/><path opacity=".3" d="M69.262 144.512h55.648v13.704H69.262z"/><path fill="none" stroke="#D3D3D3" stroke-width="3.103" stroke-linecap="round" stroke-miterlimit="10" d="M74.95 151.666h28.208"/><path opacity=".3" d="M185.306 144.512h55.648v13.704h-55.648z"/><path fill="none" stroke="#D3D3D3" stroke-width="3.103" stroke-linecap="round" stroke-miterlimit="10" d="M190.995 151.666h28.207"/><path opacity=".3" d="M241.761 144.512h55.649v13.704h-55.649z"/><path fill="none" stroke="#D3D3D3" stroke-width="3.103" stroke-linecap="round" stroke-miterlimit="10" d="M247.844 151.666h28.208"/></g></svg>