<?xml version="1.0" encoding="utf-8"?>
<!-- Generator: Adobe Illustrator 16.0.4, SVG Export Plug-In . SVG Version: 6.00 Build 0)  -->
<!DOCTYPE svg PUBLIC "-//W3C//DTD SVG 1.1//EN" "http://www.w3.org/Graphics/SVG/1.1/DTD/svg11.dtd">
<svg version="1.1" id="Layer_1" xmlns="http://www.w3.org/2000/svg" xmlns:xlink="http://www.w3.org/1999/xlink" x="0px" y="0px"
	 width="480px" height="320px" viewBox="0 0 480 320" enable-background="new 0 0 480 320" xml:space="preserve">
<rect y="-2.416" fill="#007AC2" width="480" height="322.416"/>
<path fill="#C6C6C6" d="M1154.55-178.522l-4.455-4.456c-0.288-0.432-0.863-0.432-1.295,0l-0.001,0.001l-1.642-1.642
	c2.733-3.353,2.542-8.375-0.657-11.44c-3.306-3.306-8.77-3.306-12.218,0c-3.308,3.306-3.308,8.769,0,12.218
	c3.104,3.103,8.085,3.254,11.541,0.532l1.655,1.655c-0.396,0.295-0.394,0.845,0.026,1.263l4.455,4.456
	c0.287,0.431,0.861,0.431,1.295,0l1.293-1.293C1154.98-177.516,1154.98-178.091,1154.55-178.522z M1136.151-185.709
	c-2.301-2.444-2.444-6.181,0-8.625c2.442-2.444,6.324-2.444,8.624,0c2.443,2.444,2.443,6.181,0,8.625
	S1138.45-183.265,1136.151-185.709z"/>
<g>
	<path fill="#DDDDDD" d="M1540.375,226.09h-11.85l45.898-106.199h10.5l45.602,106.199h-12l-11.701-27.898h-54.898L1540.375,226.09z
		 M1555.975,188.291h46.802l-23.4-56.4L1555.975,188.291z"/>
	<path fill="#DDDDDD" d="M1689.774,180.656c0-6.055-1.602-10.57-4.801-13.549c-3.2-2.979-7.853-4.469-13.949-4.469
		c-4.2,0-8.102,0.75-11.7,2.25c-3.6,1.5-6.65,3.502-9.149,6l-5.698-6.75c2.896-2.897,6.725-5.299,11.475-7.199
		c4.748-1.898,10.125-2.852,16.125-2.852c3.799,0,7.351,0.525,10.65,1.576c3.3,1.049,6.198,2.625,8.698,4.725
		c2.499,2.101,4.448,4.75,5.852,7.949c1.398,3.202,2.101,6.952,2.101,11.25v30.75c0,2.701,0.099,5.502,0.3,8.4
		c0.198,2.9,0.5,5.352,0.899,7.35h-9.149c-0.3-1.699-0.552-3.548-0.75-5.549c-0.201-2-0.3-3.949-0.3-5.852h-0.301
		c-3.201,4.701-6.824,8.076-10.875,10.125s-8.926,3.074-14.625,3.074c-2.699,0-5.476-0.377-8.324-1.127
		c-2.851-0.753-5.452-1.979-7.801-3.688c-2.352-1.706-4.301-3.914-5.851-6.623c-1.552-2.709-2.324-6.021-2.324-9.936
		c0-5.418,1.374-9.707,4.125-12.865c2.749-3.158,6.425-5.519,11.023-7.072c4.601-1.559,9.875-2.562,15.825-3.012
		c5.947-0.451,12.123-0.68,18.524-0.68V180.656L1689.774,180.656z M1686.774,190.99c-4.2,0-8.427,0.176-12.676,0.523
		c-4.252,0.354-8.101,1.051-11.551,2.102c-3.449,1.051-6.274,2.576-8.476,4.574c-2.201,2.002-3.301,4.648-3.301,7.949
		c0,2.5,0.475,4.603,1.426,6.301c0.949,1.701,2.226,3.074,3.824,4.125c1.6,1.051,3.375,1.801,5.325,2.25
		c1.948,0.449,3.924,0.676,5.925,0.676c3.602,0,6.801-0.623,9.602-1.875c2.798-1.249,5.147-2.948,7.049-5.102
		c1.898-2.147,3.351-4.625,4.352-7.426c1-2.798,1.5-5.748,1.5-8.85v-5.25L1686.774,190.99L1686.774,190.99z"/>
</g>
<g>
	<rect x="-1060.611" y="-318.252" fill="#F8F8F8" stroke="#EFEFEF" stroke-miterlimit="10" width="181" height="26.5"/>
	<rect x="-1060.611" y="-292.252" fill="#FFFFFF" stroke="#EFEFEF" stroke-miterlimit="10" width="181" height="26.5"/>
	<rect x="-1060.611" y="-266.127" fill="#FFFFFF" stroke="#EFEFEF" stroke-miterlimit="10" width="181" height="26.5"/>
	<rect x="-1060.611" y="-240.002" fill="#FFFFFF" stroke="#EFEFEF" stroke-miterlimit="10" width="181" height="26.5"/>
	<rect x="-1060.611" y="-213.877" fill="#FFFFFF" stroke="#EFEFEF" stroke-miterlimit="10" width="181" height="26.5"/>
	<rect x="-1060.611" y="-187.752" fill="#FFFFFF" stroke="#EFEFEF" stroke-miterlimit="10" width="181" height="26.5"/>
	
		<line fill="none" stroke="#E8E8E8" stroke-width="6" stroke-linecap="round" stroke-miterlimit="10" x1="-1049.611" y1="-278.752" x2="-948.779" y2="-278.752"/>
	
		<line fill="none" stroke="#E8E8E8" stroke-width="6" stroke-linecap="round" stroke-miterlimit="10" x1="-1049.611" y1="-173.086" x2="-936.112" y2="-173.086"/>
	
		<line fill="none" stroke="#E8E8E8" stroke-width="6" stroke-linecap="round" stroke-miterlimit="10" x1="-1049.611" y1="-199.502" x2="-927.611" y2="-199.502"/>
	
		<line fill="none" stroke="#E8E8E8" stroke-width="6" stroke-linecap="round" stroke-miterlimit="10" x1="-1049.611" y1="-225.919" x2="-954.112" y2="-225.919"/>
	
		<line fill="none" stroke="#E8E8E8" stroke-width="6" stroke-linecap="round" stroke-miterlimit="10" x1="-1049.611" y1="-252.336" x2="-927.611" y2="-252.336"/>
	
		<line fill="none" stroke="#C6C6C6" stroke-width="6" stroke-linecap="round" stroke-miterlimit="10" x1="-1049.611" y1="-304.419" x2="-972.779" y2="-304.419"/>
</g>
<rect x="-1161.94" y="-514.552" fill="#FFFFFF" stroke="#EFEFEF" stroke-miterlimit="10" width="189.59" height="97.495"/>
<line fill="none" stroke="#E8E8E8" stroke-width="6" stroke-linecap="round" stroke-miterlimit="10" x1="-1142.925" y1="-466.856" x2="-1042.094" y2="-466.856"/>
<line fill="none" stroke="#E8E8E8" stroke-width="6" stroke-linecap="round" stroke-miterlimit="10" x1="-1143.592" y1="-439.656" x2="-1048.093" y2="-439.656"/>
<line fill="none" stroke="#E8E8E8" stroke-width="6" stroke-linecap="round" stroke-miterlimit="10" x1="-1143.592" y1="-453.256" x2="-1021.592" y2="-453.256"/>
<line fill="none" stroke="#C6C6C6" stroke-width="6" stroke-linecap="round" stroke-miterlimit="10" x1="-1143.592" y1="-492.924" x2="-1066.76" y2="-492.924"/>
<path fill="#C6C6C6" d="M-590.837-627.567l-4.455-4.456c-0.288-0.432-0.864-0.432-1.295,0l-0.001,0.001l-1.642-1.642
	c2.734-3.353,2.542-8.375-0.657-11.44c-3.306-3.306-8.771-3.306-12.218,0c-3.307,3.306-3.307,8.769,0,12.218
	c3.104,3.103,8.085,3.254,11.541,0.532l1.655,1.655c-0.396,0.295-0.393,0.845,0.027,1.263l4.455,4.456
	c0.287,0.431,0.861,0.431,1.295,0l1.293-1.293C-590.406-626.561-590.406-627.136-590.837-627.567z M-609.235-634.754
	c-2.3-2.444-2.444-6.181,0-8.625c2.443-2.444,6.325-2.444,8.624,0c2.444,2.444,2.444,6.181,0,8.625
	C-603.055-632.31-606.937-632.31-609.235-634.754z"/>
<path fill="#3EA349" d="M-860.611-572.754l-5.899-5.9l-2.572,2.57l8.472,8.473l16.528-16.523l-2.573-2.57L-860.611-572.754z"/>
<path fill="#C6C6C6" d="M-1171.99-282.168h-24c-1.1,0-2-0.9-2-2l0,0c0-1.1,0.9-2,2-2h24c1.1,0,2,0.9,2,2l0,0
	C-1169.99-283.068-1170.89-282.168-1171.99-282.168z M-1171.99-272.168h-24c-1.1,0-2-0.9-2-2l0,0c0-1.1,0.9-2,2-2h24
	c1.1,0,2,0.9,2,2l0,0C-1169.99-273.068-1170.89-272.168-1171.99-272.168z M-1171.99-262.168h-24c-1.1,0-2-0.9-2-2l0,0
	c0-1.1,0.9-2,2-2h24c1.1,0,2,0.9,2,2l0,0C-1169.99-263.068-1170.89-262.168-1171.99-262.168z"/>
<rect x="-461.123" y="-632.754" fill="#F8F8F8" stroke="#F8F8F8" stroke-width="3" stroke-linecap="round" stroke-linejoin="round" stroke-miterlimit="10" width="92" height="24"/>
<g>
	<path fill="#C84D30" d="M-374.988-615.943c-0.201,0-0.402-0.076-0.555-0.23l-8.271-8.27c-0.305-0.307-0.305-0.805,0-1.111
		c0.307-0.306,0.805-0.307,1.111,0.001l8.27,8.271c0.308,0.307,0.308,0.803,0,1.109
		C-374.586-616.02-374.787-615.943-374.988-615.943z"/>
	<path fill="#C84D30" d="M-383.26-615.943c-0.2,0-0.399-0.077-0.555-0.23c-0.307-0.307-0.307-0.804,0-1.11l8.271-8.271
		c0.307-0.306,0.803-0.307,1.108,0.001c0.308,0.306,0.308,0.804,0,1.11l-8.271,8.27
		C-382.857-616.021-383.059-615.943-383.26-615.943z"/>
</g>
<rect x="-1161.64" y="-630.046" fill="#B9DDEA" width="188.99" height="115.494"/>
<line fill="none" stroke="#A3C3CC" stroke-width="2" stroke-miterlimit="10" x1="-1161.64" y1="-630.046" x2="-972.65" y2="-514.552"/>
<line fill="none" stroke="#A3C3CC" stroke-width="2" stroke-miterlimit="10" x1="-1161.64" y1="-514.552" x2="-972.65" y2="-630.046"/>
<g>
	<g>
		
			<rect x="60.72" y="39.951" fill="#FFFFFF" stroke="#EFEFEF" stroke-width="0.4432" stroke-miterlimit="10" width="358.561" height="32.719"/>
		
			<line fill="none" stroke="#C6C6C6" stroke-width="4.0818" stroke-linecap="round" stroke-miterlimit="10" x1="69.262" y1="58.44" x2="112.688" y2="58.44"/>
		
			<line fill="none" stroke="#DFDFDF" stroke-width="3.0248" stroke-linecap="round" stroke-miterlimit="10" x1="131.92" y1="58.44" x2="159.518" y2="58.44"/>
		
			<line fill="none" stroke="#DFDFDF" stroke-width="3.0248" stroke-linecap="round" stroke-miterlimit="10" x1="171.92" y1="58.44" x2="199.518" y2="58.44"/>
		
			<line fill="none" stroke="#DFDFDF" stroke-width="3.0248" stroke-linecap="round" stroke-miterlimit="10" x1="211.921" y1="58.44" x2="239.518" y2="58.44"/>
		
			<line fill="none" stroke="#DFDFDF" stroke-width="3.0248" stroke-linecap="round" stroke-miterlimit="10" x1="251.921" y1="58.44" x2="279.518" y2="58.44"/>
		<path fill="#DFDFDF" d="M406.805,59.958l-1.9-1.901c-0.123-0.184-0.368-0.184-0.553,0v0.001l-0.7-0.701
			c1.166-1.431,1.085-3.573-0.28-4.88c-1.411-1.411-3.742-1.411-5.213,0c-1.41,1.41-1.41,3.741,0,5.212
			c1.324,1.325,3.449,1.389,4.924,0.227l0.706,0.706c-0.17,0.126-0.168,0.361,0.011,0.539l1.9,1.901
			c0.123,0.185,0.367,0.185,0.553,0l0.552-0.552C406.989,60.388,406.989,60.143,406.805,59.958z M398.956,56.892
			c-0.98-1.042-1.043-2.636,0-3.679c1.042-1.042,2.699-1.042,3.68,0c1.042,1.043,1.042,2.638,0,3.679
			C401.593,57.935,399.937,57.935,398.956,56.892z"/>
		<rect x="211.78" y="39.057" fill="#007AC2" width="28" height="3"/>
	</g>
	<g>
		<rect x="60.72" y="207.145" fill="#F8F8F8" width="358.561" height="73.799"/>
		
			<line fill="none" stroke="#E8E8E8" stroke-width="4.554" stroke-linecap="round" stroke-miterlimit="10" x1="204.698" y1="246.354" x2="261.773" y2="246.354"/>
		
			<line fill="none" stroke="#E8E8E8" stroke-width="4.554" stroke-linecap="round" stroke-miterlimit="10" x1="204.321" y1="268.627" x2="258.378" y2="268.627"/>
		
			<line fill="none" stroke="#E8E8E8" stroke-width="4.554" stroke-linecap="round" stroke-miterlimit="10" x1="204.321" y1="257.49" x2="273.38" y2="257.49"/>
		
			<line fill="none" stroke="#C6C6C6" stroke-width="4.554" stroke-linecap="round" stroke-miterlimit="10" x1="204.321" y1="227.008" x2="247.812" y2="227.008"/>
		
			<line fill="none" stroke="#C6C6C6" stroke-width="6" stroke-linecap="round" stroke-miterlimit="10" x1="105.378" y1="233.557" x2="148.869" y2="233.557"/>
		
			<line fill="none" stroke="#E8E8E8" stroke-width="4.554" stroke-linecap="round" stroke-miterlimit="10" x1="289.786" y1="246.354" x2="335.999" y2="246.354"/>
		
			<line fill="none" stroke="#E8E8E8" stroke-width="4.554" stroke-linecap="round" stroke-miterlimit="10" x1="289.408" y1="268.627" x2="343.466" y2="268.627"/>
		
			<line fill="none" stroke="#E8E8E8" stroke-width="4.554" stroke-linecap="round" stroke-miterlimit="10" x1="289.408" y1="257.49" x2="323.737" y2="257.49"/>
		
			<line fill="none" stroke="#C6C6C6" stroke-width="4.554" stroke-linecap="round" stroke-miterlimit="10" x1="289.408" y1="227.008" x2="349.938" y2="227.008"/>
		
			<line fill="none" stroke="#E8E8E8" stroke-width="4.554" stroke-linecap="round" stroke-miterlimit="10" x1="364.597" y1="246.354" x2="410.81" y2="246.354"/>
		
			<line fill="none" stroke="#E8E8E8" stroke-width="4.554" stroke-linecap="round" stroke-miterlimit="10" x1="364.219" y1="268.627" x2="391.247" y2="268.627"/>
		
			<line fill="none" stroke="#E8E8E8" stroke-width="4.554" stroke-linecap="round" stroke-miterlimit="10" x1="364.219" y1="257.49" x2="410.81" y2="257.49"/>
		
			<line fill="none" stroke="#C6C6C6" stroke-width="4.554" stroke-linecap="round" stroke-miterlimit="10" x1="364.219" y1="227.008" x2="389.938" y2="227.008"/>
		
			<line fill="none" stroke="#DFDFDF" stroke-width="3.0248" stroke-linecap="round" stroke-miterlimit="10" x1="95.403" y1="251.379" x2="123" y2="251.379"/>
		
			<line fill="none" stroke="#DFDFDF" stroke-width="3.0248" stroke-linecap="round" stroke-miterlimit="10" x1="135.744" y1="251.379" x2="163.34" y2="251.379"/>
	</g>
	<g>
		<rect x="60.72" y="103.784" fill="#052942" width="358.561" height="54.432"/>
		<rect x="60.72" y="158.215" fill="#FFFFFF" width="358.561" height="17.815"/>
		
			<line fill="none" stroke="#FFFFFF" stroke-width="6" stroke-linecap="round" stroke-miterlimit="10" x1="72.262" y1="126.831" x2="115.688" y2="126.831"/>
		<polyline fill="#FFFFFF" points="126.593,162.508 126.593,144.512 183.417,144.512 183.417,162.508 		"/>
		
			<line fill="none" stroke="#E8E8E8" stroke-width="3.1027" stroke-linecap="round" stroke-miterlimit="10" x1="132.281" y1="151.494" x2="172.384" y2="151.494"/>
		<rect x="69.262" y="144.512" opacity="0.3" width="55.648" height="13.704"/>
		
			<line fill="none" stroke="#D3D3D3" stroke-width="3.1027" stroke-linecap="round" stroke-miterlimit="10" x1="74.95" y1="151.666" x2="103.158" y2="151.666"/>
		<rect x="185.306" y="144.512" opacity="0.3" width="55.648" height="13.704"/>
		
			<line fill="none" stroke="#D3D3D3" stroke-width="3.1027" stroke-linecap="round" stroke-miterlimit="10" x1="190.995" y1="151.666" x2="219.202" y2="151.666"/>
		<rect x="241.761" y="144.512" opacity="0.3" width="55.649" height="13.704"/>
		
			<line fill="none" stroke="#D3D3D3" stroke-width="3.1027" stroke-linecap="round" stroke-miterlimit="10" x1="247.844" y1="151.666" x2="276.052" y2="151.666"/>
	</g>
</g>
</svg>
