<?xml version="1.0" encoding="utf-8"?>
<!-- Generator: Adobe Illustrator 16.0.4, SVG Export Plug-In . SVG Version: 6.00 Build 0)  -->
<!DOCTYPE svg PUBLIC "-//W3C//DTD SVG 1.1//EN" "http://www.w3.org/Graphics/SVG/1.1/DTD/svg11.dtd">
<svg version="1.1" xmlns="http://www.w3.org/2000/svg" xmlns:xlink="http://www.w3.org/1999/xlink" x="0px" y="0px" width="800px"
	 height="600px" viewBox="0 0 800 600" enable-background="new 0 0 800 600" xml:space="preserve">
<g id="Layer_3">
	<rect fill="#007AC2" width="800" height="600"/>
</g>
<g id="Layer_1">
	<rect x="-450.247" y="236.877" fill="#052942" width="358.561" height="54.432"/>
	<rect x="-450.247" y="291.308" fill="#FFFFFF" width="358.561" height="17.815"/>
	<polyline fill="#FFFFFF" points="-384.374,295.601 -384.374,277.605 -327.55,277.605 -327.55,295.601 	"/>
	
		<line fill="none" stroke="#E8E8E8" stroke-width="3.1027" stroke-linecap="round" stroke-miterlimit="10" x1="-378.686" y1="284.587" x2="-338.583" y2="284.587"/>
	<rect x="-441.705" y="277.605" opacity="0.3" enable-background="new    " width="55.648" height="13.704"/>
	
		<line fill="none" stroke="#D3D3D3" stroke-width="3.1027" stroke-linecap="round" stroke-miterlimit="10" x1="-436.017" y1="284.759" x2="-407.809" y2="284.759"/>
	<rect x="-325.661" y="277.605" opacity="0.3" enable-background="new    " width="55.648" height="13.704"/>
	
		<line fill="none" stroke="#D3D3D3" stroke-width="3.1027" stroke-linecap="round" stroke-miterlimit="10" x1="-319.972" y1="284.759" x2="-291.765" y2="284.759"/>
	<rect x="-269.205" y="277.605" opacity="0.3" enable-background="new    " width="55.648" height="13.704"/>
	
		<line fill="none" stroke="#D3D3D3" stroke-width="3.1027" stroke-linecap="round" stroke-miterlimit="10" x1="-263.123" y1="284.759" x2="-234.915" y2="284.759"/>
	<g>
		<rect x="-200.463" y="364.804" fill="#F8F8F8" width="58.955" height="10.484"/>
		<path fill="#EFEFEF" d="M-141.345,375.485h-59.28v-10.879h59.28V375.485z M-200.299,375.09h58.628v-10.087h-58.628V375.09z"/>
	</g>
	<g>
		<rect x="-200.463" y="375.09" fill="#FFFFFF" width="58.955" height="10.483"/>
		<path fill="#EFEFEF" d="M-141.345,385.771h-59.28v-10.879h59.28V385.771z M-200.299,385.375h58.628v-10.087h-58.628V385.375z"/>
	</g>
	<g>
		<rect x="-200.463" y="385.427" fill="#FFFFFF" width="58.955" height="10.48"/>
		<path fill="#EFEFEF" d="M-141.345,396.106h-59.28v-10.879h59.28V396.106z M-200.299,395.711h58.628v-10.088h-58.628V395.711z"/>
	</g>
	<g>
		<rect x="-200.463" y="395.761" fill="#FFFFFF" width="58.955" height="10.482"/>
		<path fill="#EFEFEF" d="M-141.345,406.44h-59.28v-10.879h59.28V406.44z M-200.299,406.045h58.628v-10.087h-58.628V406.045z"/>
	</g>
	<g>
		<rect x="-200.463" y="406.095" fill="#FFFFFF" width="58.955" height="10.483"/>
		<path fill="#EFEFEF" d="M-141.345,416.776h-59.28v-10.881h59.28V416.776z M-200.299,416.381h58.628v-10.089h-58.628V416.381z"/>
	</g>
	<g>
		<rect x="-200.463" y="416.431" fill="#FFFFFF" width="58.955" height="10.483"/>
		<path fill="#EFEFEF" d="M-141.345,427.11h-59.28v-10.879h59.28V427.11z M-200.299,426.715h58.628v-10.087h-58.628V426.715z"/>
	</g>
	<path fill="#E8E8E8" d="M-164.041,381.618h-32.841c-0.541,0-0.977-0.531-0.977-1.188s0.436-1.188,0.977-1.188h32.842
		c0.541,0,0.979,0.531,0.979,1.188S-163.5,381.618-164.041,381.618z"/>
	<path fill="#E8E8E8" d="M-159.914,423.419h-36.968c-0.541,0-0.977-0.531-0.977-1.188c0-0.658,0.436-1.188,0.977-1.188h36.969
		c0.541,0,0.979,0.53,0.979,1.188C-158.934,422.888-159.373,423.419-159.914,423.419z"/>
	<path fill="#E8E8E8" d="M-157.143,412.97h-39.739c-0.539,0-0.976-0.533-0.976-1.188c0-0.657,0.437-1.188,0.976-1.188h39.739
		c0.54,0,0.978,0.529,0.978,1.188C-156.166,412.437-156.603,412.97-157.143,412.97z"/>
	<path fill="#E8E8E8" d="M-165.775,402.519h-31.106c-0.539,0-0.976-0.531-0.976-1.188c0-0.654,0.437-1.188,0.976-1.188h31.106
		c0.54,0,0.978,0.532,0.978,1.188C-164.797,401.985-165.235,402.519-165.775,402.519z"/>
	<path fill="#E8E8E8" d="M-157.143,392.067h-39.739c-0.539,0-0.976-0.531-0.976-1.188c0-0.654,0.437-1.188,0.976-1.188h39.739
		c0.54,0,0.978,0.53,0.978,1.188C-156.166,391.534-156.603,392.067-157.143,392.067z"/>
	<g>
		<g>
			<rect x="-190.989" y="601.672" fill="#F8F8F8" width="58.955" height="9.942"/>
			<path fill="#EFEFEF" d="M-131.871,611.804h-59.28v-10.318h59.28V611.804z M-190.825,611.429h58.628v-9.568h-58.628V611.429z"/>
		</g>
		<g>
			<rect x="-190.989" y="611.429" fill="#FFFFFF" width="58.955" height="9.942"/>
			<path fill="#EFEFEF" d="M-131.871,621.56h-59.28v-10.318h59.28V621.56z M-190.825,621.183h58.628v-9.566h-58.628V621.183z"/>
		</g>
		<g>
			<rect x="-190.989" y="621.229" fill="#FFFFFF" width="58.955" height="9.942"/>
			<path fill="#EFEFEF" d="M-131.871,631.36h-59.28v-10.317h59.28V631.36z M-190.825,630.985h58.628v-9.567h-58.628V630.985z"/>
		</g>
		<g>
			<rect x="-190.989" y="631.032" fill="#FFFFFF" width="58.955" height="9.94"/>
			<path fill="#EFEFEF" d="M-131.871,641.163h-59.28v-10.318h59.28V641.163z M-190.825,640.787h58.628v-9.567h-58.628V640.787z"/>
		</g>
		<g>
			<rect x="-190.989" y="640.834" fill="#FFFFFF" width="58.955" height="9.942"/>
			<path fill="#EFEFEF" d="M-131.871,650.965h-59.28v-10.317h59.28V650.965z M-190.825,650.59h58.628v-9.567h-58.628V650.59z"/>
		</g>
		<g>
			<rect x="-190.989" y="650.638" fill="#FFFFFF" width="58.955" height="9.942"/>
			<path fill="#EFEFEF" d="M-131.871,660.769h-59.28V650.45h59.28V660.769z M-190.825,660.392h58.628v-9.566h-58.628V660.392z"/>
		</g>
		<path fill="#E8E8E8" d="M-154.566,617.619h-32.841c-0.541,0-0.977-0.505-0.977-1.126c0-0.622,0.436-1.127,0.977-1.127h32.842
			c0.541,0,0.979,0.505,0.979,1.127C-153.586,617.114-154.025,617.619-154.566,617.619z"/>
		<path fill="#E8E8E8" d="M-150.439,657.267h-36.968c-0.541,0-0.977-0.506-0.977-1.127s0.436-1.125,0.977-1.125h36.969
			c0.541,0,0.979,0.504,0.979,1.125S-149.898,657.267-150.439,657.267z"/>
		<path fill="#E8E8E8" d="M-147.668,647.353h-39.739c-0.539,0-0.976-0.504-0.976-1.125c0-0.623,0.437-1.125,0.976-1.125h39.739
			c0.54,0,0.978,0.502,0.978,1.125S-147.128,647.353-147.668,647.353z"/>
		<path fill="#E8E8E8" d="M-156.301,637.44h-31.106c-0.539,0-0.976-0.504-0.976-1.125s0.437-1.125,0.976-1.125h31.106
			c0.54,0,0.978,0.504,0.978,1.125S-155.761,637.44-156.301,637.44z"/>
		<path fill="#E8E8E8" d="M-147.668,627.53h-39.739c-0.539,0-0.976-0.506-0.976-1.127s0.437-1.125,0.976-1.125h39.739
			c0.54,0,0.978,0.504,0.978,1.125C-146.691,627.024-147.128,627.53-147.668,627.53z"/>
		<path fill="#C6C6C6" d="M-162.381,607.987h-25.026c-0.539,0-0.976-0.504-0.976-1.125s0.437-1.127,0.976-1.127h25.026
			c0.54,0,0.978,0.506,0.978,1.127S-161.841,607.987-162.381,607.987z"/>
	</g>
	
		<rect x="221.72" y="52.883" fill="#FFFFFF" stroke="#EFEFEF" stroke-width="0.4432" stroke-miterlimit="10" width="358.561" height="32.719"/>
	
		<line fill="none" stroke="#C6C6C6" stroke-width="4.0818" stroke-linecap="round" stroke-miterlimit="10" x1="230.262" y1="71.372" x2="273.688" y2="71.372"/>
	
		<line fill="none" stroke="#DFDFDF" stroke-width="3.0248" stroke-linecap="round" stroke-miterlimit="10" x1="292.92" y1="71.372" x2="320.518" y2="71.372"/>
	
		<line fill="none" stroke="#DFDFDF" stroke-width="3.0248" stroke-linecap="round" stroke-miterlimit="10" x1="332.92" y1="71.372" x2="360.518" y2="71.372"/>
	
		<line fill="none" stroke="#DFDFDF" stroke-width="3.0248" stroke-linecap="round" stroke-miterlimit="10" x1="372.921" y1="71.372" x2="400.518" y2="71.372"/>
	
		<line fill="none" stroke="#DFDFDF" stroke-width="3.0248" stroke-linecap="round" stroke-miterlimit="10" x1="412.921" y1="71.372" x2="440.518" y2="71.372"/>
	<path fill="#DFDFDF" d="M573.805,72.89l-1.899-1.901c-0.123-0.184-0.368-0.184-0.554,0v0.001l-0.699-0.701
		c1.166-1.431,1.085-3.573-0.28-4.88c-1.411-1.411-3.742-1.411-5.213,0c-1.41,1.41-1.41,3.741,0,5.212
		c1.324,1.325,3.449,1.389,4.924,0.227l0.706,0.706c-0.17,0.126-0.168,0.361,0.011,0.539l1.9,1.901c0.123,0.185,0.367,0.185,0.553,0
		l0.552-0.552C573.989,73.32,573.989,73.075,573.805,72.89z M565.956,69.824c-0.98-1.042-1.043-2.636,0-3.679
		c1.042-1.042,2.699-1.042,3.68,0c1.042,1.043,1.042,2.638,0,3.679C568.593,70.867,566.938,70.867,565.956,69.824z"/>
	<rect x="372.78" y="51.989" fill="#007AC2" width="28" height="3"/>
	<rect x="221.72" y="440.582" fill="#F8F8F8" width="358.34" height="73.799"/>
	
		<line fill="none" stroke="#E8E8E8" stroke-width="4.554" stroke-linecap="round" stroke-miterlimit="10" x1="345.609" y1="479.791" x2="402.649" y2="479.791"/>
	
		<line fill="none" stroke="#E8E8E8" stroke-width="4.554" stroke-linecap="round" stroke-miterlimit="10" x1="345.232" y1="502.064" x2="399.256" y2="502.064"/>
	
		<line fill="none" stroke="#E8E8E8" stroke-width="4.554" stroke-linecap="round" stroke-miterlimit="10" x1="345.232" y1="490.928" x2="414.249" y2="490.928"/>
	
		<line fill="none" stroke="#C6C6C6" stroke-width="4.554" stroke-linecap="round" stroke-miterlimit="10" x1="345.232" y1="460.445" x2="388.697" y2="460.445"/>
	
		<line fill="none" stroke="#E8E8E8" stroke-width="4.554" stroke-linecap="round" stroke-miterlimit="10" x1="259.928" y1="479.791" x2="314.718" y2="479.791"/>
	
		<line fill="none" stroke="#E8E8E8" stroke-width="4.554" stroke-linecap="round" stroke-miterlimit="10" x1="259.566" y1="502.064" x2="311.458" y2="502.064"/>
	
		<line fill="none" stroke="#E8E8E8" stroke-width="4.554" stroke-linecap="round" stroke-miterlimit="10" x1="259.566" y1="490.928" x2="325.86" y2="490.928"/>
	
		<line fill="none" stroke="#C6C6C6" stroke-width="4.554" stroke-linecap="round" stroke-miterlimit="10" x1="259.566" y1="460.445" x2="301.316" y2="460.445"/>
	
		<line fill="none" stroke="#E8E8E8" stroke-width="4.554" stroke-linecap="round" stroke-miterlimit="10" x1="432.646" y1="479.791" x2="478.83" y2="479.791"/>
	
		<line fill="none" stroke="#E8E8E8" stroke-width="4.554" stroke-linecap="round" stroke-miterlimit="10" x1="432.268" y1="502.064" x2="486.292" y2="502.064"/>
	
		<line fill="none" stroke="#E8E8E8" stroke-width="4.554" stroke-linecap="round" stroke-miterlimit="10" x1="432.268" y1="490.928" x2="466.574" y2="490.928"/>
	
		<line fill="none" stroke="#C6C6C6" stroke-width="4.554" stroke-linecap="round" stroke-miterlimit="10" x1="432.268" y1="460.445" x2="492.76" y2="460.445"/>
	
		<line fill="none" stroke="#E8E8E8" stroke-width="4.554" stroke-linecap="round" stroke-miterlimit="10" x1="521.41" y1="479.791" x2="567.594" y2="479.791"/>
	
		<line fill="none" stroke="#E8E8E8" stroke-width="4.554" stroke-linecap="round" stroke-miterlimit="10" x1="521.032" y1="502.064" x2="548.044" y2="502.064"/>
	
		<line fill="none" stroke="#E8E8E8" stroke-width="4.554" stroke-linecap="round" stroke-miterlimit="10" x1="521.032" y1="490.928" x2="567.594" y2="490.928"/>
	
		<line fill="none" stroke="#C6C6C6" stroke-width="4.554" stroke-linecap="round" stroke-miterlimit="10" x1="521.032" y1="460.445" x2="546.734" y2="460.445"/>
	<rect x="221.72" y="85.602" fill="#052942" width="358.561" height="107.995"/>
	
		<line fill="none" stroke="#FFFFFF" stroke-width="6" stroke-linecap="round" stroke-miterlimit="10" x1="348.219" y1="139.599" x2="451.908" y2="139.599"/>
	<rect x="221.499" y="191.688" fill="#FFFFFF" width="358.562" height="248.894"/>
	<rect x="229.225" y="200.439" fill="#FFFFFF" width="59.282" height="121.449"/>
	<rect x="229.225" y="200.439" fill="#FFFFFF" width="59.281" height="59.283"/>
	<rect x="229.225" y="259.691" fill="#FFFFFF" width="59.281" height="59.283"/>
	<g>
		<g>
			<g>
				<rect x="229.377" y="207.637" fill="#F8F8F8" width="54.435" height="10.484"/>
				<path fill="#EFEFEF" d="M283.962,218.318h-54.735v-10.879h54.735V218.318z M229.528,217.923h54.132v-10.087h-54.132V217.923z"/>
			</g>
			<g>
				<rect x="229.377" y="217.923" fill="#FFFFFF" width="54.435" height="10.483"/>
				<path fill="#EFEFEF" d="M283.962,228.604h-54.735v-10.879h54.735V228.604z M229.528,228.208h54.132v-10.087h-54.132V228.208z"/>
			</g>
			<g>
				<rect x="229.377" y="228.26" fill="#FFFFFF" width="54.435" height="10.48"/>
				<path fill="#EFEFEF" d="M283.962,238.939h-54.735v-10.879h54.735V238.939z M229.528,238.544h54.132v-10.088h-54.132V238.544z"/>
			</g>
			<g>
				<rect x="229.377" y="238.594" fill="#FFFFFF" width="54.435" height="10.482"/>
				<path fill="#EFEFEF" d="M283.962,249.273h-54.735v-10.879h54.735V249.273z M229.528,248.878h54.132v-10.087h-54.132V248.878z"/>
			</g>
			<g>
				<rect x="229.377" y="248.928" fill="#FFFFFF" width="54.435" height="10.483"/>
				<path fill="#EFEFEF" d="M283.962,259.609h-54.735v-10.881h54.735V259.609z M229.528,259.214h54.132v-10.089h-54.132V259.214z"/>
			</g>
			<g>
				<rect x="229.377" y="259.264" fill="#FFFFFF" width="54.435" height="10.483"/>
				<path fill="#EFEFEF" d="M283.962,269.943h-54.735v-10.879h54.735V269.943z M229.528,269.548h54.132v-10.087h-54.132V269.548z"/>
			</g>
			<path fill="#E8E8E8" d="M263.007,224.451h-30.323c-0.5,0-0.902-0.531-0.902-1.188s0.403-1.188,0.902-1.188h30.324
				c0.5,0,0.904,0.531,0.904,1.188S263.506,224.451,263.007,224.451z"/>
			<path fill="#E8E8E8" d="M266.817,266.252h-34.133c-0.5,0-0.902-0.531-0.902-1.188c0-0.658,0.403-1.188,0.902-1.188h34.134
				c0.5,0,0.904,0.53,0.904,1.188C267.722,265.721,267.317,266.252,266.817,266.252z"/>
			<path fill="#E8E8E8" d="M269.376,255.803h-36.692c-0.498,0-0.901-0.533-0.901-1.188c0-0.657,0.404-1.188,0.901-1.188h36.692
				c0.499,0,0.903,0.529,0.903,1.188C270.278,255.27,269.875,255.803,269.376,255.803z"/>
			<path fill="#E8E8E8" d="M261.405,245.352h-28.721c-0.498,0-0.901-0.531-0.901-1.188c0-0.654,0.404-1.188,0.901-1.188h28.721
				c0.499,0,0.903,0.532,0.903,1.188C262.308,244.818,261.904,245.352,261.405,245.352z"/>
			<path fill="#E8E8E8" d="M269.376,234.9h-36.692c-0.498,0-0.901-0.531-0.901-1.188c0-0.654,0.404-1.188,0.901-1.188h36.692
				c0.499,0,0.903,0.53,0.903,1.188C270.278,234.367,269.875,234.9,269.376,234.9z"/>
			<path fill="#C6C6C6" d="M255.791,214.297h-23.107c-0.498,0-0.901-0.531-0.901-1.188c0-0.655,0.404-1.188,0.901-1.188h23.107
				c0.499,0,0.903,0.532,0.903,1.188S256.29,214.297,255.791,214.297z"/>
		</g>
		<g>
			<g>
				<rect x="229.377" y="269.88" fill="#F8F8F8" width="54.435" height="9.942"/>
				<path fill="#EFEFEF" d="M283.962,280.012h-54.735v-10.318h54.735V280.012z M229.528,279.637h54.132v-9.568h-54.132V279.637z"/>
			</g>
			<g>
				<rect x="229.377" y="279.637" fill="#FFFFFF" width="54.435" height="9.942"/>
				<path fill="#EFEFEF" d="M283.962,289.768h-54.735v-10.318h54.735V289.768z M229.528,289.391h54.132v-9.566h-54.132V289.391z"/>
			</g>
			<g>
				<rect x="229.377" y="289.438" fill="#FFFFFF" width="54.435" height="9.942"/>
				<path fill="#EFEFEF" d="M283.962,299.568h-54.735v-10.317h54.735V299.568z M229.528,299.193h54.132v-9.567h-54.132V299.193z"/>
			</g>
			<g>
				<rect x="229.377" y="299.24" fill="#FFFFFF" width="54.435" height="9.94"/>
				<path fill="#EFEFEF" d="M283.962,309.371h-54.735v-10.318h54.735V309.371z M229.528,308.995h54.132v-9.567h-54.132V308.995z"/>
			</g>
			<g>
				<rect x="229.377" y="309.042" fill="#FFFFFF" width="54.435" height="9.942"/>
				<path fill="#EFEFEF" d="M283.962,319.173h-54.735v-10.317h54.735V319.173z M229.528,318.798h54.132v-9.567h-54.132V318.798z"/>
			</g>
			<g>
				<rect x="229.377" y="318.846" fill="#FFFFFF" width="54.435" height="9.942"/>
				<path fill="#EFEFEF" d="M283.962,328.977h-54.735v-10.318h54.735V328.977z M229.528,328.6h54.132v-9.566h-54.132V328.6z"/>
			</g>
			<path fill="#E8E8E8" d="M263.007,285.827h-30.323c-0.5,0-0.902-0.505-0.902-1.126c0-0.622,0.403-1.127,0.902-1.127h30.324
				c0.5,0,0.904,0.505,0.904,1.127C263.912,285.322,263.506,285.827,263.007,285.827z"/>
			<path fill="#E8E8E8" d="M266.817,325.475h-34.133c-0.5,0-0.902-0.506-0.902-1.127s0.403-1.125,0.902-1.125h34.134
				c0.5,0,0.904,0.504,0.904,1.125S267.317,325.475,266.817,325.475z"/>
			<path fill="#E8E8E8" d="M269.376,315.561h-36.692c-0.498,0-0.901-0.504-0.901-1.125c0-0.623,0.404-1.125,0.901-1.125h36.692
				c0.499,0,0.903,0.502,0.903,1.125S269.875,315.561,269.376,315.561z"/>
			<path fill="#E8E8E8" d="M261.405,305.648h-28.721c-0.498,0-0.901-0.504-0.901-1.125s0.404-1.125,0.901-1.125h28.721
				c0.499,0,0.903,0.504,0.903,1.125S261.904,305.648,261.405,305.648z"/>
			<path fill="#E8E8E8" d="M269.376,295.738h-36.692c-0.498,0-0.901-0.506-0.901-1.127s0.404-1.125,0.901-1.125h36.692
				c0.499,0,0.903,0.504,0.903,1.125C270.278,295.232,269.875,295.738,269.376,295.738z"/>
			<path fill="#C6C6C6" d="M255.791,276.195h-23.107c-0.498,0-0.901-0.504-0.901-1.125s0.404-1.127,0.901-1.127h23.107
				c0.499,0,0.903,0.506,0.903,1.127S256.29,276.195,255.791,276.195z"/>
		</g>
	</g>
	<g>
		<rect x="302.014" y="207.752" fill="#FFFFFF" width="59.283" height="59.283"/>
		
			<rect x="302.014" y="239.9" fill="#FFFFFF" stroke="#EFEFEF" stroke-width="0.295" stroke-miterlimit="10" width="59.283" height="27.136"/>
		
			<line fill="none" stroke="#E8E8E8" stroke-width="1.7701" stroke-linecap="round" stroke-miterlimit="10" x1="307.96" y1="253.176" x2="339.489" y2="253.176"/>
		
			<line fill="none" stroke="#E8E8E8" stroke-width="1.7701" stroke-linecap="round" stroke-miterlimit="10" x1="307.751" y1="256.961" x2="345.899" y2="256.961"/>
		
			<line fill="none" stroke="#C6C6C6" stroke-width="1.7701" stroke-linecap="round" stroke-miterlimit="10" x1="307.751" y1="245.92" x2="331.776" y2="245.92"/>
		<rect x="302.108" y="207.754" fill="#B9DDEA" width="59.094" height="32.146"/>
		
			<line fill="none" stroke="#A3C3CC" stroke-width="0.59" stroke-miterlimit="10" x1="302.108" y1="207.754" x2="361.202" y2="239.9"/>
		
			<line fill="none" stroke="#A3C3CC" stroke-width="0.59" stroke-miterlimit="10" x1="302.108" y1="239.9" x2="361.202" y2="207.754"/>
	</g>
	<g>
		<rect x="376.13" y="207.752" fill="#FFFFFF" width="59.284" height="59.283"/>
		
			<rect x="376.13" y="239.9" fill="#FFFFFF" stroke="#EFEFEF" stroke-width="0.295" stroke-miterlimit="10" width="59.284" height="27.136"/>
		
			<line fill="none" stroke="#E8E8E8" stroke-width="1.7701" stroke-linecap="round" stroke-miterlimit="10" x1="382.077" y1="253.176" x2="413.605" y2="253.176"/>
		
			<line fill="none" stroke="#E8E8E8" stroke-width="1.7701" stroke-linecap="round" stroke-miterlimit="10" x1="381.868" y1="256.961" x2="420.016" y2="256.961"/>
		
			<line fill="none" stroke="#C6C6C6" stroke-width="1.7701" stroke-linecap="round" stroke-miterlimit="10" x1="381.868" y1="245.92" x2="405.893" y2="245.92"/>
		<rect x="376.225" y="207.754" fill="#B9DDEA" width="59.093" height="32.146"/>
		
			<line fill="none" stroke="#A3C3CC" stroke-width="0.59" stroke-miterlimit="10" x1="376.225" y1="207.754" x2="435.318" y2="239.9"/>
		
			<line fill="none" stroke="#A3C3CC" stroke-width="0.59" stroke-miterlimit="10" x1="376.225" y1="239.9" x2="435.318" y2="207.754"/>
	</g>
	<g>
		<rect x="446.426" y="207.752" fill="#FFFFFF" width="59.284" height="59.283"/>
		
			<rect x="446.426" y="239.9" fill="#FFFFFF" stroke="#EFEFEF" stroke-width="0.295" stroke-miterlimit="10" width="59.284" height="27.136"/>
		
			<line fill="none" stroke="#E8E8E8" stroke-width="1.7701" stroke-linecap="round" stroke-miterlimit="10" x1="452.373" y1="253.176" x2="483.9" y2="253.176"/>
		
			<line fill="none" stroke="#E8E8E8" stroke-width="1.7701" stroke-linecap="round" stroke-miterlimit="10" x1="452.164" y1="256.961" x2="490.311" y2="256.961"/>
		
			<line fill="none" stroke="#C6C6C6" stroke-width="1.7701" stroke-linecap="round" stroke-miterlimit="10" x1="452.164" y1="245.92" x2="476.188" y2="245.92"/>
		<rect x="446.521" y="207.754" fill="#B9DDEA" width="59.093" height="32.146"/>
		
			<line fill="none" stroke="#A3C3CC" stroke-width="0.59" stroke-miterlimit="10" x1="446.521" y1="207.754" x2="505.614" y2="239.9"/>
		
			<line fill="none" stroke="#A3C3CC" stroke-width="0.59" stroke-miterlimit="10" x1="446.521" y1="239.9" x2="505.614" y2="207.754"/>
	</g>
	<g>
		<rect x="515.438" y="207.752" fill="#FFFFFF" width="59.284" height="59.283"/>
		
			<rect x="515.438" y="239.9" fill="#FFFFFF" stroke="#EFEFEF" stroke-width="0.295" stroke-miterlimit="10" width="59.284" height="27.136"/>
		
			<line fill="none" stroke="#E8E8E8" stroke-width="1.7701" stroke-linecap="round" stroke-miterlimit="10" x1="521.387" y1="253.176" x2="552.914" y2="253.176"/>
		
			<line fill="none" stroke="#E8E8E8" stroke-width="1.7701" stroke-linecap="round" stroke-miterlimit="10" x1="521.178" y1="256.961" x2="559.324" y2="256.961"/>
		
			<line fill="none" stroke="#C6C6C6" stroke-width="1.7701" stroke-linecap="round" stroke-miterlimit="10" x1="521.178" y1="245.92" x2="545.201" y2="245.92"/>
		<rect x="515.534" y="207.754" fill="#B9DDEA" width="59.093" height="32.146"/>
		
			<line fill="none" stroke="#A3C3CC" stroke-width="0.59" stroke-miterlimit="10" x1="515.534" y1="207.754" x2="574.627" y2="239.9"/>
		
			<line fill="none" stroke="#A3C3CC" stroke-width="0.59" stroke-miterlimit="10" x1="515.534" y1="239.9" x2="574.627" y2="207.754"/>
	</g>
	
		<line fill="none" stroke="#7A7A7A" stroke-width="3" stroke-linecap="round" stroke-miterlimit="10" x1="303.108" y1="289.768" x2="353.5" y2="289.768"/>
	
		<line fill="none" stroke="#7A7A7A" stroke-width="3" stroke-linecap="round" stroke-miterlimit="10" x1="303.108" y1="364.606" x2="353.5" y2="364.606"/>
	
		<line fill="none" stroke="#ADADAD" stroke-width="3" stroke-linecap="round" stroke-miterlimit="10" x1="303.108" y1="303.398" x2="554.514" y2="303.398"/>
	
		<line fill="none" stroke="#ADADAD" stroke-width="3" stroke-linecap="round" stroke-miterlimit="10" x1="303.108" y1="313.536" x2="563" y2="313.536"/>
	
		<line fill="none" stroke="#ADADAD" stroke-width="3" stroke-linecap="round" stroke-miterlimit="10" x1="303.108" y1="323.674" x2="571.5" y2="323.674"/>
	
		<line fill="none" stroke="#ADADAD" stroke-width="3" stroke-linecap="round" stroke-miterlimit="10" x1="303.108" y1="333.812" x2="566.5" y2="333.812"/>
	
		<line fill="none" stroke="#ADADAD" stroke-width="3" stroke-linecap="round" stroke-miterlimit="10" x1="303.108" y1="375.768" x2="571.5" y2="375.768"/>
	
		<line fill="none" stroke="#ADADAD" stroke-width="3" stroke-linecap="round" stroke-miterlimit="10" x1="303.108" y1="385.905" x2="558.247" y2="385.905"/>
	
		<line fill="none" stroke="#ADADAD" stroke-width="3" stroke-linecap="round" stroke-miterlimit="10" x1="303.108" y1="396.043" x2="566.5" y2="396.043"/>
	
		<line fill="none" stroke="#ADADAD" stroke-width="3" stroke-linecap="round" stroke-miterlimit="10" x1="303.108" y1="406.181" x2="571.5" y2="406.181"/>
	
		<line fill="none" stroke="#ADADAD" stroke-width="3" stroke-linecap="round" stroke-miterlimit="10" x1="303.108" y1="416.318" x2="566.5" y2="416.318"/>
</g>
<g id="grid">
	<rect x="228.225" y="51.989" opacity="0.2" fill="#C84D30" width="11.839" height="462.392"/>
	<rect x="242.788" y="51.989" opacity="0.2" fill="#C84D30" width="11.839" height="462.392"/>
	<rect x="257.35" y="51.989" opacity="0.2" fill="#C84D30" width="11.839" height="462.392"/>
	<rect x="271.913" y="51.989" opacity="0.2" fill="#C84D30" width="11.839" height="462.392"/>
	<rect x="286.475" y="51.989" opacity="0.2" fill="#C84D30" width="11.839" height="462.392"/>
	<rect x="301.037" y="51.989" opacity="0.2" fill="#C84D30" width="11.839" height="462.392"/>
	<rect x="315.599" y="51.989" opacity="0.2" fill="#C84D30" width="11.84" height="462.392"/>
	<rect x="330.162" y="51.989" opacity="0.2" fill="#C84D30" width="11.84" height="462.392"/>
	<rect x="344.724" y="51.989" opacity="0.2" fill="#C84D30" width="11.839" height="462.392"/>
	<rect x="359.287" y="51.989" opacity="0.2" fill="#C84D30" width="11.839" height="462.392"/>
	<rect x="373.849" y="51.989" opacity="0.2" fill="#C84D30" width="11.839" height="462.392"/>
	<rect x="388.412" y="51.989" opacity="0.2" fill="#C84D30" width="11.839" height="462.392"/>
	<rect x="402.974" y="51.989" opacity="0.2" fill="#C84D30" width="11.84" height="462.392"/>
	<rect x="417.536" y="51.989" opacity="0.2" fill="#C84D30" width="11.841" height="462.392"/>
	<rect x="432.098" y="51.989" opacity="0.2" fill="#C84D30" width="11.841" height="462.392"/>
	<rect x="446.661" y="51.989" opacity="0.2" fill="#C84D30" width="11.839" height="462.392"/>
	<rect x="461.223" y="51.989" opacity="0.2" fill="#C84D30" width="11.84" height="462.392"/>
	<rect x="475.786" y="51.989" opacity="0.2" fill="#C84D30" width="11.839" height="462.392"/>
	<rect x="490.349" y="51.989" opacity="0.2" fill="#C84D30" width="11.839" height="462.392"/>
	<rect x="504.911" y="51.989" opacity="0.2" fill="#C84D30" width="11.839" height="462.392"/>
	<rect x="519.473" y="51.989" opacity="0.2" fill="#C84D30" width="11.84" height="462.392"/>
	<rect x="534.035" y="51.989" opacity="0.2" fill="#C84D30" width="11.84" height="462.392"/>
	<rect x="548.599" y="51.989" opacity="0.2" fill="#C84D30" width="11.839" height="462.392"/>
	<rect x="563.16" y="51.989" opacity="0.2" fill="#C84D30" width="11.84" height="462.392"/>
</g>
</svg>
