<?xml version="1.0" encoding="utf-8"?>
<!-- Generator: Adobe Illustrator 16.0.4, SVG Export Plug-In . SVG Version: 6.00 Build 0)  -->
<!DOCTYPE svg PUBLIC "-//W3C//DTD SVG 1.1//EN" "http://www.w3.org/Graphics/SVG/1.1/DTD/svg11.dtd">
<svg version="1.1" id="Layer_1" xmlns="http://www.w3.org/2000/svg" xmlns:xlink="http://www.w3.org/1999/xlink" x="0px" y="0px"
	 width="480px" height="320px" viewBox="0 0 480 320" enable-background="new 0 0 480 320" xml:space="preserve">
<rect y="-1" fill="#00B1DC" width="480" height="321"/>
<g>
	<path fill="#84E0EF" d="M165.824,211.7h-11.85l45.899-106.199h10.5L255.975,211.7h-12l-11.701-27.898h-54.898L165.824,211.7z
		 M181.424,173.901h46.801l-23.4-56.4L181.424,173.901z"/>
	<path fill="#84E0EF" d="M315.225,166.267c0-6.054-1.602-10.57-4.801-13.549c-3.201-2.978-7.852-4.468-13.949-4.468
		c-4.201,0-8.102,0.75-11.701,2.25c-3.598,1.5-6.65,3.502-9.148,6l-5.699-6.75c2.896-2.898,6.725-5.299,11.475-7.199
		c4.748-1.898,10.125-2.852,16.125-2.852c3.799,0,7.35,0.525,10.65,1.576c3.299,1.049,6.199,2.625,8.699,4.725
		c2.498,2.101,4.447,4.75,5.85,7.949c1.4,3.202,2.102,6.952,2.102,11.25v30.75c0,2.701,0.098,5.502,0.299,8.4
		c0.199,2.901,0.5,5.352,0.9,7.35h-9.15c-0.299-1.699-0.551-3.548-0.75-5.549c-0.201-2-0.299-3.949-0.299-5.852h-0.301
		c-3.201,4.702-6.824,8.077-10.875,10.125c-4.051,2.049-8.926,3.075-14.625,3.075c-2.699,0-5.475-0.377-8.324-1.127
		c-2.852-0.753-5.453-1.979-7.801-3.688c-2.352-1.706-4.301-3.914-5.85-6.623c-1.553-2.709-2.326-6.021-2.326-9.935
		c0-5.418,1.375-9.707,4.125-12.866c2.75-3.158,6.426-5.518,11.025-7.072c4.6-1.558,9.875-2.562,15.824-3.012
		c5.947-0.451,12.123-0.679,18.525-0.679V166.267L315.225,166.267z M312.225,176.601c-4.201,0-8.426,0.176-12.676,0.524
		c-4.252,0.353-8.1,1.051-11.551,2.101c-3.449,1.051-6.275,2.576-8.475,4.575c-2.201,2.001-3.301,4.648-3.301,7.949
		c0,2.5,0.475,4.602,1.426,6.301c0.949,1.701,2.225,3.074,3.824,4.125c1.6,1.05,3.375,1.8,5.326,2.25
		c1.947,0.449,3.924,0.675,5.924,0.675c3.602,0,6.801-0.623,9.602-1.875c2.797-1.249,5.148-2.948,7.049-5.101
		c1.898-2.148,3.35-4.625,4.352-7.426c0.998-2.798,1.5-5.748,1.5-8.85v-5.25L312.225,176.601L312.225,176.601z"/>
</g>
</svg>
