<?xml version="1.0" encoding="utf-8"?>
<!-- Generated by IcoMoon.io -->
<!DOCTYPE svg PUBLIC "-//W3C//DTD SVG 1.1//EN" "http://www.w3.org/Graphics/SVG/1.1/DTD/svg11.dtd">
<svg version="1.1" xmlns="http://www.w3.org/2000/svg" xmlns:xlink="http://www.w3.org/1999/xlink" width="32" height="32" viewBox="0 0 32 32">
<path fill="rgb(0, 0, 0)" d="M29.998 28.119l-8.116-8.119h6.118v-2h-10v10h2v-6.113l8.115 8.115zM20 16h3.107l1.057-0.313c-0.246-0.963-1.199-2.119-1.199-2.119s1.107 0.702 1.737 0.518c0.622-0.182 0.156-0.933 0.674-1.477 0.085-0.090 0.327-0.128 0.506-0.126 0.284 0.955 0.439 1.966 0.439 3.014 0 0.17-0.014 0.336-0.024 0.503h2.799c0.005-0.072 0.012-0.143 0.012-0.216 0-7.365-5.97-13.335-13.335-13.335s-13.335 5.97-13.335 13.335 5.97 13.335 13.335 13.335c0.077 0 0.152-0.007 0.228-0.011v-1.795l-0.219-1.268c-0.003 0-0.005 0-0.008 0-2.14 0-4.125-0.645-5.787-1.741 0.028-0.885 0.453-1.697 1.539-3.293 0.854-1.256 0.016-2.521-0.658-2.961s-1.363-1.192-3.281-1.633c-0.551-0.127-1.906-0.376-2.36-0.882 0-0.013-0.001-0.025-0.001-0.038 0-0.818 0.096-1.613 0.272-2.377 0.542 0.091 1.122 0.062 1.476 0.008 1.011-0.156 0.992-1.192 1.329-2.125s1.667-1.033 2.238-2.122c0.383-0.732-0.273-1.587-0.64-2.146 1.679-1.127 3.699-1.786 5.873-1.786 1.194 0 2.34 0.201 3.41 0.566 0.083 0.499 0.135 1.199 0.012 1.676-0.137 0.53-1.133 0.788-1.415 1.251s-0.617 1.747 0.145 2.045c0.761 0.299 1.613-0.090 2.268 0.333 0.803 0.518 1.425 1.633 0.907 1.711s-2.048-0.363-3.059-0.363-3.499 1.814-3.344 3.395c0.050 0.511 0.135 0.901 0.254 1.201 0.066 0.248 0.677 0.811 1.049 0.853v-1.617h4z"></path>
</svg>
