<?xml version="1.0" encoding="utf-8"?>
<!-- Generated by IcoMoon.io -->
<!DOCTYPE svg PUBLIC "-//W3C//DTD SVG 1.1//EN" "http://www.w3.org/Graphics/SVG/1.1/DTD/svg11.dtd">
<svg version="1.1" xmlns="http://www.w3.org/2000/svg" xmlns:xlink="http://www.w3.org/1999/xlink" width="32" height="32" viewBox="0 0 32 32">
<path fill="rgb(0, 0, 0)" d="M10.646 20.854l12.070-12.065-1.334-1.334-12.066 12.061c-1.367 1.365-1.367 3.582 0 4.938 1.359 1.367 3.574 1.367 4.936 0l0.002 0.002 14.799-14.795c2.211-2.211 2.211-5.795 0-8.004-2.207-2.207-5.787-2.207-7.998 0l-17.469 17.469c-2.945 2.947-2.94 7.723 0.002 10.664 2.945 2.947 7.721 2.947 10.664 0.002l14.734-14.732-1.334-1.334-14.734 14.734c-2.205 2.207-5.791 2.207-7.996-0.004-2.209-2.207-2.209-5.785-0.002-7.994l17.467-17.471c1.475-1.471 3.863-1.471 5.334 0 1.473 1.475 1.473 3.861 0 5.332l-14.797 14.805c-0.293 0.297-0.697 0.48-1.146 0.48-0.891 0-1.611-0.721-1.611-1.609 0-0.449 0.186-0.853 0.48-1.144v0z"></path>
</svg>
