<?xml version="1.0" encoding="utf-8"?>
<!-- Generated by IcoMoon.io -->
<!DOCTYPE svg PUBLIC "-//W3C//DTD SVG 1.1//EN" "http://www.w3.org/Graphics/SVG/1.1/DTD/svg11.dtd">
<svg version="1.1" xmlns="http://www.w3.org/2000/svg" xmlns:xlink="http://www.w3.org/1999/xlink" width="32" height="32" viewBox="0 0 32 32">
<path fill="rgb(0, 0, 0)" d="M2 32h26v-20h-26v20zM22 14h4v4h-4v-4zM22 20h4v4h-4v-4zM22 26h4v4h-4v-4zM16 14h4v4h-4v-4zM16 20h4v4h-4v-4zM16 26h4v4h-4v-4zM10 14h4v4h-4v-4zM10 20h4v4h-4v-4zM10 26h4v4h-4v-4zM4 14h4v4h-4v-4zM4 20h4v4h-4v-4zM4 26h4v4h-4v-4zM28 2v8h-26v-8h4v4h6v-4h6v4h6v-4h4zM10 4h-2v-4h2v4zM22 4h-2v-4h2v4z"></path>
</svg>
