<?xml version="1.0" encoding="utf-8"?>
<!-- Generated by IcoMoon.io -->
<!DOCTYPE svg PUBLIC "-//W3C//DTD SVG 1.1//EN" "http://www.w3.org/Graphics/SVG/1.1/DTD/svg11.dtd">
<svg version="1.1" xmlns="http://www.w3.org/2000/svg" xmlns:xlink="http://www.w3.org/1999/xlink" width="32" height="32" viewBox="0 0 32 32">
<path fill="rgb(0, 0, 0)" d="M0 10.28c0-4.709 5.137-8.541 11.454-8.541s11.458 3.832 11.458 8.541c0 4.709-5.14 8.541-11.458 8.541-1.44 0-2.85-0.204-4.195-0.601l-7.26 5.841 4.139-7.232c-2.634-1.636-4.139-4.005-4.139-6.549zM32 18.698c0-3.45-2.771-6.41-6.73-7.756-0.438 5.724-6.458 10.278-13.816 10.278-0.62 0-1.236-0.034-1.847-0.099 1.41 3.526 5.757 6.117 10.938 6.117 1.44 0 2.85-0.204 4.195-0.601l7.26 5.361-4.139-6.752c2.634-1.636 4.139-4.005 4.139-6.549z"></path>
</svg>
