<?xml version="1.0" encoding="utf-8"?>
<!-- Generated by IcoMoon.io -->
<!DOCTYPE svg PUBLIC "-//W3C//DTD SVG 1.1//EN" "http://www.w3.org/Graphics/SVG/1.1/DTD/svg11.dtd">
<svg version="1.1" xmlns="http://www.w3.org/2000/svg" xmlns:xlink="http://www.w3.org/1999/xlink" width="32" height="32" viewBox="0 0 32 32">
<path fill="rgb(0, 0, 0)" d="M21.598 8h2.402v2.402l-5.601 5.6 5.601 5.6v2.398h-2.402l-5.599-5.6-5.601 5.6h-2.398v-2.398l5.599-5.6-5.599-5.6v-2.402h2.398l5.601 5.6 5.599-5.6zM31.6 16c0 8.615-6.983 15.6-15.6 15.6s-15.6-6.984-15.6-15.6c0-8.615 6.983-15.6 15.6-15.6s15.6 6.984 15.6 15.6zM29.2 16c0-7.279-5.922-13.199-13.2-13.199s-13.2 5.92-13.2 13.199c0 7.279 5.922 13.199 13.2 13.199s13.2-5.92 13.2-13.199z"></path>
</svg>
