<?xml version="1.0" encoding="utf-8"?>
<!-- Generated by IcoMoon.io -->
<!DOCTYPE svg PUBLIC "-//W3C//DTD SVG 1.1//EN" "http://www.w3.org/Graphics/SVG/1.1/DTD/svg11.dtd">
<svg version="1.1" xmlns="http://www.w3.org/2000/svg" xmlns:xlink="http://www.w3.org/1999/xlink" width="32" height="32" viewBox="0 0 32 32">
<path fill="rgb(0, 0, 0)" d="M32 10v22h-22v-2h20v-20h2zM26 6v20h-20v2h22v-22h-2zM24 2v22h-22v-22h22zM22 10.237v-6.237h-5.42c0.691 2 0.299 2.214 0.156 2.38-0.139 0.162-0.352 0.274-0.572 0.319-0.273 0.238-0.826 0.98-0.976 1.502-0.141 0.485-0.453 0.86-0.885 1.059-0.772 0.355-1.637 0.012-1.842-0.082-0.094 0.292-0.242 0.607-0.477 0.935-0.518 0.718-1.152 0.879-1.594 0.888-1.168 0.011-2.232-1.049-2.619-1.503 0.231 0.62 0.399 1.42 0.162 1.982-0.059 0.138-0.139 0.261-0.238 0.364 1.025-0.083 1.873 0.392 2.266 1.054 0.457 0.772 0.404 1.938-0.746 2.801-0.301 0.226-0.443 0.418-0.498 0.576 1.178 0.183 2.057 0.843 2.324 1.793 0.289 1.025-0.207 2.091-1.268 2.715-0.033 0.020-0.336 0.217-0.684 1.217h8.375c-0.002-1-0.004-1.126-0.012-1.135-0.109-0.151-0.424-0.241-0.861-0.249-1.631-0.030-2.383-1.038-2.545-1.97-0.215-1.254 0.477-2.624 1.576-3.231-0.543-0.703-0.203-1.229-0.010-1.441 0.068-0.075 0.182-0.182 0.32-0.31 0.793-0.727 0.969-1.045 0.975-1.181-0.037-0.704 0.244-1.315 0.773-1.671 0.348-0.236 1.088-0.537 2.266-0.078 0.025-0.041 0.049-0.084 0.072-0.12 0.090-0.158 1.053-0.273 1.98-0.377z"></path>
</svg>
