<?xml version="1.0" encoding="utf-8"?>
<!-- Generated by IcoMoon.io -->
<!DOCTYPE svg PUBLIC "-//W3C//DTD SVG 1.1//EN" "http://www.w3.org/Graphics/SVG/1.1/DTD/svg11.dtd">
<svg version="1.1" xmlns="http://www.w3.org/2000/svg" xmlns:xlink="http://www.w3.org/1999/xlink" width="32" height="32" viewBox="0 0 32 32">
<path fill="rgb(0, 0, 0)" d="M15.999 2c-8.971 0-15.999 4.464-15.999 10.165 0 3.583 2.804 6.799 7.418 8.622-0.068 0.838-0.324 2.179-1.089 4.143l-1.953 5.020 4.878-2.288c0.185-0.086 4.154-1.977 6.56-5.334 0.062 0 0.124 0 0.186 0 8.972 0 16.001-4.464 16.001-10.163 0-5.7-7.028-10.165-16-10.165zM16 20.172c-0.455 0-0.904-0.015-1.348-0.039-1.904 3.508-6.315 5.577-6.315 5.577 1.449-3.722 1.33-5.677 1.157-6.478-4.366-1.347-7.495-4.169-7.495-7.232 0-4.423 6.354-8 14-8s14 3.741 14 8.164c0 4.423-6.354 8.008-14 8.008zM8 8h16v2h-16v-2zM8 12h12v2h-12v-2z"></path>
</svg>
