<?xml version="1.0" encoding="utf-8"?>
<!-- Generated by IcoMoon.io -->
<!DOCTYPE svg PUBLIC "-//W3C//DTD SVG 1.1//EN" "http://www.w3.org/Graphics/SVG/1.1/DTD/svg11.dtd">
<svg version="1.1" xmlns="http://www.w3.org/2000/svg" xmlns:xlink="http://www.w3.org/1999/xlink" width="32" height="32" viewBox="0 0 32 32">
<path fill="rgb(0, 0, 0)" d="M6 4h10v2h-10v-2zM14 8h10v2h-10v-2zM6 16h6v-8h-6v8zM8 10h2v4h-2v-4zM10 22.639l-2.625 2.099 0.564-2.254c0.148-0.598 0.016-1.227-0.361-1.711-0.383-0.488-0.963-0.773-1.578-0.773h-2.002c-1.1 0-1.998-0.898-1.998-2v-14c0-1.098 0.898-2 1.998-2h22c1.102 0 2.002 0.902 2.002 2v8.122c0.094-0.015 0.186-0.046 0.281-0.046 0.475 0 0.948 0.184 1.305 0.541l0.414 0.414v-9.031c0-2.207-1.791-4-4-4h-22c-2.209 0-4 1.793-4 4v14c0 2.211 1.791 4 4 4h2l-2 8 6.675-5.34c-0.404-0.341-0.675-0.829-0.675-1.39v-0.631zM32 23.338v-2.519l-3.209-0.42c-0.166-0.674-0.434-1.301-0.779-1.879l2.082-2.674-1.783-1.783-2.68 2.076c-0.572-0.344-1.205-0.607-1.875-0.773l-0.418-3.365h-2.519l-0.424 3.365c-0.67 0.166-1.297 0.43-1.879 0.773l-2.67-2.076-1.783 1.783 2.076 2.67c-0.344 0.582-0.607 1.209-0.773 1.883l-3.365 0.42v2.519l3.365 0.422c0.166 0.666 0.43 1.299 0.773 1.875l-2.076 2.676 1.779 1.779 2.674-2.082c0.582 0.354 1.209 0.617 1.879 0.779l0.42 3.213h2.523l0.418-3.213c0.67-0.162 1.303-0.426 1.879-0.779l2.672 2.082 1.787-1.779-2.082-2.676c0.349-0.576 0.613-1.209 0.779-1.875l3.209-0.422zM27.533 23.389c-0.137 0.545-0.352 1.063-0.643 1.547-0.27 0.447-0.232 1.016 0.086 1.432l1.41 1.807-0.211 0.213-1.809-1.406c-0.23-0.182-0.506-0.271-0.783-0.271-0.225 0-0.451 0.061-0.648 0.184-0.482 0.289-1.006 0.506-1.553 0.643-0.508 0.125-0.885 0.555-0.949 1.074l-0.285 2.275h-0.301l-0.281-2.275c-0.064-0.52-0.441-0.945-0.949-1.074-0.555-0.137-1.074-0.354-1.553-0.643-0.199-0.123-0.424-0.184-0.652-0.184-0.277 0-0.553 0.090-0.783 0.271l-1.809 1.406-0.207-0.211 1.406-1.805c0.322-0.42 0.357-0.988 0.088-1.435-0.289-0.484-0.506-1.002-0.641-1.547-0.127-0.51-0.553-0.887-1.076-0.953l-2.275-0.283 0.002-0.305 2.273-0.281c0.523-0.064 0.949-0.443 1.076-0.955 0.135-0.541 0.352-1.061 0.641-1.543 0.27-0.451 0.234-1.020-0.088-1.432l-1.41-1.813 0.211-0.211 1.814 1.41c0.228 0.178 0.504 0.268 0.777 0.268 0.228 0 0.455-0.061 0.658-0.184 0.473-0.289 0.992-0.502 1.547-0.643 0.508-0.129 0.885-0.551 0.949-1.074l0.281-2.271h0.301l0.285 2.271c0.064 0.523 0.439 0.945 0.947 1.074 0.553 0.141 1.076 0.354 1.547 0.643 0.205 0.123 0.432 0.184 0.656 0.184 0.275 0 0.553-0.090 0.781-0.268l1.811-1.41 0.211 0.211-1.41 1.813c-0.318 0.412-0.356 0.98-0.086 1.428 0.293 0.49 0.506 1.010 0.643 1.547 0.127 0.512 0.553 0.891 1.072 0.955l2.279 0.281-0.002 0.305-2.277 0.283c-0.519 0.066-0.945 0.443-1.072 0.953zM21.998 18.191c-2.1 0-3.807 1.711-3.807 3.809s1.707 3.809 3.807 3.809c2.099 0 3.807-1.711 3.807-3.809s-1.707-3.809-3.807-3.809zM21.998 24.539c-1.401 0-2.537-1.137-2.537-2.539s1.137-2.539 2.537-2.539c1.402 0 2.539 1.137 2.539 2.539s-1.137 2.539-2.539 2.539z"></path>
</svg>
