<?xml version="1.0" encoding="utf-8"?>
<!-- Generated by IcoMoon.io -->
<!DOCTYPE svg PUBLIC "-//W3C//DTD SVG 1.1//EN" "http://www.w3.org/Graphics/SVG/1.1/DTD/svg11.dtd">
<svg version="1.1" xmlns="http://www.w3.org/2000/svg" xmlns:xlink="http://www.w3.org/1999/xlink" width="32" height="32" viewBox="0 0 32 32">
<path fill="rgb(0, 0, 0)" d="M16.047 0.447c-8.617 0-15.6 6.983-15.6 15.6s6.982 15.6 15.6 15.6 15.6-6.983 15.6-15.6-6.982-15.6-15.6-15.6zM16.047 2.847c3.063 0 5.879 1.059 8.121 2.816l-18.506 18.505c-1.758-2.242-2.815-5.058-2.815-8.121 0-7.278 5.92-13.2 13.199-13.2zM16.047 29.247c-3.062 0-5.879-1.059-8.121-2.816l18.506-18.505c1.756 2.242 2.814 5.058 2.814 8.121 0 7.278-5.92 13.2-13.199 13.2z"></path>
</svg>
