<?xml version="1.0" encoding="utf-8"?>
<!-- Generated by IcoMoon.io -->
<!DOCTYPE svg PUBLIC "-//W3C//DTD SVG 1.1//EN" "http://www.w3.org/Graphics/SVG/1.1/DTD/svg11.dtd">
<svg version="1.1" xmlns="http://www.w3.org/2000/svg" xmlns:xlink="http://www.w3.org/1999/xlink" width="32" height="32" viewBox="0 0 32 32">
<path fill="rgb(0, 0, 0)" d="M22 24h4v2h-4v-2zM22 12h4v2h-4v-2zM22 16h4v2h-4v-2zM8 6h10v2h-10v-2zM22 20h4v2h-4v-2zM8 12h10v2h-10v-2zM8 16h12v2h-12v-2zM22.801 0h-18.801v32h26v-24.801l-7.199-7.199zM28 30h-22v-28h14c0 2.47 0 1.498 0 8 3.134 0 5.299 0 8 0v20zM28 8h-6v-6h0.621l5.379 5.379v0.621zM8 20h12v2h-12v-2zM8 24h10v2h-10v-2z"></path>
</svg>
