<?xml version="1.0" encoding="utf-8"?>
<!-- Generated by IcoMoon.io -->
<!DOCTYPE svg PUBLIC "-//W3C//DTD SVG 1.1//EN" "http://www.w3.org/Graphics/SVG/1.1/DTD/svg11.dtd">
<svg version="1.1" xmlns="http://www.w3.org/2000/svg" xmlns:xlink="http://www.w3.org/1999/xlink" width="32" height="32" viewBox="0 0 32 32">
<path fill="rgb(0, 0, 0)" d="M24 24l-8 8-8-8h6v-10h4v10h6zM27.080 8.793c-0.652-4.748-4.484-8.397-9.129-8.397-3.48 0-6.504 2.045-8.082 5.062-0.434-0.117-0.881-0.199-1.344-0.199-2.563 0-4.471 1.909-4.646 4.326-2.172 1.115-3.68 3.368-3.68 5.972 0 3.537 2.891 6.443 5.801 6.443 0.699 0 1.361 0 2 0 0.693 0 1.359 0 2 0v-2.4h-4c-1.541 0-3.4-1.803-3.4-4.043 0-1.614 0.91-3.084 2.375-3.837l1.199-0.616 0.1-1.345c0.090-1.236 1.016-2.1 2.252-2.1 0.193 0 0.428 0.037 0.717 0.115l1.861 0.503 0.892-1.707c1.217-2.328 3.5-3.774 5.955-3.774 3.353 0 6.256 2.718 6.752 6.323l0.203 1.484 1.424 0.468c1.836 0.606 3.070 2.33 3.070 4.292 0 2.347-1.859 4.235-3.4 4.235h-4v2.4c0.764 0 1.406 0 2 0 0.715 0 1.355 0 2 0 2.838 0 5.801-2.936 5.801-6.636 0-3.070-1.982-5.67-4.721-6.571z"></path>
</svg>
