<?xml version="1.0" encoding="utf-8"?>
<!-- Generated by IcoMoon.io -->
<!DOCTYPE svg PUBLIC "-//W3C//DTD SVG 1.1//EN" "http://www.w3.org/Graphics/SVG/1.1/DTD/svg11.dtd">
<svg version="1.1" xmlns="http://www.w3.org/2000/svg" xmlns:xlink="http://www.w3.org/1999/xlink" width="32" height="32" viewBox="0 0 32 32">
<path fill="rgb(0, 0, 0)" d="M15.699 2.383l12.938 11.633-12.608 5.189c-0.123 0.045-0.246 0.072-0.359 0.072-0.254 0-0.482-0.096-0.656-0.273l-12.982-13.432 12.264-3.504c0.137-0.049 0.281-0.068 0.426-0.068 0.355 0 0.707 0.133 0.978 0.383zM31.107 23.74l-13.477 5.547c-0.172 0.070-0.355 0.107-0.539 0.107-0.375 0-0.742-0.15-1.016-0.432l-13.988-14.463c-0.137-0.141-0.242-0.307-0.309-0.494-0.598-1.613-1.844-4.523-1.777-6.414l13.273 13.723c0.627 0.648 1.506 1.025 2.404 1.025 0.432 0 0.859-0.088 1.272-0.256l13.586-5.604c0.916 2.4 2.453 6.494 0.57 7.26z"></path>
</svg>
