<?xml version="1.0" encoding="utf-8"?>
<!-- Generated by IcoMoon.io -->
<!DOCTYPE svg PUBLIC "-//W3C//DTD SVG 1.1//EN" "http://www.w3.org/Graphics/SVG/1.1/DTD/svg11.dtd">
<svg version="1.1" xmlns="http://www.w3.org/2000/svg" xmlns:xlink="http://www.w3.org/1999/xlink" width="32" height="32" viewBox="0 0 32 32">
<path fill="rgb(0, 0, 0)" d="M13.643 5.549c-0.824 0.044-0.711-0.867-0.756-1.155 0 0 0.31-0.222 0.488-0.288 0.178-0.067 0.756-0.067 0.867 0.288 0.109 0.355 0.223 1.11-0.6 1.155zM15.662 7.347c0.488-0.354 1.045 0.023 1.445 0 0.398-0.021 0.486-0.533 0.666-0.799 0.178-0.268 0.953-0.622 0.576-0.999-0.379-0.377-2.199-0.644-2.664-0.045-0.238 0.308-0.979 1.156-1.356 1.332s-0.178 0.866 0.066 0.91c0.246 0.045 0.777-0.044 1.266-0.399zM17.885 9.547c-0.133 0.156 0.068 0.49 0.51 0.49 0 0.333 0.090 0.866 0.533 0.754s0.49-0.756-0.066-1.111c-0.26-0.165-0.531-0.91-0.977-0.133zM31.297 16.047c0 8.423-6.828 15.25-15.25 15.25s-15.25-6.827-15.25-15.25c0-8.422 6.828-15.25 15.25-15.25s15.25 6.828 15.25 15.25zM16.047 28.857c1.311 0 2.574-0.199 3.766-0.566-0.031-0.098-0.068-0.2-0.131-0.313-0.353-0.644-0.512-1.954-0.156-2.287 0.354-0.334 0.51-1.199 0.244-1.422-0.266-0.221 0.18-0.601 0.223-0.843 0.246-0.912-0.244-0.955-0.998-1.179-0.756-0.221-1.51 0.090-2.486 0.112-0.98 0.021-1.379-1.378-1.49-1.62-0.354-0.223-0.842-0.558-0.775-1.045 0.066-0.49 0.51-0.91 0.531-1-0.088-0.289 0-0.82 0.135-0.999 0.221-0.844 1.309-1.399 1.666-1.556 0.133-0.577 1.266-1.132 1.531-1.019 0.266 0.11 0.512 0.532 0.934 0 0.42-0.534 0.688-0.378 1.332-0.378 0.643 0 0.842 0.312 1.043 0.91 0.199 0.6 1.6 0.687 1.621 0.556 0.287-0.954 1.088-0.223 1.244-0.223 0.934-0.065 1.043-0.466 0.934-1.022-0.111-0.555-1.045-0.267-1.156-0.51-0.086-0.192-0.289-0.622-0.4-0.4-0.109 0.222-0.486 0.688-0.732 0.065-0.244-0.621-0.932-1.331-1.109-1.221-0.268 0.379-0.602 0.377-0.756 0.267-0.621-0.467-1.086 0.023-1.355 0.289-0.266 0.267-0.668 0.706-1.246 0.863-0.576 0.154-0.955-0.245-1.021-0.822-0.066-0.578 0.447-1.062 0.959-0.797 0.512 0.267 0.953 0.045 0.732-0.177s-0.377-0.845-0.088-0.954c0.287-0.111 0.488 0 0.977-0.667s1.043-0.444 1.688-0.333c0.644 0.111 0.467-0.955 0.422-1.155s-0.822-0.644-0.889-0.489c-0.065 0.155 0.111 0.866-0.266 1.045-0.379 0.179-0.756-0.424-1.067-0.778-0.312-0.354 0.289-0.687 0.356-0.866 0.178-0.644 0.912-1.177 1.6-0.82s0.82 0.089 0.777-0.024c-0.358-0.422-0.346-1.183 0-1.554 0.215-0.231 0.418-0.379 0.607-0.469-2.053-1.399-4.531-2.221-7.197-2.221-2.697 0-5.197 0.842-7.264 2.271 0.664-0.297 2.156-0.422 2.195-0.115 0.043 0.356 0.043 1.288 0.353 1.11 0.266-0.134 0.578-0.889 1.289-0.355 0.709 0.532-0.135 1.198-0.355 1.554-0.223 0.357-0.312 0.933-1.066 0.666-0.756-0.267-0.889 0.089-0.934 0.355s-0.531 0.488-1.154 0.312c-0.623-0.178-1.641 0.797-2.131 1.287-0.268 0.267-2.371 0.923-2.064-0.467 0.018-0.080 0.037-0.141 0.055-0.215-0.811 1.397-1.361 2.959-1.596 4.625 0.594 0.18 1.832 0.518 2.051 1.475 0.266 0.399 0.797 1.644 1.332 2.31 0.857 1.073 0.27 1.593 0.355 2.443 0.443 0.222 1.109 0.71 1.775 1.067 0.666 0.354 1.156 1.287 0.135 1.643-0.223 0.178 0.043 1.022-0.4 1.199-0.367 0.146-0.869 0.754-1.334 0.968 2.293 2.155 5.369 3.487 8.758 3.487zM28.857 16.047c0-0.194-0.021-0.383-0.029-0.575-0.311-0.009-0.715-0.084-0.975-0.151-0.42-0.112-0.733 0.332-0.533 0.488 0.199 0.154 0.668 0.331 0.711 0.621 0.045 0.289-0.443 1.599-0.711 2.086-0.266 0.49-0.576 0.533-0.733 0.313-0.154-0.223-0.443-1.31-0.777-1.933-0.334-0.621-0.377-0.134-0.266 0.267 0.111 0.399 0.621 1.932 0.777 2.376 0.645 0.134 0.732 0.2 0.934 0.4 0.197 0.199-0.045 0.467-0.4 0.976-0.355 0.512-1.621 2.844-1.687 3.265-0.031 0.203 0.006 0.516-0.014 0.863 2.287-2.315 3.703-5.492 3.703-8.996z"></path>
</svg>
