<?xml version="1.0" encoding="utf-8"?>
<!-- Generated by IcoMoon.io -->
<!DOCTYPE svg PUBLIC "-//W3C//DTD SVG 1.1//EN" "http://www.w3.org/Graphics/SVG/1.1/DTD/svg11.dtd">
<svg version="1.1" xmlns="http://www.w3.org/2000/svg" xmlns:xlink="http://www.w3.org/1999/xlink" width="32" height="32" viewBox="0 0 32 32">
<path fill="rgb(0, 0, 0)" d="M16 4c0 2.209-1.791 4-4 4s-4-1.791-4-4c0-2.209 1.791-4 4-4s4 1.791 4 4zM14 12c0-1.543 0.601-2.936 1.561-4h-7.561c-2.209 0-4 1.793-4 4v8c0 1.105 0.895 2 2 2h2c0 1.105 0.895 2 2 2v-4c0-2.766 1.891-5.076 4.44-5.77-0.278-0.689-0.44-1.441-0.44-2.23zM24 12c0 2.209-1.791 4-4 4s-4-1.791-4-4c0-2.209 1.791-4 4-4s4 1.791 4 4zM24 16h-8c-2.209 0-4 1.793-4 4v8c0 1.105 0.895 2 2 2h2c0 1.105 0.895 2 2 2h4c1.105 0 2-0.895 2-2h2c1.105 0 2-0.895 2-2v-8c0-2.207-1.791-4-4-4z"></path>
</svg>
