<?xml version="1.0" encoding="utf-8"?>
<!-- Generated by IcoMoon.io -->
<!DOCTYPE svg PUBLIC "-//W3C//DTD SVG 1.1//EN" "http://www.w3.org/Graphics/SVG/1.1/DTD/svg11.dtd">
<svg version="1.1" xmlns="http://www.w3.org/2000/svg" xmlns:xlink="http://www.w3.org/1999/xlink" width="32" height="32" viewBox="0 0 32 32">
<path fill="rgb(0, 0, 0)" d="M31.635 16c0 2.007-1.627 3.635-3.635 3.635s-3.635-1.627-3.635-3.635c0-2.007 1.627-3.635 3.635-3.635s3.635 1.627 3.635 3.635zM7.634 16c0 2.007-1.627 3.634-3.634 3.634s-3.634-1.627-3.634-3.634c0-2.007 1.627-3.634 3.634-3.634s3.634 1.627 3.634 3.634zM19.634 16c0 2.007-1.627 3.634-3.634 3.634s-3.634-1.627-3.634-3.634c0-2.007 1.627-3.634 3.634-3.634s3.634 1.627 3.634 3.634z"></path>
</svg>
