<?xml version="1.0" encoding="utf-8"?>
<!-- Generated by IcoMoon.io -->
<!DOCTYPE svg PUBLIC "-//W3C//DTD SVG 1.1//EN" "http://www.w3.org/Graphics/SVG/1.1/DTD/svg11.dtd">
<svg version="1.1" xmlns="http://www.w3.org/2000/svg" xmlns:xlink="http://www.w3.org/1999/xlink" width="32" height="32" viewBox="0 0 32 32">
<path fill="rgb(0, 0, 0)" d="M30.095 13.311l-11.406-11.406c-0.203-0.203-0.468-0.305-0.734-0.305-0.264 0-0.529 0.102-0.732 0.305l-16.918 16.92c-0.195 0.195-0.305 0.457-0.305 0.73v6.862c0 0.273 0.109 0.539 0.305 0.734l4.547 4.545c0.195 0.195 0.459 0.305 0.734 0.305h6.86c0.275 0 0.537-0.109 0.732-0.305l16.918-16.916c0.406-0.406 0.406-1.062 0-1.469zM12.045 30h-6.461l-3.584-3.582v-6.461l16.157-16.558 10.445 10.446-16.557 16.155zM12 23c0 1.657-1.343 3-3 3s-3-1.343-3-3c0-1.657 1.343-3 3-3s3 1.343 3 3z"></path>
</svg>
