<?xml version="1.0" encoding="utf-8"?>
<!-- Generated by IcoMoon.io -->
<!DOCTYPE svg PUBLIC "-//W3C//DTD SVG 1.1//EN" "http://www.w3.org/Graphics/SVG/1.1/DTD/svg11.dtd">
<svg version="1.1" xmlns="http://www.w3.org/2000/svg" xmlns:xlink="http://www.w3.org/1999/xlink" width="32" height="32" viewBox="0 0 32 32">
<path fill="rgb(0, 0, 0)" d="M4 26v-22h-2v24h28v-2zM10 17.8c1.019 0 1.94-0.407 2.623-1.060l3.733 2.24c-0.091 0.327-0.156 0.664-0.156 1.020 0 2.099 1.701 3.8 3.8 3.8s3.8-1.701 3.8-3.8c0-1.203-0.571-2.263-1.444-2.96l3.125-7.292c0.171 0.024 0.341 0.052 0.518 0.052 2.099 0 3.8-1.701 3.8-3.8s-1.701-3.8-3.8-3.8-3.8 1.701-3.8 3.8c0 1.204 0.571 2.263 1.444 2.96l-3.125 7.292c-0.171-0.024-0.341-0.052-0.518-0.052-1.019 0-1.94 0.407-2.623 1.060l-3.733-2.24c0.091-0.327 0.156-0.664 0.156-1.020 0-2.099-1.701-3.8-3.8-3.8s-3.8 1.701-3.8 3.8 1.701 3.8 3.8 3.8z"></path>
</svg>
