<?xml version="1.0" encoding="utf-8"?>
<!-- Generated by IcoMoon.io -->
<!DOCTYPE svg PUBLIC "-//W3C//DTD SVG 1.1//EN" "http://www.w3.org/Graphics/SVG/1.1/DTD/svg11.dtd">
<svg version="1.1" xmlns="http://www.w3.org/2000/svg" xmlns:xlink="http://www.w3.org/1999/xlink" width="32" height="32" viewBox="0 0 32 32">
<path fill="rgb(0, 0, 0)" d="M28.633 17.945l-4.118-4.426c0.076 1.131-0.034 2.262-0.355 3.241l2.83 2.827c2.056 2.056 2.056 5.403 0 7.459-0.991 0.994-2.316 1.54-3.723 1.54-1.41 0-2.735-0.546-3.728-1.542l-5.459-5.459c-2.054-2.056-2.054-5.398 0-7.452 0.607-0.609 1.361-1.048 2.1-1.229-0.083-0.152-0.164-0.296-0.279-0.414l-1.344-1.461c-0.845 0.404-1.54 0.881-2.12 1.461-1.432 1.434-2.223 3.342-2.223 5.371 0 2.027 0.791 3.934 2.223 5.366l5.459 5.459c1.434 1.435 3.342 2.225 5.371 2.225 2.025 0 3.932-0.791 5.366-2.223 2.962-2.962 2.962-7.782 0-10.745zM8.711 3.497c1.41 0 2.732 0.546 3.726 1.54l5.459 5.457c2.054 2.054 2.054 5.398 0 7.454-0.605 0.605-1.356 1.043-2.105 1.222 0.086 0.154 0.166 0.301 0.287 0.421l1.422 1.422c0.808-0.394 1.476-0.862 2.039-1.422 2.96-2.962 2.96-7.777 0-10.74l-5.459-5.457c-1.434-1.435-3.342-2.225-5.369-2.225s-3.934 0.791-5.369 2.225c-1.434 1.434-2.225 3.342-2.225 5.369s0.791 3.934 2.225 5.369l4.118 4.428c-0.076-1.131 0.034-2.262 0.355-3.239l-2.83-2.833c-0.994-0.991-1.542-2.316-1.542-3.726s0.548-2.732 1.542-3.726c0.994-0.994 2.316-1.54 3.726-1.54z"></path>
</svg>
