<?xml version="1.0" encoding="utf-8"?>
<!-- Generated by IcoMoon.io -->
<!DOCTYPE svg PUBLIC "-//W3C//DTD SVG 1.1//EN" "http://www.w3.org/Graphics/SVG/1.1/DTD/svg11.dtd">
<svg version="1.1" xmlns="http://www.w3.org/2000/svg" xmlns:xlink="http://www.w3.org/1999/xlink" width="32" height="32" viewBox="0 0 32 32">
<path fill="rgb(0, 0, 0)" d="M27.518 8.338c0.324 0.37 0.772 0.94 1.261 1.727 0.954 1.557 2.076 4.122 1.986 7.41-0.019 3.243-1.41 7.185-4.559 10.081-3.085 2.902-7.94 4.492-12.611 3.566-4.697-0.832-8.864-4.161-10.853-8.38-2.043-4.23-1.863-9.035-0.373-12.647 1.463-3.672 4.051-6.090 6.098-7.421 2.084-1.338 3.625-1.785 3.922-1.872 1.234-0.356 2.457-0.18 3.282 0.309 0.839 0.511 1.281 1.259 1.276 2.105-0.079 1.717-1.406 3.039-2.86 3.478-0.19 0.051-1.158 0.258-2.564 0.99-1.375 0.735-3.223 2.144-4.43 4.522-1.216 2.318-1.698 5.672-0.504 8.872 1.158 3.185 4.042 6.059 7.693 7.058 3.629 1.078 7.773 0.199 10.671-2.060 2.944-2.244 4.563-5.648 4.855-8.66 0.369-3.046-0.465-5.615-1.261-7.222-0.407-0.812-0.797-1.416-1.084-1.812-0.294-0.392-0.45-0.601-0.45-0.601s0.175 0.194 0.504 0.559z"></path>
</svg>
