<?xml version="1.0" encoding="utf-8"?>
<!-- Generated by IcoMoon.io -->
<!DOCTYPE svg PUBLIC "-//W3C//DTD SVG 1.1//EN" "http://www.w3.org/Graphics/SVG/1.1/DTD/svg11.dtd">
<svg version="1.1" xmlns="http://www.w3.org/2000/svg" xmlns:xlink="http://www.w3.org/1999/xlink" width="32" height="32" viewBox="0 0 32 32">
<path fill="rgb(0, 0, 0)" d="M26 14h-20c-1.1 0-2 0.9-2 2v14c0 1.1 0.9 2 2 2h20c1.1 0 2-0.9 2-2v-14c0-1.1-0.9-2-2-2zM26 30h-20v-14h20v14zM12 10c0-2.205 1.794-4 4-4s4 1.795 4 4v4h2v-4c0-3.309-2.691-6-6-6s-6 2.691-6 6v4h2v-4zM8 10c0-4.4 3.6-8 8-8s8 3.6 8 8v4h2v-4c0-5.514-4.486-10-10-10s-10 4.486-10 10v4h2v-4zM18 22v-2h-2v-2h-2v10h2v-2h2v-2h-2v-2z"></path>
</svg>
