<?xml version="1.0" encoding="utf-8"?>
<!-- Generated by IcoMoon.io -->
<!DOCTYPE svg PUBLIC "-//W3C//DTD SVG 1.1//EN" "http://www.w3.org/Graphics/SVG/1.1/DTD/svg11.dtd">
<svg version="1.1" xmlns="http://www.w3.org/2000/svg" xmlns:xlink="http://www.w3.org/1999/xlink" width="32" height="32" viewBox="0 0 32 32">
<path fill="rgb(0, 0, 0)" d="M0 0v32h32v-32h-32zM17.028 11.947l0.022 0.106c0.175 0.863 0.272 1.669-0.461 2.066-0.52 0.281-0.792 0.766-1.013 1.156-0.28 0.497-0.414 0.684-0.715 0.684-0.159 0-0.284-0.084-0.487-0.241-0.249-0.191-0.559-0.425-1.030-0.425-0.692 0-1.255 0.606-1.255 1.35 0 0.475-0.421 1.353-1.021 1.353-0.491 0-0.652-0.172-0.763-0.369-0.297-0.531-0.666-1.194-1.512-1.194-0.849 0-1.541 0.734-1.541 1.634 0 0.288 0.059 0.509 0.11 0.703 0.044 0.166 0.083 0.309 0.083 0.478 0 0.244-0.102 0.428-0.23 0.666-0.152 0.278-0.339 0.622-0.339 1.091 0 0.612 0.562 1.112 1.255 1.112 0.392 0 0.653-0.103 0.863-0.184 0.195-0.078 0.332-0.125 0.559-0.103 0.104 0.009 0.212 0.3 0.212 0.5 0 0.322-0.275 0.597-0.591 0.912-0.514 0.513-1.219 1.213-0.638 2.369 0.22 0.444 0.758 0.569 1.277 0.691 0.24 0.056 0.416 0.094 0.559 0.131 0 0 0.256 0.339 0.32 0.536-0.017 0.127 0.013 0.23 0.013 0.23-0.005 0.15-0.041 0.314-0.17 0.506-0.253 0.381-0.548 0.597-0.862 0.825-0.623 0.456-1.141 0.534-1.156 1.469h-6.517v-28h21.479c0.030 0.578-0.902 1.219-0.902 1.219l-0.98 0.581c-1.054 0.672-2.254 1.703-2.254 2.559 0 0.378 0.15 0.647 0.269 0.859 0.1 0.178 0.157 0.284 0.157 0.419 0 0.191-0.126 0.316-0.411 0.559-0.248 0.216-0.533 0.453-0.662 0.841-0.043 0.131-0.064 0.263-0.064 0.4s0.029 0.306 0.063 0.488c0.028 0.153 0.089 0.472 0.042 0.547 0 0-0.055 0.041-0.259 0.041l-0.173-0.006c-0.371 0-0.75 0.303-0.981 0.581-0.171 0.206-0.362 0.528-0.297 0.859zM30 30h-9.231c-0.206-1.22-1.348-1.258-2.167-1.556-0.288-0.106-0.584-0.212-0.858-0.353-0.354-0.184-0.35-0.586-0.295-0.891 0 0 0.102-0.303 0.091-0.369l0.002-0.003-0.002-0.002c-0.005-0.034-0.012-0.066-0.012-0.109 0-0.23 0.212-0.339 0.698-0.573 0.508-0.248 1.201-0.576 1.201-1.391 0-0.292-0.129-0.488-0.216-0.619-0.054-0.081-0.070-0.109-0.070-0.133 0-0.172 0.067-0.286 0.331-0.524 0.283-0.253 0.628-0.6 0.628-1.191v-0.928c0-0.094 0.269-0.197 0.605-0.031 0.166 0.078 0.411 0.188 0.715 0.188 0.673 0 1.039-0.494 1.299-0.853 0.241-0.331 0.332-0.516 0.566-0.478 0.234 0.041 0.148 0.050 0.324 0.409 0.121 0.25 0.261 0.537 0.52 0.763 0.454 0.397 0.979 0.528 1.506 0.569 0.525 0.084 1.237 0.138 1.996 0.006l0.168-0.028c0.367-0.066 0.687-0.084 0.981-0.067 0 0 0.089 0.022 0.137 0.006 0.39 0.044 0.719 0.176 0.981 0.458l0.1 0.248c0.003 0.005-0.003 0.009 0 0.014v7.437z"></path>
</svg>
