<?xml version="1.0" encoding="utf-8"?>
<!-- Generated by IcoMoon.io -->
<!DOCTYPE svg PUBLIC "-//W3C//DTD SVG 1.1//EN" "http://www.w3.org/Graphics/SVG/1.1/DTD/svg11.dtd">
<svg version="1.1" xmlns="http://www.w3.org/2000/svg" xmlns:xlink="http://www.w3.org/1999/xlink" width="32" height="32" viewBox="0 0 32 32">
<path fill="rgb(0, 0, 0)" d="M26 10h-3.994c-0.010-1.931-0.038-3.661-0.107-4-0.463-2.282-2.48-4-4.899-4-2.776 0-5 2.255-5 5v3h-4l-4 22h26l-4-22zM14 9.99c0-0.749 0-1.725 0-2.99 0-1.654 1.346-3 3-3s3 1.346 3 3c0 1.452 0 2.362 0 3h-6c0-0.002 0-0.010 0-0.010z"></path>
</svg>
