<?xml version="1.0" encoding="utf-8"?>
<!-- Generated by IcoMoon.io -->
<!DOCTYPE svg PUBLIC "-//W3C//DTD SVG 1.1//EN" "http://www.w3.org/Graphics/SVG/1.1/DTD/svg11.dtd">
<svg version="1.1" xmlns="http://www.w3.org/2000/svg" xmlns:xlink="http://www.w3.org/1999/xlink" width="32" height="32" viewBox="0 0 32 32">
<path fill="rgb(0, 0, 0)" d="M21.5 12c-1.313-0.109-3.406 4.176-4.5 3.848-0.535-0.16-0.803-1.262-3-4-1.166-1.453-1.75-2-3.271 0.223-0.998 1.457-5.291 4.398-5.854 4.652-0.21 0.095-0.507-0.003-0.875-0.078v3.356h20v-4.627c-0.948-1.663-1.704-3.306-2.5-3.373zM22 9c0 1.657-1.343 3-3 3s-3-1.343-3-3c0-1.657 1.343-3 3-3s3 1.343 3 3zM28 6v-4h-28v22h4v4h28v-22h-4zM2 22v-18h24v18h-24zM30 26h-24v-2h22v-16h2v18z"></path>
</svg>
