<?xml version="1.0" encoding="utf-8"?>
<!-- Generated by IcoMoon.io -->
<!DOCTYPE svg PUBLIC "-//W3C//DTD SVG 1.1//EN" "http://www.w3.org/Graphics/SVG/1.1/DTD/svg11.dtd">
<svg version="1.1" xmlns="http://www.w3.org/2000/svg" xmlns:xlink="http://www.w3.org/1999/xlink" width="32" height="32" viewBox="0 0 32 32">
<path fill="rgb(0, 0, 0)" d="M28 3.5c0 1.381-1.119 2.5-2.5 2.5h-21c-1.381 0-2.5-1.119-2.5-2.5v-1c0-1.381 1.119-2.5 2.5-2.5h21c1.381 0 2.5 1.119 2.5 2.5v1zM28 14.5c0-1.381-1.119-2.5-2.5-2.5h-21c-1.381 0-2.5 1.119-2.5 2.5v1c0 1.381 1.119 2.5 2.5 2.5h21c1.381 0 2.5-1.119 2.5-2.5v-1zM28 26.5c0-1.381-1.119-2.5-2.5-2.5h-21c-1.381 0-2.5 1.119-2.5 2.5v1c0 1.381 1.119 2.5 2.5 2.5h21c1.381 0 2.5-1.119 2.5-2.5v-1z"></path>
</svg>
