<?xml version="1.0" encoding="utf-8"?>
<!-- Generated by IcoMoon.io -->
<!DOCTYPE svg PUBLIC "-//W3C//DTD SVG 1.1//EN" "http://www.w3.org/Graphics/SVG/1.1/DTD/svg11.dtd">
<svg version="1.1" xmlns="http://www.w3.org/2000/svg" xmlns:xlink="http://www.w3.org/1999/xlink" width="32" height="32" viewBox="0 0 32 32">
<path fill="rgb(0, 0, 0)" d="M14 9.2c0-0.663 0.537-1.2 1.2-1.2h1.6c0.663 0 1.2 0.537 1.2 1.2v7.6c0 0.663-0.537 1.2-1.2 1.2h-1.6c-0.663 0-1.2-0.537-1.2-1.2v-7.6zM18 21.199c0-0.662-0.537-1.199-1.199-1.199h-1.602c-0.662 0-1.199 0.537-1.199 1.199v1.602c0 0.662 0.537 1.199 1.199 1.199h1.602c0.662 0 1.199-0.537 1.199-1.199v-1.602zM31.6 16c0 8.615-6.982 15.6-15.6 15.6-8.615 0-15.6-6.984-15.6-15.6s6.984-15.6 15.6-15.6c8.617 0 15.6 6.984 15.6 15.6zM29.199 16c0-7.279-5.92-13.201-13.199-13.201s-13.199 5.922-13.199 13.201 5.92 13.199 13.199 13.199c7.279 0 13.199-5.92 13.199-13.199z"></path>
</svg>
