<?xml version="1.0" encoding="utf-8"?>
<!-- Generated by IcoMoon.io -->
<!DOCTYPE svg PUBLIC "-//W3C//DTD SVG 1.1//EN" "http://www.w3.org/Graphics/SVG/1.1/DTD/svg11.dtd">
<svg version="1.1" xmlns="http://www.w3.org/2000/svg" xmlns:xlink="http://www.w3.org/1999/xlink" width="32" height="32" viewBox="0 0 32 32">
<path fill="rgb(0, 0, 0)" d="M10.521 0.216c-2.378 1.787-4.183 4.101-5.346 6.686 1.613 4.332 3.585 8.592 5.973 12.729s5.092 7.974 8.037 11.537c2.82 0.286 5.727-0.121 8.463-1.287 0.675-0.288 0.866-1.145 0.375-1.69-1.503-1.666-2.938-3.412-4.307-5.23-0.351-0.466-1.008-0.564-1.474-0.212l-1.596 1.208c-0.481 0.364-1.171 0.224-1.473-0.298l-7.502-12.994c-0.301-0.522-0.077-1.19 0.478-1.425l1.844-0.778c0.538-0.227 0.782-0.845 0.553-1.382-0.89-2.095-1.684-4.211-2.375-6.345-0.226-0.698-1.064-0.961-1.651-0.52z"></path>
</svg>
