<?xml version="1.0" encoding="utf-8"?>
<!-- Generated by IcoMoon.io -->
<!DOCTYPE svg PUBLIC "-//W3C//DTD SVG 1.1//EN" "http://www.w3.org/Graphics/SVG/1.1/DTD/svg11.dtd">
<svg version="1.1" xmlns="http://www.w3.org/2000/svg" xmlns:xlink="http://www.w3.org/1999/xlink" width="32" height="32" viewBox="0 0 32 32">
<path fill="rgb(0, 0, 0)" d="M15.709 30.889c-6.399-0.002-12.073-4.074-14.12-10.133-1.674-4.959-0.606-10.459 2.778-14.438l9.66 10.857 5.733 13.148c-1.323 0.375-2.686 0.564-4.052 0.564v0zM7.405 3.611c1.104-0.742 2.291-1.328 3.531-1.746 1.55-0.525 3.154-0.789 4.77-0.789 3.551 0 6.974 1.264 9.677 3.568l-9.522 8.486-8.455-9.52zM20.065 20.912l7.334 4.295c-1.097 1.393-2.413 2.561-3.922 3.482l-3.412-7.777zM19.135 15.654l8.949-7.971c0.736 1.1 1.322 2.285 1.744 3.527 1.161 3.438 1.027 7.15-0.372 10.494l-10.321-6.051z"></path>
</svg>
