<?xml version="1.0" encoding="utf-8"?>
<!-- Generated by IcoMoon.io -->
<!DOCTYPE svg PUBLIC "-//W3C//DTD SVG 1.1//EN" "http://www.w3.org/Graphics/SVG/1.1/DTD/svg11.dtd">
<svg version="1.1" xmlns="http://www.w3.org/2000/svg" xmlns:xlink="http://www.w3.org/1999/xlink" width="32" height="32" viewBox="0 0 32 32">
<path fill="rgb(0, 0, 0)" d="M16 0c-8.838 0-16 7.162-16 16s7.162 16 16 16c8.838 0 16-7.162 16-16s-7.162-16-16-16zM18 28h-4v-4h4v4zM19.164 15.609c-1.377 1.309-1.164 1.242-1.164 2.941v1.449h-4.211v-1.449c0-1.766 0.99-2.508 2.086-3.477 0.303-0.27 0.625-0.559 0.957-0.887l0.586-0.555c1.148-1.148 2.23-2.227 2.23-3.91 0-1.973-1.238-3.246-3.156-3.246-1.664 0-2.477 0.773-2.898 2.758l-0.156 0.766h-3.438l0.078-1.055c0.426-3.137 2.775-4.945 6.445-4.945 3.625 0 5.969 2.211 5.969 5.633 0 2.66-1.441 4.219-3.328 5.977z"></path>
</svg>
