<?xml version="1.0" encoding="utf-8"?>
<!-- Generated by IcoMoon.io -->
<!DOCTYPE svg PUBLIC "-//W3C//DTD SVG 1.1//EN" "http://www.w3.org/Graphics/SVG/1.1/DTD/svg11.dtd">
<svg version="1.1" xmlns="http://www.w3.org/2000/svg" xmlns:xlink="http://www.w3.org/1999/xlink" width="32" height="32" viewBox="0 0 32 32">
<path fill="rgb(0, 0, 0)" d="M21.6 16c0 3.088-2.512 5.6-5.6 5.6s-5.6-2.512-5.6-5.6 2.512-5.6 5.6-5.6c3.088 0 5.6 2.512 5.6 5.6zM29.2 16c0 7.287-5.91 13.199-13.2 13.199s-13.2-5.912-13.2-13.199c0-7.293 5.91-13.2 13.2-13.2s13.2 5.907 13.2 13.2zM26.477 16c0-5.777-4.7-10.477-10.477-10.477s-10.477 4.699-10.477 10.477c0 5.773 4.7 10.477 10.477 10.477s10.477-4.703 10.477-10.477z"></path>
</svg>
