<?xml version="1.0" encoding="utf-8"?>
<!-- Generated by IcoMoon.io -->
<!DOCTYPE svg PUBLIC "-//W3C//DTD SVG 1.1//EN" "http://www.w3.org/Graphics/SVG/1.1/DTD/svg11.dtd">
<svg version="1.1" xmlns="http://www.w3.org/2000/svg" xmlns:xlink="http://www.w3.org/1999/xlink" width="32" height="32" viewBox="0 0 32 32">
<path fill="rgb(0, 0, 0)" d="M30 0v14h-14v-3h9.080c-1.771-3-5.162-5.4-9.080-5.4-3.535 0-6.633 1.797-8.51 4.502l-3.768-0.801c2.371-4.348 6.975-7.301 12.277-7.301 4.471 0 8.441 2.104 11 5.367v-7.367h3zM16 26.4c-3.918 0-7.309-2.4-9.080-5.4h9.080v-3h-14v14h3v-7.369c2.559 3.266 6.529 5.369 11 5.369 5.303 0 9.906-2.953 12.277-7.301l-3.768-0.801c-1.877 2.705-4.975 4.502-8.51 4.502z"></path>
</svg>
