<?xml version="1.0" encoding="utf-8"?>
<!-- Generated by IcoMoon.io -->
<!DOCTYPE svg PUBLIC "-//W3C//DTD SVG 1.1//EN" "http://www.w3.org/Graphics/SVG/1.1/DTD/svg11.dtd">
<svg version="1.1" xmlns="http://www.w3.org/2000/svg" xmlns:xlink="http://www.w3.org/1999/xlink" width="32" height="32" viewBox="0 0 32 32">
<path fill="rgb(0, 0, 0)" d="M16 0.4c-8.615 0-15.6 6.982-15.6 15.6 0 8.615 6.984 15.6 15.6 15.6 8.617 0 15.6-6.984 15.6-15.6 0-8.617-6.982-15.6-15.6-15.6zM16 29.199c-7.279 0-13.199-5.92-13.199-13.199s5.92-13.2 13.199-13.2c7.279 0 13.199 5.921 13.199 13.2s-5.92 13.199-13.199 13.199zM26 16.002c0 0-5.109 4.998-8.021 7.998h-5.055l6.238-6h-13.162v-4h13.162l-6.25-6h5.105c2.92 2.916 7.982 8.002 7.982 8.002z"></path>
</svg>
