<?xml version="1.0" encoding="utf-8"?>
<!-- Generated by IcoMoon.io -->
<!DOCTYPE svg PUBLIC "-//W3C//DTD SVG 1.1//EN" "http://www.w3.org/Graphics/SVG/1.1/DTD/svg11.dtd">
<svg version="1.1" xmlns="http://www.w3.org/2000/svg" xmlns:xlink="http://www.w3.org/1999/xlink" width="32" height="32" viewBox="0 0 32 32">
<path fill="rgb(0, 0, 0)" d="M14 14h4v4h-4v-4zM26.514 28h-0.56c3.447-2.861 5.646-7.17 5.646-12 0-8.615-6.984-15.6-15.6-15.6s-15.6 6.984-15.6 15.6c0 4.309 1.746 8.207 4.568 11.031l2.748-2.748c-2.123-2.123-3.438-5.053-3.438-8.283 0-6.463 5.258-11.721 11.721-11.721s11.721 5.258 11.721 11.721c0 3.363-1.443 6.377-3.721 8.514v-4.514h-4c0 13.025 0 4.576 0 12 8.168 0-0.059 0 12 0v-4h-5.486z"></path>
</svg>
