<?xml version="1.0" encoding="utf-8"?>
<!-- Generated by IcoMoon.io -->
<!DOCTYPE svg PUBLIC "-//W3C//DTD SVG 1.1//EN" "http://www.w3.org/Graphics/SVG/1.1/DTD/svg11.dtd">
<svg version="1.1" xmlns="http://www.w3.org/2000/svg" xmlns:xlink="http://www.w3.org/1999/xlink" width="32" height="32" viewBox="0 0 32 32">
<path fill="rgb(0, 0, 0)" d="M27.672 2h-23.332c-1.291 0-2.334 1.041-2.334 2.33v18.67c0 0.615 0.242 1.213 0.684 1.65l4.666 4.666c0.434 0.438 1.035 0.684 1.65 0.684h18.666c1.291 0 2.334-1.043 2.334-2.334v-23.336c0-1.289-1.043-2.33-2.334-2.33zM16.006 28h-6v-6h6v6zM26.006 28h-2v-8h-16v7.111l-2-1.775v-5.002c0-1.291 1.043-2.334 2.334-2.334h15.332c1.291 0 2.334 1.043 2.334 2.334v7.666zM26.006 14h-20v-10h20v10z"></path>
</svg>
