<?xml version="1.0" encoding="utf-8"?>
<!-- Generated by IcoMoon.io -->
<!DOCTYPE svg PUBLIC "-//W3C//DTD SVG 1.1//EN" "http://www.w3.org/Graphics/SVG/1.1/DTD/svg11.dtd">
<svg version="1.1" xmlns="http://www.w3.org/2000/svg" xmlns:xlink="http://www.w3.org/1999/xlink" width="32" height="32" viewBox="0 0 32 32">
<path fill="rgb(0, 0, 0)" d="M31.607 27.838l-6.133-6.137c-0.523-0.52-1.367-0.52-1.887 0l-0.035 0.035-2.533-2.533-0.014 0.014c3.652-4.556 3.422-11.195-0.803-15.42-4.529-4.527-11.875-4.531-16.404 0-4.531 4.531-4.529 11.875 0 16.406 4.205 4.204 10.811 4.455 15.365 0.848l0.004 0.003-0.033 0.033 2.541 2.54c-0.486 0.521-0.484 1.336 0.025 1.848l6.135 6.133c0.521 0.523 1.365 0.523 1.887 0l1.885-1.883c0.522-0.523 0.523-1.367 0-1.887zM17.811 17.809c-3.209 3.21-8.412 3.21-11.619 0-3.209-3.209-3.211-8.412 0-11.622 3.207-3.205 8.41-3.205 11.619 0.004 3.207 3.206 3.209 8.409 0 11.618z"></path>
</svg>
