<?xml version="1.0" encoding="utf-8"?>
<!-- Generated by IcoMoon.io -->
<!DOCTYPE svg PUBLIC "-//W3C//DTD SVG 1.1//EN" "http://www.w3.org/Graphics/SVG/1.1/DTD/svg11.dtd">
<svg version="1.1" xmlns="http://www.w3.org/2000/svg" xmlns:xlink="http://www.w3.org/1999/xlink" width="32" height="32" viewBox="0 0 32 32">
<path fill="rgb(0, 0, 0)" d="M19.086 10.254l2.961-2.674-0.771-1.859-3.984 0.203-1.121-1.121 0.203-3.984-1.859-0.772-2.674 2.961h-1.586l-2.674-2.961-1.859 0.772 0.203 3.984-1.121 1.121-3.986-0.203-0.77 1.859 2.961 2.674v1.586l-2.961 2.674 0.77 1.859 3.986-0.203 1.121 1.121-0.203 3.984 1.859 0.771 2.674-2.961h1.586l2.674 2.961 1.859-0.771-0.203-3.984 1.121-1.121 3.984 0.203 0.771-1.859-2.961-2.674v-1.586zM11.047 14.848c-2.098 0-3.801-1.703-3.801-3.801s1.703-3.801 3.801-3.801c2.098 0 3.801 1.703 3.801 3.801s-1.703 3.801-3.801 3.801zM27.348 23.125l-0.484-0.842 0.313-2.883-1.303-0.754-2.34 1.713h-0.973l-2.34-1.713-1.303 0.754 0.312 2.883-0.486 0.842-2.652 1.17v1.504l2.652 1.17 0.486 0.842-0.312 2.883 1.303 0.754 2.34-1.713h0.973l2.34 1.713 1.303-0.754-0.313-2.883 0.484-0.842 2.654-1.17v-1.504l-2.654-1.17zM23.047 28.047c-1.656 0-3-1.344-3-3s1.344-3 3-3c1.656 0 3 1.344 3 3s-1.344 3-3 3z"></path>
</svg>
