<?xml version="1.0" encoding="utf-8"?>
<!-- Generated by IcoMoon.io -->
<!DOCTYPE svg PUBLIC "-//W3C//DTD SVG 1.1//EN" "http://www.w3.org/Graphics/SVG/1.1/DTD/svg11.dtd">
<svg version="1.1" xmlns="http://www.w3.org/2000/svg" xmlns:xlink="http://www.w3.org/1999/xlink" width="32" height="32" viewBox="0 0 32 32">
<path fill="rgb(0, 0, 0)" d="M22.791 10l-1.984 2.121 1.416 1.414 1.414-1.535h1.275l0.707 0.967-7.865 7.865c-0.524-0.348-1.115-0.602-1.754-0.73v-14.906h1l1 0.805v2h2v-2.805l-5-5.195-5 5.195v2.805h2v-2l1-0.805h1v14.906c-0.639 0.129-1.23 0.383-1.754 0.73l-7.865-7.865 0.707-0.967h1.275l1.414 1.535 1.414-1.414-1.982-2.121h-7.209v7.209l2.121 1.984 1.414-1.416-1.535-1.414v-1.275l0.967-0.707 7.865 7.865c-0.523 0.789-0.832 1.734-0.832 2.754 0 2.762 2.238 5 5 5s5-2.238 5-5c0-1.020-0.309-1.965-0.832-2.754l7.865-7.865 0.967 0.707v1.275l-1.535 1.414 1.414 1.416 2.121-1.984v-7.209h-7.209zM15 28c-1.656 0-3-1.344-3-3s1.344-3 3-3c1.656 0 3 1.344 3 3s-1.344 3-3 3z"></path>
</svg>
