<?xml version="1.0" encoding="utf-8"?>
<!-- Generated by IcoMoon.io -->
<!DOCTYPE svg PUBLIC "-//W3C//DTD SVG 1.1//EN" "http://www.w3.org/Graphics/SVG/1.1/DTD/svg11.dtd">
<svg version="1.1" xmlns="http://www.w3.org/2000/svg" xmlns:xlink="http://www.w3.org/1999/xlink" width="32" height="32" viewBox="0 0 32 32">
<path fill="rgb(0, 0, 0)" d="M16.047 31.646c8.615 0 15.6-6.982 15.6-15.6 0-8.615-6.984-15.6-15.6-15.6-8.617 0-15.6 6.984-15.6 15.6 0 8.617 6.982 15.6 15.6 15.6zM16.047 2.848c7.279 0 13.199 5.92 13.199 13.199s-5.92 13.199-13.199 13.199c-7.279 0-13.199-5.92-13.199-13.199s5.92-13.199 13.199-13.199zM14.047 12.885l-6.047 6.238v-5.055c2.895-2.912 8.047-8.022 8.047-8.022s4.953 5.063 7.953 7.982v5.106l-6-6.25v13.115h-3.953v-13.115z"></path>
</svg>
