<?xml version="1.0" encoding="utf-8"?>
<!-- Generated by IcoMoon.io -->
<!DOCTYPE svg PUBLIC "-//W3C//DTD SVG 1.1//EN" "http://www.w3.org/Graphics/SVG/1.1/DTD/svg11.dtd">
<svg version="1.1" xmlns="http://www.w3.org/2000/svg" xmlns:xlink="http://www.w3.org/1999/xlink" width="32" height="32" viewBox="0 0 32 32">
<path fill="rgb(0, 0, 0)" d="M20 20h12v3h-6.915l6.915 6.723v2.109l-0.168 0.168h-2.117l-6.715-6.91v6.91h-3v-12zM0 23h6.915l-6.915 6.723v2.109l0.168 0.168h2.117l6.715-6.91v6.91h3v-12h-12v3zM9 6.91l-6.715-6.91h-2.117l-0.168 0.168v2.109l6.915 6.723h-6.915v3h12v-12h-3v6.91zM32 0.168l-0.168-0.168h-2.117l-6.715 6.91v-6.91h-3v12h12v-3h-6.915l6.915-6.723v-2.109z"></path>
</svg>
