<?xml version="1.0" encoding="utf-8"?>
<!-- Generator: Adobe Illustrator 16.0.4, SVG Export Plug-In . SVG Version: 6.00 Build 0)  -->
<!DOCTYPE svg PUBLIC "-//W3C//DTD SVG 1.1//EN" "http://www.w3.org/Graphics/SVG/1.1/DTD/svg11.dtd">
<svg version="1.1" id="Layer_1" xmlns="http://www.w3.org/2000/svg" xmlns:xlink="http://www.w3.org/1999/xlink" x="0px" y="0px"
	 width="32px" height="32px" viewBox="0 0 32 32" enable-background="new 0 0 32 32" xml:space="preserve">
<g>
	<path d="M14.2,9c-0.2-0.3-0.5-0.4-0.8-0.4c-0.3,0-0.6,0.2-0.8,0.4L4.7,20.8l-3.4,2.7c-0.2,0.2-0.3,0.4-0.4,0.7c0,0.3,0,0.5,0.2,0.7
		l2.8,3.6c0.2,0.3,0.5,0.4,0.8,0.4c0.2,0,0.4-0.1,0.6-0.2l1.9-1.5L8.5,29c0.2,0.3,0.5,0.4,0.8,0.4c0.2,0,0.4-0.1,0.6-0.2l0.9-0.7
		c0.2-0.2,0.3-0.4,0.4-0.7c0-0.3,0-0.5-0.2-0.7l-1.2-1.6L22,21.3c0.3-0.1,0.5-0.4,0.6-0.7c0.1-0.3,0-0.6-0.2-0.9L14.2,9z M4.8,26.4
		l-1.5-2l2-1.5l1.5,2L4.8,26.4z"/>
	<path d="M27.2,7.5c-1.9-2.5-4.4-4.4-7.3-5.6c-0.5-0.2-1.1,0-1.3,0.5c-0.2,0.5,0,1.1,0.5,1.3c2.6,1.1,4.8,2.8,6.5,5
		c1.7,2.2,2.8,4.8,3.2,7.6c0.1,0.5,0.5,0.9,1,0.9c0,0,0.1,0,0.1,0c0.5-0.1,0.9-0.6,0.9-1.1C30.3,12.9,29.1,9.9,27.2,7.5z"/>
	<path d="M18.8,7.1c-0.5-0.2-1.1,0-1.3,0.5c-0.2,0.5,0,1.1,0.5,1.3c1.4,0.6,2.7,1.6,3.6,2.8c0.9,1.2,1.5,2.7,1.8,4.2
		c0.1,0.5,0.5,0.9,1,0.9c0,0,0.1,0,0.1,0c0.5-0.1,0.9-0.6,0.9-1.1c-0.3-1.9-1-3.7-2.2-5.2C22.1,9,20.6,7.8,18.8,7.1z"/>
</g>
<g>
</g>
<g>
</g>
<g>
</g>
<g>
</g>
<g>
</g>
<g>
</g>
<g>
</g>
<g>
</g>
<g>
</g>
<g>
</g>
<g>
</g>
<g>
</g>
<g>
</g>
<g>
</g>
<g>
</g>
</svg>
