<svg xmlns="http://www.w3.org/2000/svg" width="1400" height="600" viewBox="0 0 1400 600"><g stroke-miterlimit="10"><path fill="#F8F8F8" stroke="#EFEFEF" d="M201 381.502h181v26.5H201z"/><path fill="#FFF" stroke="#EFEFEF" d="M201 407.502h181v26.5H201z"/><path fill="#FFF" stroke="#EFEFEF" d="M201 433.627h181v26.5H201z"/><path fill="#FFF" stroke="#EFEFEF" d="M201 459.752h181v26.5H201z"/><path fill="#FFF" stroke="#EFEFEF" d="M201 485.877h181v26.5H201z"/><path fill="#FFF" stroke="#EFEFEF" d="M201 512.002h181v26.5H201z"/><path fill="none" stroke="#E8E8E8" stroke-width="6" stroke-linecap="round" d="M212 421.002h100.832M212 526.668h113.499M212 500.252h122M212 473.835h95.499M212 447.418h122"/><path fill="none" stroke="#C6C6C6" stroke-width="6" stroke-linecap="round" d="M212 395.335h76.832"/></g><path fill="#FFF" stroke="#EFEFEF" stroke-miterlimit="10" d="M938 453.388v164H506.482v-164M613.48 453.055v-26.5h109.883v26.5"/><path fill="none" stroke="#E8E8E8" stroke-width="6" stroke-linecap="round" stroke-miterlimit="10" d="M624.48 440.055h77.549"/><path fill="#F8F8F8" stroke="#EFEFEF" stroke-miterlimit="10" d="M506.482 426.555h107.611v26.5H506.482z"/><path fill="none" stroke="#D3D3D3" stroke-width="6" stroke-linecap="round" stroke-miterlimit="10" d="M517.482 440.388h54.547"/><path fill="#F8F8F8" stroke="#EFEFEF" stroke-miterlimit="10" d="M723.15 426.555h107.611v26.5H723.15z"/><path fill="none" stroke="#D3D3D3" stroke-width="6" stroke-linecap="round" stroke-miterlimit="10" d="M734.15 440.388h54.547"/><path fill="#F8F8F8" stroke="#EFEFEF" stroke-miterlimit="10" d="M830.389 426.555H938v26.5H830.389z"/><path fill="none" stroke="#D3D3D3" stroke-width="6" stroke-linecap="round" stroke-miterlimit="10" d="M842.15 440.388h54.547"/><path fill="#FFF" stroke="#EFEFEF" stroke-miterlimit="10" d="M1064.972 48.501h259.609V278.49h-259.609zM99.671 185.202h189.59v97.495H99.671z"/><path fill="#007AC2" stroke="#007AB7" stroke-miterlimit="10" d="M1190.787 234.402h43.916v23.256h-43.916z"/><path fill="none" stroke="#007AB7" stroke-miterlimit="10" d="M1242.782 234.402h62.799v23.256h-62.799z"/><path fill="none" stroke="#E8E8E8" stroke-width="6" stroke-linecap="round" stroke-miterlimit="10" d="M1093.137 103.068h100.831M1095.804 208.734h77.53M1092.47 157.467h113.499M1092.47 143.867h122M1092.47 130.268h95.499M1092.47 171.068h95.499M1092.47 116.668h122M684.957 498.568h170.254M683.832 552.968h191.643M683.832 539.368h205.996M683.832 525.769H845.08M683.832 566.568H845.08M683.832 512.169h205.996"/><path fill="none" stroke="#C6C6C6" stroke-width="6" stroke-linecap="round" stroke-miterlimit="10" d="M1092.47 77h76.832"/><path fill="none" stroke="#E8E8E8" stroke-width="6" stroke-linecap="round" stroke-miterlimit="10" d="M118.686 232.898h100.831M118.019 260.098h95.499M118.019 246.498h122"/><path fill="none" stroke="#C6C6C6" stroke-width="6" stroke-linecap="round" stroke-miterlimit="10" d="M118.019 206.83h76.832"/><path fill="#C6C6C6" d="M670.774 72.187l-4.455-4.456c-.288-.432-.864-.432-1.295 0l-.001.001-1.641-1.642c2.734-3.353 2.542-8.375-.657-11.44-3.306-3.306-8.77-3.306-12.218 0-3.307 3.306-3.307 8.769 0 12.218 3.104 3.103 8.085 3.254 11.541.532l1.655 1.655c-.396.295-.392.845.027 1.263l4.456 4.456c.287.431.861.431 1.294 0l1.293-1.293c.432-.288.432-.863.001-1.294zM652.376 65c-2.3-2.444-2.444-6.181 0-8.625 2.443-2.444 6.325-2.444 8.624 0 2.444 2.444 2.444 6.181 0 8.625-2.443 2.444-6.325 2.444-8.624 0z"/><path fill="#3EA349" d="M401 127l-5.9-5.9-2.572 2.57 8.472 8.473 16.528-16.523-2.573-2.57L401 127z"/><path fill="#C6C6C6" d="M89.621 417.586h-24c-1.1 0-2-.9-2-2s.9-2 2-2h24c1.1 0 2 .9 2 2s-.9 2-2 2zm0 10h-24c-1.1 0-2-.9-2-2s.9-2 2-2h24c1.1 0 2 .9 2 2s-.9 2-2 2zm0 10h-24c-1.1 0-2-.9-2-2s.9-2 2-2h24c1.1 0 2 .9 2 2s-.9 2-2 2z"/><g fill="#007AC2"><path d="M1302.193 84.054c-.368 0-.734-.14-1.014-.42l-15.104-15.104a1.433 1.433 0 1 1 2.026-2.027l15.104 15.104a1.431 1.431 0 0 1-1.012 2.447z"/><path d="M1287.088 84.053a1.433 1.433 0 0 1-1.014-2.447l15.105-15.104a1.43 1.43 0 0 1 2.026 0 1.431 1.431 0 0 1 0 2.027L1288.1 83.633c-.279.28-.645.42-1.012.42z"/></g><path fill="#F8F8F8" stroke="#F8F8F8" stroke-width="3" stroke-linecap="round" stroke-linejoin="round" stroke-miterlimit="10" d="M800.488 67h92v24h-92z"/><g fill="#C84D30"><path d="M886.623 83.811a.779.779 0 0 1-.555-.23l-8.271-8.27a.785.785 0 1 1 1.111-1.11l8.27 8.271a.783.783 0 0 1-.555 1.339z"/><path d="M878.352 83.811a.786.786 0 0 1-.555-1.34l8.271-8.271a.784.784 0 1 1 1.109 1.111l-8.271 8.27a.783.783 0 0 1-.554.23z"/></g><path fill="#B9DDEA" d="M99.971 69.708h188.99v115.494H99.971z"/><path fill="none" stroke="#A3C3CC" stroke-width="2" stroke-miterlimit="10" d="M99.971 69.708l188.99 115.494M99.971 185.202l188.99-115.494"/><circle fill="#B9DDEA" cx="604.861" cy="530" r="53.998"/><path fill="none" stroke="#A3C3CC" stroke-width="2" stroke-miterlimit="10" d="M566.826 491.965l76.07 76.069M566.826 568.034l76.07-76.069"/><g fill="#DDD"><path d="M1056.6 476.799h-11.85l45.899-106.199h10.5l45.601 106.199h-12l-11.701-27.899h-54.899l-11.55 27.899zM1072.199 439H1119l-23.4-56.4-23.401 56.4zM1205.999 431.365c0-6.053-1.601-10.57-4.8-13.549-3.201-2.977-7.852-4.467-13.95-4.467-4.2 0-8.101.75-11.7 2.25s-6.651 3.502-9.15 6l-5.699-6.75c2.898-2.899 6.725-5.299 11.475-7.2 4.748-1.898 10.125-2.851 16.125-2.851 3.799 0 7.35.525 10.65 1.576 3.3 1.049 6.199 2.625 8.699 4.725 2.499 2.1 4.449 4.75 5.851 7.949 1.399 3.202 2.101 6.952 2.101 11.25v30.75c0 2.701.098 5.502.299 8.4.199 2.902.5 5.352.9 7.35h-9.15a74.81 74.81 0 0 1-.75-5.549c-.201-2-.299-3.949-.299-5.851h-.301c-3.201 4.702-6.824 8.077-10.875 10.125-4.05 2.048-8.925 3.075-14.625 3.075-2.699 0-5.475-.377-8.324-1.127a23.226 23.226 0 0 1-7.801-3.688c-2.351-1.706-4.301-3.914-5.85-6.623-1.552-2.709-2.325-6.02-2.325-9.934 0-5.418 1.374-9.707 4.125-12.867 2.749-3.158 6.425-5.517 11.024-7.072 4.6-1.557 9.875-2.561 15.826-3.012a245.104 245.104 0 0 1 18.524-.678v-2.232zm-3 10.334c-4.2 0-8.426.176-12.675.525-4.252.352-8.1 1.05-11.551 2.1-3.449 1.051-6.275 2.576-8.475 4.575-2.201 2.001-3.3 4.649-3.3 7.95 0 2.5.474 4.601 1.425 6.3a11.63 11.63 0 0 0 3.825 4.125c1.599 1.05 3.375 1.8 5.325 2.25 1.949.45 3.924.675 5.925.675 3.601 0 6.8-.623 9.601-1.875 2.798-1.249 5.148-2.948 7.049-5.1 1.898-2.149 3.35-4.625 4.351-7.426.999-2.798 1.5-5.748 1.5-8.85v-5.25h-3z"/></g></svg>