<svg xmlns="http://www.w3.org/2000/svg" width="30" height="30" viewBox="0 0 30 30"><path fill="#FFF" d="M15 7.202a7.8 7.8 0 0 0-2.465 15.2c.39.072.532-.168.532-.375 0-.186-.007-.676-.011-1.327-2.169.472-2.627-1.046-2.627-1.046-.354-.9-.866-1.141-.866-1.141-.708-.484.053-.475.053-.475.783.056 1.195.805 1.195.805.696 1.191 1.826.848 2.27.648.071-.505.272-.849.495-1.043-1.732-.197-3.553-.866-3.553-3.855 0-.852.304-1.548.803-2.093-.08-.197-.348-.99.077-2.064 0 0 .655-.21 2.145.8a7.468 7.468 0 0 1 1.953-.263c.662.003 1.33.089 1.953.263 1.489-1.01 2.143-.8 2.143-.8.426 1.074.158 1.867.078 2.064.5.545.802 1.241.802 2.093 0 2.996-1.823 3.656-3.562 3.85.28.24.529.717.529 1.443 0 1.043-.01 1.885-.01 2.141 0 .208.141.451.537.375A7.802 7.802 0 0 0 15 7.202z"/></svg>