<?xml version="1.0" encoding="utf-8"?>
<!-- Generator: Adobe Illustrator 16.0.4, SVG Export Plug-In . SVG Version: 6.00 Build 0)  -->
<!DOCTYPE svg PUBLIC "-//W3C//DTD SVG 1.1//EN" "http://www.w3.org/Graphics/SVG/1.1/DTD/svg11.dtd">
<svg version="1.1" id="Layer_1" xmlns="http://www.w3.org/2000/svg" xmlns:xlink="http://www.w3.org/1999/xlink" x="0px" y="0px"
	 width="30px" height="30px" viewBox="0 0 30 30" enable-background="new 0 0 30 30" xml:space="preserve">
<g id="Flikr">
</g>
<g id="Minimal_Idle">
</g>
<g id="Minimal_Hover_COlor" display="none">
</g>
<g id="Blue_Gradient" display="none">
	
		<linearGradient id="SVGID_1_" gradientUnits="userSpaceOnUse" x1="-1089" y1="310" x2="871" y2="310" gradientTransform="matrix(1 0 0 -1 244 125)">
		<stop  offset="0" style="stop-color:#00AEEF"/>
		<stop  offset="1" style="stop-color:#2E3092"/>
	</linearGradient>
	<rect x="-845" y="-445" display="inline" fill="url(#SVGID_1_)" width="1960" height="520"/>
</g>
<path fill="#FFFFFF" d="M13.262,16.755l-0.036-0.001c-1.217,0-2.245,0.746-2.245,1.629c0,0.925,0.926,1.649,2.107,1.649
	c1.447,0,2.347-0.611,2.347-1.596C15.435,17.621,14.673,16.755,13.262,16.755z"/>
<path fill="#FFFFFF" d="M22,7H8C7.448,7,7,7.448,7,8v14c0,0.553,0.448,1,1,1h14c0.553,0,1-0.447,1-1V8C23,7.448,22.553,7,22,7z
	 M13.078,21.25c-2.329,0-3.956-1.065-3.956-2.59c0-0.994,0.494-2.646,3.719-2.826c-0.171-0.305-0.211-0.645-0.118-1.006
	c-1.749-0.136-2.823-1.185-2.823-2.784c0-1.375,0.917-2.844,3.49-2.844h4.11l-1.286,1.333l-0.189,0.005
	c0.249,0.386,0.398,0.945,0.398,1.548c0,0.92-0.541,1.467-1.126,1.922c-0.377,0.291-0.566,0.527-0.563,0.704
	c0.003,0.269,0.445,0.627,0.878,0.943c1.15,0.861,1.578,1.583,1.578,2.663C17.189,19.73,15.902,21.25,13.078,21.25z M22,14h-2v2h-1
	v-2h-2v-1h2v-2h1v2h2V14z"/>
<path fill="#FFFFFF" d="M14.203,13.398c0.256-0.291,0.354-0.777,0.276-1.367c-0.148-1.122-0.844-1.985-1.617-2.008H12.83
	c-0.284,0-0.537,0.116-0.729,0.336c-0.298,0.339-0.424,0.877-0.346,1.477c0.136,1.034,0.868,1.833,1.704,1.859
	C13.784,13.695,14.028,13.598,14.203,13.398z"/>
<g id="Square_Hover_Color" display="none">
	<rect display="inline" fill="#DF4B36" width="30" height="30"/>
	<path display="inline" fill="#FFFFFF" d="M23,22c0,0.553-0.447,1-1,1H8c-0.552,0-1-0.447-1-1V8c0-0.552,0.448-1,1-1h14
		c0.553,0,1,0.448,1,1V22z"/>
	<path display="inline" fill="#DF4B36" d="M13.078,21.049c-2.211,0-3.756-0.982-3.756-2.389c0-0.968,0.513-2.578,3.907-2.641
		c-0.373-0.385-0.453-0.855-0.233-1.378c-1.79-0.043-2.896-1.03-2.896-2.598c0-1.278,0.864-2.644,3.29-2.644h3.64l-0.902,0.936
		l-0.537,0.014c0.403,0.305,0.633,1.03,0.633,1.737c0,0.789-0.42,1.275-1.049,1.764c-0.44,0.34-0.644,0.615-0.641,0.865
		c0.005,0.336,0.388,0.683,0.96,1.101c1.105,0.828,1.496,1.482,1.496,2.502C16.989,19.634,15.766,21.049,13.078,21.049z
		 M13.226,16.555c-1.325,0-2.445,0.837-2.445,1.828c0,1.037,1.014,1.85,2.307,1.85c1.571,0,2.547-0.688,2.547-1.797
		c0-0.912-0.832-1.881-2.373-1.881H13.226z M12.83,9.823c-0.344,0-0.647,0.14-0.879,0.405c-0.337,0.383-0.48,0.979-0.393,1.634
		c0.147,1.131,0.963,2.005,1.896,2.033c0.001,0,0.002,0,0.003,0c0.393,0,0.688-0.126,0.898-0.364
		c0.293-0.335,0.409-0.876,0.323-1.525c-0.161-1.218-0.939-2.156-1.809-2.182L12.83,9.743V9.823z"/>
	<path display="inline" fill="#DF4B36" d="M20,13v-2h-1v2h-2v1h2v2h1v-2h2v-1H20z"/>
</g>
<g id="Circle_Idle" display="none">
	<path display="inline" opacity="0.3" enable-background="new    " d="M15,30L15,30C6.716,30,0,23.284,0,15l0,0
		C0,6.716,6.716,0,15,0l0,0c8.284,0,15,6.716,15,15l0,0C30,23.284,23.284,30,15,30z"/>
	<path display="inline" fill="#FFFFFF" d="M13.262,16.755l-0.036-0.001c-1.217,0-2.245,0.746-2.245,1.629
		c0,0.925,0.926,1.649,2.107,1.649c1.447,0,2.347-0.611,2.347-1.596C15.435,17.621,14.673,16.755,13.262,16.755z"/>
	<path display="inline" fill="#FFFFFF" d="M22,7H8C7.448,7,7,7.448,7,8v14c0,0.553,0.448,1,1,1h14c0.553,0,1-0.447,1-1V8
		C23,7.448,22.553,7,22,7z M13.078,21.25c-2.329,0-3.956-1.065-3.956-2.59c0-0.994,0.494-2.646,3.719-2.826
		c-0.171-0.305-0.211-0.645-0.118-1.006c-1.749-0.136-2.823-1.185-2.823-2.784c0-1.375,0.917-2.844,3.49-2.844h4.11l-1.286,1.333
		l-0.189,0.005c0.249,0.386,0.398,0.945,0.398,1.548c0,0.92-0.541,1.467-1.126,1.922c-0.377,0.291-0.566,0.527-0.563,0.704
		c0.003,0.269,0.445,0.627,0.878,0.943c1.15,0.861,1.578,1.583,1.578,2.663C17.189,19.73,15.902,21.25,13.078,21.25z M22,14h-2v2h-1
		v-2h-2v-1h2v-2h1v2h2V14z"/>
	<path display="inline" fill="#FFFFFF" d="M14.203,13.398c0.256-0.291,0.354-0.777,0.276-1.367
		c-0.148-1.122-0.844-1.985-1.617-2.008H12.83c-0.284,0-0.537,0.116-0.729,0.336c-0.298,0.339-0.424,0.877-0.346,1.477
		c0.136,1.034,0.868,1.833,1.704,1.859C13.784,13.695,14.028,13.598,14.203,13.398z"/>
</g>
<g id="Circle_Hover_Color" display="none">
	<path display="inline" fill="#DF4B36" d="M15,30L15,30C6.716,30,0,23.284,0,15l0,0C0,6.716,6.716,0,15,0l0,0
		c8.284,0,15,6.716,15,15l0,0C30,23.284,23.284,30,15,30z"/>
	<path display="inline" fill="#FFFFFF" d="M23,22c0,0.553-0.447,1-1,1H8c-0.552,0-1-0.447-1-1V8c0-0.552,0.448-1,1-1h14
		c0.553,0,1,0.448,1,1V22z"/>
	<path display="inline" fill="#DF4B36" d="M13.078,21.049c-2.211,0-3.756-0.982-3.756-2.389c0-0.968,0.513-2.578,3.907-2.641
		c-0.373-0.385-0.453-0.855-0.233-1.378c-1.79-0.043-2.896-1.03-2.896-2.598c0-1.278,0.864-2.644,3.29-2.644h3.64l-0.902,0.936
		l-0.537,0.014c0.403,0.305,0.633,1.03,0.633,1.737c0,0.789-0.42,1.275-1.049,1.764c-0.44,0.34-0.644,0.615-0.641,0.865
		c0.005,0.336,0.388,0.683,0.96,1.101c1.105,0.828,1.496,1.482,1.496,2.502C16.989,19.634,15.766,21.049,13.078,21.049z
		 M13.226,16.555c-1.325,0-2.445,0.837-2.445,1.828c0,1.037,1.014,1.85,2.307,1.85c1.571,0,2.547-0.688,2.547-1.797
		c0-0.912-0.832-1.881-2.373-1.881H13.226z M12.83,9.823c-0.344,0-0.647,0.14-0.879,0.405c-0.337,0.383-0.48,0.979-0.393,1.634
		c0.147,1.131,0.963,2.005,1.896,2.033c0.001,0,0.002,0,0.003,0c0.393,0,0.688-0.126,0.898-0.364
		c0.293-0.335,0.409-0.876,0.323-1.525c-0.161-1.218-0.939-2.156-1.809-2.182L12.83,9.743V9.823z"/>
	<path display="inline" fill="#DF4B36" d="M20,13v-2h-1v2h-2v1h2v2h1v-2h2v-1H20z"/>
</g>
<g id="Layer_10">
</g>
<g id="Text">
</g>
</svg>
