<svg xmlns="http://www.w3.org/2000/svg" width="30" height="30" viewBox="0 0 30 30"><path fill="#FFF" d="M23.035 11.667c-.04-.86-.176-1.448-.375-1.962a3.977 3.977 0 0 0-.933-1.432c-.45-.45-.9-.726-1.432-.933-.515-.2-1.103-.336-1.963-.376-.861-.039-1.137-.048-3.332-.048-2.196 0-2.471.009-3.333.048-.86.04-1.448.176-1.962.376a3.956 3.956 0 0 0-1.432.933c-.45.449-.726.9-.933 1.432-.2.515-.336 1.102-.376 1.962-.039.862-.048 1.137-.048 3.333 0 2.195.009 2.471.048 3.333.04.86.176 1.448.376 1.963.207.531.483.981.933 1.432.449.449.9.725 1.432.933.515.199 1.102.335 1.962.375.862.039 1.137.049 3.333.049 2.195 0 2.471-.01 3.333-.049.86-.04 1.448-.176 1.963-.375a3.994 3.994 0 0 0 1.432-.933c.449-.45.725-.9.933-1.432.199-.515.335-1.103.375-1.963.039-.862.049-1.138.049-3.333-.001-2.196-.011-2.471-.05-3.333zm-1.615 6.592c-.035.761-.155 1.16-.268 1.45-.138.356-.302.608-.568.875s-.519.431-.875.568c-.29.112-.689.232-1.45.268-.848.039-1.101.047-3.259.047-2.157 0-2.412-.008-3.259-.047-.761-.035-1.161-.155-1.451-.268a2.365 2.365 0 0 1-.875-.568 2.345 2.345 0 0 1-.568-.875c-.113-.29-.233-.689-.268-1.45-.038-.848-.046-1.101-.046-3.259 0-2.157.008-2.412.047-3.259.034-.761.154-1.161.268-1.451.137-.355.302-.608.568-.874.266-.266.519-.431.875-.568.29-.113.689-.233 1.45-.268.847-.039 1.102-.047 3.259-.047 2.158 0 2.411.008 3.259.047.761.034 1.16.154 1.45.268.356.138.608.303.875.568.267.266.431.519.568.875.112.29.232.689.268 1.45.039.848.047 1.102.047 3.259 0 2.158-.008 2.411-.047 3.259z"/><path fill="#FFF" d="M15 10.783a4.216 4.216 0 1 0 0 8.434 4.217 4.217 0 1 0 0-8.434zm0 6.817c-1.434 0-2.601-1.166-2.601-2.6s1.167-2.601 2.601-2.601 2.6 1.167 2.6 2.601-1.166 2.6-2.6 2.6z"/><circle fill="#FFF" cx="19.315" cy="10.685" r="1.078"/></svg>