<svg xmlns="http://www.w3.org/2000/svg" width="30" height="30" viewBox="0 0 30 30"><path fill="#FFF" d="M19.8 7h-9.6A3.21 3.21 0 0 0 7 10.2v9.6c0 1.761 1.44 3.2 3.2 3.2h9.6c1.761 0 3.2-1.439 3.2-3.2v-9.6C23 8.44 21.561 7 19.8 7zm.35 4.593a2.06 2.06 0 0 1-2.058 2.058h-.186c-.357 0-.708-.095-1.021-.276L13.634 15l3.252 1.626a2.037 2.037 0 0 1 1.021-.276h.186a2.06 2.06 0 0 1 2.058 2.058v.186a2.06 2.06 0 0 1-2.058 2.058h-.186a2.06 2.06 0 0 1-2.058-2.058v-.186c0-.118.013-.237.038-.366l-3.234-1.617a2.064 2.064 0 0 1-1.561.727h-.186a2.06 2.06 0 0 1-2.058-2.058v-.186a2.06 2.06 0 0 1 2.058-2.058h.186c.598 0 1.17.269 1.561.727l3.234-1.617a1.915 1.915 0 0 1-.038-.367v-.186a2.06 2.06 0 0 1 2.058-2.058h.186a2.06 2.06 0 0 1 2.058 2.058v.186z"/></svg>