<?xml version="1.0" encoding="utf-8"?>
<!-- Generator: Adobe Illustrator 21.1.0, SVG Export Plug-In . SVG Version: 6.00 Build 0)  -->
<!DOCTYPE svg PUBLIC "-//W3C//DTD SVG 1.1//EN" "http://www.w3.org/Graphics/SVG/1.1/DTD/svg11.dtd">
<svg version="1.1" id="Layer_1" xmlns="http://www.w3.org/2000/svg" xmlns:xlink="http://www.w3.org/1999/xlink" x="0px" y="0px"
	 width="84px" height="30px" viewBox="0 0 84 30" style="enable-background:new 0 0 84 30;" xml:space="preserve">
<g>
	<path d="M77.2770386,0.5c-1.4799271,0-2.5536194,1.1752503-2.5536194,2.4884157
		c0,1.313508,1.0736923,2.4905133,2.5536194,2.4905133c1.479126,0,2.6219635-1.0720325,2.6219635-2.4905133
		C79.8990021,1.5715883,78.7561646,0.5,77.2770386,0.5z M75.3635254,23.9256477h3.8919525V8.3534718h-3.8919525V23.9256477z
		 M40.5149574,7.9647226c-4.7018776,0-8.4645653,3.274909-8.4645653,8.1743994c0,4.8982601,3.7626877,8.1765862,8.4645653,8.1765862
		c2.1457253,0,4.1651573-0.6665916,5.8516922-2.3104725l-2.4564285-2.4563408
		c-0.9166374,0.9644451-2.092762,1.6514854-3.781044,1.6514854c-2.1746521,0-3.9264717-1.3971558-4.1868324-3.6981888h11.8743439
		v-1.0702839C47.8166885,11.0125771,44.866188,7.9647226,40.5149574,7.9647226z M35.9423447,14.5815029
		c0.2927856-2.2395916,1.7211418-3.6990623,4.0229607-3.6990623c2.4333534,0,3.9261246,1.429143,3.9602966,3.6990623H35.9423447z
		 M53.2466736,12.7332754c0-1.1688633,1.2333717-1.654974,2.272892-1.654974c1.3212051,0,2.2925529,0.5466785,3.0376282,1.5764103
		l2.4760056-2.4734774c-1.2819672-1.6002703-3.4071503-2.2165117-5.4180222-2.2165117
		c-3.1468773,0-6.2621155,1.555522-6.2621155,5.0283966c0,5.9378672,8.4026833,3.4059267,8.4026833,6.6172171
		c0,1.2324963-1.4594688,1.7838078-2.5946045,1.7838078c-1.6506996,0-2.6868973-0.8057289-3.6905823-1.9050293l-2.5143738,2.513586
		c1.5789452,1.7112656,3.620491,2.3130074,5.9778938,2.3130074c3.1784286,0,6.7170296-1.2982273,6.7170296-4.9972839
		C61.6511078,13.2508574,53.2466736,15.5225248,53.2466736,12.7332754z M67.3977432,10.8167171h-0.0623016V8.3534718h-3.8928375
		v15.572176h3.8928375v-8.3391476c0-0.8424358,0.5172119-3.9252501,4.1847229-3.9252501
		c0.5641632,0,1.1266556,0.1122198,1.7181854,0.2530193l0.151886-3.725894
		c-0.4498367-0.1271648-0.9013443-0.2236528-1.3826447-0.2236528C69.9616699,7.9647226,68.2419281,9.0345631,67.3977432,10.8167171z
		 M14.6819992,2.7656364c-1.2170267-0.0362706-1.9318609,0.119911-2.6509771,0.2598362
		c-0.2158747-0.0554106-0.6204433,0.003052-0.6430798,0.4729145c0,0.2517083,0.0797949,0.4467821,0.2393856,0.5615366
		c0.1595898,0.114398,1.493206,1.0997376,2.4734697,2.1423168c-0.4694176,0.0516524-0.9807005,0.1378207-1.5038691,0.2461953
		c-0.5846968-1.2640405-2.4653425-0.1147475-3.7135706-0.0648432C8.7369652,6.3896232,8.5965233,6.4087634,8.4518709,6.4186397
		C8.3153543,5.3632131,8.2172136,4.2690687,8.2415018,3.4983871c1.6186237-0.9162879,4.7480221-1.5922295,6.8749647-1.6255285
		L15.4886017,1.86307c0.3123636-0.0026219,0.3370972-0.2513586,0.0435247-0.2914817
		c-2.6416254-0.3605999-4.9290237,0.1732314-7.2786503,1.145797C5.8081479,3.7479978,2.6963172,6.1199107,0.7985419,10.596035
		c-0.4433736,1.2474413-2.2182662,7.1946602,0.9349912,12.2994442c2.5596454,4.1428719,5.8558874,6.1136246,9.8874149,6.6769028
		c4.0238352,0.5607567,6.2070551,0.0742893,8.7521925-1.0557747c5.9510651-2.6415329,10.4955349-12.5584002,5.9498405-19.7470303
		C24.5288601,5.4511361,19.8277721,2.5411091,14.6819992,2.7656364z M12.4232674,7.4133172
		c0.7616882-0.1655264,1.5431118-0.302917,2.3615999-0.3686409c0.638011,0.762991,1.2141428,1.5729947,1.7479734,2.5404181
		c-0.8052912,0.3896236-1.8781099,0.6879082-2.3146658,1.3122911c-0.1814404,0.2593994-0.2257509,0.612752-0.2317734,0.9943352
		c-1.427928,0.3357859-2.6846342,0.7796841-3.8774519,1.2861595c-0.4528122-1.3318691-0.8500395-2.6590185-1.1235971-3.8420467
		C10.2813873,8.0991421,11.7984543,7.8976879,12.4232674,7.4133172z M19.0335808,23.2932301
		c-0.3545761,0.0374947-0.707056,0.0827656-1.0168839,0.1305733c-0.769022,0.120348-1.7612591,0.378088-2.6842766,0.7220879
		c-0.5305099-0.8433094-1.9498644-2.8908863-2.6676702-4.436533c1.4424276-0.70924,3.4571428-1.3032875,5.775218-1.4441757
		c0.1894798,0.3294945,0.4007225,0.658987,0.6909752,0.9559669C19.8871155,19.9952335,18.68923,21.103981,19.0335808,23.2932301z
		 M10.430315,14.1535044c1.1206264-0.5309401,2.2992926-0.9683771,3.5603609-1.2862396
		c-0.0089149,0.3323774-0.0460596,0.6486731-0.1826639,0.9030037c-0.1962967,0.3656759-0.1062765,1.4279194,0.1336327,1.7748051
		c0.7548628,1.0985136,2.0082474,0.4882097,2.9518032,0.88342c0.4322739,0.1809139,0.7207775,0.4813976,0.9632225,0.8389454
		c-1.9733763,0.1246319-3.9090824,0.5846977-5.7053003,1.4108772C11.2283525,16.7186565,10.430315,14.1535044,10.430315,14.1535044z
		 M11.2624378,19.0905762c-0.0699186,0.0332928-0.1450815,0.0742016-0.217186,0.1101227
		c-1.1018353-0.3072948-1.7851181-0.4779911-3.2561255-0.7801208c-0.9952087-0.2031155-1.0314713-0.150238-2.1512313,0.1758461
		c-0.1595902,0.0460587-0.3127999,0.0878296-0.4617271,0.1322346c-0.1489277-0.3814964-0.2966313-0.7767124-0.4455585-1.2017326
		c1.4364848-1.1061172,2.8839817-2.0338545,4.8218732-2.9851017C10.0513544,16.0332832,10.7665377,18.0253601,11.2624378,19.0905762
		z M12.0297985,23.6192265c0.2935724-0.7647381,0.5214205-1.3314304,0.6047115-1.8896465
		c0.5692282,0.9576283,1.2486649,1.9988956,1.7743683,2.8139763c-0.8189259,0.3977509-1.7713966,1.009716-2.6718655,1.6857452
		C11.7988911,25.1922283,11.8202162,24.1645947,12.0297985,23.6192265z M17.3641777,8.9829168
		c-0.0102253,0.0145082-0.0281429,0.0260448-0.0392418,0.0401163c-0.4088516-0.7177181-0.8573818-1.391562-1.377141-2.1111155
		c1.0070944-0.0610042,2.2464075-0.0081348,3.3742971,0.1083746C18.3081703,7.3830843,17.8608646,8.2736769,17.3641777,8.9829168z
		 M8.3362427,10.0767117c0.0183535-0.0256071,0.0383673-0.0464954,0.0571585-0.0716667
		c0.2334423,1.1820679,0.5129433,2.1605835,0.8855238,3.5177097c-1.4023123,0.6183462-3.881289,2.1478233-4.9759574,2.9723434
		c-0.1983953-0.5019312-0.4041238-1.2141504-0.5888925-1.9464569c0.2488239-0.7365961,0.7574844-1.2533913,1.4761639-1.3250589
		C6.4175787,13.1007071,7.4708285,11.2745914,8.3362427,10.0767117z M2.9267001,8.2933416
		c1.3127284-1.8379946,3.0956616-3.6269655,4.722064-4.5197363c-0.0158191,0.3994119,0.0857382,1.5661848,0.21806,2.6927536
		C7.2970719,6.5231686,6.7333503,6.5939612,6.174706,6.6772523c-1.313086,1.1150327-2.3752425,2.5100904-3.1143732,4.0878053
		C2.9429562,9.7113857,2.8823969,8.8323298,2.9267001,8.2933416z M2.0698433,9.7306128c0,0,0.0618782,1.0600595,0.1130939,1.8329258
		c0,0-0.7814317,0.8867474-1.1791831,1.5913553C1.1616834,11.7111549,1.5014023,10.9669485,2.0698433,9.7306128z
		 M9.7338352,28.0873108c-4.0460353-1.2682419-7.0435486-4.6771412-8.1125221-8.2533207
		c-0.6217543-2.0791283-0.8471555-4.3814716-0.6516446-6.4730101c0.0558477,0.0094328,0.1860718,0.0716667,0.3801844,0.0166931
		c0.1348561-0.092205,0.6158112-0.4301767,0.9576274-0.7276812c0.0047195,0.0393295,0.0124106,0.0892334,0.0179167,0.1314478
		c-0.2299459,0.8693542-0.3716191,1.7748919-0.4006355,2.7098837c0.3703957,0.3904972,0.8039806,1.0374222,1.286159,1.7061977
		c-0.3106148,0.2303829-0.9051008,0.6417675-1.0446765,0.7416649c-0.4105116,0.2919121-0.406229,0.7527657-0.1139679,1.0147858
		c0.1609011,0.1442947,0.4920547,0.0845146,0.6124027-0.0102253c0.3580725-0.2850952,0.6559272-0.512949,1.0660894-0.7690277
		c0.1510248,0.392601,0.2918243,0.7468281,0.4305258,1.0847988c-0.1749721,0.188694-0.3008263,0.4362068-0.3426902,0.798912
		c-0.1344192,1.1718407,0.9790404,2.0911007,1.918751,2.3599396c0.0349593,0.0102253,0.0605674,0.0136337,0.093874,0.0230732
		c0.0498967,0.0750751,0.0951695,0.1467419,0.1476088,0.2235661c-0.4873352,0.3780861-0.8202367,0.7647381-1.0485225,1.0625935
		c-0.1318846,0.1724377-0.2812486,0.4301758-0.1595898,0.4813919c0.1220083,0.0503407,0.5342684,0,0.7182426-0.0340862
		c0.4664464-0.0896702,0.8261795-0.6060219,1.1483312-0.7955017c0.3870888,0.5334816,1.0169711,1.2205219,1.6715875,1.8794212
		c0.0286665,0.1194725,0.0550613,0.2457638,0.087923,0.3516045c0.1250677,0.4029083,0.293231,0.803194,0.4950266,1.1957817
		c0.4716034,0.2193718,0.9623547,0.4020348,1.4641905,0.5607567C10.1341209,27.5956936,9.811532,27.9712391,9.7338352,28.0873108z
		 M10.7230129,28.3996735c0.1549587-0.20224,0.3115768-0.4540367,0.5053396-0.6255989
		c0.4672337,0.3098278,0.9682903,0.6649284,1.3677025,0.8936501C11.9806805,28.5985928,11.2585926,28.58321,10.7230129,28.3996735z
		 M13.8358049,28.7095013c0,0-1.6042032-1.061718-2.0087709-1.4705696c0.803194-0.6673775,2.1022005-1.4585972,3.1280861-1.8887806
		c0.401597,0.630764,1.7266579,2.5067768,2.2575092,3.1118374C16.2499313,28.6301441,14.9022436,28.7556477,13.8358049,28.7095013z
		 M20.5413036,27.201437c-0.2867641,0.1886005-1.664341,0.8133335-2.2045536,0.9874249
		c-0.8274899-0.9071999-1.7624741-2.1098042-2.4401712-3.2014141c0.844533-0.3542213,2.1435404-0.670866,3.3465834-0.821104
		c0.1088123,0.3431263,0.2491741,0.7041702,0.4438114,1.0942307c0.1907902,0.3823624,0.4113846,0.6623077,0.6486721,0.8534412
		c0.0853024-0.0528698,0.1643105-0.1151848,0.2483883-0.1698093C20.5780106,26.3632832,20.5664654,26.7900524,20.5413036,27.201437z
		 M20.2105789,5.7238202c-0.2701492-0.1719136-0.6068096-0.1079378-0.4668846,0.1933255
		c0.0534019,0.1165028,0.2590504,0.3136673,0.427206,0.5121565c-0.986208-0.2726841-3.6077309-0.4788575-4.8559599-0.3644524
		c-0.8147306-0.9162879-1.744216-2.0279121-2.861433-2.7649453c4.9990301-0.3111393,9.4896708,1.7565391,11.4737005,4.1856108
		c-0.66152-0.3440084-2.0876923-0.8330846-2.6676693-0.962791C20.9471741,6.2039886,20.5523949,5.9423165,20.2105789,5.7238202z
		 M21.3052464,26.7891769c0.0229874-0.4071026,0.0401249-0.9226665,0.0528774-1.396368
		c0.4868984-0.3780861,0.9460907-0.7903461,1.3694496-1.237566c0.5475616,0.0631905,1.0945816,0.1553078,1.4274826,0.2389488
		C23.4141769,25.3313675,22.3930111,26.1114883,21.3052464,26.7891769z M25.1297359,23.0645084
		c-0.1199207,0.2534561-0.4275627,0.6887016-0.632864,0.8944378c-0.3119164-0.1262913-0.7813435-0.25774-1.2721748-0.3746777
		c0.0785713-0.0938663,0.1635227-0.1826649,0.2394733-0.2791519c0.268837-1.7956944-0.3376141-2.3709526,0.4211731-4.0139599
		c0.0529633-0.1144047,0.1109962-0.2407036,0.1715641-0.3712692c0.418211,0.1185989,0.812109,0.2475128,1.1526146,0.3857708
		C25.2534828,19.9219131,25.2492886,22.0342445,25.1297359,23.0645084z M24.4218063,18.1483307
		c0.1958523-0.4071903,0.4118137-0.839901,0.6456051-1.2708645c0.0606556,0.5479031,0.1041794,1.081377,0.130661,1.5635624
		C24.9578133,18.3351898,24.693615,18.2395744,24.4218063,18.1483307z M26.6396275,19.2740269l-0.1937637,0.7562599
		c-0.1366043,0.5146046-0.5931759,1.7317181-0.8317738,2.222456c0.0908947-0.6630878,0.1711349-2.3837929,0.1481419-2.7294617
		c0.1595898,0.048687,0.5018425-0.1468296,0.5585651-0.3413734c0.0568085-0.1946373-0.5637226-0.4950333-0.5637226-0.4950333
		c0.0111008-0.7843952-0.0559349-1.7616882-0.1724377-2.7000875c0.1425476-0.2291594,0.2868423-0.4519386,0.4340229-0.6550531
		c-0.0234241-0.5360165-0.0943031-1.0587482-0.1851978-1.5743132c0.1241932,0.0409899,0.2398205,0.0738516,0.3230247,0.0747261
		c0.2825603,0.004282,0.2816868-0.1899242,0.1912289-0.2978554c-0.058033-0.0708799-0.3277454-0.2385979-0.6422939-0.4195137
		c-0.4715157-2.0142775-1.4406796-3.8356657-2.7811127-5.3203077c0.5338306,0.2013664,1.2144909,0.4796438,1.7547894,0.7732162
		c0.4105129,0.5160017,1.5849762,1.6749964,2.2114506,4.9204588C27.455143,16.409708,26.8316422,18.6305103,26.6396275,19.2740269z"
		/>
	<g>
		<path d="M80.8857346,8.5966959V8.3577547h1.2187653v0.2389412h-0.468544V9.788209h-0.283432V8.5966959H80.8857346z
			 M82.7557068,8.3577547l0.3653259,1.0242252l0.3678589-1.0242252h0.4062347V9.788209h-0.2620239V8.6342773L83.2370987,9.788209
			h-0.2287216l-0.399498-1.1539316V9.788209h-0.2620239V8.3577547H82.7557068z"/>
	</g>
</g>
</svg>
