<svg id="Layer_1" data-name="Layer 1" xmlns="http://www.w3.org/2000/svg" viewBox="0 0 14.4 14.4"><defs><style>.cls-1{fill:#010101;}</style></defs><title>placeholder_add</title><path d="M5.95.8A5.28,5.28,0,0,0,.8,6.2c0,3,5.15,9,5.15,9s5.15-6,5.15-9A5.28,5.28,0,0,0,5.95.8Zm0,7.65a2.64,2.64,0,0,1-2.57-2.7A2.64,2.64,0,0,1,5.95,3a2.64,2.64,0,0,1,2.57,2.7A2.64,2.64,0,0,1,5.95,8.45Z" transform="translate(-0.8 -0.8)"/><path class="cls-1" d="M11.69,10.37a.84.84,0,0,1,.8-.8.82.82,0,0,1,.79.52,1.48,1.48,0,0,1,.07.59c0,.28,0,.56,0,.84H14.4a.81.81,0,0,1,.63.33.92.92,0,0,1,.09.93.82.82,0,0,1-.68.47H13.35c0,.29,0,.59,0,.88a1.85,1.85,0,0,1,0,.43.84.84,0,0,1-.55.6A.8.8,0,0,1,12,15a.87.87,0,0,1-.33-.7c0-.36,0-.72,0-1.09h-.84a1.63,1.63,0,0,1-.4,0,.84.84,0,0,1-.58-.6.92.92,0,0,1,0-.6.82.82,0,0,1,.72-.51h1.07C11.7,11.13,11.69,10.75,11.69,10.37Z" transform="translate(-0.8 -0.8)"/></svg>