<?xml version="1.0" encoding="utf-8"?>
<!-- Generator: Adobe Illustrator 16.0.1, SVG Export Plug-In . SVG Version: 6.00 Build 0)  -->
<!DOCTYPE svg PUBLIC "-//W3C//DTD SVG 1.1//EN" "http://www.w3.org/Graphics/SVG/1.1/DTD/svg11.dtd">
<svg version="1.1" id="Layer_1" xmlns="http://www.w3.org/2000/svg" xmlns:xlink="http://www.w3.org/1999/xlink" x="0px" y="0px"
	 width="1186px" height="656px" viewBox="0 0 1186 656" enable-background="new 0 0 1186 656" xml:space="preserve">
<g>
	<g>
		<defs>
			<filter id="Adobe_OpacityMaskFilter" filterUnits="userSpaceOnUse" x="112.216" y="128.273" width="401.771" height="401.773">
				<feColorMatrix  type="matrix" values="1 0 0 0 0  0 1 0 0 0  0 0 1 0 0  0 0 0 1 0"/>
			</filter>
		</defs>
		<mask maskUnits="userSpaceOnUse" x="112.216" y="128.273" width="401.771" height="401.773" id="SVGID_3_">
			<g filter="url(#Adobe_OpacityMaskFilter)">
				<rect x="112.221" y="128.273" fill="#010101" width="401.765" height="401.758"/>
				<g enable-background="new    ">
					<g>
						<g>
							<defs>
								<path id="SVGID_1_" d="M112.221,314.189v33.107c7.606,93.503,79.06,168.979,170.685,182.748h60.387
									c91.684-13.779,163.122-89.289,170.684-182.854v-32.904c-8.36-103.619-95.093-185.098-200.883-185.098
									C207.39,129.189,120.652,210.623,112.221,314.189"/>
							</defs>
							<clipPath id="SVGID_4_">
								<use xlink:href="#SVGID_1_"  overflow="visible"/>
							</clipPath>
							
								<radialGradient id="SVGID_5_" cx="45.0078" cy="185.4609" r="9.3191" gradientTransform="matrix(21.626 0 0 21.626 -660.2429 -3680.0083)" gradientUnits="userSpaceOnUse">
								<stop  offset="0" style="stop-color:#FFFFFF"/>
								<stop  offset="0.6593" style="stop-color:#FFFFFF"/>
								<stop  offset="0.6898" style="stop-color:#D7D6D7"/>
								<stop  offset="0.7321" style="stop-color:#A8A5A5"/>
								<stop  offset="0.7755" style="stop-color:#7E7B7B"/>
								<stop  offset="0.8191" style="stop-color:#5C5859"/>
								<stop  offset="0.863" style="stop-color:#423D3E"/>
								<stop  offset="0.9075" style="stop-color:#2F2829"/>
								<stop  offset="0.9527" style="stop-color:#231D1E"/>
								<stop  offset="1" style="stop-color:#1F191A"/>
							</radialGradient>
							<rect x="112.221" y="129.189" clip-path="url(#SVGID_4_)" fill="url(#SVGID_5_)" width="401.754" height="400.856"/>
						</g>
					</g>
				</g>
			</g>
		</mask>
		<g mask="url(#SVGID_3_)">
			<defs>
				<rect id="SVGID_6_" x="112.217" y="128.273" width="401.764" height="401.772"/>
			</defs>
			<clipPath id="SVGID_7_">
				<use xlink:href="#SVGID_6_"  overflow="visible"/>
			</clipPath>
			<g clip-path="url(#SVGID_7_)">
				<g>
					<defs>
						<rect id="SVGID_8_" x="112.221" y="128.273" width="401.765" height="401.772"/>
					</defs>
					<clipPath id="SVGID_9_">
						<use xlink:href="#SVGID_8_"  overflow="visible"/>
					</clipPath>
					<path clip-path="url(#SVGID_9_)" fill="#FFFFFF" d="M513.979,329.154c0,110.927-89.934,200.892-200.881,200.892
						c-110.946,0-200.881-89.965-200.881-200.892c0-110.941,89.935-200.881,200.881-200.881
						C424.046,128.273,513.979,218.213,513.979,329.154"/>
				</g>
			</g>
		</g>
		<g>
			<g>
				<defs>
					
						<filter id="Adobe_OpacityMaskFilter_1_" filterUnits="userSpaceOnUse" x="161.427" y="180.768" width="298.427" height="298.419">
						<feColorMatrix  type="matrix" values="1 0 0 0 0  0 1 0 0 0  0 0 1 0 0  0 0 0 1 0"/>
					</filter>
				</defs>
				<mask maskUnits="userSpaceOnUse" x="161.427" y="180.768" width="298.427" height="298.419" id="SVGID_2_">
					<g filter="url(#Adobe_OpacityMaskFilter_1_)">
						<rect x="161.438" y="180.769" fill="#010101" width="298.416" height="298.418"/>
						<g enable-background="new    ">
							<g>
								<g>
									<defs>
										<path id="SVGID_10_" d="M165.491,331.149c0,80.177,64.99,145.163,145.138,145.163
											c80.172,0,145.167-64.986,145.167-145.163c0-80.164-64.995-145.147-145.167-145.147
											C230.481,186.002,165.491,250.985,165.491,331.149"/>
									</defs>
									<clipPath id="SVGID_11_">
										<use xlink:href="#SVGID_10_"  overflow="visible"/>
									</clipPath>
									
										<radialGradient id="SVGID_12_" cx="42.1494" cy="187.9907" r="9.3196" gradientTransform="matrix(15.5747 0 0 15.5747 -345.8334 -2596.752)" gradientUnits="userSpaceOnUse">
										<stop  offset="0" style="stop-color:#FFFFFF"/>
										<stop  offset="0.9451" style="stop-color:#FFFFFF"/>
										<stop  offset="0.9481" style="stop-color:#DDDDDC"/>
										<stop  offset="0.9527" style="stop-color:#B2B0B0"/>
										<stop  offset="0.9577" style="stop-color:#898687"/>
										<stop  offset="0.9628" style="stop-color:#696566"/>
										<stop  offset="0.9683" style="stop-color:#4F4A4B"/>
										<stop  offset="0.9742" style="stop-color:#393434"/>
										<stop  offset="0.9807" style="stop-color:#2B2626"/>
										<stop  offset="0.9884" style="stop-color:#231C1D"/>
										<stop  offset="1" style="stop-color:#1F191A"/>
									</radialGradient>
									<rect x="165.491" y="186.002" clip-path="url(#SVGID_11_)" fill="url(#SVGID_12_)" width="290.3" height="290.311"/>
								</g>
							</g>
						</g>
					</g>
				</mask>
				<g mask="url(#SVGID_2_)">
					<defs>
						<rect id="SVGID_13_" x="161.432" y="180.769" width="298.418" height="298.418"/>
					</defs>
					<clipPath id="SVGID_14_">
						<use xlink:href="#SVGID_13_"  overflow="visible"/>
					</clipPath>
					<g clip-path="url(#SVGID_14_)">
						<g>
							<defs>
								<rect id="SVGID_15_" x="161.438" y="180.769" width="298.416" height="298.418"/>
							</defs>
							<clipPath id="SVGID_16_">
								<use xlink:href="#SVGID_15_"  overflow="visible"/>
							</clipPath>
							<path clip-path="url(#SVGID_16_)" fill="#FFFFFF" d="M459.844,329.979c0,82.385-66.796,149.209-149.212,149.209
								c-82.397,0-149.205-66.824-149.205-149.209c0-82.413,66.808-149.21,149.205-149.21
								C393.048,180.769,459.844,247.565,459.844,329.979"/>
						</g>
					</g>
				</g>
				<path fill="#FFFFFF" d="M987.014,167.509c15.775,0,27.962,11.428,27.962,26.534c0,15.126-12.187,26.563-27.962,26.563
					c-15.773,0-27.229-12.557-27.229-26.563C959.783,180.044,971.239,167.509,987.014,167.509"/>
				<rect x="966.63" y="251.26" fill="#FFFFFF" width="41.504" height="166.059"/>
				<path fill="#FFFFFF" d="M631.213,370.645c-9.777,10.288-22.329,17.611-40.321,17.611c-23.195,0-41.87-14.898-44.653-39.436
					h126.631v-11.416c0-57.795-31.475-90.289-77.865-90.289c-50.143,0-90.263,34.923-90.263,87.167
					c0,52.234,40.12,87.185,90.263,87.185c22.875,0,44.417-7.109,62.394-24.628L631.213,370.645z M589.137,278.224
					c25.957,0,41.864,15.238,42.228,39.443h-85.126C549.364,293.79,564.593,278.224,589.137,278.224"/>
				<path fill="#FFFFFF" d="M730.773,297.96c0-12.458,13.141-17.652,24.233-17.652c14.081,0,24.449,5.842,32.396,16.813
					l26.39-26.372c-13.671-17.071-36.32-23.641-57.761-23.641c-33.561,0-66.783,16.596-66.783,53.625
					c0,63.318,89.595,36.316,89.595,70.565c0,13.144-15.562,19.021-27.666,19.021c-17.593,0-28.654-8.592-39.347-20.313
					l-26.812,26.796c16.824,18.257,38.599,24.664,63.744,24.664c33.888,0,71.62-13.834,71.62-53.277
					C820.384,303.482,730.773,327.701,730.773,297.96"/>
				<path fill="#FFFFFF" d="M945.578,249.492c-4.799-1.36-9.612-2.384-14.748-2.384c-21.812,0-40.162,11.406-49.156,30.417h-0.672
					v-26.271h-41.504v166.062h41.504v-88.927c0-8.989,5.516-41.857,44.631-41.857c6.019,0,12.016,1.193,18.313,2.692
					L945.578,249.492z"/>
				<path fill="#FFFFFF" d="M1040.35,250.429c7.398,0,13.451,6.055,13.451,13.457c0,7.404-6.053,13.434-13.451,13.434
					c-7.408,0-13.433-6.028-13.433-13.434C1026.917,256.482,1032.941,250.429,1040.35,250.429 M1040.35,274.944
					c6.118,0,11.067-4.954,11.067-11.06c0-6.113-4.949-11.062-11.067-11.062c-6.107,0-11.049,4.948-11.049,11.062
					C1029.301,269.99,1034.241,274.944,1040.35,274.944 M1035.178,256.118h5.926c3.704,0,5.416,1.653,5.416,4.631
					c0,2.662-1.564,3.957-3.656,4.212l3.984,6.508h-2.955l-3.837-6.296h-2.044v6.296h-2.834V256.118z M1038.012,262.8h2.044
					c1.73,0,3.658-0.104,3.658-2.182c0-2.062-1.928-2.173-3.658-2.127h-2.044V262.8z"/>
				<polyline fill="none" points="1131.864,567.836 1131.864,87.646 57.16,87.646 57.16,567.836 				"/>
				<g>
					<g>
						<defs>
							<path id="SVGID_17_" d="M183.387,331.416c0,71.029,57.59,128.585,128.582,128.585c71.023,0,128.605-57.556,128.605-128.585
								c0-71.006-57.582-128.583-128.605-128.583C240.977,202.833,183.387,260.41,183.387,331.416"/>
						</defs>
						<clipPath id="SVGID_18_">
							<use xlink:href="#SVGID_17_"  overflow="visible"/>
						</clipPath>
						
							<radialGradient id="SVGID_19_" cx="32.6934" cy="191.1606" r="9.3196" gradientTransform="matrix(9.7845 0 0 9.7845 -49.0042 -1562.874)" gradientUnits="userSpaceOnUse">
							<stop  offset="0" style="stop-color:#A9E0F6"/>
							<stop  offset="1" style="stop-color:#147BC1"/>
						</radialGradient>
						<rect x="183.387" y="202.833" clip-path="url(#SVGID_18_)" fill="url(#SVGID_19_)" width="257.182" height="257.168"/>
					</g>
				</g>
				<g>
					<g>
						<defs>
							<path id="SVGID_20_" d="M257.693,230.243c-9.915,0.42-19.413,1.729-28.882,3.143c-26.823,22.777-44.155,56.33-45.33,93.988
								c7.586,7.991,17.592,26.043,29.146,36.488c1.527-0.689,3.184-1.268,4.955-1.81c-5.673-6.583-13.589-15.309-14.784-19.314
								c-5.834-19.683,0.916-38.098,15.521-39.549c13.081-1.318,24.303-20.776,33.533-33.557
								c18.982-26.249,48.138-21.861,46.68-35.008c-1.675-7.684-6.224-10.027-12.014-10.027
								C277.814,224.596,266.331,229.909,257.693,230.243"/>
						</defs>
						<clipPath id="SVGID_21_">
							<use xlink:href="#SVGID_20_"  overflow="visible"/>
						</clipPath>
						
							<radialGradient id="SVGID_22_" cx="35.8804" cy="189.0107" r="9.3247" gradientTransform="matrix(12.0039 0 0 12.0039 -164.9691 -1959.9709)" gradientUnits="userSpaceOnUse">
							<stop  offset="0" style="stop-color:#A4CD39"/>
							<stop  offset="0.9607" style="stop-color:#0F9F49"/>
							<stop  offset="1" style="stop-color:#0F9F49"/>
						</radialGradient>
						<rect x="183.487" y="224.596" clip-path="url(#SVGID_21_)" fill="url(#SVGID_22_)" width="116.503" height="139.262"/>
					</g>
				</g>
				<g>
					<g>
						<defs>
							<path id="SVGID_23_" d="M223.084,360.485c-1.895,0.547-3.742,1.047-5.502,1.567c-1.585,0.426-2.824,1.056-4.955,1.81
								c-4.732,2.095-8.138,5.33-8.938,12.207c-1.441,12.504,10.44,22.298,20.455,25.179c12.688,3.635,13.767-0.625,20.414,8.389
								c4.661,6.289,5.569,17.967,7.941,25.647c1.337,4.297,3.123,8.551,5.284,12.744c9.073,4.219,18.709,7.441,28.785,9.452
								c2.493-14.808,1.372-34.806,4.676-43.442c6.798-17.691,10.623-25.479,1.454-43.737c-20.193-5.715-26.333-7.521-46.672-11.697
								c-4.161-0.847-6.741-1.274-9.068-1.274C233.341,357.328,230.359,358.356,223.084,360.485"/>
						</defs>
						<clipPath id="SVGID_24_">
							<use xlink:href="#SVGID_23_"  overflow="visible"/>
						</clipPath>
						
							<radialGradient id="SVGID_25_" cx="40.9683" cy="186.4468" r="9.334" gradientTransform="matrix(15.2569 0 0 15.2569 -331.0883 -2543.0889)" gradientUnits="userSpaceOnUse">
							<stop  offset="0" style="stop-color:#A4CD39"/>
							<stop  offset="0.9607" style="stop-color:#0F9F49"/>
							<stop  offset="1" style="stop-color:#0F9F49"/>
						</radialGradient>
						<rect x="202.248" y="357.328" clip-path="url(#SVGID_24_)" fill="url(#SVGID_25_)" width="99.62" height="100.152"/>
					</g>
				</g>
				<g>
					<g>
						<defs>
							<path id="SVGID_26_" d="M348.139,257.97c-5.961,8.509-26.857,10.841-33.553,20.416c-5.223,7.47,0.167,22.155-4.378,30.627
								c-2.095,3.907-1.128,15.242,1.433,18.947c8.042,11.702,21.406,5.2,31.463,9.403c12.283,5.122,13.68,19.375,23.866,29.778
								c10.188,10.432-13.004,26.491,5.938,64.406c2.022,4.078,4.383,7.056,6.907,9.105c12.814-7.978,24.094-18.133,33.364-29.967
								c2.871-19.149-3.598-25.271,4.495-42.804c4.979-10.809,13.519-29.525,22.737-42.218
								c-1.553-35.504-17.499-67.272-42.16-89.601c-2.312,0.644-5.259,0.755-9.277,0.03c-3.446-0.637-6.554-0.916-9.372-0.916
								C360.588,235.182,354.92,248.273,348.139,257.97"/>
						</defs>
						<clipPath id="SVGID_27_">
							<use xlink:href="#SVGID_26_"  overflow="visible"/>
						</clipPath>
						
							<radialGradient id="SVGID_28_" cx="44.1201" cy="181.9482" r="9.3206" gradientTransform="matrix(20.1667 0 0 20.1667 -585.2794 -3428.4214)" gradientUnits="userSpaceOnUse">
							<stop  offset="0" style="stop-color:#A4CD39"/>
							<stop  offset="0.9607" style="stop-color:#0F9F49"/>
							<stop  offset="1" style="stop-color:#0F9F49"/>
						</radialGradient>
						<rect x="308.113" y="235.182" clip-path="url(#SVGID_27_)" fill="url(#SVGID_28_)" width="132.298" height="205.474"/>
					</g>
				</g>
				<path fill="#1F191A" d="M270.761,302.708c21.882-9.292,45.603-16.737,77.575-19.414c-8.143-19.544-17.136-33.35-27.712-45.997
					c-23.574,1.894-45.093,8.249-63.695,15.938C259.662,267.717,264.828,285.243,270.761,302.708 M372.773,356.591
					c-30.272-0.359-56.694,6.881-74.756,15.763c7.656,16.482,22.793,38.321,28.445,47.313c9.844-3.669,20.421-6.419,28.624-7.701
					c8.209-1.276,19.146-2.484,26.56-2.35C380.306,390.42,378.063,377.481,372.773,356.591 M292.542,361.362
					c24.194-11.123,50.753-16.128,77.494-15.401c-7.297-25.288-11.482-37.018-17.692-52.408
					c-29.711,1.286-55.056,8.613-78.152,19.556C274.191,313.107,282.699,340.465,292.542,361.362 M385.533,239.312
					c-14.823-2.688-36.458-4.398-52.507-3.433c10.942,15.152,18.963,28.351,26.495,47.156c20.302,0.508,47.888,6.563,59.198,11.013
					C411.976,276.048,399.152,253.197,385.533,239.312 M431.672,358.832c-0.916-16.712-3.472-39.034-9.666-54.571
					c-16.418-6.587-38.837-10.708-58.532-10.896c6.076,14.171,13.142,37.852,16.594,53.088
					C394.289,348.162,416.534,352.185,431.672,358.832 M418.117,242.004c-21.158-25.911-69.042-47.95-122.354-44.633
					c11.913,7.854,21.828,19.715,30.519,29.479c13.304-1.219,41.266,0.979,51.781,3.887c-1.791-2.119-3.993-4.216-4.56-5.461
					c-1.494-3.208,2.094-3.896,4.979-2.063c3.648,2.333,7.854,5.121,11.188,8.521C395.852,233.121,411.061,238.331,418.117,242.004
					 M443.645,366.722c-0.604,2.083-4.261,4.17-5.96,3.647c0.247,3.691-0.613,22.031-1.579,29.108
					c2.545-5.232,7.409-18.224,8.871-23.699l2.062-8.064c2.05-6.862,8.699-30.542,2.676-61.696
					c-6.674-34.621-19.2-46.974-23.582-52.475c-11.125-6.048-27.957-11.539-27.957-11.539c15.259,20.652,20.543,30.369,29.667,54.97
					c5.289,2.748,14.896,8.071,16.084,9.536c0.972,1.143,0.981,3.211-2.036,3.167c-2.505-0.021-7.366-2.415-11.133-3.422
					c4.008,13.401,7.11,38.431,6.878,55.197C437.634,361.452,444.248,364.654,443.645,366.722 M424.192,417.662
					c2.189-2.188,5.471-6.826,6.75-9.53c1.274-10.985,1.315-33.521,0.845-40.091c-13.248-5.37-33.725-9.619-48.688-10.724
					c4.868,17.852,7.302,44.11,7.666,52.661C397.94,410.71,416.05,414.377,424.192,417.662 M390.157,447.85
					c11.596-7.231,22.492-15.539,30.39-25.545c-6.801-1.703-22.002-3.768-29.543-3.285
					C391.004,419.02,390.765,437.085,390.157,447.85 M358.498,462.769c5.766-1.845,20.455-8.515,23.512-10.521
					c0.73-11.846,0.608-25.304,0.122-33.346c-15.441,0-37.197,4.515-49.656,9.736C339.708,440.27,349.677,453.104,358.498,462.769
					 M289.079,452.646c4.317,4.354,21.423,15.683,21.423,15.683c11.377,0.49,25.749-0.844,36.013-2.639
					c-5.657-6.454-19.788-26.458-24.074-33.195C311.498,437.085,297.646,445.532,289.079,452.646 M242.333,405.041
					c10.882,13.952,27.916,31.66,39.767,41.438c11.221-9.015,23.938-17.439,34.516-22.571
					c-9.125-14.154-22.611-34.704-28.259-47.348C268.112,385.536,256.62,393.062,242.333,405.041 M213.406,349.083
					c6.933,19.78,13.634,34.869,22.388,47.318c10.233-8.9,31.222-22.957,47.269-30.653c-5.284-11.36-12.915-32.597-18.234-48.502
					C244.161,327.395,228.725,337.282,213.406,349.083 M196.816,289.707c1.65,11.377,7.111,35.916,12.03,48.371
					c11.681-8.792,38.106-25.104,53.068-31.701c-5.229-19.06-8.751-31.095-11.677-50.33
					C229.09,265.455,206.73,280.064,196.816,289.707 M194.252,249.165c-0.734,5.734,0.03,16.336,1.471,28.993
					c11.67-10.441,34.217-24.061,53.063-32.369c-2.188-14.361-4.505-37.268-4.262-43.365c-17.428,9.56-36.564,28.784-50.583,48.502
					 M250.973,191.152c25.061-10.367,49.453-16.068,77.617-12.216c3.131,0.425,2.874,3.082-0.456,3.112l-3.973,0.107
					c-22.683,0.353-56.049,7.555-73.311,17.331c-0.363,11.509,1.821,29.803,4.136,44.221c15.678-6.598,39.929-13.374,58.345-15.395
					c-10.456-11.112-24.676-21.624-26.376-22.845c-1.7-1.219-2.553-3.3-2.553-5.982c0.244-5.015,4.551-5.639,6.859-5.046
					c7.661-1.497,15.287-3.157,28.271-2.771c54.869-2.4,104.999,28.638,124.129,64.023c48.478,76.654,0.021,182.408-63.446,210.572
					c-27.142,12.05-50.42,17.246-93.331,11.265c-42.99-6.005-78.137-27.019-105.436-71.198
					c-33.624-54.44-14.695-117.861-9.969-131.153C191.721,227.438,224.897,202.146,250.973,191.152 M186.24,285.491
					c-0.542-8.245-1.204-19.546-1.204-19.546c-6.058,13.179-9.682,21.12-11.372,36.503
					C177.905,294.943,186.24,285.491,186.24,285.491 M274.799,452.611c-9.126-6.806-31.702-28.212-41.059-41.118
					c-3.435,2.021-7.267,7.526-12.246,8.471c-1.953,0.365-6.357,0.903-7.657,0.365c-1.297-0.536,0.293-3.283,1.698-5.126
					c2.435-3.172,5.989-7.309,11.186-11.331c-11.122-16.305-16.408-28.225-23.977-47.88c-4.373,2.729-7.547,5.158-11.364,8.188
					c-1.283,1.014-4.815,1.66-6.531,0.124c-3.111-2.794-3.159-7.713,1.215-10.827c1.795-1.278,10.687-7.423,12.762-9.152
					c-5.471-15.774-10.041-36.498-11.26-47.248c-3.64,3.168-8.766,6.776-10.207,7.757c-2.076,0.588-3.461-0.08-4.06-0.177
					c-2.079,22.304,0.319,46.856,6.953,69.03c11.397,38.126,43.366,74.481,86.51,88.01
					C267.765,460.191,272.728,454.45,274.799,452.611 M297.288,467.886c-4.262-2.438-9.604-6.226-14.589-9.528
					c-2.066,1.826-3.736,4.513-5.386,6.671C283.027,466.974,290.725,467.148,297.288,467.886"/>
				<polyline fill="none" points="1131.864,567.836 1131.864,87.646 57.16,87.646 57.16,567.836 				"/>
			</g>
		</g>
	</g>
</g>
</svg>
