<svg xmlns="http://www.w3.org/2000/svg" width="30" height="30" viewBox="0 0 30 30"><path fill="#FFF" d="M21.13 7H8.843A1.843 1.843 0 0 0 7 8.843v12.286C7 22.146 7.825 23 8.843 23H21.13A1.89 1.89 0 0 0 23 21.129V8.843C23 7.825 22.148 7 21.13 7zm-3.071 2.457c0-.339.275-.614.614-.614h1.843c.34 0 .614.275.614.614V11.3a.613.613 0 0 1-.614.614h-1.843a.614.614 0 0 1-.614-.614V9.457zm-3.073 2.458a3.072 3.072 0 1 1 .003 6.143 3.072 3.072 0 0 1-.003-6.143zm6.414 8.601c0 .338-.545.885-.885.885H9.458c-.34 0-.857-.547-.857-.885V13.4h1.633c-.101 0-.162.938-.162 1.363 0 2.715 2.2 5.049 4.915 5.049s4.914-2.289 4.914-5.004c0-.425-.059-1.408-.159-1.408H21.4v7.116z"/></svg>