<svg xmlns="http://www.w3.org/2000/svg" width="30" height="30" viewBox="0 0 30 30"><path fill="#FFF" d="M15 7.146a7.854 7.854 0 0 0-3.071 15.084c-.068-.666-.112-1.554.042-2.215.13-.562.795-3.372.905-3.839a3.136 3.136 0 0 1-.226-1.186c0-1.182.713-2.108 1.622-2.108.714 0 1.193.525 1.193 1.307 0 .46-.179 1.04-.368 1.652-.103.334-.209.676-.288 1.01a.93.93 0 0 0 .163.805c.186.234.479.368.806.368 1.315 0 2.27-1.429 2.27-3.397 0-1.764-1.267-2.996-3.081-2.996-2.174 0-3.347 1.653-3.347 3.208 0 .595.222 1.28.539 1.666.099.119.13.25.095.398l-.219.892c-.062.265-.251.294-.329.294a.51.51 0 0 1-.211-.054c-1.071-.499-1.711-2.032-1.711-3.225 0-2.385 1.687-4.953 5.39-4.953 2.874 0 5.042 2.036 5.042 4.736 0 2.899-1.838 5.085-4.275 5.085-.658 0-1.312-.261-1.711-.655l-.386 1.472c-.184.71-.672 1.574-.967 2.061a7.879 7.879 0 0 0 2.124.298A7.854 7.854 0 1 0 15 7.146z"/><path fill="none" d="M7 7h16v16H7z"/></svg>