<svg xmlns="http://www.w3.org/2000/svg" width="30" height="30" viewBox="0 0 30 30"><path fill="#FFF" d="M23.156 11.495c.007.158.012.319.012.479 0 4.878-3.717 10.505-10.508 10.505-2.085 0-4.027-.61-5.66-1.658a7.41 7.41 0 0 0 5.466-1.529 3.695 3.695 0 0 1-3.449-2.564 3.621 3.621 0 0 0 1.667-.062 3.697 3.697 0 0 1-2.962-3.621v-.048a3.683 3.683 0 0 0 1.672.463 3.693 3.693 0 0 1-1.143-4.93 10.486 10.486 0 0 0 7.611 3.858 3.691 3.691 0 0 1 6.292-3.367 7.458 7.458 0 0 0 2.345-.896 3.699 3.699 0 0 1-1.624 2.043 7.427 7.427 0 0 0 2.123-.582 7.545 7.545 0 0 1-1.842 1.909z"/></svg>