<?xml version="1.0" encoding="utf-8"?>
<!-- Generator: Adobe Illustrator 16.0.4, SVG Export Plug-In . SVG Version: 6.00 Build 0)  -->
<!DOCTYPE svg PUBLIC "-//W3C//DTD SVG 1.1//EN" "http://www.w3.org/Graphics/SVG/1.1/DTD/svg11.dtd">
<svg version="1.1" xmlns="http://www.w3.org/2000/svg" xmlns:xlink="http://www.w3.org/1999/xlink" x="0px" y="0px" width="32px"
	 height="32px" viewBox="0 0 32 32" enable-background="new 0 0 32 32" xml:space="preserve">
<g id="Dark_Theme_1_" display="none">
	<rect x="-96" y="-256" display="inline" fill="#333333" width="544" height="736"/>
	
		<rect x="-128" y="-288" display="inline" fill="none" stroke="#808080" stroke-width="0.25" stroke-miterlimit="10" width="612" height="792"/>
</g>
<g id="LightTheme" display="none">
	<rect x="-96" y="-256" display="inline" fill="#F8F8F8" width="544" height="736"/>
	
		<rect x="-128" y="-288" display="inline" fill="none" stroke="#808080" stroke-width="0.25" stroke-miterlimit="10" width="612" height="792"/>
</g>
<g id="Hover" display="none">
	<rect x="-96" y="-256" display="inline" fill="#C5E5F9" width="544" height="736"/>
</g>
<g id="Selected" display="none">
	<rect x="-96" y="-256" display="inline" fill="#AADBFA" width="544" height="736"/>
</g>
<g id="Icon_Name">
</g>
<g id="Icons">
	<linearGradient id="SVGID_1_" gradientUnits="userSpaceOnUse" x1="30" y1="30" x2="1" y2="1">
		<stop  offset="0" style="stop-color:#333333"/>
		<stop  offset="1" style="stop-color:#A6A6A6"/>
	</linearGradient>
	<path fill="url(#SVGID_1_)" d="M2,31c-1.1,0-2-0.9-2-2V2c0-1.1,0.9-2,2-2h27c1.1,0,2,0.9,2,2v27c0,1.1-0.9,2-2,2H2z"/>
	<path fill="#6D6E71" d="M2,31c-1.1,0-2-0.9-2-2V2c0-1.1,0.9-2,2-2h27c1.1,0,2,0.9,2,2v27c0,1.1-0.9,2-2,2H2z"/>
	<path fill="#F8F8F8" d="M2,30c-0.6,0-1-0.4-1-1V2c0-0.6,0.4-1,1-1h27c0.6,0,1,0.4,1,1v27c0,0.6-0.5,1-1,1H2z"/>
	<rect x="3" y="3" fill="#F8F8F8" width="25" height="25"/>
	<rect fill="none" width="32" height="32"/>
	<path opacity="0.8" fill="#939598" d="M2,2v27h27V2H2z M28,28H3V3h25V28z"/>
	<rect x="9" y="6" fill="#6DB5E3" width="12" height="1"/>
	<rect x="6" y="6" fill="#6DB5E3" width="1" height="1"/>
	<rect x="11" y="9" fill="#6DB5E3" width="7" height="1"/>
	<rect x="8" y="9" fill="#6DB5E3" width="1" height="1"/>
	<rect x="9" y="18" fill="#6DB5E3" width="11" height="1"/>
	<rect x="6" y="18" fill="#6DB5E3" width="1" height="1"/>
	<rect x="11" y="21" fill="#6DB5E3" width="12" height="1"/>
	<rect x="8" y="21" fill="#6DB5E3" width="1" height="1"/>
	<rect x="11" y="24" fill="#6DB5E3" width="9" height="1"/>
	<rect x="8" y="24" fill="#6DB5E3" width="1" height="1"/>
	<rect x="13" y="12" fill="#6DB5E3" width="12" height="1"/>
	<rect x="10" y="12" fill="#6DB5E3" width="1" height="1"/>
	<rect x="13" y="15" fill="#6DB5E3" width="10" height="1"/>
	<rect x="10" y="15" fill="#6DB5E3" width="1" height="1"/>
</g>
</svg>
