<?xml version="1.0" encoding="utf-8"?>
<!-- Generator: Adobe Illustrator 16.0.4, SVG Export Plug-In . SVG Version: 6.00 Build 0)  -->
<!DOCTYPE svg PUBLIC "-//W3C//DTD SVG 1.1//EN" "http://www.w3.org/Graphics/SVG/1.1/DTD/svg11.dtd">
<svg version="1.1" xmlns="http://www.w3.org/2000/svg" xmlns:xlink="http://www.w3.org/1999/xlink" x="0px" y="0px" width="32px"
	 height="32px" viewBox="0 0 32 32" enable-background="new 0 0 32 32" xml:space="preserve">
<g id="Dark_Theme_1_" display="none">
	<rect x="-160" y="-64" display="inline" fill="#333333" width="544" height="736"/>
	
		<rect x="-192" y="-96" display="inline" fill="none" stroke="#808080" stroke-width="0.25" stroke-miterlimit="10" width="612" height="792"/>
</g>
<g id="LightTheme" display="none">
	<rect x="-160" y="-64" display="inline" fill="#F8F8F8" width="544" height="736"/>
	
		<rect x="-192" y="-96" display="inline" fill="none" stroke="#808080" stroke-width="0.25" stroke-miterlimit="10" width="612" height="792"/>
</g>
<g id="Hover" display="none">
	<rect x="-160" y="-64" display="inline" fill="#C5E5F9" width="544" height="736"/>
</g>
<g id="Selected" display="none">
	<rect x="-160" y="-64" display="inline" fill="#AADBFA" width="544" height="736"/>
</g>
<g id="Icon_Name">
</g>
<g id="Icons">
	<rect fill-rule="evenodd" clip-rule="evenodd" fill="none" width="32" height="32"/>
	<path fill="#E5D255" d="M31,28c0,0-6-3-15,0S1,28,1,28L5,4c0,0,6,2,11,0s11,0,11,0L31,28z"/>
	<path fill="#F4EEC8" d="M16,4c-2.4,0.9-4.9,1-7,0.8v11.6c0,0.3,0.1,0.5,0.3,0.7l5.5,5.6c0.2,0.2,0.4,0.3,0.7,0.3s0.5-0.1,0.7-0.3
		l5.5-5.6c0.2-0.2,0.3-0.4,0.3-0.7V4.1c0-0.3-0.1-0.7-0.1-1C20,3.1,17.9,3.2,16,4z"/>
	<path fill="#C7552E" d="M21,4.1C21,1.8,18,0,15.5,0S10,1.8,10,4.1v12.3l5.5,5.6l5.5-5.6C21,16.4,21,4.1,21,4.1z"/>
	<path fill="#E5A894" d="M11,15.8V4.1C11,2.7,13.7,1,15.5,1S20,2.7,20,4.1v11.7L15.5,20L11,15.8z"/>
	<path fill="#C96B4B" d="M16,2.4v15.7l3-2.7V4.1C19,3.6,17.4,2.6,16,2.4z"/>
	<circle fill="#F8F8F8" cx="15.5" cy="6.5" r="2.5"/>
</g>
</svg>
