<?xml version="1.0" encoding="utf-8"?>
<!-- Generator: Adobe Illustrator 16.0.4, SVG Export Plug-In . SVG Version: 6.00 Build 0)  -->
<!DOCTYPE svg PUBLIC "-//W3C//DTD SVG 1.1//EN" "http://www.w3.org/Graphics/SVG/1.1/DTD/svg11.dtd">
<svg version="1.1" xmlns="http://www.w3.org/2000/svg" xmlns:xlink="http://www.w3.org/1999/xlink" x="0px" y="0px" width="32px"
	 height="32px" viewBox="0 0 32 32" enable-background="new 0 0 32 32" xml:space="preserve">
<g id="Dark_Theme_1_" display="none">
	<rect x="-480" y="-352" display="inline" fill="#333333" width="544" height="736"/>
	
		<rect x="-512" y="-384" display="inline" fill="none" stroke="#808080" stroke-width="0.25" stroke-miterlimit="10" width="612" height="792"/>
</g>
<g id="LightTheme" display="none">
	<rect x="-480" y="-352" display="inline" fill="#F8F8F8" width="544" height="736"/>
	
		<rect x="-512" y="-384" display="inline" fill="none" stroke="#808080" stroke-width="0.25" stroke-miterlimit="10" width="612" height="792"/>
</g>
<g id="Hover" display="none">
	<rect x="-480" y="-352" display="inline" fill="#C5E5F9" width="544" height="736"/>
</g>
<g id="Selected" display="none">
	<rect x="-480" y="-352" display="inline" fill="#AADBFA" width="544" height="736"/>
</g>
<g id="Icon_Name">
</g>
<g id="Icons">
	<rect y="-0.1" fill-rule="evenodd" clip-rule="evenodd" fill="none" width="32" height="32"/>
	<path fill="#E5D255" d="M31,27.9c0,0-6-3-15,0s-15,0-15,0l4-24c0,0,6,2,11,0s11,0,11,0L31,27.9z"/>
	<path fill-rule="evenodd" clip-rule="evenodd" fill="#F8F8F8" d="M23.2,26.6l0.5-0.5c0.2-0.2,0.3-0.4,0.3-0.7v-3.5
		c0-0.4-0.2-0.8-0.6-0.9c-0.1-0.1-0.3-0.1-0.4-0.1c-0.3,0-0.5,0.1-0.7,0.3L19,24.4v-8.6c0-0.6-0.4-1-1-1h-3c-0.6,0-1,0.4-1,1v8.6
		l-3.3-3.3c-0.2-0.2-0.4-0.3-0.7-0.3c-0.1,0-0.3,0-0.4,0.1C9.2,21.1,9,21.5,9,21.9v3.5c0,0.3,0.1,0.5,0.3,0.7l2.8,2.8
		c1.2-0.2,2.5-0.5,3.9-1C18.7,27,21.1,26.6,23.2,26.6z"/>
	<polygon fill-rule="evenodd" clip-rule="evenodd" fill="#E67E08" points="18,26.9 23,21.9 23,25.4 16.5,31.9 10,25.4 10,21.9 
		15,26.9 15,15.9 18,15.9 	"/>
</g>
</svg>
