<?xml version="1.0" encoding="utf-8"?>
<!-- Generator: Adobe Illustrator 16.0.4, SVG Export Plug-In . SVG Version: 6.00 Build 0)  -->
<!DOCTYPE svg PUBLIC "-//W3C//DTD SVG 1.1//EN" "http://www.w3.org/Graphics/SVG/1.1/DTD/svg11.dtd">
<svg version="1.1" xmlns="http://www.w3.org/2000/svg" xmlns:xlink="http://www.w3.org/1999/xlink" x="0px" y="0px" width="32px"
	 height="32px" viewBox="0 0 32 32" enable-background="new 0 0 32 32" xml:space="preserve">
<g id="Dark_Theme_1_" display="none">
	<rect x="-288" y="-448" display="inline" fill="#333333" width="544" height="736"/>
	
		<rect x="-320" y="-480" display="inline" fill="none" stroke="#808080" stroke-width="0.25" stroke-miterlimit="10" width="612" height="792"/>
</g>
<g id="LightTheme" display="none">
	<rect x="-288" y="-448" display="inline" fill="#F8F8F8" width="544" height="736"/>
	
		<rect x="-320" y="-480" display="inline" fill="none" stroke="#808080" stroke-width="0.25" stroke-miterlimit="10" width="612" height="792"/>
</g>
<g id="Hover" display="none">
	<rect x="-288" y="-448" display="inline" fill="#C5E5F9" width="544" height="736"/>
</g>
<g id="Selected" display="none">
	<rect x="-288" y="-448" display="inline" fill="#AADBFA" width="544" height="736"/>
</g>
<g id="Icon_Name">
</g>
<g id="Icons">
	<path fill="#A7A9AC" d="M31.9,20c0-0.1,0-0.2,0-0.2C31.8,19,30.5,15.1,30,14c-1-2-1.6-3-3.2-3H5.2C3.6,11,3,12,2,14
		c-0.5,1.1-1.8,5-1.9,5.8c0,0.1,0,0.2,0,0.2H31.9z"/>
	<path fill="#6D6E71" d="M0,26c0,1.7,1.3,3,3,3h26c1.7,0,3-1.3,3-3v-5H0V26z"/>
	<polygon fill="#F8F8F8" points="26,16 6,16 6.5,13 25.5,13 	"/>
	<rect x="6" y="23" fill="#F8F8F8" width="20" height="3"/>
	<rect x="7" y="24" fill="#6D6E71" width="18" height="8"/>
	<rect x="8" y="25" fill="#F8F8F8" width="16" height="6"/>
	<rect x="11" y="28" fill="#6DB5E3" width="10" height="1"/>
	<rect x="11" y="26" fill="#6DB5E3" width="10" height="1"/>
	<rect fill-rule="evenodd" clip-rule="evenodd" fill="none" width="32" height="32"/>
	<g>
		<polygon fill="#6D6E71" points="25,15 7,15 7,0 18.3,0 25,6.7 		"/>
		<polygon fill="#F8F8F8" points="24,7 18,1 8,1 8,14 24,14 		"/>
		<rect x="17" y="1" fill="#6D6E71" width="1" height="7"/>
		<rect x="17" y="7" fill="#6D6E71" width="8" height="1"/>
	</g>
	<rect y="20" fill="#F8F8F8" width="32" height="1"/>
</g>
</svg>
