<?xml version="1.0" encoding="utf-8"?>
<!-- Generator: Adobe Illustrator 16.0.4, SVG Export Plug-In . SVG Version: 6.00 Build 0)  -->
<!DOCTYPE svg PUBLIC "-//W3C//DTD SVG 1.1//EN" "http://www.w3.org/Graphics/SVG/1.1/DTD/svg11.dtd">
<svg version="1.1" xmlns="http://www.w3.org/2000/svg" xmlns:xlink="http://www.w3.org/1999/xlink" x="0px" y="0px" width="32px"
	 height="32px" viewBox="0 0 32 32" enable-background="new 0 0 32 32" xml:space="preserve">
<g id="Dark_Theme_1_" display="none">
	<rect x="-160" y="-352" display="inline" fill="#333333" width="544" height="736"/>
	
		<rect x="-192" y="-384" display="inline" fill="none" stroke="#808080" stroke-width="0.25" stroke-miterlimit="10" width="612" height="792"/>
</g>
<g id="LightTheme" display="none">
	<rect x="-160" y="-352" display="inline" fill="#F8F8F8" width="544" height="736"/>
	
		<rect x="-192" y="-384" display="inline" fill="none" stroke="#808080" stroke-width="0.25" stroke-miterlimit="10" width="612" height="792"/>
</g>
<g id="Hover" display="none">
	<rect x="-160" y="-352" display="inline" fill="#C5E5F9" width="544" height="736"/>
</g>
<g id="Selected" display="none">
	<rect x="-160" y="-352" display="inline" fill="#AADBFA" width="544" height="736"/>
</g>
<g id="Icon_Name">
</g>
<g id="Icons">
	<rect fill-rule="evenodd" clip-rule="evenodd" fill="none" width="32" height="32"/>
	<path fill="#E5D255" d="M31,28c0,0-6-3-15,0S1,28,1,28L5,4c0,0,6,2,11,0s11,0,11,0L31,28z"/>
	<path fill="#F8F8F8" d="M21,15h-2.4c-0.3,0-0.5,0.1-0.7,0.3L13,20.2l-4.9-4.9C7.9,15.1,7.7,15,7.4,15H5c-0.6,0-1,0.4-1,1v2.4
		c0,0.3,0.1,0.5,0.3,0.7L9.2,24l-4.9,4.9c0,0,0,0.1-0.1,0.1c1.9,0.4,4.4,0.5,7.5,0.1l2-0.4c0.7-0.2,1.4-0.4,2.2-0.6
		c1.4-0.5,2.6-0.8,3.8-1l-3-3l4.9-4.9c0.2-0.2,0.3-0.4,0.3-0.7V16C22,15.4,21.6,15,21,15z"/>
	<polygon fill="#C96B4B" points="5,16 7.4,16 21,29.6 21,32 18.6,32 5,18.4 	"/>
	<polygon fill="#C96B4B" points="5,32 5,29.6 18.6,16 21,16 21,18.4 7.4,32 	"/>
</g>
</svg>
