<?xml version="1.0" encoding="utf-8"?>
<!-- Generator: Adobe Illustrator 16.0.4, SVG Export Plug-In . SVG Version: 6.00 Build 0)  -->
<!DOCTYPE svg PUBLIC "-//W3C//DTD SVG 1.1//EN" "http://www.w3.org/Graphics/SVG/1.1/DTD/svg11.dtd">
<svg version="1.1" xmlns="http://www.w3.org/2000/svg" xmlns:xlink="http://www.w3.org/1999/xlink" x="0px" y="0px" width="32px"
	 height="32px" viewBox="0 0 32 32" enable-background="new 0 0 32 32" xml:space="preserve">
<g id="Dark_Theme_1_" display="none">
	<rect x="-288" y="-64" display="inline" fill="#333333" width="544" height="736"/>
	
		<rect x="-320" y="-96" display="inline" fill="none" stroke="#808080" stroke-width="0.25" stroke-miterlimit="10" width="612" height="792"/>
</g>
<g id="LightTheme" display="none">
	<rect x="-288" y="-64" display="inline" fill="#F8F8F8" width="544" height="736"/>
	
		<rect x="-320" y="-96" display="inline" fill="none" stroke="#808080" stroke-width="0.25" stroke-miterlimit="10" width="612" height="792"/>
</g>
<g id="Hover" display="none">
	<rect x="-288" y="-64" display="inline" fill="#C5E5F9" width="544" height="736"/>
</g>
<g id="Selected" display="none">
	<rect x="-288" y="-64" display="inline" fill="#AADBFA" width="544" height="736"/>
</g>
<g id="Icon_Name">
</g>
<g id="Icons">
	<rect fill-rule="evenodd" clip-rule="evenodd" fill="none" width="32" height="32"/>
	<path fill="#E5D255" d="M31,28c0,0-6-3-15,0S1,28,1,28L5,4c0,0,6,2,11,0s11,0,11,0L31,28z"/>
	<rect x="16" y="8" fill="#6D6E71" width="9" height="9"/>
	<rect x="8" y="16" fill="#6D6E71" width="9" height="9"/>
	<rect x="16" y="16" fill="#6D6E71" width="9" height="9"/>
	<rect x="17" y="9" fill="#D3EAF9" width="7" height="7"/>
	<rect x="9" y="17" fill="#D3EAF9" width="7" height="7"/>
	<rect x="17" y="17" fill="#9BC29C" width="7" height="7"/>
	<path fill="#9BC29C" d="M14.3,20.8c0,0.4,0.4,0.7,0.4,1.1c0,0,0,0,0,0.1c0,0.5-0.7,1.3-0.9,2.1H16v-4.9
		C15.4,19.7,14.3,19.8,14.3,20.8z"/>
	<rect x="8" y="8" fill="#F4EEC8" width="8" height="8"/>
	<rect x="6" y="6" fill="#6D6E71" width="9" height="9"/>
	<rect x="7" y="7" fill="#D3EAF9" width="7" height="7"/>
	<path fill="#9BC29C" d="M7,12.7C7,12.7,7,12.7,7,12.7c1.1,0,1.8-1.3,1.8-2.1c0-0.5,0.4-1.1,0.9-1.1c0.8,0,1,0.8,1.8,0.8
		c1.2,0,1.2-1.6,2.3-2.2c0.1,0,0.1-0.1,0.2-0.1V7H7V12.7z"/>
</g>
</svg>
