<?xml version="1.0" encoding="utf-8"?>
<!-- Generator: Adobe Illustrator 16.0.4, SVG Export Plug-In . SVG Version: 6.00 Build 0)  -->
<!DOCTYPE svg PUBLIC "-//W3C//DTD SVG 1.1//EN" "http://www.w3.org/Graphics/SVG/1.1/DTD/svg11.dtd">
<svg version="1.1" xmlns="http://www.w3.org/2000/svg" xmlns:xlink="http://www.w3.org/1999/xlink" x="0px" y="0px" width="32px"
	 height="32px" viewBox="0 0 32 32" enable-background="new 0 0 32 32" xml:space="preserve">
<g id="Dark_Theme_1_" display="none">
	<rect x="-96" y="-160" display="inline" fill="#333333" width="544" height="736"/>
	
		<rect x="-128" y="-192" display="inline" fill="none" stroke="#808080" stroke-width="0.25" stroke-miterlimit="10" width="612" height="792"/>
</g>
<g id="LightTheme" display="none">
	<rect x="-96" y="-160" display="inline" fill="#F8F8F8" width="544" height="736"/>
	
		<rect x="-128" y="-192" display="inline" fill="none" stroke="#808080" stroke-width="0.25" stroke-miterlimit="10" width="612" height="792"/>
</g>
<g id="Hover" display="none">
	<rect x="-96" y="-160" display="inline" fill="#C5E5F9" width="544" height="736"/>
</g>
<g id="Selected" display="none">
	<rect x="-96" y="-160" display="inline" fill="#AADBFA" width="544" height="736"/>
</g>
<g id="Icon_Name">
</g>
<g id="Icons">
	<path fill="#6D6E71" d="M31,27c0,1.1-0.9,2-2,2H3c-1.1,0-2-0.9-2-2V6c0-1.1,0.9-2,2-2h26c1.1,0,2,0.9,2,2V27z"/>
	<path fill="#F8F8F8" d="M30,27c0,0.6-0.4,1-1,1H3c-0.6,0-1-0.4-1-1V6c0-0.6,0.4-1,1-1h26c0.6,0,1,0.4,1,1V27z"/>
	<polygon fill="#6D6E71" points="29,27 29,27 3,27 3,27 3,6 3,6 29,6 29,6 	"/>
	<polygon fill="#F8F8F8" points="28,26 28,26 4,26 4,26 4,7 4,7 28,7 28,7 	"/>
	<rect x="4" y="7" fill="#939598" width="24" height="3"/>
	<rect fill="none" width="32" height="32"/>
	<rect x="8" y="10" fill="#939598" width="1" height="16"/>
	<rect x="9" y="10" fill="#F8F8F8" width="19" height="16"/>
	<path fill="#A7A9AC" d="M28,26v-6.1c-0.3,0.1-0.7,0.3-0.8,0.3c-0.2,0-0.5,0-0.7,0c-0.4,0-0.7,0-1-0.2c-0.3-0.2-0.3-0.7-0.7-0.7
		c-0.5,0-0.6,0.8-1.1,0.8c-0.2,0-0.4-0.2-0.6-0.2c-0.2,0-0.5,0.1-0.5,0.3c0,0.2,0,0.4,0,0.5c0,0.5-0.5,0.5-0.5,1
		c0,0.2,0.2,0.3,0.2,0.4c0,0.6-1,0.5-1,1.2c0,0.2-0.3,1.3,0.2,1.5c0,0,0,0,0,0c0,0.2-0.3,0.6-0.4,1H28z"/>
	<path fill="#A7A9AC" d="M14.5,25.9c0-0.3,0.1-0.6,0.2-0.8c0.1-0.2,0.1-1.4,0.1-1.6c0-0.6-1.1-0.4-1.3-0.8c-0.4-0.9,0.7-1.1,0.7-1.8
		c0-0.2-0.1-0.5-0.4-0.6c-0.4,0-0.5,0.2-0.9,0.2c-0.2,0-0.5-0.2-0.5-0.4c0-0.4,0.3-0.6,0.3-1c0-0.3-0.1-0.4-0.1-0.7
		c0-0.4,0.3-0.7,0.6-0.7c0.3,0,0.5,0.3,0.7,0.6c0.1,0.3,0.4,0.3,0.7,0.3c0.5,0,0.9-0.7,0.9-1.1c0-0.3,0.2-0.5,0.5-0.5
		c0.4,0,0.5,0.4,0.9,0.4c0.6,0,0.6-0.8,1.1-1.1c0.7-0.4,0.5-1.1,0.4-1.6c0-0.2,0.3-0.5,0.5-0.5c0.8,0.1,0.4-0.6,0.4-0.9
		c0-0.1,0-0.1,0-0.2c0.1-0.4,0.6-0.5,0.6-0.9c0-0.3-0.2-0.4-0.2-0.8c0-0.5,0.7-0.9,1.4-1.2c0.2-0.1,0.2-0.1,0.3-0.3H9v16h5.6
		C14.5,25.9,14.5,25.9,14.5,25.9z"/>
</g>
</svg>
