<?xml version="1.0" encoding="utf-8"?>
<!-- Generator: Adobe Illustrator 16.0.4, SVG Export Plug-In . SVG Version: 6.00 Build 0)  -->
<!DOCTYPE svg PUBLIC "-//W3C//DTD SVG 1.1//EN" "http://www.w3.org/Graphics/SVG/1.1/DTD/svg11.dtd">
<svg version="1.1" xmlns="http://www.w3.org/2000/svg" xmlns:xlink="http://www.w3.org/1999/xlink" x="0px" y="0px" width="32px"
	 height="32px" viewBox="0 0 32 32" enable-background="new 0 0 32 32" xml:space="preserve">
<g id="Dark_Theme_1_" display="none">
	<rect x="-480" y="-544" display="inline" fill="#333333" width="544" height="736"/>
	
		<rect x="-512" y="-576" display="inline" fill="none" stroke="#808080" stroke-width="0.25" stroke-miterlimit="10" width="612" height="792"/>
</g>
<g id="LightTheme" display="none">
	<rect x="-480" y="-544" display="inline" fill="#F8F8F8" width="544" height="736"/>
	
		<rect x="-512" y="-576" display="inline" fill="none" stroke="#808080" stroke-width="0.25" stroke-miterlimit="10" width="612" height="792"/>
</g>
<g id="Hover" display="none">
	<rect x="-480" y="-544" display="inline" fill="#C5E5F9" width="544" height="736"/>
</g>
<g id="Selected" display="none">
	<rect x="-480" y="-544" display="inline" fill="#AADBFA" width="544" height="736"/>
</g>
<g id="Icon_Name">
</g>
<g id="Icons">
	<rect fill-rule="evenodd" clip-rule="evenodd" fill="none" width="32" height="32"/>
	<polygon fill="#6D6E71" points="11,29 11,27 5,27 5,21 3,21 3,29 	"/>
	
		<rect x="1.9" y="23" transform="matrix(-0.7071 0.7071 -0.7071 -0.7071 30.6198 35.3335)" fill="#6D6E71" width="12.1" height="2"/>
	<rect x="3" y="19" fill="none" width="10" height="10"/>
	<polygon fill="#6D6E71" points="29,21 27,21 27,27 21,27 21,29 29,29 	"/>
	<rect x="17.9" y="23" transform="matrix(0.7071 0.7071 -0.7071 0.7071 24.0078 -9.9444)" fill="#6D6E71" width="12.1" height="2"/>
	<rect x="19" y="19" fill="none" width="10" height="10"/>
	<polygon fill="#6D6E71" points="21,3 21,5 27,5 27,11 29,11 29,3 	"/>
	<rect x="17.9" y="7" transform="matrix(0.7071 -0.7071 0.7071 0.7071 1.3802 19.3182)" fill="#6D6E71" width="12.1" height="2"/>
	<rect x="19" y="3" fill="none" width="10" height="10"/>
	<polygon fill="#6D6E71" points="3,11 5,11 5,5 11,5 11,3 3,3 	"/>
	<rect x="1.9" y="7" transform="matrix(-0.707 -0.7072 0.7072 -0.707 7.9902 19.2965)" fill="#6D6E71" width="12.1" height="2"/>
	<rect x="3" y="3" fill="none" width="10" height="10"/>
</g>
</svg>
