<?xml version="1.0" encoding="utf-8"?>
<!-- Generator: Adobe Illustrator 16.0.4, SVG Export Plug-In . SVG Version: 6.00 Build 0)  -->
<!DOCTYPE svg PUBLIC "-//W3C//DTD SVG 1.1//EN" "http://www.w3.org/Graphics/SVG/1.1/DTD/svg11.dtd">
<svg version="1.1" xmlns="http://www.w3.org/2000/svg" xmlns:xlink="http://www.w3.org/1999/xlink" x="0px" y="0px" width="16px"
	 height="16px" viewBox="0 0 16 16" enable-background="new 0 0 16 16" xml:space="preserve">
<g id="Dark_Theme_1_" display="none">
	<rect x="-168" y="-296" display="inline" fill="#333333" width="544" height="736"/>
	
		<rect x="-200" y="-328" display="inline" fill="none" stroke="#808080" stroke-width="0.25" stroke-miterlimit="10" width="612" height="792"/>
</g>
<g id="LightTheme" display="none">
	<rect x="-168" y="-296" display="inline" fill="#F8F8F8" width="544" height="736"/>
	
		<rect x="-200" y="-328" display="inline" fill="none" stroke="#808080" stroke-width="0.25" stroke-miterlimit="10" width="612" height="792"/>
</g>
<g id="Hover" display="none">
	<rect x="-168" y="-296" display="inline" fill="#C5E5F9" width="544" height="736"/>
</g>
<g id="Selected" display="none">
	<rect x="-168" y="-296" display="inline" fill="#AADBFA" width="544" height="736"/>
</g>
<g id="Icon_Name">
</g>
<g id="Icons">
	<rect fill-rule="evenodd" clip-rule="evenodd" fill="none" width="16" height="16"/>
	<path fill="#E5D255" d="M16,14.4c0,0-3.2-1.6-8,0s-8,0-8,0L2.1,1.6c0,0,3.2,1.1,5.9,0c2.7-1.1,5.9,0,5.9,0L16,14.4z"/>
	<path fill="#F4EEC8" d="M13,6V4c0-0.6-0.4-1-1-1h-2V1.2C9.3,1.2,8.7,1.3,8,1.6C7.3,1.9,6.7,2,6,2v1H4C3.4,3,3,3.4,3,4v2
		c0,0.6,0.4,1,1,1h2v2c0,0.6,0.4,1,1,1h2c0.6,0,1-0.4,1-1V7h2C12.6,7,13,6.6,13,6z"/>
	<polygon fill="#6D6E71" points="12,4 9,4 9,1 7,1 7,4 4,4 4,6 7,6 7,9 9,9 9,6 12,6 	"/>
</g>
</svg>
