<?xml version="1.0" encoding="utf-8"?>
<!-- Generator: Adobe Illustrator 16.0.4, SVG Export Plug-In . SVG Version: 6.00 Build 0)  -->
<!DOCTYPE svg PUBLIC "-//W3C//DTD SVG 1.1//EN" "http://www.w3.org/Graphics/SVG/1.1/DTD/svg11.dtd">
<svg version="1.1" xmlns="http://www.w3.org/2000/svg" xmlns:xlink="http://www.w3.org/1999/xlink" x="0px" y="0px" width="16px"
	 height="16px" viewBox="0 0 16 16" enable-background="new 0 0 16 16" xml:space="preserve">
<g id="Dark_Theme_1_" display="none">
	<rect x="-232" y="-488" display="inline" fill="#333333" width="544" height="736"/>
	
		<rect x="-264" y="-520" display="inline" fill="none" stroke="#808080" stroke-width="0.25" stroke-miterlimit="10" width="612" height="792"/>
</g>
<g id="LightTheme" display="none">
	<rect x="-232" y="-488" display="inline" fill="#F8F8F8" width="544" height="736"/>
	
		<rect x="-264" y="-520" display="inline" fill="none" stroke="#808080" stroke-width="0.25" stroke-miterlimit="10" width="612" height="792"/>
</g>
<g id="Hover" display="none">
	<rect x="-232" y="-488" display="inline" fill="#C5E5F9" width="544" height="736"/>
</g>
<g id="Selected" display="none">
	<rect x="-232" y="-488" display="inline" fill="#AADBFA" width="544" height="736"/>
</g>
<g id="Icon_Name">
</g>
<g id="Icons">
	<rect x="1" y="1" fill="#6D6E71" width="14" height="14"/>
	<rect x="2" y="2" fill="#D3EAF9" width="12" height="12"/>
	<path fill="#F8F8F8" d="M13.1,9.9c0,0,0-0.1-0.1-0.1C13,9.5,12.7,9,12,9c-0.6,0-0.9,0.4-1.1,0.7c0,0,0,0,0,0
		c-0.1,0-0.3-0.1-0.5-0.1c-0.6,0-1.1,0.4-1.1,1V11c0,0,0,0-0.1,0c-0.2,0.2-0.5,0.5-0.5,1c0,0.1,0,0.2,0.1,0.3c0,0,0,0,0,0
		C8.6,12.5,8,12.8,8,13.5c0,0.2,0,0.3,0.1,0.4c0,0,0,0,0,0.1h6v-4h-0.4C13.3,10,13.2,9.9,13.1,9.9z"/>
	<path fill="#9BC29C" d="M14,10.7c-0.1,0-0.3,0-0.4,0c-0.3,0-0.6,0-0.9-0.3c-0.3-0.2-0.3-0.7-0.6-0.7c-0.5,0-0.5,0.7-1,0.7
		c-0.2,0-0.3-0.2-0.5-0.2c-0.2,0-0.4,0.1-0.4,0.3c0,0.2,0,0.3,0,0.5c0,0.4-0.6,0.5-0.6,0.9c0,0.2,0.2,0.2,0.2,0.4c0,0.6-1,0.5-1,1.1
		c0,0.2,0.1,0.3,0.1,0.5c0,0,0,0,0,0H14V10.7z"/>
	<path fill="#F8F8F8" d="M2,2v12h5.1c0-0.1,0.1-0.3,0.1-0.5c0-0.9-0.8-1.1-1.2-1.2c0,0,0.1-0.1,0.1-0.1c0.2-0.2,0.6-0.6,0.6-1.2
		c0-0.5-0.3-1.1-1-1.2c0,0-0.1,0-0.2,0c-0.1,0-0.2,0-0.2,0c0-0.1,0.1-0.3,0.1-0.5c0,0,0-0.1,0-0.1c0.2,0.2,0.5,0.4,1,0.4
		c0.8,0,1.3-0.7,1.4-1.3C8,8.5,8.2,8.6,8.5,8.6c0.7,0,1-0.6,1.2-0.9c0.1-0.1,0.1-0.2,0.2-0.3c0.8-0.5,0.9-1.3,0.8-1.9
		c0.3,0,0.6-0.2,0.7-0.4c0.3-0.4,0.2-0.8,0.2-1.1v0c0,0,0,0,0,0c0.2-0.2,0.6-0.5,0.6-1c0-0.3-0.1-0.5-0.2-0.7
		C12,2.3,12.1,2.2,12.1,2H2z"/>
	<path fill="#9BC29C" d="M2,2v12h4.4c0-0.2,0.1-0.3,0.1-0.5c0-0.5-1-0.4-1.2-0.7C4.9,12,6,11.8,6,11.1c0-0.2-0.1-0.5-0.3-0.5
		c-0.4,0-0.4,0.2-0.8,0.2c-0.2,0-0.4-0.1-0.4-0.4c0-0.4,0.3-0.6,0.3-1c0-0.2-0.1-0.4-0.1-0.6c0-0.3,0.3-0.6,0.6-0.6
		c0.3,0,0.5,0.3,0.6,0.5C5.9,8.9,6.2,9,6.4,9c0.5,0,0.8-0.6,0.8-1c0-0.2,0.2-0.5,0.4-0.5c0.3,0,0.5,0.4,0.8,0.4c0.6,0,0.6-0.8,1.1-1
		c0.6-0.3,0.4-1.1,0.4-1.4c0-0.2,0.3-0.5,0.5-0.5c0.7,0.1,0.4-0.5,0.4-0.8c0-0.1,0-0.1,0-0.1c0.1-0.3,0.6-0.4,0.6-0.8
		c0-0.3-0.2-0.4-0.2-0.7c0-0.2,0.1-0.3,0.2-0.4H2z"/>
	<rect fill-rule="evenodd" clip-rule="evenodd" fill="none" width="16" height="16"/>
	<path fill="#F0E498" d="M14,11.9c-0.3,0-0.7,0.1-1,0c-0.9-0.1-1.6-0.4-1.6,0.8c0,0.2,0.1,0.6,0,0.9c-0.2,0.4-0.3,0.2-0.5,0.4H14
		V11.9z"/>
	<path fill="#F0E498" d="M2,2v12h1.7c0-0.4,0-0.7,0-1.1c0-0.5,0.1-0.4-0.4-0.7c-0.4-0.3-0.5,0-0.6-0.7c-0.1-0.9,0.3-1.8,0.4-2.7
		C3.2,8.1,3,6.6,4,6.3C4.6,6.2,5.8,7.2,6.3,7C6.7,6.9,7.7,6.5,8,6.2c0.3-0.3,0-1,0.2-1.4c0.1-0.3,0.6-0.4,0.7-0.7
		C9,3.7,8.6,3.3,8.7,2.8C8.7,2.5,9,2.3,9.2,2H2z"/>
	<path fill="#EEAA5A" d="M2,4.2c0.6-0.4,1.4-0.4,2.1-0.1c0.4,0.2,1,1,1.6,0.4c0.2-0.2,0.2-1.9,0.2-2.4c0-0.1,0-0.1,0-0.2H2V4.2z"/>
	<rect x="3" y="5" fill="#6D6E71" width="2" height="2"/>
	<rect x="4" y="10" fill="#6D6E71" width="2" height="2"/>
	<rect x="7" y="3" fill="#6D6E71" width="2" height="2"/>
	<rect x="11" y="11" fill="#6D6E71" width="2" height="2"/>
</g>
</svg>
