<?xml version="1.0" encoding="utf-8"?>
<!-- Generator: Adobe Illustrator 16.0.4, SVG Export Plug-In . SVG Version: 6.00 Build 0)  -->
<!DOCTYPE svg PUBLIC "-//W3C//DTD SVG 1.1//EN" "http://www.w3.org/Graphics/SVG/1.1/DTD/svg11.dtd">
<svg version="1.1" xmlns="http://www.w3.org/2000/svg" xmlns:xlink="http://www.w3.org/1999/xlink" x="0px" y="0px" width="16px"
	 height="16px" viewBox="0 0 16 16" enable-background="new 0 0 16 16" xml:space="preserve">
<g id="Dark_Theme_1_" display="none">
	<rect x="-40" y="-584" display="inline" fill="#333333" width="544" height="736"/>
	
		<rect x="-72" y="-616" display="inline" fill="none" stroke="#808080" stroke-width="0.25" stroke-miterlimit="10" width="612" height="792"/>
</g>
<g id="LightTheme" display="none">
	<rect x="-40" y="-584" display="inline" fill="#F8F8F8" width="544" height="736"/>
	
		<rect x="-72" y="-616" display="inline" fill="none" stroke="#808080" stroke-width="0.25" stroke-miterlimit="10" width="612" height="792"/>
</g>
<g id="Hover" display="none">
	<rect x="-40" y="-584" display="inline" fill="#C5E5F9" width="544" height="736"/>
</g>
<g id="Selected" display="none">
	<rect x="-40" y="-584" display="inline" fill="#AADBFA" width="544" height="736"/>
</g>
<g id="Icon_Name">
</g>
<g id="Icons">
	<rect x="1" y="4" fill="#6DB5E3" width="15" height="12"/>
	<rect x="2" y="13" fill="#939598" width="13" height="2"/>
	<path fill="#6D6E71" d="M11.3,3C10,3,8.7,3.5,8,3.8v10.7h0.6c0.7-0.3,1.7-0.5,2.6-0.5c1.6,0,3.3,1.2,3.7,1.5V4.6
		C15,4.6,13.1,3,11.3,3z"/>
	<path fill="#F8F8F8" d="M14,3.9C13.3,3.5,12.3,3,11.3,3C10.5,3,9.7,3.2,9,3.4V6h5V3.9z"/>
	<path fill="#F8F8F8" d="M14,13.7c-0.8-0.4-1.7-0.7-2.7-0.7c-0.7,0-1.5,0.1-2.3,0.4V4.5C9.6,4.2,10.5,4,11.3,4c1,0,2.1,0.7,2.7,1.1
		V13.7z"/>
	<path fill="#6D6E71" d="M5.7,3C7,3,8.3,3.5,9,3.8v10.7H8.4C7.7,14.2,6.7,14,5.7,14c-1.6,0-3.3,1.2-3.7,1.5V4.6C2,4.6,3.9,3,5.7,3z"
		/>
	<path fill="#F8F8F8" d="M3,5.1C3.6,4.7,4.7,4,5.7,4C6.5,4,7.4,4.2,8,4.5v8.9C7.2,13.1,6.4,13,5.7,13c-1,0-2,0.3-2.7,0.7V5.1z"/>
	<rect fill="none" width="16" height="16"/>
	<polygon fill="#57A6D9" points="10,11 11.5,10 13,11 13,0 10,0 	"/>
</g>
</svg>
