<?xml version="1.0" encoding="utf-8"?>
<!-- Generator: Adobe Illustrator 16.0.4, SVG Export Plug-In . SVG Version: 6.00 Build 0)  -->
<!DOCTYPE svg PUBLIC "-//W3C//DTD SVG 1.1//EN" "http://www.w3.org/Graphics/SVG/1.1/DTD/svg11.dtd">
<svg version="1.1" xmlns="http://www.w3.org/2000/svg" xmlns:xlink="http://www.w3.org/1999/xlink" x="0px" y="0px" width="16px"
	 height="16px" viewBox="0 0 16 16" enable-background="new 0 0 16 16" xml:space="preserve">
<g id="Dark_Theme_1_" display="none">
	<rect x="-168" y="-584" display="inline" fill="#333333" width="544" height="736"/>
	
		<rect x="-200" y="-616" display="inline" fill="none" stroke="#808080" stroke-width="0.25" stroke-miterlimit="10" width="612" height="792"/>
</g>
<g id="LightTheme" display="none">
	<rect x="-168" y="-584" display="inline" fill="#F8F8F8" width="544" height="736"/>
	
		<rect x="-200" y="-616" display="inline" fill="none" stroke="#808080" stroke-width="0.25" stroke-miterlimit="10" width="612" height="792"/>
</g>
<g id="Hover" display="none">
	<rect x="-168" y="-584" display="inline" fill="#C5E5F9" width="544" height="736"/>
</g>
<g id="Selected" display="none">
	<rect x="-168" y="-584" display="inline" fill="#AADBFA" width="544" height="736"/>
</g>
<g id="Icon_Name">
</g>
<g id="Icons">
	<rect x="0.6" fill="none" width="16" height="16"/>
	<path fill="#E5A894" d="M15.3,3.4c0.4-0.4,0.4-1,0-1.4l-0.7-0.7c-0.4-0.4-1-0.4-1.4,0L12.4,2l2.1,2.1L15.3,3.4z"/>
	<rect x="10.9" y="2.6" transform="matrix(0.7073 0.7069 -0.7069 0.7073 6.5714 -7.5848)" fill="#6D6E71" width="3" height="3"/>
	<polygon fill="#D9C44C" points="11.9,5.7 11,4.8 11,4.8 10.9,4.7 10.5,4.3 10.5,4.3 10.3,4.1 3.4,11.1 4,11.8 4.8,12.6 5.5,13.3 
		12.4,6.3 	"/>
	<polygon fill="#FBE2C3" points="3.4,11.1 1.6,15 5.5,13.3 	"/>
	<polygon fill="#6D6E71" points="3.5,14.1 2.5,13.1 1.6,15 	"/>
</g>
</svg>
