<?xml version="1.0" encoding="utf-8"?>
<!-- Generator: Adobe Illustrator 16.0.4, SVG Export Plug-In . SVG Version: 6.00 Build 0)  -->
<!DOCTYPE svg PUBLIC "-//W3C//DTD SVG 1.1//EN" "http://www.w3.org/Graphics/SVG/1.1/DTD/svg11.dtd">
<svg version="1.1" xmlns="http://www.w3.org/2000/svg" xmlns:xlink="http://www.w3.org/1999/xlink" x="0px" y="0px" width="16px"
	 height="16px" viewBox="0 0 16 16" enable-background="new 0 0 16 16" xml:space="preserve">
<g id="Dark_Theme_1_" display="none">
	<rect x="-232" y="-104" display="inline" fill="#333333" width="544" height="736"/>
	
		<rect x="-264" y="-136" display="inline" fill="none" stroke="#808080" stroke-width="0.25" stroke-miterlimit="10" width="612" height="792"/>
</g>
<g id="LightTheme" display="none">
	<rect x="-232" y="-104" display="inline" fill="#F8F8F8" width="544" height="736"/>
	
		<rect x="-264" y="-136" display="inline" fill="none" stroke="#808080" stroke-width="0.25" stroke-miterlimit="10" width="612" height="792"/>
</g>
<g id="Hover" display="none">
	<rect x="-232" y="-104" display="inline" fill="#C5E5F9" width="544" height="736"/>
</g>
<g id="Selected" display="none">
	<rect x="-232" y="-104" display="inline" fill="#AADBFA" width="544" height="736"/>
</g>
<g id="Icon_Name">
</g>
<g id="Icons">
	<rect fill-rule="evenodd" clip-rule="evenodd" fill="none" width="16" height="16"/>
	<path fill="#E5D255" d="M16,14.4c0,0-3.2-1.6-8,0c-4.8,1.6-8,0-8,0L2.1,1.6c0,0,3.2,1.1,5.9,0s5.9,0,5.9,0L16,14.4z"/>
	<path fill="#F4EEC8" d="M12,3c0-0.7-0.2-1.3-0.4-1.8c-1.1-0.1-2.4,0-3.6,0.4C6.7,2.1,5.3,2.1,4.1,2C4.1,2.3,4,2.7,4,3v4
		c0,0.3,0.1,0.5,0.3,0.7l3,3C7.5,10.9,7.7,11,8,11s0.5-0.1,0.7-0.3l3-3C11.9,7.5,12,7.3,12,7V3z"/>
	<path fill="#C7552E" d="M11,3c0-1.7-1.2-3-3-3S5,1.3,5,3v4l3,3l3-3C11,7,11,3,11,3z"/>
	<path fill="#E5A894" d="M6,6.6V3c0-1.2,0.8-2,2-2s2,0.8,2,2v3.6l-2,2L6,6.6z"/>
	<path fill="#C96B4B" d="M8,2v5.2l1-1V3C9,2.4,8.6,2,8,2z"/>
	<circle fill="#F8F8F8" cx="8" cy="3" r="1"/>
	<circle fill="#F8F8F8" cx="8" cy="3" r="1"/>
	<g>
		<path fill="#6D6E71" d="M16,10.9H9v3.3l0,0l0,0c0,1,1,1.9,3.5,1.9s3.5-0.8,3.5-1.9l0,0l0,0V10.9z"/>
		<path fill="#F3F4F4" d="M10,11.8v2.6c0.5,0.3,0.7,0.8,2.5,0.8c1.8,0,2-0.4,2.5-0.8v-2.6H10z"/>
		<path fill="#E0E0E0" d="M13,15.2c1.5-0.1,1.5-0.5,2-0.8v-2.6h-2V15.2z"/>
		<path fill="#6D6E71" d="M16,10.9c0,1-1,2-3.5,2s-3.5-1-3.5-2c0-1,1-1.9,3.5-1.9S16,9.8,16,10.9z"/>
		<path fill="#F3F4F4" d="M12.5,11.9c-1.7,0-2.5-0.5-2.5-1c0-0.5,1-0.9,2.5-0.9s2.5,0.4,2.5,0.9C15,11.3,14.2,11.9,12.5,11.9z"/>
	</g>
</g>
</svg>
