<?xml version="1.0" encoding="utf-8"?>
<!-- Generator: Adobe Illustrator 16.0.4, SVG Export Plug-In . SVG Version: 6.00 Build 0)  -->
<!DOCTYPE svg PUBLIC "-//W3C//DTD SVG 1.1//EN" "http://www.w3.org/Graphics/SVG/1.1/DTD/svg11.dtd">
<svg version="1.1" xmlns="http://www.w3.org/2000/svg" xmlns:xlink="http://www.w3.org/1999/xlink" x="0px" y="0px" width="16px"
	 height="16px" viewBox="0 0 16 16" enable-background="new 0 0 16 16" xml:space="preserve">
<g id="Dark_Theme_1_" display="none">
	<rect x="-296" y="-296" display="inline" fill="#333333" width="544" height="736"/>
	
		<rect x="-328" y="-328" display="inline" fill="none" stroke="#808080" stroke-width="0.25" stroke-miterlimit="10" width="612" height="792"/>
</g>
<g id="LightTheme" display="none">
	<rect x="-296" y="-296" display="inline" fill="#F8F8F8" width="544" height="736"/>
	
		<rect x="-328" y="-328" display="inline" fill="none" stroke="#808080" stroke-width="0.25" stroke-miterlimit="10" width="612" height="792"/>
</g>
<g id="Hover" display="none">
	<rect x="-296" y="-296" display="inline" fill="#C5E5F9" width="544" height="736"/>
</g>
<g id="Selected" display="none">
	<rect x="-296" y="-296" display="inline" fill="#AADBFA" width="544" height="736"/>
</g>
<g id="Icon_Name">
</g>
<g id="Icons">
	<circle fill-rule="evenodd" clip-rule="evenodd" fill="#F8F8F8" cx="8" cy="8" r="7.5"/>
	<circle fill="#D3EAF9" cx="8" cy="8" r="5.8"/>
	<path fill="#9BC29C" d="M4.7,10.8c-0.1-0.1-0.3-0.3-0.6-0.5l-0.1-0.1c-0.1,0-0.1-0.1-0.2-0.1c0,0-0.2-0.1-0.2-0.2c0,0,0-0.1,0-0.1
		c0,0,0-0.1,0-0.2c0-0.1,0-0.3,0-0.4C3.4,9.1,3.3,8.9,3.3,8.8l0-0.1C3.2,8.6,3.1,8.4,3,8.3C3,8.2,3,8.1,2.9,8.1C2.9,8,2.9,8,2.8,7.9
		l0,0C2.7,7.8,2.7,7.7,2.7,7.5c0-0.1,0-0.2-0.1-0.3c0,0-0.1-0.1-0.1-0.1c0,0-0.1,0-0.1,0c0,0-0.1,0-0.1,0c0,0.3-0.1,0.6-0.1,0.9
		c0,1.5,0.6,2.9,1.6,4c0,0,0.1,0,0.1,0H4c0.1,0,0.1,0,0.1,0c0,0,0.1,0,0.1-0.1c0,0,0-0.1,0.1-0.1c0-0.1,0-0.1,0-0.1c0,0,0-0.1,0-0.1
		c0-0.1,0-0.2,0.1-0.2c0,0,0.1-0.1,0.2-0.1c0,0,0.1-0.1,0.1-0.1C4.7,11,4.7,10.9,4.7,10.8C4.7,10.9,4.7,10.9,4.7,10.8z M13.7,7.9
		c0,0-0.1-0.1-0.1-0.1c0,0,0,0-0.1,0c-0.1,0-0.1,0-0.1-0.1c0-0.1,0-0.1,0-0.2c0,0,0.1-0.1,0.1-0.1c0,0,0,0,0,0c0,0,0,0,0.1,0
		c0,0,0,0,0,0C13.5,5.6,12.5,4,11,3.1c0,0.1-0.1,0.1,0,0.2c0,0,0,0.1,0,0.1l0,0.1l0,0.1c0,0,0,0,0,0.1c0,0,0,0,0,0c0,0,0,0-0.1,0
		c-0.1,0-0.3,0-0.3-0.1l0,0c0,0-0.1,0-0.1,0c-0.1,0-0.1,0-0.1,0c-0.1,0-0.3,0.1-0.4,0.2c0,0,0,0-0.1,0.1L9.9,4c0,0,0,0.1-0.1,0.1
		c0,0,0,0.1-0.1,0.1c0,0,0,0.1,0,0.1c0,0.1,0,0.2,0.1,0.3c0.1,0.1,0.2,0.2,0.3,0.3c0,0,0.1,0,0.1,0c0,0,0.1,0,0.1,0
		c0.1,0,0.1-0.1,0.1-0.2l0-0.1c0-0.1,0-0.1,0-0.2c0,0,0-0.1,0.1-0.1c0,0,0,0,0.1,0c0,0,0,0,0.1,0c0,0,0,0,0,0.1c0,0,0,0,0.1,0.1
		c0.1,0,0.1,0.1,0.1,0.1c0,0.2,0,0.3,0,0.4c-0.1,0.1-0.1,0.2-0.3,0.2c-0.1,0-0.2,0-0.2-0.1l0,0c0,0-0.1,0-0.1,0c0,0-0.1,0-0.1,0
		c0,0-0.1,0.1-0.1,0.1C9.9,5.2,9.8,5.3,9.8,5.3c0,0.1-0.2,0.2-0.4,0.3c-0.1,0-0.1,0.2-0.1,0.3l0,0c0,0,0,0.1,0.1,0.2
		c0,0.1-0.1,0.1-0.1,0.1c0,0-0.1,0-0.1,0c0,0,0,0,0,0c0,0-0.1,0-0.1,0L9,6.2c0,0,0,0,0,0c-0.1,0-0.2,0-0.2,0.1c0,0,0,0.1,0,0.2
		c0,0.1,0,0.2,0,0.3c0,0.1,0.1,0.2,0.2,0.2c0,0,0.1,0,0.1,0c0,0,0,0,0,0C9,7,9,7,9,7c0,0,0,0,0,0c0.1,0,0.2,0,0.2-0.1
		c0,0,0.1-0.1,0.1-0.1c0,0,0-0.1,0-0.1c0,0,0,0,0,0c0,0,0,0,0,0c0,0,0-0.1,0.1-0.1c0.1,0,0.1-0.1,0.2-0.1c0,0,0,0,0-0.1
		c0,0,0,0,0.1-0.1c0.1,0,0.1-0.1,0.2-0.1c0,0,0.1,0,0.1,0c0,0,0.1,0.1,0.1,0.1c0,0,0.1,0,0.1,0c0,0,0.1,0,0.1,0
		c0.1,0,0.1-0.1,0.1-0.2c0,0,0,0,0.1,0c0.1,0,0.1,0.1,0.2,0.1C11,6.4,11,6.5,11.1,6.6c0.1,0.1,0.1,0.1,0.1,0.1c0,0.1,0,0.1,0.1,0.2
		c0,0.1,0.1,0.1,0.2,0.1h0c0.1,0,0.1-0.1,0.2-0.1c0,0,0-0.1,0.1-0.1c0,0,0,0,0.1,0c0,0,0,0.1,0.1,0.1C11.8,7,11.9,7,11.9,7h0L12,7
		c0,0,0.1,0,0.1,0c0.2,0,0.2,0.1,0.2,0.1c0.1,0.1,0.1,0.2,0.1,0.3c0,0.1-0.1,0.2-0.1,0.2c-0.1,0-0.1,0-0.2,0.1c0,0-0.1,0-0.2,0
		c0,0-0.1,0-0.1,0c0,0-0.1,0-0.1,0c0,0-0.1,0-0.1,0c0,0,0,0,0,0c-0.1,0-0.2,0.1-0.2,0.2c0,0,0,0,0,0c0,0,0,0,0,0.1c0,0,0,0-0.1,0h0
		c-0.1,0-0.6-0.2-0.7-0.3c0,0,0-0.1,0-0.1c0,0,0,0,0,0l0-0.1c0-0.1-0.1-0.2-0.2-0.2c-0.1,0-0.1,0-0.2,0H10c-0.1,0-0.3,0-0.4,0
		c-0.1,0-0.2,0.1-0.3,0.1l0,0c0,0,0,0,0,0c0,0,0,0,0,0c0,0,0,0,0,0c0,0-0.1,0-0.1,0L9,7.2l0,0c-0.1,0-0.1,0-0.1,0c0,0,0,0-0.1,0
		c-0.1,0-0.1,0-0.1,0.1c0,0,0,0-0.1,0.1L8.6,7.3c0,0-0.1,0.1-0.1,0.1C8.3,7.5,8.2,7.6,8.2,7.8c0,0.1-0.1,0.1-0.1,0.1c0,0,0,0-0.1,0
		c0,0-0.1,0-0.1,0C7.7,8,7.5,8.3,7.4,8.5C7.3,8.7,7.3,8.7,7.3,8.8c0,0.1,0,0.1,0,0.2c0,0.1-0.1,0.3-0.2,0.4C7,9.4,7,9.4,7,9.5
		c0,0,0,0.1,0,0.1c0,0.1,0,0.2,0.1,0.2c0,0,0,0.1,0.1,0.1L7.2,10l0,0c0.1,0.1,0.1,0.1,0.2,0.2c0.1,0.2,0.2,0.3,0.3,0.4
		c0.2,0.1,0.3,0.2,0.5,0.2c0,0,0.1,0,0.2,0l0,0c0.1,0,0.2,0,0.3,0c0.1,0,0.2,0,0.3,0c0.1,0,0.2,0,0.3,0c0.1,0,0.2,0,0.3,0.1
		c0,0,0.1,0,0.1,0c0.1,0,0.2,0.1,0.2,0.2c0,0.1,0,0.2,0,0.2c0,0,0,0,0,0.1c0,0,0,0.1,0,0.1c0,0.1,0,0.1,0,0.2l0,0
		C9.9,11.8,10,11.8,10,12c0,0.3,0,0.4-0.2,0.6c-0.2,0.2-0.2,0.2-0.2,0.4c0,0,0,0.1,0,0.1c0,0,0,0.1,0,0.1c0,0.1,0,0.1,0,0.2
		c0,0,0,0.1,0,0.1c1.1-0.3,2-0.9,2.7-1.8c0,0,0-0.1,0-0.1c0-0.1,0.1-0.2,0.1-0.4c0.1-0.1,0.2-0.3,0.3-0.5l0.1-0.1
		c0.1-0.1,0.2-0.3,0.3-0.4c0.1-0.2,0.2-0.3,0.2-0.4c0-0.1,0-0.1-0.1-0.2c0,0-0.1-0.1-0.2-0.1c0,0,0,0,0,0c0,0-0.1,0-0.1,0
		c0,0,0,0,0-0.1c0,0,0-0.1,0-0.1c0-0.1-0.1-0.2-0.1-0.3l0-0.1c0-0.1,0-0.1-0.1-0.2c-0.1-0.1-0.1-0.2-0.1-0.2
		c-0.1-0.1-0.1-0.2-0.2-0.4c0-0.1,0-0.2-0.1-0.2c0,0,0,0,0-0.1c0.1,0.1,0.4,0.7,0.4,0.9c0,0.1,0,0.1,0,0.2c0,0.1,0.1,0.1,0.2,0.1
		c0,0,0,0,0,0c0.1,0,0.1,0,0.2-0.1c0.1-0.2,0.2-0.4,0.3-0.6c0.1-0.2,0.1-0.4,0.1-0.5C13.8,8,13.8,7.9,13.7,7.9z M6.2,2.9
		c0,0-0.1,0-0.1,0c0,0-0.1,0-0.1,0c0,0-0.1,0-0.1,0.1l0,0c0,0-0.1,0-0.1,0.1c0,0-0.1,0-0.1,0.1c0,0-0.1,0-0.1,0c0,0-0.1,0-0.1-0.1
		c0-0.1,0-0.1,0-0.1C4.4,3.4,3.6,4.1,3.1,5c0,0,0,0,0.1,0c0,0,0,0,0,0c0.1,0,0.1,0,0.2-0.1c0.1-0.1,0.2-0.1,0.2-0.2
		c0,0,0.1-0.1,0.1-0.1c0,0,0.1-0.1,0.1-0.1c0.1-0.1,0.3-0.2,0.4-0.2c0.2,0,0.3,0,0.5,0c0,0,0,0,0,0C5,4.4,5,4.3,5.1,4.2
		C5.1,4,5.2,4,5.3,4c0,0,0,0,0,0c0,0,0.1,0,0.1,0c0,0,0.1,0,0.1,0c0,0,0,0,0.1,0c0,0,0,0,0,0c0.1,0,0.1,0,0.2-0.1
		c0.1-0.1,0.3-0.4,0.4-0.6c0.1-0.1,0.1-0.2,0.1-0.3C6.3,3.1,6.3,2.9,6.2,2.9z M9,4.7C9,4.7,8.9,4.8,9,4.7C8.9,4.8,8.9,4.9,9,5
		C9,5,9.1,5,9.1,5.1c0,0,0,0,0,0c0,0,0,0,0,0c0,0,0,0,0,0.1l0,0c0,0.1,0,0.2,0.1,0.2c0,0,0.1,0.1,0.1,0.1c0,0,0,0,0.1,0
		c0.1,0,0.1-0.2,0.1-0.2C9.6,5,9.5,5,9.4,4.9c0,0,0-0.1,0-0.1c0-0.1-0.1-0.1-0.1-0.2c0,0-0.1,0-0.1,0c0,0,0,0,0,0C9,4.6,9,4.6,9,4.7
		z M7,2.3c-0.2,0-0.4,0.1-0.6,0.1c0,0.1,0.1,0.1,0.2,0.1h0c0.1,0,0.1,0,0.2,0c0,0,0.1,0,0.1,0c0,0,0.1,0,0.1,0l0,0
		C7,2.5,7,2.4,7,2.3z M7.1,3.8C7.2,3.8,7.2,3.7,7.1,3.8c0.2-0.1,0.5-0.2,0.7-0.3c0,0,0.1,0,0.1,0H8c0,0,0.1,0,0.1,0l0.1,0
		c0,0,0.1,0,0.1,0c0,0,0.1,0,0.1,0c0,0,0.1,0,0.1-0.1c0,0,0-0.1,0.1-0.1c0,0,0-0.1,0.1-0.1c0-0.1,0.1-0.1,0.2-0.2
		c0,0,0.1-0.1,0.1-0.1l0.1,0C9,2.9,9,2.8,9,2.7C9,2.7,9,2.6,9,2.6c0,0-0.1-0.1-0.2-0.1c-0.1,0-0.3-0.1-0.5-0.1c0,0-0.1,0-0.1,0
		c-0.1,0-0.2,0-0.3,0c0,0-0.1,0-0.1,0l0,0c0,0-0.1,0-0.1,0.1c0,0,0,0-0.1,0.1c0,0,0,0.1,0,0.1c0,0,0,0.1-0.1,0.1
		c0,0-0.1,0.1-0.1,0.1c0,0-0.1,0-0.1,0.1C7.3,3,7.2,3.1,7.2,3.1C7,3.3,6.9,3.4,6.9,3.5c0,0.1,0,0.1,0.1,0.2C7.1,3.7,7.1,3.8,7.1,3.8
		z"/>
	<rect fill-rule="evenodd" clip-rule="evenodd" fill="none" width="16" height="16"/>
	<path fill="#6D6E71" d="M8,0C3.6,0,0,3.6,0,8c0,4.4,3.6,8,8,8c4.4,0,8-3.6,8-8C16,3.6,12.4,0,8,0z M8,15.3C4,15.3,0.7,12,0.7,8
		S4,0.7,8,0.7S15.3,4,15.3,8S12,15.3,8,15.3z"/>
</g>
</svg>
