<?xml version="1.0" encoding="utf-8"?>
<!-- Generator: Adobe Illustrator 16.0.4, SVG Export Plug-In . SVG Version: 6.00 Build 0)  -->
<!DOCTYPE svg PUBLIC "-//W3C//DTD SVG 1.1//EN" "http://www.w3.org/Graphics/SVG/1.1/DTD/svg11.dtd">
<svg version="1.1" xmlns="http://www.w3.org/2000/svg" xmlns:xlink="http://www.w3.org/1999/xlink" x="0px" y="0px" width="16px"
	 height="16px" viewBox="0 0 16 16" enable-background="new 0 0 16 16" xml:space="preserve">
<g id="Dark_Theme_1_" display="none">
	<rect x="-360" y="-392" display="inline" fill="#333333" width="544" height="736"/>
	
		<rect x="-392" y="-424" display="inline" fill="none" stroke="#808080" stroke-width="0.25" stroke-miterlimit="10" width="612" height="792"/>
</g>
<g id="LightTheme" display="none">
	<rect x="-360" y="-392" display="inline" fill="#F8F8F8" width="544" height="736"/>
	
		<rect x="-392" y="-424" display="inline" fill="none" stroke="#808080" stroke-width="0.25" stroke-miterlimit="10" width="612" height="792"/>
</g>
<g id="Hover" display="none">
	<rect x="-360" y="-392" display="inline" fill="#C5E5F9" width="544" height="736"/>
</g>
<g id="Selected" display="none">
	<rect x="-360" y="-392" display="inline" fill="#AADBFA" width="544" height="736"/>
</g>
<g id="Icon_Name">
</g>
<g id="Icons">
	<rect fill="none" width="16" height="16"/>
	<rect x="1" fill="#57A6D9" width="3" height="3"/>
	<rect x="1" y="8" fill="#C96B4B" width="3" height="3"/>
	<rect x="2" y="1" fill="#D3EAF9" width="1" height="1"/>
	<linearGradient id="SVGID_1_" gradientUnits="userSpaceOnUse" x1="3.4951" y1="6.4912" x2="1.9953" y2="4.9914">
		<stop  offset="0" style="stop-color:#003068"/>
		<stop  offset="0.4945" style="stop-color:#0066CF"/>
		<stop  offset="1" style="stop-color:#00C0FF"/>
	</linearGradient>
	<rect x="2" y="5" fill="url(#SVGID_1_)" width="1.5" height="1.5"/>
	<rect x="2" y="9" fill="#F4DFD8" width="1" height="1"/>
	<path fill="#5B945A" d="M2.5,7C1.7,7,1,6.3,1,5.5S1.7,4,2.5,4S4,4.7,4,5.5S3.3,7,2.5,7L2.5,7z"/>
	<circle fill="#DDEEDB" cx="2.5" cy="5.5" r="0.6"/>
	<path fill="#9182BD" d="M3.3,15.2H2.5H1.7c-0.4,0-0.7-0.2-0.9-0.5c-0.2-0.3-0.2-0.7,0-1L1.2,13l0.4-0.7c0.2-0.3,0.5-0.5,0.9-0.5
		s0.7,0.2,0.9,0.5L3.8,13l0.4,0.7c0.2,0.3,0.2,0.7,0,1C4,15,3.7,15.2,3.3,15.2L3.3,15.2z"/>
	<polygon fill="#E6E2F0" points="3.3,14.2 2.5,14.2 1.7,14.2 2.1,13.5 2.5,12.8 2.9,13.5 3.3,14.2 	"/>
	<rect x="6" y="1" fill="#57A6D9" width="8" height="1"/>
	<rect x="6" y="5" fill="#57A6D9" width="6" height="1"/>
	<rect x="6" y="9" fill="#57A6D9" width="1" height="1"/>
	<rect x="6" y="13" fill="#57A6D9" width="2" height="1"/>
	<polygon fill="#C7552E" points="8,8 9.2,8 16,14.8 16,16 14.8,16 8,9.2 	"/>
	<polygon fill="#C7552E" points="8,16 8,14.8 14.8,8 16,8 16,9.2 9.2,16 	"/>
</g>
</svg>
