<?xml version="1.0" encoding="utf-8"?>
<!-- Generator: Adobe Illustrator 16.0.4, SVG Export Plug-In . SVG Version: 6.00 Build 0)  -->
<!DOCTYPE svg PUBLIC "-//W3C//DTD SVG 1.1//EN" "http://www.w3.org/Graphics/SVG/1.1/DTD/svg11.dtd">
<svg version="1.1" xmlns="http://www.w3.org/2000/svg" xmlns:xlink="http://www.w3.org/1999/xlink" x="0px" y="0px" width="16px"
	 height="16px" viewBox="0 0 16 16" enable-background="new 0 0 16 16" xml:space="preserve">
<g id="Dark_Theme_1_" display="none">
	<rect x="-360" y="-296" display="inline" fill="#333333" width="544" height="736"/>
	
		<rect x="-392" y="-328" display="inline" fill="none" stroke="#808080" stroke-width="0.25" stroke-miterlimit="10" width="612" height="792"/>
</g>
<g id="LightTheme" display="none">
	<rect x="-360" y="-296" display="inline" fill="#F8F8F8" width="544" height="736"/>
	
		<rect x="-392" y="-328" display="inline" fill="none" stroke="#808080" stroke-width="0.25" stroke-miterlimit="10" width="612" height="792"/>
</g>
<g id="Hover" display="none">
	<rect x="-360" y="-296" display="inline" fill="#C5E5F9" width="544" height="736"/>
</g>
<g id="Selected" display="none">
	<rect x="-360" y="-296" display="inline" fill="#AADBFA" width="544" height="736"/>
</g>
<g id="Icon_Name">
</g>
<g id="Icons">
	<rect fill-rule="evenodd" clip-rule="evenodd" fill="none" width="16" height="16"/>
	<path fill="#E5D255" d="M16,14.4c0,0-3.2-1.6-8,0c-4.8,1.6-8,0-8,0L2.1,1.6c0,0,3.2,1.1,5.9,0s5.9,0,5.9,0L16,14.4z"/>
	<path fill="#F8F8F8" d="M15.6,14l-2.9-2.9c-0.1-0.1-0.3-0.2-0.5-0.3c1-2,0.7-4.5-1-6.1c-1-1-2.4-1.6-3.8-1.6S4.7,3.7,3.7,4.7
		c-2.1,2.1-2.1,5.5,0,7.6c1,1,2.4,1.6,3.8,1.6c0.8,0,1.6-0.2,2.4-0.6c0.1,0.2,0.2,0.3,0.3,0.5l0.1,0.1c2.8-0.4,4.8,0.2,5.5,0.5
		C15.7,14.2,15.7,14.1,15.6,14z"/>
	<g>
		<path fill="#F8F8F8" d="M7.4,12.4c-1.1,0-2.1-0.4-2.8-1.2c-1.6-1.6-1.6-4.1,0-5.7c0.8-0.8,1.8-1.2,2.8-1.2c1.1,0,2.1,0.4,2.8,1.2
			c1.6,1.6,1.6,4.1,0,5.7C9.5,12,8.5,12.4,7.4,12.4C7.4,12.4,7.4,12.4,7.4,12.4z"/>
		<path fill="#57A6D9" d="M10.6,5.4c-1.7-1.7-4.5-1.7-6.2,0c-1.7,1.7-1.7,4.5,0,6.2c1.7,1.7,4.5,1.7,6.2,0
			C12.3,9.9,12.3,7.1,10.6,5.4z M9.7,10.7c-0.6,0.6-1.4,0.9-2.2,0.9c-0.8,0-1.6-0.3-2.2-0.9C4,9.5,4,7.5,5.3,6.3
			c0.6-0.6,1.4-0.9,2.2-0.9c0.8,0,1.6,0.3,2.2,0.9C11,7.5,11,9.5,9.7,10.7z"/>
		
			<rect x="10.4" y="11.6" transform="matrix(-0.7063 -0.7079 0.7079 -0.7063 10.2915 28.3108)" fill="#6D6E71" width="1.2" height="0.8"/>
		<path fill="#B88B55" d="M14.3,15.9c-0.2,0.2-0.4,0.2-0.6,0L10.9,13c-0.2-0.2-0.2-0.4,0-0.6l0.6-0.6c0.2-0.2,0.4-0.2,0.6,0l2.9,2.9
			c0.2,0.2,0.2,0.4,0,0.6L14.3,15.9z"/>
	</g>
	<rect x="7" y="6" fill="#6D6E71" width="1" height="5"/>
	<rect x="5" y="8" fill="#6D6E71" width="5" height="1"/>
</g>
</svg>
