<?xml version="1.0" encoding="utf-8"?>
<!-- Generator: Adobe Illustrator 16.0.4, SVG Export Plug-In . SVG Version: 6.00 Build 0)  -->
<!DOCTYPE svg PUBLIC "-//W3C//DTD SVG 1.1//EN" "http://www.w3.org/Graphics/SVG/1.1/DTD/svg11.dtd">
<svg version="1.1" xmlns="http://www.w3.org/2000/svg" xmlns:xlink="http://www.w3.org/1999/xlink" x="0px" y="0px" width="16px"
	 height="16px" viewBox="0 0 16 16" enable-background="new 0 0 16 16" xml:space="preserve">
<g id="Dark_Theme_1_" display="none">
	<rect x="-488" y="-392" display="inline" fill="#333333" width="544" height="736"/>
	
		<rect x="-520" y="-424" display="inline" fill="none" stroke="#808080" stroke-width="0.25" stroke-miterlimit="10" width="612" height="792"/>
</g>
<g id="LightTheme" display="none">
	<rect x="-488" y="-392" display="inline" fill="#F8F8F8" width="544" height="736"/>
	
		<rect x="-520" y="-424" display="inline" fill="none" stroke="#808080" stroke-width="0.25" stroke-miterlimit="10" width="612" height="792"/>
</g>
<g id="Hover" display="none">
	<rect x="-488" y="-392" display="inline" fill="#C5E5F9" width="544" height="736"/>
</g>
<g id="Selected" display="none">
	<rect x="-488" y="-392" display="inline" fill="#AADBFA" width="544" height="736"/>
</g>
<g id="Icon_Name">
</g>
<g id="Icons">
	<rect y="-0.1" fill-rule="evenodd" clip-rule="evenodd" fill="none" width="16" height="16"/>
	<path fill="#E5D255" d="M16,14.3c0,0-3.2-1.6-8,0c-4.8,1.6-8,0-8,0L2.1,1.5c0,0,3.2,1.1,5.9,0s5.9,0,5.9,0L16,14.3z"/>
	<path fill="#F8F8F8" d="M12,13.6c0-0.1,0-0.1,0-0.2v-1.5c0-0.6-0.4-1-1-1h-0.5c-0.2,0-0.3,0-0.5,0.1V8.9c0-0.6-0.4-1-1-1H8
		c-0.6,0-1,0.4-1,1V11c-0.2-0.1-0.3-0.1-0.5-0.1H6c-0.6,0-1,0.4-1,1v1.5c0,0.3,0.1,0.5,0.3,0.7L6,14.8c0.6-0.1,1.3-0.3,2-0.5
		C9.5,13.8,10.8,13.6,12,13.6z"/>
	<polygon fill="#E67E08" points="10.5,11.9 9,13.4 9,8.9 8,8.9 8,13.4 6.5,11.9 6,11.9 6,13.4 8.5,15.9 11,13.4 11,11.9 	"/>
</g>
</svg>
