<?xml version="1.0" encoding="utf-8"?>
<!-- Generator: Adobe Illustrator 16.0.4, SVG Export Plug-In . SVG Version: 6.00 Build 0)  -->
<!DOCTYPE svg PUBLIC "-//W3C//DTD SVG 1.1//EN" "http://www.w3.org/Graphics/SVG/1.1/DTD/svg11.dtd">
<svg version="1.1" xmlns="http://www.w3.org/2000/svg" xmlns:xlink="http://www.w3.org/1999/xlink" x="0px" y="0px" width="16px"
	 height="16px" viewBox="0 0 16 16" enable-background="new 0 0 16 16" xml:space="preserve">
<g id="Dark_Theme_1_" display="none">
	<rect x="-104" y="-488" display="inline" fill="#333333" width="544" height="736"/>
	
		<rect x="-136" y="-520" display="inline" fill="none" stroke="#808080" stroke-width="0.25" stroke-miterlimit="10" width="612" height="792"/>
</g>
<g id="LightTheme" display="none">
	<rect x="-104" y="-488" display="inline" fill="#F8F8F8" width="544" height="736"/>
	
		<rect x="-136" y="-520" display="inline" fill="none" stroke="#808080" stroke-width="0.25" stroke-miterlimit="10" width="612" height="792"/>
</g>
<g id="Hover" display="none">
	<rect x="-104" y="-488" display="inline" fill="#C5E5F9" width="544" height="736"/>
</g>
<g id="Selected" display="none">
	<rect x="-104" y="-488" display="inline" fill="#AADBFA" width="544" height="736"/>
</g>
<g id="Icon_Name">
</g>
<g id="Icons">
	<rect fill-rule="evenodd" clip-rule="evenodd" fill="none" width="16" height="16"/>
	<path fill="#E5D255" d="M16,14.4c0,0-3.2-1.6-8,0c-4.8,1.6-8,0-8,0L2.1,1.6c0,0,3.2,1.1,5.9,0s5.9,0,5.9,0L16,14.4z"/>
	<path fill="#F8F8F8" d="M14.6,5.7l-1.5-1.5C12.9,4.1,12.7,4,12.4,4H7C6.4,4,6,4.4,6,5v9.9c0.6-0.1,1.3-0.3,2-0.5c4.8-1.6,8,0,8,0
		L14.6,5.7z"/>
	<polygon fill="#6D6E71" points="16,16 7,16 7,5 12.4,5 16,8.6 	"/>
	<polygon fill="#F8F8F8" points="12.3,6 8,6 8,15 15,15 15,8.7 	"/>
	<rect x="11" y="6" fill="#6D6E71" width="1" height="4"/>
	<rect x="11" y="9" fill="#6D6E71" width="5" height="1"/>
	<rect x="9" y="11" fill="#57A6D9" width="5" height="1"/>
	<rect x="9" y="13" fill="#57A6D9" width="5" height="1"/>
	<rect x="9" y="9" fill="#57A6D9" width="1" height="1"/>
	<rect x="9" y="7" fill="#57A6D9" width="1" height="1"/>
	<path fill="#F8F8F8" d="M7.7,10.8L5.2,8.3C5,8.1,4.8,8,4.5,8H3C2.4,8,2,8.4,2,9c0-0.5-0.4-1-0.9-1l-0.7,4c0.5,0.4,1.1,0.7,1.8,0.9
		C2.1,13.1,2,13.3,2,13.5V14c0,0.6,0.4,1,1,1h1.5c0.3,0,0.5-0.1,0.7-0.3l2.5-2.5C8.1,11.8,8.1,11.2,7.7,10.8z"/>
	<path fill="#68AA67" d="M3,13.5L4.5,12H3c-1.7,0-3-1.3-3-3h1c0,1.1,0.9,2,2,2h1.5L3,9.5V9h1.5L7,11.5L4.5,14H3V13.5z"/>
</g>
</svg>
