<?xml version="1.0" encoding="utf-8"?>
<!-- Generator: Adobe Illustrator 16.0.4, SVG Export Plug-In . SVG Version: 6.00 Build 0)  -->
<!DOCTYPE svg PUBLIC "-//W3C//DTD SVG 1.1//EN" "http://www.w3.org/Graphics/SVG/1.1/DTD/svg11.dtd">
<svg version="1.1" xmlns="http://www.w3.org/2000/svg" xmlns:xlink="http://www.w3.org/1999/xlink" x="0px" y="0px" width="16px"
	 height="16px" viewBox="0 0 16 16" enable-background="new 0 0 16 16" xml:space="preserve">
<g id="Dark_Theme_1_" display="none">
	<rect x="-488" y="-104" display="inline" fill="#333333" width="544" height="736"/>
	
		<rect x="-520" y="-136" display="inline" fill="none" stroke="#808080" stroke-width="0.25" stroke-miterlimit="10" width="612" height="792"/>
</g>
<g id="LightTheme" display="none">
	<rect x="-488" y="-104" display="inline" fill="#F8F8F8" width="544" height="736"/>
	
		<rect x="-520" y="-136" display="inline" fill="none" stroke="#808080" stroke-width="0.25" stroke-miterlimit="10" width="612" height="792"/>
</g>
<g id="Hover" display="none">
	<rect x="-488" y="-104" display="inline" fill="#C5E5F9" width="544" height="736"/>
</g>
<g id="Selected" display="none">
	<rect x="-488" y="-104" display="inline" fill="#AADBFA" width="544" height="736"/>
</g>
<g id="Icon_Name">
</g>
<g id="Icons">
	<rect fill-rule="evenodd" clip-rule="evenodd" fill="none" width="16" height="16"/>
	<path fill="#E5D255" d="M16,14.4c0,0-3.2-1.6-8,0c-4.8,1.6-8,0-8,0L2.1,1.6c0,0,3.2,1.1,5.9,0s5.9,0,5.9,0L16,14.4z"/>
	<polygon fill="#6D6E71" points="3,3 13,3 14,13 2,13 	"/>
	<polygon fill="#D3EAF9" points="3.1,12 3.9,4 12.1,4 12.9,12 	"/>
	<path fill="#6DB5E3" d="M12.8,11.6c-0.1,0-0.2,0-0.2,0l-0.2,0c-0.1,0-0.3,0-0.5,0c-0.8,0-1.5-0.1-2.1-0.4c-0.8-0.3-1.3-0.8-1.7-1.2
		c-0.6,0-1.4-0.1-2.2-0.7C5.5,9.2,5.2,8.9,5,8.6c0,0-0.1-0.1-0.1-0.1C4.8,8.6,4.5,8.7,4.3,8.9L4.2,8.9C4.1,9.1,3.5,9.3,3.4,9.4
		c0,0,0,0,0,0L3.3,9.9c0.1,0,0.2-0.1,0.3-0.1c0.5-0.2,0.8-0.4,0.9-0.5c0,0,0.2-0.2,0.3-0.2C5,9.4,5.2,9.6,5.6,9.8
		c0.9,0.6,1.8,0.7,2.3,0.8c0.5,0.5,1.1,0.9,1.7,1.1c0.3,0.1,0.6,0.2,0.9,0.3h2.4L12.8,11.6z"/>
	<path fill="#5B945A" d="M13,3H3L2.5,8c0,0,0.1,0,0.1,0C2.8,8,2.9,8,3,7.9c0.4-0.2,0.7-0.3,0.7-0.4c0.6-0.4,1-0.8,1.5-0.6
		S5.9,7.6,6.5,8c0.7,0.5,1.5,0.5,2,0.5c0,0,0.1,0,0.1,0c0.1,0.1,0.8,0.8,1.7,1.2s2,0.3,2.4,0.3c0.4,0,0.8-0.1,1.2-0.2L13,3z"/>
	<path fill="#DDEEDB" d="M12.1,4H3.9L3.6,6.7c0.5-0.3,0.9-0.6,1.4-0.6c0.1,0,0.3,0,0.4,0.1c0.5,0.1,0.7,0.5,1,0.7
		c0.1,0.2,0.3,0.3,0.5,0.5C7.4,7.8,8,7.8,8.6,7.8C8.7,7.8,8.9,7.9,9,8l0.1,0.1c0.2,0.2,0.7,0.7,1.4,1c0.3,0.1,0.8,0.2,1.4,0.2
		c0.2,0,0.3,0,0.4,0l0.3,0c0,0,0,0,0,0L12.1,4z"/>
	<rect x="8" y="5" fill="#E89D48" width="1" height="1"/>
	<rect x="10" y="6" fill="#E89D48" width="1" height="1"/>
</g>
</svg>
