<?xml version="1.0" encoding="utf-8"?>
<!-- Generator: Adobe Illustrator 16.0.4, SVG Export Plug-In . SVG Version: 6.00 Build 0)  -->
<!DOCTYPE svg PUBLIC "-//W3C//DTD SVG 1.1//EN" "http://www.w3.org/Graphics/SVG/1.1/DTD/svg11.dtd">
<svg version="1.1" xmlns="http://www.w3.org/2000/svg" xmlns:xlink="http://www.w3.org/1999/xlink" x="0px" y="0px" width="16px"
	 height="16px" viewBox="0 0 16 16" enable-background="new 0 0 16 16" xml:space="preserve">
<g id="Dark_Theme_1_" display="none">
	<rect x="-360" y="-488" display="inline" fill="#333333" width="544" height="736"/>
	
		<rect x="-392" y="-520" display="inline" fill="none" stroke="#808080" stroke-width="0.25" stroke-miterlimit="10" width="612" height="792"/>
</g>
<g id="LightTheme" display="none">
	<rect x="-360" y="-488" display="inline" fill="#F8F8F8" width="544" height="736"/>
	
		<rect x="-392" y="-520" display="inline" fill="none" stroke="#808080" stroke-width="0.25" stroke-miterlimit="10" width="612" height="792"/>
</g>
<g id="Hover" display="none">
	<rect x="-360" y="-488" display="inline" fill="#C5E5F9" width="544" height="736"/>
</g>
<g id="Selected" display="none">
	<rect x="-360" y="-488" display="inline" fill="#AADBFA" width="544" height="736"/>
</g>
<g id="Icon_Name">
</g>
<g id="Icons">
	<polygon fill="#68AA67" points="2,0.5 13,3.5 13,15 2,15 	"/>
	<polygon fill="#DDEEDB" points="3,14 3,1.8 12,4.3 12,14 	"/>
	<rect fill="none" width="16" height="16"/>
	<rect x="1" fill="#5B945A" width="3" height="3"/>
	<rect x="2" y="1" fill="#9BC29C" width="1" height="1"/>
	<rect x="1" y="13" fill="#5B945A" width="3" height="3"/>
	<rect x="2" y="14" fill="#9BC29C" width="1" height="1"/>
	<rect x="11" y="2" fill="#5B945A" width="3" height="3"/>
	<rect x="12" y="3" fill="#9BC29C" width="1" height="1"/>
	<rect x="11" y="13" fill="#5B945A" width="3" height="3"/>
	<rect x="12" y="14" fill="#9BC29C" width="1" height="1"/>
	<rect x="1" y="7" fill-rule="evenodd" clip-rule="evenodd" fill="#F8F8F8" width="13" height="4"/>
	<path fill="#B88B55" d="M0,6v6h15V6H0z M14,11H1V7h13V11z"/>
	<rect x="2" y="9" fill="#B88B55" width="1" height="2"/>
	<rect x="4" y="8" fill="#B88B55" width="1" height="3"/>
	<rect x="6" y="9" fill="#B88B55" width="1" height="2"/>
	<rect x="10" y="9" fill="#B88B55" width="1" height="2"/>
	<rect x="8" y="8" fill="#B88B55" width="1" height="3"/>
	<rect x="12" y="8" fill="#B88B55" width="1" height="3"/>
</g>
</svg>
