<?xml version="1.0" encoding="utf-8"?>
<!-- Generator: Adobe Illustrator 16.0.4, SVG Export Plug-In . SVG Version: 6.00 Build 0)  -->
<!DOCTYPE svg PUBLIC "-//W3C//DTD SVG 1.1//EN" "http://www.w3.org/Graphics/SVG/1.1/DTD/svg11.dtd">
<svg version="1.1" xmlns="http://www.w3.org/2000/svg" xmlns:xlink="http://www.w3.org/1999/xlink" x="0px" y="0px" width="16px"
	 height="16px" viewBox="0 0 16 16" enable-background="new 0 0 16 16" xml:space="preserve">
<g id="Dark_Theme_1_" display="none">
	<rect x="-424" y="-488" display="inline" fill="#333333" width="544" height="736"/>
	
		<rect x="-456" y="-520" display="inline" fill="none" stroke="#808080" stroke-width="0.25" stroke-miterlimit="10" width="612" height="792"/>
</g>
<g id="LightTheme" display="none">
	<rect x="-424" y="-488" display="inline" fill="#F8F8F8" width="544" height="736"/>
	
		<rect x="-456" y="-520" display="inline" fill="none" stroke="#808080" stroke-width="0.25" stroke-miterlimit="10" width="612" height="792"/>
</g>
<g id="Hover" display="none">
	<rect x="-424" y="-488" display="inline" fill="#C5E5F9" width="544" height="736"/>
</g>
<g id="Selected" display="none">
	<rect x="-424" y="-488" display="inline" fill="#AADBFA" width="544" height="736"/>
</g>
<g id="Icon_Name">
</g>
<g id="Icons">
	<rect x="1" y="9" fill-rule="evenodd" clip-rule="evenodd" fill="#F8F8F8" width="14" height="4"/>
	<rect y="-1" fill="none" width="16" height="16"/>
	<g>
		<path fill="#B88B55" d="M0,8v6h16V8H0z M15,13H1V9h14V13z"/>
		<rect x="2" y="11" fill="#B88B55" width="1" height="2"/>
		<rect x="4" y="10" fill="#B88B55" width="1" height="3"/>
		<rect x="6" y="11" fill="#B88B55" width="1" height="2"/>
		<rect x="10" y="11" fill="#B88B55" width="1" height="2"/>
		<rect x="14" y="11" fill="#B88B55" width="1" height="2"/>
		<rect x="8" y="10" fill="#B88B55" width="1" height="3"/>
		<rect x="12" y="10" fill="#B88B55" width="1" height="3"/>
	</g>
	<polygon fill="#6D6E71" points="5,0 3.8,0 0.8,3 0.8,3 3.8,6 5,6 5,5 4,5 4,4 7,4 7,2 4,2 4,1 5,1 	"/>
	<polygon fill="#6D6E71" points="11,6 12.2,6 15.2,3 15.2,3 12.2,0 11,0 11,1 12,1 12,2 9,2 9,4 12,4 12,5 11,5 	"/>
</g>
</svg>
