<?xml version="1.0" encoding="utf-8"?>
<!-- Generator: Adobe Illustrator 16.0.4, SVG Export Plug-In . SVG Version: 6.00 Build 0)  -->
<!DOCTYPE svg PUBLIC "-//W3C//DTD SVG 1.1//EN" "http://www.w3.org/Graphics/SVG/1.1/DTD/svg11.dtd">
<svg version="1.1" xmlns="http://www.w3.org/2000/svg" xmlns:xlink="http://www.w3.org/1999/xlink" x="0px" y="0px" width="16px"
	 height="16px" viewBox="0 0 16 16" enable-background="new 0 0 16 16" xml:space="preserve">
<g id="Dark_Theme_1_" display="none">
	<rect x="-296" y="-488" display="inline" fill="#333333" width="544" height="736"/>
	
		<rect x="-328" y="-520" display="inline" fill="none" stroke="#808080" stroke-width="0.25" stroke-miterlimit="10" width="612" height="792"/>
</g>
<g id="LightTheme" display="none">
	<rect x="-296" y="-488" display="inline" fill="#F8F8F8" width="544" height="736"/>
	
		<rect x="-328" y="-520" display="inline" fill="none" stroke="#808080" stroke-width="0.25" stroke-miterlimit="10" width="612" height="792"/>
</g>
<g id="Hover" display="none">
	<rect x="-296" y="-488" display="inline" fill="#C5E5F9" width="544" height="736"/>
</g>
<g id="Selected" display="none">
	<rect x="-296" y="-488" display="inline" fill="#AADBFA" width="544" height="736"/>
</g>
<g id="Icon_Name">
</g>
<g id="Icons">
	<path fill="#6D6E71" d="M0,9v3c0,0.6,0.4,1,1,1h14c0.6,0,1-0.4,1-1V9H0z"/>
	<path fill="#A7A9AC" d="M0,8h16c0-0.2-0.1-0.4-0.2-0.6h0l-1.3-2.8C13.9,3.9,13,4,13,4H3c0,0-0.9-0.1-1.5,0.6L0.2,7.4h0
		C0.1,7.6,0,7.8,0,8z"/>
	<polygon fill="#F8F8F8" points="13,7 3,7 3.5,6 12.5,6 	"/>
	<rect x="3" y="9" fill="#F8F8F8" width="10" height="2"/>
	<rect x="4" y="10" fill="#6D6E71" width="8" height="5"/>
	<rect x="5" y="11" fill="#F8F8F8" width="6" height="3"/>
	<rect x="6" y="12" fill="#6DB5E3" width="4" height="1"/>
	<polygon fill="#6D6E71" points="9.5,0 4,0 4,6 12,6 12,2.6 	"/>
	<polygon fill="#F8F8F8" points="11,3 9,3 9,1 	"/>
	<polygon fill="#F8F8F8" points="9,1 9,3 11,3 	"/>
	<polygon fill="#F8F8F8" points="11,5 11,4 8,4 8,1 5,1 5,5 	"/>
	<rect fill="none" width="16" height="16"/>
	<rect y="8" fill="#F8F8F8" width="16" height="1"/>
</g>
</svg>
