<?xml version="1.0" encoding="utf-8"?>
<!-- Generator: Adobe Illustrator 16.0.4, SVG Export Plug-In . SVG Version: 6.00 Build 0)  -->
<!DOCTYPE svg PUBLIC "-//W3C//DTD SVG 1.1//EN" "http://www.w3.org/Graphics/SVG/1.1/DTD/svg11.dtd">
<svg version="1.1" xmlns="http://www.w3.org/2000/svg" xmlns:xlink="http://www.w3.org/1999/xlink" x="0px" y="0px" width="16px"
	 height="16px" viewBox="0 0 16 16" enable-background="new 0 0 16 16" xml:space="preserve">
<g id="Dark_Theme_1_" display="none">
	<rect x="-168" y="-392" display="inline" fill="#333333" width="544" height="736"/>
	
		<rect x="-200" y="-424" display="inline" fill="none" stroke="#808080" stroke-width="0.25" stroke-miterlimit="10" width="612" height="792"/>
</g>
<g id="LightTheme" display="none">
	<rect x="-168" y="-392" display="inline" fill="#F8F8F8" width="544" height="736"/>
	
		<rect x="-200" y="-424" display="inline" fill="none" stroke="#808080" stroke-width="0.25" stroke-miterlimit="10" width="612" height="792"/>
</g>
<g id="Hover" display="none">
	<rect x="-168" y="-392" display="inline" fill="#C5E5F9" width="544" height="736"/>
</g>
<g id="Selected" display="none">
	<rect x="-168" y="-392" display="inline" fill="#AADBFA" width="544" height="736"/>
</g>
<g id="Icon_Name">
</g>
<g id="Icons">
	<rect fill-rule="evenodd" clip-rule="evenodd" fill="none" width="16" height="16"/>
	<path fill="#E5D255" d="M16,14.4c0,0-3.2-1.6-8,0c-4.8,1.6-8,0-8,0L2.1,1.6c0,0,3.2,1.1,5.9,0s5.9,0,5.9,0L16,14.4z"/>
	<path fill="#F8F8F8" d="M9.6,12l2.1-2.1C11.9,9.7,12,9.5,12,9.2V8c0-0.6-0.4-1-1-1H9.8C9.5,7,9.3,7.1,9.1,7.3L7,9.4L4.9,7.3
		C4.7,7.1,4.5,7,4.2,7H3C2.4,7,2,7.4,2,8v1.2c0,0.3,0.1,0.5,0.3,0.7L4.4,12l-2.1,2.1C2.1,14.3,2,14.5,2,14.8V15
		c1.2,0.2,2.9,0.2,4.9-0.3L7,14.6l0.1,0.1c0.3-0.1,0.6-0.2,0.9-0.3c1.2-0.4,2.3-0.6,3.3-0.7L9.6,12z"/>
	<polygon fill="#C7552E" points="3,8 4.2,8 11,14.8 11,16 9.8,16 3,9.2 	"/>
	<polygon fill="#C7552E" points="3,16 3,14.8 9.8,8 11,8 11,9.2 4.2,16 	"/>
</g>
</svg>
