<?xml version="1.0" encoding="utf-8"?>
<!-- Generator: Adobe Illustrator 16.0.4, SVG Export Plug-In . SVG Version: 6.00 Build 0)  -->
<!DOCTYPE svg PUBLIC "-//W3C//DTD SVG 1.1//EN" "http://www.w3.org/Graphics/SVG/1.1/DTD/svg11.dtd">
<svg version="1.1" xmlns="http://www.w3.org/2000/svg" xmlns:xlink="http://www.w3.org/1999/xlink" x="0px" y="0px" width="16px"
	 height="16px" viewBox="0 0 16 16" enable-background="new 0 0 16 16" xml:space="preserve">
<g id="Dark_Theme_1_" display="none">
	<rect x="-104" y="-392" display="inline" fill="#333333" width="544" height="736"/>
	
		<rect x="-136" y="-424" display="inline" fill="none" stroke="#808080" stroke-width="0.25" stroke-miterlimit="10" width="612" height="792"/>
</g>
<g id="LightTheme" display="none">
	<rect x="-104" y="-392" display="inline" fill="#F8F8F8" width="544" height="736"/>
	
		<rect x="-136" y="-424" display="inline" fill="none" stroke="#808080" stroke-width="0.25" stroke-miterlimit="10" width="612" height="792"/>
</g>
<g id="Hover" display="none">
	<rect x="-104" y="-392" display="inline" fill="#C5E5F9" width="544" height="736"/>
</g>
<g id="Selected" display="none">
	<rect x="-104" y="-392" display="inline" fill="#AADBFA" width="544" height="736"/>
</g>
<g id="Icon_Name">
</g>
<g id="Icons">
	<rect fill-rule="evenodd" clip-rule="evenodd" fill="none" width="16" height="16"/>
	<path fill="#E5D255" d="M16,14.4c0,0-3.2-1.6-8,0c-4.8,1.6-8,0-8,0L2.1,1.6c0,0,3.2,1.1,5.9,0s5.9,0,5.9,0L16,14.4z"/>
	<g>
		<rect x="2" y="7" fill="#797979" width="12" height="9"/>
		<rect x="2" y="7" fill="#6D6E71" width="12" height="9"/>
		<rect x="3" y="8" fill="#FFFFFF" width="10" height="7"/>
		<rect x="8" y="8" fill="#D3EAF9" width="5" height="7"/>
		<rect x="9" y="9" fill="#57A6D9" width="3" height="1"/>
		<rect x="10" y="10" fill="#57A6D9" width="1" height="4"/>
		<path fill="#6D6E71" d="M5,10v3h1v-3H5z M7,9H6v1h1V9z M4,9v1h1V9H4z M7,14v-1H6v1H7z M4,14h1v-1H4V14z"/>
	</g>
</g>
</svg>
