<?xml version="1.0" encoding="utf-8"?>
<!-- Generator: Adobe Illustrator 16.0.4, SVG Export Plug-In . SVG Version: 6.00 Build 0)  -->
<!DOCTYPE svg PUBLIC "-//W3C//DTD SVG 1.1//EN" "http://www.w3.org/Graphics/SVG/1.1/DTD/svg11.dtd">
<svg version="1.1" xmlns="http://www.w3.org/2000/svg" xmlns:xlink="http://www.w3.org/1999/xlink" x="0px" y="0px" width="16px"
	 height="16px" viewBox="0 0 16 16" enable-background="new 0 0 16 16" xml:space="preserve">
<g id="Dark_Theme_1_" display="none">
	<rect x="-296" y="-392" display="inline" fill="#333333" width="544" height="736"/>
	
		<rect x="-328" y="-424" display="inline" fill="none" stroke="#808080" stroke-width="0.25" stroke-miterlimit="10" width="612" height="792"/>
</g>
<g id="LightTheme" display="none">
	<rect x="-296" y="-392" display="inline" fill="#F8F8F8" width="544" height="736"/>
	
		<rect x="-328" y="-424" display="inline" fill="none" stroke="#808080" stroke-width="0.25" stroke-miterlimit="10" width="612" height="792"/>
</g>
<g id="Hover" display="none">
	<rect x="-296" y="-392" display="inline" fill="#C5E5F9" width="544" height="736"/>
</g>
<g id="Selected" display="none">
	<rect x="-296" y="-392" display="inline" fill="#AADBFA" width="544" height="736"/>
</g>
<g id="Icon_Name">
</g>
<g id="Icons">
	<rect x="1" y="9" fill="#6D6E71" width="14" height="6"/>
	<rect x="2" y="10" fill="#6DB5E3" width="4" height="2"/>
	<rect x="6" y="12" fill="#6DB5E3" width="4" height="2"/>
	<rect x="6" y="10" fill="#F8F8F8" width="4" height="2"/>
	<rect x="10" y="12" fill="#F8F8F8" width="4" height="2"/>
	<rect x="2" y="12" fill="#F8F8F8" width="4" height="2"/>
	<rect x="10" y="10" fill="#6DB5E3" width="4" height="2"/>
	<rect fill-rule="evenodd" clip-rule="evenodd" fill="none" width="16" height="16"/>
	<path fill="#F8F8F8" d="M3.3,9l0.4,0.6C3.9,9.8,4.2,10,4.5,10h0c0.3,0,0.6-0.2,0.8-0.4L5.7,9H3.3z"/>
	<path fill="#F8F8F8" d="M11,10h1c0.6,0,1-0.4,1-1h-3C10,9.6,10.4,10,11,10z"/>
	<polygon fill="#6D6E71" points="6.5,5 5,6.5 5,2 4,2 4,6.5 2.5,5 2,5 2,6.5 4.5,9 7,6.5 7,5 	"/>
	<polygon fill="#6D6E71" points="9.5,6 11,4.5 11,9 12,9 12,4.5 13.5,6 14,6 14,4.5 11.5,2 9,4.5 9,6 	"/>
</g>
</svg>
