<?xml version="1.0" encoding="utf-8"?>
<!-- Generator: Adobe Illustrator 16.0.4, SVG Export Plug-In . SVG Version: 6.00 Build 0)  -->
<!DOCTYPE svg PUBLIC "-//W3C//DTD SVG 1.1//EN" "http://www.w3.org/Graphics/SVG/1.1/DTD/svg11.dtd">
<svg version="1.1" xmlns="http://www.w3.org/2000/svg" xmlns:xlink="http://www.w3.org/1999/xlink" x="0px" y="0px" width="16px"
	 height="16px" viewBox="0 0 16 16" enable-background="new 0 0 16 16" xml:space="preserve">
<g id="Dark_Theme_1_" display="none">
	<rect x="-424" y="-296" display="inline" fill="#333333" width="544" height="736"/>
	
		<rect x="-456" y="-328" display="inline" fill="none" stroke="#808080" stroke-width="0.25" stroke-miterlimit="10" width="612" height="792"/>
</g>
<g id="LightTheme" display="none">
	<rect x="-424" y="-296" display="inline" fill="#F8F8F8" width="544" height="736"/>
	
		<rect x="-456" y="-328" display="inline" fill="none" stroke="#808080" stroke-width="0.25" stroke-miterlimit="10" width="612" height="792"/>
</g>
<g id="Hover" display="none">
	<rect x="-424" y="-296" display="inline" fill="#C5E5F9" width="544" height="736"/>
</g>
<g id="Selected" display="none">
	<rect x="-424" y="-296" display="inline" fill="#AADBFA" width="544" height="736"/>
</g>
<g id="Icon_Name">
</g>
<g id="Icons">
	<rect fill="#6D6E71" width="14" height="14"/>
	<rect x="1" y="1" fill="#D3EAF9" width="12" height="12"/>
	<path fill="#9BC29C" d="M5.4,13c0-0.3,0.1-0.5,0.2-0.7c0.1-0.1,0.1-0.3,0.1-0.5c0-0.5-0.9-0.3-1.1-0.6c-0.4-0.7,0.6-0.9,0.6-1.5
		c0-0.1-0.1-0.4-0.3-0.4c-0.3,0-0.4,0.1-0.7,0.1C4,9.4,3.8,9.3,3.8,9.1c0-0.3,0.3-0.5,0.3-0.8C4.1,8,4,7.9,4,7.7
		c0-0.3,0.2-0.6,0.5-0.6c0.3,0,0.4,0.2,0.5,0.5c0.1,0.2,0.3,0.3,0.5,0.3C6,7.9,6.3,7.3,6.3,7c0-0.2,0.2-0.4,0.4-0.4
		c0.3,0,0.4,0.3,0.7,0.3c0.5,0,0.5-0.7,0.9-0.9c0.5-0.3,0.4-0.9,0.3-1.3c0-0.1,0.3-0.4,0.4-0.4c0.6,0,0.4-0.5,0.4-0.7
		c0,0,0-0.1,0-0.1C9.5,3.2,10,3.1,10,2.7c0-0.2-0.2-0.4-0.2-0.6c0-0.4,0.5-0.7,1.1-1c0.1-0.1,0.2,0,0.2-0.2H1v12L5.4,13
		C5.4,12.9,5.4,13,5.4,13z"/>
	<path fill="#F8F8F8" d="M1,1v12h12V1H1z M12,12H2V2h10V12z"/>
	<rect fill-rule="evenodd" clip-rule="evenodd" fill="none" width="14" height="14"/>
	<path fill="#E5D255" d="M16,15.6c0,0-2-1-5,0c-3,1-5,0-5,0l1-8c0,0,2.3,0.7,4,0c1.7-0.7,4,0,4,0L16,15.6z"/>
	<path fill="#D9C44C" d="M14,14V7.3c-0.8-0.1-2-0.2-3,0.2c-1.7,0.7-4,0-4,0L6.2,14H14z"/>
	<path fill="#E5D255" d="M13,13V7.2c-0.7,0-1.4,0-2,0.3c-1.7,0.7-4,0-4,0L6.3,13H13z"/>
	<path fill="#F8F8F8" d="M14,14V6.3c-0.2,0-0.3,0-0.5-0.1c0,0-0.1,0-0.1,0l-0.2,0l-0.2,0l-0.5,0c0,0-0.2,0-0.2,0l-0.2,0
		c-0.1,0-0.3,0-0.5,0.1c0,0-0.3,0.1-0.3,0.1c-0.3,0.1-0.5,0.1-0.7,0.2c-0.4,0.2-0.8,0.2-1.4,0.2c-1,0-1.9-0.3-1.9-0.3
		c-0.1,0-0.2,0-0.3,0c-0.2,0-0.4,0.1-0.6,0.2C6.2,6.9,6,7.1,6,7.4L5.2,14H14z"/>
	<path fill="#E5D255" d="M15,7.5c0,0-0.4-0.1-1-0.2l0,0c0,0,0,0,0,0c-0.2,0-0.4,0-0.6-0.1c-0.1,0-0.1,0-0.2,0c-0.1,0-0.2,0-0.2,0
		l0,0c0,0,0,0,0,0c0,0,0,0,0,0c-0.1,0-0.3,0-0.4,0c0,0,0,0,0,0c0,0-0.1,0-0.1,0c-0.1,0-0.1,0-0.2,0c-0.1,0-0.2,0-0.4,0
		c0,0-0.1,0-0.1,0c0,0-0.1,0-0.1,0c-0.2,0-0.4,0.1-0.6,0.2c-1.7,0.7-4,0-4,0l-1,8c0,0,2,1,5,0c3-1,5,0,5,0L15,7.5z"/>
	<path fill="#D9C44C" d="M13,13V9c-0.3,0.1-0.5,0.7-0.6,0.7c-0.2,0-0.4,0-0.6,0c-0.3,0-0.6-0.2-0.8-0.4c-0.2-0.2-0.2-0.7-0.5-0.7
		c-0.4,0-0.5,0.6-0.9,0.6C9.5,9.2,9.3,9,9.1,9C9,9,8.8,9.1,8.8,9.3c0,0.1,0,0.3,0,0.4c0,0.4-0.4,0.4-0.4,0.8c0,0.2,0.2,0.2,0.2,0.4
		c0,0.5-0.8,0.4-0.8,0.9c0,0.2,0.2,0.3,0.2,0.4c0,0,0,0,0,0c0,0.2-0.3,0.4-0.4,0.7H13z"/>
	<path fill="#F3E9AB" d="M13,7.2c-0.3,0-0.7,0-1,0.1V12H6.4l-0.1,1H13V7.2z"/>
	<rect fill="none" width="16" height="16"/>
</g>
</svg>
