<?xml version="1.0" encoding="utf-8"?>
<!-- Generator: Adobe Illustrator 16.0.4, SVG Export Plug-In . SVG Version: 6.00 Build 0)  -->
<!DOCTYPE svg PUBLIC "-//W3C//DTD SVG 1.1//EN" "http://www.w3.org/Graphics/SVG/1.1/DTD/svg11.dtd">
<svg version="1.1" xmlns="http://www.w3.org/2000/svg" xmlns:xlink="http://www.w3.org/1999/xlink" x="0px" y="0px" width="16px"
	 height="16px" viewBox="0 0 16 16" enable-background="new 0 0 16 16" xml:space="preserve">
<g id="Dark_Theme_1_" display="none">
	<rect x="-104" y="-200" display="inline" fill="#333333" width="544" height="736"/>
	
		<rect x="-136" y="-232" display="inline" fill="none" stroke="#808080" stroke-width="0.25" stroke-miterlimit="10" width="612" height="792"/>
</g>
<g id="LightTheme" display="none">
	<rect x="-104" y="-200" display="inline" fill="#F8F8F8" width="544" height="736"/>
	
		<rect x="-136" y="-232" display="inline" fill="none" stroke="#808080" stroke-width="0.25" stroke-miterlimit="10" width="612" height="792"/>
</g>
<g id="Hover" display="none">
	<rect x="-104" y="-200" display="inline" fill="#C5E5F9" width="544" height="736"/>
</g>
<g id="Selected" display="none">
	<rect x="-104" y="-200" display="inline" fill="#AADBFA" width="544" height="736"/>
</g>
<g id="Icon_Name">
</g>
<g id="Icons">
	<rect fill="none" width="16" height="16"/>
	<path fill="#6D6E71" d="M16,14c0,0.6-0.4,1-1,1H1c-0.6,0-1-0.4-1-1V3c0-0.6,0.4-1,1-1h14c0.6,0,1,0.4,1,1V14z"/>
	<linearGradient id="SVGID_1_" gradientUnits="userSpaceOnUse" x1="3.8691" y1="1.3447" x2="12.1323" y2="15.657">
		<stop  offset="0" style="stop-color:#8C8C8C"/>
		<stop  offset="1" style="stop-color:#404040"/>
	</linearGradient>
	<polygon fill="url(#SVGID_1_)" points="15,14 15,14 1,14 1,14 1,3 1,3 15,3 15,3 	"/>
	<polygon fill="#F8F8F8" points="15,14 15,14 1,14 1,14 1,5 1,5 15,5 15,5 	"/>
	<rect x="1" y="3" fill="#939598" width="14" height="2"/>
	<rect x="4" y="5" fill="#939598" width="1" height="9"/>
	<rect x="6" y="6" fill="none" width="10" height="10"/>
	<rect x="5" y="5" fill="#F8F8F8" width="10" height="9"/>
	<path fill="#A7A9AC" d="M8.3,14c0-0.2,0.1-0.3,0.1-0.5c0-0.1,0.1-0.2,0.1-0.4c0-0.4-0.7-0.3-0.8-0.5c-0.3-0.5,0.5-0.7,0.5-1.1
		c0-0.1-0.1-0.3-0.2-0.3c-0.2,0-0.3,0.1-0.5,0.1c-0.1,0-0.3-0.1-0.3-0.2c0-0.3,0.2-0.4,0.2-0.6c0-0.2-0.1-0.3-0.1-0.4
		c0-0.2,0.2-0.4,0.4-0.4C7.9,9.6,8,9.8,8.1,10c0.1,0.2,0.2,0.2,0.4,0.2C8.8,10.2,9,9.8,9,9.5c0-0.2,0.1-0.3,0.3-0.3
		c0.2,0,0.3,0.2,0.5,0.2c0.4,0,0.4-0.5,0.7-0.7c0.4-0.2,0.3-0.7,0.2-0.9c0-0.1,0.2-0.3,0.3-0.3c0.5,0,0.3-0.4,0.3-0.5
		c0,0,0-0.1,0-0.1c0.1-0.2,0.4-0.3,0.4-0.5c0-0.2-0.2-0.3-0.2-0.5c0-0.3,0.4-0.5,0.8-0.7c0.1,0,0.2,0,0.2-0.1H5v9L8.3,14
		C8.3,13.9,8.3,14,8.3,14z"/>
	<path fill="#A7A9AC" d="M15,14v-3c-0.2,0.1-0.4,0.5-0.4,0.5c-0.1,0-0.3,0-0.4,0c-0.2,0-0.4-0.1-0.6-0.3c-0.2-0.2-0.2-0.5-0.4-0.5
		c-0.3,0-0.3,0.4-0.7,0.4c-0.1,0-0.2-0.1-0.4-0.1c-0.1,0-0.3,0.1-0.3,0.2c0,0.1,0,0.2,0,0.3c0,0.3-0.3,0.3-0.3,0.6
		c0,0.1,0.1,0.2,0.1,0.3c0,0.4-0.6,0.3-0.6,0.7c0,0.1,0.1,0.2,0.1,0.3c0,0,0,0,0,0c0,0.1-0.2,0.3-0.3,0.5H15z"/>
</g>
</svg>
