<?xml version="1.0" encoding="utf-8"?>
<!-- Generator: Adobe Illustrator 16.0.4, SVG Export Plug-In . SVG Version: 6.00 Build 0)  -->
<!DOCTYPE svg PUBLIC "-//W3C//DTD SVG 1.1//EN" "http://www.w3.org/Graphics/SVG/1.1/DTD/svg11.dtd">
<svg version="1.1" xmlns="http://www.w3.org/2000/svg" xmlns:xlink="http://www.w3.org/1999/xlink" x="0px" y="0px" width="16px"
	 height="16px" viewBox="0 0 16 16" enable-background="new 0 0 16 16" xml:space="preserve">
<g id="Dark_Theme_1_" display="none">
	<rect x="-488" y="-584" display="inline" fill="#333333" width="544" height="736"/>
	
		<rect x="-520" y="-616" display="inline" fill="none" stroke="#808080" stroke-width="0.25" stroke-miterlimit="10" width="612" height="792"/>
</g>
<g id="LightTheme" display="none">
	<rect x="-488" y="-584" display="inline" fill="#F8F8F8" width="544" height="736"/>
	
		<rect x="-520" y="-616" display="inline" fill="none" stroke="#808080" stroke-width="0.25" stroke-miterlimit="10" width="612" height="792"/>
</g>
<g id="Hover" display="none">
	<rect x="-488" y="-584" display="inline" fill="#C5E5F9" width="544" height="736"/>
</g>
<g id="Selected" display="none">
	<rect x="-488" y="-584" display="inline" fill="#AADBFA" width="544" height="736"/>
</g>
<g id="Icon_Name">
</g>
<g id="Icons">
	<rect fill-rule="evenodd" clip-rule="evenodd" fill="none" width="16" height="16"/>
	<polygon fill-rule="evenodd" clip-rule="evenodd" fill="#6D6E71" points="6,0 0,0 0,6 1.4,6 1.4,1.4 6,1.4 	"/>
	<polygon fill-rule="evenodd" clip-rule="evenodd" fill="#6D6E71" points="10,0 16,0 16,6 14.6,6 14.6,1.4 10,1.4 	"/>
	<polygon fill-rule="evenodd" clip-rule="evenodd" fill="#6D6E71" points="10,16 16,16 16,10 14.6,10 14.6,14.6 10,14.6 	"/>
	<polygon fill-rule="evenodd" clip-rule="evenodd" fill="#6D6E71" points="6,16 0,16 0,10 1.4,10 1.4,14.6 6,14.6 	"/>
	<polygon fill="#6D6E71" points="11.1,10 10.1,10 10,10.1 10,11.1 14.6,15.8 15.8,14.6 	"/>
	<polygon fill="#6D6E71" points="6,10.1 5.9,10 4.9,10 0.2,14.6 1.4,15.8 6,11.1 	"/>
	<polygon fill="#6D6E71" points="5.9,6 6,5.9 6,4.9 1.4,0.2 0.2,1.4 4.9,6 	"/>
	<polygon fill="#6D6E71" points="10,5.9 10.1,6 11.1,6 15.8,1.4 14.6,0.2 10,4.9 	"/>
</g>
</svg>
