<?xml version="1.0" encoding="utf-8"?>
<!-- Generator: Adobe Illustrator 16.0.4, SVG Export Plug-In . SVG Version: 6.00 Build 0)  -->
<!DOCTYPE svg PUBLIC "-//W3C//DTD SVG 1.1//EN" "http://www.w3.org/Graphics/SVG/1.1/DTD/svg11.dtd">
<svg version="1.1" id="Layer_1" xmlns="http://www.w3.org/2000/svg" xmlns:xlink="http://www.w3.org/1999/xlink" x="0px" y="0px"
	 width="32px" height="32px" viewBox="0 0 32 32" enable-background="new 0 0 32 32" xml:space="preserve">
<path d="M25.5,13H24v-2.6C24,5.6,20.6,2,16,2s-8,3.7-8,8.5V13H6.5C5.7,13,5,13.7,5,14.5v13C5,28.3,5.7,29,6.5,29h19
	c0.8,0,1.5-0.7,1.5-1.5v-13C27,13.7,26.3,13,25.5,13z M18,24h-4v-2c0-1.1,0.9-2,2-2c1.1,0,2,0.9,2,2V24z M21,13H11v-2.5
	C11,7.4,13.1,5,16,5c2.9,0,5,2.3,5,5.4V13z"/>
<g>
</g>
<g>
</g>
<g>
</g>
<g>
</g>
<g>
</g>
<g>
</g>
<g>
</g>
<g>
</g>
<g>
</g>
<g>
</g>
<g>
</g>
<g>
</g>
<g>
</g>
<g>
</g>
<g>
</g>
</svg>
