<?xml version="1.0" encoding="utf-8"?>
<!-- Generator: Adobe Illustrator 16.0.4, SVG Export Plug-In . SVG Version: 6.00 Build 0)  -->
<!DOCTYPE svg PUBLIC "-//W3C//DTD SVG 1.1//EN" "http://www.w3.org/Graphics/SVG/1.1/DTD/svg11.dtd">
<svg version="1.1" id="Layer_1" xmlns="http://www.w3.org/2000/svg" xmlns:xlink="http://www.w3.org/1999/xlink" x="0px" y="0px"
	 width="32px" height="32px" viewBox="0 0 32 32" enable-background="new 0 0 32 32" xml:space="preserve">
<path d="M29,3H3C2.4,3,2,3.4,2,4v23c0,0.6,0.4,1,1,1h26c0.6,0,1-0.4,1-1V4C30,3.4,29.6,3,29,3z M24,4c0.6,0,1,0.5,1,1s-0.5,1-1,1
	s-1-0.5-1-1S23.5,4,24,4z M21,4c0.6,0,1,0.5,1,1s-0.5,1-1,1s-1-0.5-1-1S20.5,4,21,4z M28,26H4V8h24V26z M27,6c-0.6,0-1-0.5-1-1
	s0.5-1,1-1s1,0.5,1,1S27.6,6,27,6z"/>
<path d="M18.5,18l1.8-0.7c0.4-0.1,0.6-0.5,0.6-0.9c0-0.4-0.2-0.8-0.6-0.9l-7.9-3.3c-0.4-0.2-0.8-0.1-1.1,0.2
	c-0.3,0.3-0.4,0.7-0.2,1.1l3.3,7.9c0.2,0.4,0.5,0.6,0.9,0.6c0,0,0,0,0,0c0.4,0,0.8-0.3,0.9-0.7l0.7-1.9l2.5,2.5
	c0.2,0.2,0.5,0.3,0.7,0.3s0.5-0.1,0.7-0.3c0.4-0.4,0.4-1,0-1.4L18.5,18z"/>
<g>
</g>
<g>
</g>
<g>
</g>
<g>
</g>
<g>
</g>
<g>
</g>
<g>
</g>
<g>
</g>
<g>
</g>
<g>
</g>
<g>
</g>
<g>
</g>
<g>
</g>
<g>
</g>
<g>
</g>
</svg>
