<?xml version="1.0" encoding="utf-8"?>
<!-- Generator: Adobe Illustrator 16.0.4, SVG Export Plug-In . SVG Version: 6.00 Build 0)  -->
<!DOCTYPE svg PUBLIC "-//W3C//DTD SVG 1.1//EN" "http://www.w3.org/Graphics/SVG/1.1/DTD/svg11.dtd">
<svg version="1.1" id="Layer_1" xmlns="http://www.w3.org/2000/svg" xmlns:xlink="http://www.w3.org/1999/xlink" x="0px" y="0px"
	 width="32px" height="32px" viewBox="0 0 32 32" enable-background="new 0 0 32 32" xml:space="preserve">
<path d="M26,6.7C26,3.6,21,2,16,2S6,3.6,6,6.7l0,0l0,0v6.2v6.2v6.2c0,3,5,4.7,10,4.7s10-1.6,10-4.7v-6.2v-6.2V6.7L26,6.7L26,6.7z
	 M24.1,25.3c0,1-3.2,2.7-8.1,2.7c-4.9,0-8.1-1.6-8.1-2.7v-3.4c2,1.2,5.1,1.9,8.1,1.9c3.1,0,6.2-0.6,8.1-1.8V25.3z M24.1,19.1
	c0,1-3.2,2.7-8.1,2.7c-4.9,0-8.1-1.6-8.1-2.7v-3.4c1.9,1.2,5,1.8,8.1,1.8c3.1,0,6.2-0.6,8.1-1.8V19.1z M24.1,12.9
	c0,1-3.2,2.7-8.1,2.7c-4.9,0-8.1-1.6-8.1-2.7V9.5c1.9,1.2,5,1.8,8.1,1.8c3.1,0,6.2-0.6,8.1-1.8V12.9z M16,9.3
	c-4.9,0-8.1-1.6-8.1-2.7c0-1.1,3.2-2.7,8.1-2.7c4.9,0,8.1,1.6,8.1,2.7C24.1,7.7,20.9,9.3,16,9.3z"/>
</svg>
