<?xml version="1.0" encoding="utf-8"?>
<!-- Generated by IcoMoon.io -->
<!DOCTYPE svg PUBLIC "-//W3C//DTD SVG 1.1//EN" "http://www.w3.org/Graphics/SVG/1.1/DTD/svg11.dtd">
<svg version="1.1" xmlns="http://www.w3.org/2000/svg" xmlns:xlink="http://www.w3.org/1999/xlink" width="32" height="32" viewBox="0 0 32 32">
<path fill="rgb(0, 0, 0)" d="M29 3.73c-0.619-0.357-1.381-0.355-2 0.002-15.146 8.745-7.485 4.321-13.858 8.001-0.305 0.176-0.646 0.267-0.999 0.267-3.69 0-6.106 0-7.662 0-1.788 0-2.434 0-2.463 0-0.006 0-0.011 0-0.017 0-1.105 0-2 0.895-2 2v4.001c0 1.105 0.895 2 2 2v4c0 1.105 0.896 2 2 2h6c1.104 0 2-0.895 2-2v-4c0.051 0 0.092 0 0.143 0 0.35 0 0.696 0.092 0.999 0.267 6.385 3.686-1.023-0.591 13.858 8.001 0.619 0.357 1.381 0.357 2 0s1.001-1.016 1.001-1.731c0-9.111 0-11.964 0-21.075 0-0.715-0.381-1.375-1-1.732zM10 24h-6v-4c0.253 0 0.507 0 0.731 0 2.414 0 3.188 0 3.147 0 0.595 0 1.313 0 2.122 0v4z"></path>
</svg>
