<?xml version="1.0" encoding="utf-8"?>
<!-- Generated by IcoMoon.io -->
<!DOCTYPE svg PUBLIC "-//W3C//DTD SVG 1.1//EN" "http://www.w3.org/Graphics/SVG/1.1/DTD/svg11.dtd">
<svg version="1.1" xmlns="http://www.w3.org/2000/svg" xmlns:xlink="http://www.w3.org/1999/xlink" width="32" height="32" viewBox="0 0 32 32">
<path fill="rgb(0, 0, 0)" d="M28 8h-24c-1.1 0-2-0.9-2-2v0c0-1.1 0.9-2 2-2h24c1.1 0 2 0.9 2 2v0c0 1.1-0.9 2-2 2zM28 18h-24c-1.1 0-2-0.9-2-2v0c0-1.1 0.9-2 2-2h24c1.1 0 2 0.9 2 2v0c0 1.1-0.9 2-2 2zM28 28h-24c-1.1 0-2-0.9-2-2v0c0-1.1 0.9-2 2-2h24c1.1 0 2 0.9 2 2v0c0 1.1-0.9 2-2 2z"></path>
</svg>
