<svg xmlns="http://www.w3.org/2000/svg">
	<symbol id="c-arrow-right" viewBox="0 0 16 16" style="fill:var(--fill,#000000)">
		<path d="M3 6.982h9.452L9.948 4.48l.707-.707L14.384 7.5l-3.729 3.729-.707-.707 2.54-2.54H3z"/>
	</symbol>
	<symbol id="c-chevron-up" viewBox="0 0 16 16" style="fill:var(--fill,#000000)">
		<path d="M8.5 6.207l-4.5 4.5V9.293l4.5-4.5 4.5 4.5v1.414z"/>
	</symbol>
	<symbol id="c-chevron-right" viewBox="0 0 16 16" style="fill:var(--fill,#000000)">
		<path d="M5.293 3h1.414l4.5 4.5-4.5 4.5H5.293l4.5-4.5z"/>
	</symbol>
	<symbol id="c-chevron-down" viewBox="0 0 16 16" style="fill:var(--fill,#000000)">
		<path d="M13 5.293v1.414l-4.5 4.5-4.5-4.5V5.293l4.5 4.5z"/>
	</symbol>
	<symbol id="c-chevron-left" viewBox="0 0 16 16" style="fill:var(--fill,#000000)">
		<path d="M10.707 13H9.293l-4.5-4.5 4.5-4.5h1.414l-4.5 4.5z"/>
	</symbol>
	<symbol id="c-search" viewBox="0 0 16 16" style="fill:var(--fill,#000000)">
		<path d="M15.364 14.636L9.735 9.008a5.5 5.5 0 1 0-.706.708l5.628 5.627.707-.707zM1 5.5C1 3.019 3.019 1 5.5 1S10 3.019 10 5.5 7.981 10 5.5 10 1 7.981 1 5.5z"/>
	</symbol>
	<symbol id="c-select" viewBox="0 21 24 31" style="fill:var(--fill,#000000)">
		<path d="M21.5 39l-9.188 9.188L3.125 39H21.5zM6.293 40.312l6.019 6.02 6.02-6.02H6.293zM3.125 33l9.188-9.188L21.5 33H3.125zm15.207-1.312l-6.02-6.02-6.02 6.02h12.04z"/>
	</symbol>
	<symbol id="c-loading" viewBox="0 0 24 30">
		<rect x="0" y="10" width="4" height="10" style="fill:var(--fill,#000000)" opacity=".2">
			<animate attributeName="opacity" values=".2; 1; .2" begin="0s" dur=".6s" repeatCount="indefinite"/>
			<animate attributeName="height" values="10; 20; 10" begin="0s" dur=".6s" repeatCount="indefinite"/>
			<animate attributeName="y" values="10; 5; 10" begin="0s" dur=".6s" repeatCount="indefinite"/>
		</rect>
		<rect x="8" y="10" width="4" height="10" style="fill:var(--fill,#000000)" opacity=".2">
			<animate attributeName="opacity" values=".2; 1; .2" begin=".15s" dur=".6s" repeatCount="indefinite"/>
			<animate attributeName="height" values="10; 20; 10" begin=".15s" dur=".6s" repeatCount="indefinite"/>
			<animate attributeName="y" values="10; 5; 10" begin=".15s" dur=".6s" repeatCount="indefinite"/>
		</rect>
		<rect x="16" y="10" width="4" height="10" style="fill:var(--fill,#000000)" opacity=".2">
			<animate attributeName="opacity" values=".2; 1; .2" begin=".3s" dur=".6s" repeatCount="indefinite"/>
			<animate attributeName="height" values="10; 20; 10" begin=".3s" dur=".6s" repeatCount="indefinite"/>
			<animate attributeName="y" values="10; 5; 10" begin=".3s" dur=".6s" repeatCount="indefinite"/>
		</rect>
	</symbol>
	<symbol id="c-globe" viewBox="0 0 16 16" style="fill:var(--fill,#000000)">
		<path d="M8 0a8 8 0 1 0 8 8 7.999 7.999 0 0 0-8-8zm3.83 3.162c.067.24.01.47-.273.47a.669.669 0 0 0 .16-.55c.039.027.08.055.112.08zm-.372-.95l.207.072a.803.803 0 0 0-.428.158.406.406 0 0 1 .222-.23zM7.792 1.01a2.963 2.963 0 0 1 .638.012l-.054.083c-.123-.004-.54-.027-.653-.01.073-.074.015-.021.07-.085zM2.527 12.357a7.018 7.018 0 0 1-.414-.58 6.759 6.759 0 0 1 .58.405.918.918 0 0 0-.166.175zm7.606 2.31a6.986 6.986 0 0 1-7.058-1.695c-.003-.07 0-.08.059-.122 1-.692.512-1.033-1.055-2.047-.123-.084-.179-.132-.19-.165-.075-1.662-.082-.85-.662-2.313a2.123 2.123 0 0 0-.222-.427 6.967 6.967 0 0 1 1.911-4.701c.616.008.934.146 1.176-.473.015-.04.06-.16.073-.121.7.04.593.475 1.518-.9a1.156 1.156 0 0 0 .157-.36c.2-.065.405-.119.613-.166-.465.623-.137 1.095.319 1.095.141 0 .731-.33 1.07-.387.608.03.853.118 1.201-.337a2.112 2.112 0 0 1 .3-.416 6.936 6.936 0 0 1 1.548.498c-.508.388-.222.396-.56.838-.334.444-.017.803.425 1.138a2.056 2.056 0 0 0-.28.242.59.59 0 0 0-.223-.321.669.669 0 0 0-.735-.596.599.599 0 0 0-.147 1.122.573.573 0 0 0 .292.473c-.164.242-.081.414-.01.663-.052 0-.29-.069-.374-.069-.72 0-.785 1.215-.46 1.543-.79.68-.809.795-.917 1.017a1.921 1.921 0 0 0-1.248 1.686c0 .41-.25.36-.317.682-.102.485.146.728.435 1.006.32.311.152.587.628.973.572.477.863.374 1.603.268a2.339 2.339 0 0 1 1.257.134c.09.021.181.057.1.298a.596.596 0 0 0 .133.739.275.275 0 0 1 .11.19c.05.639-.197.474-.47 1.01zm.383-8.91l.2.098a.313.313 0 0 1 .255-.052c.37.233.57.424.93.066a2.055 2.055 0 0 1 .325.339.593.593 0 0 0 .914.493c.214.276.447.177.757.255a1.3 1.3 0 0 1 .088.284 1.486 1.486 0 0 1-.52.136c-.114-.03-.231-.125-.35-.125a.533.533 0 0 0-.656.356 1.398 1.398 0 0 1-.698-.416c.1-.693-.948-.767-1.63-.616.02-.025.108-.16.089-.185a.665.665 0 0 0 .094-.14.838.838 0 0 0 .315-.284zm-.996.222a.732.732 0 0 0-.064.138c0-.055.002-.102.005-.147l.059.01zm1.844 8.16a1.248 1.248 0 0 0-.241-1.173.955.955 0 0 0-.68-1.316c-.006-.002-.38-.081-.473-.113-1.052-.302-1.98.487-2.265-.484a2.546 2.546 0 0 0-.573-.79c.382-.424.237-.624.333-1.035.313-1.157.897-.378 1.276-1.376.017-.042.634-.564.768-.765.379.458.848.204 1.465.243.133.77 1.55 1.512 2.121.763.703.292 1.96-.216 1.646-1.118v.001a1.301 1.301 0 0 0-.112-.342.945.945 0 0 0-.935-.511.8.8 0 0 0-.72-.205c-.255-.554-.903-1.088-1.488-.733a.95.95 0 0 0-.705-.183.798.798 0 0 0-.36-.04 5.498 5.498 0 0 0-.033-.098.782.782 0 0 0 .065-.216.87.87 0 0 0 .691-.33c1.179.708 2.182-1.263.96-1.935.016 0 .03-.01.046-.011a6.994 6.994 0 0 1-.786 11.766z"/>
	</symbol>
</svg>
