<?xml version="1.0" encoding="utf-8"?>
<!-- Generator: Adobe Illustrator 16.0.4, SVG Export Plug-In . SVG Version: 6.00 Build 0)  -->
<!DOCTYPE svg PUBLIC "-//W3C//DTD SVG 1.1//EN" "http://www.w3.org/Graphics/SVG/1.1/DTD/svg11.dtd">
<svg version="1.1" xmlns="http://www.w3.org/2000/svg" xmlns:xlink="http://www.w3.org/1999/xlink" x="0px" y="0px" width="32px"
	 height="32px" viewBox="0 0 32 32" enable-background="new 0 0 32 32" xml:space="preserve">
<g id="Dark_Theme_1_" display="none">
	<rect x="-416" y="-160" display="inline" fill="#333333" width="544" height="736"/>
	
		<rect x="-448" y="-192" display="inline" fill="none" stroke="#808080" stroke-width="0.25" stroke-miterlimit="10" width="612" height="792"/>
</g>
<g id="LightTheme" display="none">
	<rect x="-416" y="-160" display="inline" fill="#F8F8F8" width="544" height="736"/>
	
		<rect x="-448" y="-192" display="inline" fill="none" stroke="#808080" stroke-width="0.25" stroke-miterlimit="10" width="612" height="792"/>
</g>
<g id="Hover" display="none">
	<rect x="-416" y="-160" display="inline" fill="#C5E5F9" width="544" height="736"/>
</g>
<g id="Selected" display="none">
	<rect x="-416" y="-160" display="inline" fill="#AADBFA" width="544" height="736"/>
</g>
<g id="Icon_Name">
</g>
<g id="Icons">
	<rect fill-rule="evenodd" clip-rule="evenodd" fill="none" width="32" height="32"/>
	<path fill="#6D6E71" d="M10,13c0-0.1,0-0.3,0.1-0.4c0.2-0.4,0.5-0.6,0.9-0.6h10c0.4,0,0.7,0.2,0.9,0.6C22,12.7,22,12.9,22,13
		c0,0.2-0.1,0.5-0.2,0.6l-5,6C16.6,19.9,16.3,20,16,20s-0.6-0.1-0.8-0.4l-5-6C10.1,13.5,10,13.2,10,13L10,13z"/>
	<polygon fill="#6D6E71" points="11,13 16,19 21,13 	"/>
</g>
</svg>
