<?xml version="1.0" encoding="utf-8"?>
<!-- Generator: Adobe Illustrator 16.0.4, SVG Export Plug-In . SVG Version: 6.00 Build 0)  -->
<!DOCTYPE svg PUBLIC "-//W3C//DTD SVG 1.1//EN" "http://www.w3.org/Graphics/SVG/1.1/DTD/svg11.dtd">
<svg version="1.1" xmlns="http://www.w3.org/2000/svg" xmlns:xlink="http://www.w3.org/1999/xlink" x="0px" y="0px" width="32px"
	 height="32px" viewBox="0 0 32 32" enable-background="new 0 0 32 32" xml:space="preserve">
<g id="Dark_Theme_1_" display="none">
	<rect x="-160" y="-544" display="inline" fill="#333333" width="544" height="736"/>
	
		<rect x="-192" y="-576" display="inline" fill="none" stroke="#808080" stroke-width="0.25" stroke-miterlimit="10" width="612" height="792"/>
</g>
<g id="LightTheme" display="none">
	<rect x="-160" y="-544" display="inline" fill="#F8F8F8" width="544" height="736"/>
	
		<rect x="-192" y="-576" display="inline" fill="none" stroke="#808080" stroke-width="0.25" stroke-miterlimit="10" width="612" height="792"/>
</g>
<g id="Hover" display="none">
	<rect x="-160" y="-544" display="inline" fill="#C5E5F9" width="544" height="736"/>
</g>
<g id="Selected" display="none">
	<rect x="-160" y="-544" display="inline" fill="#AADBFA" width="544" height="736"/>
</g>
<g id="Icon_Name">
</g>
<g id="Icons">
	<rect fill="none" width="32" height="32"/>
	<rect x="22.8" y="5.9" transform="matrix(0.7071 0.7071 -0.7071 0.7071 12.4899 -15.3875)" fill="#6D6E71" width="4" height="3"/>
	<polygon fill="#FBE2C3" points="5.3,24 3.2,29 8.2,26.9 	"/>
	<polygon fill="#6D6E71" points="4.3,26.5 3.2,29 5.7,27.9 	"/>
	<path fill="#E5A894" d="M29,5.4c0-0.2-0.1-0.4-0.3-0.5l-1.4-1.4c-0.4-0.4-1-0.4-1.4,0l-1.4,1.4l2.8,2.8l1.4-1.4
		C28.9,6.2,29,5.9,29,5.7V5.4z"/>
	<rect x="3.2" y="14.9" transform="matrix(0.7071 -0.7071 0.7071 0.7071 -7.509 15.7542)" fill="#D9C44C" width="24" height="4"/>
</g>
</svg>
