<svg xmlns="http://www.w3.org/2000/svg" xmlns:xlink="http://www.w3.org/1999/xlink" width="942" height="402" viewBox="0 0 942 402"><defs><filter id="a" filterUnits="userSpaceOnUse" x=".208" y=".114" width="401.769" height="401.772"><feColorMatrix values="1 0 0 0 0 0 1 0 0 0 0 0 1 0 0 0 0 0 1 0"/></filter></defs><mask maskUnits="userSpaceOnUse" x=".208" y=".114" width="401.769" height="401.772" id="e"><g filter="url(#a)"><path d="M.212.114h401.765v401.758H.212z"/><g enable-background="new"><defs><path id="b" d="M.212 186.03v33.108c7.606 93.503 79.06 168.979 170.685 182.748h60.387c91.684-13.779 163.122-89.289 170.684-182.854v-32.904C393.605 82.509 306.874 1.03 201.084 1.03 95.381 1.03 8.644 82.464.212 186.03"/></defs><clipPath id="c"><use xlink:href="#b" overflow="visible"/></clipPath><radialGradient id="d" cx="78.524" cy="487.728" r="9.319" gradientTransform="matrix(21.626 0 0 -21.626 -1497.063 10750.234)" gradientUnits="userSpaceOnUse"><stop offset="0" stop-color="#fff"/><stop offset=".659" stop-color="#fff"/><stop offset=".667" stop-color="#eae8e8"/><stop offset=".712" stop-color="#a39e9e"/><stop offset=".759" stop-color="#726b6b"/><stop offset=".806" stop-color="#514a4a"/><stop offset=".853" stop-color="#3b3435"/><stop offset=".901" stop-color="#2c2626"/><stop offset=".949" stop-color="#221c1d"/><stop offset="1" stop-color="#1f191a"/></radialGradient><path clip-path="url(#c)" fill="url(#d)" d="M.212 1.03h401.755v400.856H.212z"/></g></g></mask><g mask="url(#e)"><defs><path id="f" d="M.208.114h401.763v401.772H.208z"/></defs><clipPath id="g"><use xlink:href="#f" overflow="visible"/></clipPath><g clip-path="url(#g)"><defs><path id="h" d="M.212.114h401.765v401.772H.212z"/></defs><clipPath id="i"><use xlink:href="#h" overflow="visible"/></clipPath><path clip-path="url(#i)" fill="#FFF" d="M401.971 200.995c0 110.927-89.934 200.892-200.882 200.892C90.143 401.887.208 311.922.208 200.995.208 90.054 90.143.114 201.089.114c110.948 0 200.882 89.94 200.882 200.881"/></g></g><defs><filter id="j" filterUnits="userSpaceOnUse" x="49.418" y="52.609" width="298.428" height="298.419"><feColorMatrix values="1 0 0 0 0 0 1 0 0 0 0 0 1 0 0 0 0 0 1 0"/></filter></defs><mask maskUnits="userSpaceOnUse" x="49.418" y="52.609" width="298.428" height="298.419" id="n"><g filter="url(#j)"><path d="M49.43 52.609h298.416v298.419H49.43z"/><g enable-background="new"><defs><path id="k" d="M53.482 202.99c0 80.177 64.99 145.163 145.138 145.163 80.172 0 145.167-64.986 145.167-145.163 0-80.164-64.995-145.147-145.167-145.147-80.147 0-145.138 64.983-145.138 145.147"/></defs><clipPath id="l"><use xlink:href="#k" overflow="visible"/></clipPath><radialGradient id="m" cx="79.379" cy="483.346" r="9.32" gradientTransform="matrix(15.5747 0 0 -15.5747 -1037.68 7730.945)" gradientUnits="userSpaceOnUse"><stop offset="0" stop-color="#fff"/><stop offset=".945" stop-color="#fff"/><stop offset=".945" stop-color="#f5f4f4"/><stop offset=".95" stop-color="#b0abab"/><stop offset=".955" stop-color="#807979"/><stop offset=".961" stop-color="#5d5656"/><stop offset=".967" stop-color="#463f3f"/><stop offset=".973" stop-color="#352e2f"/><stop offset=".98" stop-color="#292323"/><stop offset=".988" stop-color="#211b1c"/><stop offset="1" stop-color="#1f191a"/></radialGradient><path clip-path="url(#l)" fill="url(#m)" d="M53.482 57.843h290.3v290.311h-290.3z"/></g></g></mask><g mask="url(#n)"><defs><path id="o" d="M49.423 52.609h298.419v298.419H49.423z"/></defs><clipPath id="p"><use xlink:href="#o" overflow="visible"/></clipPath><g clip-path="url(#p)"><defs><path id="q" d="M49.43 52.609h298.416v298.419H49.43z"/></defs><clipPath id="r"><use xlink:href="#q" overflow="visible"/></clipPath><path clip-path="url(#r)" fill="#FFF" d="M347.835 201.82c0 82.384-66.796 149.208-149.212 149.208-82.397 0-149.205-66.824-149.205-149.208 0-82.414 66.808-149.211 149.205-149.211 82.416 0 149.212 66.797 149.212 149.211"/></g></g><path fill="#FFF" d="M875.005 39.35c15.775 0 27.962 11.428 27.962 26.534 0 15.126-12.187 26.563-27.962 26.563-15.774 0-27.23-12.557-27.23-26.563-.001-13.999 11.455-26.534 27.23-26.534M854.621 123.101h41.504v166.058h-41.504zM519.204 242.485c-9.777 10.288-22.329 17.611-40.321 17.611-23.196 0-41.871-14.899-44.654-39.436H560.86v-11.416c0-57.795-31.475-90.289-77.865-90.289-50.143 0-90.263 34.923-90.263 87.167 0 52.235 40.12 87.185 90.263 87.185 22.875 0 44.417-7.11 62.393-24.628l-26.184-26.194zm-42.076-92.421c25.957 0 41.864 15.238 42.227 39.443h-85.126c3.126-23.876 18.355-39.443 42.899-39.443M618.765 169.801c0-12.458 13.141-17.652 24.234-17.652 14.081 0 24.449 5.841 32.396 16.813l26.39-26.372c-13.671-17.071-36.32-23.641-57.761-23.641-33.56 0-66.783 16.596-66.783 53.625 0 63.319 89.595 36.317 89.595 70.566 0 13.143-15.562 19.021-27.666 19.021-17.593 0-28.655-8.591-39.347-20.313l-26.812 26.796c16.824 18.257 38.598 24.664 63.744 24.664 33.887 0 71.62-13.834 71.62-53.278 0-64.707-89.61-40.488-89.61-70.229M833.569 121.333c-4.799-1.36-9.612-2.384-14.748-2.384-21.812 0-40.162 11.407-49.156 30.417h-.672v-26.27h-41.504v166.062h41.504v-88.926c0-8.99 5.516-41.858 44.631-41.858 6.018 0 12.015 1.194 18.313 2.693l1.632-39.734zM928.341 122.27c7.398 0 13.451 6.054 13.451 13.457 0 7.404-6.053 13.433-13.451 13.433-7.408 0-13.433-6.028-13.433-13.433 0-7.404 6.025-13.457 13.433-13.457m0 24.515c6.118 0 11.067-4.954 11.067-11.059 0-6.114-4.949-11.062-11.067-11.062-6.108 0-11.049 4.948-11.049 11.062 0 6.105 4.94 11.059 11.049 11.059m-5.172-18.826h5.925c3.705 0 5.417 1.653 5.417 4.631 0 2.662-1.565 3.957-3.657 4.212l3.985 6.508h-2.955l-3.837-6.296h-2.044v6.296h-2.834v-15.351zm2.834 6.682h2.044c1.73 0 3.658-.104 3.658-2.182 0-2.062-1.928-2.173-3.658-2.127h-2.044v4.309z"/><defs><path id="s" d="M71.378 203.257c0 71.029 57.59 128.585 128.582 128.585 71.023 0 128.605-57.556 128.605-128.585 0-71.006-57.582-128.583-128.605-128.583-70.992 0-128.582 57.577-128.582 128.583"/></defs><clipPath id="t"><use xlink:href="#s" overflow="visible"/></clipPath><radialGradient id="u" cx="77.734" cy="476.214" r="9.319" gradientTransform="matrix(9.7845 0 0 -9.7845 -601.719 4838.906)" gradientUnits="userSpaceOnUse"><stop offset="0" stop-color="#a9e0f6"/><stop offset="1" stop-color="#147bc1"/></radialGradient><path clip-path="url(#t)" fill="url(#u)" d="M71.378 74.674H328.56v257.168H71.378z"/><defs><path id="v" d="M145.685 102.084c-9.915.42-19.413 1.73-28.882 3.143-26.823 22.777-44.155 56.33-45.33 93.988 7.586 7.991 17.592 26.043 29.146 36.488 1.527-.689 3.184-1.267 4.955-1.809-5.673-6.583-13.589-15.309-14.784-19.315-5.834-19.682.916-38.097 15.521-39.549 13.081-1.318 24.303-20.776 33.533-33.556 18.982-26.249 48.138-21.861 46.68-35.008-1.675-7.684-6.224-10.027-12.014-10.027-8.704-.002-20.188 5.311-28.825 5.645"/></defs><clipPath id="w"><use xlink:href="#v" overflow="visible"/></clipPath><radialGradient id="x" cx="77.055" cy="480.356" r="9.325" gradientTransform="matrix(12.0039 0 0 -12.0039 -771.234 5946.844)" gradientUnits="userSpaceOnUse"><stop offset="0" stop-color="#a4cd39"/><stop offset=".961" stop-color="#0f9f49"/><stop offset="1" stop-color="#0f9f49"/></radialGradient><path clip-path="url(#w)" fill="url(#x)" d="M71.479 96.437h116.503v139.261H71.479z"/><g><defs><path id="y" d="M111.075 232.326c-1.895.547-3.742 1.047-5.502 1.568-1.585.426-2.824 1.055-4.955 1.809-4.732 2.095-8.138 5.33-8.938 12.207-1.441 12.504 10.44 22.298 20.455 25.179 12.688 3.635 13.767-.625 20.414 8.389 4.661 6.289 5.569 17.967 7.941 25.647 1.337 4.297 3.123 8.551 5.284 12.744 9.073 4.219 18.709 7.442 28.785 9.452 2.493-14.807 1.372-34.805 4.676-43.442 6.798-17.691 10.623-25.479 1.454-43.737-20.193-5.715-26.333-7.522-46.672-11.697-4.161-.847-6.741-1.275-9.068-1.275-3.617-.001-6.598 1.027-13.874 3.156"/></defs><clipPath id="z"><use xlink:href="#y" overflow="visible"/></clipPath><radialGradient id="A" cx="78.452" cy="484.728" r="9.334" gradientTransform="matrix(15.2569 0 0 -15.2569 -1015 7568.836)" gradientUnits="userSpaceOnUse"><stop offset="0" stop-color="#a4cd39"/><stop offset=".961" stop-color="#0f9f49"/><stop offset="1" stop-color="#0f9f49"/></radialGradient><path clip-path="url(#z)" fill="url(#A)" d="M90.239 229.169h99.62v100.152h-99.62z"/></g><g><defs><path id="B" d="M236.13 129.811c-5.961 8.509-26.857 10.841-33.553 20.416-5.223 7.47.167 22.155-4.378 30.627-2.095 3.907-1.128 15.242 1.433 18.947 8.042 11.702 21.406 5.2 31.463 9.403 12.283 5.122 13.68 19.375 23.866 29.779 10.187 10.431-13.004 26.491 5.938 64.406 2.022 4.078 4.383 7.056 6.907 9.105a128.973 128.973 0 0 0 33.364-29.966c2.871-19.15-3.598-25.272 4.495-42.804 4.979-10.809 13.518-29.525 22.737-42.218-1.553-35.504-17.499-67.272-42.16-89.601-2.312.644-5.259.755-9.277.031-3.446-.637-6.554-.916-9.372-.916-19.014.002-24.682 13.094-31.463 22.791"/></defs><clipPath id="C"><use xlink:href="#B" overflow="visible"/></clipPath><radialGradient id="D" cx="78.33" cy="490.897" r="9.32" gradientTransform="matrix(20.1667 0 0 -20.1667 -1387.172 10012.484)" gradientUnits="userSpaceOnUse"><stop offset="0" stop-color="#a4cd39"/><stop offset=".961" stop-color="#0f9f49"/><stop offset="1" stop-color="#0f9f49"/></radialGradient><path clip-path="url(#C)" fill="url(#D)" d="M196.104 107.022h132.298v205.473H196.104z"/></g><path fill="#1F191A" d="M158.752 174.549c21.882-9.292 45.602-16.737 77.575-19.414-8.143-19.544-17.136-33.35-27.712-45.997-23.574 1.893-45.093 8.249-63.695 15.937 2.733 14.483 7.899 32.009 13.832 49.474m102.013 53.883c-30.272-.36-56.694 6.881-74.756 15.762 7.656 16.483 22.793 38.322 28.445 47.314 9.844-3.669 20.421-6.419 28.624-7.701 8.209-1.277 19.146-2.485 26.56-2.35-1.341-19.196-3.583-32.135-8.873-53.025m-80.232 4.771c24.194-11.123 50.753-16.128 77.494-15.401-7.297-25.288-11.482-37.018-17.692-52.408-29.711 1.286-55.056 8.613-78.152 19.555 0-.001 8.507 27.357 18.35 48.254m92.991-122.051c-14.823-2.688-36.458-4.398-52.507-3.432 10.942 15.152 18.963 28.35 26.495 47.156 20.302.508 47.888 6.564 59.198 11.013-6.743-18-19.566-40.851-33.186-54.737m46.139 119.521c-.916-16.712-3.472-39.034-9.666-54.571-16.418-6.587-38.837-10.708-58.532-10.896 6.076 14.171 13.142 37.852 16.594 53.088 14.221 1.709 36.466 5.731 51.604 12.379m-13.555-116.828c-21.158-25.911-69.042-47.95-122.354-44.633 11.913 7.854 21.828 19.715 30.519 29.48 13.304-1.219 41.266.978 51.781 3.886-1.791-2.119-3.993-4.215-4.56-5.461-1.494-3.208 2.094-3.896 4.979-2.063 3.648 2.333 7.854 5.121 11.188 8.521 6.182 1.387 21.391 6.597 28.447 10.27m25.528 124.717c-.605 2.083-4.261 4.17-5.96 3.647.247 3.692-.614 22.031-1.58 29.109 2.545-5.233 7.41-18.224 8.872-23.7l2.061-8.064c2.05-6.862 8.699-30.542 2.676-61.696-6.674-34.621-19.2-46.974-23.582-52.475-11.125-6.048-27.957-11.539-27.957-11.539 15.259 20.652 20.543 30.369 29.667 54.97 5.289 2.748 14.895 8.071 16.084 9.536.971 1.142.981 3.211-2.036 3.167-2.505-.021-7.367-2.415-11.133-3.422 4.008 13.401 7.11 38.431 6.878 55.197-.001.001 6.613 3.203 6.01 5.27m-19.452 50.941c2.19-2.187 5.471-6.826 6.75-9.53 1.275-10.985 1.316-33.521.845-40.091-13.248-5.37-33.725-9.619-48.688-10.724 4.868 17.852 7.302 44.111 7.666 52.662 7.175.731 25.284 4.398 33.427 7.683m-34.036 30.187c11.596-7.232 22.492-15.539 30.39-25.545-6.801-1.703-22.002-3.768-29.543-3.285 0 0-.239 18.066-.847 28.83m-31.659 14.919c5.766-1.845 20.455-8.515 23.512-10.521.73-11.846.608-25.304.122-33.346-15.441 0-37.197 4.515-49.656 9.737 7.232 11.631 17.201 24.465 26.022 34.13m-69.419-10.121c4.317 4.354 21.423 15.682 21.423 15.682 11.377.49 25.749-.844 36.013-2.639-5.657-6.454-19.788-26.458-24.074-33.195-10.943 4.59-24.794 13.037-33.362 20.152m-46.746-47.606c10.882 13.952 27.916 31.66 39.767 41.438 11.221-9.015 23.938-17.44 34.516-22.572-9.125-14.154-22.611-34.704-28.259-47.347-20.244 8.976-31.737 16.502-46.024 28.481m-28.927-55.958c6.933 19.78 13.634 34.869 22.388 47.318 10.233-8.9 31.222-22.957 47.269-30.653-5.284-11.36-12.915-32.597-18.234-48.502-20.668 10.148-36.104 20.036-51.423 31.837m-16.589-59.376c1.65 11.377 7.111 35.916 12.03 48.371 11.681-8.792 38.106-25.103 53.068-31.701-5.229-19.06-8.751-31.095-11.677-50.33-21.148 9.408-43.507 24.017-53.421 33.66m-2.565-40.542c-.734 5.734.03 16.336 1.471 28.993 11.67-10.441 34.217-24.06 53.063-32.369-2.188-14.361-4.505-37.268-4.262-43.365-17.428 9.56-36.564 28.784-50.583 48.502m57.032-59.774c25.061-10.367 49.453-16.068 77.617-12.216 3.131.425 2.874 3.082-.456 3.112l-3.973.107c-22.683.353-56.049 7.555-73.311 17.331-.363 11.509 1.821 29.803 4.136 44.221 15.678-6.598 39.929-13.374 58.345-15.394-10.456-11.113-24.676-21.624-26.376-22.845-1.7-1.219-2.553-3.3-2.553-5.982.244-5.015 4.551-5.639 6.859-5.046 7.661-1.497 15.287-3.157 28.27-2.771 54.869-2.4 104.999 28.638 124.129 64.023 48.478 76.655.021 182.409-63.446 210.573-27.142 12.049-50.42 17.246-93.331 11.264-42.99-6.005-78.137-27.018-105.436-71.198-33.624-54.44-14.695-117.861-9.969-131.153 20.243-47.74 53.42-73.033 79.495-84.026m-64.733 94.339c-.542-8.245-1.204-19.546-1.204-19.546-6.058 13.179-9.682 21.12-11.372 36.503 4.241-7.505 12.576-16.957 12.576-16.957m88.559 167.12c-9.126-6.805-31.702-28.212-41.059-41.118-3.435 2.021-7.267 7.526-12.246 8.471-1.953.365-6.357.903-7.657.365-1.297-.536.293-3.283 1.698-5.126 2.435-3.172 5.989-7.309 11.186-11.331-11.122-16.305-16.408-28.225-23.977-47.88-4.373 2.729-7.547 5.158-11.364 8.188-1.283 1.013-4.815 1.66-6.531.124-3.111-2.794-3.159-7.713 1.215-10.828 1.795-1.278 10.687-7.422 12.762-9.152-5.471-15.774-10.041-36.498-11.26-47.248-3.64 3.168-8.766 6.776-10.207 7.757-2.076.588-3.461-.08-4.06-.177-2.079 22.304.319 46.857 6.953 69.03 11.397 38.126 43.366 74.482 86.51 88.01 1.003-1.505 5.966-7.246 8.037-9.085m22.489 15.275c-4.262-2.438-9.604-6.226-14.589-9.529-2.066 1.827-3.736 4.513-5.386 6.671 5.715 1.945 13.412 2.12 19.975 2.858"/></svg>