<svg xmlns="http://www.w3.org/2000/svg" viewBox="0 0 24 24"><path d="M18.5 14a4.5 4.5 0 1 0 4.5 4.5 4.5 4.5 0 0 0-4.5-4.5zm0 8.1a3.6 3.6 0 1 1 3.6-3.6 3.604 3.604 0 0 1-3.6 3.6zM5.5 14a4.5 4.5 0 1 0 4.5 4.5A4.5 4.5 0 0 0 5.5 14zm0 8.1a3.6 3.6 0 1 1 3.6-3.6 3.604 3.604 0 0 1-3.6 3.6z"/><path d="M19 11a1 1 0 0 0-1-1h-2.578a.075.075 0 0 1-.06-.03L13.5 7.49c-.018-.024-.044-.035-.064-.057a1.187 1.187 0 0 0-.395-.442l-.844-.583a1.249 1.249 0 0 0-1.626.44l-3.033 4.845a.739.739 0 0 0 .272 1.04l3.792 2.077-.552 3.097c-.063.583.118 1.085.555 1.147.54.077.91-.185 1.076-.898l1.013-3.66a.739.739 0 0 0-.36-.846l-2.313-1.247a.121.121 0 0 1-.042-.176l1.655-2.395a.075.075 0 0 1 .122-.002l1.409 1.875a.739.739 0 0 0 .59.295H18a1 1 0 0 0 1-1zm-.8 0a.2.2 0 0 1-.2.2h-3.153a.12.12 0 0 1-.097-.048l-1.468-1.954a.739.739 0 0 0-1.199.024l-1.878 2.718a.739.739 0 0 0 .258 1.07l2.393 1.291a.12.12 0 0 1 .06.134c-.294 1.262-.995 3.46-1.013 3.538a1.306 1.306 0 0 1-.065.205 1.286 1.286 0 0 1 .007-.186l.618-3.622-4.1-2.245a.121.121 0 0 1-.044-.17l2.929-4.682a.513.513 0 0 1 .404-.211.257.257 0 0 1 .13.03l.805.557a.441.441 0 0 1 .15.172l.042.077.114.128.023.018 1.848 2.46a.739.739 0 0 0 .59.296H18a.2.2 0 0 1 .2.2zM15 2a2 2 0 1 0 2 2 2 2 0 0 0-2-2zm-.2 3.2a1 1 0 0 1-1-1v-.4a1 1 0 0 1 1-1h.4a1 1 0 0 1 1 1v.4a1 1 0 0 1-1 1z"/></svg>