<svg xmlns="http://www.w3.org/2000/svg" viewBox="0 0 24 24"><path d="M23.986 12.007l-5.491-2.693 1.978-5.787-5.787 1.98L11.993.013 9.3 5.506 3.513 3.527l1.979 5.787L0 12.007 5.492 14.7l-1.979 5.788 5.787-1.98L11.993 24l2.693-5.491 5.787 1.979-1.978-5.788zm-5.119 6.875l-3.857-1.32a1 1 0 0 0-1.221.506l-1.796 3.661-1.795-3.66a1 1 0 0 0-1.221-.507l-3.858 1.32 1.319-3.859a1 1 0 0 0-.506-1.22l-3.661-1.796 3.661-1.796a1 1 0 0 0 .506-1.221L5.119 5.133l3.858 1.32a1 1 0 0 0 1.221-.506l1.795-3.662 1.796 3.662a1 1 0 0 0 1.221.506l3.857-1.32-1.319 3.857a1 1 0 0 0 .506 1.221l3.661 1.796-3.66 1.795a1 1 0 0 0-.507 1.221zM11.987 7a4.999 4.999 0 1 0 4.997 5 5 5 0 0 0-4.999-4.999zm0 8.998A3.999 3.999 0 1 1 15.984 12a4.004 4.004 0 0 1-3.999 3.999z"/></svg>