<svg xmlns="http://www.w3.org/2000/svg" viewBox="0 0 16 16"><path d="M15.986 8l-3.662-1.795 1.32-3.86-3.861 1.32L7.986 0 6.19 3.665l-3.86-1.32 1.319 3.86L-.014 8 3.65 9.798l-1.32 3.86 3.86-1.321L7.987 16l1.797-3.664 3.86 1.32-1.32-3.86zm-5.88 3.39c-.006-.002-.012 0-.018-.002a3.964 3.964 0 0 1-1.196.498l-.007.01-.899 1.833-.898-1.833-.007-.01a3.964 3.964 0 0 1-1.196-.498c-.006.002-.013 0-.019.003l-1.93.66.66-1.93c.002-.006 0-.014.002-.02a3.962 3.962 0 0 1-.497-1.192L4.09 8.9 2.257 8l1.832-.897.011-.009A3.964 3.964 0 0 1 4.598 5.9c-.002-.006 0-.013-.003-.02l-.66-1.93 1.932.66.016.004a3.963 3.963 0 0 1 1.2-.5l.005-.009.898-1.833.899 1.833.005.008a3.963 3.963 0 0 1 1.2.5l.016-.002 1.932-.66-.66 1.93c-.003.006-.001.013-.003.02a3.965 3.965 0 0 1 .498 1.193l.01.009L13.717 8l-1.833.9-.012.01a3.964 3.964 0 0 1-.497 1.19c.003.007.001.015.003.022l.66 1.93zm-2.12-6.389a2.999 2.999 0 1 0 3 2.999 3 3 0 0 0-3-2.999zm0 4.998a1.999 1.999 0 1 1 2-1.999 2.001 2.001 0 0 1-2 1.999z"/></svg>