<svg xmlns="http://www.w3.org/2000/svg" viewBox="0 0 32 32"><path d="M31.986 16l-7.32-3.59 2.638-7.713-7.714 2.638L16 .014l-3.59 7.321-7.714-2.638 2.638 7.713L.014 16l7.32 3.59-2.638 7.715 7.714-2.638 3.59 7.32 3.59-7.32 7.714 2.638-2.638-7.715zm-6.288 9.699l-5.346-1.828a8.943 8.943 0 0 1-1.864.77L16 29.715l-2.488-5.074a8.943 8.943 0 0 1-1.864-.77l-5.346 1.828 1.828-5.345a8.94 8.94 0 0 1-.771-1.866L2.285 16l5.074-2.488a8.941 8.941 0 0 1 .77-1.865L6.303 6.303l5.344 1.827a8.942 8.942 0 0 1 1.867-.772L16 2.285l2.487 5.073a8.942 8.942 0 0 1 1.868.772l5.343-1.827-1.828 5.344a8.941 8.941 0 0 1 .771 1.865L29.715 16l-5.074 2.488a8.94 8.94 0 0 1-.77 1.866zM16 8a7.999 7.999 0 1 0 7.999 8A7.999 7.999 0 0 0 16 8.001zm0 14.998A6.999 6.999 0 1 1 22.999 16 6.999 6.999 0 0 1 16 22.999z"/></svg>