<svg xmlns="http://www.w3.org/2000/svg" viewBox="0 0 32 32"><path d="M12 10H6v7h6zm-1 6H7v-5h4zm8-8H6V7h13zM6 21h6v1H6zm8-7h13v1H14zm-2 6H6v-1h6zm3.52 2H14v-1h3.245l.134.286-1.726.64a.967.967 0 0 0-.133.074zm15.082-.763L31 20.37v1.012zM25 12v1H14v-1zm-11-2h13v1H14zm1.42 16H14l-7 6 1.001-6H5a3 3 0 0 1-3-3V6a3 3 0 0 1 3-3h23a3 3 0 0 1 3 3v12.273l-.999-.992V6A2.003 2.003 0 0 0 28 4H4.999A2.001 2.001 0 0 0 3 6v17a2.001 2.001 0 0 0 1.999 2H8a1.001 1.001 0 0 1 .987 1.164l-.547 3.283 4.91-4.209A.998.998 0 0 1 14 25h1.008v.2a.997.997 0 0 0 .413.8zM14 16h7v1h-.63c-.982-.45-1.34-.763-2.097 0H14zm0 3h2.526a.995.995 0 0 0 .072.618l.179.382H14zm6.895 4.49c-.675 4.116 5.542 5.12 6.216 1.02.674-4.111-5.541-5.124-6.216-1.02zm2.757 2.631a2.15 2.15 0 0 1 .696-4.242 2.15 2.15 0 0 1-.696 4.242zm6.179-.18L32 25.137l-.009-2.333-2.179-.789a6.157 6.157 0 0 0-.317-.764l.966-2.104-1.656-1.643-2.099.983a6.104 6.104 0 0 0-.765-.318L25.137 16l-2.333.008-.789 2.18a6.161 6.161 0 0 0-.764.317l-2.104-.966-1.643 1.656.983 2.099a6.09 6.09 0 0 0-.318.765L16 22.863l.009 2.333 2.179.789a6.142 6.142 0 0 0 .317.764l-.966 2.104 1.656 1.643 2.099-.983a6.1 6.1 0 0 0 .765.318L22.863 32l2.333-.008.789-2.18a6.157 6.157 0 0 0 .764-.317l2.104.966 1.643-1.656-.983-2.099a6.098 6.098 0 0 0 .318-.765zm-1.193 3.32l-1.906-.876a7.612 7.612 0 0 1-1.521.636l-.715 1.973-.935.003-.728-1.963a7.886 7.886 0 0 1-1.527-.629l-1.9.889-.664-.66.876-1.905a7.612 7.612 0 0 1-.637-1.521l-1.972-.715-.003-.935 1.963-.728a7.886 7.886 0 0 1 .629-1.527l-.889-1.9.66-.664 1.904.876a7.612 7.612 0 0 1 1.522-.636l.715-1.973.934-.003.728 1.963a7.835 7.835 0 0 1 1.528.629l1.9-.889.664.66-.876 1.905a7.612 7.612 0 0 1 .636 1.521l1.973.715.003.935-1.962.727a7.955 7.955 0 0 1-.63 1.528l.889 1.9z"/></svg>