<svg xmlns="http://www.w3.org/2000/svg" viewBox="0 0 24 24"><path d="M9.995 16.58a1.005 1.005 0 0 1 .657-.941l1.212-.45-.089-.189H9v-1h2.31a.998.998 0 0 1 .202-1.108l1.335-1.346a.999.999 0 0 1 1.128-.204l1.173.539.32-.881H9v-1h9.424a.999.999 0 0 1 .937.652l.45 1.212 1.169-.548a.951.951 0 0 1 1.02.124V2.25A2.25 2.25 0 0 0 19.75 0H2.25A2.25 2.25 0 0 0 0 2.25v13.5A2.25 2.25 0 0 0 2.25 18h2.302l-.759 4.435L9.103 18H10zM17 9H9V8h8zm2-2H9V6h10zM3 3h10v1H3zm5 12H3v-1h5zm0-3H3V6h5z"/><path d="M12.763 15.923L11 16.576l.007 1.895 1.77.642a4.999 4.999 0 0 0 .259.62l-.786 1.71 1.346 1.335 1.705-.798a4.96 4.96 0 0 0 .622.257L16.576 24l1.895-.007.642-1.77a5.006 5.006 0 0 0 .62-.259l1.71.786 1.335-1.346-.798-1.705a4.954 4.954 0 0 0 .257-.622L24 18.424l-.007-1.895-1.77-.642a4.996 4.996 0 0 0-.259-.62l.786-1.71-1.346-1.335-1.705.798a4.96 4.96 0 0 0-.622-.257L18.424 11l-1.895.007-.642 1.77a5.008 5.008 0 0 0-.62.259l-1.71-.786-1.335 1.346.798 1.705a4.951 4.951 0 0 0-.257.622zm3.013 1.294a1.747 1.747 0 1 1 1.441 2.007 1.747 1.747 0 0 1-1.44-2.007z"/></svg>