<svg xmlns="http://www.w3.org/2000/svg" viewBox="0 0 32 32"><path d="M14 15v-1h13v1h-1.863a.999.999 0 0 1 .938.652l.64 1.726 1.667-.78a.999.999 0 0 1 1.128.196l1.49 1.48V6a3 3 0 0 0-3-3H5a3 3 0 0 0-3 3v17a3 3 0 0 0 3 3h3.001L7 32l7-6h1.42a1.005 1.005 0 0 1-.42-.8l-.008-2.333A.999.999 0 0 1 15.52 22H14v-1h3.245l-.468-1H14v-1h2.526a.992.992 0 0 1 .268-.51l1.48-1.49H14v-1h7v1h-.63l.867.398.627-1.73A1.009 1.009 0 0 1 22.8 15zm11-2H14v-1h11zm2-2H14v-1h13zM12 22H6v-1h6zm0-2H6v-1h6zm0-3H6v-7h6zM6 8V7h13v1zm24.602 13.237L31 20.37v1.012zm-12.433.822L16 22.863l.009 2.333 2.179.789a6.153 6.153 0 0 0 .317.764l-.966 2.104 1.656 1.643 2.099-.983a6.105 6.105 0 0 0 .765.318L22.863 32l2.333-.008.789-2.18a6.162 6.162 0 0 0 .764-.317l2.104.966 1.643-1.656-.983-2.099a6.097 6.097 0 0 0 .318-.765L32 25.137l-.009-2.333-2.179-.789a6.149 6.149 0 0 0-.318-.764l.967-2.104-1.656-1.643-2.099.983a6.106 6.106 0 0 0-.765-.318L25.137 16l-2.333.009-.789 2.179a6.163 6.163 0 0 0-.764.317l-2.104-.966-1.643 1.656.983 2.099a6.093 6.093 0 0 0-.318.765zm3.71 1.593a2.15 2.15 0 1 1 1.773 2.47 2.15 2.15 0 0 1-1.773-2.47z"/></svg>