<svg xmlns="http://www.w3.org/2000/svg" viewBox="0 0 16 16"><path d="M4.043 11.326l-.006-1.604a1 1 0 0 1 .653-.942l.868-.321L5.343 8H3V4h3v1.848l.49-.494a.998.998 0 0 1 1.128-.205l.841.387L8.654 5H7V4h3v.005L11.319 4a.999.999 0 0 1 .937.652l.323.87.838-.393a.999.999 0 0 1 1.128.195l.455.452V2a2 2 0 0 0-2-2H2a2 2 0 0 0-2 2v7a2 2 0 0 0 2 2h1l-1 4 3.198-2.558-.495-.18a1 1 0 0 1-.66-.936zM3 2h5v1H3zm11.509 9.834L16 11.282l-.006-1.604-1.498-.543a4.216 4.216 0 0 0-.219-.525l.665-1.446-1.138-1.13-1.443.676a4.196 4.196 0 0 0-.527-.219L11.282 5l-1.604.006-.543 1.498a4.233 4.233 0 0 0-.525.218l-1.446-.664-1.13 1.138.676 1.443a4.196 4.196 0 0 0-.219.527L5 9.718l.006 1.604 1.498.543a4.239 4.239 0 0 0 .219.525l-.665 1.446 1.138 1.13 1.443-.676a4.196 4.196 0 0 0 .527.219L9.718 16l1.604-.006.543-1.498a4.235 4.235 0 0 0 .525-.219l1.446.665 1.13-1.138-.676-1.444a4.187 4.187 0 0 0 .219-.526zm-2.53-1.09a1.498 1.498 0 1 1-.26-1.119 1.492 1.492 0 0 1 .26 1.119z"/></svg>