<svg xmlns="http://www.w3.org/2000/svg" viewBox="0 0 24 24"><path d="M13 4H3V3h10zm-5 8H3V6h5zM7 7H4v4h3zm-4 8h5v-1H3zm6-6h8V8H9zm0 2h6.468l.12-.334a1 1 0 0 1 .937-.66H17V10H9zm2.316 3.02c-.003-.007-.003-.014-.006-.02H9v1h2.775zM10.002 17H8.74l-3.504 2.926.5-2.926H2.25A1.251 1.251 0 0 1 1 15.75V2.25A1.251 1.251 0 0 1 2.25 1h17.5A1.251 1.251 0 0 1 21 2.25v9.062a.933.933 0 0 1 1 .128V2.25A2.25 2.25 0 0 0 19.75 0H2.25A2.25 2.25 0 0 0 0 2.25v13.5A2.25 2.25 0 0 0 2.25 18h2.302l-.759 4.435L9.103 18h.902zM9 7h10V6H9zm11.21 10.945c-.588 3.58-6.008 2.696-5.42-.89.588-3.58 6.008-2.696 5.42.89zm-2.427-2.169a1.747 1.747 0 0 0-.566 3.448 1.747 1.747 0 0 0 .566-3.448zM21.98 19.7l.798 1.705-1.335 1.346-1.71-.786a4.998 4.998 0 0 1-.62.258l-.642 1.771-1.895.007-.653-1.763a4.964 4.964 0 0 1-.622-.257l-1.705.798-1.345-1.335.785-1.71a5.008 5.008 0 0 1-.258-.62l-1.771-.642L11 16.576l1.763-.653a4.959 4.959 0 0 1 .257-.622l-.798-1.705 1.335-1.346 1.71.786a5.002 5.002 0 0 1 .62-.258l.642-1.771L18.424 11l.653 1.763a4.956 4.956 0 0 1 .622.257l1.705-.798 1.346 1.335-.786 1.71a4.99 4.99 0 0 1 .258.62l1.771.642.007 1.895-1.763.653a4.946 4.946 0 0 1-.257.622zm-.404 1.497l-.705-1.507a6.667 6.667 0 0 0 .567-1.382l1.56-.578-.002-.498-1.565-.566a6.785 6.785 0 0 0-.576-1.38l.694-1.51-.354-.351-1.506.705a6.727 6.727 0 0 0-1.382-.568l-.578-1.558h-.498l-.566 1.564a6.76 6.76 0 0 0-1.38.579l-1.51-.696-.351.354.705 1.507a6.667 6.667 0 0 0-.567 1.382l-1.56.579.002.498 1.565.565a6.811 6.811 0 0 0 .576 1.38l-.694 1.51.354.351 1.506-.705a6.727 6.727 0 0 0 1.382.567l.578 1.56.498-.002.566-1.563a6.76 6.76 0 0 0 1.38-.579l1.51.696z"/></svg>