<svg xmlns="http://www.w3.org/2000/svg" viewBox="0 0 16 16"><path d="M3 2h5v1H3zm0 2h3v1.848l-.64.644a1 1 0 0 0-.195 1.128l.178.38H3zm1 3h1V5H4zm3-2h1.654l.121-.335a1 1 0 0 1 .937-.66H10V4H7zm-1.802 7.442l-.495-.18a.994.994 0 0 1-.456-.34l-.56.447.283-1.127A1 1 0 0 0 3 10H1.999A1.002 1.002 0 0 1 1 9V2a1.003 1.003 0 0 1 .999-1h11A1.004 1.004 0 0 1 14 2v3.065a.985.985 0 0 1 .545.26l.455.45V2a2 2 0 0 0-2-2H2a2 2 0 0 0-2 2v7a2 2 0 0 0 2 2h1l-1 4zm9.092-.082l.676 1.444-1.13 1.138-1.446-.665a4.235 4.235 0 0 1-.525.219l-.543 1.498L9.718 16l-.552-1.491a4.196 4.196 0 0 1-.527-.219l-1.443.676-1.138-1.13.665-1.446a4.239 4.239 0 0 1-.219-.525l-1.498-.543L5 9.718l1.491-.552a4.196 4.196 0 0 1 .219-.527l-.676-1.443 1.13-1.138 1.446.664a4.233 4.233 0 0 1 .525-.218l.543-1.498L11.282 5l.552 1.491a4.196 4.196 0 0 1 .527.219l1.443-.676 1.138 1.13-.664 1.446a4.216 4.216 0 0 1 .218.525l1.498.543.006 1.604-1.491.552a4.187 4.187 0 0 1-.219.526zm-1.11-.01a6.038 6.038 0 0 0 .53-1.286l1.287-.477v-.207l-1.292-.468a6.154 6.154 0 0 0-.537-1.283l.574-1.248-.147-.146-1.243.583a6.193 6.193 0 0 0-1.29-.529l-.475-1.287-.207.001-.467 1.291a6.104 6.104 0 0 0-1.283.538l-1.248-.574-.146.147.583 1.245a6.038 6.038 0 0 0-.53 1.286l-1.286.477v.207l1.292.468a6.066 6.066 0 0 0 .537 1.283l-.574 1.248.147.146 1.243-.583a6.193 6.193 0 0 0 1.29.529l.475 1.287.207-.001.467-1.291a6.104 6.104 0 0 0 1.283-.538l1.248.574.146-.147zm-.214-1.445a2.5 2.5 0 1 1-4.932-.81c.546-3.327 5.463-2.42 4.932.81zm-3.945-.649a1.5 1.5 0 0 0 2.959.488 1.5 1.5 0 0 0-2.96-.488z"/></svg>