<svg xmlns="http://www.w3.org/2000/svg" viewBox="0 0 16 16"><path d="M7.593 8.305c.002-.004.013-.007.024-.01z"/><path d="M11 16H2V0h8v5h5v4h-4v.828c-.335.039-.72.097-1.13.171a16.579 16.579 0 0 1-1.75-2.014 9.06 9.06 0 0 0 .55-2.927 1.202 1.202 0 0 0-.76-.996 1.145 1.145 0 0 0-1.141.246c-.649.58-.601 1.85.121 3.233a6.455 6.455 0 0 0 .35.578c-.3.945-.667 1.967-1.015 2.842a6.835 6.835 0 0 0-.984.444c-1.268.727-2.032 1.406-1.638 2.352a.897.897 0 0 0 .69.56 1.029 1.029 0 0 0 .182.016 1.777 1.777 0 0 0 1.24-.622 8.44 8.44 0 0 0 1.115-2.116 23.258 23.258 0 0 1 2.793-.734c.054.05.107.091.161.139H9v4h2zm4-12.4L11.4 0H11v4h4zm-4 6.757q-.408.04-.9.113c.245.202.479.374.706.53H11zm-6.826 3.256c.036.086.075.099.12.107a1.252 1.252 0 0 0 .955-.502l.034-.033a6.068 6.068 0 0 0 .838-1.506 4.596 4.596 0 0 0-.188.1c-2.036 1.169-1.856 1.6-1.76 1.834zm5.15-3.238a25.709 25.709 0 0 1-1.612-1.846 57.243 57.243 0 0 1-.888 2.49c.803-.24 1.663-.46 2.5-.644zM7.988 4.974a.554.554 0 0 0-.307-.478.351.351 0 0 0-.12-.02.485.485 0 0 0-.316.132c-.293.263-.455 1.248.319 2.792a7.768 7.768 0 0 0 .424-2.426zM16 12h-2v-2h-2v2h-2v2h2v2h2v-2h2z"/></svg>