<svg xmlns="http://www.w3.org/2000/svg" viewBox="0 0 24 24"><path d="M0 22h24v-3H0zm1-2h22v1H1zm5-4a40.81 40.81 0 0 1-.015-1.068 6.019 6.019 0 0 1 6.05-6.146c.137 0 .27.012.405.02l.324-.983a7.192 7.192 0 0 0-.729-.037A7.021 7.021 0 0 0 8.217 8.9L6.306 5.762a10.905 10.905 0 0 1 5.688-1.626 10.749 10.749 0 0 1 1.926.183l.318-.965A11.961 11.961 0 0 0 0 14.934c0 .142.003.908.01 1.066zm-5-1.065A10.794 10.794 0 0 1 5.476 6.32L7.414 9.5a7.142 7.142 0 0 0-2.429 5.432V15H1zm17.524-8.611l.335-1.019A11.754 11.754 0 0 1 24 14.935c0 .14-.004.9-.01 1.065H18c.01-.227.014-.924.014-1.068a6.32 6.32 0 0 0-1.286-3.873 1.45 1.45 0 0 0 .442-.63l.09-.271a7.229 7.229 0 0 1 1.755 4.775V15H23v-.065a10.79 10.79 0 0 0-4.476-8.611zm-2.46 4.266l2.778-8.425-2.85-.938-2.777 8.423zm.565-8.1l.95.312-2.151 6.525-.95-.313z"/></svg>