<svg xmlns="http://www.w3.org/2000/svg" viewBox="0 0 32 32"><path d="M0 27h32v-3H0zm1-2h30v1H1zm8-6c-.326-5.22 3.13-7.945 6.575-8.177a1.491 1.491 0 0 1 .069-.6l.134-.41a8.115 8.115 0 0 0-4.614 1.628L7.556 5.577a14.842 14.842 0 0 1 10.422-2.433l.316-.959A15.873 15.873 0 0 0 0 17.797C0 17.99.005 18.801.013 19zM6.749 6.173l3.65 5.931c-.068.066-.14.126-.204.195A8.434 8.434 0 0 0 7.982 18H1.001L1 17.797A14.697 14.697 0 0 1 6.749 6.173zM22.76 4.606l.309-.936A15.84 15.84 0 0 1 32 17.797c0 .191-.005.994-.013 1.203H23a7.354 7.354 0 0 0-2.814-6.846 1.479 1.479 0 0 0 .206-.364l.193-.587a7.745 7.745 0 0 1 1.3 1.117A8.32 8.32 0 0 1 24.03 18H31l.001-.203a14.782 14.782 0 0 0-8.24-13.191zm-3.475 7.345l3.582-10.863-2.85-.937-3.581 10.86zm1.37-10.538l.95.313-2.957 8.962-.95-.314z"/></svg>