<svg xmlns="http://www.w3.org/2000/svg" viewBox="0 0 16 16"><path d="M15 15H1v-3h14zm-1-1v-1H2v1zM10 2.172v.975a5.978 5.978 0 0 1 3.837 5.61c0 .08-.002.162-.005.243h-1.894c.006-.08.01-.161.01-.242A3.927 3.927 0 0 0 10 5.379v1.224a2.963 2.963 0 0 1 1 2.202V10h3.892A6.855 6.855 0 0 0 15 8.805a7.005 7.005 0 0 0-5-6.633zm-3 2.78a3.91 3.91 0 0 0-1.167.513L4.537 3.947A5.675 5.675 0 0 1 7 2.87v-.915a6.97 6.97 0 0 0-5.937 6.85A6.855 6.855 0 0 0 1.17 10H5V8.805a3.002 3.002 0 0 1 2-2.801zM4.053 8.758c0 .08.003.161.009.242H2.168a6.741 6.741 0 0 1-.005-.242A6.021 6.021 0 0 1 3.67 4.752l1.283 1.503a3.922 3.922 0 0 0-.9 2.503zM8 7h1V1H8z"/></svg>