<svg xmlns="http://www.w3.org/2000/svg" viewBox="0 0 16 16"><path d="M15.913 7.999l-.385.53c-.13.178-3.226 4.371-7.228 4.371a5.906 5.906 0 0 1-.986-.093l1.792-1.792A9.019 9.019 0 0 0 13.64 8a13.51 13.51 0 0 0-.742-.777l1.276-1.276a13.148 13.148 0 0 1 1.354 1.523zm-.91-4.296l-11 11L2.59 13.29l1.725-1.725a13.829 13.829 0 0 1-3.242-3.036L.687 8l.385-.53c.13-.178 3.226-4.371 7.228-4.371a7 7 0 0 1 3.462 1.018L13.59 2.29zm-9.38 6.553l1.144-1.144a1.893 1.893 0 0 1 2.646-2.646l1.022-1.023A4.926 4.926 0 0 0 8.3 4.898c-2.361 0-4.464 2.091-5.34 3.1a11.55 11.55 0 0 0 2.663 2.258z"/></svg>