<svg xmlns="http://www.w3.org/2000/svg" viewBox="0 0 32 32"><path d="M21 15.5a4.449 4.449 0 0 0-.443-1.914l.752-.752a5.498 5.498 0 0 1-7.475 7.475l.752-.752A4.449 4.449 0 0 0 16.5 20a4.505 4.505 0 0 0 4.5-4.5zm2.87-5.228l-.729.73a24.93 24.93 0 0 1 5.528 4.497C27.062 17.24 22.149 22 16.5 22a11.53 11.53 0 0 1-3.705-.653l-.779.78A12.744 12.744 0 0 0 16.5 23c7.456 0 13.5-7.5 13.5-7.5a25.783 25.783 0 0 0-6.13-5.228zm1.494-2.908l-17 17-.707-.707 2.405-2.404A25.387 25.387 0 0 1 3 15.5S9.044 8 16.5 8a13.303 13.303 0 0 1 5.512 1.302l2.645-2.645zM10.808 20.507l1.484-1.484a5.486 5.486 0 0 1 7.73-7.731l1.236-1.236A12.116 12.116 0 0 0 16.5 9c-5.65 0-10.562 4.76-12.169 6.501a24.164 24.164 0 0 0 6.477 5.006zM16.5 11a4.505 4.505 0 0 0-4.5 4.5 4.44 4.44 0 0 0 1.015 2.8l6.285-6.285A4.44 4.44 0 0 0 16.5 11z"/></svg>