<svg xmlns="http://www.w3.org/2000/svg" viewBox="0 0 32 32"><path d="M14.171 20.24l7.068-7.069A5.244 5.244 0 0 1 21.8 15.5a5.3 5.3 0 0 1-5.3 5.3 5.244 5.244 0 0 1-2.329-.56zm17.291-5.45a28.721 28.721 0 0 0-6.13-5.711l-1.397 1.396a27.386 27.386 0 0 1 5.626 5.025c-1.493 1.765-6.869 7.558-13.105 7.558a11.748 11.748 0 0 1-4.25-.854l-1.49 1.49A14.088 14.088 0 0 0 16.456 25c8.24 0 14.734-8.431 15.006-8.79L32 15.5zm-4.964-8.292l-19.5 19.5-1.414-1.414 2.394-2.394a28.483 28.483 0 0 1-6.528-5.98l-.538-.71.538-.71C1.722 14.432 8.216 6 16.456 6a14.287 14.287 0 0 1 6.183 1.529l2.445-2.445zM9.393 20.775l2.566-2.566a5.28 5.28 0 0 1 7.25-7.25L21.169 9a11.98 11.98 0 0 0-4.713-1.057c-6.236 0-11.612 5.793-13.105 7.558a27.18 27.18 0 0 0 6.042 5.275z"/></svg>