<svg xmlns="http://www.w3.org/2000/svg" viewBox="0 0 32 32"><path d="M10.125 29H1V3h30v18.888a25.503 25.503 0 0 0-1-1.165V9H2v19h8.724c.07.064.137.128.21.191zM30 26.279V28h-1.726c-.373.337-.767.673-1.186 1H31v-3.888c-.276.342-.609.736-1 1.167zM19.5 27a3.491 3.491 0 0 0 3.196-4.915l-4.611 4.611A3.478 3.478 0 0 0 19.5 27zM31 23.5l-.28.347C30.514 24.099 25.65 31 19.5 31a9.908 9.908 0 0 1-4.525-1.194l1.493-1.493A7.587 7.587 0 0 0 19.5 29c3.885 0 7.36-3.574 8.949-5.5a20.642 20.642 0 0 0-3.662-3.506l1.42-1.42a23.55 23.55 0 0 1 4.512 4.58zm-5.23-8.73l-2.207 2.206A9.632 9.632 0 0 0 19.5 16c-6.15 0-11.015 6.902-11.22 7.154L8 23.5l.28.347a24.018 24.018 0 0 0 4.133 4.28L10.27 30.27l1.414 1.414 15.5-15.5zM10.55 23.5c1.59-1.925 5.063-5.5 8.949-5.5a7.297 7.297 0 0 1 2.545.494L20.4 20.138a3.344 3.344 0 0 0-.9-.138 3.5 3.5 0 0 0-3.5 3.5 3.344 3.344 0 0 0 .138.9l-2.306 2.307a21.284 21.284 0 0 1-3.28-3.207z"/></svg>