<svg xmlns="http://www.w3.org/2000/svg" viewBox="0 0 16 16"><path d="M5.814 14H0V1h16v8.856a10.918 10.918 0 0 0-.87-.852.99.99 0 0 0-.05-1.339l-.08-.08V5H1v8h3.819a11.42 11.42 0 0 0 .995 1zm9.386 0h.8v-.783c-.22.238-.487.506-.8.783zm.662-2.171c-.096.13-2.381 3.204-5.362 3.204a5.057 5.057 0 0 1-2.23-.559l-.898.898-.707-.707.713-.713a9.995 9.995 0 0 1-2.224-2.125l-.214-.294.214-.294c.095-.13 2.365-3.206 5.346-3.206a5.078 5.078 0 0 1 2.237.56l.928-.928.707.707-.743.743a10.08 10.08 0 0 1 2.233 2.123l.216.295zm-6.705.344a1.483 1.483 0 0 1-.149-.64 1.502 1.502 0 0 1 1.5-1.5 1.483 1.483 0 0 1 .64.15l.833-.833a3.892 3.892 0 0 0-1.481-.317c-1.981 0-3.692 1.782-4.3 2.5a9.142 9.142 0 0 0 1.905 1.692zm5.66-.64a9.23 9.23 0 0 0-1.915-1.69l-1.045 1.045a1.483 1.483 0 0 1 .151.645 1.502 1.502 0 0 1-1.5 1.5 1.483 1.483 0 0 1-.645-.152l-.837.838a3.873 3.873 0 0 0 1.474.314c1.989 0 3.705-1.78 4.316-2.5z"/></svg>