<svg xmlns="http://www.w3.org/2000/svg" viewBox="0 0 24 24"><path d="M1 21V7h22v8.874c.395.35.736.685 1 .965V1H0v21h11.028a15.413 15.413 0 0 1-1.235-1zM1 2h22v4H1zm23 18.254V22h-1.962A15.226 15.226 0 0 0 24 20.254zm-7.844.757l2.81-2.81a2.46 2.46 0 0 1 .034.345 2.503 2.503 0 0 1-2.5 2.5 2.46 2.46 0 0 1-.344-.035zm.403 2.035a6.824 6.824 0 0 1-2.092-.346l.814-.814a5.54 5.54 0 0 0 1.278.16c2.97 0 5.5-2.596 6.29-3.5a13.308 13.308 0 0 0-2.22-2.008l.721-.721a13.678 13.678 0 0 1 2.547 2.424l.234.305-.234.305c-.132.171-3.273 4.195-7.338 4.195zm4.11-9.376l-1.092 1.092a7.169 7.169 0 0 0-3.018-.716c-4.06 0-7.313 4.017-7.45 4.188l-.249.312.25.312a14.056 14.056 0 0 0 3.42 2.951l-.906.906.707.707 9.045-9.045zm-5.519 5.519a1.483 1.483 0 0 1-.15-.643 1.502 1.502 0 0 1 1.5-1.5 1.483 1.483 0 0 1 .643.15zm2.727-2.726a2.496 2.496 0 0 0-3.46 3.46l-1.15 1.15a13.273 13.273 0 0 1-3.105-2.527c.826-.911 3.436-3.5 6.397-3.5a5.956 5.956 0 0 1 2.256.478z"/></svg>