<svg xmlns="http://www.w3.org/2000/svg" viewBox="0 0 24 24"><path d="M24 2v20h-5.17a11.145 11.145 0 0 0 1.612-1H23v-2.452c.166-.204.284-.36.335-.43l.386-.53a1 1 0 0 0 0-1.178l-.385-.528c-.05-.07-.175-.23-.336-.43V7H1v14h8.465l-.583.583a.974.974 0 0 0-.236.417H0V2zm-1.472 14.47a13.148 13.148 0 0 0-1.354-1.523l-1.276 1.276c.295.287.552.56.742.777a9.019 9.019 0 0 1-4.534 3.015l-1.792 1.792a5.906 5.906 0 0 0 .986.093c4.002 0 7.098-4.193 7.228-4.372l.385-.529zm-.524-3.767l-11 11-1.415-1.414 1.725-1.725a13.829 13.829 0 0 1-3.242-3.036L7.687 17l.385-.53c.13-.178 3.226-4.371 7.228-4.371a7 7 0 0 1 3.462 1.018l1.827-1.827zm-9.381 6.553l1.144-1.144a1.893 1.893 0 0 1 2.646-2.646l1.022-1.023a4.926 4.926 0 0 0-2.135-.545c-2.361 0-4.464 2.091-5.34 3.1a11.55 11.55 0 0 0 2.663 2.258z"/></svg>