<svg xmlns="http://www.w3.org/2000/svg" viewBox="0 0 32 32"><path d="M12.723 28H2V9h28v11.75c.37.324.7.638 1 .939V2H1v27h12.909c-.429-.335-.825-.67-1.186-1zM2 3h28v5H2zm29 24.311V29h-1.909A21.163 21.163 0 0 0 31 27.311zM25 24.5a3.461 3.461 0 0 0-.226-1.2l.759-.758A4.447 4.447 0 0 1 26 24.5a4.505 4.505 0 0 1-4.5 4.5 4.447 4.447 0 0 1-1.958-.467l.758-.759a3.461 3.461 0 0 0 1.2.226 3.504 3.504 0 0 0 3.5-3.5zm6.9-.299a20.103 20.103 0 0 0-4.1-3.926l-.727.726a19.786 19.786 0 0 1 3.788 3.5C29.88 25.687 26.017 30 21.5 30a8.17 8.17 0 0 1-2.867-.559l-.774.774A9.43 9.43 0 0 0 21.5 31c5.708 0 10.212-5.948 10.4-6.201l.224-.299zm-3.57-5.87l-13 13-.707-.708 1.372-1.371a19.794 19.794 0 0 1-4.896-4.453l-.223-.299.223-.299C11.29 23.948 15.792 18 21.5 18a9.925 9.925 0 0 1 4.542 1.204l1.581-1.58zm-4.77 3.355A3.468 3.468 0 0 0 21.5 21a3.504 3.504 0 0 0-3.5 3.5 3.468 3.468 0 0 0 .686 2.06zm1.733-1.732A8.718 8.718 0 0 0 21.5 19c-4.517 0-8.382 4.312-9.36 5.5a19.105 19.105 0 0 0 4.588 4.018l1.25-1.25A4.455 4.455 0 0 1 17 24.5a4.505 4.505 0 0 1 4.5-4.5 4.455 4.455 0 0 1 2.768.979z"/></svg>