<svg xmlns="http://www.w3.org/2000/svg" viewBox="0 0 16 16"><path d="M8.156 9.965l2.81-2.81A2.46 2.46 0 0 1 11 7.5 2.502 2.502 0 0 1 8.5 10a2.46 2.46 0 0 1-.344-.035zm7.74-2.77a13.691 13.691 0 0 0-2.546-2.424l-.72.721A13.334 13.334 0 0 1 14.848 7.5c-.79.904-3.32 3.5-6.29 3.5a5.54 5.54 0 0 1-1.278-.16l-.814.814A6.825 6.825 0 0 0 8.559 12c4.065 0 7.206-4.024 7.337-4.195l.235-.305zm-1.543-4.841l-11 11-.707-.707 1.885-1.885a14.098 14.098 0 0 1-3.422-2.95L.86 7.5l.25-.312C1.245 7.018 4.497 3 8.558 3a7.162 7.162 0 0 1 3.016.718l2.071-2.071zm-9.086 7.672l1.15-1.15a2.496 2.496 0 0 1 3.46-3.46l.937-.937A5.952 5.952 0 0 0 8.56 4C5.599 4 2.99 6.589 2.163 7.5a13.267 13.267 0 0 0 3.105 2.526zM7.153 8.14L9.14 6.153A1.47 1.47 0 0 0 8.5 6 1.502 1.502 0 0 0 7 7.5a1.47 1.47 0 0 0 .153.64z"/></svg>