<svg xmlns="http://www.w3.org/2000/svg" viewBox="0 0 24 24"><path d="M11.085 15.696l4.611-4.611a3.491 3.491 0 0 1-4.611 4.611zm12.634-3.542a23.55 23.55 0 0 0-4.512-4.58l-1.42 1.42a20.642 20.642 0 0 1 3.662 3.506c-1.59 1.926-5.064 5.5-8.949 5.5a7.587 7.587 0 0 1-3.032-.687l-1.493 1.493A9.908 9.908 0 0 0 12.5 20c6.15 0 11.015-6.901 11.22-7.153L24 12.5zm-3.535-6.97l-15.5 15.5L3.27 19.27l2.143-2.144a24.018 24.018 0 0 1-4.132-4.279L1 12.5l.28-.346C1.486 11.902 6.35 5 12.5 5a9.632 9.632 0 0 1 4.063.976L18.77 3.77zM6.832 15.707l2.306-2.306A3.344 3.344 0 0 1 9 12.5 3.5 3.5 0 0 1 12.5 9a3.344 3.344 0 0 1 .9.138l1.645-1.644A7.297 7.297 0 0 0 12.5 7c-3.886 0-7.36 3.575-8.949 5.5a21.284 21.284 0 0 0 3.281 3.207z"/></svg>