<svg xmlns="http://www.w3.org/2000/svg" viewBox="0 0 24 24"><path d="M16 11.5a3.461 3.461 0 0 0-.226-1.2l.759-.758A4.447 4.447 0 0 1 17 11.5a4.505 4.505 0 0 1-4.5 4.5 4.447 4.447 0 0 1-1.958-.467l.758-.759a3.461 3.461 0 0 0 1.2.226 3.504 3.504 0 0 0 3.5-3.5zm6.9-.299a20.1 20.1 0 0 0-4.1-3.926L18.072 8a19.802 19.802 0 0 1 3.788 3.5c-.98 1.188-4.851 5.5-9.36 5.5a8.169 8.169 0 0 1-2.867-.559l-.774.774A9.429 9.429 0 0 0 12.5 18c5.708 0 10.212-5.948 10.4-6.201l.224-.299zm-3.57-5.87l-13 13-.707-.708 1.375-1.375a19.847 19.847 0 0 1-4.898-4.45l-.224-.298.224-.299C2.288 10.948 6.792 5 12.5 5a9.911 9.911 0 0 1 4.539 1.208l1.584-1.585zM7.732 15.514l1.255-1.255A4.43 4.43 0 0 1 8 11.5 4.505 4.505 0 0 1 12.5 7a4.43 4.43 0 0 1 2.76.987l1.031-1.032A8.713 8.713 0 0 0 12.5 6c-4.509 0-8.38 4.313-9.36 5.5a19.152 19.152 0 0 0 4.592 4.015zm1.964-1.965l4.854-4.854A3.436 3.436 0 0 0 12.5 8 3.504 3.504 0 0 0 9 11.5a3.436 3.436 0 0 0 .696 2.05z"/></svg>