<svg xmlns="http://www.w3.org/2000/svg" viewBox="0 0 16 16"><path d="M16 13.217V15h-2.137A10.426 10.426 0 0 0 16 13.217zm-1.628-4.845l-7 7-.707-.707.713-.713a9.995 9.995 0 0 1-2.224-2.125l-.214-.294.214-.294c.095-.13 2.365-3.206 5.346-3.206a5.078 5.078 0 0 1 2.237.56l.928-.928zm-2.391.978a3.892 3.892 0 0 0-1.481-.317c-1.981 0-3.692 1.782-4.3 2.5a9.142 9.142 0 0 0 1.905 1.692l1.052-1.052a1.483 1.483 0 0 1-.149-.64 1.502 1.502 0 0 1 1.5-1.5 1.483 1.483 0 0 1 .64.15zm-6.095 4.717a1 1 0 0 0-.15.933H0V1h16v8.856a10.918 10.918 0 0 0-.87-.852.99.99 0 0 0-.05-1.339l-.08-.08V6H1v8h4.814c.026.023.045.044.072.067zM1 5h14V2H1zm14.862 6.829l.216-.296-.216-.295a10.072 10.072 0 0 0-1.433-1.509l-.71.71a9.811 9.811 0 0 1 1.097 1.095c-.611.719-2.327 2.5-4.316 2.5a3.332 3.332 0 0 1-.339-.037l-.867.867a4.608 4.608 0 0 0 1.206.17c2.981 0 5.266-3.075 5.362-3.205z"/></svg>