<svg xmlns="http://www.w3.org/2000/svg" viewBox="0 0 24 24"><path d="M9.481 20.709c.273.26.589.54.943.827C4.699 22.818 1 20.983 1 20.983L4.05 2.678s4.577 1.525 8.39 0 8.39 0 8.39 0L22.55 13h-1.013l-1.589-9.533A15.195 15.195 0 0 0 16.311 3a9.415 9.415 0 0 0-3.499.606 11.392 11.392 0 0 1-4.241.75 17.122 17.122 0 0 1-3.715-.429L2.12 20.348a13.084 13.084 0 0 0 4.304.752 17.296 17.296 0 0 0 3.057-.391zm14.416-2.468a13.663 13.663 0 0 0-2.546-2.424l-.721.72a13.307 13.307 0 0 1 2.219 2.009c-.792.903-3.327 3.5-6.29 3.5a5.534 5.534 0 0 1-1.278-.16l-.814.814a6.823 6.823 0 0 0 2.092.346c4.065 0 7.207-4.024 7.338-4.195l.235-.305zm-2.52-3.864l-9.046 9.045-.707-.707.907-.906a14.067 14.067 0 0 1-3.42-2.952l-.25-.311.25-.312c.136-.17 3.388-4.188 7.448-4.188a7.17 7.17 0 0 1 3.018.716l1.093-1.092zm-4.234 2.82a1.483 1.483 0 0 0-.642-.151 1.502 1.502 0 0 0-1.5 1.5 1.483 1.483 0 0 0 .15.642zm1.673-1.673a5.959 5.959 0 0 0-2.257-.478c-2.96 0-5.57 2.589-6.396 3.5a13.266 13.266 0 0 0 3.104 2.527l1.15-1.15a2.496 2.496 0 0 1 3.46-3.46zM16.5 21.046a2.502 2.502 0 0 0 2.5-2.5 2.469 2.469 0 0 0-.035-.345l-2.81 2.81a2.469 2.469 0 0 0 .345.035z"/></svg>