<svg xmlns="http://www.w3.org/2000/svg" viewBox="0 0 32 32"><path d="M25 24.5a3.462 3.462 0 0 0-.226-1.2l.759-.758A4.447 4.447 0 0 1 26 24.5a4.505 4.505 0 0 1-4.5 4.5 4.447 4.447 0 0 1-1.958-.467l.758-.759a3.462 3.462 0 0 0 1.2.226 3.504 3.504 0 0 0 3.5-3.5zm6.9-.299a20.1 20.1 0 0 0-4.1-3.926l-.727.726A19.802 19.802 0 0 1 30.86 24.5c-.98 1.188-4.851 5.5-9.36 5.5a8.169 8.169 0 0 1-2.867-.559l-.774.774A9.429 9.429 0 0 0 21.5 31c5.708 0 10.212-5.948 10.4-6.201l.224-.299zm-3.57-5.87l-13 13-.707-.708 1.372-1.372A19.793 19.793 0 0 1 11.1 24.8l-.224-.299.224-.299C11.288 23.948 15.792 18 21.5 18a9.925 9.925 0 0 1 4.542 1.204l1.581-1.58zm-4.77 3.355A3.468 3.468 0 0 0 21.5 21a3.504 3.504 0 0 0-3.5 3.5 3.468 3.468 0 0 0 .686 2.06zm1.733-1.732A8.717 8.717 0 0 0 21.5 19c-4.509 0-8.38 4.313-9.36 5.5a19.112 19.112 0 0 0 4.588 4.018l1.25-1.25A4.455 4.455 0 0 1 17 24.5a4.505 4.505 0 0 1 4.5-4.5 4.455 4.455 0 0 1 2.768.979zM1 27.9l.006-.034c-.09-.02-.109-.017-.006.034zm1.143-.773L5.786 5.268a13.215 13.215 0 0 0 4.553.8 16.272 16.272 0 0 0 6.033-1.24 12.648 12.648 0 0 1 4.702-.817 20.301 20.301 0 0 1 5.043.674l2.017 12.1a.959.959 0 0 1 .196.131l.084.084h.77L27 3.9s-6-2-11 0a13.387 13.387 0 0 1-11 0L1.006 27.866a28.646 28.646 0 0 0 10.994.93v-1a20.296 20.296 0 0 1-3.073.295 27.1 27.1 0 0 1-6.784-.964z"/></svg>