<svg xmlns="http://www.w3.org/2000/svg" viewBox="0 0 16 16"><path d="M3.792 14.1A6.316 6.316 0 0 0 5 13.944v.975a10.099 10.099 0 0 1-5-.63l2.133-12.8a9.745 9.745 0 0 0 5.867 0 9.762 9.762 0 0 1 5.867 0L14.62 6h-1.014l-.619-3.714a10.323 10.323 0 0 0-2.28-.272 6.29 6.29 0 0 0-2.334.402 8.252 8.252 0 0 1-3.078.547 12.159 12.159 0 0 1-2.353-.241L1.123 13.637a8.912 8.912 0 0 0 2.67.463zm10.58-5.728l-7 7-.707-.707.713-.713a9.99 9.99 0 0 1-2.224-2.125l-.214-.294.214-.294c.095-.13 2.364-3.206 5.346-3.206a5.077 5.077 0 0 1 2.237.56l.928-.928zm-2.391.978a3.892 3.892 0 0 0-1.481-.317c-1.982 0-3.692 1.782-4.3 2.5a9.141 9.141 0 0 0 1.905 1.692l1.053-1.052a1.483 1.483 0 0 1-.15-.64 1.502 1.502 0 0 1 1.5-1.5 1.483 1.483 0 0 1 .64.149zm3.88 1.888A10.073 10.073 0 0 0 14.43 9.73l-.71.711a9.769 9.769 0 0 1 1.096 1.094c-.61.719-2.327 2.5-4.315 2.5a3.332 3.332 0 0 1-.339-.037l-.867.867a4.608 4.608 0 0 0 1.206.17c2.981 0 5.266-3.075 5.361-3.206l.217-.295z"/></svg>