<svg xmlns="http://www.w3.org/2000/svg" viewBox="0 0 16 16"><path d="M5.78 14.22a1.06 1.06 0 0 0-.09.63A10.25 10.25 0 0 1 0 14.29l2.13-12.8a9.74 9.74 0 0 0 5.87 0 9.74 9.74 0 0 1 5.87 0l1 6-.5-.49A1 1 0 0 0 13 7l-.33.32a6.16 6.16 0 0 0-2.13-.4C7.73 6.88 4.92 9.19 3.88 11a1.09 1.09 0 0 0 0 1.09 8.42 8.42 0 0 0 1.9 2.13zm10-3a9.67 9.67 0 0 0-1.37-1.47l-.61.61A10.34 10.34 0 0 1 15 11.5c-.65.74-2.39 2.56-4.51 2.56h-.35l-.82.82a4.59 4.59 0 0 0 1.17.16c2.94 0 5.2-3.07 5.3-3.21l.21-.33zm-1.41-2.85l-7 7-.7-.7.74-.75a10 10 0 0 1-2.2-2.13L5 11.5l.21-.29C5.3 11.08 7.55 8 10.49 8a4.89 4.89 0 0 1 2.25.59l.93-.92zm-6.31 4.9l1.1-1.1A1.49 1.49 0 0 1 10.51 10a1.54 1.54 0 0 1 .64.15l.91-.91a4.12 4.12 0 0 0-1.57-.33C8.38 8.94 6.65 10.77 6 11.5a9.69 9.69 0 0 0 2.06 1.77z"/></svg>