<svg xmlns="http://www.w3.org/2000/svg" viewBox="0 0 32 32"><path d="M32 23.47l-.28.35c-.21.25-5.07 7.18-11.22 7.18a9.85 9.85 0 0 1-4.5-1.22l1.38-1.38a7.75 7.75 0 0 0 3.14.72c4 0 7.49-3.64 9.11-5.6a20.73 20.73 0 0 0-3.78-3.6l1.34-1.34a23.07 23.07 0 0 1 4.55 4.55zm-13.79 2.66l-5.53 5.53-1.41-1.42 2.14-2.14a24.06 24.06 0 0 1-4.13-4.28L9 23.47l.28-.34c.21-.25 5.07-7.06 11.22-7.06a9.75 9.75 0 0 1 4 .94l2-2 1.42 1.41-4.77 4.77a3.49 3.49 0 0 1-4.92 4.92zm-3.48.66l2.4-2.4a3.3 3.3 0 0 1-.13-.89 3.5 3.5 0 0 1 3.5-3.5 3.3 3.3 0 0 1 .89.13l1.7-1.7a7.42 7.42 0 0 0-2.59-.51c-4 0-7.49 3.64-9.11 5.6a21.73 21.73 0 0 0 3.34 3.27zM1 27.9c-.08-.05-.1-.05 0 0zm7.46-3.34l-.7-.87a.35.35 0 0 1 0-.43l.67-.82c1.31-1.75 6.06-7.54 12.07-7.54a10.11 10.11 0 0 1 3.81.75L26 14a1.14 1.14 0 0 1 1.62 0l1.32 1.32L27 3.9s-6-2-11 0a13.39 13.39 0 0 1-11 0l-4 24a29.13 29.13 0 0 0 10.06 1l.72-.72a24.92 24.92 0 0 1-3.32-3.62z"/></svg>