<svg xmlns="http://www.w3.org/2000/svg" viewBox="0 0 24 24"><path d="M10.53 20.77l-.73.73c-.05.06-.08.13-.13.19A14.81 14.81 0 0 1 1 21L4.05 2.68s4.58 1.52 8.39 0 8.39 0 8.39 0l1.26 7.56a1.12 1.12 0 0 0-.44-.09 1.19 1.19 0 0 0-.85.35l-1.18 1.18a7.82 7.82 0 0 0-3.32-.78c-4.53 0-7.84 4.37-8.2 4.86l-.33.46a1.32 1.32 0 0 0 0 1.56l.33.45a15.14 15.14 0 0 0 2.43 2.54zm1.12 2.58l-1-1 1.74-1.74a13.8 13.8 0 0 1-3.32-3.08L8.69 17l.38-.53c.13-.18 3.23-4.37 7.23-4.37a7.16 7.16 0 0 1 3.55 1.05l1.8-1.8 1 1zm2-4.05l1.23-1.23a1.9 1.9 0 0 1 2.64-2.64l.95-.95a4.92 4.92 0 0 0-2.22-.58c-2.31 0-4.41 2.1-5.25 3.1a11.07 11.07 0 0 0 2.7 2.3zm9.83-2.83a14.2 14.2 0 0 0-1.63-1.78L20.62 16c.42.39.77.76 1 1-.85 1-2.86 3-5.13 3.08l-1.65 1.64a5.8 5.8 0 0 0 1.44.18c4 0 7.1-4.19 7.23-4.37l.38-.53z"/></svg>