<svg xmlns="http://www.w3.org/2000/svg" viewBox="0 0 32 32"><path d="M28 3H5a3 3 0 0 0-3 3v17a3 3 0 0 0 3 3h3.001L7 32l7-6h14a3 3 0 0 0 3-3V6a3 3 0 0 0-3-3zm2.001 20A2.003 2.003 0 0 1 28 25H14a.998.998 0 0 0-.65.238l-4.91 4.21.547-3.284A1.002 1.002 0 0 0 8 25H4.999A2.001 2.001 0 0 1 3 23V6a2.001 2.001 0 0 1 1.999-2H28a2.003 2.003 0 0 1 2.001 2zM19 8H6V7h13zm8 3H14v-1h13zm-2 2H14v-1h11zm2 2H14v-1h13zm-15 5H6v-1h6zm0 2H6v-1h6zm9-5h-7v-1h7zm6 3H14v-1h13zm-3 2H14v-1h10zM6 10h6v7H6zm5 1H7v5h4z"/></svg>