<svg xmlns="http://www.w3.org/2000/svg" viewBox="0 0 24 24"><path d="M2.2 8.15c-.13-1.432-.16-2.68-.2-3.57V3.206C6.95 4.748 12.476 0 12.476 0l.024.019.024-.019S18.049 4.748 23 3.206V4.58a35.716 35.716 0 0 1-.896 7.762 7.103 7.103 0 0 0-.887-.548 32.915 32.915 0 0 0 .758-6.585L22 4.58v-.136a8.382 8.382 0 0 1-1.092.07c-3.634 0-7.039-2.235-8.408-3.26-1.37 1.025-4.775 3.26-8.409 3.26A8.4 8.4 0 0 1 3 4.445l.026.767c.024.658.057 1.431.118 2.27a4.04 4.04 0 0 0-.943.67zM24 18a6 6 0 1 1-6-6 6 6 0 0 1 6 6zm-1 0a5 5 0 1 0-5 5 5.006 5.006 0 0 0 5-5zm-1 0a4 4 0 1 1-4-4 4.004 4.004 0 0 1 4 4zm-1 0a3 3 0 1 0-3 3 3.003 3.003 0 0 0 3-3zM5 14a3 3 0 1 1 3-3 3 3 0 0 1-3 3zm2-3a2 2 0 1 0-2 2 2 2 0 0 0 2-2zm3 5v6a1 1 0 0 1-1 1H8a1 1 0 0 1-1 1H3a1 1 0 0 1-1-1H1a1 1 0 0 1-1-1v-6a2 2 0 0 1 2-2h6a2 2 0 0 1 2 2zm-1 0a1 1 0 0 0-1-1H2a1 1 0 0 0-1 1v6h1v-5h1v6h4v-6h1v5h1v-6zm3.5 6.895a17.12 17.12 0 0 1-1.506-.837 1.98 1.98 0 0 1-.295.985A18.526 18.526 0 0 0 12.5 24c.386-.177.754-.363 1.11-.555a7.072 7.072 0 0 1-.77-.738c-.117.06-.22.129-.34.188z"/></svg>