<svg xmlns="http://www.w3.org/2000/svg" viewBox="0 0 32 32"><path d="M3.095 8.916C3.051 8.004 3.029 7.2 3 6.542V4.759C9.365 6.76 16.47.597 16.47.597l.03.024.03-.024S23.635 6.76 30 4.759v1.783a46.671 46.671 0 0 1-1.161 10.115 8.886 8.886 0 0 0-.89-.502 43.024 43.024 0 0 0 1.018-8.784L29 6.542v-.52a10.344 10.344 0 0 1-1.69.137c-4.75 0-9.203-3.062-10.81-4.302-1.607 1.24-6.06 4.302-10.81 4.302A10.35 10.35 0 0 1 4 6.022l-.001.476.034.873.023.62a5.153 5.153 0 0 0-.961.925zM7 16a4 4 0 1 1 4-4 4 4 0 0 1-4 4zm3-4a3 3 0 1 0-3 3 3.003 3.003 0 0 0 3-3zm21.8 11.999a7.8 7.8 0 1 1-7.8-7.8 7.8 7.8 0 0 1 7.8 7.8zm-.9 0a6.9 6.9 0 1 0-6.9 6.9 6.908 6.908 0 0 0 6.9-6.9zm-1 .001a5.9 5.9 0 1 1-5.9-5.9 5.9 5.9 0 0 1 5.9 5.9zm-1 0a4.9 4.9 0 1 0-4.9 4.9 4.9 4.9 0 0 0 4.9-4.9zm-12.4 6.644a23.172 23.172 0 0 1-2.33-1.3 2.52 2.52 0 0 1-.988.55A24.009 24.009 0 0 0 16.5 31.75c.666-.307 1.286-.64 1.887-.981a8.9 8.9 0 0 1-.756-.712c-.365.201-.741.398-1.131.586zM12.5 29H11v2.25a.75.75 0 0 1-.75.75h-6.5a.75.75 0 0 1-.75-.75V29H1.5A1.5 1.5 0 0 1 0 27.5v-9.25A2.25 2.25 0 0 1 2.25 16h9.5A2.25 2.25 0 0 1 14 18.25v9.25a1.5 1.5 0 0 1-1.5 1.5zm.5-10.75A1.251 1.251 0 0 0 11.75 17h-9.5A1.251 1.251 0 0 0 1 18.25v9.25a.501.501 0 0 0 .5.5H3v-8h1v11h6V20h1v8h1.5a.501.501 0 0 0 .5-.5z"/></svg>