<svg xmlns="http://www.w3.org/2000/svg" viewBox="0 0 32 32"><path d="M18.203 30.873c-.544.305-1.105.602-1.703.878a24.009 24.009 0 0 1-3.318-1.858A2.496 2.496 0 0 0 15 27.5V26h.225a9.016 9.016 0 0 0 2.978 4.873zM11 12a4 4 0 1 0-4 4 4 4 0 0 0 4-4zm3 15.5v-9.25A2.25 2.25 0 0 0 11.75 16h-9.5A2.25 2.25 0 0 0 0 18.25v9.25A1.5 1.5 0 0 0 1.5 29H2v-9h1v11.25a.75.75 0 0 0 .75.75h6.5a.75.75 0 0 0 .75-.75V20h1v9h.5a1.5 1.5 0 0 0 1.5-1.5zm10-8.4a4.9 4.9 0 1 0 4.9 4.9 4.9 4.9 0 0 0-4.9-4.9zm7.8 4.899a7.8 7.8 0 1 1-7.8-7.8 7.8 7.8 0 0 1 7.8 7.8zM29.9 24a5.9 5.9 0 1 0-5.9 5.9 5.9 5.9 0 0 0 5.9-5.9zM7 6.85A5.131 5.131 0 0 1 11.168 15h.582A3.254 3.254 0 0 1 15 18.25V22h.232A8.963 8.963 0 0 1 17 18.382V2.23c1.906 1.389 5.98 3.929 10.31 3.929A10.344 10.344 0 0 0 29 6.022v.52l-.032.828a43.472 43.472 0 0 1-.97 8.577c-.029-.014.576.302.887.504A47.381 47.381 0 0 0 30 6.542V4.759C23.635 6.76 16.53.597 16.53.597L16.5.62l-.03-.024S9.365 6.76 3 4.759v1.783c.026.6.049 1.336.086 2.15A5.118 5.118 0 0 1 7 6.85z"/></svg>