<svg xmlns="http://www.w3.org/2000/svg" viewBox="0 0 32 32"><path d="M15.9 26.9A10.87 10.87 0 0 1 5.1 16.1h.78A10.124 10.124 0 0 0 15.9 26.12zm0 3.98v-.76A14.125 14.125 0 0 1 1.88 16.1h-.76l-.008.148a14.672 14.672 0 0 0 4.414 10.227 14.673 14.673 0 0 0 10.223 4.413zm0-8.76a6.126 6.126 0 0 1-6.02-6.02H9.1a6.875 6.875 0 0 0 6.8 6.8zm15.165-.62L28.5 24.065 21.935 17.5l1-1-1.435-1.434-3 3-4.565-4.566 3-3L15.5 9.066l-1 1L7.935 3.5 10.5.935 17.065 7.5l-1 1L17.5 9.934l3-3 4.565 4.566-3 3 1.435 1.434 1-1zM14.5 8.935L15.935 7.5 10.5 2.065 9.065 3.5zm4 8l5.435-5.435L20.5 8.065 15.065 13.5zm10 6l1.435-1.435-5.435-5.435-1.435 1.435z"/></svg>