<svg xmlns="http://www.w3.org/2000/svg" viewBox="0 0 16 16"><path d="M7.5 13.9a5.407 5.407 0 0 1-5.4-5.4c0-.135.007-.268.017-.4h.82l-.004.034A2.672 2.672 0 0 0 2.9 8.5a4.605 4.605 0 0 0 4.6 4.6 2.672 2.672 0 0 0 .366-.033l.034-.005v.82a5.44 5.44 0 0 1-.4.018zm.389 1.982l.011-.001v-.799a5.44 5.44 0 0 1-.4.018A6.606 6.606 0 0 1 .9 8.5c0-.135.008-.267.018-.4H.119v.011c-.01.13-.02.258-.02.389A7.41 7.41 0 0 0 7.5 15.9c.13 0 .26-.01.389-.018zm.011-4.019v-.795a2.506 2.506 0 0 1-.4.032 2.602 2.602 0 0 1-2.6-2.6 2.506 2.506 0 0 1 .032-.4h-.795a2.712 2.712 0 0 0-.037.4 3.404 3.404 0 0 0 3.4 3.4 2.866 2.866 0 0 0 .4-.037zm7.237-.292l-1.566 1.566L9.935 9.5l.5-.5L10 8.566l-1.5 1.5L5.935 7.5l1.5-1.5-.507-.505-.5.5L2.936 2.5 4.5.935l3.494 3.494-.5.5.506.505 1.5-1.5L12.065 6.5l-1.5 1.5.435.434.5-.5zM6.429 4.863l.434-.434L4.5 2.065l-.435.435zM8.5 8.935L10.935 6.5 9.5 5.065 7.065 7.5zm5.071 3.07l.435-.434L11.5 9.065l-.435.435z"/></svg>