<svg xmlns="http://www.w3.org/2000/svg" viewBox="0 0 24 24"><path d="M14.9 19.9A10.913 10.913 0 0 1 4.1 9.1h.8a10.113 10.113 0 0 0 10 10zm0-4.8a6.11 6.11 0 0 1-6-6h-.8a6.91 6.91 0 0 0 6.8 6.8zm0 8a14.116 14.116 0 0 1-14-14H.1a14.917 14.917 0 0 0 14.8 14.8zm9.1-8.646L21.454 17l-4.53-4.53.991-.992-1.423-1.424-1.984 1.984-2.546-2.546 1.984-1.984-1.424-1.423-.991.991L7 2.546 9.546 0l4.53 4.53-.991.992 1.423 1.424 1.984-1.984 2.546 2.546-1.984 1.984 1.424 1.423.991-.991zm-12.47-8.5l1.424-1.423-3.408-3.409-1.424 1.424zm2.978 4.962l3.408-3.408-1.424-1.424-3.408 3.408zm6.946 4.962l1.424-1.424-3.409-3.408-1.423 1.423z"/></svg>