<svg xmlns="http://www.w3.org/2000/svg" viewBox="0 0 32 32"><path d="M16 5C7.589 5 1 8.89 1 13.855c0 2.851 2.122 5.393 5.856 7.055a16.185 16.185 0 0 1-1.251 4.797L4.57 28.026l2.318-.773a21.054 21.054 0 0 0 7.639-4.391c.484.03.974.048 1.473.048 8.411 0 15-3.365 15-9.055C31 8.89 24.411 5 16 5zm0 16.91c-.479 0-.948-.018-1.411-.046l-.414-.026-.31.275a20.041 20.041 0 0 1-7.293 4.191l-.163.054.109-.244a17.329 17.329 0 0 0 1.332-5.097l.078-.725-.666-.296C3.918 18.508 2 16.27 2 13.855 2 9.524 8.28 6 16 6s14 3.524 14 7.855c0 4.743-5.757 8.055-14 8.055z"/><path d="M22 13v-1h-3.63l.672-3.71-.984-.179L17.354 12H15.37l.672-3.71-.984-.179L14.354 12H11v1h3.173l-.362 2H10v1h3.63l-.672 3.71.984.179.704-3.889h1.984l-.672 3.71.984.179.704-3.889H21v-1h-3.173l.362-2zm-5.19 2h-1.983l.362-2h1.984z"/></svg>