<svg xmlns="http://www.w3.org/2000/svg" viewBox="0 0 24 24"><path d="M10.84 11h1.975l.445-2h-1.976l-.444 2z"/><path d="M12.002 3C5.836 3 1.005 6.033 1.005 9.906c0 2.435 1.927 4.62 5.098 5.858a10.16 10.16 0 0 1-.748 2.815L4.012 21.99l3.353-1.555a12.945 12.945 0 0 0 4.51-3.624h.127C18.17 16.811 23 13.778 23 9.906 23 6.033 18.17 3 12.002 3zM17 9h-2.716l-.444 2H16v1h-2.382l-.68 3.059-.977-.217.632-2.842h-1.975l-.68 3.059-.977-.217L9.593 12H7v-1h2.815l.445-2H8V8h2.482l.68-3.059.976.217L11.507 8h1.975l.68-3.059.976.217L14.507 8H17z"/></svg>