<svg xmlns="http://www.w3.org/2000/svg" viewBox="0 0 32 32"><path d="M31 13.855c0 5.69-6.589 9.055-15 9.055-.499 0-.989-.018-1.473-.048a21.055 21.055 0 0 1-7.64 4.39l-2.317.774 1.035-2.319a16.185 16.185 0 0 0 1.25-4.797C3.123 19.248 1 16.706 1 13.855 1 8.89 7.589 5 16 5s15 3.89 15 8.855zM6.41 26.358l.162-.054a20.041 20.041 0 0 0 7.292-4.19l.31-.276.415.026c.463.028.932.046 1.411.046 8.243 0 14-3.312 14-8.055C30 9.524 23.72 6 16 6S2 9.524 2 13.855c0 2.415 1.918 4.653 5.262 6.141l.666.297-.078.724a17.329 17.329 0 0 1-1.332 5.097zM24 16H8v1h16zm0-6H8v1h16zm-4 3H8v1h12z"/></svg>