<svg xmlns="http://www.w3.org/2000/svg" viewBox="0 0 16 16"><path d="M5 7h5v1H5zm-1.95 7.967A16.24 16.24 0 0 0 7 12.865v-1.329a10.061 10.061 0 0 1-2.117 1.502l.013-.034a7.996 7.996 0 0 0 .577-2.208l.06-.74-.693-.271C3.062 9.089 2 7.942 2 6.715 2 4.668 4.915 3 8.497 3c3.583 0 6.498 1.667 6.498 3.716a2.99 2.99 0 0 1-.995 2.1V10h.189a4.207 4.207 0 0 0 1.806-3.284C15.995 4.07 12.702 2 8.497 2 4.293 2 1 4.071 1 6.716c0 1.662 1.314 3.154 3.476 4a6.942 6.942 0 0 1-.51 1.922zM5 6h7V5H5zm7 3h-1v3H8v1h3v3h1v-3h3v-1h-3z"/></svg>