<svg xmlns="http://www.w3.org/2000/svg" viewBox="0 0 16 16"><path d="M11 4H4V3h7zm-1 1H4v1h6zM7.336 9.43a8.75 8.75 0 0 1-3.043 2.475L2.03 12.967l.906-2.33a7 7 0 0 0 .505-1.921C1.301 7.87 0 6.378 0 4.716 0 2.07 3.26 0 7.423 0c4.162 0 7.423 2.071 7.423 4.716a4.067 4.067 0 0 1-2.137 3.34C12.474 8.034 12.254 8 12 8a5.592 5.592 0 0 0-4.061 1.415c-.171.007-.342.016-.516.016zm.087-1c3.547 0 6.423-1.663 6.423-3.715S10.97 1 7.423 1 1 2.663 1 4.715c0 1.421 1.38 2.654 3.405 3.28A5.505 5.505 0 0 1 3.868 11a7.273 7.273 0 0 0 2.93-2.588c.206.012.414.019.625.019zM16 11.5c0 .969-.748 1.766-2 2.186v2.03a.29.29 0 0 1-.494.204l-1.932-1.932C9.479 13.868 8 12.858 8 11.5 8 10.052 9.682 9 12 9s4 1.052 4 2.5zm-1 0c0-.828-1.343-1.5-3-1.5s-3 .672-3 1.5 1.343 1.5 3 1.5l1 1v-1.092c1.163-.206 2-.756 2-1.408zm-1-.5h-4v1h4z"/></svg>