<svg xmlns="http://www.w3.org/2000/svg" viewBox="0 0 32 32"><path d="M20 18c-5.299 0-9 2.057-9 5 0 2.875 3.542 4.889 8.643 4.982L25 32v-4.755c2.476-.852 4-2.363 4-4.245 0-2.943-3.701-5-9-5zm4.675 8.299L24 26.53V30l-4.016-3.012-.322-.006C15.222 26.902 12 25.226 12 23c0-2.317 3.364-4 8-4s8 1.683 8 4c0 1.37-1.212 2.572-3.325 3.299zM13.9 1C6.105 1 0 4.548 0 9.076c0 2.6 1.966 4.919 5.426 6.434a14.576 14.576 0 0 1-1.159 4.376L3.308 22l2.148-.705a20.73 20.73 0 0 0 7.079-4.187c.449.027.903.044 1.365.044 7.795 0 13.9-3.548 13.9-8.076S21.695 1 13.9 1zm0 15.13a23.13 23.13 0 0 1-1.701-.069 19.999 19.999 0 0 1-7.04 4.26 15.787 15.787 0 0 0 1.302-5.292l.014-.188C3.158 13.565.986 11.461.986 9.076c0-3.895 5.782-7.053 12.914-7.053S26.814 5.18 26.814 9.076 21.032 16.13 13.9 16.13zM22 12H6v-1h16zm0-4H6V7h16zm-4 2H6V9h12zm7 14H15v-1h10zm-3-2h-6v-1h6z"/></svg>