<svg xmlns="http://www.w3.org/2000/svg" viewBox="0 0 24 24"><path d="M11 17.838a13.759 13.759 0 0 1-3.635 2.597L4.012 21.99l1.343-3.411a10.16 10.16 0 0 0 .748-2.815c-3.171-1.238-5.098-3.424-5.098-5.858C1.005 6.033 5.835 3 12.002 3S23 6.033 23 9.906c0 2.04-1.349 3.84-3.519 5.094H19v-.883c1.849-1.073 3-2.563 3-4.21C22 6.648 17.515 4 12.002 4S2.005 6.65 2.005 9.906c0 1.994 1.668 3.836 4.463 4.927l.693.271-.06.743a11.253 11.253 0 0 1-.816 3.098l-.428 1.088 1.09-.506A12.139 12.139 0 0 0 11 16.307zM6 12h9v-1H6zm0-3h12V8H6zm11 14v-4.001h4V18h-4v-4h-1v4h-4v.999h4V23z"/></svg>