<svg xmlns="http://www.w3.org/2000/svg" viewBox="0 0 24 24"><path d="M17 9H5V8h12zm0-5H5v1h12zm-3 2H5v1h9zm-4.531 7.04a15.44 15.44 0 0 1-5.347 3.39L2.499 17l.724-1.712a12.479 12.479 0 0 0 .876-3.542C1.485 10.52 0 8.643 0 6.538 0 2.872 4.612 0 10.5 0S21 2.872 21 6.538c0 2.346-1.894 4.362-4.798 5.513A15.36 15.36 0 0 0 15 12a11.808 11.808 0 0 0-5.177 1.052c-.117-.005-.238-.004-.354-.012zm-.367-1.025l.43.027c.318.02.64.033.968.033 5.238 0 9.5-2.484 9.5-5.537C20 3.484 15.738 1 10.5 1S1 3.484 1 6.538c0 1.684 1.284 3.252 3.523 4.303l.643.302-.072.705a13.827 13.827 0 0 1-.795 3.444 15.003 15.003 0 0 0 4.487-2.982zM22 16.929c0 1.478-1.185 2.666-3.111 3.335V24l-4.167-3.157C10.755 20.77 8 19.187 8 16.93 8 14.616 10.879 13 15 13s7 1.616 7 3.929zm-1 0C21 15.23 18.477 14 15 14s-6 1.231-6 2.929c0 1.627 2.415 2.852 5.741 2.915l.326.006 2.822 2.137v-2.434l.672-.234c.733-.255 2.439-.998 2.439-2.39zM18 17h-6v1h6zm-2-2h-4v1h4z"/></svg>