<svg xmlns="http://www.w3.org/2000/svg" viewBox="0 0 32 32"><path d="M13.757 15h2.986l.5-3h-2.986l-.5 3z"/><path d="M16 5C7.589 5 1 8.89 1 13.855c0 2.851 2.122 5.393 5.856 7.055a16.185 16.185 0 0 1-1.251 4.797L4.57 28.026l2.318-.773a21.054 21.054 0 0 0 7.639-4.391c.484.03.974.048 1.473.048 8.411 0 15-3.365 15-9.055C31 8.89 24.411 5 16 5zm6 7h-3.743l-.5 3H21v1h-3.41l-.647 3.882-.986-.164.62-3.718H13.59l-.647 3.882-.986-.164.62-3.718H9v-1h3.743l.5-3H10v-1h3.41l.647-3.882.986.164-.62 3.718h2.987l.647-3.882.986.164-.62 3.718H22z"/></svg>