<svg xmlns="http://www.w3.org/2000/svg" viewBox="0 0 32 32"><path d="M24 17H8v-1h16zm0-7H8v1h16zm-4 3H8v1h12zm-4 9c0-.03.008-.06.01-.09H16c-.479 0-.948-.018-1.411-.046l-.414-.026-.31.275a20.041 20.041 0 0 1-7.293 4.191l-.163.054.109-.244a17.33 17.33 0 0 0 1.332-5.097l.078-.725-.666-.296C3.918 18.508 2 16.27 2 13.855 2 9.524 8.28 6 16 6s14 3.524 14 7.855c0 2.4-1.477 4.43-4 5.853v1.147c3.078-1.553 5-3.935 5-7C31 8.89 24.411 5 16 5S1 8.89 1 13.855c0 2.851 2.122 5.393 5.856 7.055a16.185 16.185 0 0 1-1.251 4.797L4.57 28.026l2.318-.773a21.055 21.055 0 0 0 7.639-4.39c.484.029.974.047 1.473.047zm7 8v-5.001h5V24h-5v-5h-1v5h-5v.999h5V30z"/></svg>