<svg xmlns="http://www.w3.org/2000/svg" viewBox="0 0 24 24"><path d="M5.355 18.579a10.157 10.157 0 0 0 .748-2.815c-3.171-1.238-5.098-3.423-5.098-5.858C1.005 6.033 5.835 3 12.002 3S23 6.033 23 9.906c0 3.872-4.83 6.905-10.998 6.905h-.128a12.945 12.945 0 0 1-4.509 3.624L4.012 21.99zm.502 1.454l1.09-.506a12.033 12.033 0 0 0 4.117-3.302l.3-.414h.638c5.513 0 9.998-2.648 9.998-5.905S17.515 4 12.002 4 2.005 6.65 2.005 9.906c0 1.994 1.668 3.836 4.463 4.927l.693.271-.06.743a11.253 11.253 0 0 1-.816 3.098zM18 8H6v1h12zm-3 3H6v1h9z"/></svg>