<svg xmlns="http://www.w3.org/2000/svg" viewBox="0 0 16 16"><path d="M16 6.716c0 2.914-3.593 5.115-7.798 5.115h-.087c-1.655 1.949-5.06 3.136-5.06 3.136l.915-2.33a6.942 6.942 0 0 0 .51-1.921c-2.161-.846-3.475-2.338-3.475-4C1.005 4.07 4.298 2 8.502 2 12.707 2 16 4.071 16 6.716zM4.888 13.038a8.967 8.967 0 0 0 2.465-1.855l.386-.352h.463C11.887 10.83 15 8.946 15 6.716 15 4.667 12.085 3 8.502 3 4.92 3 2.005 4.667 2.005 6.716c0 1.226 1.061 2.373 2.84 3.069l.692.27-.06.74a7.996 7.996 0 0 1-.576 2.209zM12 5H5v1h7zm-1 2H5v1h6z"/></svg>