<svg xmlns="http://www.w3.org/2000/svg" viewBox="0 0 24 24"><path d="M21.78 5.22l-3-3a.75.75 0 0 0-.53-.22H13a.75.75 0 0 0-.53.22l-10.5 10.5a.75.75 0 0 0 0 1.06l8.25 8.25a.75.75 0 0 0 1.06 0l10.5-10.5A.75.75 0 0 0 22 11V5.75a.75.75 0 0 0-.22-.53zM21 10.896l-10.25 10.25-7.896-7.896L13.104 3h5.043L21 5.854zM17.5 4A2.5 2.5 0 1 0 20 6.5 2.5 2.5 0 0 0 17.5 4zm0 4A1.5 1.5 0 1 1 19 6.5 1.502 1.502 0 0 1 17.5 8zm.43 3.41l-5.34-5.338a.725.725 0 0 0-1.02 0l-6.5 6.498a.72.72 0 0 0 0 1.021l5.338 5.339a.72.72 0 0 0 1.02 0l6.5-6.499a.72.72 0 0 0 0-1.021zm-7.011 6.616L5.975 13.08l6.106-6.105 4.944 4.944z"/></svg>