<svg xmlns="http://www.w3.org/2000/svg" viewBox="0 0 16 16"><path d="M8.195 5.805a.7.7 0 0 0-.99 0l-3 3a.7.7 0 0 0 0 .99l2 2a.7.7 0 0 0 .99 0l3-3a.7.7 0 0 0 0-.99zM6.7 10.876L5.124 9.3 7.7 6.724 9.276 8.3zm8.148-7.651l-2.074-2.073A.519.519 0 0 0 12.407 1h-3.63a.517.517 0 0 0-.366.152L.952 8.61a.519.519 0 0 0 0 .734l5.704 5.704a.517.517 0 0 0 .733 0l7.459-7.46A.516.516 0 0 0 15 7.223V3.592a.52.52 0 0 0-.152-.367zM14 7.02L7.022 14 1.999 8.977 8.978 2h3.23L14 3.791zM9 5a2 2 0 1 0 2-2 2 2 0 0 0-2 2zm3.15 0A1.15 1.15 0 1 1 11 3.85 1.15 1.15 0 0 1 12.15 5z"/></svg>