<svg xmlns="http://www.w3.org/2000/svg" viewBox="0 0 24 24"><path d="M17 16.306l-.694.694H17v-.694z"/><path d="M14.72 8L8 14.72v-1.414L13.306 8zM9.306 8L8 9.306v1.414L10.72 8zM18 18H8v-1h.306L17 8.306V8h1zm-1-4.28L13.72 17H17zm0-4L9.72 17h2.586L17 12.306zM8.72 2L5.65 5.07a.99.99 0 0 0-.58.58L2 8.72v2.586l3-3V9.72l-3 3v2.586l3-3v1.414l-3 3V17h2.306L5 16.306V18H1V1h17v4h-1.694L17 4.306V2h-.28l-3 3h-1.414l3-3H12.72l-3 3H8.306l3-3zM2 3.306L3.306 2H2zM7.306 2H4.72L2 4.72v2.586zM23 6v17H6V6zm-1 1H7v15h15z"/></svg>