<svg xmlns="http://www.w3.org/2000/svg" viewBox="0 0 16 16"><path d="M7.5.092a1.4 1.4 0 1 0 1.4 1.4 1.399 1.399 0 0 0-1.4-1.4zM8 2H7V1h1zm3.36 13.843a.581.581 0 0 1-.502-.357l-.915-3.224-2.618-3.303-.246-3.342L5.26 8.612a.433.433 0 0 1-.604.154.418.418 0 0 1-.155-.548c.45-.88 1.57-3.05 2.248-4.198 1.048.143 1.368.178 1.412 1.016.05.926.193 3.813.193 3.813l2.347 3.006c-.003.004.896 3.079.934 3.18.15.39.06.665-.084.755a.353.353 0 0 1-.19.053z"/><path d="M4.542 15.51a.268.268 0 0 1-.166-.054.39.39 0 0 1-.154-.305.449.449 0 0 1 .071-.267l2.109-2.888.448-1.39.572 1.026-.325.933c-.035 0-2.105 2.688-2.126 2.716a.62.62 0 0 1-.43.23zm7.14-7.4a.432.432 0 0 1-.246-.065L10.092 7.04l.036-.401L10.123 6l1.763 1.416a.408.408 0 0 1 .138.56.423.423 0 0 1-.342.135z"/></svg>