<svg xmlns="http://www.w3.org/2000/svg" viewBox="0 0 24 24"><path d="M17.818 21.639l-1.46-5.378-2.404-3.347a.13.13 0 0 1-.024-.068l-.29-5.266c-.06-1.145-1.629-1.419-3.131-1.556a.428.428 0 0 0-.409.211c-.95 1.633-2.373 4.3-2.987 5.504a.721.721 0 0 0 .265.942.859.859 0 0 0 1.133-.264l2.01-3.075a.054.054 0 0 1 .1.028l.145 3.507a.466.466 0 0 0 .109.28l3.369 4.022 1.523 5.158a1.088 1.088 0 0 0 2.081-.496.953.953 0 0 0-.03-.202zM8.107 11.553c.65-1.264 1.743-3.264 2.55-4.68a.054.054 0 0 1 .053-.028c.617.06 2.101.213 2.13.776l.299 5.403a.466.466 0 0 0 .086.246l2.41 3.357c.635 1.932 1.361 5.058 1.414 5.233a.296.296 0 0 1-.272.324h-.017a.29.29 0 0 1-.263-.172l-1.547-5.236-3.369-4.022a.13.13 0 0 1-.03-.075l-.287-4.258a.427.427 0 0 0-.775-.22z"/><path d="M11.142 15.568l-.393 1.605-3.24 3.77-.028.05a.19.19 0 0 1-.152.096h-.01a.188.188 0 0 1-.187-.178.185.185 0 0 1 .039-.125l3.263-4.023.416-1.545-.629-.756-.601 1.893-3.166 3.885a1.087 1.087 0 1 0 1.808 1.2l3.327-3.885.244-1.156zM18 10.938l-2.956-1.761c.015.3.01.626.004.946l2.44 1.441a.09.09 0 0 1-.015.095l-.035.012c-.28-.165-.605-.347-.931-.53-.183-.102-1.02-.586-1.462-.841-.007.33-.014.651 0 .925.612.37 1.52.852 2.131 1.221A.881.881 0 0 0 18 10.938zM12 1a2 2 0 1 0 2 2 2 2 0 0 0-2-2zm0 3.2A1.2 1.2 0 1 1 13.2 3 1.2 1.2 0 0 1 12 4.2z"/></svg>