<?xml version="1.0" encoding="utf-8"?>
<!-- Generator: Adobe Illustrator 16.0.4, SVG Export Plug-In . SVG Version: 6.00 Build 0)  -->
<!DOCTYPE svg PUBLIC "-//W3C//DTD SVG 1.1//EN" "http://www.w3.org/Graphics/SVG/1.1/DTD/svg11.dtd">
<svg version="1.1" xmlns="http://www.w3.org/2000/svg" xmlns:xlink="http://www.w3.org/1999/xlink" x="0px" y="0px" width="32px"
	 height="32px" viewBox="0 0 32 32" enable-background="new 0 0 32 32" xml:space="preserve">
<g id="Dark_Theme_1_" display="none">
	<rect x="-160" y="-256" display="inline" fill="#333333" width="544" height="736"/>
	
		<rect x="-192" y="-288" display="inline" fill="none" stroke="#808080" stroke-width="0.25" stroke-miterlimit="10" width="612" height="792"/>
</g>
<g id="LightTheme" display="none">
	<rect x="-160" y="-256" display="inline" fill="#F8F8F8" width="544" height="736"/>
	
		<rect x="-192" y="-288" display="inline" fill="none" stroke="#808080" stroke-width="0.25" stroke-miterlimit="10" width="612" height="792"/>
</g>
<g id="Hover" display="none">
	<rect x="-160" y="-256" display="inline" fill="#C5E5F9" width="544" height="736"/>
</g>
<g id="Selected" display="none">
	<rect x="-160" y="-256" display="inline" fill="#AADBFA" width="544" height="736"/>
</g>
<g id="Icon_Name">
</g>
<g id="Icons">
	<rect fill-rule="evenodd" clip-rule="evenodd" fill="none" width="32" height="32"/>
	<path fill="#E5D255" d="M31,28c0,0-6-3-15,0S1,28,1,28L5,4c0,0,6,2,11,0s11,0,11,0L31,28z"/>
	<path fill="#F4EEC8" d="M25,10V7c0-0.6-0.4-1-1-1h-5V3.2c-1,0.1-2,0.4-3,0.8c-0.7,0.3-1.3,0.5-2,0.6V6H9C8.4,6,8,6.4,8,7v3
		c0,0.6,0.4,1,1,1h5v5c0,0.6,0.4,1,1,1h3c0.6,0,1-0.4,1-1v-5h5C24.6,11,25,10.5,25,10z"/>
	<polygon fill="#6D6E71" points="24,7 18,7 18,1 15,1 15,7 9,7 9,10 15,10 15,16 18,16 18,10 24,10 	"/>
</g>
</svg>
