<?xml version="1.0" encoding="utf-8"?>
<!-- Generator: Adobe Illustrator 16.0.4, SVG Export Plug-In . SVG Version: 6.00 Build 0)  -->
<!DOCTYPE svg PUBLIC "-//W3C//DTD SVG 1.1//EN" "http://www.w3.org/Graphics/SVG/1.1/DTD/svg11.dtd">
<svg version="1.1" xmlns="http://www.w3.org/2000/svg" xmlns:xlink="http://www.w3.org/1999/xlink" x="0px" y="0px" width="32px"
	 height="32px" viewBox="0 0 32 32" enable-background="new 0 0 32 32" xml:space="preserve">
<g id="Dark_Theme_1_" display="none">
	<rect x="-352" y="-160" display="inline" fill="#333333" width="544" height="736"/>
	
		<rect x="-384" y="-192" display="inline" fill="none" stroke="#808080" stroke-width="0.25" stroke-miterlimit="10" width="612" height="792"/>
</g>
<g id="LightTheme" display="none">
	<rect x="-352" y="-160" display="inline" fill="#F8F8F8" width="544" height="736"/>
	
		<rect x="-384" y="-192" display="inline" fill="none" stroke="#808080" stroke-width="0.25" stroke-miterlimit="10" width="612" height="792"/>
</g>
<g id="Hover" display="none">
	<rect x="-352" y="-160" display="inline" fill="#C5E5F9" width="544" height="736"/>
</g>
<g id="Selected" display="none">
	<rect x="-352" y="-160" display="inline" fill="#AADBFA" width="544" height="736"/>
</g>
<g id="Icon_Name">
</g>
<g id="Icons">
	<path fill="#68AA67" d="M30,25.3c0,2.6-2.1,4.7-4.7,4.7H6.7C4.1,30,2,27.9,2,25.3V6.7C2,4.1,4.1,2,6.7,2h18.7C27.9,2,30,4.1,30,6.7
		V25.3z"/>
	<rect fill="none" width="32" height="32"/>
	<polygon fill="#F8F8F8" points="23.9,8.3 12.8,19.3 8.4,14.9 5.9,17.4 12.8,24.3 26.4,10.8 	"/>
</g>
</svg>
