<?xml version="1.0" encoding="utf-8"?>
<!-- Generator: Adobe Illustrator 16.0.4, SVG Export Plug-In . SVG Version: 6.00 Build 0)  -->
<!DOCTYPE svg PUBLIC "-//W3C//DTD SVG 1.1//EN" "http://www.w3.org/Graphics/SVG/1.1/DTD/svg11.dtd">
<svg version="1.1" xmlns="http://www.w3.org/2000/svg" xmlns:xlink="http://www.w3.org/1999/xlink" x="0px" y="0px" width="32px"
	 height="32px" viewBox="0 0 32 32" enable-background="new 0 0 32 32" xml:space="preserve">
<g id="Dark_Theme_1_" display="none">
	<rect x="-224" y="-256" display="inline" fill="#333333" width="544" height="736"/>
	
		<rect x="-256" y="-288" display="inline" fill="none" stroke="#808080" stroke-width="0.25" stroke-miterlimit="10" width="612" height="792"/>
</g>
<g id="LightTheme" display="none">
	<rect x="-224" y="-256" display="inline" fill="#F8F8F8" width="544" height="736"/>
	
		<rect x="-256" y="-288" display="inline" fill="none" stroke="#808080" stroke-width="0.25" stroke-miterlimit="10" width="612" height="792"/>
</g>
<g id="Hover" display="none">
	<rect x="-224" y="-256" display="inline" fill="#C5E5F9" width="544" height="736"/>
</g>
<g id="Selected" display="none">
	<rect x="-224" y="-256" display="inline" fill="#AADBFA" width="544" height="736"/>
</g>
<g id="Icon_Name">
</g>
<g id="Icons">
	<linearGradient id="SVGID_1_" gradientUnits="userSpaceOnUse" x1="0" y1="0" x2="14.0006" y2="14.0006">
		<stop  offset="0" style="stop-color:#FFFBE4"/>
		<stop  offset="1" style="stop-color:#EED865"/>
	</linearGradient>
	<polygon fill="url(#SVGID_1_)" points="14,14 0,14 0,0 14,0 14,14 	"/>
	<rect x="1" y="1" fill="#F0E498" width="12" height="12"/>
	<linearGradient id="SVGID_2_" gradientUnits="userSpaceOnUse" x1="17" y1="0" x2="30.9999" y2="13.9999">
		<stop  offset="0" style="stop-color:#DAEEFF"/>
		<stop  offset="0.978" style="stop-color:#8CD9FF"/>
	</linearGradient>
	<polygon fill="url(#SVGID_2_)" points="31,14 17,14 17,0 31,0 31,14 	"/>
	<rect x="18" y="1" fill="#D3EAF9" width="12" height="12"/>
	<polygon fill="#5FBA65" points="31,31 17,31 17,17 31,17 31,31 	"/>
	<g>
		<path fill="#9BC29C" d="M8.4,9.9c0.4-0.1,0.1,0.7-0.3,0.6c-0.2,0-0.3-0.2-0.5-0.3c-0.3-0.1-0.4-0.1-0.7,0
			c-0.8,0.1-0.4-0.4-0.1-0.8C7,9.1,7.1,9.1,7.4,9.2C7.7,9.4,8,9.6,8.2,9.8L8.4,9.9z"/>
		<path fill="#9BC29C" d="M9.9,4.7C9.7,4.8,9.1,5,9,5.2C8.8,5.5,9.1,5.8,9.3,6c0.2,0.3,0.4,0.5,0.4,0.9c0,0.3,0.1,1.1,0.6,0.9
			c0.5-0.2,0.4-1,0.5-1.4c0.1-0.4,0.6-0.6,0.7-1c0.1-0.4-0.3-1.1-0.7-1c-0.2,0-0.3,0.3-0.5,0.2L9.9,4.7z"/>
		<path fill="#9BC29C" d="M5.8,8.4C6,8,4.5,7.6,4.2,7.7C3.6,7.9,3.4,9,3.9,9.4c0.5,0.4,0.9-0.1,1.1-0.5C5,8.7,5,8.7,5.2,8.6
			c0.1,0,0.3,0,0.4,0L5.8,8.4z"/>
	</g>
	<rect x="18" y="18" fill="#9BC29C" width="12" height="12"/>
	<rect fill="none" width="32" height="32"/>
	<path fill="#D3B490" d="M14,10.4c-0.9-0.2-1.7-0.4-2.6-0.8c0,0-0.1,0-0.1,0c0.7-0.6,1.6-1.1,2.5-1.5C13.8,8,13.9,8,14,7.9V7.2
		c-0.1,0.1-0.3,0.1-0.5,0.2c-1,0.5-2,1-2.8,1.8C9.1,8.5,7.8,7.8,7,6.3C6.7,5.9,6.5,5.5,6.2,5.2c0.3-0.3,0.6-0.6,0.8-1
		C7.4,2.9,8.2,1.5,8.6,0H7.9C7.6,1.3,6.8,2.6,6.3,3.9C6.2,4.3,6,4.5,5.7,4.7c-1.1-1-2.6-1.6-4.1-1.6C1.1,3.1,0.5,3.2,0,3.4V4
		c0.5-0.2,1.1-0.3,1.7-0.3c1.3,0,2.5,0.5,3.5,1.3C4.8,5.2,4.4,5.4,3.9,5.7C2.8,6.3,1.7,6.7,0.6,7.4C0.3,7.5,0.2,7.7,0,7.8v1
		c0,0,0-0.1,0.1-0.1c1,0.5,2,1.1,2.6,1.8c0.3,0.3,0.3,0.2,0.4,0.4c0,0.1,0,0.2,0,0.3c0,0.3-0.2,0.8-0.3,1.1c-0.3,0.6-0.7,1.1-1,1.7
		h0.7c0.3-0.4,0.5-0.8,0.8-1.4c0.2-0.4,0.4-0.9,0.4-1.4c0-0.2,0-0.4-0.1-0.5c-0.2-0.5-0.5-0.5-0.6-0.6C2.4,9.4,1.4,8.8,0.5,8.3
		C0.6,8.1,0.7,8,0.9,7.9c1-0.6,2.2-1.1,3.3-1.7c0.5-0.3,1-0.5,1.4-0.7c0.3,0.3,0.6,0.7,0.8,1.1C7.3,8.2,8.7,9,10.2,9.7
		c0,0-0.1,0.1-0.1,0.1c-0.8,1-1.5,2.9-2.4,4.2h0.8c0.8-1.3,1.4-3,2.1-3.8c0.1-0.1,0.2-0.1,0.2-0.2c0.1,0.1,0.2,0.1,0.3,0.1
		c1,0.5,1.9,0.8,2.9,0.9V10.4z"/>
	<path fill="#808284" d="M0,0v14h14V0H0z M13,13H1V1h12V13z"/>
	<path fill="#6DB5E3" d="M17,0v14h3.7c0-0.1,0.1-0.2,0.1-0.3c0.1-0.2,0.1-0.4,0.1-0.7c0-0.7-1.2-0.5-1.4-0.9c-0.5-1,0.8-1.2,0.8-2
		c0-0.2-0.1-0.6-0.4-0.6c-0.4,0-0.5,0.2-0.9,0.2c-0.3,0-0.5-0.2-0.5-0.4c0-0.5,0.4-0.7,0.4-1.1c0-0.3-0.1-0.5-0.1-0.8
		c0-0.4,0.3-0.8,0.7-0.8c0.4,0,0.6,0.3,0.7,0.6c0.2,0.3,0.4,0.4,0.7,0.4c0.6,0,0.9-0.7,0.9-1.2c0-0.3,0.2-0.6,0.5-0.6
		c0.4,0,0.6,0.4,1,0.4c0.7,0,0.7-0.9,1.3-1.2c0.7-0.4,0.5-1.3,0.4-1.7c0-0.2,0.3-0.6,0.6-0.6c0.9,0.1,0.5-0.6,0.5-1
		c0-0.1,0-0.1,0-0.2c0.1-0.4,0.7-0.5,0.7-1c0-0.3-0.2-0.5-0.3-0.7H17z M30.8,9.7H30c-0.4,0-0.8,0-1.1-0.3c-0.3-0.3-0.3-0.8-0.7-0.8
		c-0.6,0-0.6,0.9-1.2,0.9c-0.3,0-0.4-0.2-0.6-0.2c-0.2,0-0.5,0.1-0.5,0.4v0.6c0,0.5-0.7,0.6-0.7,1.1c0,0.2,0.2,0.3,0.2,0.5
		c0,0.7-1.2,0.6-1.2,1.3c0,0.2,0.1,0.4,0.1,0.6v0c0,0.1,0,0.2,0,0.3H31V9.7C30.9,9.7,30.8,9.7,30.8,9.7z"/>
	<path fill="#9BC29C" d="M17,0v14h2.8c0-0.2,0.1-0.4,0.2-0.6c0,0,0,0,0-0.1c0,0,0,0-0.1,0c-0.4-0.1-1-0.2-1.2-0.8
		c-0.4-0.9-0.1-1.5,0.2-1.9c-0.8,0-1.4-0.6-1.4-1.3c0-0.5,0.2-0.8,0.3-1c0-0.1,0.1-0.1,0.1-0.1c0,0,0-0.1,0-0.2
		c0-0.1-0.1-0.3-0.1-0.6c0-0.9,0.7-1.7,1.6-1.7c0.8,0,1.2,0.6,1.4,1c0-0.1,0.1-0.2,0.1-0.2c0-0.8,0.6-1.5,1.4-1.5
		c0.4,0,0.7,0.1,0.9,0.3c0,0,0,0,0,0c0.2-0.3,0.4-0.7,0.9-1c0.1-0.1,0.1-0.3,0-0.8c-0.1-0.3,0-0.7,0.3-1.1c0.1-0.1,0.3-0.4,0.7-0.5
		c0-0.1,0-0.1,0-0.2c0-0.1,0-0.3,0.1-0.5c0.1-0.4,0.4-0.6,0.6-0.8c-0.1-0.1-0.2-0.4-0.2-0.6H17z M30.8,10.5H30
		c-0.5,0-1.1-0.1-1.7-0.5c-0.1-0.1-0.2-0.2-0.2-0.3c-0.2,0.2-0.6,0.5-1.1,0.5c-0.1,0-0.1,0-0.2,0c0,0.5-0.3,0.9-0.6,1.1
		c0,0.1,0.1,0.3,0.1,0.4c0,0.9-0.8,1.3-1.1,1.4c0,0,0,0-0.1,0c0,0.1,0,0.2,0.1,0.4c0,0,0,0.1,0,0.3H31v-3.4
		C30.9,10.6,30.8,10.5,30.8,10.5z"/>
	<path fill="#F4EEC8" d="M17,17v7c0.2,0,0.3-0.2,0.4-0.5c1.5-3.7,3.3,0.7,4,0c0.7-0.7-0.3-1.7,0.4-2.5c0.6-0.6,1.4-0.3,1.9-1.1
		c0.5-0.7-0.4-3.1,0.2-2.4c1.2-0.1,2.4,0.3,3.3-0.6H17z"/>
	<path fill="#F0E498" d="M17,22.7c0.3-0.6,0.9-1.3,1.8-1.3c0.7,0,1.3,0.5,1.9,1l0.2,0.2c0,0,0,0,0.1,0.1c0,0,0,0,0-0.1
		c-0.1-0.5-0.2-1.2,0.4-1.9c0.4-0.4,0.9-0.6,1.2-0.7c0.3-0.1,0.5-0.1,0.6-0.3c0.1-0.2,0-0.9-0.1-1.2c-0.1-0.6-0.1-1.1,0.2-1.4
		c0,0,0,0,0.1-0.1H17V22.7z M24.4,17c0,0,0.1,0.1,0.1,0.1c0.3,0.3,0.5,0.4,0.7,0.4c0.3,0,0.6-0.2,0.9-0.5H24.4z"/>
	<path fill="#F7CB93" d="M20.2,20.9c-0.4-0.2-0.9-0.4-1.4-0.4c-0.3,0-0.7,0.1-1,0.2c0,0-0.5-0.1-0.8,0.7c0,0.1,0-4.4,0-4.4h5.1
		c0,0.2,0.2,1.3,0.2,1.5c0,0.3,0.1,0.5,0.1,0.6c-0.4,0.1-1,0.3-1.6,0.9C20.5,20.4,20.3,20.7,20.2,20.9L20.2,20.9z"/>
	<path fill="#F4EEC8" d="M31,19c-0.7,1.1-1,3-1.6,3.7c-1.1,1.5-1.6,0-2-1.2c-0.5-1.5-0.7-2.5-2.1-1.2c-0.5,0.5-0.9,0.5-0.7,1.4
		c0.2,0.7,0.8,1,0.6,1.8c-0.6,0-1.1-0.1-1.5,0.3c-0.4,0.5,0.1,1-0.6,1.5c-0.6,0.4-1.3,0.2-2.1,0.3c-0.3,0-0.6,0.1-0.8,0.3
		c0.3,0.4,0.9,0.6,1.4,0.8c0.9,0.2,1.8,0.3,2.6,0.7c-1.1,0.6-2.4,0.5-3.1,1.6c-0.5,0.7-0.9,1.3-1.4,1.9h4.5c0.2-0.1,0.5-0.3,0.7-0.4
		c0.6-0.4,1.5-0.5,2.1-0.8c0.4,0.6-0.3,0.7,0.1,1.2c0,0,0.1,0,0.1,0.1H31V19z"/>
	<path fill="#F0E498" d="M31,20.8c-0.1,0.2-0.1,0.4-0.2,0.5c-0.2,0.8-0.5,1.4-0.8,1.8c-0.2,0.2-0.7,0.9-1.4,0.9
		c-1.1,0-1.5-1.2-1.9-2.3l-0.1-0.4c-0.1-0.3-0.2-0.6-0.3-0.8c-0.1,0.1-0.2,0.2-0.4,0.3c-0.1,0.1-0.3,0.2-0.4,0.3
		c-0.1,0-0.1,0.1-0.1,0.1c0,0,0,0,0,0c0,0,0,0.1,0,0.3c0,0.2,0.1,0.3,0.2,0.4c0.2,0.4,0.5,0.9,0.4,1.7c-0.1,0.3-0.4,0.6-0.7,0.6
		c-0.2,0-0.3,0-0.6,0c-0.3,0-0.3,0-0.4,0c0,0,0,0.1,0,0.2c0,0.3,0,1-0.7,1.4c-0.2,0.2-0.5,0.3-0.7,0.3c0.6,0.1,1.2,0.3,1.8,0.5
		c0.3,0.1,0.4,0.4,0.5,0.6c0,0.3-0.1,0.6-0.4,0.7c-0.5,0.3-1,0.5-1.5,0.6c-0.7,0.2-1.1,0.3-1.4,0.8c-0.4,0.5-0.7,1-1.1,1.5h1.9
		c0.6-0.2,1.1-0.6,1.8-1c0.4-0.3,0.9-0.4,1.3-0.6c0.3-0.1,0.6-0.2,0.8-0.3C26.9,29,27,29,27.2,29c0.2,0,0.5,0.1,0.6,0.3
		c0.3,0.5,0.3,0.9,0.2,1.2c0.1,0,0.2,0.1,0.3,0.1c0.2,0.1,0.4,0.1,0.6,0.2c0,0,0.1,0.1,0.2,0.1h2V20.8z"/>
	<path fill="#F7CB93" d="M31,23.1c-0.1,0.2-0.2,0.4-0.3,0.6c-0.6,0.8-1.3,1.2-2.1,1.2c-0.8,0-1.4-0.4-1.8-1v0
		c-0.1,0.7-0.7,1.2-1.4,1.2c-0.1,0-0.2,0-0.3,0c-0.1,0.3-0.2,0.6-0.4,0.9c0.1,0,0.2,0.1,0.3,0.1c0.5,0.2,0.9,0.7,0.9,1.3
		c0,0.5-0.2,1-0.6,1.3c0.1,0,0.3-0.1,0.4-0.1c0.2-0.1,0.5-0.2,0.6-0.2c0.2-0.1,0.5-0.2,0.8-0.2c0.5,0,1,0.3,1.3,0.7
		c0.3,0.4,0.4,0.8,0.4,1.2c0.1,0.1,0.3,0.1,0.4,0.2c0.2,0.1,0.5,0.3,0.8,0.5c0.1,0.1,0.3,0.2,0.5,0.3H31V23.1z"/>
	<path fill="#FFAD8C" d="M17,17c0,0,0,4.5,0,4.4c0.3-0.8,0.8-0.7,0.8-0.7c0.1,0,0.1,0,0.2-0.1V18h4.2c-0.1-0.4-0.1-0.8-0.1-1H17z
		 M30.7,23.7c-0.2,0.3-0.4,0.5-0.7,0.7V30h-1.2c0,0,0,0,0,0c0.1,0.1,0.3,0.1,0.4,0.2c0.2,0.1,0.5,0.3,0.8,0.5
		c0.1,0.1,0.3,0.2,0.5,0.3H31v-7.9C30.9,23.3,30.8,23.5,30.7,23.7z"/>
	<path fill="#808284" d="M17,0v14h14V0H17z M30,13H18V1h12V13z"/>
	<path fill="#808284" d="M17,17v14h14V17H17z M30,30H18V18h12V30z"/>
	<path fill="#808284" d="M0,17v14h14V17H0z M13,30H1V18h12V30z"/>
	<rect x="1" y="18" fill="#D3EAF9" width="12" height="12"/>
	<path fill-rule="evenodd" clip-rule="evenodd" fill="#E9DED4" d="M10.1,18.6C10.1,18.6,10.1,18.6,10.1,18.6
		C10.1,18.6,10.1,18.6,10.1,18.6L10,18.7c0,0,0,0,0,0c-0.1,0-0.1,0-0.2,0c-0.3-0.1-0.6-0.1-0.7-0.2l-0.2-0.1c-0.1,0-0.2-0.1-0.3-0.1
		l-0.1,0h0c-0.1,0-0.2,0-0.4,0.1l-0.1,0l0,0l-0.1,0.1l0,0l0,0c-0.1,0.1-0.1,0.1-0.2,0.2c0,0,0,0-0.1,0.1C7.3,19,7.2,19,7.1,19.1
		L7,19.2c-0.1,0.1-0.3,0.2-0.4,0.3c-0.1,0.1-0.2,0.2-0.2,0.3c-0.3,0.4-0.2,0.8-0.2,1c0,0.1,0,0.2,0.1,0.2c0.1,0.3,0.1,0.6,0,0.8
		l-0.5,0.4c-0.1,0-0.2,0.1-0.2,0.1l-0.2,0.1c-0.8,0.4-1.3,0.8-1.5,1.3l-0.1,0.2l0,0.1c0,0.3-0.1,0.6-0.2,0.9
		c-0.1,0.3-0.2,0.4-0.2,0.4c0,0-0.1,0-0.2,0c-0.1,0-0.1,0-0.2,0l-0.3,0c-0.2,0-0.5,0-0.7,0c-0.2,0-0.4,0-0.5,0.1l-0.1,0l0,0
		c-0.1,0-0.2,0.1-0.3,0.1l0,0.2V30h12V18v0h-3l0,0.1C10,18.3,10.1,18.5,10.1,18.6z"/>
	<path fill="#D3B490" d="M10.6,18c0,0.3,0.1,0.3,0.2,0.6c0,0,0,0.1,0,0.2c0,0,0,0,0,0c0,0.1-0.1,0.1-0.1,0.2
		c-0.1,0.1-0.2,0.3-0.3,0.4c0,0,0,0,0,0c0,0-0.1,0-0.2,0c-0.1,0-0.2,0-0.4,0c0,0-0.1,0-0.1,0c-0.4-0.1-0.7-0.2-0.9-0.2c0,0,0,0,0,0
		c0,0,0,0,0,0c0,0,0,0-0.1,0c-0.1,0-0.2,0-0.2-0.1c-0.1,0-0.2,0-0.2,0c0,0-0.1,0-0.1,0.1c0,0-0.1,0.1-0.1,0.1
		c-0.1,0.1-0.1,0.1-0.2,0.2c-0.1,0.1-0.3,0.2-0.5,0.3c-0.1,0.1-0.2,0.1-0.3,0.2C7,19.9,6.9,20,6.9,20.1c-0.1,0.1-0.1,0.3-0.1,0.5
		c0,0.1,0.1,0.2,0.1,0.3c0.1,0.6,0.1,1.5-0.2,1.7c0,0-0.1-0.1-0.1-0.1h0h0c0,0,0,0,0,0c0,0-0.1-0.1-0.1-0.1c0,0.2-0.2,0.2-0.2,0.4
		c0,0,0,0,0-0.1c-0.1,0-0.3,0.1-0.4,0.2c-0.1,0-0.1,0-0.2,0.1c-0.5,0.2-1,0.6-1.2,1c0,0,0,0.1,0,0.1c0,0.3-0.1,0.7-0.2,1
		c-0.1,0.4-0.4,0.7-0.7,0.8c-0.2,0-0.3,0-0.5,0c-0.5,0-1-0.1-1.4,0c0,0-0.1,0-0.1,0c-0.1,0-0.3,0.2-0.6,0.3V30h12V18H10.6z
		 M8.5,19.8C8.5,19.8,8.5,19.8,8.5,19.8C8.5,19.8,8.5,19.8,8.5,19.8C8.5,19.8,8.5,19.8,8.5,19.8L8.5,19.8
		C8.5,19.8,8.5,19.8,8.5,19.8z M11.8,20.2C11.8,20.2,11.8,20.3,11.8,20.2C11.8,20.3,11.8,20.3,11.8,20.2
		C11.8,20.2,11.8,20.2,11.8,20.2C11.8,20.2,11.8,20.2,11.8,20.2z"/>
</g>
</svg>
