<?xml version="1.0" encoding="utf-8"?>
<!-- Generator: Adobe Illustrator 16.0.4, SVG Export Plug-In . SVG Version: 6.00 Build 0)  -->
<!DOCTYPE svg PUBLIC "-//W3C//DTD SVG 1.1//EN" "http://www.w3.org/Graphics/SVG/1.1/DTD/svg11.dtd">
<svg version="1.1" xmlns="http://www.w3.org/2000/svg" xmlns:xlink="http://www.w3.org/1999/xlink" x="0px" y="0px" width="32px"
	 height="32px" viewBox="0 0 32 32" enable-background="new 0 0 32 32" xml:space="preserve">
<g id="Dark_Theme_1_" display="none">
	<rect x="-32" y="-544" display="inline" fill="#333333" width="544" height="736"/>
	
		<rect x="-64" y="-576" display="inline" fill="none" stroke="#808080" stroke-width="0.25" stroke-miterlimit="10" width="612" height="792"/>
</g>
<g id="LightTheme" display="none">
	<rect x="-32" y="-544" display="inline" fill="#F8F8F8" width="544" height="736"/>
	
		<rect x="-64" y="-576" display="inline" fill="none" stroke="#808080" stroke-width="0.25" stroke-miterlimit="10" width="612" height="792"/>
</g>
<g id="Hover" display="none">
	<rect x="-32" y="-544" display="inline" fill="#C5E5F9" width="544" height="736"/>
</g>
<g id="Selected" display="none">
	<rect x="-32" y="-544" display="inline" fill="#AADBFA" width="544" height="736"/>
</g>
<g id="Icon_Name">
</g>
<g id="Icons">
	<rect x="1" y="8" fill="#6DB5E3" width="31" height="23"/>
	<rect x="3" y="27" fill="#939598" width="27" height="3"/>
	<path fill="#6D6E71" d="M23,5c-2.8,0-5.6,1-7,1.6V29h1.4c1.5-0.5,3.6-1,5.6-1c3.5,0,7.1,2.4,8,3.1V8.2C31,8.2,27,5,23,5z"/>
	<path fill="#6D6E71" d="M10,5c2.8,0,5.6,1,7,1.6V29h-1.4c-1.5-0.5-3.6-1-5.6-1c-3.5,0-7.1,2.4-8,3.1V8.2C2,8.2,6,5,10,5z"/>
	<path fill="#F8F8F8" d="M30,29.2c-1.6-1-4.3-2.2-7-2.2c-1.8,0-3.7,0.4-5.8,1H17V7.2C18.5,6.7,20.7,6,23,6c2.9,0,6,2,7,2.7V29.2z"/>
	<path fill="#CCCCCC" d="M29,28.6c0.4,0.2,0.7,0.4,1,0.5V8.7c-0.2-0.2-0.6-0.4-1-0.7V28.6z"/>
	<path fill="#F8F8F8" d="M3,29.2c1.6-1,4.3-2.2,7-2.2c1.8,0,3.7,0.4,5.8,1H16V7.2C14.5,6.7,12.3,6,10,6C7.1,6,4,8,3,8.7V29.2z"/>
	<path fill="#CCCCCC" d="M4,28.6c-0.4,0.2-0.7,0.4-1,0.5V8.7c0.2-0.2,0.6-0.4,1-0.7V28.6z"/>
	<path fill="#F8F8F8" d="M23,5c-1,0-2,0.1-3,0.3V21c0,0.4,0.2,0.7,0.6,0.9C20.7,22,20.9,22,21,22c0.2,0,0.4-0.1,0.6-0.2l1.9-1.5
		l1.9,1.5c0.2,0.1,0.4,0.2,0.6,0.2c0.1,0,0.3,0,0.4-0.1c0.3-0.2,0.6-0.5,0.6-0.9V5.9C25.8,5.4,24.4,5,23,5z"/>
	<polygon fill="#57A6D9" points="21,0 26,0 26,21 23.5,19 21,21 	"/>
	<rect fill="none" width="32" height="32"/>
</g>
</svg>
