<?xml version="1.0" encoding="utf-8"?>
<!-- Generator: Adobe Illustrator 16.0.4, SVG Export Plug-In . SVG Version: 6.00 Build 0)  -->
<!DOCTYPE svg PUBLIC "-//W3C//DTD SVG 1.1//EN" "http://www.w3.org/Graphics/SVG/1.1/DTD/svg11.dtd">
<svg version="1.1" xmlns="http://www.w3.org/2000/svg" xmlns:xlink="http://www.w3.org/1999/xlink" x="0px" y="0px" width="32px"
	 height="32px" viewBox="0 0 32 32" enable-background="new 0 0 32 32" xml:space="preserve">
<g id="Dark_Theme_1_" display="none">
	<rect x="-224" y="-352" display="inline" fill="#333333" width="544" height="736"/>
	
		<rect x="-256" y="-384" display="inline" fill="none" stroke="#808080" stroke-width="0.25" stroke-miterlimit="10" width="612" height="792"/>
</g>
<g id="LightTheme" display="none">
	<rect x="-224" y="-352" display="inline" fill="#F8F8F8" width="544" height="736"/>
	
		<rect x="-256" y="-384" display="inline" fill="none" stroke="#808080" stroke-width="0.25" stroke-miterlimit="10" width="612" height="792"/>
</g>
<g id="Hover" display="none">
	<rect x="-224" y="-352" display="inline" fill="#C5E5F9" width="544" height="736"/>
</g>
<g id="Selected" display="none">
	<rect x="-224" y="-352" display="inline" fill="#AADBFA" width="544" height="736"/>
</g>
<g id="Icon_Name">
</g>
<g id="Icons">
	<circle fill="#6DB5E3" cx="15.5" cy="15.5" r="14.5"/>
	<rect fill="none" width="32" height="32"/>
	<polygon fill-rule="evenodd" clip-rule="evenodd" fill="#F8F8F8" points="14,23 18,23 18,22 17,21 17,13 14,13 14,14 15,15 15,21 
		14,22 	"/>
	<rect x="13" y="22" fill-rule="evenodd" clip-rule="evenodd" fill="#F8F8F8" width="6" height="1"/>
	<path fill="#F8F8F8" d="M17,10.2c0,0.4-0.3,0.8-0.8,0.8h-1.5c-0.4,0-0.8-0.3-0.8-0.8V8.8C14,8.3,14.3,8,14.8,8h1.5
		C16.7,8,17,8.3,17,8.8V10.2z"/>
</g>
</svg>
