<?xml version="1.0" encoding="utf-8"?>
<!-- Generator: Adobe Illustrator 16.0.4, SVG Export Plug-In . SVG Version: 6.00 Build 0)  -->
<!DOCTYPE svg PUBLIC "-//W3C//DTD SVG 1.1//EN" "http://www.w3.org/Graphics/SVG/1.1/DTD/svg11.dtd">
<svg version="1.1" xmlns="http://www.w3.org/2000/svg" xmlns:xlink="http://www.w3.org/1999/xlink" x="0px" y="0px" width="32px"
	 height="32px" viewBox="0 0 32 32" enable-background="new 0 0 32 32" xml:space="preserve">
<g id="Dark_Theme_1_" display="none">
	<rect x="-288" y="-256" display="inline" fill="#333333" width="544" height="736"/>
	
		<rect x="-320" y="-288" display="inline" fill="none" stroke="#808080" stroke-width="0.25" stroke-miterlimit="10" width="612" height="792"/>
</g>
<g id="LightTheme" display="none">
	<rect x="-288" y="-256" display="inline" fill="#F8F8F8" width="544" height="736"/>
	
		<rect x="-320" y="-288" display="inline" fill="none" stroke="#808080" stroke-width="0.25" stroke-miterlimit="10" width="612" height="792"/>
</g>
<g id="Hover" display="none">
	<rect x="-288" y="-256" display="inline" fill="#C5E5F9" width="544" height="736"/>
</g>
<g id="Selected" display="none">
	<rect x="-288" y="-256" display="inline" fill="#AADBFA" width="544" height="736"/>
</g>
<g id="Icon_Name">
</g>
<g id="Icons">
	<circle fill-rule="evenodd" clip-rule="evenodd" fill="#F8F8F8" cx="16" cy="16" r="14.5"/>
	<g>
		<circle fill="#D3EAF9" cx="16" cy="16" r="12.5"/>
		<path fill="#9BC29C" d="M8.7,22.1c-0.2-0.2-0.6-0.5-1.3-1L7.2,21c-0.2-0.1-0.3-0.2-0.5-0.3c-0.1-0.1-0.3-0.2-0.4-0.3
			c-0.1-0.1-0.1-0.2-0.1-0.3c0-0.1,0-0.2,0-0.3c0-0.3,0.1-0.6-0.1-0.9C6,18.4,5.9,18,5.7,17.7l-0.1-0.1c-0.2-0.3-0.3-0.6-0.4-0.9
			c-0.1-0.2-0.2-0.3-0.2-0.5c-0.1-0.1-0.1-0.2-0.2-0.3l-0.1-0.1c-0.2-0.2-0.3-0.4-0.3-0.8c0-0.3-0.1-0.5-0.2-0.6
			c-0.1-0.1-0.1-0.1-0.2-0.2c-0.1,0-0.1-0.1-0.2-0.1c-0.1,0-0.1,0-0.2,0c-0.1,0.6-0.2,1.3-0.2,1.9c0,3.4,1.3,6.4,3.5,8.6
			c0.1,0,0.1,0,0.2,0h0.2c0.1,0,0.2,0,0.2-0.1c0.1,0,0.1-0.1,0.2-0.1c0.1-0.1,0.1-0.1,0.2-0.2C8,24.1,8,23.9,8,23.9
			c0-0.1,0-0.1,0-0.3c0-0.2,0-0.3,0.3-0.5C8.4,23,8.5,23,8.6,22.9c0.1-0.1,0.2-0.2,0.2-0.3s0-0.2,0-0.3C8.8,22.2,8.8,22.2,8.7,22.1z
			 M28.4,15.7c0-0.1-0.2-0.2-0.3-0.3c0,0-0.1,0-0.2-0.1c-0.1,0-0.2-0.1-0.2-0.2c0-0.1,0-0.3,0.1-0.3c0.1-0.1,0.2-0.1,0.3-0.1
			c0,0,0.1,0,0.1,0c0,0,0.1,0,0.1,0c0,0,0,0,0.1,0c-0.4-4-2.7-7.4-5.9-9.4c-0.1,0.1-0.1,0.2-0.1,0.4c0,0.1,0,0.1,0.1,0.2l0.1,0.1
			l0.1,0.2c0,0.1,0,0.1,0.1,0.1c0,0,0,0.1,0,0.1c0,0.1-0.1,0.1-0.2,0.1c-0.2,0-0.6-0.1-0.8-0.2l-0.1,0c-0.1,0-0.2-0.1-0.3-0.1
			c-0.2-0.1-0.3-0.1-0.3-0.1c-0.3,0-0.7,0.3-0.8,0.5c0,0-0.1,0.1-0.1,0.2l-0.1,0.2c0,0.1-0.1,0.2-0.1,0.3c0,0.1-0.1,0.2-0.1,0.2
			c0,0.1-0.1,0.1-0.1,0.1c-0.1,0.2,0,0.4,0.1,0.6c0.2,0.2,0.5,0.4,0.7,0.6c0.1,0.1,0.2,0.1,0.2,0.1c0.1,0,0.1,0,0.2-0.1
			c0.1-0.1,0.2-0.2,0.2-0.4l0-0.1c0-0.1,0-0.3,0-0.4c0-0.1,0.1-0.2,0.1-0.3c0,0,0.1-0.1,0.2-0.1c0,0,0.1,0.1,0.1,0.1
			c0,0,0.1,0.1,0.1,0.1c0,0,0.1,0.1,0.2,0.1c0.1,0.1,0.3,0.2,0.3,0.3c0.1,0.3,0.1,0.6-0.1,0.9C22,9.6,22,9.7,21.5,9.7
			c-0.2,0-0.4-0.1-0.5-0.1l-0.1,0c-0.1,0-0.1,0-0.2,0c-0.1,0-0.2,0-0.3,0.1c-0.1,0.1-0.2,0.1-0.2,0.2c-0.2,0.1-0.3,0.3-0.4,0.4
			c-0.1,0.1-0.4,0.4-0.8,0.6c-0.2,0.1-0.3,0.3-0.2,0.6l0,0.1c0,0.1,0.1,0.3,0.1,0.4c0,0.2-0.1,0.2-0.2,0.2c-0.1,0-0.2,0-0.2,0
			c0,0-0.1,0-0.1,0c-0.1,0-0.2,0-0.3-0.1l-0.1,0c0,0-0.1,0-0.1,0c-0.2,0-0.4,0.1-0.4,0.3c0,0.1-0.1,0.2-0.1,0.3c0,0.2,0,0.5,0,0.7
			c0,0.2,0.1,0.4,0.3,0.5c0.1,0,0.1,0,0.2,0.1c0,0,0.1,0,0.1,0c0.1,0,0.2,0,0.2,0.1c0,0,0.1,0,0.1,0c0.2,0,0.3-0.1,0.4-0.2
			c0.1-0.1,0.2-0.2,0.2-0.2c0-0.1,0.1-0.1,0.1-0.2c0,0,0-0.1,0-0.1c0,0,0-0.1,0.1-0.1c0-0.1,0.1-0.1,0.2-0.2
			c0.2-0.1,0.2-0.2,0.3-0.3c0,0,0.1-0.1,0.1-0.1c0-0.1,0.1-0.1,0.1-0.1c0.1-0.1,0.3-0.2,0.5-0.2c0.1,0,0.2,0,0.3,0.1
			c0.1,0,0.2,0.1,0.3,0.2c0.1,0.1,0.2,0.1,0.3,0.1c0.1,0,0.1,0,0.2,0c0.2-0.1,0.3-0.2,0.3-0.4c0,0,0.1,0,0.1,0.1
			c0.1,0.1,0.2,0.2,0.4,0.3c0.1,0.1,0.3,0.3,0.4,0.4c0.1,0.1,0.2,0.2,0.2,0.3c0,0.1,0.1,0.3,0.2,0.4c0.1,0.1,0.2,0.2,0.4,0.2h0
			c0.2,0,0.3-0.1,0.4-0.2c0-0.1,0.1-0.1,0.1-0.1c0,0,0.1,0,0.1,0.1c0,0.1,0.1,0.1,0.1,0.2c0.1,0.2,0.2,0.3,0.4,0.3h0l0.1,0
			c0.1,0,0.1,0,0.2,0c0.4,0,0.4,0.2,0.5,0.3c0.1,0.3,0.2,0.5,0.2,0.6c0,0.3-0.2,0.4-0.3,0.4c-0.2,0.1-0.3,0.1-0.4,0.2
			c-0.1,0-0.2,0.1-0.4,0.1c-0.1,0-0.1,0-0.2,0c-0.1,0-0.2-0.1-0.3-0.1c-0.1,0-0.2-0.1-0.3-0.1c0,0,0,0-0.1,0c-0.2,0-0.4,0.1-0.4,0.3
			c0,0,0,0.1,0,0.1c0,0,0,0.1,0,0.1c0,0.1-0.1,0.1-0.2,0.1h0c-0.3,0-1.3-0.4-1.5-0.7c-0.1-0.1-0.1-0.2-0.1-0.2c0,0,0-0.1,0-0.1
			l0-0.1c0-0.2-0.2-0.5-0.4-0.5c-0.1,0-0.3,0-0.5-0.1l-0.1,0c-0.3,0-0.6,0-0.8,0c-0.2,0-0.4,0.1-0.6,0.2l-0.1,0c0,0-0.1,0-0.1,0
			c0,0,0,0-0.1,0c0,0-0.1,0-0.1,0c-0.1,0-0.1,0-0.2-0.1l-0.1-0.1c0,0-0.1,0-0.1,0c-0.1-0.1-0.2-0.1-0.2-0.1c0,0-0.1,0-0.1,0
			c-0.1,0-0.2,0-0.3,0.1c0,0,0,0-0.1,0.1l-0.1,0.1c-0.1,0.1-0.1,0.1-0.2,0.2c-0.3,0.2-0.5,0.4-0.7,0.8c-0.1,0.2-0.1,0.3-0.2,0.3
			c0,0-0.1,0.1-0.2,0.1c-0.1,0-0.1,0-0.2,0.1c-0.4,0.1-0.9,0.7-1.2,1.2c-0.1,0.2-0.2,0.4-0.2,0.5c0,0.1,0,0.2,0,0.4
			c0,0.3-0.1,0.7-0.4,0.9c-0.1,0.1-0.1,0.1-0.1,0.2c0,0.1,0,0.2,0,0.3c0,0.2,0.1,0.4,0.2,0.5c0,0.1,0.1,0.1,0.2,0.2l0.1,0.1l0.1,0.1
			c0.1,0.1,0.3,0.3,0.4,0.5c0.1,0.4,0.3,0.7,0.6,1c0.4,0.3,0.7,0.5,1,0.5c0.1,0,0.3,0,0.4,0l0.1,0c0.2,0,0.4-0.1,0.6-0.1
			c0.2,0,0.5-0.1,0.7-0.1c0.2,0,0.4,0,0.5,0.1c0.2,0.1,0.4,0.1,0.6,0.1c0.1,0,0.2,0,0.3,0.1c0.3,0.1,0.4,0.2,0.5,0.4
			c0.1,0.2,0,0.4,0,0.5c0,0,0,0.1,0,0.1c0,0.1,0,0.1-0.1,0.2c0,0.2,0,0.3,0.1,0.4l0.1,0.1c0.1,0.1,0.3,0.3,0.3,0.6
			c0,0.6-0.1,0.9-0.4,1.2c-0.3,0.3-0.5,0.5-0.5,0.9c0,0.1,0,0.2,0,0.3c0,0.1,0,0.2,0,0.3c0,0.1,0,0.3,0,0.4c0,0.1,0,0.1,0,0.2
			c2.3-0.7,4.4-2,5.9-3.8c0-0.1,0-0.2,0.1-0.3c0-0.2,0.1-0.5,0.3-0.8c0.1-0.3,0.4-0.7,0.6-1l0.2-0.3c0.2-0.3,0.4-0.6,0.6-0.9
			c0.2-0.4,0.4-0.7,0.5-1c0-0.1,0-0.3-0.1-0.4c-0.1-0.1-0.2-0.1-0.4-0.1c0,0-0.1,0-0.1,0c-0.1,0-0.1,0-0.1,0c0,0-0.1-0.1-0.1-0.1
			c0-0.1-0.1-0.1-0.1-0.2c-0.1-0.2-0.1-0.4-0.2-0.6l0-0.1c0-0.2-0.1-0.3-0.1-0.5c-0.1-0.3-0.2-0.4-0.2-0.4c-0.1-0.1-0.3-0.5-0.4-0.9
			c-0.1-0.2-0.1-0.3-0.1-0.5c0,0,0-0.1,0-0.2c0.3,0.2,0.9,1.6,1,1.9c0,0.1,0,0.3,0.1,0.4c0.1,0.2,0.2,0.3,0.4,0.3c0,0,0,0,0,0
			c0.2,0,0.3-0.1,0.4-0.2c0.2-0.4,0.4-0.8,0.6-1.2c0.2-0.5,0.2-0.8,0.3-1.1C28.5,16,28.5,15.9,28.4,15.7z M12.1,4.9
			c-0.1,0-0.2-0.1-0.3-0.1c-0.1,0-0.2,0-0.3,0.1c-0.1,0-0.1,0.1-0.2,0.1l-0.1,0.1c-0.1,0-0.1,0.1-0.2,0.1c-0.1,0.1-0.2,0.1-0.3,0.1
			c-0.1,0-0.2,0.1-0.2,0.1c0,0-0.2,0-0.1-0.3c0-0.1,0-0.2,0-0.3C8.3,5.9,6.5,7.6,5.3,9.6c0.1,0,0.1,0.1,0.2,0.1c0,0,0.1,0,0.1,0
			c0.1,0,0.3-0.1,0.3-0.2C6,9.3,6.2,9.2,6.4,9.1C6.5,9.1,6.6,9,6.7,9c0.1-0.1,0.2-0.1,0.3-0.2c0.2-0.2,0.6-0.5,1-0.5
			c0.3,0,0.7,0,1,0c0,0,0.1,0,0.1,0c0.4,0,0.6-0.4,0.6-0.5c0.1-0.4,0.2-0.5,0.4-0.5c0,0,0.1,0,0.1,0c0.1,0,0.2,0,0.3,0.1
			c0.1,0,0.2,0,0.3,0.1c0.1,0,0.1,0,0.1,0c0,0,0,0,0,0c0.1,0,0.3-0.1,0.3-0.2c0.3-0.3,0.7-0.9,0.9-1.2c0.1-0.2,0.2-0.4,0.2-0.6
			C12.3,5.2,12.2,5,12.1,4.9z M18.1,8.8C18.1,8.9,18,8.9,18,9c-0.1,0.1,0,0.3,0.1,0.4c0.1,0.1,0.2,0.2,0.3,0.2c0,0,0,0,0,0
			c0,0,0.1,0,0.1,0c0,0,0,0.1,0,0.1l0,0c0,0.2,0,0.4,0.2,0.4c0.1,0.1,0.2,0.1,0.3,0.1c0,0,0.1,0,0.1,0c0.2-0.1,0.3-0.4,0.3-0.5
			c0-0.2-0.2-0.4-0.4-0.4c0-0.1,0-0.2,0-0.3c0-0.1-0.1-0.3-0.3-0.4c-0.1-0.1-0.2-0.1-0.3-0.1c0,0-0.1,0-0.1,0
			C18.3,8.6,18.2,8.7,18.1,8.8z M13.8,3.7c-0.5,0.1-0.9,0.2-1.4,0.3c0,0.2,0.2,0.3,0.4,0.3h0c0.1,0,0.3,0,0.4,0c0.1,0,0.1,0,0.2,0
			c0.1,0,0.1,0,0.2-0.1l0.1-0.1C13.8,4,13.9,3.9,13.8,3.7z M14.1,6.8c0.1,0,0.2,0,0.2-0.1c0.3-0.2,0.8-0.4,1.2-0.5
			c0.1,0,0.1,0,0.2,0l0.2,0c0.1,0,0.2,0,0.3,0l0.2,0c0.1,0,0.1,0,0.2,0c0.1,0,0.2,0,0.2,0c0.1,0,0.3-0.1,0.3-0.2
			c0.1-0.1,0.1-0.1,0.1-0.2c0-0.1,0.1-0.1,0.1-0.2c0.1-0.2,0.2-0.3,0.3-0.5C17.8,5.1,17.9,5,18,5l0.1-0.1c0.1-0.1,0.2-0.2,0.2-0.3
			c0-0.1,0-0.2-0.1-0.3C18,4.2,17.9,4.1,17.8,4c-0.2-0.1-0.5-0.1-1-0.2c-0.1,0-0.2,0-0.3,0c-0.2,0-0.4,0-0.6,0.1
			C15.8,4,15.7,4,15.7,4l-0.1,0c-0.1,0-0.2,0.1-0.2,0.1c-0.1,0.1-0.1,0.1-0.1,0.1c0,0-0.1,0.2-0.1,0.2c0,0-0.1,0.1-0.2,0.2
			c-0.1,0.1-0.1,0.1-0.2,0.2c-0.1,0-0.1,0.1-0.2,0.2c-0.2,0.1-0.3,0.2-0.4,0.4c-0.3,0.3-0.5,0.6-0.5,0.9c0,0.2,0.1,0.3,0.2,0.4
			C14,6.8,14,6.8,14.1,6.8z"/>
	</g>
	<rect fill-rule="evenodd" clip-rule="evenodd" fill="none" width="32" height="32"/>
	<path fill="#6D6E71" d="M16,1C7.7,1,1,7.7,1,16c0,8.3,6.7,15,15,15s15-6.7,15-15C31,7.7,24.3,1,16,1z M16,30.3
		C8.1,30.3,1.7,23.9,1.7,16C1.7,8.1,8.1,1.7,16,1.7c7.9,0,14.3,6.4,14.3,14.3C30.3,23.9,23.9,30.3,16,30.3z"/>
</g>
</svg>
