<?xml version="1.0" encoding="utf-8"?>
<!-- Generator: Adobe Illustrator 16.0.4, SVG Export Plug-In . SVG Version: 6.00 Build 0)  -->
<!DOCTYPE svg PUBLIC "-//W3C//DTD SVG 1.1//EN" "http://www.w3.org/Graphics/SVG/1.1/DTD/svg11.dtd">
<svg version="1.1" xmlns="http://www.w3.org/2000/svg" xmlns:xlink="http://www.w3.org/1999/xlink" x="0px" y="0px" width="32px"
	 height="32px" viewBox="0 0 32 32" enable-background="new 0 0 32 32" xml:space="preserve">
<g id="Dark_Theme_1_" display="none">
	<rect x="-352" y="-352" display="inline" fill="#333333" width="544" height="736"/>
	
		<rect x="-384" y="-384" display="inline" fill="none" stroke="#808080" stroke-width="0.25" stroke-miterlimit="10" width="612" height="792"/>
</g>
<g id="LightTheme" display="none">
	<rect x="-352" y="-352" display="inline" fill="#F8F8F8" width="544" height="736"/>
	
		<rect x="-384" y="-384" display="inline" fill="none" stroke="#808080" stroke-width="0.25" stroke-miterlimit="10" width="612" height="792"/>
</g>
<g id="Hover" display="none">
	<rect x="-352" y="-352" display="inline" fill="#C5E5F9" width="544" height="736"/>
</g>
<g id="Selected" display="none">
	<rect x="-352" y="-352" display="inline" fill="#AADBFA" width="544" height="736"/>
</g>
<g id="Icon_Name">
</g>
<g id="Icons">
	<polygon fill="#C96B4B" points="9,22 4,22 4,17 9,17 9,22 	"/>
	<rect x="5" y="18" fill="#F4DFD8" width="3" height="3"/>
	<polygon fill="#57A6D9" points="9,6 4,6 4,1 9,1 9,6 	"/>
	<rect x="5" y="2" fill="#D3EAF9" width="3" height="3"/>
	<linearGradient id="SVGID_1_" gradientUnits="userSpaceOnUse" x1="8.0039" y1="12.9961" x2="5.0042" y2="9.9964">
		<stop  offset="0" style="stop-color:#003068"/>
		<stop  offset="0.4945" style="stop-color:#0066CF"/>
		<stop  offset="1" style="stop-color:#00C0FF"/>
	</linearGradient>
	<rect x="5" y="10" fill="url(#SVGID_1_)" width="3" height="3"/>
	<path fill="#5B945A" d="M6.5,14C5.1,14,4,12.9,4,11.5S5.1,9,6.5,9C7.9,9,9,10.1,9,11.5S7.9,14,6.5,14L6.5,14z"/>
	<linearGradient id="SVGID_2_" gradientUnits="userSpaceOnUse" x1="7.5654" y1="12.5576" x2="5.4441" y2="10.4363">
		<stop  offset="0" style="stop-color:#005F00"/>
		<stop  offset="1" style="stop-color:#00D400"/>
	</linearGradient>
	<circle fill="url(#SVGID_2_)" cx="6.5" cy="11.5" r="1.5"/>
	<circle fill="#DDEEDB" cx="6.5" cy="11.5" r="1.5"/>
	<rect fill="none" width="32" height="32"/>
	<rect x="13" y="3" fill="#57A6D9" width="14" height="1"/>
	<rect x="13" y="11" fill="#57A6D9" width="10" height="1"/>
	<rect x="13" y="19" fill="#57A6D9" width="2" height="1"/>
	<rect x="13" y="27" fill="#57A6D9" width="3" height="1"/>
	<rect x="25" y="19" fill="#F8F8F8" width="2" height="1"/>
	<polygon fill="#C96B4B" points="16,16 18.4,16 32,29.6 32,32 29.6,32 16,18.4 	"/>
	<polygon fill="#C96B4B" points="16,32 16,29.6 29.6,16 32,16 32,18.4 18.4,32 	"/>
	<path fill="#7C6DA8" d="M5,30c-0.3,0-0.7-0.2-0.9-0.5s-0.2-0.7,0-1l1.5-3C5.8,25.2,6.2,25,6.5,25c0,0,0,0,0,0
		c0.4,0,0.7,0.2,0.9,0.6l1.5,3c0.2,0.3,0.1,0.7,0,1S8.3,30,8,30H5z"/>
	<polygon fill="#E6E2F0" points="5,29 6.5,26 8,29 	"/>
</g>
</svg>
