<?xml version="1.0" encoding="utf-8"?>
<!-- Generator: Adobe Illustrator 16.0.4, SVG Export Plug-In . SVG Version: 6.00 Build 0)  -->
<!DOCTYPE svg PUBLIC "-//W3C//DTD SVG 1.1//EN" "http://www.w3.org/Graphics/SVG/1.1/DTD/svg11.dtd">
<svg version="1.1" xmlns="http://www.w3.org/2000/svg" xmlns:xlink="http://www.w3.org/1999/xlink" x="0px" y="0px" width="32px"
	 height="32px" viewBox="0 0 32 32" enable-background="new 0 0 32 32" xml:space="preserve">
<g id="Dark_Theme_1_" display="none">
	<rect x="-416" y="-64" display="inline" fill="#333333" width="544" height="736"/>
	
		<rect x="-448" y="-96" display="inline" fill="none" stroke="#808080" stroke-width="0.25" stroke-miterlimit="10" width="612" height="792"/>
</g>
<g id="LightTheme" display="none">
	<rect x="-416" y="-64" display="inline" fill="#F8F8F8" width="544" height="736"/>
	
		<rect x="-448" y="-96" display="inline" fill="none" stroke="#808080" stroke-width="0.25" stroke-miterlimit="10" width="612" height="792"/>
</g>
<g id="Hover" display="none">
	<rect x="-416" y="-64" display="inline" fill="#C5E5F9" width="544" height="736"/>
</g>
<g id="Selected" display="none">
	<rect x="-416" y="-64" display="inline" fill="#AADBFA" width="544" height="736"/>
</g>
<g id="Icon_Name">
</g>
<g id="Icons">
	<rect fill-rule="evenodd" clip-rule="evenodd" fill="none" width="32" height="32"/>
	<path fill="#E5D255" d="M31,28c0,0-6-3-15,0S1,28,1,28L5,4c0,0,6,2,11,0s11,0,11,0L31,28z"/>
	<path fill="#F4EEC8" d="M8.1,27.3c-1.4,0-2.7-0.1-3.9-0.4c-0.5-0.1-0.9-0.6-0.8-1.1L6.5,7.5C6.5,7,7,6.6,7.4,6.6c0,0,0.1,0,0.2,0
		c1.1,0.2,2.3,0.3,3.3,0.3c2.1,0,4.1-0.3,5.8-1c1.2-0.5,2.7-0.7,4.3-0.7c1.1,0,2.3,0.1,3.5,0.3c0.4,0.1,0.7,0.4,0.8,0.8l2.9,17.5
		c0.1,0.3,0,0.6-0.3,0.9c-0.2,0.2-0.4,0.3-0.7,0.3c0,0-0.1,0-0.1,0c-1.1-0.1-2.2-0.2-3.2-0.2c-2.8,0-5.7,0.5-8.5,1.4
		C12.9,26.9,10.5,27.3,8.1,27.3z"/>
	<path fill="#6D6E71" d="M8.1,26.3c-1.5,0-2.8-0.2-3.7-0.4L7.4,7.6c1,0.2,2.2,0.3,3.5,0.3c2.3,0,4.4-0.4,6.2-1.1
		c1.1-0.4,2.5-0.7,4-0.7c1.3,0,2.4,0.2,3.3,0.3l2.9,17.5c-1-0.1-2.1-0.2-3.4-0.2c-2.9,0-5.9,0.5-8.8,1.5
		C12.7,25.9,10.4,26.3,8.1,26.3z"/>
	<path fill="#6DB5E3" d="M19,17v-4.6c-1.4,0.3-2.8,0.6-4.3,1.1c-0.6,0.2-1.2,0.4-1.7,0.5v4.6c0.6-0.1,1.2-0.3,1.7-0.5
		C16.2,17.6,17.6,17.3,19,17z"/>
	<path fill="#6D6E71" d="M25.2,17.6l-0.2-1c-0.4,0-0.8,0-1.2,0c-1.3,0-2.6,0.1-3.9,0.3v-4.6c1.3-0.2,2.6-0.3,3.9-0.3
		c0.1,0,0.3,0,0.4,0l-0.2-1c-0.1,0-0.1,0-0.2,0c-1.3,0-2.6,0.1-3.9,0.3V7.2c-0.3,0-0.7,0.1-1,0.1v4.2c-1.4,0.3-2.8,0.6-4.3,1.1
		c-0.6,0.2-1.2,0.4-1.7,0.5V8.8c-0.3,0-0.7,0.1-1,0.1v4.4c-1.3,0.3-2.6,0.4-3.9,0.4c-0.2,0-0.4,0-0.7,0l-0.1,0.6l-0.1,0.4
		c0.3,0,0.5,0,0.8,0c1.3,0,2.6-0.2,3.9-0.4v4.6c-1.3,0.3-2.6,0.4-3.9,0.4c-0.5,0-1.1,0-1.6-0.1l-0.2,1c0.6,0.1,1.2,0.1,1.7,0.1
		c1.3,0,2.6-0.1,3.9-0.4v5.1c0.3-0.1,0.7-0.1,1-0.2v-5.1c0.6-0.1,1.2-0.3,1.7-0.5c1.4-0.5,2.8-0.8,4.3-1.1v5.1
		c0.3-0.1,0.7-0.1,1-0.2v-5.1c1.3-0.2,2.6-0.3,3.9-0.3C24.3,17.6,24.8,17.6,25.2,17.6z M19,17c-1.4,0.3-2.8,0.6-4.3,1.1
		c-0.6,0.2-1.2,0.4-1.7,0.5V14c0.6-0.1,1.2-0.3,1.7-0.5c1.4-0.5,2.8-0.8,4.3-1.1V17z"/>
	<g>
		<path fill="none" d="M8.1,13.7c-0.2,0-0.3,0-0.5,0l-0.2,1c0.2,0,0.4,0,0.6,0c1.3,0,2.6-0.2,3.9-0.4v4.6c-1.3,0.3-2.6,0.4-3.9,0.4
			c-0.5,0-0.9,0-1.4-0.1l-0.2,1c0.5,0,1,0.1,1.5,0.1c1.3,0,2.6-0.1,3.9-0.4V24v0.7c0.3-0.1,0.7-0.1,1-0.2V24v-4.4
			c0.6-0.1,1.2-0.3,1.7-0.5c1.4-0.5,2.8-0.8,4.3-1.1v4.9c0.3-0.1,0.7-0.1,1-0.2v-4.9c1.3-0.2,2.6-0.3,3.9-0.3c0.4,0,0.7,0,1.1,0
			l-0.2-1c-0.3,0-0.6,0-1,0c-1.3,0-2.6,0.1-3.9,0.3v-4.6c1.3-0.2,2.6-0.3,3.9-0.3c0.1,0,0.1,0,0.2,0l-0.2-1c0,0,0,0,0,0
			c-1.3,0-2.6,0.1-3.9,0.3V7.4c-0.3,0-0.7,0.1-1,0.1v4c-1.4,0.3-2.8,0.6-4.3,1.1c-0.6,0.2-1.2,0.4-1.7,0.5V9C12.7,9,12.3,9,12,9v4.2
			C10.7,13.5,9.4,13.7,8.1,13.7z"/>
		<path fill="#9BC29C" d="M20,17.9v4.9c1.3-0.2,2.6-0.3,3.9-0.3c0.6,0,1.3,0,1.9,0.1L25,17.6c-0.4,0-0.7,0-1.1,0
			C22.6,17.6,21.3,17.7,20,17.9z"/>
		<path fill="#BDDBEE" d="M14.7,12.5c1.4-0.5,2.8-0.8,4.3-1.1v-4c-0.5,0.1-1,0.2-1.4,0.4C16.2,8.5,14.6,8.8,13,9V13
			C13.6,12.9,14.2,12.7,14.7,12.5z"/>
		<path fill="#F4EEC8" d="M20,12.3v4.6c1.3-0.2,2.6-0.3,3.9-0.3c0.3,0,0.6,0,1,0L24.1,12c-0.1,0-0.1,0-0.2,0
			C22.6,12,21.3,12.1,20,12.3z"/>
		<path fill="#D3EAF9" d="M23.9,11C23.9,11,23.9,11,23.9,11l-0.6-3.5c-0.8-0.1-1.5-0.2-2.2-0.2c-0.4,0-0.7,0-1.1,0v3.9
			C21.3,11.1,22.6,11,23.9,11z"/>
		<path fill="#F4EEC8" d="M8.1,13.7c1.3,0,2.6-0.2,3.9-0.4V9c-0.4,0-0.7,0-1.1,0c-0.8,0-1.6,0-2.5-0.1l-0.8,4.7
			C7.8,13.7,8,13.7,8.1,13.7z"/>
		<path fill="#D3EAF9" d="M12,18.8v-4.6c-1.3,0.3-2.6,0.4-3.9,0.4c-0.2,0-0.4,0-0.6,0l-0.8,4.5c0.5,0,0.9,0.1,1.4,0.1
			C9.4,19.2,10.7,19.1,12,18.8z"/>
		<path fill="#6DB5E3" d="M12,19.8c-1.3,0.3-2.6,0.4-3.9,0.4c-0.5,0-1,0-1.5-0.1L5.8,25c0.8,0.1,1.5,0.2,2.3,0.2
			c1.3,0,2.6-0.2,3.9-0.4V24V19.8z"/>
		<path fill="#9BC29C" d="M14.7,19.1c-0.6,0.2-1.2,0.4-1.7,0.5V24v0.5c0.6-0.1,1.1-0.3,1.7-0.5c1.4-0.5,2.9-0.8,4.3-1.1V18
			C17.6,18.3,16.2,18.6,14.7,19.1z"/>
	</g>
</g>
</svg>
