<?xml version="1.0" encoding="utf-8"?>
<!-- Generator: Adobe Illustrator 16.0.4, SVG Export Plug-In . SVG Version: 6.00 Build 0)  -->
<!DOCTYPE svg PUBLIC "-//W3C//DTD SVG 1.1//EN" "http://www.w3.org/Graphics/SVG/1.1/DTD/svg11.dtd">
<svg version="1.1" xmlns="http://www.w3.org/2000/svg" xmlns:xlink="http://www.w3.org/1999/xlink" x="0px" y="0px" width="32px"
	 height="32px" viewBox="0 0 32 32" enable-background="new 0 0 32 32" xml:space="preserve">
<g id="Dark_Theme_1_" display="none">
	<rect x="-96" y="-448" display="inline" fill="#333333" width="544" height="736"/>
	
		<rect x="-128" y="-480" display="inline" fill="none" stroke="#808080" stroke-width="0.25" stroke-miterlimit="10" width="612" height="792"/>
</g>
<g id="LightTheme" display="none">
	<rect x="-96" y="-448" display="inline" fill="#F8F8F8" width="544" height="736"/>
	
		<rect x="-128" y="-480" display="inline" fill="none" stroke="#808080" stroke-width="0.25" stroke-miterlimit="10" width="612" height="792"/>
</g>
<g id="Hover" display="none">
	<rect x="-96" y="-448" display="inline" fill="#C5E5F9" width="544" height="736"/>
</g>
<g id="Selected" display="none">
	<rect x="-96" y="-448" display="inline" fill="#AADBFA" width="544" height="736"/>
</g>
<g id="Icon_Name">
</g>
<g id="Icons">
	<rect fill-rule="evenodd" clip-rule="evenodd" fill="none" width="32" height="32"/>
	<path fill="#E5D255" d="M29.8,28c0,0-6-3-15,0s-15,0-15,0l4-24c0,0,6,2,11,0s11,0,11,0L29.8,28z"/>
	<path fill="#F8F8F8" d="M27.4,16H19c-0.6,0-1,0.4-1,1v10.1c7.2-1.4,11.8,0.9,11.8,0.9l-2-11.9C27.7,16,27.5,16,27.4,16z"/>
	<polygon fill="#6D6E71" points="31,32 19,32 19,17 27.4,17 31,20.6 	"/>
	<polygon fill="#F8F8F8" points="27.3,18 20,18 20,31 30,31 30,20.7 	"/>
	<rect x="26" y="18" fill="#6D6E71" width="1" height="4"/>
	<rect x="26" y="21" fill="#6D6E71" width="5" height="1"/>
	<rect x="21" y="23" fill="#57A6D9" width="8" height="1"/>
	<rect x="21" y="25" fill="#57A6D9" width="8" height="1"/>
	<rect x="21" y="27" fill="#57A6D9" width="8" height="1"/>
	<rect x="21" y="29" fill="#57A6D9" width="8" height="1"/>
	<rect x="21" y="21" fill="#57A6D9" width="4" height="1"/>
	<path fill="#F8F8F8" d="M16.7,21.8l-3.5-3.5C13,18.1,12.8,18,12.5,18H11c-0.6,0-1,0.4-1,1v0.5c0,0.3,0.1,0.5,0.3,0.7l0.3,0.3
		C9.1,20,8,18.6,8,17v-1c0-0.6-0.4-1-1-1H6c-0.6,0-1,0.4-1,1v1c0,3.7,2.6,6.5,6.1,6.9l-0.8,0.8C10.1,25,10,25.2,10,25.5V26
		c0,0.6,0.4,1,1,1h1.5c0.3,0,0.5-0.1,0.7-0.3l3.5-3.5C17.1,22.8,17.1,22.2,16.7,21.8z"/>
	<path fill="#68AA67" d="M15,21.9l-3.2-0.1c-2.6,0-4.8-2.1-4.8-4.8v-1H6v1c0,3.4,2.6,6,6,6h3c0,0,0,0.2,0,0.2V21.9z"/>
	<polygon fill="#68AA67" points="16,22.5 12.5,26 11,26 11,25.5 14,22.5 11,19.5 11,19 12.5,19 	"/>
</g>
</svg>
