<?xml version="1.0" encoding="utf-8"?>
<!-- Generator: Adobe Illustrator 16.0.4, SVG Export Plug-In . SVG Version: 6.00 Build 0)  -->
<!DOCTYPE svg PUBLIC "-//W3C//DTD SVG 1.1//EN" "http://www.w3.org/Graphics/SVG/1.1/DTD/svg11.dtd">
<svg version="1.1" xmlns="http://www.w3.org/2000/svg" xmlns:xlink="http://www.w3.org/1999/xlink" x="0px" y="0px" width="32px"
	 height="32px" viewBox="0 0 32 32" enable-background="new 0 0 32 32" xml:space="preserve">
<g id="Dark_Theme_1_" display="none">
	<rect x="-32" y="-448" display="inline" fill="#333333" width="544" height="736"/>
	
		<rect x="-64" y="-480" display="inline" fill="none" stroke="#808080" stroke-width="0.25" stroke-miterlimit="10" width="612" height="792"/>
</g>
<g id="LightTheme" display="none">
	<rect x="-32" y="-448" display="inline" fill="#F8F8F8" width="544" height="736"/>
	
		<rect x="-64" y="-480" display="inline" fill="none" stroke="#808080" stroke-width="0.25" stroke-miterlimit="10" width="612" height="792"/>
</g>
<g id="Hover" display="none">
	<rect x="-32" y="-448" display="inline" fill="#C5E5F9" width="544" height="736"/>
</g>
<g id="Selected" display="none">
	<rect x="-32" y="-448" display="inline" fill="#AADBFA" width="544" height="736"/>
</g>
<g id="Icon_Name">
</g>
<g id="Icons">
	<rect x="-0.2" fill-rule="evenodd" clip-rule="evenodd" fill="none" width="32" height="32"/>
	<path fill="#E5D255" d="M30.8,28c0,0-6-3-15,0s-15,0-15,0l4-24c0,0,6,2,11,0s11,0,11,0L30.8,28z"/>
	<path fill-rule="evenodd" clip-rule="evenodd" fill="#F8F8F8" d="M24.7,23.8l-6.5-6.5c-0.2-0.2-0.4-0.3-0.7-0.3H14
		c-0.4,0-0.8,0.2-0.9,0.6s-0.1,0.8,0.2,1.1l3.3,3.3H14c-1.7,0-3-1.3-3-3c0-0.6-0.4-1-1-1H7c-0.6,0-1,0.4-1,1c0,4.4,3.6,8,8,8l2.6,0
		l-1.1,1.1c0.1,0,0.2-0.1,0.3-0.1c2.8-0.9,5.3-1.3,7.5-1.3l1.5-1.5C25.1,24.8,25.1,24.2,24.7,23.8z"/>
	<path fill-rule="evenodd" clip-rule="evenodd" fill="#68AA67" d="M17.5,18H14l5,5h-5c-2.2,0-4-1.8-4-4H7c0,3.9,3.1,7,7,7h5v0l-5,5
		h3.5l6.5-6.5L17.5,18z"/>
</g>
</svg>
