<?xml version="1.0" encoding="utf-8"?>
<!-- Generator: Adobe Illustrator 16.0.4, SVG Export Plug-In . SVG Version: 6.00 Build 0)  -->
<!DOCTYPE svg PUBLIC "-//W3C//DTD SVG 1.1//EN" "http://www.w3.org/Graphics/SVG/1.1/DTD/svg11.dtd">
<svg version="1.1" xmlns="http://www.w3.org/2000/svg" xmlns:xlink="http://www.w3.org/1999/xlink" x="0px" y="0px" width="32px"
	 height="32px" viewBox="0 0 32 32" enable-background="new 0 0 32 32" xml:space="preserve">
<g id="Dark_Theme_1_" display="none">
	<rect x="-352" y="-256" display="inline" fill="#333333" width="544" height="736"/>
	
		<rect x="-384" y="-288" display="inline" fill="none" stroke="#808080" stroke-width="0.25" stroke-miterlimit="10" width="612" height="792"/>
</g>
<g id="LightTheme" display="none">
	<rect x="-352" y="-256" display="inline" fill="#F8F8F8" width="544" height="736"/>
	
		<rect x="-384" y="-288" display="inline" fill="none" stroke="#808080" stroke-width="0.25" stroke-miterlimit="10" width="612" height="792"/>
</g>
<g id="Hover" display="none">
	<rect x="-352" y="-256" display="inline" fill="#C5E5F9" width="544" height="736"/>
</g>
<g id="Selected" display="none">
	<rect x="-352" y="-256" display="inline" fill="#AADBFA" width="544" height="736"/>
</g>
<g id="Icon_Name">
</g>
<g id="Icons">
	<rect fill-rule="evenodd" clip-rule="evenodd" fill="none" width="32" height="32"/>
	<path fill="#E5D255" d="M31,28c0,0-6-3-15,0S1,28,1,28L5,4c0,0,6,2,11,0s11,0,11,0L31,28z"/>
	<path fill="#F8F8F8" d="M30.4,27.7l-4.5-4.5c-0.3-0.3-0.8-0.5-1.3-0.5c-0.1,0-0.2,0-0.3,0L23.5,22c2.3-3.5,1.9-8.3-1.1-11.4
		C20.7,8.9,18.4,8,16,8c-2.4,0-4.7,0.9-6.4,2.6c-3.5,3.5-3.5,9.2,0,12.7c1.7,1.7,4,2.6,6.4,2.6h0c1.8,0,3.5-0.5,5-1.5l0.8,0.8
		c-0.1,0.5,0,1,0.4,1.5C26.2,26.4,29.1,27.3,30.4,27.7z"/>
	<g>
		<circle fill="#F8F8F8" cx="16" cy="17" r="7"/>
		<rect x="21" y="23" transform="matrix(-0.7068 -0.7074 0.7074 -0.7068 22.0817 56.76)" fill="#6D6E71" width="3.5" height="1.6"/>
		<path fill="#B88B55" d="M29.6,31.8c-0.3,0.3-0.8,0.3-1.1,0l-5.6-5.6c-0.3-0.3-0.3-0.8,0-1.1l1.1-1.1c0.3-0.3,0.8-0.3,1.1,0
			l5.6,5.6c0.3,0.3,0.3,0.8,0,1.1L29.6,31.8z"/>
		<path fill="#57A6D9" d="M21.7,11.3c-3.1-3.1-8.2-3.1-11.3,0c-3.1,3.1-3.1,8.2,0,11.3c3.1,3.1,8.2,3.1,11.3,0
			C24.8,19.5,24.8,14.4,21.7,11.3z M20.6,21.6c-2.6,2.6-6.7,2.6-9.3,0c-2.6-2.6-2.6-6.7,0-9.3c2.6-2.6,6.7-2.6,9.3,0
			C23.2,14.9,23.2,19,20.6,21.6z"/>
	</g>
	<rect x="15" y="12" fill="#6D6E71" width="2" height="10"/>
	<rect x="11" y="16" fill="#6D6E71" width="10" height="2"/>
</g>
</svg>
