<?xml version="1.0" encoding="utf-8"?>
<!-- Generator: Adobe Illustrator 16.0.4, SVG Export Plug-In . SVG Version: 6.00 Build 0)  -->
<!DOCTYPE svg PUBLIC "-//W3C//DTD SVG 1.1//EN" "http://www.w3.org/Graphics/SVG/1.1/DTD/svg11.dtd">
<svg version="1.1" xmlns="http://www.w3.org/2000/svg" xmlns:xlink="http://www.w3.org/1999/xlink" x="0px" y="0px" width="32px"
	 height="32px" viewBox="0 0 32 32" enable-background="new 0 0 32 32" xml:space="preserve">
<g id="Dark_Theme_1_" display="none">
	<rect x="-480" y="-64" display="inline" fill="#333333" width="544" height="736"/>
	
		<rect x="-512" y="-96" display="inline" fill="none" stroke="#808080" stroke-width="0.25" stroke-miterlimit="10" width="612" height="792"/>
</g>
<g id="LightTheme" display="none">
	<rect x="-480" y="-64" display="inline" fill="#F8F8F8" width="544" height="736"/>
	
		<rect x="-512" y="-96" display="inline" fill="none" stroke="#808080" stroke-width="0.25" stroke-miterlimit="10" width="612" height="792"/>
</g>
<g id="Hover" display="none">
	<rect x="-480" y="-64" display="inline" fill="#C5E5F9" width="544" height="736"/>
</g>
<g id="Selected" display="none">
	<rect x="-480" y="-64" display="inline" fill="#AADBFA" width="544" height="736"/>
</g>
<g id="Icon_Name">
</g>
<g id="Icons">
	<rect fill-rule="evenodd" clip-rule="evenodd" fill="none" width="32" height="32"/>
	<path fill="#E5D255" d="M31,28c0,0-6-3-15,0S1,28,1,28L5,4c0,0,6,2,11,0s11,0,11,0L31,28z"/>
	<path fill="#6D6E71" d="M8.1,27.2c-2.1,0-3.8-0.2-4.9-0.5L6.6,6.5c1.2,0.2,2.7,0.4,4.3,0.4c2.1,0,4.1-0.3,5.8-1
		c1.2-0.5,2.7-0.7,4.3-0.7c1.7,0,3.2,0.3,4.2,0.5l3.3,19.5c-1.2-0.3-2.8-0.4-4.6-0.4c-2.8,0-5.7,0.4-8.5,1.3
		C12.9,26.9,10.5,27.2,8.1,27.2z"/>
	<path fill="#D3EAF9" d="M8.1,25.9c-1.2,0-2.3,0-3.4-0.2L7.7,8c1.1,0.2,2.2,0.2,3.2,0.2c2.3,0,4.4-0.4,6.3-1.1
		c1.1-0.4,2.4-0.7,3.8-0.7c1,0,2,0.1,3,0.3l2.8,16.9c-1-0.1-2-0.1-3-0.1c-2.9,0-5.9,0.4-8.9,1.4C12.6,25.6,10.3,25.9,8.1,25.9z"/>
	<path fill="#6DB5E3" d="M26.6,21.7l-0.1-0.6c-0.6,0.2-1.2,0.3-1.8,0.3c-0.7,0-1.4-0.1-2.1-0.3c-2-0.7-3.2-1.9-4.1-3.1
		c-0.3-0.4-0.8-0.9-1-1.2c-0.1,0-0.3,0-0.3,0c-0.8,0-2.2,0-3.4-0.9c-1.1-0.7-1.6-1.7-2-2.4c-1.2,0.2-3.2,1-4.3,2.1
		c-0.1,0.1-0.2,0.2-0.3,0.2c-0.3,0.2-0.6,0.3-0.9,0.3l-0.1,0.6c0.5,0,1-0.2,1.3-0.5c0.1-0.1,0.3-0.2,0.4-0.3
		c0.8-0.8,2.4-1.6,3.5-1.9c0.3,0.6,0.9,1.5,2,2.2c1.4,0.9,2.9,1,3.7,1c0,0,0.1,0,0.1,0c0.2,0.2,0.6,0.6,0.8,0.9
		c1,1.2,2.2,2.5,4.4,3.3c0.7,0.2,1.5,0.4,2.3,0.4C25.3,22,26,21.9,26.6,21.7z"/>
	<path fill="#5B945A" d="M25.2,5.6c-1-0.2-2.5-0.5-4.2-0.5c-1.6,0-3.1,0.3-4.3,0.7c-1.7,0.7-3.7,1-5.8,1c-1.6,0-3.2-0.2-4.3-0.4
		L5.2,15c1.1-0.5,2.1-1,2.2-1.1c1.5-1,3.5-1.8,4.7-1.8c0.2,0,0.4,0,0.5,0.1c0.1,0.1,0.3,0.4,0.4,0.6c0.3,0.6,0.7,1.4,1.5,2
		c0.9,0.6,1.9,0.6,2.6,0.6c0.2,0,0.7,0,0.9,0.1c0.5,0.3,1.1,0.9,1.6,1.6c0.9,1.1,1.9,2.3,3.5,2.8c0.5,0.2,1.1,0.3,1.6,0.3
		c0.6,0,1.1-0.1,1.7-0.3c0.2,0,0.6-0.2,1.1-0.4L25.2,5.6z"/>
	<path fill="#DDEEDB" d="M26.1,18.9l-2-12.2c-1-0.2-2.1-0.3-3-0.3c-1.5,0-2.8,0.2-3.8,0.7C15.4,7.8,13.3,8,11,8
		C9.9,8,8.8,7.9,7.7,7.8l-0.9,5.3c1.6-1.1,3.8-2,5.2-2c0.4,0,0.7,0.1,1,0.2c0.3,0.2,0.5,0.5,0.8,1c0.3,0.5,0.6,1.2,1.2,1.6
		c0.7,0.4,1.4,0.5,2.1,0.5c0.5,0,1,0,1.3,0.2c0.7,0.4,1.3,1.1,1.9,1.9c0.8,1,1.7,2.1,3,2.5c0.4,0.1,0.9,0.2,1.3,0.2
		C25.2,19.2,25.7,19.1,26.1,18.9z"/>
	<path fill-rule="evenodd" clip-rule="evenodd" fill="#E89D48" d="M21,13.2c0-0.4,0.5-0.8,1-0.8c0.5,0,1,0.3,1,0.7
		c0,0.4-0.4,0.8-1,0.9C21.4,14,21,13.6,21,13.2z"/>
	<path fill-rule="evenodd" clip-rule="evenodd" fill="#E89D48" d="M17,9.8C17,9.4,17.5,9,18,9c0.5,0,1,0.3,1,0.7
		c0,0.4-0.4,0.8-1,0.9C17.4,10.6,17,10.2,17,9.8z"/>
</g>
</svg>
