<?xml version="1.0" encoding="utf-8"?>
<!-- Generator: Adobe Illustrator 16.0.4, SVG Export Plug-In . SVG Version: 6.00 Build 0)  -->
<!DOCTYPE svg PUBLIC "-//W3C//DTD SVG 1.1//EN" "http://www.w3.org/Graphics/SVG/1.1/DTD/svg11.dtd">
<svg version="1.1" xmlns="http://www.w3.org/2000/svg" xmlns:xlink="http://www.w3.org/1999/xlink" x="0px" y="0px" width="32px"
	 height="32px" viewBox="0 0 32 32" enable-background="new 0 0 32 32" xml:space="preserve">
<g id="Dark_Theme_1_" display="none">
	<rect x="-352" y="-448" display="inline" fill="#333333" width="544" height="736"/>
	
		<rect x="-384" y="-480" display="inline" fill="none" stroke="#808080" stroke-width="0.25" stroke-miterlimit="10" width="612" height="792"/>
</g>
<g id="LightTheme" display="none">
	<rect x="-352" y="-448" display="inline" fill="#F8F8F8" width="544" height="736"/>
	
		<rect x="-384" y="-480" display="inline" fill="none" stroke="#808080" stroke-width="0.25" stroke-miterlimit="10" width="612" height="792"/>
</g>
<g id="Hover" display="none">
	<rect x="-352" y="-448" display="inline" fill="#C5E5F9" width="544" height="736"/>
</g>
<g id="Selected" display="none">
	<rect x="-352" y="-448" display="inline" fill="#AADBFA" width="544" height="736"/>
</g>
<g id="Icon_Name">
</g>
<g id="Icons">
	<polygon fill="#68AA67" points="4,2 27,8 27,29 4,29 	"/>
	<polygon fill="#DDEEDB" points="5,28 5,3.3 26,8.8 26,28 	"/>
	<rect fill="none" width="32" height="32"/>
	<rect x="25" y="7" fill="#5B945A" width="3" height="3"/>
	<rect x="26" y="8" fill="#9BC29C" width="1" height="1"/>
	<rect x="25" y="27" fill="#5B945A" width="3" height="3"/>
	<rect x="26" y="28" fill="#9BC29C" width="1" height="1"/>
	<rect x="3" y="1" fill="#5B945A" width="3" height="3"/>
	<rect x="4" y="2" fill="#9BC29C" width="1" height="1"/>
	<rect x="3" y="27" fill="#5B945A" width="3" height="3"/>
	<rect x="4" y="28" fill="#9BC29C" width="1" height="1"/>
	<g>
		<rect x="1" y="16" fill-rule="evenodd" clip-rule="evenodd" fill="#F8F8F8" width="29" height="8"/>
		<path fill="#B88B55" d="M0,15v10h31V15H0z M30,24H1v-8h29V24z"/>
		<rect x="2" y="21" fill="#B88B55" width="1" height="3"/>
		<rect x="4" y="20" fill="#B88B55" width="1" height="4"/>
		<rect x="6" y="21" fill="#B88B55" width="1" height="3"/>
		<rect x="8" y="17" fill="#B88B55" width="1" height="7"/>
		<rect x="10" y="21" fill="#B88B55" width="1" height="3"/>
		<rect x="12" y="20" fill="#B88B55" width="1" height="4"/>
		<rect x="14" y="21" fill="#B88B55" width="1" height="3"/>
		<rect x="16" y="17" fill="#B88B55" width="1" height="7"/>
		<rect x="18" y="21" fill="#B88B55" width="1" height="3"/>
		<rect x="20" y="20" fill="#B88B55" width="1" height="4"/>
		<rect x="22" y="21" fill="#B88B55" width="1" height="3"/>
		<rect x="26" y="21" fill="#B88B55" width="1" height="3"/>
		<rect x="28" y="20" fill="#B88B55" width="1" height="4"/>
		<rect x="24" y="17" fill="#B88B55" width="1" height="7"/>
	</g>
</g>
</svg>
