<?xml version="1.0" encoding="utf-8"?>
<!-- Generator: Adobe Illustrator 16.0.4, SVG Export Plug-In . SVG Version: 6.00 Build 0)  -->
<!DOCTYPE svg PUBLIC "-//W3C//DTD SVG 1.1//EN" "http://www.w3.org/Graphics/SVG/1.1/DTD/svg11.dtd">
<svg version="1.1" xmlns="http://www.w3.org/2000/svg" xmlns:xlink="http://www.w3.org/1999/xlink" x="0px" y="0px" width="32px"
	 height="32px" viewBox="0 0 32 32" enable-background="new 0 0 32 32" xml:space="preserve">
<g id="Dark_Theme_1_" display="none">
	<rect x="-480" y="-448" display="inline" fill="#333333" width="544" height="736"/>
	
		<rect x="-512" y="-480" display="inline" fill="none" stroke="#808080" stroke-width="0.25" stroke-miterlimit="10" width="612" height="792"/>
</g>
<g id="LightTheme" display="none">
	<rect x="-480" y="-448" display="inline" fill="#F8F8F8" width="544" height="736"/>
	
		<rect x="-512" y="-480" display="inline" fill="none" stroke="#808080" stroke-width="0.25" stroke-miterlimit="10" width="612" height="792"/>
</g>
<g id="Hover" display="none">
	<rect x="-480" y="-448" display="inline" fill="#C5E5F9" width="544" height="736"/>
</g>
<g id="Selected" display="none">
	<rect x="-480" y="-448" display="inline" fill="#AADBFA" width="544" height="736"/>
</g>
<g id="Icon_Name">
</g>
<g id="Icons">
	<rect fill-rule="evenodd" clip-rule="evenodd" fill="none" width="32" height="32"/>
	<rect x="3" y="3" fill="#6D6E71" width="27" height="27"/>
	<rect x="4" y="4" fill="#D3EAF9" width="25" height="25"/>
	<rect x="4" y="4" fill="#D3EAF9" width="25" height="25"/>
	<path fill="#9BC29C" d="M29,29v-8.5c-0.6,0.2-1.2,0.5-1.3,0.5c-0.4,0-0.8,0-1.1,0c-0.6,0-1.2,0.1-1.6-0.3c-0.5-0.4-0.5-1.2-1.1-1.2
		c-0.9,0-0.9,1.3-1.8,1.3c-0.4,0-0.7-0.3-1.1-0.3c-0.3,0-0.8,0.2-0.8,0.6c0,0.3,0,0.6,0,0.9c0,0.8-0.9,0.9-0.9,1.7
		c0,0.3,0.3,0.4,0.3,0.7c0,1-1.6,0.9-1.6,1.9c0,0.3-0.5,0.5,0.4,0.9c0,0,0,0,0,0.1c0,0.4-0.6,1-0.7,1.7H29z"/>
	<path fill="#9BC29C" d="M13.2,28.8c0-0.5,0.2-0.9,0.3-1.4c0.1-0.3,0.2-0.6,0.2-1c0-1-1.9-0.7-2.2-1.3c-0.7-1.5,1.2-1.8,1.2-3
		c0-0.3-0.1-0.9-0.6-0.9c-0.6-0.1-0.8,0.3-1.4,0.3c-0.4,0-0.8-0.3-0.8-0.6c0-0.7,0.6-1,0.6-1.7c0-0.5-0.2-0.7-0.2-1.2
		c0-0.6,0.5-1.2,1.1-1.2c0.6,0,0.8,0.5,1.1,1c0.2,0.4,0.6,0.6,1.1,0.6c0.9,0,1.4-1.1,1.4-1.8c0-0.5,0.3-0.9,0.8-0.9
		c0.6,0,0.9,0.6,1.5,0.6c1,0,1-1.4,1.9-1.9c1.1-0.6,0.8-1.9,0.6-2.6c-0.1-0.3,0.5-0.9,0.8-0.9c1.3,0.1,0.7-1,0.7-1.5
		c0-0.1,0-0.2,0-0.3c0.2-0.6,1.1-0.8,1.1-1.5c0-0.5-0.4-0.7-0.4-1.2c0-0.8,1.1-1.4,2.3-2c0.3-0.1,0.4-0.2,0.5-0.5H4v25h9.3
		C13.2,28.8,13.2,28.8,13.2,28.8z"/>
	<path fill="#9BC29C" d="M13.2,28.8c0-0.5,0.2-0.9,0.3-1.4c0.1-0.3,0.2-0.6,0.2-1c0-1-1.9-0.7-2.2-1.3c-0.7-1.5,1.2-1.8,1.2-3
		c0-0.3-0.1-0.9-0.6-0.9c-0.6-0.1-0.8,0.3-1.4,0.3c-0.4,0-0.8-0.3-0.8-0.6c0-0.7,0.6-1,0.6-1.7c0-0.5-0.2-0.7-0.2-1.2
		c0-0.6,0.5-1.2,1.1-1.2c0.6,0,0.8,0.5,1.1,1c0.2,0.4,0.6,0.6,1.1,0.6c0.9,0,1.4-1.1,1.4-1.8c0-0.5,0.3-0.9,0.8-0.9
		c0.6,0,0.9,0.6,1.5,0.6c1,0,1-1.4,1.9-1.9c1.1-0.6,0.8-1.9,0.6-2.6c-0.1-0.3,0.5-0.9,0.8-0.9c1.3,0.1,0.7-1,0.7-1.5
		c0-0.1,0-0.2,0-0.3c0.2-0.6,1.1-0.8,1.1-1.5c0-0.5-0.4-0.7-0.4-1.2c0-0.8,1.1-1.4,2.3-2c0.3-0.1,0.4-0.2,0.5-0.5H4v25h9.3
		C13.2,28.8,13.2,28.8,13.2,28.8z"/>
	<path fill="#F8F8F8" d="M4,4v25h25V4H4z M28,28H5V5h23V28z"/>
	<path fill-rule="evenodd" clip-rule="evenodd" fill="#F8F8F8" d="M8,3v5H3v3h5v8c0,0.6,0.4,1,1,1h1c0.6,0,1-0.4,1-1v-8h8
		c0.6,0,1-0.4,1-1V9c0-0.6-0.4-1-1-1h-8V3H8z"/>
	<rect x="12" y="9" fill="#6D6E71" width="7" height="1"/>
	<rect y="9" fill="#6D6E71" width="7" height="1"/>
	<rect x="9" y="12" fill="#6D6E71" width="1" height="7"/>
	<rect x="9" fill="#6D6E71" width="1" height="7"/>
	<rect x="9" y="9" fill="#6D6E71" width="1" height="1"/>
</g>
</svg>
