<?xml version="1.0" encoding="utf-8"?>
<!-- Generator: Adobe Illustrator 16.0.4, SVG Export Plug-In . SVG Version: 6.00 Build 0)  -->
<!DOCTYPE svg PUBLIC "-//W3C//DTD SVG 1.1//EN" "http://www.w3.org/Graphics/SVG/1.1/DTD/svg11.dtd">
<svg version="1.1" xmlns="http://www.w3.org/2000/svg" xmlns:xlink="http://www.w3.org/1999/xlink" x="0px" y="0px" width="32px"
	 height="32px" viewBox="0 0 32 32" enable-background="new 0 0 32 32" xml:space="preserve">
<g id="Dark_Theme_1_" display="none">
	<rect x="-416" y="-448" display="inline" fill="#333333" width="544" height="736"/>
	
		<rect x="-448" y="-480" display="inline" fill="none" stroke="#808080" stroke-width="0.25" stroke-miterlimit="10" width="612" height="792"/>
</g>
<g id="LightTheme" display="none">
	<rect x="-416" y="-448" display="inline" fill="#F8F8F8" width="544" height="736"/>
	
		<rect x="-448" y="-480" display="inline" fill="none" stroke="#808080" stroke-width="0.25" stroke-miterlimit="10" width="612" height="792"/>
</g>
<g id="Hover" display="none">
	<rect x="-416" y="-448" display="inline" fill="#C5E5F9" width="544" height="736"/>
</g>
<g id="Selected" display="none">
	<rect x="-416" y="-448" display="inline" fill="#AADBFA" width="544" height="736"/>
</g>
<g id="Icon_Name">
</g>
<g id="Icons">
	<rect x="1" y="18" fill-rule="evenodd" clip-rule="evenodd" fill="#F8F8F8" width="30" height="8"/>
	<polygon fill-rule="evenodd" clip-rule="evenodd" fill="#6D6E71" points="13,7 5.3,7 8.7,3.6 7.4,2.3 1.8,8 7.4,13.7 8.7,12.4 
		5.3,9 13,9 	"/>
	<polygon fill-rule="evenodd" clip-rule="evenodd" fill="#6D6E71" points="19,9 26.7,9 23.3,12.4 24.6,13.7 30.2,8 24.6,2.3 
		23.3,3.6 26.7,7 19,7 	"/>
	<rect y="-1" fill="none" width="32" height="32"/>
	<g>
		<path fill="#B88B55" d="M0,17v10h32V17H0z M31,26H1v-8h30V26z"/>
		<rect x="2" y="23" fill="#B88B55" width="1" height="3"/>
		<rect x="4" y="22" fill="#B88B55" width="1" height="4"/>
		<rect x="6" y="23" fill="#B88B55" width="1" height="3"/>
		<rect x="8" y="19" fill="#B88B55" width="1" height="7"/>
		<rect x="10" y="23" fill="#B88B55" width="1" height="3"/>
		<rect x="12" y="22" fill="#B88B55" width="1" height="4"/>
		<rect x="14" y="23" fill="#B88B55" width="1" height="3"/>
		<rect x="16" y="19" fill="#B88B55" width="1" height="7"/>
		<rect x="18" y="23" fill="#B88B55" width="1" height="3"/>
		<rect x="20" y="22" fill="#B88B55" width="1" height="4"/>
		<rect x="22" y="23" fill="#B88B55" width="1" height="3"/>
		<rect x="26" y="23" fill="#B88B55" width="1" height="3"/>
		<rect x="28" y="22" fill="#B88B55" width="1" height="4"/>
		<rect x="30" y="23" fill="#B88B55" width="1" height="3"/>
		<rect x="24" y="19" fill="#B88B55" width="1" height="7"/>
	</g>
</g>
</svg>
