<?xml version="1.0" encoding="utf-8"?>
<!-- Generator: Adobe Illustrator 16.0.4, SVG Export Plug-In . SVG Version: 6.00 Build 0)  -->
<!DOCTYPE svg PUBLIC "-//W3C//DTD SVG 1.1//EN" "http://www.w3.org/Graphics/SVG/1.1/DTD/svg11.dtd">
<svg version="1.1" xmlns="http://www.w3.org/2000/svg" xmlns:xlink="http://www.w3.org/1999/xlink" x="0px" y="0px" width="32px"
	 height="32px" viewBox="0 0 32 32" enable-background="new 0 0 32 32" xml:space="preserve">
<g id="Dark_Theme_1_" display="none">
	<rect x="-96" y="-352" display="inline" fill="#333333" width="544" height="736"/>
	
		<rect x="-128" y="-384" display="inline" fill="none" stroke="#808080" stroke-width="0.25" stroke-miterlimit="10" width="612" height="792"/>
</g>
<g id="LightTheme" display="none">
	<rect x="-96" y="-352" display="inline" fill="#F8F8F8" width="544" height="736"/>
	
		<rect x="-128" y="-384" display="inline" fill="none" stroke="#808080" stroke-width="0.25" stroke-miterlimit="10" width="612" height="792"/>
</g>
<g id="Hover" display="none">
	<rect x="-96" y="-352" display="inline" fill="#C5E5F9" width="544" height="736"/>
</g>
<g id="Selected" display="none">
	<rect x="-96" y="-352" display="inline" fill="#AADBFA" width="544" height="736"/>
</g>
<g id="Icon_Name">
</g>
<g id="Icons">
	<rect fill-rule="evenodd" clip-rule="evenodd" fill="none" width="32" height="32"/>
	<path fill="#E5D255" d="M31,28c0,0-6-3-15,0S1,28,1,28L5,4c0,0,6,2,11,0s11,0,11,0L31,28z"/>
	<g>
		<rect x="7" y="16" fill="#797979" width="19" height="15"/>
		<rect x="7" y="16" fill="#6D6E71" width="19" height="15"/>
		<rect x="8" y="17" fill="#FFFFFF" width="17" height="13"/>
		<rect x="16" y="17" fill="#D3EAF9" width="9" height="13"/>
		<rect x="20" y="19" fill="#57A6D9" width="1" height="9"/>
		<rect x="17" y="19" fill="#57A6D9" width="7" height="1"/>
		<polygon fill="#6D6E71" points="12,20 14,18 13,18 11.5,19.5 10,18 9,18 11,20 11,27 9,29 10,29 11.5,27.5 13,29 14,29 12,27 		
			"/>
	</g>
</g>
</svg>
