<?xml version="1.0" encoding="utf-8"?>
<!-- Generator: Adobe Illustrator 16.0.4, SVG Export Plug-In . SVG Version: 6.00 Build 0)  -->
<!DOCTYPE svg PUBLIC "-//W3C//DTD SVG 1.1//EN" "http://www.w3.org/Graphics/SVG/1.1/DTD/svg11.dtd">
<svg version="1.1" xmlns="http://www.w3.org/2000/svg" xmlns:xlink="http://www.w3.org/1999/xlink" x="0px" y="0px" width="32px"
	 height="32px" viewBox="0 0 32 32" enable-background="new 0 0 32 32" xml:space="preserve">
<g id="Dark_Theme_1_" display="none">
	<rect x="-288" y="-352" display="inline" fill="#333333" width="544" height="736"/>
	
		<rect x="-320" y="-384" display="inline" fill="none" stroke="#808080" stroke-width="0.25" stroke-miterlimit="10" width="612" height="792"/>
</g>
<g id="LightTheme" display="none">
	<rect x="-288" y="-352" display="inline" fill="#F8F8F8" width="544" height="736"/>
	
		<rect x="-320" y="-384" display="inline" fill="none" stroke="#808080" stroke-width="0.25" stroke-miterlimit="10" width="612" height="792"/>
</g>
<g id="Hover" display="none">
	<rect x="-288" y="-352" display="inline" fill="#C5E5F9" width="544" height="736"/>
</g>
<g id="Selected" display="none">
	<rect x="-288" y="-352" display="inline" fill="#AADBFA" width="544" height="736"/>
</g>
<g id="Icon_Name">
</g>
<g id="Icons">
	<rect fill-rule="evenodd" clip-rule="evenodd" fill="none" width="32" height="32"/>
	<rect y="14" fill="#6D6E71" width="32" height="10"/>
	<rect y="14" fill="#6D6E71" width="32" height="10"/>
	<rect x="1" y="19" fill="#F8F8F8" width="10" height="4"/>
	<rect x="21" y="19" fill="#F8F8F8" width="10" height="4"/>
	<rect x="11" y="15" fill="#F8F8F8" width="10" height="4"/>
	<rect x="11" y="19" fill="#6DB5E3" width="10" height="4"/>
	<rect x="21" y="15" fill="#6DB5E3" width="10" height="4"/>
	<rect x="1" y="15" fill="#6DB5E3" width="10" height="4"/>
	<path fill-rule="evenodd" clip-rule="evenodd" fill="#F8F8F8" d="M23,14v1c0,0.6,0.4,1,1,1h2c0.6,0,1-0.4,1-1v-1H23z"/>
	<polygon fill-rule="evenodd" clip-rule="evenodd" fill="#6D6E71" points="30,7.8 25,3 20,7.8 20,9.1 20.6,9.7 24,6.3 24,15 26,15 
		26,6.3 29.4,9.7 30,9.1 	"/>
	<path fill-rule="evenodd" clip-rule="evenodd" fill="#F8F8F8" d="M5.6,14l1.7,1.7C7.5,15.9,7.7,16,8,16s0.5-0.1,0.7-0.3l1.7-1.7
		H5.6z"/>
	<polygon fill-rule="evenodd" clip-rule="evenodd" fill="#6D6E71" points="3,10 8,15 13,10 13,8.7 12.4,8.1 9,11.5 9,3 7,3 7,11.5 
		3.6,8.1 3,8.7 	"/>
</g>
</svg>
