<?xml version="1.0" encoding="utf-8"?>
<!-- Generator: Adobe Illustrator 16.0.4, SVG Export Plug-In . SVG Version: 6.00 Build 0)  -->
<!DOCTYPE svg PUBLIC "-//W3C//DTD SVG 1.1//EN" "http://www.w3.org/Graphics/SVG/1.1/DTD/svg11.dtd">
<svg version="1.1" xmlns="http://www.w3.org/2000/svg" xmlns:xlink="http://www.w3.org/1999/xlink" x="0px" y="0px" width="32px"
	 height="32px" viewBox="0 0 32 32" enable-background="new 0 0 32 32" xml:space="preserve">
<g id="Dark_Theme_1_" display="none">
	<rect x="-288" y="-160" display="inline" fill="#333333" width="544" height="736"/>
	
		<rect x="-320" y="-192" display="inline" fill="none" stroke="#808080" stroke-width="0.25" stroke-miterlimit="10" width="612" height="792"/>
</g>
<g id="LightTheme" display="none">
	<rect x="-288" y="-160" display="inline" fill="#F8F8F8" width="544" height="736"/>
	
		<rect x="-320" y="-192" display="inline" fill="none" stroke="#808080" stroke-width="0.25" stroke-miterlimit="10" width="612" height="792"/>
</g>
<g id="Hover" display="none">
	<rect x="-288" y="-160" display="inline" fill="#C5E5F9" width="544" height="736"/>
</g>
<g id="Selected" display="none">
	<rect x="-288" y="-160" display="inline" fill="#AADBFA" width="544" height="736"/>
</g>
<g id="Icon_Name">
</g>
<g id="Icons">
	<circle fill-rule="evenodd" clip-rule="evenodd" fill="#F8F8F8" cx="14" cy="13" r="8.5"/>
	<rect fill-rule="evenodd" clip-rule="evenodd" fill="none" width="32" height="32"/>
	<path fill="#6D6E71" d="M20.4,6.6c-3.5-3.5-9.2-3.5-12.7,0c-3.5,3.5-3.5,9.2,0,12.7c3.5,3.5,9.2,3.5,12.7,0
		C23.9,15.8,23.9,10.2,20.4,6.6z M19.2,18.2c-2.9,2.9-7.5,2.9-10.4,0c-2.9-2.9-2.9-7.5,0-10.4c2.9-2.9,7.5-2.9,10.4,0
		C22.1,10.7,22.1,15.3,19.2,18.2z"/>
	
		<rect x="19.3" y="19.8" transform="matrix(-0.7071 -0.7071 0.7071 -0.7071 20.8382 50.3111)" fill="#6D6E71" width="3" height="2"/>
	<path fill="#6D6E71" d="M27.4,28.8c-0.4,0.4-1,0.4-1.4,0l-5.5-5.5c-0.4-0.4-0.4-1,0-1.4l1.4-1.4c0.4-0.4,1-0.4,1.4,0l5.5,5.5
		c0.4,0.4,0.4,1,0,1.4L27.4,28.8z"/>
</g>
</svg>
