<?xml version="1.0" encoding="utf-8"?>
<!-- Generator: Adobe Illustrator 16.0.4, SVG Export Plug-In . SVG Version: 6.00 Build 0)  -->
<!DOCTYPE svg PUBLIC "-//W3C//DTD SVG 1.1//EN" "http://www.w3.org/Graphics/SVG/1.1/DTD/svg11.dtd">
<svg version="1.1" xmlns="http://www.w3.org/2000/svg" xmlns:xlink="http://www.w3.org/1999/xlink" x="0px" y="0px" width="32px"
	 height="32px" viewBox="0 0 32 32" enable-background="new 0 0 32 32" xml:space="preserve">
<g id="Dark_Theme_1_" display="none">
	<rect x="-96" y="-64" display="inline" fill="#333333" width="544" height="736"/>
	
		<rect x="-128" y="-96" display="inline" fill="none" stroke="#808080" stroke-width="0.25" stroke-miterlimit="10" width="612" height="792"/>
</g>
<g id="LightTheme" display="none">
	<rect x="-96" y="-64" display="inline" fill="#F8F8F8" width="544" height="736"/>
	
		<rect x="-128" y="-96" display="inline" fill="none" stroke="#808080" stroke-width="0.25" stroke-miterlimit="10" width="612" height="792"/>
</g>
<g id="Hover" display="none">
	<rect x="-96" y="-64" display="inline" fill="#C5E5F9" width="544" height="736"/>
</g>
<g id="Selected" display="none">
	<rect x="-96" y="-64" display="inline" fill="#AADBFA" width="544" height="736"/>
</g>
<g id="Icon_Name">
</g>
<g id="Icons">
	<rect fill-rule="evenodd" clip-rule="evenodd" fill="none" width="32" height="32"/>
	<rect x="1" y="1" fill="#6D6E71" width="30" height="30"/>
	<rect x="2" y="2" fill="#D3EAF9" width="28" height="28"/>
	<path fill="#57A6D9" d="M30,30v-9.5c-0.6,0.2-1.4,0.5-1.6,0.5c-0.4,0-0.8,0-1.3,0c-0.7,0-1.3,0.1-1.8-0.4c-0.5-0.5-0.5-1.3-1.2-1.3
		c-1,0-1,1.5-2,1.5c-0.4,0-0.8-0.3-1.2-0.3c-0.4,0-0.9,0.3-0.9,0.6c0,0.3,0,0.7,0,1c0,0.8-1,1-1,1.9c0,0.3,0.4,0.5,0.4,0.8
		c0,1.2-1.8,1-1.8,2.2c0,0.4-0.6,0.6,0.4,1c0,0,0,0,0,0.1c0,0.4-0.6,1.2-0.8,2H30z"/>
	<path fill="#57A6D9" d="M12.4,29.6c0-0.6,0.2-1,0.4-1.5c0.1-0.3,0.2-0.7,0.2-1.1c0-1.1-2.1-0.8-2.4-1.4c-0.8-1.6,1.4-2,1.4-3.3
		c0-0.3-0.2-1-0.7-1c-0.7-0.1-0.9,0.3-1.6,0.3c-0.4,0-0.9-0.3-0.9-0.7c0-0.8,0.6-1.1,0.6-1.9c0-0.5-0.2-0.8-0.2-1.3
		c0-0.7,0.5-1.3,1.2-1.3c0.6,0,0.9,0.5,1.2,1.1c0.3,0.5,0.7,0.6,1.2,0.6c1,0,1.6-1.2,1.6-2c0-0.5,0.4-1,0.9-1c0.7,0,1,0.7,1.6,0.7
		c1.1,0,1.1-1.5,2.1-2.1c1.2-0.7,0.9-2.1,0.7-2.9c-0.1-0.3,0.6-1,0.9-1c1.4,0.1,0.8-1.1,0.8-1.6c0-0.1,0-0.2,0-0.3
		c0.2-0.7,1.2-0.9,1.2-1.7c0-0.6-0.5-0.8-0.5-1.4c0-0.8,1.2-1.6,2.5-2.2c0.3-0.1,0.5-0.4,0.5-0.7H2v28h10.4
		C12.4,29.8,12.4,29.7,12.4,29.6z"/>
	<path fill="#F8F8F8" d="M2,2v28h28V2H2z M29,29H3V3h26V29z"/>
</g>
</svg>
